%TF.GenerationSoftware,KiCad,Pcbnew,7.0.2*%
%TF.CreationDate,2023-10-20T21:52:03-04:00*%
%TF.ProjectId,XBee_Joint,58426565-5f4a-46f6-996e-742e6b696361,rev?*%
%TF.SameCoordinates,Original*%
%TF.FileFunction,Copper,L1,Top*%
%TF.FilePolarity,Positive*%
%FSLAX46Y46*%
G04 Gerber Fmt 4.6, Leading zero omitted, Abs format (unit mm)*
G04 Created by KiCad (PCBNEW 7.0.2) date 2023-10-20 21:52:03*
%MOMM*%
%LPD*%
G01*
G04 APERTURE LIST*
G04 Aperture macros list*
%AMRoundRect*
0 Rectangle with rounded corners*
0 $1 Rounding radius*
0 $2 $3 $4 $5 $6 $7 $8 $9 X,Y pos of 4 corners*
0 Add a 4 corners polygon primitive as box body*
4,1,4,$2,$3,$4,$5,$6,$7,$8,$9,$2,$3,0*
0 Add four circle primitives for the rounded corners*
1,1,$1+$1,$2,$3*
1,1,$1+$1,$4,$5*
1,1,$1+$1,$6,$7*
1,1,$1+$1,$8,$9*
0 Add four rect primitives between the rounded corners*
20,1,$1+$1,$2,$3,$4,$5,0*
20,1,$1+$1,$4,$5,$6,$7,0*
20,1,$1+$1,$6,$7,$8,$9,0*
20,1,$1+$1,$8,$9,$2,$3,0*%
G04 Aperture macros list end*
%TA.AperFunction,SMDPad,CuDef*%
%ADD10RoundRect,0.135000X0.185000X-0.135000X0.185000X0.135000X-0.185000X0.135000X-0.185000X-0.135000X0*%
%TD*%
%TA.AperFunction,SMDPad,CuDef*%
%ADD11RoundRect,0.200000X-0.200000X-0.275000X0.200000X-0.275000X0.200000X0.275000X-0.200000X0.275000X0*%
%TD*%
%TA.AperFunction,SMDPad,CuDef*%
%ADD12RoundRect,0.140000X-0.140000X-0.170000X0.140000X-0.170000X0.140000X0.170000X-0.140000X0.170000X0*%
%TD*%
%TA.AperFunction,SMDPad,CuDef*%
%ADD13RoundRect,0.200000X0.275000X-0.200000X0.275000X0.200000X-0.275000X0.200000X-0.275000X-0.200000X0*%
%TD*%
%TA.AperFunction,SMDPad,CuDef*%
%ADD14RoundRect,0.140000X0.140000X0.170000X-0.140000X0.170000X-0.140000X-0.170000X0.140000X-0.170000X0*%
%TD*%
%TA.AperFunction,SMDPad,CuDef*%
%ADD15R,0.600000X1.150000*%
%TD*%
%TA.AperFunction,SMDPad,CuDef*%
%ADD16R,0.300000X1.150000*%
%TD*%
%TA.AperFunction,ComponentPad*%
%ADD17O,1.000000X2.100000*%
%TD*%
%TA.AperFunction,ComponentPad*%
%ADD18O,1.000000X1.800000*%
%TD*%
%TA.AperFunction,SMDPad,CuDef*%
%ADD19O,1.500000X0.800000*%
%TD*%
%TA.AperFunction,SMDPad,CuDef*%
%ADD20RoundRect,0.140000X-0.170000X0.140000X-0.170000X-0.140000X0.170000X-0.140000X0.170000X0.140000X0*%
%TD*%
%TA.AperFunction,SMDPad,CuDef*%
%ADD21RoundRect,0.050000X0.387500X0.050000X-0.387500X0.050000X-0.387500X-0.050000X0.387500X-0.050000X0*%
%TD*%
%TA.AperFunction,SMDPad,CuDef*%
%ADD22RoundRect,0.050000X0.050000X0.387500X-0.050000X0.387500X-0.050000X-0.387500X0.050000X-0.387500X0*%
%TD*%
%TA.AperFunction,ComponentPad*%
%ADD23C,0.600000*%
%TD*%
%TA.AperFunction,SMDPad,CuDef*%
%ADD24RoundRect,0.144000X1.456000X1.456000X-1.456000X1.456000X-1.456000X-1.456000X1.456000X-1.456000X0*%
%TD*%
%TA.AperFunction,SMDPad,CuDef*%
%ADD25R,1.406398X0.811200*%
%TD*%
%TA.AperFunction,SMDPad,CuDef*%
%ADD26RoundRect,0.225000X-0.250000X0.225000X-0.250000X-0.225000X0.250000X-0.225000X0.250000X0.225000X0*%
%TD*%
%TA.AperFunction,SMDPad,CuDef*%
%ADD27RoundRect,0.140000X0.170000X-0.140000X0.170000X0.140000X-0.170000X0.140000X-0.170000X-0.140000X0*%
%TD*%
%TA.AperFunction,SMDPad,CuDef*%
%ADD28R,0.965200X0.431800*%
%TD*%
%TA.AperFunction,SMDPad,CuDef*%
%ADD29R,3.454400X4.343400*%
%TD*%
%TA.AperFunction,ComponentPad*%
%ADD30C,4.400000*%
%TD*%
%TA.AperFunction,SMDPad,CuDef*%
%ADD31R,1.000000X1.150000*%
%TD*%
%TA.AperFunction,SMDPad,CuDef*%
%ADD32R,0.558000X0.972299*%
%TD*%
%TA.AperFunction,SMDPad,CuDef*%
%ADD33RoundRect,0.218750X0.256250X-0.218750X0.256250X0.218750X-0.256250X0.218750X-0.256250X-0.218750X0*%
%TD*%
%TA.AperFunction,SMDPad,CuDef*%
%ADD34RoundRect,0.200000X-0.275000X0.200000X-0.275000X-0.200000X0.275000X-0.200000X0.275000X0.200000X0*%
%TD*%
%TA.AperFunction,SMDPad,CuDef*%
%ADD35RoundRect,0.237500X-0.250000X-0.237500X0.250000X-0.237500X0.250000X0.237500X-0.250000X0.237500X0*%
%TD*%
%TA.AperFunction,SMDPad,CuDef*%
%ADD36RoundRect,0.237500X0.250000X0.237500X-0.250000X0.237500X-0.250000X-0.237500X0.250000X-0.237500X0*%
%TD*%
%TA.AperFunction,SMDPad,CuDef*%
%ADD37R,1.500000X2.000000*%
%TD*%
%TA.AperFunction,SMDPad,CuDef*%
%ADD38R,3.800000X2.000000*%
%TD*%
%TA.AperFunction,SMDPad,CuDef*%
%ADD39R,2.420000X5.080000*%
%TD*%
%TA.AperFunction,SMDPad,CuDef*%
%ADD40R,0.460000X0.950000*%
%TD*%
%TA.AperFunction,ComponentPad*%
%ADD41C,0.970000*%
%TD*%
%TA.AperFunction,ViaPad*%
%ADD42C,0.450000*%
%TD*%
%TA.AperFunction,ViaPad*%
%ADD43C,1.000000*%
%TD*%
%TA.AperFunction,ViaPad*%
%ADD44C,0.600000*%
%TD*%
%TA.AperFunction,Conductor*%
%ADD45C,0.200000*%
%TD*%
%TA.AperFunction,Conductor*%
%ADD46C,0.250000*%
%TD*%
%TA.AperFunction,Conductor*%
%ADD47C,0.600000*%
%TD*%
%TA.AperFunction,Conductor*%
%ADD48C,0.450000*%
%TD*%
%TA.AperFunction,Conductor*%
%ADD49C,1.000000*%
%TD*%
%TA.AperFunction,Conductor*%
%ADD50C,0.300000*%
%TD*%
%TA.AperFunction,Conductor*%
%ADD51C,0.650000*%
%TD*%
G04 APERTURE END LIST*
D10*
%TO.P,R3,1*%
%TO.N,/USB_D-*%
X76930000Y-132120000D03*
%TO.P,R3,2*%
%TO.N,Net-(U1-USB_DM)*%
X76930000Y-131100000D03*
%TD*%
D11*
%TO.P,R4,1*%
%TO.N,+3V3*%
X72405000Y-121430000D03*
%TO.P,R4,2*%
%TO.N,Net-(U1-RUN)*%
X74055000Y-121430000D03*
%TD*%
D12*
%TO.P,C12,1*%
%TO.N,+3V3*%
X83780000Y-124480000D03*
%TO.P,C12,2*%
%TO.N,GND*%
X84740000Y-124480000D03*
%TD*%
D13*
%TO.P,R6,1*%
%TO.N,+3V3*%
X68286250Y-130652500D03*
%TO.P,R6,2*%
%TO.N,Net-(D1-A)*%
X68286250Y-129002500D03*
%TD*%
D14*
%TO.P,C15,1*%
%TO.N,+3V3*%
X74300000Y-128465000D03*
%TO.P,C15,2*%
%TO.N,GND*%
X73340000Y-128465000D03*
%TD*%
D15*
%TO.P,J2,A1,GND*%
%TO.N,GND*%
X74140000Y-142540000D03*
%TO.P,J2,A4,VBUS*%
%TO.N,VBUS*%
X74940000Y-142540000D03*
D16*
%TO.P,J2,A5,CC1*%
%TO.N,Net-(J2-CC1)*%
X76090000Y-142540000D03*
%TO.P,J2,A6,D+*%
%TO.N,Net-(J2-D+-PadA6)*%
X77090000Y-142540000D03*
%TO.P,J2,A7,D-*%
%TO.N,Net-(J2-D--PadA7)*%
X77590000Y-142540000D03*
%TO.P,J2,A8,SBU1*%
%TO.N,unconnected-(J2-SBU1-PadA8)*%
X78590000Y-142540000D03*
D15*
%TO.P,J2,A9,VBUS*%
%TO.N,VBUS*%
X79740000Y-142540000D03*
%TO.P,J2,A12,GND*%
%TO.N,GND*%
X80540000Y-142540000D03*
%TO.P,J2,B1,GND*%
X80540000Y-142540000D03*
%TO.P,J2,B4,VBUS*%
%TO.N,VBUS*%
X79740000Y-142540000D03*
D16*
%TO.P,J2,B5,CC2*%
%TO.N,Net-(J2-CC2)*%
X79090000Y-142540000D03*
%TO.P,J2,B6,D+*%
%TO.N,Net-(J2-D+-PadA6)*%
X78090000Y-142540000D03*
%TO.P,J2,B7,D-*%
%TO.N,Net-(J2-D--PadA7)*%
X76590000Y-142540000D03*
%TO.P,J2,B8,SBU2*%
%TO.N,unconnected-(J2-SBU2-PadB8)*%
X75590000Y-142540000D03*
D15*
%TO.P,J2,B9,VBUS*%
%TO.N,VBUS*%
X74940000Y-142540000D03*
%TO.P,J2,B12,GND*%
%TO.N,GND*%
X74140000Y-142540000D03*
D17*
%TO.P,J2,S1,SHIELD*%
X73020000Y-143115000D03*
D18*
X73020000Y-147295000D03*
D17*
X81660000Y-143115000D03*
D18*
X81660000Y-147295000D03*
%TD*%
D19*
%TO.P,J1,1,Pin_1*%
%TO.N,/RP_SWCLK*%
X89609500Y-142935000D03*
%TO.P,J1,2,Pin_2*%
%TO.N,/RP_SWD*%
X89609500Y-144205000D03*
%TO.P,J1,3,Pin_3*%
%TO.N,unconnected-(J1-Pin_3-Pad3)*%
X89609500Y-145475000D03*
%TO.P,J1,4,Pin_4*%
%TO.N,unconnected-(J1-Pin_4-Pad4)*%
X89609500Y-146745000D03*
%TD*%
D14*
%TO.P,C7,1*%
%TO.N,+3V3*%
X76410000Y-119630000D03*
%TO.P,C7,2*%
%TO.N,GND*%
X75450000Y-119630000D03*
%TD*%
D20*
%TO.P,C8,1*%
%TO.N,+3V3*%
X74300000Y-125390000D03*
%TO.P,C8,2*%
%TO.N,GND*%
X74300000Y-126350000D03*
%TD*%
D21*
%TO.P,U1,1,IOVDD*%
%TO.N,+3V3*%
X82422500Y-127910000D03*
%TO.P,U1,2,GPIO0*%
%TO.N,unconnected-(U1-GPIO0-Pad2)*%
X82422500Y-127510000D03*
%TO.P,U1,3,GPIO1*%
%TO.N,/DRF_TXEN*%
X82422500Y-127110000D03*
%TO.P,U1,4,GPIO2*%
%TO.N,unconnected-(U1-GPIO2-Pad4)*%
X82422500Y-126710000D03*
%TO.P,U1,5,GPIO3*%
%TO.N,/DRF_DIO1*%
X82422500Y-126310000D03*
%TO.P,U1,6,GPIO4*%
%TO.N,unconnected-(U1-GPIO4-Pad6)*%
X82422500Y-125910000D03*
%TO.P,U1,7,GPIO5*%
%TO.N,unconnected-(U1-GPIO5-Pad7)*%
X82422500Y-125510000D03*
%TO.P,U1,8,GPIO6*%
%TO.N,/DRF_BUSY*%
X82422500Y-125110000D03*
%TO.P,U1,9,GPIO7*%
%TO.N,unconnected-(U1-GPIO7-Pad9)*%
X82422500Y-124710000D03*
%TO.P,U1,10,IOVDD*%
%TO.N,+3V3*%
X82422500Y-124310000D03*
%TO.P,U1,11,GPIO8*%
%TO.N,unconnected-(U1-GPIO8-Pad11)*%
X82422500Y-123910000D03*
%TO.P,U1,12,GPIO9*%
%TO.N,/DRF_SW*%
X82422500Y-123510000D03*
%TO.P,U1,13,GPIO10*%
%TO.N,unconnected-(U1-GPIO10-Pad13)*%
X82422500Y-123110000D03*
%TO.P,U1,14,GPIO11*%
%TO.N,unconnected-(U1-GPIO11-Pad14)*%
X82422500Y-122710000D03*
D22*
%TO.P,U1,15,GPIO12*%
%TO.N,unconnected-(U1-GPIO12-Pad15)*%
X81585000Y-121872500D03*
%TO.P,U1,16,GPIO13*%
%TO.N,unconnected-(U1-GPIO13-Pad16)*%
X81185000Y-121872500D03*
%TO.P,U1,17,GPIO14*%
%TO.N,unconnected-(U1-GPIO14-Pad17)*%
X80785000Y-121872500D03*
%TO.P,U1,18,GPIO15*%
%TO.N,unconnected-(U1-GPIO15-Pad18)*%
X80385000Y-121872500D03*
%TO.P,U1,19,TESTEN*%
%TO.N,GND*%
X79985000Y-121872500D03*
%TO.P,U1,20,XIN*%
%TO.N,Net-(U1-XIN)*%
X79585000Y-121872500D03*
%TO.P,U1,21,XOUT*%
%TO.N,Net-(U1-XOUT)*%
X79185000Y-121872500D03*
%TO.P,U1,22,IOVDD*%
%TO.N,+3V3*%
X78785000Y-121872500D03*
%TO.P,U1,23,DVDD*%
%TO.N,+1V1*%
X78385000Y-121872500D03*
%TO.P,U1,24,SWCLK*%
%TO.N,/RP_SWCLK*%
X77985000Y-121872500D03*
%TO.P,U1,25,SWD*%
%TO.N,/RP_SWD*%
X77585000Y-121872500D03*
%TO.P,U1,26,RUN*%
%TO.N,Net-(U1-RUN)*%
X77185000Y-121872500D03*
%TO.P,U1,27,GPIO16*%
%TO.N,unconnected-(U1-GPIO16-Pad27)*%
X76785000Y-121872500D03*
%TO.P,U1,28,GPIO17*%
%TO.N,unconnected-(U1-GPIO17-Pad28)*%
X76385000Y-121872500D03*
D21*
%TO.P,U1,29,GPIO18*%
%TO.N,/DRF_CLK*%
X75547500Y-122710000D03*
%TO.P,U1,30,GPIO19*%
%TO.N,/DRF_MOSI*%
X75547500Y-123110000D03*
%TO.P,U1,31,GPIO20*%
%TO.N,/DRF_MISO*%
X75547500Y-123510000D03*
%TO.P,U1,32,GPIO21*%
%TO.N,/DRF_CS*%
X75547500Y-123910000D03*
%TO.P,U1,33,IOVDD*%
%TO.N,+3V3*%
X75547500Y-124310000D03*
%TO.P,U1,34,GPIO22*%
%TO.N,unconnected-(U1-GPIO22-Pad34)*%
X75547500Y-124710000D03*
%TO.P,U1,35,GPIO23*%
%TO.N,unconnected-(U1-GPIO23-Pad35)*%
X75547500Y-125110000D03*
%TO.P,U1,36,GPIO24*%
%TO.N,unconnected-(U1-GPIO24-Pad36)*%
X75547500Y-125510000D03*
%TO.P,U1,37,GPIO25*%
%TO.N,unconnected-(U1-GPIO25-Pad37)*%
X75547500Y-125910000D03*
%TO.P,U1,38,GPIO26_ADC0*%
%TO.N,unconnected-(U1-GPIO26_ADC0-Pad38)*%
X75547500Y-126310000D03*
%TO.P,U1,39,GPIO27_ADC1*%
%TO.N,unconnected-(U1-GPIO27_ADC1-Pad39)*%
X75547500Y-126710000D03*
%TO.P,U1,40,GPIO28_ADC2*%
%TO.N,unconnected-(U1-GPIO28_ADC2-Pad40)*%
X75547500Y-127110000D03*
%TO.P,U1,41,GPIO29_ADC3*%
%TO.N,unconnected-(U1-GPIO29_ADC3-Pad41)*%
X75547500Y-127510000D03*
%TO.P,U1,42,IOVDD*%
%TO.N,+3V3*%
X75547500Y-127910000D03*
D22*
%TO.P,U1,43,ADC_AVDD*%
X76385000Y-128747500D03*
%TO.P,U1,44,VREG_IN*%
X76785000Y-128747500D03*
%TO.P,U1,45,VREG_VOUT*%
%TO.N,+1V1*%
X77185000Y-128747500D03*
%TO.P,U1,46,USB_DM*%
%TO.N,Net-(U1-USB_DM)*%
X77585000Y-128747500D03*
%TO.P,U1,47,USB_DP*%
%TO.N,Net-(U1-USB_DP)*%
X77985000Y-128747500D03*
%TO.P,U1,48,USB_VDD*%
%TO.N,+3V3*%
X78385000Y-128747500D03*
%TO.P,U1,49,IOVDD*%
X78785000Y-128747500D03*
%TO.P,U1,50,DVDD*%
%TO.N,+1V1*%
X79185000Y-128747500D03*
%TO.P,U1,51,QSPI_SD3*%
%TO.N,/QSPI_SD3*%
X79585000Y-128747500D03*
%TO.P,U1,52,QSPI_SCLK*%
%TO.N,/QSPI_SCLK*%
X79985000Y-128747500D03*
%TO.P,U1,53,QSPI_SD0*%
%TO.N,/QSPI_SD0*%
X80385000Y-128747500D03*
%TO.P,U1,54,QSPI_SD2*%
%TO.N,/QSPI_SD2*%
X80785000Y-128747500D03*
%TO.P,U1,55,QSPI_SD1*%
%TO.N,/QSPI_SD1*%
X81185000Y-128747500D03*
%TO.P,U1,56,QSPI_SS*%
%TO.N,/QSPI_SS*%
X81585000Y-128747500D03*
D23*
%TO.P,U1,57,GND*%
%TO.N,GND*%
X80260000Y-126585000D03*
X80260000Y-125310000D03*
X80260000Y-124035000D03*
X78985000Y-126585000D03*
X78985000Y-125310000D03*
D24*
X78985000Y-125310000D03*
D23*
X78985000Y-124035000D03*
X77710000Y-126585000D03*
X77710000Y-125310000D03*
X77710000Y-124035000D03*
%TD*%
D25*
%TO.P,SW2,1,A*%
%TO.N,unconnected-(SW2-A-Pad1)*%
X84870000Y-114452798D03*
%TO.P,SW2,2,B*%
%TO.N,Net-(SW2-B)*%
X84870000Y-117952802D03*
%TO.P,SW2,3,C*%
%TO.N,GND*%
X88754600Y-116202800D03*
%TD*%
D26*
%TO.P,C16,1*%
%TO.N,VBUS*%
X84140000Y-138170000D03*
%TO.P,C16,2*%
%TO.N,GND*%
X84140000Y-139720000D03*
%TD*%
D27*
%TO.P,C9,1*%
%TO.N,+3V3*%
X83800000Y-127790000D03*
%TO.P,C9,2*%
%TO.N,GND*%
X83800000Y-126830000D03*
%TD*%
%TO.P,C2,1*%
%TO.N,Net-(U1-XIN)*%
X81530000Y-119185000D03*
%TO.P,C2,2*%
%TO.N,GND*%
X81530000Y-118225000D03*
%TD*%
D28*
%TO.P,U4,1,~{CS}*%
%TO.N,/QSPI_SS*%
X89320400Y-134445000D03*
%TO.P,U4,2,DO(IO1)*%
%TO.N,/QSPI_SD1*%
X89320400Y-133175000D03*
%TO.P,U4,3,IO2*%
%TO.N,/QSPI_SD2*%
X89320400Y-131905000D03*
%TO.P,U4,4,GND*%
%TO.N,GND*%
X89320400Y-130635000D03*
%TO.P,U4,5,DI(IO0)*%
%TO.N,/QSPI_SD0*%
X83580000Y-130635000D03*
%TO.P,U4,6,CLK*%
%TO.N,/QSPI_SCLK*%
X83580000Y-131905000D03*
%TO.P,U4,7,IO3*%
%TO.N,/QSPI_SD3*%
X83580000Y-133175000D03*
%TO.P,U4,8,VCC*%
%TO.N,+3V3*%
X83580000Y-134445000D03*
D29*
%TO.P,U4,9*%
%TO.N,N/C*%
X86450200Y-132540000D03*
%TD*%
D26*
%TO.P,C18,1*%
%TO.N,VBUS*%
X82610000Y-138175000D03*
%TO.P,C18,2*%
%TO.N,GND*%
X82610000Y-139725000D03*
%TD*%
D30*
%TO.P,H1,1*%
%TO.N,N/C*%
X69290000Y-146970000D03*
%TD*%
D27*
%TO.P,C3,1*%
%TO.N,Net-(C3-Pad1)*%
X77440000Y-117295000D03*
%TO.P,C3,2*%
%TO.N,GND*%
X77440000Y-116335000D03*
%TD*%
D13*
%TO.P,R8,1*%
%TO.N,/QSPI_SS*%
X85990000Y-128265000D03*
%TO.P,R8,2*%
%TO.N,+3V3*%
X85990000Y-126615000D03*
%TD*%
D26*
%TO.P,C17,1*%
%TO.N,VBUS*%
X85670000Y-138175000D03*
%TO.P,C17,2*%
%TO.N,GND*%
X85670000Y-139725000D03*
%TD*%
D20*
%TO.P,C11,1*%
%TO.N,+3V3*%
X80170000Y-132155000D03*
%TO.P,C11,2*%
%TO.N,GND*%
X80170000Y-133115000D03*
%TD*%
D31*
%TO.P,Y1,1,1*%
%TO.N,Net-(C3-Pad1)*%
X78785000Y-117040000D03*
%TO.P,Y1,2,2*%
%TO.N,GND*%
X78785000Y-118790000D03*
%TO.P,Y1,3,3*%
%TO.N,Net-(U1-XIN)*%
X80185000Y-118790000D03*
%TO.P,Y1,4,4*%
%TO.N,GND*%
X80185000Y-117040000D03*
%TD*%
D30*
%TO.P,H2,1*%
%TO.N,N/C*%
X88290000Y-104970000D03*
%TD*%
D14*
%TO.P,C13,1*%
%TO.N,+3V3*%
X82700000Y-136410000D03*
%TO.P,C13,2*%
%TO.N,GND*%
X81740000Y-136410000D03*
%TD*%
D32*
%TO.P,U5,1,1*%
%TO.N,/USB_D+*%
X78390001Y-137507549D03*
%TO.P,U5,2,2*%
%TO.N,GND*%
X77440000Y-137507549D03*
%TO.P,U5,3,3*%
%TO.N,/USB_D-*%
X76489999Y-137507549D03*
%TO.P,U5,4,4*%
%TO.N,Net-(J2-D--PadA7)*%
X76489999Y-140232451D03*
%TO.P,U5,5,5*%
%TO.N,VBUS*%
X77440000Y-140232451D03*
%TO.P,U5,6,6*%
%TO.N,Net-(J2-D+-PadA6)*%
X78390001Y-140232451D03*
%TD*%
D20*
%TO.P,R1,1*%
%TO.N,Net-(C3-Pad1)*%
X77430000Y-118225000D03*
%TO.P,R1,2*%
%TO.N,Net-(U1-XOUT)*%
X77430000Y-119185000D03*
%TD*%
D33*
%TO.P,D1,1,K*%
%TO.N,GND*%
X69876250Y-130615000D03*
%TO.P,D1,2,A*%
%TO.N,Net-(D1-A)*%
X69876250Y-129040000D03*
%TD*%
D14*
%TO.P,C4,1*%
%TO.N,+1V1*%
X76420000Y-120630000D03*
%TO.P,C4,2*%
%TO.N,GND*%
X75460000Y-120630000D03*
%TD*%
D20*
%TO.P,C1,1*%
%TO.N,+1V1*%
X81760000Y-133565000D03*
%TO.P,C1,2*%
%TO.N,GND*%
X81760000Y-134525000D03*
%TD*%
D34*
%TO.P,R7,1*%
%TO.N,Net-(SW2-B)*%
X87900000Y-120655000D03*
%TO.P,R7,2*%
%TO.N,/QSPI_SS*%
X87900000Y-122305000D03*
%TD*%
D35*
%TO.P,R10,1*%
%TO.N,Net-(J2-CC2)*%
X84137500Y-143540000D03*
%TO.P,R10,2*%
%TO.N,GND*%
X85962500Y-143540000D03*
%TD*%
D10*
%TO.P,R2,1*%
%TO.N,/USB_D+*%
X78180000Y-132130000D03*
%TO.P,R2,2*%
%TO.N,Net-(U1-USB_DP)*%
X78180000Y-131110000D03*
%TD*%
D36*
%TO.P,R9,1*%
%TO.N,GND*%
X85952500Y-145200000D03*
%TO.P,R9,2*%
%TO.N,Net-(J2-CC1)*%
X84127500Y-145200000D03*
%TD*%
D37*
%TO.P,U2,1,GND*%
%TO.N,GND*%
X68560000Y-139680000D03*
%TO.P,U2,2,VO*%
%TO.N,+3V3*%
X70860000Y-139680000D03*
D38*
X70860000Y-133380000D03*
D37*
%TO.P,U2,3,VI*%
%TO.N,VBUS*%
X73160000Y-139680000D03*
%TD*%
D20*
%TO.P,C10,1*%
%TO.N,+3V3*%
X79180000Y-131565000D03*
%TO.P,C10,2*%
%TO.N,GND*%
X79180000Y-132525000D03*
%TD*%
%TO.P,C5,1*%
%TO.N,+1V1*%
X75910000Y-130620000D03*
%TO.P,C5,2*%
%TO.N,GND*%
X75910000Y-131580000D03*
%TD*%
D14*
%TO.P,C14,1*%
%TO.N,+3V3*%
X74300000Y-129505000D03*
%TO.P,C14,2*%
%TO.N,GND*%
X73340000Y-129505000D03*
%TD*%
D20*
%TO.P,C6,1*%
%TO.N,+3V3*%
X74920000Y-130610000D03*
%TO.P,C6,2*%
%TO.N,GND*%
X74920000Y-131570000D03*
%TD*%
D39*
%TO.P,AE1,2*%
%TO.N,N/C*%
X77730000Y-105360000D03*
X68970000Y-105360000D03*
D40*
X77730000Y-108350000D03*
X68970000Y-108350000D03*
D41*
X77730000Y-108800000D03*
X68970000Y-108800000D03*
%TD*%
D42*
%TO.N,GND*%
X84400000Y-126030000D03*
X72340000Y-108480000D03*
D43*
X68500000Y-141980000D03*
D42*
X71530000Y-105290000D03*
X79430000Y-138370000D03*
X81210000Y-103870000D03*
X75110000Y-103560000D03*
X80930000Y-136440000D03*
X71940000Y-114120000D03*
X72850000Y-115650000D03*
X80110000Y-115630000D03*
X80330000Y-120770000D03*
X71180000Y-115650000D03*
X79030000Y-119820000D03*
X81540000Y-117420000D03*
X81300000Y-115580000D03*
X77410000Y-115480000D03*
X73550000Y-114550000D03*
X72560000Y-114590000D03*
X74470000Y-115690000D03*
X71580000Y-107930000D03*
X84140000Y-141210000D03*
X74720000Y-119280000D03*
X81160000Y-102840000D03*
X74960000Y-132520000D03*
X75130000Y-107790000D03*
X71830000Y-113110000D03*
X81270000Y-114310000D03*
X73980000Y-132440000D03*
X75120000Y-106080000D03*
D44*
X83890000Y-136150000D03*
D42*
X74330000Y-111070000D03*
X71830000Y-112070000D03*
X81760000Y-135320000D03*
X72350000Y-129930000D03*
X71550000Y-106160000D03*
X71520000Y-104450000D03*
X85990000Y-142500000D03*
X81240000Y-112880000D03*
X71610000Y-102570000D03*
X81260000Y-104990000D03*
X72520000Y-128430000D03*
X79190000Y-133470000D03*
X90487200Y-116202800D03*
X81290000Y-106130000D03*
X80160000Y-133960000D03*
D44*
X86420000Y-124880000D03*
D42*
X71570000Y-107020000D03*
X82580000Y-140930000D03*
X74300000Y-127150000D03*
X85680000Y-141160000D03*
X85990000Y-146330000D03*
X76570000Y-118760000D03*
X71830000Y-111080000D03*
X74220000Y-109260000D03*
X74230000Y-108460000D03*
X75230000Y-138390000D03*
X75970000Y-115670000D03*
X75120000Y-106930000D03*
X74290000Y-114040000D03*
X69410000Y-115670000D03*
X75120000Y-104400000D03*
X81270000Y-108640000D03*
X74490000Y-120220000D03*
X69880000Y-131790000D03*
X75110000Y-105230000D03*
X85580000Y-124480000D03*
X78780000Y-115630000D03*
X71520000Y-103550000D03*
X89358500Y-131270000D03*
X81320000Y-110060000D03*
X81270000Y-107270000D03*
X71990000Y-110120000D03*
X72410000Y-109370000D03*
X74360000Y-112020000D03*
X75030000Y-102610000D03*
X66930000Y-115630000D03*
X81500000Y-116470000D03*
X81260000Y-111500000D03*
X74360000Y-113000000D03*
X74330000Y-110080000D03*
X68160000Y-115650000D03*
%TO.N,+1V1*%
X77180000Y-127700000D03*
X77380000Y-120630000D03*
X79180000Y-127730000D03*
%TO.N,+3V3*%
X83760000Y-125300000D03*
X73400000Y-130550000D03*
X83780000Y-128570000D03*
X81300000Y-137350000D03*
X73290000Y-126180000D03*
X68270000Y-131660000D03*
X75450000Y-118690000D03*
X80950000Y-132765000D03*
X85890000Y-125580000D03*
X73860000Y-131490000D03*
D43*
X72080000Y-131400000D03*
D42*
X72390000Y-120330000D03*
X73340000Y-127500000D03*
D44*
%TO.N,VBUS*%
X86300000Y-136250000D03*
X86720000Y-138040000D03*
D42*
%TO.N,/RP_SWD*%
X77570000Y-123090000D03*
X90600000Y-141260000D03*
%TO.N,/RP_SWCLK*%
X78280000Y-122740000D03*
X89810000Y-141300000D03*
%TO.N,/DRF_SW*%
X83780000Y-123520000D03*
%TO.N,/DRF_TXEN*%
X81565483Y-127915483D03*
%TO.N,/DRF_DIO1*%
X81421500Y-125990000D03*
%TO.N,/DRF_BUSY*%
X81250000Y-125280000D03*
%TO.N,/DRF_MISO*%
X71900000Y-129220000D03*
%TO.N,/DRF_MOSI*%
X72115000Y-125395000D03*
%TO.N,/DRF_CLK*%
X72140000Y-123770000D03*
%TO.N,/DRF_CS*%
X76690000Y-123740000D03*
%TO.N,Net-(U1-RUN)*%
X76790000Y-122830000D03*
X75590000Y-121880000D03*
%TD*%
D45*
%TO.N,GND*%
X85952500Y-145200000D02*
X85952500Y-146292500D01*
X76570000Y-117205000D02*
X76570000Y-118760000D01*
D46*
X79180000Y-133460000D02*
X79190000Y-133470000D01*
D47*
X81085000Y-142540000D02*
X81660000Y-143115000D01*
D48*
X88754600Y-116202800D02*
X90487200Y-116202800D01*
D45*
X81530000Y-117430000D02*
X81540000Y-117420000D01*
X72555000Y-128465000D02*
X72520000Y-128430000D01*
D46*
X81760000Y-134525000D02*
X81760000Y-135320000D01*
D45*
X81530000Y-118225000D02*
X81530000Y-117430000D01*
X85962500Y-143540000D02*
X85962500Y-142527500D01*
D46*
X69876250Y-131786250D02*
X69880000Y-131790000D01*
D45*
X81740000Y-136410000D02*
X80960000Y-136410000D01*
D49*
X68560000Y-139680000D02*
X68560000Y-141920000D01*
D48*
X77440000Y-137507549D02*
X77440000Y-138026697D01*
D45*
X78785000Y-119575000D02*
X79030000Y-119820000D01*
D46*
X69876250Y-130615000D02*
X69876250Y-131786250D01*
D48*
X84140000Y-139720000D02*
X84140000Y-141210000D01*
D47*
X74140000Y-142540000D02*
X73595000Y-142540000D01*
D48*
X85670000Y-141150000D02*
X85680000Y-141160000D01*
D45*
X79985000Y-121872500D02*
X79985000Y-121115000D01*
D46*
X89320400Y-131231900D02*
X89320400Y-130635000D01*
D45*
X79985000Y-121115000D02*
X80330000Y-120770000D01*
D48*
X82610000Y-139725000D02*
X82610000Y-140900000D01*
X77076697Y-138390000D02*
X75230000Y-138390000D01*
D49*
X68560000Y-141920000D02*
X68500000Y-141980000D01*
D48*
X82610000Y-140900000D02*
X82580000Y-140930000D01*
D45*
X85962500Y-142527500D02*
X85990000Y-142500000D01*
D46*
X79180000Y-132525000D02*
X79180000Y-133460000D01*
D47*
X80540000Y-142540000D02*
X81085000Y-142540000D01*
D45*
X75900000Y-131580000D02*
X74960000Y-132520000D01*
D46*
X80170000Y-133115000D02*
X80170000Y-133950000D01*
D45*
X74300000Y-126350000D02*
X74300000Y-127150000D01*
X73340000Y-128465000D02*
X72555000Y-128465000D01*
D47*
X73595000Y-142540000D02*
X73020000Y-143115000D01*
D45*
X75070000Y-119630000D02*
X74720000Y-119280000D01*
X80930000Y-117040000D02*
X80185000Y-117040000D01*
X74920000Y-131570000D02*
X74850000Y-131570000D01*
X83800000Y-126630000D02*
X84400000Y-126030000D01*
D48*
X77440000Y-137850000D02*
X77960000Y-138370000D01*
D45*
X73340000Y-129505000D02*
X72775000Y-129505000D01*
D48*
X77440000Y-138026697D02*
X77076697Y-138390000D01*
X77960000Y-138370000D02*
X79430000Y-138370000D01*
D45*
X80960000Y-136410000D02*
X80930000Y-136440000D01*
D48*
X77440000Y-137507549D02*
X77440000Y-137850000D01*
D45*
X84740000Y-124480000D02*
X85580000Y-124480000D01*
X75460000Y-120630000D02*
X74900000Y-120630000D01*
D48*
X85670000Y-139725000D02*
X85670000Y-141150000D01*
D45*
X74850000Y-131570000D02*
X73980000Y-132440000D01*
X75450000Y-119630000D02*
X75070000Y-119630000D01*
X78785000Y-118790000D02*
X78785000Y-119575000D01*
D46*
X89358500Y-131270000D02*
X89320400Y-131231900D01*
X80170000Y-133950000D02*
X80160000Y-133960000D01*
D45*
X77440000Y-116335000D02*
X76570000Y-117205000D01*
X72775000Y-129505000D02*
X72350000Y-129930000D01*
X85952500Y-146292500D02*
X85990000Y-146330000D01*
X75910000Y-131580000D02*
X75900000Y-131580000D01*
X74900000Y-120630000D02*
X74490000Y-120220000D01*
X83800000Y-126830000D02*
X83800000Y-126630000D01*
X81500000Y-116470000D02*
X80930000Y-117040000D01*
%TO.N,+1V1*%
X78385000Y-121005000D02*
X78010000Y-120630000D01*
X75910000Y-130620000D02*
X77185000Y-129345000D01*
X79397000Y-130539552D02*
X79397000Y-130029552D01*
X78385000Y-121872500D02*
X78385000Y-121005000D01*
X81760000Y-132902552D02*
X79397000Y-130539552D01*
X79185000Y-128747500D02*
X79185000Y-127735000D01*
X79185000Y-127735000D02*
X79180000Y-127730000D01*
X76420000Y-120630000D02*
X77380000Y-120630000D01*
X77185000Y-128747500D02*
X77185000Y-127705000D01*
X79185000Y-129817552D02*
X79185000Y-128747500D01*
X77185000Y-129345000D02*
X77185000Y-128747500D01*
X78010000Y-120630000D02*
X77380000Y-120630000D01*
X79397000Y-130029552D02*
X79185000Y-129817552D01*
X81760000Y-133565000D02*
X81760000Y-132902552D01*
X77185000Y-127705000D02*
X77180000Y-127700000D01*
%TO.N,+3V3*%
X75118263Y-124310000D02*
X75547500Y-124310000D01*
X78780000Y-131165000D02*
X79180000Y-131565000D01*
X72405000Y-120345000D02*
X72390000Y-120330000D01*
X76785000Y-129282552D02*
X76785000Y-128747500D01*
D46*
X68286250Y-131643750D02*
X68270000Y-131660000D01*
D45*
X76390000Y-119630000D02*
X75450000Y-118690000D01*
X78785000Y-129880000D02*
X79070000Y-130165000D01*
X78785000Y-128747500D02*
X78785000Y-129880000D01*
D46*
X82700000Y-136410000D02*
X82700000Y-135325000D01*
D49*
X70860000Y-133380000D02*
X70860000Y-132620000D01*
D45*
X74300000Y-128000000D02*
X73800000Y-127500000D01*
X74300000Y-128465000D02*
X74300000Y-128000000D01*
X75627500Y-129505000D02*
X76385000Y-128747500D01*
X74300000Y-125128263D02*
X75118263Y-124310000D01*
X80170000Y-132155000D02*
X80340000Y-132155000D01*
X74300000Y-128465000D02*
X74992500Y-128465000D01*
X74080000Y-125390000D02*
X73290000Y-126180000D01*
X79070000Y-130165000D02*
X79070000Y-130675000D01*
X78380000Y-128752500D02*
X78380000Y-129893055D01*
X80170000Y-131775000D02*
X80170000Y-132155000D01*
X83610000Y-124310000D02*
X83780000Y-124480000D01*
X83800000Y-127790000D02*
X83680000Y-127910000D01*
X74740000Y-130610000D02*
X73860000Y-131490000D01*
X83780000Y-125280000D02*
X83760000Y-125300000D01*
D49*
X70860000Y-132620000D02*
X72080000Y-131400000D01*
D45*
X83800000Y-128550000D02*
X83780000Y-128570000D01*
X74300000Y-125390000D02*
X74080000Y-125390000D01*
X79770000Y-132155000D02*
X79180000Y-131565000D01*
X74300000Y-129650000D02*
X73400000Y-130550000D01*
X85990000Y-125680000D02*
X85890000Y-125580000D01*
X75470000Y-130060000D02*
X76007552Y-130060000D01*
X80170000Y-132155000D02*
X79770000Y-132155000D01*
D46*
X68286250Y-130652500D02*
X68286250Y-131643750D01*
D45*
X78385000Y-128747500D02*
X78380000Y-128752500D01*
X73800000Y-127500000D02*
X73340000Y-127500000D01*
X85990000Y-126615000D02*
X85990000Y-125680000D01*
X76410000Y-119630000D02*
X76472000Y-119692000D01*
X74300000Y-129505000D02*
X75627500Y-129505000D01*
X76472000Y-119692000D02*
X77694552Y-119692000D01*
D46*
X81760000Y-137350000D02*
X82700000Y-136410000D01*
D45*
X76410000Y-119630000D02*
X76390000Y-119630000D01*
X74300000Y-129505000D02*
X74300000Y-129650000D01*
X74920000Y-130610000D02*
X74740000Y-130610000D01*
X77694552Y-119692000D02*
X78785000Y-120782448D01*
X72405000Y-121430000D02*
X72405000Y-120345000D01*
X83680000Y-127910000D02*
X82422500Y-127910000D01*
X83800000Y-127790000D02*
X83800000Y-128550000D01*
X78380000Y-129893055D02*
X78780000Y-130293055D01*
D46*
X81300000Y-137350000D02*
X81760000Y-137350000D01*
D45*
X79070000Y-130675000D02*
X80170000Y-131775000D01*
X78780000Y-130293055D02*
X78780000Y-131165000D01*
X80340000Y-132155000D02*
X80950000Y-132765000D01*
X74920000Y-130610000D02*
X75470000Y-130060000D01*
X82422500Y-124310000D02*
X83610000Y-124310000D01*
D46*
X82700000Y-135325000D02*
X83580000Y-134445000D01*
D45*
X74992500Y-128465000D02*
X75547500Y-127910000D01*
X78785000Y-120782448D02*
X78785000Y-121872500D01*
X74300000Y-125390000D02*
X74300000Y-125128263D01*
X76007552Y-130060000D02*
X76785000Y-129282552D01*
X83780000Y-124480000D02*
X83780000Y-125280000D01*
%TO.N,Net-(U1-XIN)*%
X79585000Y-119390000D02*
X80185000Y-118790000D01*
X79585000Y-121872500D02*
X79585000Y-119390000D01*
X81135000Y-118790000D02*
X81530000Y-119185000D01*
X80185000Y-118790000D02*
X81135000Y-118790000D01*
D47*
%TO.N,VBUS*%
X74940000Y-142540000D02*
X74940000Y-140163301D01*
X85805000Y-138040000D02*
X85670000Y-138175000D01*
X74406699Y-139630000D02*
X73210000Y-139630000D01*
X77440000Y-139563303D02*
X77440000Y-140232451D01*
D49*
X84135000Y-138175000D02*
X84140000Y-138170000D01*
D47*
X81525000Y-138175000D02*
X82610000Y-138175000D01*
D49*
X84140000Y-138170000D02*
X85665000Y-138170000D01*
D47*
X86300000Y-136250000D02*
X86300000Y-137545000D01*
X76946697Y-139070000D02*
X77440000Y-139563303D01*
X77943303Y-139060000D02*
X77440000Y-139563303D01*
X76033301Y-139070000D02*
X76946697Y-139070000D01*
X74940000Y-140163301D02*
X74406699Y-139630000D01*
X86300000Y-137545000D02*
X85670000Y-138175000D01*
X78836699Y-139060000D02*
X77943303Y-139060000D01*
X80450000Y-139253301D02*
X80450000Y-139250000D01*
X79740000Y-139963301D02*
X78836699Y-139060000D01*
X79740000Y-142540000D02*
X79740000Y-139963301D01*
X86720000Y-138040000D02*
X85805000Y-138040000D01*
X74940000Y-140163301D02*
X76033301Y-139070000D01*
X73210000Y-139630000D02*
X73160000Y-139680000D01*
X79740000Y-139963301D02*
X80450000Y-139253301D01*
D49*
X82610000Y-138175000D02*
X84135000Y-138175000D01*
X85665000Y-138170000D02*
X85670000Y-138175000D01*
D47*
X80450000Y-139250000D02*
X81525000Y-138175000D01*
D45*
%TO.N,Net-(D1-A)*%
X68323750Y-129040000D02*
X68286250Y-129002500D01*
X69876250Y-129040000D02*
X68323750Y-129040000D01*
%TO.N,Net-(C3-Pad1)*%
X77430000Y-118225000D02*
X77430000Y-117305000D01*
X77440000Y-117295000D02*
X78530000Y-117295000D01*
X78530000Y-117295000D02*
X78785000Y-117040000D01*
X77430000Y-117305000D02*
X77440000Y-117295000D01*
%TO.N,/RP_SWD*%
X90800000Y-141460000D02*
X90800000Y-143860000D01*
X90455000Y-144205000D02*
X89609500Y-144205000D01*
X90600000Y-141260000D02*
X90800000Y-141460000D01*
X77585000Y-121872500D02*
X77585000Y-123075000D01*
X90800000Y-143860000D02*
X90455000Y-144205000D01*
X77585000Y-123075000D02*
X77570000Y-123090000D01*
%TO.N,/RP_SWCLK*%
X89810000Y-141300000D02*
X89810000Y-142734500D01*
X89810000Y-142734500D02*
X89609500Y-142935000D01*
X77985000Y-122445000D02*
X78280000Y-122740000D01*
X77985000Y-121872500D02*
X77985000Y-122445000D01*
%TO.N,Net-(J2-CC1)*%
X76090000Y-142540000D02*
X76090000Y-143315000D01*
X76090000Y-143315000D02*
X77975000Y-145200000D01*
X77975000Y-145200000D02*
X84127500Y-145200000D01*
D50*
%TO.N,Net-(J2-D+-PadA6)*%
X77301000Y-143530000D02*
X77090000Y-143319000D01*
X78090000Y-142540000D02*
X78090000Y-143319000D01*
X77879000Y-143530000D02*
X77301000Y-143530000D01*
X78090000Y-143319000D02*
X77879000Y-143530000D01*
X78090000Y-142540000D02*
X78090000Y-141480000D01*
X78090000Y-141480000D02*
X78390000Y-141180000D01*
X78390000Y-141180000D02*
X78390001Y-140232451D01*
X77090000Y-143319000D02*
X77090000Y-142540000D01*
%TO.N,Net-(J2-D--PadA7)*%
X76489999Y-140739999D02*
X77590000Y-141840000D01*
X76489999Y-140232451D02*
X76489999Y-140739999D01*
X77590000Y-141840000D02*
X77590000Y-142540000D01*
X76489999Y-140232451D02*
X76590000Y-140332452D01*
X76590000Y-140332452D02*
X76590000Y-142540000D01*
D45*
%TO.N,Net-(J2-CC2)*%
X79090000Y-142540000D02*
X79090000Y-143990000D01*
X79850000Y-144750000D02*
X82927500Y-144750000D01*
X79090000Y-143990000D02*
X79850000Y-144750000D01*
X82927500Y-144750000D02*
X84137500Y-143540000D01*
%TO.N,Net-(U1-USB_DP)*%
X78180000Y-131110000D02*
X77985000Y-130915000D01*
X77985000Y-130915000D02*
X77985000Y-128747500D01*
%TO.N,Net-(U1-USB_DM)*%
X77585000Y-128747500D02*
X77585000Y-130445000D01*
X77585000Y-130445000D02*
X76930000Y-131100000D01*
%TO.N,Net-(U1-XOUT)*%
X79185000Y-121872500D02*
X79185000Y-120720000D01*
X79185000Y-120720000D02*
X77650000Y-119185000D01*
X77650000Y-119185000D02*
X77430000Y-119185000D01*
%TO.N,/QSPI_SS*%
X87220000Y-129301000D02*
X87900000Y-128621000D01*
X81585000Y-128747500D02*
X82138500Y-129301000D01*
X87900000Y-128621000D02*
X87900000Y-122305000D01*
X85990000Y-128265000D02*
X85990000Y-129091000D01*
X90627000Y-130079552D02*
X90627000Y-133138400D01*
X90627000Y-133138400D02*
X89320400Y-134445000D01*
X87220000Y-129301000D02*
X88460000Y-129301000D01*
X85990000Y-129091000D02*
X86200000Y-129301000D01*
X82138500Y-129301000D02*
X86200000Y-129301000D01*
X88460000Y-129301000D02*
X89848448Y-129301000D01*
X89848448Y-129301000D02*
X90627000Y-130079552D01*
X86200000Y-129301000D02*
X87220000Y-129301000D01*
D51*
%TO.N,/USB_D+*%
X77828500Y-132481500D02*
X78180000Y-132130000D01*
X77828500Y-136216824D02*
X77828500Y-132481500D01*
X78390001Y-136778325D02*
X77828500Y-136216824D01*
X78390001Y-137507549D02*
X78390001Y-136778325D01*
%TO.N,/USB_D-*%
X76489999Y-136778325D02*
X77051500Y-136216824D01*
X77051500Y-136216824D02*
X77051500Y-132241500D01*
X77051500Y-132241500D02*
X76930000Y-132120000D01*
X76489999Y-137507549D02*
X76489999Y-136778325D01*
D45*
%TO.N,Net-(SW2-B)*%
X87572198Y-120655000D02*
X84870000Y-117952802D01*
X87900000Y-120655000D02*
X87572198Y-120655000D01*
%TO.N,/QSPI_SD3*%
X79585000Y-128747500D02*
X79585000Y-129755104D01*
X79724000Y-130404104D02*
X82494896Y-133175000D01*
X82494896Y-133175000D02*
X83580000Y-133175000D01*
X79724000Y-129894104D02*
X79724000Y-130404104D01*
X79585000Y-129755104D02*
X79724000Y-129894104D01*
%TO.N,/QSPI_SCLK*%
X81687344Y-131905000D02*
X83580000Y-131905000D01*
X80051000Y-129758656D02*
X80051000Y-130268656D01*
X79985000Y-129692656D02*
X80051000Y-129758656D01*
X80051000Y-130268656D02*
X81687344Y-131905000D01*
X79985000Y-128747500D02*
X79985000Y-129692656D01*
%TO.N,/QSPI_SD0*%
X80385000Y-130140208D02*
X80879792Y-130635000D01*
X80385000Y-128747500D02*
X80385000Y-130140208D01*
X80879792Y-130635000D02*
X83580000Y-130635000D01*
%TO.N,/QSPI_SD2*%
X80785000Y-129630000D02*
X81110000Y-129955000D01*
X80785000Y-128747500D02*
X80785000Y-129630000D01*
X88218100Y-129955000D02*
X88470000Y-130206900D01*
X88470000Y-130206900D02*
X88470000Y-131570000D01*
X88470000Y-131570000D02*
X88805000Y-131905000D01*
X81110000Y-129955000D02*
X88218100Y-129955000D01*
X88805000Y-131905000D02*
X89320400Y-131905000D01*
%TO.N,/QSPI_SD1*%
X90300000Y-130215000D02*
X90300000Y-132195400D01*
X81185000Y-128747500D02*
X81185000Y-129176737D01*
X90300000Y-132195400D02*
X89320400Y-133175000D01*
X81636263Y-129628000D02*
X89713000Y-129628000D01*
X81185000Y-129176737D02*
X81636263Y-129628000D01*
X89713000Y-129628000D02*
X90300000Y-130215000D01*
%TO.N,/DRF_SW*%
X83770000Y-123510000D02*
X82422500Y-123510000D01*
X83780000Y-123520000D02*
X83770000Y-123510000D01*
%TO.N,/DRF_TXEN*%
X81565483Y-127537780D02*
X81993263Y-127110000D01*
X81565483Y-127915483D02*
X81565483Y-127537780D01*
X81993263Y-127110000D02*
X82422500Y-127110000D01*
%TO.N,/DRF_DIO1*%
X81741500Y-126310000D02*
X82422500Y-126310000D01*
X81421500Y-125990000D02*
X81741500Y-126310000D01*
%TO.N,/DRF_BUSY*%
X81420000Y-125110000D02*
X82422500Y-125110000D01*
X81250000Y-125280000D02*
X81420000Y-125110000D01*
%TO.N,/DRF_MISO*%
X71900000Y-129220000D02*
X71900000Y-126590000D01*
X71900000Y-126590000D02*
X74980000Y-123510000D01*
X74980000Y-123510000D02*
X75547500Y-123510000D01*
%TO.N,/DRF_MOSI*%
X74400000Y-123110000D02*
X75547500Y-123110000D01*
X72115000Y-125395000D02*
X74400000Y-123110000D01*
%TO.N,/DRF_CLK*%
X72140000Y-123770000D02*
X72150000Y-123770000D01*
X73210000Y-122710000D02*
X75547500Y-122710000D01*
X72150000Y-123770000D02*
X73210000Y-122710000D01*
%TO.N,/DRF_CS*%
X76520000Y-123910000D02*
X76690000Y-123740000D01*
X75547500Y-123910000D02*
X76520000Y-123910000D01*
%TO.N,Net-(U1-RUN)*%
X74055000Y-121430000D02*
X75140000Y-121430000D01*
X75140000Y-121430000D02*
X75590000Y-121880000D01*
X77185000Y-122435000D02*
X76790000Y-122830000D01*
X77185000Y-121872500D02*
X77185000Y-122435000D01*
%TD*%
%TA.AperFunction,Conductor*%
%TO.N,+3V3*%
G36*
X72703039Y-132399685D02*
G01*
X72748794Y-132452489D01*
X72760000Y-132504000D01*
X72760000Y-134328638D01*
X72740315Y-134395677D01*
X72723681Y-134416319D01*
X71610000Y-135529999D01*
X71610000Y-140556000D01*
X71590315Y-140623039D01*
X71537511Y-140668794D01*
X71486000Y-140680000D01*
X70234000Y-140680000D01*
X70166961Y-140660315D01*
X70121206Y-140607511D01*
X70110000Y-140556000D01*
X70110000Y-135540000D01*
X68996319Y-134426319D01*
X68962834Y-134364996D01*
X68960000Y-134338638D01*
X68960000Y-132504000D01*
X68979685Y-132436961D01*
X69032489Y-132391206D01*
X69084000Y-132380000D01*
X72636000Y-132380000D01*
X72703039Y-132399685D01*
G37*
%TD.AperFunction*%
%TD*%
%TA.AperFunction,Conductor*%
%TO.N,GND*%
G36*
X81723039Y-102290185D02*
G01*
X81768794Y-102342989D01*
X81780000Y-102394500D01*
X81780000Y-115866000D01*
X81760315Y-115933039D01*
X81707511Y-115978794D01*
X81656000Y-115990000D01*
X66714499Y-115990000D01*
X66647460Y-115970315D01*
X66601705Y-115917511D01*
X66590499Y-115866000D01*
X66590499Y-104973480D01*
X66590694Y-104966527D01*
X66593654Y-104913827D01*
X66607084Y-104674694D01*
X66608638Y-104660896D01*
X66657015Y-104376167D01*
X66660109Y-104362615D01*
X66731563Y-104114596D01*
X66740061Y-104085096D01*
X66744653Y-104071975D01*
X66855175Y-103805151D01*
X66861195Y-103792651D01*
X67000902Y-103539868D01*
X67008297Y-103528100D01*
X67049842Y-103469548D01*
X67175422Y-103292559D01*
X67184077Y-103281705D01*
X67373041Y-103070254D01*
X67432389Y-103033385D01*
X67502251Y-103034454D01*
X67560444Y-103073123D01*
X67588493Y-103137116D01*
X67589500Y-103152883D01*
X67589500Y-107916789D01*
X67599393Y-107966526D01*
X67637076Y-108022923D01*
X67693473Y-108060606D01*
X67693474Y-108060607D01*
X67743209Y-108070500D01*
X68445500Y-108070499D01*
X68512539Y-108090183D01*
X68558294Y-108142987D01*
X68569500Y-108194499D01*
X68569500Y-108223265D01*
X68549815Y-108290304D01*
X68527728Y-108316079D01*
X68475749Y-108362129D01*
X68385321Y-108493136D01*
X68328874Y-108641976D01*
X68309685Y-108800000D01*
X68328874Y-108958023D01*
X68385321Y-109106863D01*
X68475748Y-109237870D01*
X68594897Y-109343427D01*
X68594899Y-109343428D01*
X68735849Y-109417404D01*
X68890408Y-109455500D01*
X68890409Y-109455500D01*
X69049591Y-109455500D01*
X69049592Y-109455500D01*
X69204151Y-109417404D01*
X69345101Y-109343428D01*
X69464252Y-109237869D01*
X69554679Y-109106863D01*
X69611126Y-108958023D01*
X69630314Y-108800000D01*
X69611126Y-108641977D01*
X69554679Y-108493137D01*
X69464252Y-108362131D01*
X69412270Y-108316079D01*
X69375145Y-108256890D01*
X69370499Y-108223265D01*
X69370499Y-108194499D01*
X69390184Y-108127460D01*
X69442988Y-108081705D01*
X69494499Y-108070499D01*
X70196789Y-108070499D01*
X70196790Y-108070499D01*
X70246526Y-108060607D01*
X70302923Y-108022923D01*
X70340607Y-107966526D01*
X70350500Y-107916791D01*
X70350500Y-107916789D01*
X76349500Y-107916789D01*
X76359393Y-107966526D01*
X76397076Y-108022923D01*
X76453473Y-108060606D01*
X76453474Y-108060607D01*
X76503209Y-108070500D01*
X77205500Y-108070499D01*
X77272539Y-108090183D01*
X77318294Y-108142987D01*
X77329500Y-108194499D01*
X77329500Y-108223265D01*
X77309815Y-108290304D01*
X77287728Y-108316079D01*
X77235749Y-108362129D01*
X77145321Y-108493136D01*
X77088874Y-108641976D01*
X77069685Y-108800000D01*
X77088874Y-108958023D01*
X77145321Y-109106863D01*
X77235748Y-109237870D01*
X77354897Y-109343427D01*
X77354899Y-109343428D01*
X77495849Y-109417404D01*
X77650408Y-109455500D01*
X77650409Y-109455500D01*
X77809591Y-109455500D01*
X77809592Y-109455500D01*
X77964151Y-109417404D01*
X78105101Y-109343428D01*
X78224252Y-109237869D01*
X78314679Y-109106863D01*
X78371126Y-108958023D01*
X78390314Y-108800000D01*
X78371126Y-108641977D01*
X78314679Y-108493137D01*
X78224252Y-108362131D01*
X78172270Y-108316079D01*
X78135145Y-108256890D01*
X78130499Y-108223265D01*
X78130499Y-108194499D01*
X78150184Y-108127460D01*
X78202988Y-108081705D01*
X78254499Y-108070499D01*
X78956789Y-108070499D01*
X78956790Y-108070499D01*
X79006526Y-108060607D01*
X79062923Y-108022923D01*
X79100607Y-107966526D01*
X79110500Y-107916791D01*
X79110499Y-102803210D01*
X79100607Y-102753474D01*
X79088102Y-102734760D01*
X79062923Y-102697076D01*
X79006525Y-102659392D01*
X78956791Y-102649500D01*
X76503210Y-102649500D01*
X76453473Y-102659393D01*
X76397076Y-102697076D01*
X76359392Y-102753474D01*
X76349500Y-102803208D01*
X76349500Y-107916789D01*
X70350500Y-107916789D01*
X70350499Y-102803210D01*
X70340607Y-102753474D01*
X70328102Y-102734760D01*
X70302923Y-102697076D01*
X70246525Y-102659392D01*
X70196792Y-102649500D01*
X70196791Y-102649500D01*
X68487031Y-102649500D01*
X68419992Y-102629815D01*
X68374237Y-102577011D01*
X68364293Y-102507853D01*
X68393318Y-102444297D01*
X68452096Y-102406523D01*
X68452703Y-102406346D01*
X68493821Y-102394500D01*
X68682621Y-102340107D01*
X68696167Y-102337015D01*
X68980898Y-102288638D01*
X68994691Y-102287084D01*
X69286527Y-102270695D01*
X69293481Y-102270500D01*
X81656000Y-102270500D01*
X81723039Y-102290185D01*
G37*
%TD.AperFunction*%
%TD*%
M02*
