%TF.GenerationSoftware,KiCad,Pcbnew,7.0.2*%
%TF.CreationDate,2023-10-19T19:02:44-04:00*%
%TF.ProjectId,XBee_Joint,58426565-5f4a-46f6-996e-742e6b696361,rev?*%
%TF.SameCoordinates,Original*%
%TF.FileFunction,Paste,Top*%
%TF.FilePolarity,Positive*%
%FSLAX46Y46*%
G04 Gerber Fmt 4.6, Leading zero omitted, Abs format (unit mm)*
G04 Created by KiCad (PCBNEW 7.0.2) date 2023-10-19 19:02:44*
%MOMM*%
%LPD*%
G01*
G04 APERTURE LIST*
G04 Aperture macros list*
%AMRoundRect*
0 Rectangle with rounded corners*
0 $1 Rounding radius*
0 $2 $3 $4 $5 $6 $7 $8 $9 X,Y pos of 4 corners*
0 Add a 4 corners polygon primitive as box body*
4,1,4,$2,$3,$4,$5,$6,$7,$8,$9,$2,$3,0*
0 Add four circle primitives for the rounded corners*
1,1,$1+$1,$2,$3*
1,1,$1+$1,$4,$5*
1,1,$1+$1,$6,$7*
1,1,$1+$1,$8,$9*
0 Add four rect primitives between the rounded corners*
20,1,$1+$1,$2,$3,$4,$5,0*
20,1,$1+$1,$4,$5,$6,$7,0*
20,1,$1+$1,$6,$7,$8,$9,0*
20,1,$1+$1,$8,$9,$2,$3,0*%
G04 Aperture macros list end*
%ADD10R,0.558000X0.972299*%
%ADD11R,0.600000X1.150000*%
%ADD12R,0.300000X1.150000*%
%ADD13R,1.000000X1.150000*%
%ADD14R,0.965200X0.431800*%
%ADD15R,3.454400X4.343400*%
%ADD16R,1.500000X2.000000*%
%ADD17R,3.800000X2.000000*%
%ADD18RoundRect,0.250000X0.292217X0.292217X-0.292217X0.292217X-0.292217X-0.292217X0.292217X-0.292217X0*%
%ADD19RoundRect,0.050000X0.387500X0.050000X-0.387500X0.050000X-0.387500X-0.050000X0.387500X-0.050000X0*%
%ADD20RoundRect,0.050000X0.050000X0.387500X-0.050000X0.387500X-0.050000X-0.387500X0.050000X-0.387500X0*%
%ADD21R,1.406398X0.811200*%
%ADD22RoundRect,0.237500X-0.250000X-0.237500X0.250000X-0.237500X0.250000X0.237500X-0.250000X0.237500X0*%
%ADD23RoundRect,0.237500X0.250000X0.237500X-0.250000X0.237500X-0.250000X-0.237500X0.250000X-0.237500X0*%
%ADD24RoundRect,0.200000X0.275000X-0.200000X0.275000X0.200000X-0.275000X0.200000X-0.275000X-0.200000X0*%
%ADD25RoundRect,0.200000X-0.275000X0.200000X-0.275000X-0.200000X0.275000X-0.200000X0.275000X0.200000X0*%
%ADD26RoundRect,0.200000X-0.200000X-0.275000X0.200000X-0.275000X0.200000X0.275000X-0.200000X0.275000X0*%
%ADD27RoundRect,0.135000X0.185000X-0.135000X0.185000X0.135000X-0.185000X0.135000X-0.185000X-0.135000X0*%
%ADD28RoundRect,0.140000X-0.170000X0.140000X-0.170000X-0.140000X0.170000X-0.140000X0.170000X0.140000X0*%
%ADD29RoundRect,0.218750X0.256250X-0.218750X0.256250X0.218750X-0.256250X0.218750X-0.256250X-0.218750X0*%
%ADD30RoundRect,0.225000X-0.250000X0.225000X-0.250000X-0.225000X0.250000X-0.225000X0.250000X0.225000X0*%
%ADD31RoundRect,0.140000X0.140000X0.170000X-0.140000X0.170000X-0.140000X-0.170000X0.140000X-0.170000X0*%
%ADD32RoundRect,0.140000X-0.140000X-0.170000X0.140000X-0.170000X0.140000X0.170000X-0.140000X0.170000X0*%
%ADD33RoundRect,0.140000X0.170000X-0.140000X0.170000X0.140000X-0.170000X0.140000X-0.170000X-0.140000X0*%
%ADD34R,2.420000X5.080000*%
G04 APERTURE END LIST*
%TO.C,U4*%
G36*
X88077400Y-134611700D02*
G01*
X86550200Y-134611700D01*
X86550200Y-133363900D01*
X88077400Y-133363900D01*
X88077400Y-134611700D01*
G37*
G36*
X88077400Y-133163900D02*
G01*
X86550200Y-133163900D01*
X86550200Y-131916100D01*
X88077400Y-131916100D01*
X88077400Y-133163900D01*
G37*
G36*
X88077400Y-131716100D02*
G01*
X86550200Y-131716100D01*
X86550200Y-130468300D01*
X88077400Y-130468300D01*
X88077400Y-131716100D01*
G37*
G36*
X86350200Y-134611700D02*
G01*
X84823000Y-134611700D01*
X84823000Y-133363900D01*
X86350200Y-133363900D01*
X86350200Y-134611700D01*
G37*
G36*
X86350200Y-133163900D02*
G01*
X84823000Y-133163900D01*
X84823000Y-131916100D01*
X86350200Y-131916100D01*
X86350200Y-133163900D01*
G37*
G36*
X86350200Y-131716100D02*
G01*
X84823000Y-131716100D01*
X84823000Y-130468300D01*
X86350200Y-130468300D01*
X86350200Y-131716100D01*
G37*
%TD*%
D10*
%TO.C,U5*%
X78390001Y-137507549D03*
X77440000Y-137507549D03*
X76489999Y-137507549D03*
X76489999Y-140232451D03*
X77440000Y-140232451D03*
X78390001Y-140232451D03*
%TD*%
D11*
%TO.C,J2*%
X74140000Y-142540000D03*
X74940000Y-142540000D03*
D12*
X76090000Y-142540000D03*
X77090000Y-142540000D03*
X77590000Y-142540000D03*
X78590000Y-142540000D03*
D11*
X79740000Y-142540000D03*
X80540000Y-142540000D03*
X80540000Y-142540000D03*
X79740000Y-142540000D03*
D12*
X79090000Y-142540000D03*
X78090000Y-142540000D03*
X76590000Y-142540000D03*
X75590000Y-142540000D03*
D11*
X74940000Y-142540000D03*
X74140000Y-142540000D03*
%TD*%
D13*
%TO.C,Y1*%
X78785000Y-117040000D03*
X78785000Y-118790000D03*
X80185000Y-118790000D03*
X80185000Y-117040000D03*
%TD*%
D14*
%TO.C,U4*%
X89320400Y-134445000D03*
X89320400Y-133175000D03*
X89320400Y-131905000D03*
X89320400Y-130635000D03*
X83580000Y-130635000D03*
X83580000Y-131905000D03*
X83580000Y-133175000D03*
X83580000Y-134445000D03*
D15*
X86450200Y-132540000D03*
%TD*%
D16*
%TO.C,U2*%
X73160000Y-139680000D03*
X70860000Y-139680000D03*
D17*
X70860000Y-133380000D03*
D16*
X68560000Y-139680000D03*
%TD*%
D18*
%TO.C,U1*%
X79622500Y-125947500D03*
X79622500Y-124672500D03*
X78347500Y-125947500D03*
X78347500Y-124672500D03*
D19*
X82422500Y-127910000D03*
X82422500Y-127510000D03*
X82422500Y-127110000D03*
X82422500Y-126710000D03*
X82422500Y-126310000D03*
X82422500Y-125910000D03*
X82422500Y-125510000D03*
X82422500Y-125110000D03*
X82422500Y-124710000D03*
X82422500Y-124310000D03*
X82422500Y-123910000D03*
X82422500Y-123510000D03*
X82422500Y-123110000D03*
X82422500Y-122710000D03*
D20*
X81585000Y-121872500D03*
X81185000Y-121872500D03*
X80785000Y-121872500D03*
X80385000Y-121872500D03*
X79985000Y-121872500D03*
X79585000Y-121872500D03*
X79185000Y-121872500D03*
X78785000Y-121872500D03*
X78385000Y-121872500D03*
X77985000Y-121872500D03*
X77585000Y-121872500D03*
X77185000Y-121872500D03*
X76785000Y-121872500D03*
X76385000Y-121872500D03*
D19*
X75547500Y-122710000D03*
X75547500Y-123110000D03*
X75547500Y-123510000D03*
X75547500Y-123910000D03*
X75547500Y-124310000D03*
X75547500Y-124710000D03*
X75547500Y-125110000D03*
X75547500Y-125510000D03*
X75547500Y-125910000D03*
X75547500Y-126310000D03*
X75547500Y-126710000D03*
X75547500Y-127110000D03*
X75547500Y-127510000D03*
X75547500Y-127910000D03*
D20*
X76385000Y-128747500D03*
X76785000Y-128747500D03*
X77185000Y-128747500D03*
X77585000Y-128747500D03*
X77985000Y-128747500D03*
X78385000Y-128747500D03*
X78785000Y-128747500D03*
X79185000Y-128747500D03*
X79585000Y-128747500D03*
X79985000Y-128747500D03*
X80385000Y-128747500D03*
X80785000Y-128747500D03*
X81185000Y-128747500D03*
X81585000Y-128747500D03*
%TD*%
D21*
%TO.C,SW2*%
X84870000Y-114452798D03*
X84870000Y-117952802D03*
X88754600Y-116202800D03*
%TD*%
D22*
%TO.C,R10*%
X85962500Y-143540000D03*
X84137500Y-143540000D03*
%TD*%
D23*
%TO.C,R9*%
X84127500Y-145200000D03*
X85952500Y-145200000D03*
%TD*%
D24*
%TO.C,R8*%
X85990000Y-128265000D03*
X85990000Y-126615000D03*
%TD*%
D25*
%TO.C,R7*%
X87900000Y-120655000D03*
X87900000Y-122305000D03*
%TD*%
D24*
%TO.C,R6*%
X68286250Y-130652500D03*
X68286250Y-129002500D03*
%TD*%
D26*
%TO.C,R4*%
X72405000Y-121430000D03*
X74055000Y-121430000D03*
%TD*%
D27*
%TO.C,R3*%
X76930000Y-132120000D03*
X76930000Y-131100000D03*
%TD*%
%TO.C,R2*%
X78180000Y-132130000D03*
X78180000Y-131110000D03*
%TD*%
D28*
%TO.C,R1*%
X77430000Y-118225000D03*
X77430000Y-119185000D03*
%TD*%
D29*
%TO.C,D1*%
X69876250Y-129040000D03*
X69876250Y-130615000D03*
%TD*%
D30*
%TO.C,C18*%
X82610000Y-138175000D03*
X82610000Y-139725000D03*
%TD*%
%TO.C,C17*%
X85670000Y-138175000D03*
X85670000Y-139725000D03*
%TD*%
%TO.C,C16*%
X84140000Y-138170000D03*
X84140000Y-139720000D03*
%TD*%
D31*
%TO.C,C15*%
X74300000Y-128465000D03*
X73340000Y-128465000D03*
%TD*%
%TO.C,C14*%
X74300000Y-129505000D03*
X73340000Y-129505000D03*
%TD*%
%TO.C,C13*%
X82700000Y-136410000D03*
X81740000Y-136410000D03*
%TD*%
D32*
%TO.C,C12*%
X83780000Y-124480000D03*
X84740000Y-124480000D03*
%TD*%
D28*
%TO.C,C11*%
X80170000Y-132155000D03*
X80170000Y-133115000D03*
%TD*%
%TO.C,C10*%
X79180000Y-131565000D03*
X79180000Y-132525000D03*
%TD*%
D33*
%TO.C,C9*%
X83800000Y-126830000D03*
X83800000Y-127790000D03*
%TD*%
D28*
%TO.C,C8*%
X74300000Y-125390000D03*
X74300000Y-126350000D03*
%TD*%
D31*
%TO.C,C7*%
X76410000Y-119630000D03*
X75450000Y-119630000D03*
%TD*%
D28*
%TO.C,C6*%
X74920000Y-130610000D03*
X74920000Y-131570000D03*
%TD*%
%TO.C,C5*%
X75910000Y-130620000D03*
X75910000Y-131580000D03*
%TD*%
D31*
%TO.C,C4*%
X76420000Y-120630000D03*
X75460000Y-120630000D03*
%TD*%
D33*
%TO.C,C3*%
X77440000Y-117295000D03*
X77440000Y-116335000D03*
%TD*%
%TO.C,C2*%
X81530000Y-119185000D03*
X81530000Y-118225000D03*
%TD*%
D28*
%TO.C,C1*%
X81760000Y-133565000D03*
X81760000Y-134525000D03*
%TD*%
D34*
%TO.C,AE1*%
X77730000Y-105360000D03*
X68970000Y-105360000D03*
%TD*%
M02*
