M48
; DRILL file {KiCad 7.0.2} date Thu Oct 19 19:02:42 2023
; FORMAT={-:-/ absolute / metric / decimal}
; #@! TF.CreationDate,2023-10-19T19:02:42-04:00
; #@! TF.GenerationSoftware,Kicad,Pcbnew,7.0.2
; #@! TF.FileFunction,Plated,1,4,PTH
FMAT,2
METRIC
; #@! TA.AperFunction,Plated,PTH,ViaDrill
T1C0.300
; #@! TA.AperFunction,Plated,PTH,ComponentDrill
T2C0.350
; #@! TA.AperFunction,Plated,PTH,ViaDrill
T3C0.450
; #@! TA.AperFunction,Plated,PTH,ComponentDrill
T4C0.460
; #@! TA.AperFunction,Plated,PTH,ComponentDrill
T5C0.600
; #@! TA.AperFunction,Plated,PTH,ViaDrill
T6C0.850
; #@! TA.AperFunction,Plated,PTH,ComponentDrill
T7C2.200
%
G90
G05
T1
X66.93Y-115.63
X68.16Y-115.65
X68.27Y-131.66
X69.41Y-115.67
X69.88Y-131.79
X71.18Y-115.65
X71.52Y-103.55
X71.52Y-104.45
X71.53Y-105.29
X71.55Y-106.16
X71.57Y-107.02
X71.58Y-107.93
X71.61Y-102.57
X71.83Y-111.08
X71.83Y-112.07
X71.83Y-113.11
X71.9Y-129.22
X71.94Y-114.12
X71.99Y-110.12
X72.115Y-125.395
X72.14Y-123.77
X72.34Y-108.48
X72.35Y-129.93
X72.39Y-120.33
X72.41Y-109.37
X72.52Y-128.43
X72.56Y-114.59
X72.85Y-115.65
X73.29Y-126.18
X73.34Y-127.5
X73.4Y-130.55
X73.55Y-114.55
X73.86Y-131.49
X73.98Y-132.44
X74.22Y-109.26
X74.23Y-108.46
X74.29Y-114.04
X74.3Y-127.15
X74.33Y-110.08
X74.33Y-111.07
X74.36Y-112.02
X74.36Y-113.0
X74.47Y-115.69
X74.49Y-120.22
X74.72Y-119.28
X74.96Y-132.52
X75.03Y-102.61
X75.11Y-103.56
X75.11Y-105.23
X75.12Y-104.4
X75.12Y-106.08
X75.12Y-106.93
X75.13Y-107.79
X75.23Y-138.39
X75.45Y-118.69
X75.59Y-121.88
X75.97Y-115.67
X76.57Y-118.76
X76.69Y-123.74
X76.79Y-122.83
X77.18Y-127.7
X77.38Y-120.63
X77.41Y-115.48
X77.57Y-123.09
X78.28Y-122.74
X78.78Y-115.63
X79.03Y-119.82
X79.18Y-127.73
X79.19Y-133.47
X79.43Y-138.37
X80.11Y-115.63
X80.16Y-133.96
X80.33Y-120.77
X80.93Y-136.44
X80.95Y-132.765
X81.16Y-102.84
X81.21Y-103.87
X81.24Y-112.88
X81.25Y-125.28
X81.26Y-104.99
X81.26Y-111.5
X81.27Y-107.27
X81.27Y-108.64
X81.27Y-114.31
X81.29Y-106.13
X81.3Y-115.58
X81.32Y-110.06
X81.421Y-125.99
X81.5Y-116.47
X81.54Y-117.42
X81.565Y-127.915
X81.76Y-135.32
X82.58Y-140.93
X82.85Y-135.43
X83.76Y-125.3
X83.78Y-123.52
X83.78Y-128.57
X84.14Y-141.21
X84.4Y-126.03
X85.58Y-124.48
X85.68Y-141.16
X85.89Y-125.58
X85.99Y-142.5
X85.99Y-146.33
X89.358Y-131.27
X89.81Y-141.3
X90.487Y-116.203
X90.6Y-141.26
T2
X77.71Y-124.035
X77.71Y-125.31
X77.71Y-126.585
X78.985Y-124.035
X78.985Y-125.31
X78.985Y-126.585
X80.26Y-124.035
X80.26Y-125.31
X80.26Y-126.585
T3
X83.89Y-136.15
X86.3Y-136.25
X86.42Y-124.88
X86.72Y-138.04
T4
X68.97Y-108.8
X77.73Y-108.8
T6
X68.5Y-141.98
X70.87Y-141.67
X72.08Y-131.4
T7
X69.29Y-146.97
X88.29Y-104.97
T5
G00X73.02Y-142.565
M15
G01X73.02Y-143.665
M16
G05
G00X73.02Y-146.895
M15
G01X73.02Y-147.695
M16
G05
G00X81.66Y-142.565
M15
G01X81.66Y-143.665
M16
G05
G00X81.66Y-146.895
M15
G01X81.66Y-147.695
M16
G05
T0
M30
