%TF.GenerationSoftware,KiCad,Pcbnew,7.0.2*%
%TF.CreationDate,2023-10-20T21:51:59-04:00*%
%TF.ProjectId,XBee_Joint,58426565-5f4a-46f6-996e-742e6b696361,rev?*%
%TF.SameCoordinates,Original*%
%TF.FileFunction,Drillmap*%
%TF.FilePolarity,Positive*%
%FSLAX45Y45*%
G04 Gerber Fmt 4.5, Leading zero omitted, Abs format (unit mm)*
G04 Created by KiCad (PCBNEW 7.0.2) date 2023-10-20 21:51:59*
%MOMM*%
%LPD*%
G01*
G04 APERTURE LIST*
%ADD10C,0.100000*%
%ADD11C,0.200000*%
%ADD12C,0.065000*%
%ADD13C,0.070000*%
G04 APERTURE END LIST*
D10*
X8829000Y-14997000D02*
X6929000Y-14997000D01*
X6929000Y-10197000D02*
G75*
G03*
X6629000Y-10497000I0J-300000D01*
G01*
X9129000Y-10497000D02*
G75*
G03*
X8829000Y-10197000I-300000J0D01*
G01*
X6629000Y-14697000D02*
X6629000Y-10497000D01*
X8829000Y-14997000D02*
G75*
G03*
X9129000Y-14697000I0J300000D01*
G01*
X6629000Y-14697000D02*
G75*
G03*
X6929000Y-14997000I300000J0D01*
G01*
X9129000Y-10497000D02*
X9129000Y-14697000D01*
X6929000Y-10197000D02*
X8829000Y-10197000D01*
D11*
D12*
X7412500Y-14329000D02*
X7477500Y-14394000D01*
X7477500Y-14329000D02*
X7412500Y-14394000D01*
X7990500Y-14329000D02*
X8055500Y-14394000D01*
X8055500Y-14329000D02*
X7990500Y-14394000D01*
D13*
X8880450Y-14230000D02*
G75*
G03*
X8880450Y-14230000I-35000J0D01*
G01*
X8880450Y-14357000D02*
G75*
G03*
X8880450Y-14357000I-35000J0D01*
G01*
X8880450Y-14484000D02*
G75*
G03*
X8880450Y-14484000I-35000J0D01*
G01*
X8880450Y-14611000D02*
G75*
G03*
X8880450Y-14611000I-35000J0D01*
G01*
X8880450Y-14738000D02*
G75*
G03*
X8880450Y-14738000I-35000J0D01*
G01*
D11*
X6871619Y-15314524D02*
X6871619Y-15114524D01*
X6871619Y-15114524D02*
X6919238Y-15114524D01*
X6919238Y-15114524D02*
X6947809Y-15124048D01*
X6947809Y-15124048D02*
X6966857Y-15143095D01*
X6966857Y-15143095D02*
X6976381Y-15162143D01*
X6976381Y-15162143D02*
X6985905Y-15200238D01*
X6985905Y-15200238D02*
X6985905Y-15228809D01*
X6985905Y-15228809D02*
X6976381Y-15266905D01*
X6976381Y-15266905D02*
X6966857Y-15285952D01*
X6966857Y-15285952D02*
X6947809Y-15305000D01*
X6947809Y-15305000D02*
X6919238Y-15314524D01*
X6919238Y-15314524D02*
X6871619Y-15314524D01*
X7071619Y-15314524D02*
X7071619Y-15181190D01*
X7071619Y-15219286D02*
X7081143Y-15200238D01*
X7081143Y-15200238D02*
X7090667Y-15190714D01*
X7090667Y-15190714D02*
X7109714Y-15181190D01*
X7109714Y-15181190D02*
X7128762Y-15181190D01*
X7195428Y-15314524D02*
X7195428Y-15181190D01*
X7195428Y-15114524D02*
X7185905Y-15124048D01*
X7185905Y-15124048D02*
X7195428Y-15133571D01*
X7195428Y-15133571D02*
X7204952Y-15124048D01*
X7204952Y-15124048D02*
X7195428Y-15114524D01*
X7195428Y-15114524D02*
X7195428Y-15133571D01*
X7319238Y-15314524D02*
X7300190Y-15305000D01*
X7300190Y-15305000D02*
X7290667Y-15285952D01*
X7290667Y-15285952D02*
X7290667Y-15114524D01*
X7424000Y-15314524D02*
X7404952Y-15305000D01*
X7404952Y-15305000D02*
X7395428Y-15285952D01*
X7395428Y-15285952D02*
X7395428Y-15114524D01*
X7652571Y-15314524D02*
X7652571Y-15114524D01*
X7652571Y-15114524D02*
X7719238Y-15257381D01*
X7719238Y-15257381D02*
X7785905Y-15114524D01*
X7785905Y-15114524D02*
X7785905Y-15314524D01*
X7966857Y-15314524D02*
X7966857Y-15209762D01*
X7966857Y-15209762D02*
X7957333Y-15190714D01*
X7957333Y-15190714D02*
X7938286Y-15181190D01*
X7938286Y-15181190D02*
X7900190Y-15181190D01*
X7900190Y-15181190D02*
X7881143Y-15190714D01*
X7966857Y-15305000D02*
X7947809Y-15314524D01*
X7947809Y-15314524D02*
X7900190Y-15314524D01*
X7900190Y-15314524D02*
X7881143Y-15305000D01*
X7881143Y-15305000D02*
X7871619Y-15285952D01*
X7871619Y-15285952D02*
X7871619Y-15266905D01*
X7871619Y-15266905D02*
X7881143Y-15247857D01*
X7881143Y-15247857D02*
X7900190Y-15238333D01*
X7900190Y-15238333D02*
X7947809Y-15238333D01*
X7947809Y-15238333D02*
X7966857Y-15228809D01*
X8062095Y-15181190D02*
X8062095Y-15381190D01*
X8062095Y-15190714D02*
X8081143Y-15181190D01*
X8081143Y-15181190D02*
X8119238Y-15181190D01*
X8119238Y-15181190D02*
X8138286Y-15190714D01*
X8138286Y-15190714D02*
X8147809Y-15200238D01*
X8147809Y-15200238D02*
X8157333Y-15219286D01*
X8157333Y-15219286D02*
X8157333Y-15276428D01*
X8157333Y-15276428D02*
X8147809Y-15295476D01*
X8147809Y-15295476D02*
X8138286Y-15305000D01*
X8138286Y-15305000D02*
X8119238Y-15314524D01*
X8119238Y-15314524D02*
X8081143Y-15314524D01*
X8081143Y-15314524D02*
X8062095Y-15305000D01*
X8243048Y-15295476D02*
X8252571Y-15305000D01*
X8252571Y-15305000D02*
X8243048Y-15314524D01*
X8243048Y-15314524D02*
X8233524Y-15305000D01*
X8233524Y-15305000D02*
X8243048Y-15295476D01*
X8243048Y-15295476D02*
X8243048Y-15314524D01*
X8243048Y-15190714D02*
X8252571Y-15200238D01*
X8252571Y-15200238D02*
X8243048Y-15209762D01*
X8243048Y-15209762D02*
X8233524Y-15200238D01*
X8233524Y-15200238D02*
X8243048Y-15190714D01*
X8243048Y-15190714D02*
X8243048Y-15209762D01*
D12*
X6559000Y-15609500D02*
X6624000Y-15674500D01*
X6624000Y-15609500D02*
X6559000Y-15674500D01*
D11*
X6909714Y-15534524D02*
X6928762Y-15534524D01*
X6928762Y-15534524D02*
X6947809Y-15544048D01*
X6947809Y-15544048D02*
X6957333Y-15553571D01*
X6957333Y-15553571D02*
X6966857Y-15572619D01*
X6966857Y-15572619D02*
X6976381Y-15610714D01*
X6976381Y-15610714D02*
X6976381Y-15658333D01*
X6976381Y-15658333D02*
X6966857Y-15696428D01*
X6966857Y-15696428D02*
X6957333Y-15715476D01*
X6957333Y-15715476D02*
X6947809Y-15725000D01*
X6947809Y-15725000D02*
X6928762Y-15734524D01*
X6928762Y-15734524D02*
X6909714Y-15734524D01*
X6909714Y-15734524D02*
X6890667Y-15725000D01*
X6890667Y-15725000D02*
X6881143Y-15715476D01*
X6881143Y-15715476D02*
X6871619Y-15696428D01*
X6871619Y-15696428D02*
X6862095Y-15658333D01*
X6862095Y-15658333D02*
X6862095Y-15610714D01*
X6862095Y-15610714D02*
X6871619Y-15572619D01*
X6871619Y-15572619D02*
X6881143Y-15553571D01*
X6881143Y-15553571D02*
X6890667Y-15544048D01*
X6890667Y-15544048D02*
X6909714Y-15534524D01*
X7062095Y-15715476D02*
X7071619Y-15725000D01*
X7071619Y-15725000D02*
X7062095Y-15734524D01*
X7062095Y-15734524D02*
X7052571Y-15725000D01*
X7052571Y-15725000D02*
X7062095Y-15715476D01*
X7062095Y-15715476D02*
X7062095Y-15734524D01*
X7243048Y-15534524D02*
X7204952Y-15534524D01*
X7204952Y-15534524D02*
X7185905Y-15544048D01*
X7185905Y-15544048D02*
X7176381Y-15553571D01*
X7176381Y-15553571D02*
X7157333Y-15582143D01*
X7157333Y-15582143D02*
X7147809Y-15620238D01*
X7147809Y-15620238D02*
X7147809Y-15696428D01*
X7147809Y-15696428D02*
X7157333Y-15715476D01*
X7157333Y-15715476D02*
X7166857Y-15725000D01*
X7166857Y-15725000D02*
X7185905Y-15734524D01*
X7185905Y-15734524D02*
X7224000Y-15734524D01*
X7224000Y-15734524D02*
X7243048Y-15725000D01*
X7243048Y-15725000D02*
X7252571Y-15715476D01*
X7252571Y-15715476D02*
X7262095Y-15696428D01*
X7262095Y-15696428D02*
X7262095Y-15648809D01*
X7262095Y-15648809D02*
X7252571Y-15629762D01*
X7252571Y-15629762D02*
X7243048Y-15620238D01*
X7243048Y-15620238D02*
X7224000Y-15610714D01*
X7224000Y-15610714D02*
X7185905Y-15610714D01*
X7185905Y-15610714D02*
X7166857Y-15620238D01*
X7166857Y-15620238D02*
X7157333Y-15629762D01*
X7157333Y-15629762D02*
X7147809Y-15648809D01*
X7443048Y-15534524D02*
X7347809Y-15534524D01*
X7347809Y-15534524D02*
X7338286Y-15629762D01*
X7338286Y-15629762D02*
X7347809Y-15620238D01*
X7347809Y-15620238D02*
X7366857Y-15610714D01*
X7366857Y-15610714D02*
X7414476Y-15610714D01*
X7414476Y-15610714D02*
X7433524Y-15620238D01*
X7433524Y-15620238D02*
X7443048Y-15629762D01*
X7443048Y-15629762D02*
X7452571Y-15648809D01*
X7452571Y-15648809D02*
X7452571Y-15696428D01*
X7452571Y-15696428D02*
X7443048Y-15715476D01*
X7443048Y-15715476D02*
X7433524Y-15725000D01*
X7433524Y-15725000D02*
X7414476Y-15734524D01*
X7414476Y-15734524D02*
X7366857Y-15734524D01*
X7366857Y-15734524D02*
X7347809Y-15725000D01*
X7347809Y-15725000D02*
X7338286Y-15715476D01*
X7576381Y-15534524D02*
X7595429Y-15534524D01*
X7595429Y-15534524D02*
X7614476Y-15544048D01*
X7614476Y-15544048D02*
X7624000Y-15553571D01*
X7624000Y-15553571D02*
X7633524Y-15572619D01*
X7633524Y-15572619D02*
X7643048Y-15610714D01*
X7643048Y-15610714D02*
X7643048Y-15658333D01*
X7643048Y-15658333D02*
X7633524Y-15696428D01*
X7633524Y-15696428D02*
X7624000Y-15715476D01*
X7624000Y-15715476D02*
X7614476Y-15725000D01*
X7614476Y-15725000D02*
X7595429Y-15734524D01*
X7595429Y-15734524D02*
X7576381Y-15734524D01*
X7576381Y-15734524D02*
X7557333Y-15725000D01*
X7557333Y-15725000D02*
X7547809Y-15715476D01*
X7547809Y-15715476D02*
X7538286Y-15696428D01*
X7538286Y-15696428D02*
X7528762Y-15658333D01*
X7528762Y-15658333D02*
X7528762Y-15610714D01*
X7528762Y-15610714D02*
X7538286Y-15572619D01*
X7538286Y-15572619D02*
X7547809Y-15553571D01*
X7547809Y-15553571D02*
X7557333Y-15544048D01*
X7557333Y-15544048D02*
X7576381Y-15534524D01*
X7728762Y-15734524D02*
X7728762Y-15601190D01*
X7728762Y-15620238D02*
X7738286Y-15610714D01*
X7738286Y-15610714D02*
X7757333Y-15601190D01*
X7757333Y-15601190D02*
X7785905Y-15601190D01*
X7785905Y-15601190D02*
X7804952Y-15610714D01*
X7804952Y-15610714D02*
X7814476Y-15629762D01*
X7814476Y-15629762D02*
X7814476Y-15734524D01*
X7814476Y-15629762D02*
X7824000Y-15610714D01*
X7824000Y-15610714D02*
X7843048Y-15601190D01*
X7843048Y-15601190D02*
X7871619Y-15601190D01*
X7871619Y-15601190D02*
X7890667Y-15610714D01*
X7890667Y-15610714D02*
X7900190Y-15629762D01*
X7900190Y-15629762D02*
X7900190Y-15734524D01*
X7995429Y-15734524D02*
X7995429Y-15601190D01*
X7995429Y-15620238D02*
X8004952Y-15610714D01*
X8004952Y-15610714D02*
X8024000Y-15601190D01*
X8024000Y-15601190D02*
X8052571Y-15601190D01*
X8052571Y-15601190D02*
X8071619Y-15610714D01*
X8071619Y-15610714D02*
X8081143Y-15629762D01*
X8081143Y-15629762D02*
X8081143Y-15734524D01*
X8081143Y-15629762D02*
X8090667Y-15610714D01*
X8090667Y-15610714D02*
X8109714Y-15601190D01*
X8109714Y-15601190D02*
X8138286Y-15601190D01*
X8138286Y-15601190D02*
X8157333Y-15610714D01*
X8157333Y-15610714D02*
X8166857Y-15629762D01*
X8166857Y-15629762D02*
X8166857Y-15734524D01*
X8557333Y-15525000D02*
X8385905Y-15782143D01*
X8814476Y-15534524D02*
X8833524Y-15534524D01*
X8833524Y-15534524D02*
X8852572Y-15544048D01*
X8852572Y-15544048D02*
X8862095Y-15553571D01*
X8862095Y-15553571D02*
X8871619Y-15572619D01*
X8871619Y-15572619D02*
X8881143Y-15610714D01*
X8881143Y-15610714D02*
X8881143Y-15658333D01*
X8881143Y-15658333D02*
X8871619Y-15696428D01*
X8871619Y-15696428D02*
X8862095Y-15715476D01*
X8862095Y-15715476D02*
X8852572Y-15725000D01*
X8852572Y-15725000D02*
X8833524Y-15734524D01*
X8833524Y-15734524D02*
X8814476Y-15734524D01*
X8814476Y-15734524D02*
X8795429Y-15725000D01*
X8795429Y-15725000D02*
X8785905Y-15715476D01*
X8785905Y-15715476D02*
X8776381Y-15696428D01*
X8776381Y-15696428D02*
X8766857Y-15658333D01*
X8766857Y-15658333D02*
X8766857Y-15610714D01*
X8766857Y-15610714D02*
X8776381Y-15572619D01*
X8776381Y-15572619D02*
X8785905Y-15553571D01*
X8785905Y-15553571D02*
X8795429Y-15544048D01*
X8795429Y-15544048D02*
X8814476Y-15534524D01*
X8966857Y-15715476D02*
X8976381Y-15725000D01*
X8976381Y-15725000D02*
X8966857Y-15734524D01*
X8966857Y-15734524D02*
X8957334Y-15725000D01*
X8957334Y-15725000D02*
X8966857Y-15715476D01*
X8966857Y-15715476D02*
X8966857Y-15734524D01*
X9100191Y-15534524D02*
X9119238Y-15534524D01*
X9119238Y-15534524D02*
X9138286Y-15544048D01*
X9138286Y-15544048D02*
X9147810Y-15553571D01*
X9147810Y-15553571D02*
X9157334Y-15572619D01*
X9157334Y-15572619D02*
X9166857Y-15610714D01*
X9166857Y-15610714D02*
X9166857Y-15658333D01*
X9166857Y-15658333D02*
X9157334Y-15696428D01*
X9157334Y-15696428D02*
X9147810Y-15715476D01*
X9147810Y-15715476D02*
X9138286Y-15725000D01*
X9138286Y-15725000D02*
X9119238Y-15734524D01*
X9119238Y-15734524D02*
X9100191Y-15734524D01*
X9100191Y-15734524D02*
X9081143Y-15725000D01*
X9081143Y-15725000D02*
X9071619Y-15715476D01*
X9071619Y-15715476D02*
X9062095Y-15696428D01*
X9062095Y-15696428D02*
X9052572Y-15658333D01*
X9052572Y-15658333D02*
X9052572Y-15610714D01*
X9052572Y-15610714D02*
X9062095Y-15572619D01*
X9062095Y-15572619D02*
X9071619Y-15553571D01*
X9071619Y-15553571D02*
X9081143Y-15544048D01*
X9081143Y-15544048D02*
X9100191Y-15534524D01*
X9243048Y-15553571D02*
X9252572Y-15544048D01*
X9252572Y-15544048D02*
X9271619Y-15534524D01*
X9271619Y-15534524D02*
X9319238Y-15534524D01*
X9319238Y-15534524D02*
X9338286Y-15544048D01*
X9338286Y-15544048D02*
X9347810Y-15553571D01*
X9347810Y-15553571D02*
X9357334Y-15572619D01*
X9357334Y-15572619D02*
X9357334Y-15591667D01*
X9357334Y-15591667D02*
X9347810Y-15620238D01*
X9347810Y-15620238D02*
X9233524Y-15734524D01*
X9233524Y-15734524D02*
X9357334Y-15734524D01*
X9538286Y-15534524D02*
X9443048Y-15534524D01*
X9443048Y-15534524D02*
X9433524Y-15629762D01*
X9433524Y-15629762D02*
X9443048Y-15620238D01*
X9443048Y-15620238D02*
X9462095Y-15610714D01*
X9462095Y-15610714D02*
X9509715Y-15610714D01*
X9509715Y-15610714D02*
X9528762Y-15620238D01*
X9528762Y-15620238D02*
X9538286Y-15629762D01*
X9538286Y-15629762D02*
X9547810Y-15648809D01*
X9547810Y-15648809D02*
X9547810Y-15696428D01*
X9547810Y-15696428D02*
X9538286Y-15715476D01*
X9538286Y-15715476D02*
X9528762Y-15725000D01*
X9528762Y-15725000D02*
X9509715Y-15734524D01*
X9509715Y-15734524D02*
X9462095Y-15734524D01*
X9462095Y-15734524D02*
X9443048Y-15725000D01*
X9443048Y-15725000D02*
X9433524Y-15715476D01*
X9719238Y-15534524D02*
X9681143Y-15534524D01*
X9681143Y-15534524D02*
X9662095Y-15544048D01*
X9662095Y-15544048D02*
X9652572Y-15553571D01*
X9652572Y-15553571D02*
X9633524Y-15582143D01*
X9633524Y-15582143D02*
X9624000Y-15620238D01*
X9624000Y-15620238D02*
X9624000Y-15696428D01*
X9624000Y-15696428D02*
X9633524Y-15715476D01*
X9633524Y-15715476D02*
X9643048Y-15725000D01*
X9643048Y-15725000D02*
X9662095Y-15734524D01*
X9662095Y-15734524D02*
X9700191Y-15734524D01*
X9700191Y-15734524D02*
X9719238Y-15725000D01*
X9719238Y-15725000D02*
X9728762Y-15715476D01*
X9728762Y-15715476D02*
X9738286Y-15696428D01*
X9738286Y-15696428D02*
X9738286Y-15648809D01*
X9738286Y-15648809D02*
X9728762Y-15629762D01*
X9728762Y-15629762D02*
X9719238Y-15620238D01*
X9719238Y-15620238D02*
X9700191Y-15610714D01*
X9700191Y-15610714D02*
X9662095Y-15610714D01*
X9662095Y-15610714D02*
X9643048Y-15620238D01*
X9643048Y-15620238D02*
X9633524Y-15629762D01*
X9633524Y-15629762D02*
X9624000Y-15648809D01*
X9814476Y-15534524D02*
X9814476Y-15572619D01*
X9890667Y-15534524D02*
X9890667Y-15572619D01*
X10185905Y-15810714D02*
X10176381Y-15801190D01*
X10176381Y-15801190D02*
X10157334Y-15772619D01*
X10157334Y-15772619D02*
X10147810Y-15753571D01*
X10147810Y-15753571D02*
X10138286Y-15725000D01*
X10138286Y-15725000D02*
X10128762Y-15677381D01*
X10128762Y-15677381D02*
X10128762Y-15639286D01*
X10128762Y-15639286D02*
X10138286Y-15591667D01*
X10138286Y-15591667D02*
X10147810Y-15563095D01*
X10147810Y-15563095D02*
X10157334Y-15544048D01*
X10157334Y-15544048D02*
X10176381Y-15515476D01*
X10176381Y-15515476D02*
X10185905Y-15505952D01*
X10252572Y-15553571D02*
X10262096Y-15544048D01*
X10262096Y-15544048D02*
X10281143Y-15534524D01*
X10281143Y-15534524D02*
X10328762Y-15534524D01*
X10328762Y-15534524D02*
X10347810Y-15544048D01*
X10347810Y-15544048D02*
X10357334Y-15553571D01*
X10357334Y-15553571D02*
X10366857Y-15572619D01*
X10366857Y-15572619D02*
X10366857Y-15591667D01*
X10366857Y-15591667D02*
X10357334Y-15620238D01*
X10357334Y-15620238D02*
X10243048Y-15734524D01*
X10243048Y-15734524D02*
X10366857Y-15734524D01*
X10604953Y-15734524D02*
X10604953Y-15534524D01*
X10690667Y-15734524D02*
X10690667Y-15629762D01*
X10690667Y-15629762D02*
X10681143Y-15610714D01*
X10681143Y-15610714D02*
X10662096Y-15601190D01*
X10662096Y-15601190D02*
X10633524Y-15601190D01*
X10633524Y-15601190D02*
X10614477Y-15610714D01*
X10614477Y-15610714D02*
X10604953Y-15620238D01*
X10814477Y-15734524D02*
X10795429Y-15725000D01*
X10795429Y-15725000D02*
X10785905Y-15715476D01*
X10785905Y-15715476D02*
X10776381Y-15696428D01*
X10776381Y-15696428D02*
X10776381Y-15639286D01*
X10776381Y-15639286D02*
X10785905Y-15620238D01*
X10785905Y-15620238D02*
X10795429Y-15610714D01*
X10795429Y-15610714D02*
X10814477Y-15601190D01*
X10814477Y-15601190D02*
X10843048Y-15601190D01*
X10843048Y-15601190D02*
X10862096Y-15610714D01*
X10862096Y-15610714D02*
X10871619Y-15620238D01*
X10871619Y-15620238D02*
X10881143Y-15639286D01*
X10881143Y-15639286D02*
X10881143Y-15696428D01*
X10881143Y-15696428D02*
X10871619Y-15715476D01*
X10871619Y-15715476D02*
X10862096Y-15725000D01*
X10862096Y-15725000D02*
X10843048Y-15734524D01*
X10843048Y-15734524D02*
X10814477Y-15734524D01*
X10995429Y-15734524D02*
X10976381Y-15725000D01*
X10976381Y-15725000D02*
X10966858Y-15705952D01*
X10966858Y-15705952D02*
X10966858Y-15534524D01*
X11147810Y-15725000D02*
X11128762Y-15734524D01*
X11128762Y-15734524D02*
X11090667Y-15734524D01*
X11090667Y-15734524D02*
X11071619Y-15725000D01*
X11071619Y-15725000D02*
X11062096Y-15705952D01*
X11062096Y-15705952D02*
X11062096Y-15629762D01*
X11062096Y-15629762D02*
X11071619Y-15610714D01*
X11071619Y-15610714D02*
X11090667Y-15601190D01*
X11090667Y-15601190D02*
X11128762Y-15601190D01*
X11128762Y-15601190D02*
X11147810Y-15610714D01*
X11147810Y-15610714D02*
X11157334Y-15629762D01*
X11157334Y-15629762D02*
X11157334Y-15648809D01*
X11157334Y-15648809D02*
X11062096Y-15667857D01*
X11233524Y-15725000D02*
X11252572Y-15734524D01*
X11252572Y-15734524D02*
X11290667Y-15734524D01*
X11290667Y-15734524D02*
X11309715Y-15725000D01*
X11309715Y-15725000D02*
X11319238Y-15705952D01*
X11319238Y-15705952D02*
X11319238Y-15696428D01*
X11319238Y-15696428D02*
X11309715Y-15677381D01*
X11309715Y-15677381D02*
X11290667Y-15667857D01*
X11290667Y-15667857D02*
X11262096Y-15667857D01*
X11262096Y-15667857D02*
X11243048Y-15658333D01*
X11243048Y-15658333D02*
X11233524Y-15639286D01*
X11233524Y-15639286D02*
X11233524Y-15629762D01*
X11233524Y-15629762D02*
X11243048Y-15610714D01*
X11243048Y-15610714D02*
X11262096Y-15601190D01*
X11262096Y-15601190D02*
X11290667Y-15601190D01*
X11290667Y-15601190D02*
X11309715Y-15610714D01*
X11385905Y-15810714D02*
X11395429Y-15801190D01*
X11395429Y-15801190D02*
X11414477Y-15772619D01*
X11414477Y-15772619D02*
X11424000Y-15753571D01*
X11424000Y-15753571D02*
X11433524Y-15725000D01*
X11433524Y-15725000D02*
X11443048Y-15677381D01*
X11443048Y-15677381D02*
X11443048Y-15639286D01*
X11443048Y-15639286D02*
X11433524Y-15591667D01*
X11433524Y-15591667D02*
X11424000Y-15563095D01*
X11424000Y-15563095D02*
X11414477Y-15544048D01*
X11414477Y-15544048D02*
X11395429Y-15515476D01*
X11395429Y-15515476D02*
X11385905Y-15505952D01*
X11747810Y-15810714D02*
X11738286Y-15801190D01*
X11738286Y-15801190D02*
X11719238Y-15772619D01*
X11719238Y-15772619D02*
X11709715Y-15753571D01*
X11709715Y-15753571D02*
X11700191Y-15725000D01*
X11700191Y-15725000D02*
X11690667Y-15677381D01*
X11690667Y-15677381D02*
X11690667Y-15639286D01*
X11690667Y-15639286D02*
X11700191Y-15591667D01*
X11700191Y-15591667D02*
X11709715Y-15563095D01*
X11709715Y-15563095D02*
X11719238Y-15544048D01*
X11719238Y-15544048D02*
X11738286Y-15515476D01*
X11738286Y-15515476D02*
X11747810Y-15505952D01*
X11824000Y-15601190D02*
X11824000Y-15734524D01*
X11824000Y-15620238D02*
X11833524Y-15610714D01*
X11833524Y-15610714D02*
X11852572Y-15601190D01*
X11852572Y-15601190D02*
X11881143Y-15601190D01*
X11881143Y-15601190D02*
X11900191Y-15610714D01*
X11900191Y-15610714D02*
X11909715Y-15629762D01*
X11909715Y-15629762D02*
X11909715Y-15734524D01*
X12033524Y-15734524D02*
X12014477Y-15725000D01*
X12014477Y-15725000D02*
X12004953Y-15715476D01*
X12004953Y-15715476D02*
X11995429Y-15696428D01*
X11995429Y-15696428D02*
X11995429Y-15639286D01*
X11995429Y-15639286D02*
X12004953Y-15620238D01*
X12004953Y-15620238D02*
X12014477Y-15610714D01*
X12014477Y-15610714D02*
X12033524Y-15601190D01*
X12033524Y-15601190D02*
X12062096Y-15601190D01*
X12062096Y-15601190D02*
X12081143Y-15610714D01*
X12081143Y-15610714D02*
X12090667Y-15620238D01*
X12090667Y-15620238D02*
X12100191Y-15639286D01*
X12100191Y-15639286D02*
X12100191Y-15696428D01*
X12100191Y-15696428D02*
X12090667Y-15715476D01*
X12090667Y-15715476D02*
X12081143Y-15725000D01*
X12081143Y-15725000D02*
X12062096Y-15734524D01*
X12062096Y-15734524D02*
X12033524Y-15734524D01*
X12157334Y-15601190D02*
X12233524Y-15601190D01*
X12185905Y-15534524D02*
X12185905Y-15705952D01*
X12185905Y-15705952D02*
X12195429Y-15725000D01*
X12195429Y-15725000D02*
X12214477Y-15734524D01*
X12214477Y-15734524D02*
X12233524Y-15734524D01*
X12452572Y-15601190D02*
X12452572Y-15801190D01*
X12452572Y-15610714D02*
X12471619Y-15601190D01*
X12471619Y-15601190D02*
X12509715Y-15601190D01*
X12509715Y-15601190D02*
X12528762Y-15610714D01*
X12528762Y-15610714D02*
X12538286Y-15620238D01*
X12538286Y-15620238D02*
X12547810Y-15639286D01*
X12547810Y-15639286D02*
X12547810Y-15696428D01*
X12547810Y-15696428D02*
X12538286Y-15715476D01*
X12538286Y-15715476D02*
X12528762Y-15725000D01*
X12528762Y-15725000D02*
X12509715Y-15734524D01*
X12509715Y-15734524D02*
X12471619Y-15734524D01*
X12471619Y-15734524D02*
X12452572Y-15725000D01*
X12662096Y-15734524D02*
X12643048Y-15725000D01*
X12643048Y-15725000D02*
X12633524Y-15705952D01*
X12633524Y-15705952D02*
X12633524Y-15534524D01*
X12824000Y-15734524D02*
X12824000Y-15629762D01*
X12824000Y-15629762D02*
X12814477Y-15610714D01*
X12814477Y-15610714D02*
X12795429Y-15601190D01*
X12795429Y-15601190D02*
X12757334Y-15601190D01*
X12757334Y-15601190D02*
X12738286Y-15610714D01*
X12824000Y-15725000D02*
X12804953Y-15734524D01*
X12804953Y-15734524D02*
X12757334Y-15734524D01*
X12757334Y-15734524D02*
X12738286Y-15725000D01*
X12738286Y-15725000D02*
X12728762Y-15705952D01*
X12728762Y-15705952D02*
X12728762Y-15686905D01*
X12728762Y-15686905D02*
X12738286Y-15667857D01*
X12738286Y-15667857D02*
X12757334Y-15658333D01*
X12757334Y-15658333D02*
X12804953Y-15658333D01*
X12804953Y-15658333D02*
X12824000Y-15648809D01*
X12890667Y-15601190D02*
X12966858Y-15601190D01*
X12919239Y-15534524D02*
X12919239Y-15705952D01*
X12919239Y-15705952D02*
X12928762Y-15725000D01*
X12928762Y-15725000D02*
X12947810Y-15734524D01*
X12947810Y-15734524D02*
X12966858Y-15734524D01*
X13109715Y-15725000D02*
X13090667Y-15734524D01*
X13090667Y-15734524D02*
X13052572Y-15734524D01*
X13052572Y-15734524D02*
X13033524Y-15725000D01*
X13033524Y-15725000D02*
X13024000Y-15705952D01*
X13024000Y-15705952D02*
X13024000Y-15629762D01*
X13024000Y-15629762D02*
X13033524Y-15610714D01*
X13033524Y-15610714D02*
X13052572Y-15601190D01*
X13052572Y-15601190D02*
X13090667Y-15601190D01*
X13090667Y-15601190D02*
X13109715Y-15610714D01*
X13109715Y-15610714D02*
X13119239Y-15629762D01*
X13119239Y-15629762D02*
X13119239Y-15648809D01*
X13119239Y-15648809D02*
X13024000Y-15667857D01*
X13290667Y-15734524D02*
X13290667Y-15534524D01*
X13290667Y-15725000D02*
X13271620Y-15734524D01*
X13271620Y-15734524D02*
X13233524Y-15734524D01*
X13233524Y-15734524D02*
X13214477Y-15725000D01*
X13214477Y-15725000D02*
X13204953Y-15715476D01*
X13204953Y-15715476D02*
X13195429Y-15696428D01*
X13195429Y-15696428D02*
X13195429Y-15639286D01*
X13195429Y-15639286D02*
X13204953Y-15620238D01*
X13204953Y-15620238D02*
X13214477Y-15610714D01*
X13214477Y-15610714D02*
X13233524Y-15601190D01*
X13233524Y-15601190D02*
X13271620Y-15601190D01*
X13271620Y-15601190D02*
X13290667Y-15610714D01*
X13366858Y-15810714D02*
X13376381Y-15801190D01*
X13376381Y-15801190D02*
X13395429Y-15772619D01*
X13395429Y-15772619D02*
X13404953Y-15753571D01*
X13404953Y-15753571D02*
X13414477Y-15725000D01*
X13414477Y-15725000D02*
X13424000Y-15677381D01*
X13424000Y-15677381D02*
X13424000Y-15639286D01*
X13424000Y-15639286D02*
X13414477Y-15591667D01*
X13414477Y-15591667D02*
X13404953Y-15563095D01*
X13404953Y-15563095D02*
X13395429Y-15544048D01*
X13395429Y-15544048D02*
X13376381Y-15515476D01*
X13376381Y-15515476D02*
X13366858Y-15505952D01*
D13*
X6624000Y-15906000D02*
G75*
G03*
X6624000Y-15906000I-35000J0D01*
G01*
D11*
X6909714Y-15798524D02*
X6928762Y-15798524D01*
X6928762Y-15798524D02*
X6947809Y-15808048D01*
X6947809Y-15808048D02*
X6957333Y-15817571D01*
X6957333Y-15817571D02*
X6966857Y-15836619D01*
X6966857Y-15836619D02*
X6976381Y-15874714D01*
X6976381Y-15874714D02*
X6976381Y-15922333D01*
X6976381Y-15922333D02*
X6966857Y-15960428D01*
X6966857Y-15960428D02*
X6957333Y-15979476D01*
X6957333Y-15979476D02*
X6947809Y-15989000D01*
X6947809Y-15989000D02*
X6928762Y-15998524D01*
X6928762Y-15998524D02*
X6909714Y-15998524D01*
X6909714Y-15998524D02*
X6890667Y-15989000D01*
X6890667Y-15989000D02*
X6881143Y-15979476D01*
X6881143Y-15979476D02*
X6871619Y-15960428D01*
X6871619Y-15960428D02*
X6862095Y-15922333D01*
X6862095Y-15922333D02*
X6862095Y-15874714D01*
X6862095Y-15874714D02*
X6871619Y-15836619D01*
X6871619Y-15836619D02*
X6881143Y-15817571D01*
X6881143Y-15817571D02*
X6890667Y-15808048D01*
X6890667Y-15808048D02*
X6909714Y-15798524D01*
X7062095Y-15979476D02*
X7071619Y-15989000D01*
X7071619Y-15989000D02*
X7062095Y-15998524D01*
X7062095Y-15998524D02*
X7052571Y-15989000D01*
X7052571Y-15989000D02*
X7062095Y-15979476D01*
X7062095Y-15979476D02*
X7062095Y-15998524D01*
X7138286Y-15798524D02*
X7271619Y-15798524D01*
X7271619Y-15798524D02*
X7185905Y-15998524D01*
X7385905Y-15798524D02*
X7404952Y-15798524D01*
X7404952Y-15798524D02*
X7424000Y-15808048D01*
X7424000Y-15808048D02*
X7433524Y-15817571D01*
X7433524Y-15817571D02*
X7443048Y-15836619D01*
X7443048Y-15836619D02*
X7452571Y-15874714D01*
X7452571Y-15874714D02*
X7452571Y-15922333D01*
X7452571Y-15922333D02*
X7443048Y-15960428D01*
X7443048Y-15960428D02*
X7433524Y-15979476D01*
X7433524Y-15979476D02*
X7424000Y-15989000D01*
X7424000Y-15989000D02*
X7404952Y-15998524D01*
X7404952Y-15998524D02*
X7385905Y-15998524D01*
X7385905Y-15998524D02*
X7366857Y-15989000D01*
X7366857Y-15989000D02*
X7357333Y-15979476D01*
X7357333Y-15979476D02*
X7347809Y-15960428D01*
X7347809Y-15960428D02*
X7338286Y-15922333D01*
X7338286Y-15922333D02*
X7338286Y-15874714D01*
X7338286Y-15874714D02*
X7347809Y-15836619D01*
X7347809Y-15836619D02*
X7357333Y-15817571D01*
X7357333Y-15817571D02*
X7366857Y-15808048D01*
X7366857Y-15808048D02*
X7385905Y-15798524D01*
X7576381Y-15798524D02*
X7595429Y-15798524D01*
X7595429Y-15798524D02*
X7614476Y-15808048D01*
X7614476Y-15808048D02*
X7624000Y-15817571D01*
X7624000Y-15817571D02*
X7633524Y-15836619D01*
X7633524Y-15836619D02*
X7643048Y-15874714D01*
X7643048Y-15874714D02*
X7643048Y-15922333D01*
X7643048Y-15922333D02*
X7633524Y-15960428D01*
X7633524Y-15960428D02*
X7624000Y-15979476D01*
X7624000Y-15979476D02*
X7614476Y-15989000D01*
X7614476Y-15989000D02*
X7595429Y-15998524D01*
X7595429Y-15998524D02*
X7576381Y-15998524D01*
X7576381Y-15998524D02*
X7557333Y-15989000D01*
X7557333Y-15989000D02*
X7547809Y-15979476D01*
X7547809Y-15979476D02*
X7538286Y-15960428D01*
X7538286Y-15960428D02*
X7528762Y-15922333D01*
X7528762Y-15922333D02*
X7528762Y-15874714D01*
X7528762Y-15874714D02*
X7538286Y-15836619D01*
X7538286Y-15836619D02*
X7547809Y-15817571D01*
X7547809Y-15817571D02*
X7557333Y-15808048D01*
X7557333Y-15808048D02*
X7576381Y-15798524D01*
X7728762Y-15998524D02*
X7728762Y-15865190D01*
X7728762Y-15884238D02*
X7738286Y-15874714D01*
X7738286Y-15874714D02*
X7757333Y-15865190D01*
X7757333Y-15865190D02*
X7785905Y-15865190D01*
X7785905Y-15865190D02*
X7804952Y-15874714D01*
X7804952Y-15874714D02*
X7814476Y-15893762D01*
X7814476Y-15893762D02*
X7814476Y-15998524D01*
X7814476Y-15893762D02*
X7824000Y-15874714D01*
X7824000Y-15874714D02*
X7843048Y-15865190D01*
X7843048Y-15865190D02*
X7871619Y-15865190D01*
X7871619Y-15865190D02*
X7890667Y-15874714D01*
X7890667Y-15874714D02*
X7900190Y-15893762D01*
X7900190Y-15893762D02*
X7900190Y-15998524D01*
X7995429Y-15998524D02*
X7995429Y-15865190D01*
X7995429Y-15884238D02*
X8004952Y-15874714D01*
X8004952Y-15874714D02*
X8024000Y-15865190D01*
X8024000Y-15865190D02*
X8052571Y-15865190D01*
X8052571Y-15865190D02*
X8071619Y-15874714D01*
X8071619Y-15874714D02*
X8081143Y-15893762D01*
X8081143Y-15893762D02*
X8081143Y-15998524D01*
X8081143Y-15893762D02*
X8090667Y-15874714D01*
X8090667Y-15874714D02*
X8109714Y-15865190D01*
X8109714Y-15865190D02*
X8138286Y-15865190D01*
X8138286Y-15865190D02*
X8157333Y-15874714D01*
X8157333Y-15874714D02*
X8166857Y-15893762D01*
X8166857Y-15893762D02*
X8166857Y-15998524D01*
X8557333Y-15789000D02*
X8385905Y-16046143D01*
X8814476Y-15798524D02*
X8833524Y-15798524D01*
X8833524Y-15798524D02*
X8852572Y-15808048D01*
X8852572Y-15808048D02*
X8862095Y-15817571D01*
X8862095Y-15817571D02*
X8871619Y-15836619D01*
X8871619Y-15836619D02*
X8881143Y-15874714D01*
X8881143Y-15874714D02*
X8881143Y-15922333D01*
X8881143Y-15922333D02*
X8871619Y-15960428D01*
X8871619Y-15960428D02*
X8862095Y-15979476D01*
X8862095Y-15979476D02*
X8852572Y-15989000D01*
X8852572Y-15989000D02*
X8833524Y-15998524D01*
X8833524Y-15998524D02*
X8814476Y-15998524D01*
X8814476Y-15998524D02*
X8795429Y-15989000D01*
X8795429Y-15989000D02*
X8785905Y-15979476D01*
X8785905Y-15979476D02*
X8776381Y-15960428D01*
X8776381Y-15960428D02*
X8766857Y-15922333D01*
X8766857Y-15922333D02*
X8766857Y-15874714D01*
X8766857Y-15874714D02*
X8776381Y-15836619D01*
X8776381Y-15836619D02*
X8785905Y-15817571D01*
X8785905Y-15817571D02*
X8795429Y-15808048D01*
X8795429Y-15808048D02*
X8814476Y-15798524D01*
X8966857Y-15979476D02*
X8976381Y-15989000D01*
X8976381Y-15989000D02*
X8966857Y-15998524D01*
X8966857Y-15998524D02*
X8957334Y-15989000D01*
X8957334Y-15989000D02*
X8966857Y-15979476D01*
X8966857Y-15979476D02*
X8966857Y-15998524D01*
X9100191Y-15798524D02*
X9119238Y-15798524D01*
X9119238Y-15798524D02*
X9138286Y-15808048D01*
X9138286Y-15808048D02*
X9147810Y-15817571D01*
X9147810Y-15817571D02*
X9157334Y-15836619D01*
X9157334Y-15836619D02*
X9166857Y-15874714D01*
X9166857Y-15874714D02*
X9166857Y-15922333D01*
X9166857Y-15922333D02*
X9157334Y-15960428D01*
X9157334Y-15960428D02*
X9147810Y-15979476D01*
X9147810Y-15979476D02*
X9138286Y-15989000D01*
X9138286Y-15989000D02*
X9119238Y-15998524D01*
X9119238Y-15998524D02*
X9100191Y-15998524D01*
X9100191Y-15998524D02*
X9081143Y-15989000D01*
X9081143Y-15989000D02*
X9071619Y-15979476D01*
X9071619Y-15979476D02*
X9062095Y-15960428D01*
X9062095Y-15960428D02*
X9052572Y-15922333D01*
X9052572Y-15922333D02*
X9052572Y-15874714D01*
X9052572Y-15874714D02*
X9062095Y-15836619D01*
X9062095Y-15836619D02*
X9071619Y-15817571D01*
X9071619Y-15817571D02*
X9081143Y-15808048D01*
X9081143Y-15808048D02*
X9100191Y-15798524D01*
X9243048Y-15817571D02*
X9252572Y-15808048D01*
X9252572Y-15808048D02*
X9271619Y-15798524D01*
X9271619Y-15798524D02*
X9319238Y-15798524D01*
X9319238Y-15798524D02*
X9338286Y-15808048D01*
X9338286Y-15808048D02*
X9347810Y-15817571D01*
X9347810Y-15817571D02*
X9357334Y-15836619D01*
X9357334Y-15836619D02*
X9357334Y-15855667D01*
X9357334Y-15855667D02*
X9347810Y-15884238D01*
X9347810Y-15884238D02*
X9233524Y-15998524D01*
X9233524Y-15998524D02*
X9357334Y-15998524D01*
X9424000Y-15798524D02*
X9557334Y-15798524D01*
X9557334Y-15798524D02*
X9471619Y-15998524D01*
X9719238Y-15798524D02*
X9681143Y-15798524D01*
X9681143Y-15798524D02*
X9662095Y-15808048D01*
X9662095Y-15808048D02*
X9652572Y-15817571D01*
X9652572Y-15817571D02*
X9633524Y-15846143D01*
X9633524Y-15846143D02*
X9624000Y-15884238D01*
X9624000Y-15884238D02*
X9624000Y-15960428D01*
X9624000Y-15960428D02*
X9633524Y-15979476D01*
X9633524Y-15979476D02*
X9643048Y-15989000D01*
X9643048Y-15989000D02*
X9662095Y-15998524D01*
X9662095Y-15998524D02*
X9700191Y-15998524D01*
X9700191Y-15998524D02*
X9719238Y-15989000D01*
X9719238Y-15989000D02*
X9728762Y-15979476D01*
X9728762Y-15979476D02*
X9738286Y-15960428D01*
X9738286Y-15960428D02*
X9738286Y-15912809D01*
X9738286Y-15912809D02*
X9728762Y-15893762D01*
X9728762Y-15893762D02*
X9719238Y-15884238D01*
X9719238Y-15884238D02*
X9700191Y-15874714D01*
X9700191Y-15874714D02*
X9662095Y-15874714D01*
X9662095Y-15874714D02*
X9643048Y-15884238D01*
X9643048Y-15884238D02*
X9633524Y-15893762D01*
X9633524Y-15893762D02*
X9624000Y-15912809D01*
X9814476Y-15798524D02*
X9814476Y-15836619D01*
X9890667Y-15798524D02*
X9890667Y-15836619D01*
X10185905Y-16074714D02*
X10176381Y-16065190D01*
X10176381Y-16065190D02*
X10157334Y-16036619D01*
X10157334Y-16036619D02*
X10147810Y-16017571D01*
X10147810Y-16017571D02*
X10138286Y-15989000D01*
X10138286Y-15989000D02*
X10128762Y-15941381D01*
X10128762Y-15941381D02*
X10128762Y-15903286D01*
X10128762Y-15903286D02*
X10138286Y-15855667D01*
X10138286Y-15855667D02*
X10147810Y-15827095D01*
X10147810Y-15827095D02*
X10157334Y-15808048D01*
X10157334Y-15808048D02*
X10176381Y-15779476D01*
X10176381Y-15779476D02*
X10185905Y-15769952D01*
X10357334Y-15798524D02*
X10262096Y-15798524D01*
X10262096Y-15798524D02*
X10252572Y-15893762D01*
X10252572Y-15893762D02*
X10262096Y-15884238D01*
X10262096Y-15884238D02*
X10281143Y-15874714D01*
X10281143Y-15874714D02*
X10328762Y-15874714D01*
X10328762Y-15874714D02*
X10347810Y-15884238D01*
X10347810Y-15884238D02*
X10357334Y-15893762D01*
X10357334Y-15893762D02*
X10366857Y-15912809D01*
X10366857Y-15912809D02*
X10366857Y-15960428D01*
X10366857Y-15960428D02*
X10357334Y-15979476D01*
X10357334Y-15979476D02*
X10347810Y-15989000D01*
X10347810Y-15989000D02*
X10328762Y-15998524D01*
X10328762Y-15998524D02*
X10281143Y-15998524D01*
X10281143Y-15998524D02*
X10262096Y-15989000D01*
X10262096Y-15989000D02*
X10252572Y-15979476D01*
X10604953Y-15998524D02*
X10604953Y-15798524D01*
X10690667Y-15998524D02*
X10690667Y-15893762D01*
X10690667Y-15893762D02*
X10681143Y-15874714D01*
X10681143Y-15874714D02*
X10662096Y-15865190D01*
X10662096Y-15865190D02*
X10633524Y-15865190D01*
X10633524Y-15865190D02*
X10614477Y-15874714D01*
X10614477Y-15874714D02*
X10604953Y-15884238D01*
X10814477Y-15998524D02*
X10795429Y-15989000D01*
X10795429Y-15989000D02*
X10785905Y-15979476D01*
X10785905Y-15979476D02*
X10776381Y-15960428D01*
X10776381Y-15960428D02*
X10776381Y-15903286D01*
X10776381Y-15903286D02*
X10785905Y-15884238D01*
X10785905Y-15884238D02*
X10795429Y-15874714D01*
X10795429Y-15874714D02*
X10814477Y-15865190D01*
X10814477Y-15865190D02*
X10843048Y-15865190D01*
X10843048Y-15865190D02*
X10862096Y-15874714D01*
X10862096Y-15874714D02*
X10871619Y-15884238D01*
X10871619Y-15884238D02*
X10881143Y-15903286D01*
X10881143Y-15903286D02*
X10881143Y-15960428D01*
X10881143Y-15960428D02*
X10871619Y-15979476D01*
X10871619Y-15979476D02*
X10862096Y-15989000D01*
X10862096Y-15989000D02*
X10843048Y-15998524D01*
X10843048Y-15998524D02*
X10814477Y-15998524D01*
X10995429Y-15998524D02*
X10976381Y-15989000D01*
X10976381Y-15989000D02*
X10966858Y-15969952D01*
X10966858Y-15969952D02*
X10966858Y-15798524D01*
X11147810Y-15989000D02*
X11128762Y-15998524D01*
X11128762Y-15998524D02*
X11090667Y-15998524D01*
X11090667Y-15998524D02*
X11071619Y-15989000D01*
X11071619Y-15989000D02*
X11062096Y-15969952D01*
X11062096Y-15969952D02*
X11062096Y-15893762D01*
X11062096Y-15893762D02*
X11071619Y-15874714D01*
X11071619Y-15874714D02*
X11090667Y-15865190D01*
X11090667Y-15865190D02*
X11128762Y-15865190D01*
X11128762Y-15865190D02*
X11147810Y-15874714D01*
X11147810Y-15874714D02*
X11157334Y-15893762D01*
X11157334Y-15893762D02*
X11157334Y-15912809D01*
X11157334Y-15912809D02*
X11062096Y-15931857D01*
X11233524Y-15989000D02*
X11252572Y-15998524D01*
X11252572Y-15998524D02*
X11290667Y-15998524D01*
X11290667Y-15998524D02*
X11309715Y-15989000D01*
X11309715Y-15989000D02*
X11319238Y-15969952D01*
X11319238Y-15969952D02*
X11319238Y-15960428D01*
X11319238Y-15960428D02*
X11309715Y-15941381D01*
X11309715Y-15941381D02*
X11290667Y-15931857D01*
X11290667Y-15931857D02*
X11262096Y-15931857D01*
X11262096Y-15931857D02*
X11243048Y-15922333D01*
X11243048Y-15922333D02*
X11233524Y-15903286D01*
X11233524Y-15903286D02*
X11233524Y-15893762D01*
X11233524Y-15893762D02*
X11243048Y-15874714D01*
X11243048Y-15874714D02*
X11262096Y-15865190D01*
X11262096Y-15865190D02*
X11290667Y-15865190D01*
X11290667Y-15865190D02*
X11309715Y-15874714D01*
X11385905Y-16074714D02*
X11395429Y-16065190D01*
X11395429Y-16065190D02*
X11414477Y-16036619D01*
X11414477Y-16036619D02*
X11424000Y-16017571D01*
X11424000Y-16017571D02*
X11433524Y-15989000D01*
X11433524Y-15989000D02*
X11443048Y-15941381D01*
X11443048Y-15941381D02*
X11443048Y-15903286D01*
X11443048Y-15903286D02*
X11433524Y-15855667D01*
X11433524Y-15855667D02*
X11424000Y-15827095D01*
X11424000Y-15827095D02*
X11414477Y-15808048D01*
X11414477Y-15808048D02*
X11395429Y-15779476D01*
X11395429Y-15779476D02*
X11385905Y-15769952D01*
X11747810Y-16074714D02*
X11738286Y-16065190D01*
X11738286Y-16065190D02*
X11719238Y-16036619D01*
X11719238Y-16036619D02*
X11709715Y-16017571D01*
X11709715Y-16017571D02*
X11700191Y-15989000D01*
X11700191Y-15989000D02*
X11690667Y-15941381D01*
X11690667Y-15941381D02*
X11690667Y-15903286D01*
X11690667Y-15903286D02*
X11700191Y-15855667D01*
X11700191Y-15855667D02*
X11709715Y-15827095D01*
X11709715Y-15827095D02*
X11719238Y-15808048D01*
X11719238Y-15808048D02*
X11738286Y-15779476D01*
X11738286Y-15779476D02*
X11747810Y-15769952D01*
X11824000Y-15865190D02*
X11824000Y-15998524D01*
X11824000Y-15884238D02*
X11833524Y-15874714D01*
X11833524Y-15874714D02*
X11852572Y-15865190D01*
X11852572Y-15865190D02*
X11881143Y-15865190D01*
X11881143Y-15865190D02*
X11900191Y-15874714D01*
X11900191Y-15874714D02*
X11909715Y-15893762D01*
X11909715Y-15893762D02*
X11909715Y-15998524D01*
X12033524Y-15998524D02*
X12014477Y-15989000D01*
X12014477Y-15989000D02*
X12004953Y-15979476D01*
X12004953Y-15979476D02*
X11995429Y-15960428D01*
X11995429Y-15960428D02*
X11995429Y-15903286D01*
X11995429Y-15903286D02*
X12004953Y-15884238D01*
X12004953Y-15884238D02*
X12014477Y-15874714D01*
X12014477Y-15874714D02*
X12033524Y-15865190D01*
X12033524Y-15865190D02*
X12062096Y-15865190D01*
X12062096Y-15865190D02*
X12081143Y-15874714D01*
X12081143Y-15874714D02*
X12090667Y-15884238D01*
X12090667Y-15884238D02*
X12100191Y-15903286D01*
X12100191Y-15903286D02*
X12100191Y-15960428D01*
X12100191Y-15960428D02*
X12090667Y-15979476D01*
X12090667Y-15979476D02*
X12081143Y-15989000D01*
X12081143Y-15989000D02*
X12062096Y-15998524D01*
X12062096Y-15998524D02*
X12033524Y-15998524D01*
X12157334Y-15865190D02*
X12233524Y-15865190D01*
X12185905Y-15798524D02*
X12185905Y-15969952D01*
X12185905Y-15969952D02*
X12195429Y-15989000D01*
X12195429Y-15989000D02*
X12214477Y-15998524D01*
X12214477Y-15998524D02*
X12233524Y-15998524D01*
X12452572Y-15865190D02*
X12452572Y-16065190D01*
X12452572Y-15874714D02*
X12471619Y-15865190D01*
X12471619Y-15865190D02*
X12509715Y-15865190D01*
X12509715Y-15865190D02*
X12528762Y-15874714D01*
X12528762Y-15874714D02*
X12538286Y-15884238D01*
X12538286Y-15884238D02*
X12547810Y-15903286D01*
X12547810Y-15903286D02*
X12547810Y-15960428D01*
X12547810Y-15960428D02*
X12538286Y-15979476D01*
X12538286Y-15979476D02*
X12528762Y-15989000D01*
X12528762Y-15989000D02*
X12509715Y-15998524D01*
X12509715Y-15998524D02*
X12471619Y-15998524D01*
X12471619Y-15998524D02*
X12452572Y-15989000D01*
X12662096Y-15998524D02*
X12643048Y-15989000D01*
X12643048Y-15989000D02*
X12633524Y-15969952D01*
X12633524Y-15969952D02*
X12633524Y-15798524D01*
X12824000Y-15998524D02*
X12824000Y-15893762D01*
X12824000Y-15893762D02*
X12814477Y-15874714D01*
X12814477Y-15874714D02*
X12795429Y-15865190D01*
X12795429Y-15865190D02*
X12757334Y-15865190D01*
X12757334Y-15865190D02*
X12738286Y-15874714D01*
X12824000Y-15989000D02*
X12804953Y-15998524D01*
X12804953Y-15998524D02*
X12757334Y-15998524D01*
X12757334Y-15998524D02*
X12738286Y-15989000D01*
X12738286Y-15989000D02*
X12728762Y-15969952D01*
X12728762Y-15969952D02*
X12728762Y-15950905D01*
X12728762Y-15950905D02*
X12738286Y-15931857D01*
X12738286Y-15931857D02*
X12757334Y-15922333D01*
X12757334Y-15922333D02*
X12804953Y-15922333D01*
X12804953Y-15922333D02*
X12824000Y-15912809D01*
X12890667Y-15865190D02*
X12966858Y-15865190D01*
X12919239Y-15798524D02*
X12919239Y-15969952D01*
X12919239Y-15969952D02*
X12928762Y-15989000D01*
X12928762Y-15989000D02*
X12947810Y-15998524D01*
X12947810Y-15998524D02*
X12966858Y-15998524D01*
X13109715Y-15989000D02*
X13090667Y-15998524D01*
X13090667Y-15998524D02*
X13052572Y-15998524D01*
X13052572Y-15998524D02*
X13033524Y-15989000D01*
X13033524Y-15989000D02*
X13024000Y-15969952D01*
X13024000Y-15969952D02*
X13024000Y-15893762D01*
X13024000Y-15893762D02*
X13033524Y-15874714D01*
X13033524Y-15874714D02*
X13052572Y-15865190D01*
X13052572Y-15865190D02*
X13090667Y-15865190D01*
X13090667Y-15865190D02*
X13109715Y-15874714D01*
X13109715Y-15874714D02*
X13119239Y-15893762D01*
X13119239Y-15893762D02*
X13119239Y-15912809D01*
X13119239Y-15912809D02*
X13024000Y-15931857D01*
X13290667Y-15998524D02*
X13290667Y-15798524D01*
X13290667Y-15989000D02*
X13271620Y-15998524D01*
X13271620Y-15998524D02*
X13233524Y-15998524D01*
X13233524Y-15998524D02*
X13214477Y-15989000D01*
X13214477Y-15989000D02*
X13204953Y-15979476D01*
X13204953Y-15979476D02*
X13195429Y-15960428D01*
X13195429Y-15960428D02*
X13195429Y-15903286D01*
X13195429Y-15903286D02*
X13204953Y-15884238D01*
X13204953Y-15884238D02*
X13214477Y-15874714D01*
X13214477Y-15874714D02*
X13233524Y-15865190D01*
X13233524Y-15865190D02*
X13271620Y-15865190D01*
X13271620Y-15865190D02*
X13290667Y-15874714D01*
X13366858Y-16074714D02*
X13376381Y-16065190D01*
X13376381Y-16065190D02*
X13395429Y-16036619D01*
X13395429Y-16036619D02*
X13404953Y-16017571D01*
X13404953Y-16017571D02*
X13414477Y-15989000D01*
X13414477Y-15989000D02*
X13424000Y-15941381D01*
X13424000Y-15941381D02*
X13424000Y-15903286D01*
X13424000Y-15903286D02*
X13414477Y-15855667D01*
X13414477Y-15855667D02*
X13404953Y-15827095D01*
X13404953Y-15827095D02*
X13395429Y-15808048D01*
X13395429Y-15808048D02*
X13376381Y-15779476D01*
X13376381Y-15779476D02*
X13366858Y-15769952D01*
M02*
