%TF.GenerationSoftware,KiCad,Pcbnew,7.0.2*%
%TF.CreationDate,2023-10-20T21:52:03-04:00*%
%TF.ProjectId,XBee_Joint,58426565-5f4a-46f6-996e-742e6b696361,rev?*%
%TF.SameCoordinates,Original*%
%TF.FileFunction,Copper,L3,Inr*%
%TF.FilePolarity,Positive*%
%FSLAX46Y46*%
G04 Gerber Fmt 4.6, Leading zero omitted, Abs format (unit mm)*
G04 Created by KiCad (PCBNEW 7.0.2) date 2023-10-20 21:52:03*
%MOMM*%
%LPD*%
G01*
G04 APERTURE LIST*
%TA.AperFunction,ComponentPad*%
%ADD10O,1.000000X2.100000*%
%TD*%
%TA.AperFunction,ComponentPad*%
%ADD11O,1.000000X1.800000*%
%TD*%
%TA.AperFunction,ComponentPad*%
%ADD12C,0.600000*%
%TD*%
%TA.AperFunction,ComponentPad*%
%ADD13C,4.400000*%
%TD*%
%TA.AperFunction,ComponentPad*%
%ADD14C,0.970000*%
%TD*%
%TA.AperFunction,ViaPad*%
%ADD15C,0.450000*%
%TD*%
%TA.AperFunction,ViaPad*%
%ADD16C,1.000000*%
%TD*%
%TA.AperFunction,ViaPad*%
%ADD17C,0.600000*%
%TD*%
%TA.AperFunction,Conductor*%
%ADD18C,0.200000*%
%TD*%
G04 APERTURE END LIST*
D10*
%TO.N,GND*%
%TO.C,J2*%
X73020000Y-143115000D03*
D11*
X73020000Y-147295000D03*
D10*
X81660000Y-143115000D03*
D11*
X81660000Y-147295000D03*
%TD*%
D12*
%TO.N,GND*%
%TO.C,U1*%
X80260000Y-126585000D03*
X80260000Y-125310000D03*
X80260000Y-124035000D03*
X78985000Y-126585000D03*
X78985000Y-125310000D03*
X78985000Y-124035000D03*
X77710000Y-126585000D03*
X77710000Y-125310000D03*
X77710000Y-124035000D03*
%TD*%
D13*
%TO.N,N/C*%
%TO.C,H1*%
X69290000Y-146970000D03*
%TD*%
%TO.N,N/C*%
%TO.C,H2*%
X88290000Y-104970000D03*
%TD*%
D14*
%TO.N,N/C*%
%TO.C,AE1*%
X77730000Y-108800000D03*
X68970000Y-108800000D03*
%TD*%
D15*
%TO.N,GND*%
X84400000Y-126030000D03*
X72340000Y-108480000D03*
D16*
X68500000Y-141980000D03*
D15*
X71530000Y-105290000D03*
X79430000Y-138370000D03*
X81210000Y-103870000D03*
X75110000Y-103560000D03*
X80930000Y-136440000D03*
X71940000Y-114120000D03*
X72850000Y-115650000D03*
X80110000Y-115630000D03*
X80330000Y-120770000D03*
X71180000Y-115650000D03*
X79030000Y-119820000D03*
X81540000Y-117420000D03*
X81300000Y-115580000D03*
X77410000Y-115480000D03*
X73550000Y-114550000D03*
X72560000Y-114590000D03*
X74470000Y-115690000D03*
X71580000Y-107930000D03*
X84140000Y-141210000D03*
X74720000Y-119280000D03*
X81160000Y-102840000D03*
X74960000Y-132520000D03*
X75130000Y-107790000D03*
X71830000Y-113110000D03*
X81270000Y-114310000D03*
X73980000Y-132440000D03*
X75120000Y-106080000D03*
D17*
X83890000Y-136150000D03*
D15*
X74330000Y-111070000D03*
X71830000Y-112070000D03*
X81760000Y-135320000D03*
X72350000Y-129930000D03*
X71550000Y-106160000D03*
X71520000Y-104450000D03*
X85990000Y-142500000D03*
X81240000Y-112880000D03*
X71610000Y-102570000D03*
X81260000Y-104990000D03*
X72520000Y-128430000D03*
X79190000Y-133470000D03*
X90487200Y-116202800D03*
X81290000Y-106130000D03*
X80160000Y-133960000D03*
D17*
X86420000Y-124880000D03*
D15*
X71570000Y-107020000D03*
X82580000Y-140930000D03*
X74300000Y-127150000D03*
X85680000Y-141160000D03*
X85990000Y-146330000D03*
X76570000Y-118760000D03*
X71830000Y-111080000D03*
X74220000Y-109260000D03*
X74230000Y-108460000D03*
X75230000Y-138390000D03*
X75970000Y-115670000D03*
X75120000Y-106930000D03*
X74290000Y-114040000D03*
X69410000Y-115670000D03*
X75120000Y-104400000D03*
X81270000Y-108640000D03*
X74490000Y-120220000D03*
X69880000Y-131790000D03*
X75110000Y-105230000D03*
X85580000Y-124480000D03*
X78780000Y-115630000D03*
X71520000Y-103550000D03*
X89358500Y-131270000D03*
X81320000Y-110060000D03*
X81270000Y-107270000D03*
X71990000Y-110120000D03*
X72410000Y-109370000D03*
X74360000Y-112020000D03*
X75030000Y-102610000D03*
X66930000Y-115630000D03*
X81500000Y-116470000D03*
X81260000Y-111500000D03*
X74360000Y-113000000D03*
X74330000Y-110080000D03*
X68160000Y-115650000D03*
%TO.N,+1V1*%
X77180000Y-127700000D03*
X77380000Y-120630000D03*
X79180000Y-127730000D03*
%TO.N,+3V3*%
X83760000Y-125300000D03*
X73400000Y-130550000D03*
X83780000Y-128570000D03*
X81300000Y-137350000D03*
X73290000Y-126180000D03*
X68270000Y-131660000D03*
X75450000Y-118690000D03*
X80950000Y-132765000D03*
X85890000Y-125580000D03*
X73860000Y-131490000D03*
D16*
X72080000Y-131400000D03*
D15*
X72390000Y-120330000D03*
X73340000Y-127500000D03*
D17*
%TO.N,VBUS*%
X86300000Y-136250000D03*
X86720000Y-138040000D03*
D15*
%TO.N,/RP_SWD*%
X77570000Y-123090000D03*
X90600000Y-141260000D03*
%TO.N,/RP_SWCLK*%
X78280000Y-122740000D03*
X89810000Y-141300000D03*
%TO.N,/DRF_SW*%
X83780000Y-123520000D03*
%TO.N,/DRF_TXEN*%
X81565483Y-127915483D03*
%TO.N,/DRF_DIO1*%
X81421500Y-125990000D03*
%TO.N,/DRF_BUSY*%
X81250000Y-125280000D03*
%TO.N,/DRF_MISO*%
X71900000Y-129220000D03*
%TO.N,/DRF_MOSI*%
X72115000Y-125395000D03*
%TO.N,/DRF_CLK*%
X72140000Y-123770000D03*
%TO.N,/DRF_CS*%
X76690000Y-123740000D03*
%TO.N,Net-(U1-RUN)*%
X76790000Y-122830000D03*
X75590000Y-121880000D03*
%TD*%
D18*
%TO.N,/RP_SWD*%
X88380000Y-122270000D02*
X78110775Y-122270000D01*
X77570000Y-122810775D02*
X77570000Y-123090000D01*
X90600000Y-124490000D02*
X88380000Y-122270000D01*
X78110775Y-122270000D02*
X77570000Y-122810775D01*
X90600000Y-141260000D02*
X90600000Y-124490000D01*
%TO.N,/RP_SWCLK*%
X89810000Y-141300000D02*
X89810000Y-124290000D01*
X88260000Y-122740000D02*
X78280000Y-122740000D01*
X89810000Y-124290000D02*
X88260000Y-122740000D01*
%TD*%
%TA.AperFunction,Conductor*%
%TO.N,GND*%
G36*
X81780000Y-115990000D02*
G01*
X66590499Y-115990000D01*
X66590499Y-108800000D01*
X68309685Y-108800000D01*
X68328874Y-108958023D01*
X68385321Y-109106863D01*
X68475748Y-109237870D01*
X68594897Y-109343427D01*
X68594899Y-109343428D01*
X68735849Y-109417404D01*
X68890408Y-109455500D01*
X68890409Y-109455500D01*
X69049591Y-109455500D01*
X69049592Y-109455500D01*
X69204151Y-109417404D01*
X69345101Y-109343428D01*
X69464252Y-109237869D01*
X69554679Y-109106863D01*
X69611126Y-108958023D01*
X69630314Y-108800000D01*
X77069685Y-108800000D01*
X77088874Y-108958023D01*
X77145321Y-109106863D01*
X77235748Y-109237870D01*
X77354897Y-109343427D01*
X77354899Y-109343428D01*
X77495849Y-109417404D01*
X77650408Y-109455500D01*
X77650409Y-109455500D01*
X77809591Y-109455500D01*
X77809592Y-109455500D01*
X77964151Y-109417404D01*
X78105101Y-109343428D01*
X78224252Y-109237869D01*
X78314679Y-109106863D01*
X78371126Y-108958023D01*
X78390314Y-108800000D01*
X78371126Y-108641977D01*
X78314679Y-108493137D01*
X78224252Y-108362131D01*
X78224251Y-108362129D01*
X78105102Y-108256572D01*
X78031126Y-108217747D01*
X77964151Y-108182596D01*
X77809592Y-108144500D01*
X77650408Y-108144500D01*
X77495849Y-108182596D01*
X77495847Y-108182596D01*
X77495847Y-108182597D01*
X77354897Y-108256572D01*
X77235748Y-108362129D01*
X77145321Y-108493136D01*
X77088874Y-108641976D01*
X77069685Y-108800000D01*
X69630314Y-108800000D01*
X69611126Y-108641977D01*
X69554679Y-108493137D01*
X69464252Y-108362131D01*
X69464251Y-108362129D01*
X69345102Y-108256572D01*
X69271126Y-108217747D01*
X69204151Y-108182596D01*
X69049592Y-108144500D01*
X68890408Y-108144500D01*
X68735849Y-108182596D01*
X68735847Y-108182596D01*
X68735847Y-108182597D01*
X68594897Y-108256572D01*
X68475748Y-108362129D01*
X68385321Y-108493136D01*
X68328874Y-108641976D01*
X68309685Y-108800000D01*
X66590499Y-108800000D01*
X66590499Y-104973480D01*
X66590694Y-104966527D01*
X66593654Y-104913827D01*
X66607084Y-104674694D01*
X66608638Y-104660896D01*
X66657015Y-104376167D01*
X66660109Y-104362615D01*
X66731563Y-104114596D01*
X66740061Y-104085096D01*
X66744653Y-104071975D01*
X66855175Y-103805151D01*
X66861195Y-103792651D01*
X67000902Y-103539868D01*
X67008297Y-103528100D01*
X67049842Y-103469548D01*
X67175422Y-103292559D01*
X67184077Y-103281705D01*
X67376534Y-103066346D01*
X67386346Y-103056534D01*
X67601705Y-102864077D01*
X67612559Y-102855422D01*
X67848105Y-102688293D01*
X67859868Y-102680902D01*
X68112651Y-102541195D01*
X68125151Y-102535175D01*
X68391979Y-102424651D01*
X68405096Y-102420061D01*
X68682621Y-102340107D01*
X68696167Y-102337015D01*
X68980898Y-102288638D01*
X68994691Y-102287084D01*
X69286527Y-102270695D01*
X69293481Y-102270500D01*
X81780000Y-102270500D01*
X81780000Y-115990000D01*
G37*
%TD.AperFunction*%
%TD*%
%TA.AperFunction,Conductor*%
%TO.N,GND*%
G36*
X88293472Y-102270695D02*
G01*
X88585306Y-102287084D01*
X88599103Y-102288638D01*
X88883827Y-102337015D01*
X88897384Y-102340109D01*
X89174899Y-102420060D01*
X89188025Y-102424653D01*
X89454841Y-102535172D01*
X89467355Y-102541198D01*
X89601845Y-102615528D01*
X89720125Y-102680899D01*
X89731899Y-102688297D01*
X89967430Y-102855415D01*
X89978302Y-102864085D01*
X90030672Y-102910886D01*
X90193642Y-103056524D01*
X90203473Y-103066355D01*
X90220422Y-103085321D01*
X90395914Y-103281697D01*
X90404584Y-103292569D01*
X90571702Y-103528100D01*
X90579100Y-103539874D01*
X90718797Y-103792637D01*
X90724830Y-103805165D01*
X90835346Y-104071975D01*
X90839939Y-104085100D01*
X90919890Y-104362615D01*
X90922984Y-104376172D01*
X90971359Y-104660885D01*
X90972916Y-104674703D01*
X90989305Y-104966527D01*
X90989500Y-104973480D01*
X90989500Y-124192941D01*
X90969815Y-124259980D01*
X90917011Y-124305735D01*
X90847853Y-124315679D01*
X90796610Y-124296044D01*
X90782591Y-124286677D01*
X90763800Y-124271255D01*
X88598744Y-122106199D01*
X88583323Y-122087408D01*
X88575019Y-122074981D01*
X88562590Y-122066676D01*
X88562589Y-122066675D01*
X88518872Y-122037464D01*
X88485543Y-122015194D01*
X88406640Y-121999500D01*
X88379999Y-121994200D01*
X88365340Y-121997117D01*
X88341149Y-121999500D01*
X78149625Y-121999500D01*
X78125436Y-121997118D01*
X78110775Y-121994202D01*
X78096114Y-121997118D01*
X78096104Y-121997118D01*
X78005231Y-122015195D01*
X77915754Y-122074981D01*
X77907449Y-122087411D01*
X77892030Y-122106199D01*
X77406198Y-122592030D01*
X77387413Y-122607448D01*
X77374981Y-122615755D01*
X77359893Y-122638336D01*
X77359609Y-122638760D01*
X77350525Y-122652354D01*
X77296909Y-122697155D01*
X77227583Y-122705857D01*
X77164558Y-122675697D01*
X77136943Y-122639749D01*
X77113955Y-122594632D01*
X77025368Y-122506045D01*
X76913738Y-122449167D01*
X76789999Y-122429569D01*
X76666261Y-122449167D01*
X76554631Y-122506045D01*
X76466045Y-122594631D01*
X76409167Y-122706261D01*
X76389569Y-122830000D01*
X76409167Y-122953738D01*
X76466045Y-123065368D01*
X76568520Y-123167843D01*
X76566758Y-123169604D01*
X76595775Y-123197004D01*
X76612576Y-123264824D01*
X76590043Y-123330961D01*
X76544984Y-123370008D01*
X76454631Y-123416045D01*
X76366045Y-123504631D01*
X76309167Y-123616261D01*
X76289569Y-123739999D01*
X76309167Y-123863738D01*
X76366045Y-123975368D01*
X76454631Y-124063954D01*
X76454633Y-124063955D01*
X76566260Y-124120832D01*
X76690000Y-124140430D01*
X76813740Y-124120832D01*
X76925367Y-124063955D01*
X77013955Y-123975367D01*
X77070832Y-123863740D01*
X77090430Y-123740000D01*
X77070832Y-123616260D01*
X77013955Y-123504633D01*
X77013954Y-123504631D01*
X76911480Y-123402157D01*
X76913240Y-123400396D01*
X76884221Y-123372990D01*
X76867424Y-123305169D01*
X76889959Y-123239033D01*
X76935012Y-123199992D01*
X77020739Y-123156312D01*
X77089407Y-123143417D01*
X77154148Y-123169693D01*
X77187518Y-123210503D01*
X77246045Y-123325368D01*
X77334631Y-123413954D01*
X77334633Y-123413955D01*
X77446260Y-123470832D01*
X77570000Y-123490430D01*
X77693740Y-123470832D01*
X77805367Y-123413955D01*
X77893955Y-123325367D01*
X77950832Y-123213740D01*
X77953090Y-123199486D01*
X77983019Y-123136351D01*
X78042330Y-123099419D01*
X78112193Y-123100417D01*
X78131858Y-123108398D01*
X78156260Y-123120832D01*
X78280000Y-123140430D01*
X78403740Y-123120832D01*
X78515367Y-123063955D01*
X78515368Y-123063953D01*
X78532504Y-123046819D01*
X78593827Y-123013334D01*
X78620185Y-123010500D01*
X83430815Y-123010500D01*
X83497854Y-123030185D01*
X83543609Y-123082989D01*
X83553553Y-123152147D01*
X83524528Y-123215703D01*
X83518496Y-123222181D01*
X83456045Y-123284631D01*
X83399167Y-123396261D01*
X83379569Y-123520000D01*
X83399167Y-123643738D01*
X83456045Y-123755368D01*
X83544631Y-123843954D01*
X83544633Y-123843955D01*
X83656260Y-123900832D01*
X83780000Y-123920430D01*
X83903740Y-123900832D01*
X84015367Y-123843955D01*
X84103955Y-123755367D01*
X84160832Y-123643740D01*
X84180430Y-123520000D01*
X84160832Y-123396260D01*
X84103955Y-123284633D01*
X84103954Y-123284631D01*
X84041504Y-123222181D01*
X84008019Y-123160858D01*
X84013003Y-123091166D01*
X84054875Y-123035233D01*
X84120339Y-123010816D01*
X84129185Y-123010500D01*
X88096593Y-123010500D01*
X88163632Y-123030185D01*
X88184274Y-123046819D01*
X89503181Y-124365726D01*
X89536666Y-124427049D01*
X89539500Y-124453407D01*
X89539500Y-140959815D01*
X89519815Y-141026854D01*
X89503181Y-141047496D01*
X89486045Y-141064631D01*
X89429167Y-141176261D01*
X89409569Y-141299999D01*
X89429167Y-141423738D01*
X89486045Y-141535368D01*
X89574631Y-141623954D01*
X89574633Y-141623955D01*
X89686260Y-141680832D01*
X89810000Y-141700430D01*
X89933740Y-141680832D01*
X90045367Y-141623955D01*
X90085368Y-141583954D01*
X90137319Y-141532004D01*
X90198642Y-141498519D01*
X90268334Y-141503503D01*
X90312681Y-141532004D01*
X90364631Y-141583954D01*
X90364633Y-141583955D01*
X90476260Y-141640832D01*
X90600000Y-141660430D01*
X90723740Y-141640832D01*
X90809205Y-141597284D01*
X90877874Y-141584389D01*
X90942615Y-141610665D01*
X90982872Y-141667772D01*
X90989500Y-141707770D01*
X90989500Y-146966519D01*
X90989305Y-146973472D01*
X90972916Y-147265296D01*
X90971359Y-147279114D01*
X90922984Y-147563827D01*
X90919890Y-147577384D01*
X90839939Y-147854899D01*
X90835346Y-147868024D01*
X90724830Y-148134834D01*
X90718797Y-148147362D01*
X90579100Y-148400125D01*
X90571702Y-148411899D01*
X90404584Y-148647430D01*
X90395914Y-148658302D01*
X90203475Y-148873642D01*
X90193642Y-148883475D01*
X89978302Y-149075914D01*
X89967430Y-149084584D01*
X89731899Y-149251702D01*
X89720125Y-149259100D01*
X89467362Y-149398797D01*
X89454834Y-149404830D01*
X89188024Y-149515346D01*
X89174899Y-149519939D01*
X88897384Y-149599890D01*
X88883827Y-149602984D01*
X88599114Y-149651359D01*
X88585296Y-149652916D01*
X88293472Y-149669305D01*
X88286519Y-149669500D01*
X69293481Y-149669500D01*
X69286528Y-149669305D01*
X68994703Y-149652916D01*
X68980885Y-149651359D01*
X68696172Y-149602984D01*
X68682615Y-149599890D01*
X68405100Y-149519939D01*
X68391975Y-149515346D01*
X68125165Y-149404830D01*
X68112637Y-149398797D01*
X67859874Y-149259100D01*
X67848100Y-149251702D01*
X67612569Y-149084584D01*
X67601697Y-149075914D01*
X67386357Y-148883475D01*
X67376524Y-148873642D01*
X67361596Y-148856938D01*
X67184085Y-148658302D01*
X67175415Y-148647430D01*
X67008297Y-148411899D01*
X67000899Y-148400125D01*
X66865101Y-148154416D01*
X66861198Y-148147355D01*
X66855172Y-148134841D01*
X66753619Y-147889670D01*
X66744653Y-147868024D01*
X66740060Y-147854899D01*
X66660109Y-147577384D01*
X66657015Y-147563827D01*
X66644991Y-147493057D01*
X66608638Y-147279103D01*
X66607084Y-147265306D01*
X66590695Y-146973472D01*
X66590598Y-146970000D01*
X66914414Y-146970000D01*
X66934737Y-147280076D01*
X66935527Y-147284047D01*
X66935528Y-147284055D01*
X66994567Y-147580863D01*
X66994569Y-147580870D01*
X66995360Y-147584847D01*
X66996660Y-147588678D01*
X66996664Y-147588691D01*
X67086990Y-147854780D01*
X67095245Y-147879097D01*
X67097038Y-147882733D01*
X67097041Y-147882740D01*
X67230886Y-148154153D01*
X67230892Y-148154164D01*
X67232682Y-148157793D01*
X67234933Y-148161162D01*
X67234936Y-148161167D01*
X67403061Y-148412783D01*
X67405321Y-148416165D01*
X67407996Y-148419215D01*
X67408002Y-148419223D01*
X67452929Y-148470452D01*
X67610207Y-148649793D01*
X67613255Y-148652466D01*
X67840776Y-148851997D01*
X67840782Y-148852001D01*
X67843835Y-148854679D01*
X68102207Y-149027318D01*
X68105840Y-149029109D01*
X68105846Y-149029113D01*
X68377259Y-149162958D01*
X68380903Y-149164755D01*
X68592195Y-149236479D01*
X68671308Y-149263335D01*
X68671310Y-149263335D01*
X68675153Y-149264640D01*
X68979924Y-149325263D01*
X69290000Y-149345586D01*
X69600076Y-149325263D01*
X69904847Y-149264640D01*
X70199097Y-149164755D01*
X70477793Y-149027318D01*
X70736165Y-148854679D01*
X70969793Y-148649793D01*
X71174679Y-148416165D01*
X71347318Y-148157793D01*
X71484755Y-147879097D01*
X71584640Y-147584847D01*
X71617844Y-147417922D01*
X87900118Y-147417922D01*
X87930907Y-147566083D01*
X87930907Y-147566084D01*
X87930908Y-147566085D01*
X88000529Y-147700447D01*
X88055474Y-147759278D01*
X88103821Y-147811045D01*
X88127434Y-147825404D01*
X88233118Y-147889672D01*
X88378835Y-147930500D01*
X88378837Y-147930500D01*
X88487921Y-147930500D01*
X88492158Y-147930500D01*
X88604420Y-147915070D01*
X88743220Y-147854780D01*
X88860608Y-147759278D01*
X88947877Y-147635647D01*
X88998554Y-147493056D01*
X89008881Y-147342079D01*
X88996823Y-147284055D01*
X88978092Y-147193916D01*
X88978092Y-147193915D01*
X88908471Y-147059553D01*
X88805180Y-146948956D01*
X88805179Y-146948955D01*
X88805178Y-146948954D01*
X88718981Y-146896537D01*
X88675882Y-146870328D01*
X88653157Y-146863960D01*
X88593916Y-146826920D01*
X88564105Y-146763729D01*
X88573189Y-146694453D01*
X88618285Y-146641085D01*
X88637209Y-146630827D01*
X88743220Y-146584780D01*
X88860608Y-146489278D01*
X88947877Y-146365647D01*
X88998554Y-146223056D01*
X89008881Y-146072079D01*
X89005801Y-146057259D01*
X88978092Y-145923916D01*
X88978092Y-145923915D01*
X88908471Y-145789553D01*
X88805180Y-145678956D01*
X88805179Y-145678955D01*
X88805178Y-145678954D01*
X88718981Y-145626537D01*
X88675882Y-145600328D01*
X88653157Y-145593960D01*
X88593916Y-145556920D01*
X88564105Y-145493729D01*
X88573189Y-145424453D01*
X88618285Y-145371085D01*
X88637209Y-145360827D01*
X88743220Y-145314780D01*
X88860608Y-145219278D01*
X88947877Y-145095647D01*
X88998554Y-144953056D01*
X89008881Y-144802079D01*
X89003033Y-144773939D01*
X88982548Y-144675360D01*
X88978092Y-144653915D01*
X88908471Y-144519553D01*
X88805180Y-144408956D01*
X88805179Y-144408955D01*
X88805178Y-144408954D01*
X88718981Y-144356537D01*
X88675882Y-144330328D01*
X88653157Y-144323960D01*
X88593916Y-144286920D01*
X88564105Y-144223729D01*
X88573189Y-144154453D01*
X88618285Y-144101085D01*
X88637209Y-144090827D01*
X88743220Y-144044780D01*
X88860608Y-143949278D01*
X88947877Y-143825647D01*
X88998554Y-143683056D01*
X89008881Y-143532079D01*
X89003686Y-143507081D01*
X88978092Y-143383916D01*
X88978092Y-143383915D01*
X88908471Y-143249553D01*
X88805180Y-143138956D01*
X88805179Y-143138955D01*
X88805178Y-143138954D01*
X88718981Y-143086537D01*
X88675882Y-143060328D01*
X88653157Y-143053960D01*
X88593916Y-143016920D01*
X88564105Y-142953729D01*
X88573189Y-142884453D01*
X88618285Y-142831085D01*
X88637209Y-142820827D01*
X88743220Y-142774780D01*
X88860608Y-142679278D01*
X88947877Y-142555647D01*
X88998554Y-142413056D01*
X89008881Y-142262079D01*
X88978092Y-142113915D01*
X88908471Y-141979553D01*
X88805180Y-141868956D01*
X88805179Y-141868955D01*
X88805178Y-141868954D01*
X88718981Y-141816537D01*
X88675882Y-141790328D01*
X88530165Y-141749500D01*
X88416842Y-141749500D01*
X88412658Y-141750075D01*
X88412644Y-141750076D01*
X88304579Y-141764930D01*
X88165780Y-141825219D01*
X88048392Y-141920721D01*
X87961121Y-142044354D01*
X87910446Y-142186942D01*
X87900118Y-142337922D01*
X87930907Y-142486083D01*
X87930907Y-142486084D01*
X87930908Y-142486085D01*
X88000529Y-142620447D01*
X88055474Y-142679278D01*
X88103821Y-142731045D01*
X88168468Y-142770358D01*
X88233118Y-142809672D01*
X88255840Y-142816038D01*
X88315081Y-142853078D01*
X88344894Y-142916268D01*
X88335811Y-142985544D01*
X88290716Y-143038913D01*
X88271788Y-143049173D01*
X88165779Y-143095220D01*
X88048392Y-143190721D01*
X87961121Y-143314354D01*
X87910446Y-143456942D01*
X87900118Y-143607922D01*
X87930907Y-143756083D01*
X87930907Y-143756084D01*
X87930908Y-143756085D01*
X88000529Y-143890447D01*
X88028966Y-143920895D01*
X88103821Y-144001045D01*
X88168468Y-144040357D01*
X88233118Y-144079672D01*
X88255840Y-144086038D01*
X88315081Y-144123078D01*
X88344894Y-144186268D01*
X88335811Y-144255544D01*
X88290716Y-144308913D01*
X88271788Y-144319173D01*
X88165779Y-144365220D01*
X88048392Y-144460721D01*
X87961121Y-144584354D01*
X87910446Y-144726942D01*
X87900118Y-144877922D01*
X87930907Y-145026083D01*
X87930907Y-145026084D01*
X87930908Y-145026085D01*
X88000529Y-145160447D01*
X88055474Y-145219278D01*
X88103821Y-145271045D01*
X88130935Y-145287533D01*
X88233118Y-145349672D01*
X88255840Y-145356038D01*
X88315081Y-145393078D01*
X88344894Y-145456268D01*
X88335811Y-145525544D01*
X88290716Y-145578913D01*
X88271788Y-145589173D01*
X88165779Y-145635220D01*
X88048392Y-145730721D01*
X87961121Y-145854354D01*
X87910446Y-145996942D01*
X87900118Y-146147922D01*
X87930907Y-146296083D01*
X87930907Y-146296084D01*
X87930908Y-146296085D01*
X88000529Y-146430447D01*
X88055474Y-146489278D01*
X88103821Y-146541045D01*
X88168468Y-146580357D01*
X88233118Y-146619672D01*
X88255840Y-146626038D01*
X88315081Y-146663078D01*
X88344894Y-146726268D01*
X88335811Y-146795544D01*
X88290716Y-146848913D01*
X88271788Y-146859173D01*
X88165779Y-146905220D01*
X88048392Y-147000721D01*
X87961121Y-147124354D01*
X87910446Y-147266942D01*
X87900118Y-147417922D01*
X71617844Y-147417922D01*
X71645263Y-147280076D01*
X71665586Y-146970000D01*
X71645263Y-146659924D01*
X71584640Y-146355153D01*
X71484755Y-146060903D01*
X71417201Y-145923916D01*
X71349113Y-145785846D01*
X71349109Y-145785840D01*
X71347318Y-145782207D01*
X71174679Y-145523835D01*
X71172001Y-145520782D01*
X71171997Y-145520776D01*
X70972466Y-145293255D01*
X70969793Y-145290207D01*
X70888914Y-145219278D01*
X70739223Y-145088002D01*
X70739215Y-145087996D01*
X70736165Y-145085321D01*
X70732783Y-145083061D01*
X70481167Y-144914936D01*
X70481162Y-144914933D01*
X70477793Y-144912682D01*
X70474164Y-144910892D01*
X70474153Y-144910886D01*
X70202740Y-144777041D01*
X70202733Y-144777038D01*
X70199097Y-144775245D01*
X70195250Y-144773939D01*
X69908691Y-144676664D01*
X69908678Y-144676660D01*
X69904847Y-144675360D01*
X69900870Y-144674569D01*
X69900863Y-144674567D01*
X69604055Y-144615528D01*
X69604047Y-144615527D01*
X69600076Y-144614737D01*
X69290000Y-144594414D01*
X69285957Y-144594679D01*
X68983966Y-144614472D01*
X68983964Y-144614472D01*
X68979924Y-144614737D01*
X68975954Y-144615526D01*
X68975944Y-144615528D01*
X68679136Y-144674567D01*
X68679125Y-144674569D01*
X68675153Y-144675360D01*
X68671324Y-144676659D01*
X68671308Y-144676664D01*
X68384749Y-144773939D01*
X68384742Y-144773941D01*
X68380903Y-144775245D01*
X68377271Y-144777035D01*
X68377259Y-144777041D01*
X68105846Y-144910886D01*
X68105828Y-144910895D01*
X68102207Y-144912682D01*
X68098844Y-144914928D01*
X68098832Y-144914936D01*
X67847216Y-145083061D01*
X67847207Y-145083067D01*
X67843835Y-145085321D01*
X67840791Y-145087990D01*
X67840776Y-145088002D01*
X67613255Y-145287533D01*
X67613247Y-145287540D01*
X67610207Y-145290207D01*
X67607540Y-145293247D01*
X67607533Y-145293255D01*
X67408002Y-145520776D01*
X67407990Y-145520791D01*
X67405321Y-145523835D01*
X67403067Y-145527207D01*
X67403061Y-145527216D01*
X67234936Y-145778832D01*
X67234928Y-145778844D01*
X67232682Y-145782207D01*
X67230895Y-145785828D01*
X67230886Y-145785846D01*
X67097041Y-146057259D01*
X67097035Y-146057271D01*
X67095245Y-146060903D01*
X67093941Y-146064742D01*
X67093939Y-146064749D01*
X66996664Y-146351308D01*
X66996659Y-146351324D01*
X66995360Y-146355153D01*
X66994569Y-146359125D01*
X66994567Y-146359136D01*
X66935528Y-146655944D01*
X66935526Y-146655954D01*
X66934737Y-146659924D01*
X66914414Y-146970000D01*
X66590598Y-146970000D01*
X66590500Y-146966519D01*
X66590500Y-146871051D01*
X66590499Y-146871042D01*
X66590499Y-143651197D01*
X73920796Y-143651197D01*
X73950186Y-143792634D01*
X74016646Y-143920896D01*
X74115244Y-144026469D01*
X74238670Y-144101526D01*
X74377772Y-144140500D01*
X74481712Y-144140500D01*
X74485949Y-144140500D01*
X74593111Y-144125771D01*
X74725609Y-144068219D01*
X74837665Y-143977054D01*
X74920971Y-143859037D01*
X74969346Y-143722921D01*
X74974252Y-143651197D01*
X79700796Y-143651197D01*
X79730186Y-143792634D01*
X79796646Y-143920896D01*
X79895244Y-144026469D01*
X80018670Y-144101526D01*
X80157772Y-144140500D01*
X80261712Y-144140500D01*
X80265949Y-144140500D01*
X80373111Y-144125771D01*
X80505609Y-144068219D01*
X80617665Y-143977054D01*
X80700971Y-143859037D01*
X80749346Y-143722921D01*
X80759204Y-143578801D01*
X80729814Y-143437366D01*
X80663354Y-143309105D01*
X80663353Y-143309103D01*
X80564755Y-143203530D01*
X80441329Y-143128473D01*
X80302228Y-143089500D01*
X80194051Y-143089500D01*
X80189867Y-143090075D01*
X80189853Y-143090076D01*
X80086889Y-143104229D01*
X79954391Y-143161781D01*
X79842333Y-143252946D01*
X79759030Y-143370960D01*
X79710653Y-143507081D01*
X79700796Y-143651197D01*
X74974252Y-143651197D01*
X74979204Y-143578801D01*
X74949814Y-143437366D01*
X74883354Y-143309105D01*
X74883353Y-143309103D01*
X74784755Y-143203530D01*
X74661329Y-143128473D01*
X74522228Y-143089500D01*
X74414051Y-143089500D01*
X74409867Y-143090075D01*
X74409853Y-143090076D01*
X74306889Y-143104229D01*
X74174391Y-143161781D01*
X74062333Y-143252946D01*
X73979030Y-143370960D01*
X73930653Y-143507081D01*
X73920796Y-143651197D01*
X66590499Y-143651197D01*
X66590499Y-138040000D01*
X86244662Y-138040000D01*
X86263917Y-138173920D01*
X86320118Y-138296984D01*
X86320119Y-138296985D01*
X86320120Y-138296987D01*
X86408720Y-138399236D01*
X86522537Y-138472383D01*
X86652352Y-138510500D01*
X86787648Y-138510500D01*
X86917463Y-138472383D01*
X87031280Y-138399236D01*
X87119880Y-138296987D01*
X87176083Y-138173918D01*
X87195338Y-138040000D01*
X87176083Y-137906082D01*
X87119880Y-137783013D01*
X87031280Y-137680764D01*
X87031279Y-137680763D01*
X86917463Y-137607617D01*
X86787648Y-137569500D01*
X86652352Y-137569500D01*
X86522536Y-137607617D01*
X86408720Y-137680763D01*
X86320118Y-137783015D01*
X86263917Y-137906079D01*
X86244662Y-138040000D01*
X66590499Y-138040000D01*
X66590499Y-137350000D01*
X80899569Y-137350000D01*
X80919167Y-137473738D01*
X80976045Y-137585368D01*
X81064631Y-137673954D01*
X81064633Y-137673955D01*
X81176260Y-137730832D01*
X81300000Y-137750430D01*
X81423740Y-137730832D01*
X81535367Y-137673955D01*
X81623955Y-137585367D01*
X81680832Y-137473740D01*
X81700430Y-137350000D01*
X81680832Y-137226260D01*
X81623955Y-137114633D01*
X81623954Y-137114631D01*
X81535368Y-137026045D01*
X81423738Y-136969167D01*
X81300000Y-136949569D01*
X81176261Y-136969167D01*
X81064631Y-137026045D01*
X80976045Y-137114631D01*
X80919167Y-137226261D01*
X80899569Y-137350000D01*
X66590499Y-137350000D01*
X66590499Y-136250000D01*
X85824662Y-136250000D01*
X85843917Y-136383920D01*
X85900118Y-136506984D01*
X85900119Y-136506985D01*
X85900120Y-136506987D01*
X85988720Y-136609236D01*
X86102537Y-136682383D01*
X86232352Y-136720500D01*
X86367648Y-136720500D01*
X86497463Y-136682383D01*
X86611280Y-136609236D01*
X86699880Y-136506987D01*
X86756083Y-136383918D01*
X86775338Y-136250000D01*
X86756083Y-136116082D01*
X86699880Y-135993013D01*
X86611280Y-135890764D01*
X86611279Y-135890763D01*
X86497463Y-135817617D01*
X86367648Y-135779500D01*
X86232352Y-135779500D01*
X86102536Y-135817617D01*
X85988720Y-135890763D01*
X85900118Y-135993015D01*
X85843917Y-136116079D01*
X85824662Y-136250000D01*
X66590499Y-136250000D01*
X66590499Y-132764999D01*
X80549569Y-132764999D01*
X80569167Y-132888738D01*
X80626045Y-133000368D01*
X80714631Y-133088954D01*
X80714633Y-133088955D01*
X80826260Y-133145832D01*
X80888129Y-133155631D01*
X80949999Y-133165430D01*
X80949999Y-133165429D01*
X80950000Y-133165430D01*
X81073740Y-133145832D01*
X81185367Y-133088955D01*
X81273955Y-133000367D01*
X81330832Y-132888740D01*
X81350430Y-132765000D01*
X81330832Y-132641260D01*
X81273955Y-132529633D01*
X81273954Y-132529631D01*
X81185368Y-132441045D01*
X81073738Y-132384167D01*
X80949999Y-132364569D01*
X80826261Y-132384167D01*
X80714631Y-132441045D01*
X80626045Y-132529631D01*
X80569167Y-132641261D01*
X80549569Y-132764999D01*
X66590499Y-132764999D01*
X66590499Y-131659999D01*
X67869569Y-131659999D01*
X67889167Y-131783738D01*
X67946045Y-131895368D01*
X68034631Y-131983954D01*
X68034633Y-131983955D01*
X68146260Y-132040832D01*
X68208130Y-132050630D01*
X68269999Y-132060430D01*
X68269999Y-132060429D01*
X68270000Y-132060430D01*
X68393740Y-132040832D01*
X68505367Y-131983955D01*
X68593955Y-131895367D01*
X68650832Y-131783740D01*
X68670430Y-131660000D01*
X68650832Y-131536260D01*
X68593955Y-131424633D01*
X68593954Y-131424631D01*
X68569322Y-131399999D01*
X71404574Y-131399999D01*
X71424202Y-131561640D01*
X71481941Y-131713886D01*
X71574437Y-131847891D01*
X71696312Y-131955862D01*
X71696313Y-131955862D01*
X71696315Y-131955864D01*
X71840491Y-132031533D01*
X71998587Y-132070500D01*
X71998588Y-132070500D01*
X72161412Y-132070500D01*
X72161413Y-132070500D01*
X72319509Y-132031533D01*
X72463685Y-131955864D01*
X72585563Y-131847890D01*
X72678059Y-131713886D01*
X72735798Y-131561640D01*
X72744497Y-131490000D01*
X73459569Y-131490000D01*
X73479167Y-131613738D01*
X73536045Y-131725368D01*
X73624631Y-131813954D01*
X73624633Y-131813955D01*
X73736260Y-131870832D01*
X73860000Y-131890430D01*
X73983740Y-131870832D01*
X74095367Y-131813955D01*
X74183955Y-131725367D01*
X74240832Y-131613740D01*
X74260430Y-131490000D01*
X74240832Y-131366260D01*
X74183955Y-131254633D01*
X74183954Y-131254631D01*
X74095368Y-131166045D01*
X73983738Y-131109167D01*
X73860000Y-131089569D01*
X73736261Y-131109167D01*
X73624631Y-131166045D01*
X73536045Y-131254631D01*
X73479167Y-131366261D01*
X73459569Y-131490000D01*
X72744497Y-131490000D01*
X72755425Y-131400000D01*
X72735798Y-131238360D01*
X72678059Y-131086114D01*
X72585563Y-130952110D01*
X72585562Y-130952108D01*
X72463687Y-130844137D01*
X72319507Y-130768466D01*
X72213124Y-130742245D01*
X72161413Y-130729500D01*
X71998587Y-130729500D01*
X71959621Y-130739104D01*
X71840492Y-130768466D01*
X71696312Y-130844137D01*
X71574437Y-130952108D01*
X71481941Y-131086113D01*
X71424202Y-131238359D01*
X71404574Y-131399999D01*
X68569322Y-131399999D01*
X68505368Y-131336045D01*
X68393738Y-131279167D01*
X68269999Y-131259569D01*
X68146261Y-131279167D01*
X68034631Y-131336045D01*
X67946045Y-131424631D01*
X67889167Y-131536261D01*
X67869569Y-131659999D01*
X66590499Y-131659999D01*
X66590499Y-130550000D01*
X72999569Y-130550000D01*
X73019167Y-130673738D01*
X73076045Y-130785368D01*
X73164631Y-130873954D01*
X73164633Y-130873955D01*
X73276260Y-130930832D01*
X73400000Y-130950430D01*
X73523740Y-130930832D01*
X73635367Y-130873955D01*
X73723955Y-130785367D01*
X73780832Y-130673740D01*
X73800430Y-130550000D01*
X73780832Y-130426260D01*
X73723955Y-130314633D01*
X73723954Y-130314631D01*
X73635368Y-130226045D01*
X73523738Y-130169167D01*
X73400000Y-130149569D01*
X73276261Y-130169167D01*
X73164631Y-130226045D01*
X73076045Y-130314631D01*
X73019167Y-130426261D01*
X72999569Y-130550000D01*
X66590499Y-130550000D01*
X66590499Y-129219999D01*
X71499569Y-129219999D01*
X71519167Y-129343738D01*
X71576045Y-129455368D01*
X71664631Y-129543954D01*
X71664633Y-129543955D01*
X71776260Y-129600832D01*
X71900000Y-129620430D01*
X72023740Y-129600832D01*
X72135367Y-129543955D01*
X72223955Y-129455367D01*
X72280832Y-129343740D01*
X72300430Y-129220000D01*
X72280832Y-129096260D01*
X72223955Y-128984633D01*
X72223954Y-128984631D01*
X72135368Y-128896045D01*
X72023738Y-128839167D01*
X71900000Y-128819569D01*
X71776261Y-128839167D01*
X71664631Y-128896045D01*
X71576045Y-128984631D01*
X71519167Y-129096261D01*
X71499569Y-129219999D01*
X66590499Y-129219999D01*
X66590499Y-128570000D01*
X83379569Y-128570000D01*
X83399167Y-128693738D01*
X83456045Y-128805368D01*
X83544631Y-128893954D01*
X83544633Y-128893955D01*
X83656260Y-128950832D01*
X83780000Y-128970430D01*
X83903740Y-128950832D01*
X84015367Y-128893955D01*
X84103955Y-128805367D01*
X84160832Y-128693740D01*
X84180430Y-128570000D01*
X84160832Y-128446260D01*
X84103955Y-128334633D01*
X84103954Y-128334631D01*
X84015368Y-128246045D01*
X83903738Y-128189167D01*
X83780000Y-128169569D01*
X83656261Y-128189167D01*
X83544631Y-128246045D01*
X83456045Y-128334631D01*
X83399167Y-128446261D01*
X83379569Y-128570000D01*
X66590499Y-128570000D01*
X66590499Y-127499999D01*
X72939569Y-127499999D01*
X72959167Y-127623738D01*
X73016045Y-127735368D01*
X73104631Y-127823954D01*
X73104633Y-127823955D01*
X73216260Y-127880832D01*
X73340000Y-127900430D01*
X73463740Y-127880832D01*
X73575367Y-127823955D01*
X73663955Y-127735367D01*
X73681976Y-127699999D01*
X76779569Y-127699999D01*
X76799167Y-127823738D01*
X76856045Y-127935368D01*
X76944631Y-128023954D01*
X76944633Y-128023955D01*
X77056260Y-128080832D01*
X77180000Y-128100430D01*
X77303740Y-128080832D01*
X77415367Y-128023955D01*
X77503955Y-127935367D01*
X77560832Y-127823740D01*
X77575679Y-127730000D01*
X78779569Y-127730000D01*
X78799167Y-127853738D01*
X78856045Y-127965368D01*
X78944631Y-128053954D01*
X78944633Y-128053955D01*
X79056260Y-128110832D01*
X79180000Y-128130430D01*
X79303740Y-128110832D01*
X79415367Y-128053955D01*
X79503955Y-127965367D01*
X79529372Y-127915483D01*
X81165052Y-127915483D01*
X81184650Y-128039221D01*
X81241528Y-128150851D01*
X81330114Y-128239437D01*
X81330116Y-128239438D01*
X81441743Y-128296315D01*
X81565483Y-128315913D01*
X81689223Y-128296315D01*
X81800850Y-128239438D01*
X81889438Y-128150850D01*
X81946315Y-128039223D01*
X81965913Y-127915483D01*
X81946315Y-127791743D01*
X81889438Y-127680116D01*
X81889437Y-127680114D01*
X81800851Y-127591528D01*
X81689221Y-127534650D01*
X81565483Y-127515052D01*
X81441744Y-127534650D01*
X81330114Y-127591528D01*
X81241528Y-127680114D01*
X81184650Y-127791744D01*
X81165052Y-127915483D01*
X79529372Y-127915483D01*
X79560832Y-127853740D01*
X79580430Y-127730000D01*
X79560832Y-127606260D01*
X79503955Y-127494633D01*
X79503954Y-127494631D01*
X79415368Y-127406045D01*
X79303738Y-127349167D01*
X79180000Y-127329569D01*
X79056261Y-127349167D01*
X78944631Y-127406045D01*
X78856045Y-127494631D01*
X78799167Y-127606261D01*
X78779569Y-127730000D01*
X77575679Y-127730000D01*
X77580430Y-127700000D01*
X77560832Y-127576260D01*
X77503955Y-127464633D01*
X77503954Y-127464631D01*
X77415368Y-127376045D01*
X77303738Y-127319167D01*
X77180000Y-127299569D01*
X77056261Y-127319167D01*
X76944631Y-127376045D01*
X76856045Y-127464631D01*
X76799167Y-127576261D01*
X76779569Y-127699999D01*
X73681976Y-127699999D01*
X73720832Y-127623740D01*
X73740430Y-127500000D01*
X73720832Y-127376260D01*
X73663955Y-127264633D01*
X73663954Y-127264631D01*
X73575368Y-127176045D01*
X73463738Y-127119167D01*
X73340000Y-127099569D01*
X73216261Y-127119167D01*
X73104631Y-127176045D01*
X73016045Y-127264631D01*
X72959167Y-127376261D01*
X72939569Y-127499999D01*
X66590499Y-127499999D01*
X66590499Y-126179999D01*
X72889569Y-126179999D01*
X72909167Y-126303738D01*
X72966045Y-126415368D01*
X73054631Y-126503954D01*
X73054633Y-126503955D01*
X73166260Y-126560832D01*
X73290000Y-126580430D01*
X73413740Y-126560832D01*
X73525367Y-126503955D01*
X73613955Y-126415367D01*
X73670832Y-126303740D01*
X73690430Y-126180000D01*
X73670832Y-126056260D01*
X73613955Y-125944633D01*
X73613954Y-125944631D01*
X73525368Y-125856045D01*
X73413738Y-125799167D01*
X73290000Y-125779569D01*
X73166261Y-125799167D01*
X73054631Y-125856045D01*
X72966045Y-125944631D01*
X72909167Y-126056261D01*
X72889569Y-126179999D01*
X66590499Y-126179999D01*
X66590499Y-125395000D01*
X71714569Y-125395000D01*
X71734167Y-125518738D01*
X71791045Y-125630368D01*
X71879631Y-125718954D01*
X71879633Y-125718955D01*
X71991260Y-125775832D01*
X72115000Y-125795430D01*
X72238740Y-125775832D01*
X72350367Y-125718955D01*
X72438955Y-125630367D01*
X72495832Y-125518740D01*
X72515430Y-125395000D01*
X72497216Y-125280000D01*
X80849569Y-125280000D01*
X80869167Y-125403738D01*
X80926045Y-125515368D01*
X81014632Y-125603955D01*
X81030920Y-125612254D01*
X81081716Y-125660228D01*
X81098512Y-125728049D01*
X81085111Y-125779033D01*
X81040667Y-125866259D01*
X81021069Y-125990000D01*
X81040667Y-126113738D01*
X81097545Y-126225368D01*
X81186131Y-126313954D01*
X81186133Y-126313955D01*
X81297760Y-126370832D01*
X81421500Y-126390430D01*
X81545240Y-126370832D01*
X81656867Y-126313955D01*
X81745455Y-126225367D01*
X81802332Y-126113740D01*
X81821930Y-125990000D01*
X81802332Y-125866260D01*
X81745455Y-125754633D01*
X81745454Y-125754631D01*
X81656867Y-125666044D01*
X81640578Y-125657745D01*
X81589782Y-125609771D01*
X81572986Y-125541951D01*
X81586386Y-125490968D01*
X81630832Y-125403740D01*
X81647263Y-125299999D01*
X83359569Y-125299999D01*
X83379167Y-125423738D01*
X83436045Y-125535368D01*
X83524631Y-125623954D01*
X83524633Y-125623955D01*
X83636260Y-125680832D01*
X83760000Y-125700430D01*
X83883740Y-125680832D01*
X83995367Y-125623955D01*
X84039323Y-125579999D01*
X85489569Y-125579999D01*
X85509167Y-125703738D01*
X85566045Y-125815368D01*
X85654631Y-125903954D01*
X85654633Y-125903955D01*
X85766260Y-125960832D01*
X85890000Y-125980430D01*
X86013740Y-125960832D01*
X86125367Y-125903955D01*
X86213955Y-125815367D01*
X86270832Y-125703740D01*
X86290430Y-125580000D01*
X86270832Y-125456260D01*
X86213955Y-125344633D01*
X86213954Y-125344631D01*
X86125368Y-125256045D01*
X86013738Y-125199167D01*
X85890000Y-125179569D01*
X85766261Y-125199167D01*
X85654631Y-125256045D01*
X85566045Y-125344631D01*
X85509167Y-125456261D01*
X85489569Y-125579999D01*
X84039323Y-125579999D01*
X84083955Y-125535367D01*
X84140832Y-125423740D01*
X84160430Y-125300000D01*
X84140832Y-125176260D01*
X84083955Y-125064633D01*
X84083954Y-125064631D01*
X83995368Y-124976045D01*
X83883738Y-124919167D01*
X83760000Y-124899569D01*
X83636261Y-124919167D01*
X83524631Y-124976045D01*
X83436045Y-125064631D01*
X83379167Y-125176261D01*
X83359569Y-125299999D01*
X81647263Y-125299999D01*
X81650430Y-125280000D01*
X81630832Y-125156260D01*
X81573955Y-125044633D01*
X81573954Y-125044631D01*
X81485368Y-124956045D01*
X81373738Y-124899167D01*
X81250000Y-124879569D01*
X81126261Y-124899167D01*
X81014631Y-124956045D01*
X80926045Y-125044631D01*
X80869167Y-125156261D01*
X80849569Y-125280000D01*
X72497216Y-125280000D01*
X72495832Y-125271260D01*
X72438955Y-125159633D01*
X72438954Y-125159631D01*
X72350368Y-125071045D01*
X72238738Y-125014167D01*
X72115000Y-124994569D01*
X71991261Y-125014167D01*
X71879631Y-125071045D01*
X71791045Y-125159631D01*
X71734167Y-125271261D01*
X71714569Y-125395000D01*
X66590499Y-125395000D01*
X66590499Y-123770000D01*
X71739569Y-123770000D01*
X71759167Y-123893738D01*
X71816045Y-124005368D01*
X71904631Y-124093954D01*
X71904633Y-124093955D01*
X72016260Y-124150832D01*
X72140000Y-124170430D01*
X72263740Y-124150832D01*
X72375367Y-124093955D01*
X72463955Y-124005367D01*
X72520832Y-123893740D01*
X72540430Y-123770000D01*
X72520832Y-123646260D01*
X72463955Y-123534633D01*
X72463954Y-123534631D01*
X72375368Y-123446045D01*
X72263738Y-123389167D01*
X72140000Y-123369569D01*
X72016261Y-123389167D01*
X71904631Y-123446045D01*
X71816045Y-123534631D01*
X71759167Y-123646261D01*
X71739569Y-123770000D01*
X66590499Y-123770000D01*
X66590499Y-121880000D01*
X75189569Y-121880000D01*
X75209167Y-122003738D01*
X75266045Y-122115368D01*
X75354631Y-122203954D01*
X75354633Y-122203955D01*
X75466260Y-122260832D01*
X75528130Y-122270631D01*
X75589999Y-122280430D01*
X75589999Y-122280429D01*
X75590000Y-122280430D01*
X75713740Y-122260832D01*
X75825367Y-122203955D01*
X75913955Y-122115367D01*
X75970832Y-122003740D01*
X75990430Y-121880000D01*
X75970832Y-121756260D01*
X75913955Y-121644633D01*
X75913954Y-121644631D01*
X75825368Y-121556045D01*
X75713738Y-121499167D01*
X75589999Y-121479569D01*
X75466261Y-121499167D01*
X75354631Y-121556045D01*
X75266045Y-121644631D01*
X75209167Y-121756261D01*
X75189569Y-121880000D01*
X66590499Y-121880000D01*
X66590499Y-120330000D01*
X71989569Y-120330000D01*
X72009167Y-120453738D01*
X72066045Y-120565368D01*
X72154631Y-120653954D01*
X72154633Y-120653955D01*
X72266260Y-120710832D01*
X72328129Y-120720631D01*
X72389999Y-120730430D01*
X72389999Y-120730429D01*
X72390000Y-120730430D01*
X72513740Y-120710832D01*
X72625367Y-120653955D01*
X72649322Y-120630000D01*
X76979569Y-120630000D01*
X76999167Y-120753738D01*
X77056045Y-120865368D01*
X77144631Y-120953954D01*
X77144633Y-120953955D01*
X77256260Y-121010832D01*
X77380000Y-121030430D01*
X77503740Y-121010832D01*
X77615367Y-120953955D01*
X77703955Y-120865367D01*
X77760832Y-120753740D01*
X77780430Y-120630000D01*
X77760832Y-120506260D01*
X77703955Y-120394633D01*
X77703954Y-120394631D01*
X77615368Y-120306045D01*
X77503738Y-120249167D01*
X77380000Y-120229569D01*
X77256261Y-120249167D01*
X77144631Y-120306045D01*
X77056045Y-120394631D01*
X76999167Y-120506261D01*
X76979569Y-120630000D01*
X72649322Y-120630000D01*
X72713955Y-120565367D01*
X72770832Y-120453740D01*
X72790430Y-120330000D01*
X72770832Y-120206260D01*
X72713955Y-120094633D01*
X72713954Y-120094631D01*
X72625368Y-120006045D01*
X72513738Y-119949167D01*
X72389999Y-119929569D01*
X72266261Y-119949167D01*
X72154631Y-120006045D01*
X72066045Y-120094631D01*
X72009167Y-120206261D01*
X71989569Y-120330000D01*
X66590499Y-120330000D01*
X66590499Y-118690000D01*
X75049569Y-118690000D01*
X75069167Y-118813738D01*
X75126045Y-118925368D01*
X75214631Y-119013954D01*
X75214633Y-119013955D01*
X75326260Y-119070832D01*
X75450000Y-119090430D01*
X75573740Y-119070832D01*
X75685367Y-119013955D01*
X75773955Y-118925367D01*
X75830832Y-118813740D01*
X75850430Y-118690000D01*
X75830832Y-118566260D01*
X75773955Y-118454633D01*
X75773954Y-118454631D01*
X75685368Y-118366045D01*
X75573738Y-118309167D01*
X75450000Y-118289569D01*
X75326261Y-118309167D01*
X75214631Y-118366045D01*
X75126045Y-118454631D01*
X75069167Y-118566261D01*
X75049569Y-118690000D01*
X66590499Y-118690000D01*
X66590499Y-115990000D01*
X81780000Y-115990000D01*
X81780000Y-104970000D01*
X85914414Y-104970000D01*
X85934737Y-105280076D01*
X85935527Y-105284047D01*
X85935528Y-105284055D01*
X85994567Y-105580863D01*
X85994569Y-105580870D01*
X85995360Y-105584847D01*
X85996660Y-105588678D01*
X85996664Y-105588691D01*
X86093939Y-105875250D01*
X86095245Y-105879097D01*
X86097038Y-105882733D01*
X86097041Y-105882740D01*
X86230886Y-106154153D01*
X86230892Y-106154164D01*
X86232682Y-106157793D01*
X86405321Y-106416165D01*
X86407996Y-106419215D01*
X86408002Y-106419223D01*
X86607533Y-106646744D01*
X86610207Y-106649793D01*
X86613255Y-106652466D01*
X86840776Y-106851997D01*
X86840782Y-106852001D01*
X86843835Y-106854679D01*
X87102207Y-107027318D01*
X87105840Y-107029109D01*
X87105846Y-107029113D01*
X87377259Y-107162958D01*
X87380903Y-107164755D01*
X87592195Y-107236479D01*
X87671308Y-107263335D01*
X87671310Y-107263335D01*
X87675153Y-107264640D01*
X87979924Y-107325263D01*
X88290000Y-107345586D01*
X88600076Y-107325263D01*
X88904847Y-107264640D01*
X89199097Y-107164755D01*
X89477793Y-107027318D01*
X89736165Y-106854679D01*
X89969793Y-106649793D01*
X90174679Y-106416165D01*
X90347318Y-106157793D01*
X90484755Y-105879097D01*
X90584640Y-105584847D01*
X90645263Y-105280076D01*
X90665586Y-104970000D01*
X90645263Y-104659924D01*
X90584640Y-104355153D01*
X90484755Y-104060903D01*
X90355467Y-103798731D01*
X90349113Y-103785846D01*
X90349109Y-103785840D01*
X90347318Y-103782207D01*
X90174679Y-103523835D01*
X90172001Y-103520782D01*
X90171997Y-103520776D01*
X89972466Y-103293255D01*
X89969793Y-103290207D01*
X89960089Y-103281697D01*
X89739223Y-103088002D01*
X89739215Y-103087996D01*
X89736165Y-103085321D01*
X89732783Y-103083061D01*
X89481167Y-102914936D01*
X89481162Y-102914933D01*
X89477793Y-102912682D01*
X89474164Y-102910892D01*
X89474153Y-102910886D01*
X89202740Y-102777041D01*
X89202733Y-102777038D01*
X89199097Y-102775245D01*
X89195250Y-102773939D01*
X88908691Y-102676664D01*
X88908678Y-102676660D01*
X88904847Y-102675360D01*
X88900870Y-102674569D01*
X88900863Y-102674567D01*
X88604055Y-102615528D01*
X88604047Y-102615527D01*
X88600076Y-102614737D01*
X88290000Y-102594414D01*
X88285957Y-102594679D01*
X87983966Y-102614472D01*
X87983964Y-102614472D01*
X87979924Y-102614737D01*
X87975954Y-102615526D01*
X87975944Y-102615528D01*
X87679136Y-102674567D01*
X87679125Y-102674569D01*
X87675153Y-102675360D01*
X87671324Y-102676659D01*
X87671308Y-102676664D01*
X87384749Y-102773939D01*
X87384742Y-102773941D01*
X87380903Y-102775245D01*
X87377271Y-102777035D01*
X87377259Y-102777041D01*
X87105846Y-102910886D01*
X87105828Y-102910895D01*
X87102207Y-102912682D01*
X87098844Y-102914928D01*
X87098832Y-102914936D01*
X86847216Y-103083061D01*
X86847207Y-103083067D01*
X86843835Y-103085321D01*
X86840791Y-103087990D01*
X86840776Y-103088002D01*
X86613255Y-103287533D01*
X86613247Y-103287540D01*
X86610207Y-103290207D01*
X86607540Y-103293247D01*
X86607533Y-103293255D01*
X86408002Y-103520776D01*
X86407990Y-103520791D01*
X86405321Y-103523835D01*
X86403067Y-103527207D01*
X86403061Y-103527216D01*
X86234936Y-103778832D01*
X86234928Y-103778844D01*
X86232682Y-103782207D01*
X86230895Y-103785828D01*
X86230886Y-103785846D01*
X86097041Y-104057259D01*
X86097035Y-104057271D01*
X86095245Y-104060903D01*
X86093941Y-104064742D01*
X86093939Y-104064749D01*
X85996664Y-104351308D01*
X85996659Y-104351324D01*
X85995360Y-104355153D01*
X85994569Y-104359125D01*
X85994567Y-104359136D01*
X85935528Y-104655944D01*
X85935526Y-104655954D01*
X85934737Y-104659924D01*
X85914414Y-104970000D01*
X81780000Y-104970000D01*
X81780000Y-102270500D01*
X88242405Y-102270500D01*
X88286519Y-102270500D01*
X88293472Y-102270695D01*
G37*
%TD.AperFunction*%
%TD*%
M02*
