%TF.GenerationSoftware,KiCad,Pcbnew,7.0.2*%
%TF.CreationDate,2023-10-19T19:02:44-04:00*%
%TF.ProjectId,XBee_Joint,58426565-5f4a-46f6-996e-742e6b696361,rev?*%
%TF.SameCoordinates,Original*%
%TF.FileFunction,Copper,L2,Inr*%
%TF.FilePolarity,Positive*%
%FSLAX46Y46*%
G04 Gerber Fmt 4.6, Leading zero omitted, Abs format (unit mm)*
G04 Created by KiCad (PCBNEW 7.0.2) date 2023-10-19 19:02:44*
%MOMM*%
%LPD*%
G01*
G04 APERTURE LIST*
%TA.AperFunction,ComponentPad*%
%ADD10C,4.400000*%
%TD*%
%TA.AperFunction,ComponentPad*%
%ADD11O,1.000000X1.800000*%
%TD*%
%TA.AperFunction,ComponentPad*%
%ADD12O,1.000000X2.100000*%
%TD*%
%TA.AperFunction,ComponentPad*%
%ADD13C,0.600000*%
%TD*%
%TA.AperFunction,ComponentPad*%
%ADD14C,0.970000*%
%TD*%
%TA.AperFunction,ViaPad*%
%ADD15C,0.450000*%
%TD*%
%TA.AperFunction,ViaPad*%
%ADD16C,1.000000*%
%TD*%
%TA.AperFunction,ViaPad*%
%ADD17C,0.600000*%
%TD*%
G04 APERTURE END LIST*
D10*
%TO.N,N/C*%
%TO.C,H2*%
X88290000Y-104970000D03*
%TD*%
%TO.N,N/C*%
%TO.C,H1*%
X69290000Y-146970000D03*
%TD*%
D11*
%TO.N,GND*%
%TO.C,J2*%
X73020000Y-147295000D03*
D12*
X81660000Y-143115000D03*
D11*
X81660000Y-147295000D03*
D12*
X73020000Y-143115000D03*
%TD*%
D13*
%TO.N,GND*%
%TO.C,U1*%
X80260000Y-126585000D03*
X78985000Y-126585000D03*
X77710000Y-126585000D03*
X80260000Y-125310000D03*
X78985000Y-125310000D03*
X77710000Y-125310000D03*
X80260000Y-124035000D03*
X78985000Y-124035000D03*
X77710000Y-124035000D03*
%TD*%
D14*
%TO.N,N/C*%
%TO.C,AE1*%
X77730000Y-108800000D03*
X68970000Y-108800000D03*
%TD*%
D15*
%TO.N,+3V3*%
X75450000Y-118690000D03*
D16*
%TO.N,GND*%
X68500000Y-141980000D03*
D15*
X89358500Y-131270000D03*
X81160000Y-102840000D03*
X81210000Y-103870000D03*
X81260000Y-104990000D03*
X81290000Y-106130000D03*
X81270000Y-107270000D03*
X81270000Y-108640000D03*
X81320000Y-110060000D03*
X81260000Y-111500000D03*
X81240000Y-112880000D03*
X81270000Y-114310000D03*
X81300000Y-115580000D03*
X80110000Y-115630000D03*
X78780000Y-115630000D03*
X77410000Y-115480000D03*
X75970000Y-115670000D03*
X74470000Y-115690000D03*
X72850000Y-115650000D03*
X71180000Y-115650000D03*
X69410000Y-115670000D03*
X68160000Y-115650000D03*
X66930000Y-115630000D03*
X71610000Y-102570000D03*
X71520000Y-103550000D03*
X71520000Y-104450000D03*
X71530000Y-105290000D03*
X71550000Y-106160000D03*
X71570000Y-107020000D03*
X71580000Y-107930000D03*
X72340000Y-108480000D03*
X72410000Y-109370000D03*
X71990000Y-110120000D03*
X71830000Y-111080000D03*
X71830000Y-112070000D03*
X71830000Y-113110000D03*
X71940000Y-114120000D03*
X72560000Y-114590000D03*
X73550000Y-114550000D03*
X74290000Y-114040000D03*
X74360000Y-113000000D03*
X74360000Y-112020000D03*
X74330000Y-111070000D03*
X74330000Y-110080000D03*
X74220000Y-109260000D03*
X74230000Y-108460000D03*
X75130000Y-107790000D03*
X75120000Y-106930000D03*
X75120000Y-106080000D03*
X75110000Y-105230000D03*
X75120000Y-104400000D03*
X75110000Y-103560000D03*
X75030000Y-102610000D03*
X69880000Y-131790000D03*
%TO.N,+3V3*%
X68270000Y-131660000D03*
D16*
X72080000Y-131400000D03*
X70870000Y-141670000D03*
D15*
%TO.N,GND*%
X85680000Y-141160000D03*
X84140000Y-141210000D03*
X82580000Y-140930000D03*
X85990000Y-146330000D03*
X85990000Y-142500000D03*
%TO.N,/RP_SWD*%
X90600000Y-141260000D03*
%TO.N,/RP_SWCLK*%
X89810000Y-141300000D03*
%TO.N,+1V1*%
X77380000Y-120630000D03*
%TO.N,GND*%
X76570000Y-118760000D03*
X79030000Y-119820000D03*
X81500000Y-116470000D03*
X81540000Y-117420000D03*
X90487200Y-116202800D03*
X84400000Y-126030000D03*
%TO.N,+3V3*%
X83760000Y-125300000D03*
X85890000Y-125580000D03*
X83780000Y-128570000D03*
%TO.N,GND*%
X80930000Y-136440000D03*
D17*
%TO.N,VBUS*%
X86720000Y-138040000D03*
X86300000Y-136250000D03*
D15*
%TO.N,GND*%
X79190000Y-133470000D03*
X80160000Y-133960000D03*
X81760000Y-135320000D03*
%TO.N,+3V3*%
X82850000Y-135430000D03*
D17*
%TO.N,GND*%
X83890000Y-136150000D03*
X86420000Y-124880000D03*
D15*
X80330000Y-120770000D03*
%TO.N,+3V3*%
X72390000Y-120330000D03*
%TO.N,GND*%
X74720000Y-119280000D03*
X74490000Y-120220000D03*
%TO.N,Net-(U1-RUN)*%
X75590000Y-121880000D03*
X76790000Y-122830000D03*
%TO.N,/RP_SWD*%
X77570000Y-123090000D03*
%TO.N,/RP_SWCLK*%
X78280000Y-122740000D03*
%TO.N,+1V1*%
X79180000Y-127730000D03*
X77180000Y-127700000D03*
%TO.N,+3V3*%
X73400000Y-130550000D03*
%TO.N,GND*%
X74960000Y-132520000D03*
X73980000Y-132440000D03*
%TO.N,+3V3*%
X73860000Y-131490000D03*
%TO.N,GND*%
X72350000Y-129930000D03*
X72520000Y-128430000D03*
%TO.N,+3V3*%
X73340000Y-127500000D03*
X73290000Y-126180000D03*
%TO.N,GND*%
X85580000Y-124480000D03*
%TO.N,/DRF_DIO1*%
X81421500Y-125990000D03*
%TO.N,/DRF_BUSY*%
X81250000Y-125280000D03*
%TO.N,/DRF_SW*%
X83780000Y-123520000D03*
%TO.N,/DRF_TXEN*%
X81565483Y-127915483D03*
%TO.N,GND*%
X74300000Y-127150000D03*
%TO.N,/DRF_MISO*%
X71900000Y-129220000D03*
%TO.N,/DRF_MOSI*%
X72115000Y-125395000D03*
%TO.N,/DRF_CS*%
X76690000Y-123740000D03*
%TO.N,/DRF_CLK*%
X72140000Y-123770000D03*
%TO.N,GND*%
X79430000Y-138370000D03*
X75230000Y-138390000D03*
%TO.N,+3V3*%
X80950000Y-132765000D03*
%TD*%
%TA.AperFunction,Conductor*%
%TO.N,+3V3*%
G36*
X88293472Y-102270695D02*
G01*
X88585306Y-102287084D01*
X88599103Y-102288638D01*
X88883827Y-102337015D01*
X88897384Y-102340109D01*
X89174899Y-102420060D01*
X89188025Y-102424653D01*
X89454841Y-102535172D01*
X89467355Y-102541198D01*
X89601845Y-102615528D01*
X89720125Y-102680899D01*
X89731899Y-102688297D01*
X89967430Y-102855415D01*
X89978302Y-102864085D01*
X90030672Y-102910886D01*
X90193642Y-103056524D01*
X90203473Y-103066355D01*
X90220422Y-103085321D01*
X90395914Y-103281697D01*
X90404584Y-103292569D01*
X90571702Y-103528100D01*
X90579100Y-103539874D01*
X90718797Y-103792637D01*
X90724830Y-103805165D01*
X90835346Y-104071975D01*
X90839939Y-104085100D01*
X90919890Y-104362615D01*
X90922984Y-104376172D01*
X90971359Y-104660885D01*
X90972916Y-104674703D01*
X90989305Y-104966527D01*
X90989500Y-104973480D01*
X90989500Y-115846415D01*
X90969815Y-115913454D01*
X90917011Y-115959209D01*
X90847853Y-115969153D01*
X90784297Y-115940128D01*
X90777819Y-115934096D01*
X90722568Y-115878845D01*
X90610938Y-115821967D01*
X90487200Y-115802369D01*
X90363461Y-115821967D01*
X90251831Y-115878845D01*
X90163245Y-115967431D01*
X90106367Y-116079061D01*
X90086769Y-116202800D01*
X90106367Y-116326538D01*
X90163245Y-116438168D01*
X90251831Y-116526754D01*
X90251833Y-116526755D01*
X90363460Y-116583632D01*
X90487200Y-116603230D01*
X90610940Y-116583632D01*
X90722567Y-116526755D01*
X90722568Y-116526753D01*
X90777819Y-116471504D01*
X90839142Y-116438019D01*
X90908834Y-116443003D01*
X90964767Y-116484875D01*
X90989184Y-116550339D01*
X90989500Y-116559185D01*
X90989500Y-140812229D01*
X90969815Y-140879268D01*
X90917011Y-140925023D01*
X90847853Y-140934967D01*
X90809206Y-140922714D01*
X90723740Y-140879167D01*
X90600000Y-140859569D01*
X90476261Y-140879167D01*
X90364631Y-140936045D01*
X90272681Y-141027996D01*
X90211358Y-141061481D01*
X90141666Y-141056497D01*
X90097319Y-141027996D01*
X90045368Y-140976045D01*
X89933738Y-140919167D01*
X89810000Y-140899569D01*
X89686261Y-140919167D01*
X89574631Y-140976045D01*
X89486045Y-141064631D01*
X89429167Y-141176261D01*
X89409569Y-141299999D01*
X89429167Y-141423738D01*
X89486045Y-141535368D01*
X89574631Y-141623954D01*
X89574633Y-141623955D01*
X89686260Y-141680832D01*
X89810000Y-141700430D01*
X89933740Y-141680832D01*
X90045367Y-141623955D01*
X90085368Y-141583954D01*
X90137319Y-141532004D01*
X90198642Y-141498519D01*
X90268334Y-141503503D01*
X90312681Y-141532004D01*
X90364631Y-141583954D01*
X90364633Y-141583955D01*
X90476260Y-141640832D01*
X90600000Y-141660430D01*
X90723740Y-141640832D01*
X90809205Y-141597284D01*
X90877874Y-141584389D01*
X90942615Y-141610665D01*
X90982872Y-141667772D01*
X90989500Y-141707770D01*
X90989500Y-146966519D01*
X90989305Y-146973472D01*
X90972916Y-147265296D01*
X90971359Y-147279114D01*
X90922984Y-147563827D01*
X90919890Y-147577384D01*
X90839939Y-147854899D01*
X90835346Y-147868024D01*
X90724830Y-148134834D01*
X90718797Y-148147362D01*
X90579100Y-148400125D01*
X90571702Y-148411899D01*
X90404584Y-148647430D01*
X90395914Y-148658302D01*
X90203475Y-148873642D01*
X90193642Y-148883475D01*
X89978302Y-149075914D01*
X89967430Y-149084584D01*
X89731899Y-149251702D01*
X89720125Y-149259100D01*
X89467362Y-149398797D01*
X89454834Y-149404830D01*
X89188024Y-149515346D01*
X89174899Y-149519939D01*
X88897384Y-149599890D01*
X88883827Y-149602984D01*
X88599114Y-149651359D01*
X88585296Y-149652916D01*
X88293472Y-149669305D01*
X88286519Y-149669500D01*
X69293481Y-149669500D01*
X69286528Y-149669305D01*
X68994703Y-149652916D01*
X68980885Y-149651359D01*
X68696172Y-149602984D01*
X68682615Y-149599890D01*
X68405100Y-149519939D01*
X68391975Y-149515346D01*
X68125165Y-149404830D01*
X68112637Y-149398797D01*
X67859874Y-149259100D01*
X67848100Y-149251702D01*
X67612569Y-149084584D01*
X67601697Y-149075914D01*
X67386357Y-148883475D01*
X67376524Y-148873642D01*
X67361596Y-148856938D01*
X67184085Y-148658302D01*
X67175415Y-148647430D01*
X67008297Y-148411899D01*
X67000899Y-148400125D01*
X66960226Y-148326533D01*
X66861198Y-148147355D01*
X66855172Y-148134841D01*
X66753619Y-147889670D01*
X66744653Y-147868024D01*
X66740060Y-147854899D01*
X66660109Y-147577384D01*
X66657015Y-147563827D01*
X66644991Y-147493057D01*
X66608638Y-147279103D01*
X66607084Y-147265306D01*
X66590695Y-146973472D01*
X66590598Y-146970000D01*
X66914414Y-146970000D01*
X66934737Y-147280076D01*
X66935527Y-147284047D01*
X66935528Y-147284055D01*
X66994567Y-147580863D01*
X66994569Y-147580870D01*
X66995360Y-147584847D01*
X66996660Y-147588678D01*
X66996664Y-147588691D01*
X67086990Y-147854780D01*
X67095245Y-147879097D01*
X67097038Y-147882733D01*
X67097041Y-147882740D01*
X67230886Y-148154153D01*
X67230892Y-148154164D01*
X67232682Y-148157793D01*
X67234933Y-148161162D01*
X67234936Y-148161167D01*
X67403061Y-148412783D01*
X67405321Y-148416165D01*
X67407996Y-148419215D01*
X67408002Y-148419223D01*
X67452929Y-148470452D01*
X67610207Y-148649793D01*
X67613255Y-148652466D01*
X67840776Y-148851997D01*
X67840782Y-148852001D01*
X67843835Y-148854679D01*
X68102207Y-149027318D01*
X68105840Y-149029109D01*
X68105846Y-149029113D01*
X68377259Y-149162958D01*
X68380903Y-149164755D01*
X68592195Y-149236479D01*
X68671308Y-149263335D01*
X68671310Y-149263335D01*
X68675153Y-149264640D01*
X68979924Y-149325263D01*
X69290000Y-149345586D01*
X69600076Y-149325263D01*
X69904847Y-149264640D01*
X70199097Y-149164755D01*
X70477793Y-149027318D01*
X70736165Y-148854679D01*
X70969793Y-148649793D01*
X71174679Y-148416165D01*
X71347318Y-148157793D01*
X71484755Y-147879097D01*
X71533480Y-147735560D01*
X72349500Y-147735560D01*
X72349950Y-147739268D01*
X72349951Y-147739280D01*
X72364202Y-147856640D01*
X72421941Y-148008886D01*
X72514437Y-148142891D01*
X72636312Y-148250862D01*
X72636313Y-148250862D01*
X72636315Y-148250864D01*
X72780491Y-148326533D01*
X72938587Y-148365500D01*
X72938588Y-148365500D01*
X73101412Y-148365500D01*
X73101413Y-148365500D01*
X73259509Y-148326533D01*
X73403685Y-148250864D01*
X73484936Y-148178881D01*
X73525562Y-148142891D01*
X73526682Y-148141269D01*
X73618059Y-148008886D01*
X73675798Y-147856640D01*
X73690500Y-147735560D01*
X80989500Y-147735560D01*
X80989950Y-147739268D01*
X80989951Y-147739280D01*
X81004202Y-147856640D01*
X81061941Y-148008886D01*
X81154437Y-148142891D01*
X81276312Y-148250862D01*
X81276313Y-148250862D01*
X81276315Y-148250864D01*
X81420491Y-148326533D01*
X81578587Y-148365500D01*
X81578588Y-148365500D01*
X81741412Y-148365500D01*
X81741413Y-148365500D01*
X81899509Y-148326533D01*
X82043685Y-148250864D01*
X82124936Y-148178881D01*
X82165562Y-148142891D01*
X82166682Y-148141269D01*
X82258059Y-148008886D01*
X82315798Y-147856640D01*
X82330500Y-147735560D01*
X82330500Y-147417922D01*
X87900118Y-147417922D01*
X87930907Y-147566083D01*
X87930907Y-147566084D01*
X87930908Y-147566085D01*
X88000529Y-147700447D01*
X88036797Y-147739280D01*
X88103821Y-147811045D01*
X88127434Y-147825404D01*
X88233118Y-147889672D01*
X88378835Y-147930500D01*
X88378837Y-147930500D01*
X88487921Y-147930500D01*
X88492158Y-147930500D01*
X88604420Y-147915070D01*
X88743220Y-147854780D01*
X88860608Y-147759278D01*
X88947877Y-147635647D01*
X88998554Y-147493056D01*
X89008881Y-147342079D01*
X88996823Y-147284055D01*
X88978092Y-147193916D01*
X88978092Y-147193915D01*
X88908471Y-147059553D01*
X88805180Y-146948956D01*
X88805179Y-146948955D01*
X88805178Y-146948954D01*
X88718981Y-146896537D01*
X88675882Y-146870328D01*
X88653157Y-146863960D01*
X88593916Y-146826920D01*
X88564105Y-146763729D01*
X88573189Y-146694453D01*
X88618285Y-146641085D01*
X88637209Y-146630827D01*
X88743220Y-146584780D01*
X88860608Y-146489278D01*
X88947877Y-146365647D01*
X88998554Y-146223056D01*
X89008881Y-146072079D01*
X89005801Y-146057259D01*
X88978092Y-145923916D01*
X88978092Y-145923915D01*
X88908471Y-145789553D01*
X88805180Y-145678956D01*
X88805179Y-145678955D01*
X88805178Y-145678954D01*
X88718981Y-145626537D01*
X88675882Y-145600328D01*
X88653157Y-145593960D01*
X88593916Y-145556920D01*
X88564105Y-145493729D01*
X88573189Y-145424453D01*
X88618285Y-145371085D01*
X88637209Y-145360827D01*
X88743220Y-145314780D01*
X88860608Y-145219278D01*
X88947877Y-145095647D01*
X88998554Y-144953056D01*
X89008881Y-144802079D01*
X89003033Y-144773939D01*
X88982548Y-144675360D01*
X88978092Y-144653915D01*
X88908471Y-144519553D01*
X88805180Y-144408956D01*
X88805179Y-144408955D01*
X88805178Y-144408954D01*
X88718981Y-144356537D01*
X88675882Y-144330328D01*
X88653157Y-144323960D01*
X88593916Y-144286920D01*
X88564105Y-144223729D01*
X88573189Y-144154453D01*
X88618285Y-144101085D01*
X88637209Y-144090827D01*
X88743220Y-144044780D01*
X88860608Y-143949278D01*
X88947877Y-143825647D01*
X88998554Y-143683056D01*
X89008881Y-143532079D01*
X89003686Y-143507081D01*
X88978092Y-143383916D01*
X88978092Y-143383915D01*
X88908471Y-143249553D01*
X88805180Y-143138956D01*
X88805179Y-143138955D01*
X88805178Y-143138954D01*
X88718981Y-143086537D01*
X88675882Y-143060328D01*
X88653157Y-143053960D01*
X88593916Y-143016920D01*
X88564105Y-142953729D01*
X88573189Y-142884453D01*
X88618285Y-142831085D01*
X88637209Y-142820827D01*
X88743220Y-142774780D01*
X88860608Y-142679278D01*
X88947877Y-142555647D01*
X88960291Y-142520719D01*
X88972600Y-142486083D01*
X88998554Y-142413056D01*
X89008881Y-142262079D01*
X89006602Y-142251114D01*
X88983853Y-142141640D01*
X88978092Y-142113915D01*
X88908471Y-141979553D01*
X88805180Y-141868956D01*
X88805179Y-141868955D01*
X88805178Y-141868954D01*
X88718981Y-141816537D01*
X88675882Y-141790328D01*
X88530165Y-141749500D01*
X88416842Y-141749500D01*
X88412658Y-141750075D01*
X88412644Y-141750076D01*
X88304579Y-141764930D01*
X88165780Y-141825219D01*
X88048392Y-141920721D01*
X87961121Y-142044354D01*
X87910446Y-142186942D01*
X87900118Y-142337922D01*
X87930907Y-142486083D01*
X87930907Y-142486084D01*
X87930908Y-142486085D01*
X88000529Y-142620447D01*
X88028597Y-142650500D01*
X88103821Y-142731045D01*
X88168468Y-142770358D01*
X88233118Y-142809672D01*
X88255840Y-142816038D01*
X88315081Y-142853078D01*
X88344894Y-142916268D01*
X88335811Y-142985544D01*
X88290716Y-143038913D01*
X88271788Y-143049173D01*
X88165779Y-143095220D01*
X88048392Y-143190721D01*
X87961121Y-143314354D01*
X87910446Y-143456942D01*
X87900118Y-143607922D01*
X87930907Y-143756083D01*
X87930907Y-143756084D01*
X87930908Y-143756085D01*
X88000529Y-143890447D01*
X88028966Y-143920895D01*
X88103821Y-144001045D01*
X88168468Y-144040357D01*
X88233118Y-144079672D01*
X88255840Y-144086038D01*
X88315081Y-144123078D01*
X88344894Y-144186268D01*
X88335811Y-144255544D01*
X88290716Y-144308913D01*
X88271788Y-144319173D01*
X88165779Y-144365220D01*
X88048392Y-144460721D01*
X87961121Y-144584354D01*
X87910446Y-144726942D01*
X87900118Y-144877922D01*
X87930907Y-145026083D01*
X87930907Y-145026084D01*
X87930908Y-145026085D01*
X88000529Y-145160447D01*
X88055474Y-145219278D01*
X88103821Y-145271045D01*
X88130935Y-145287533D01*
X88233118Y-145349672D01*
X88255840Y-145356038D01*
X88315081Y-145393078D01*
X88344894Y-145456268D01*
X88335811Y-145525544D01*
X88290716Y-145578913D01*
X88271788Y-145589173D01*
X88165779Y-145635220D01*
X88048392Y-145730721D01*
X87961121Y-145854354D01*
X87910446Y-145996942D01*
X87900118Y-146147922D01*
X87930907Y-146296083D01*
X87930907Y-146296084D01*
X87930908Y-146296085D01*
X88000529Y-146430447D01*
X88055474Y-146489278D01*
X88103821Y-146541045D01*
X88143817Y-146565367D01*
X88233118Y-146619672D01*
X88255840Y-146626038D01*
X88315081Y-146663078D01*
X88344894Y-146726268D01*
X88335811Y-146795544D01*
X88290716Y-146848913D01*
X88271788Y-146859173D01*
X88165779Y-146905220D01*
X88048392Y-147000721D01*
X87961121Y-147124354D01*
X87910446Y-147266942D01*
X87900118Y-147417922D01*
X82330500Y-147417922D01*
X82330500Y-146854440D01*
X82315798Y-146733360D01*
X82258059Y-146581114D01*
X82216550Y-146520977D01*
X82165562Y-146447108D01*
X82043687Y-146339137D01*
X82026278Y-146330000D01*
X85589569Y-146330000D01*
X85609167Y-146453738D01*
X85666045Y-146565368D01*
X85754631Y-146653954D01*
X85754633Y-146653955D01*
X85866260Y-146710832D01*
X85928129Y-146720630D01*
X85989999Y-146730430D01*
X85989999Y-146730429D01*
X85990000Y-146730430D01*
X86113740Y-146710832D01*
X86225367Y-146653955D01*
X86313955Y-146565367D01*
X86370832Y-146453740D01*
X86390430Y-146330000D01*
X86370832Y-146206260D01*
X86313955Y-146094633D01*
X86313954Y-146094631D01*
X86225368Y-146006045D01*
X86113738Y-145949167D01*
X85989999Y-145929569D01*
X85866261Y-145949167D01*
X85754631Y-146006045D01*
X85666045Y-146094631D01*
X85609167Y-146206261D01*
X85589569Y-146330000D01*
X82026278Y-146330000D01*
X81899507Y-146263466D01*
X81793124Y-146237245D01*
X81741413Y-146224500D01*
X81578587Y-146224500D01*
X81539621Y-146234104D01*
X81420492Y-146263466D01*
X81276312Y-146339137D01*
X81154437Y-146447108D01*
X81061941Y-146581113D01*
X81004202Y-146733359D01*
X80989951Y-146850719D01*
X80989950Y-146850732D01*
X80989500Y-146854440D01*
X80989500Y-147735560D01*
X73690500Y-147735560D01*
X73690500Y-146854440D01*
X73675798Y-146733360D01*
X73618059Y-146581114D01*
X73576549Y-146520977D01*
X73525562Y-146447108D01*
X73403687Y-146339137D01*
X73259507Y-146263466D01*
X73153124Y-146237245D01*
X73101413Y-146224500D01*
X72938587Y-146224500D01*
X72899621Y-146234104D01*
X72780492Y-146263466D01*
X72636312Y-146339137D01*
X72514437Y-146447108D01*
X72421941Y-146581113D01*
X72364202Y-146733359D01*
X72349951Y-146850719D01*
X72349950Y-146850732D01*
X72349500Y-146854440D01*
X72349500Y-147735560D01*
X71533480Y-147735560D01*
X71584640Y-147584847D01*
X71645263Y-147280076D01*
X71665586Y-146970000D01*
X71645263Y-146659924D01*
X71584640Y-146355153D01*
X71484755Y-146060903D01*
X71417201Y-145923916D01*
X71349113Y-145785846D01*
X71349109Y-145785840D01*
X71347318Y-145782207D01*
X71174679Y-145523835D01*
X71172001Y-145520782D01*
X71171997Y-145520776D01*
X70972466Y-145293255D01*
X70969793Y-145290207D01*
X70888914Y-145219278D01*
X70739223Y-145088002D01*
X70739215Y-145087996D01*
X70736165Y-145085321D01*
X70732783Y-145083061D01*
X70481167Y-144914936D01*
X70481162Y-144914933D01*
X70477793Y-144912682D01*
X70474164Y-144910892D01*
X70474153Y-144910886D01*
X70202740Y-144777041D01*
X70202733Y-144777038D01*
X70199097Y-144775245D01*
X70195250Y-144773939D01*
X69908691Y-144676664D01*
X69908678Y-144676660D01*
X69904847Y-144675360D01*
X69900870Y-144674569D01*
X69900863Y-144674567D01*
X69604055Y-144615528D01*
X69604047Y-144615527D01*
X69600076Y-144614737D01*
X69290000Y-144594414D01*
X69285957Y-144594679D01*
X68983966Y-144614472D01*
X68983964Y-144614472D01*
X68979924Y-144614737D01*
X68975954Y-144615526D01*
X68975944Y-144615528D01*
X68679136Y-144674567D01*
X68679125Y-144674569D01*
X68675153Y-144675360D01*
X68671324Y-144676659D01*
X68671308Y-144676664D01*
X68384749Y-144773939D01*
X68384742Y-144773941D01*
X68380903Y-144775245D01*
X68377271Y-144777035D01*
X68377259Y-144777041D01*
X68105846Y-144910886D01*
X68105828Y-144910895D01*
X68102207Y-144912682D01*
X68098844Y-144914928D01*
X68098832Y-144914936D01*
X67847216Y-145083061D01*
X67847207Y-145083067D01*
X67843835Y-145085321D01*
X67840791Y-145087990D01*
X67840776Y-145088002D01*
X67613255Y-145287533D01*
X67613247Y-145287540D01*
X67610207Y-145290207D01*
X67607540Y-145293247D01*
X67607533Y-145293255D01*
X67408002Y-145520776D01*
X67407990Y-145520791D01*
X67405321Y-145523835D01*
X67403067Y-145527207D01*
X67403061Y-145527216D01*
X67234936Y-145778832D01*
X67234928Y-145778844D01*
X67232682Y-145782207D01*
X67230895Y-145785828D01*
X67230886Y-145785846D01*
X67097041Y-146057259D01*
X67097035Y-146057271D01*
X67095245Y-146060903D01*
X67093941Y-146064742D01*
X67093939Y-146064749D01*
X66996664Y-146351308D01*
X66996659Y-146351324D01*
X66995360Y-146355153D01*
X66994569Y-146359125D01*
X66994567Y-146359136D01*
X66935528Y-146655944D01*
X66935526Y-146655954D01*
X66934737Y-146659924D01*
X66914414Y-146970000D01*
X66590598Y-146970000D01*
X66590500Y-146966519D01*
X66590500Y-146871051D01*
X66590499Y-146871042D01*
X66590499Y-143705560D01*
X72349500Y-143705560D01*
X72349950Y-143709268D01*
X72349951Y-143709280D01*
X72364202Y-143826640D01*
X72421941Y-143978886D01*
X72514437Y-144112891D01*
X72636312Y-144220862D01*
X72636313Y-144220862D01*
X72636315Y-144220864D01*
X72780491Y-144296533D01*
X72938587Y-144335500D01*
X72938588Y-144335500D01*
X73101412Y-144335500D01*
X73101413Y-144335500D01*
X73259509Y-144296533D01*
X73403685Y-144220864D01*
X73511023Y-144125771D01*
X73525562Y-144112891D01*
X73525563Y-144112890D01*
X73618059Y-143978886D01*
X73675798Y-143826640D01*
X73688638Y-143720888D01*
X73716260Y-143656712D01*
X73774194Y-143617655D01*
X73844047Y-143616120D01*
X73903640Y-143652594D01*
X73933140Y-143710607D01*
X73942591Y-143756085D01*
X73950186Y-143792634D01*
X73967291Y-143825645D01*
X74016646Y-143920896D01*
X74115244Y-144026469D01*
X74238670Y-144101526D01*
X74377772Y-144140500D01*
X74481712Y-144140500D01*
X74485949Y-144140500D01*
X74593111Y-144125771D01*
X74725609Y-144068219D01*
X74837665Y-143977054D01*
X74920971Y-143859037D01*
X74969346Y-143722921D01*
X74974252Y-143651199D01*
X79700796Y-143651199D01*
X79701942Y-143656712D01*
X79730186Y-143792634D01*
X79796646Y-143920896D01*
X79895244Y-144026469D01*
X80018670Y-144101526D01*
X80157772Y-144140500D01*
X80261712Y-144140500D01*
X80265949Y-144140500D01*
X80373111Y-144125771D01*
X80505609Y-144068219D01*
X80617665Y-143977054D01*
X80700971Y-143859037D01*
X80749346Y-143722921D01*
X80749346Y-143722918D01*
X80753484Y-143711276D01*
X80794482Y-143654699D01*
X80859560Y-143629268D01*
X80928055Y-143643058D01*
X80978221Y-143691691D01*
X80993421Y-143737853D01*
X81004202Y-143826640D01*
X81061941Y-143978886D01*
X81154437Y-144112891D01*
X81276312Y-144220862D01*
X81276313Y-144220862D01*
X81276315Y-144220864D01*
X81420491Y-144296533D01*
X81578587Y-144335500D01*
X81578588Y-144335500D01*
X81741412Y-144335500D01*
X81741413Y-144335500D01*
X81899509Y-144296533D01*
X82043685Y-144220864D01*
X82151023Y-144125771D01*
X82165562Y-144112891D01*
X82165563Y-144112890D01*
X82258059Y-143978886D01*
X82315798Y-143826640D01*
X82330500Y-143705560D01*
X82330500Y-142524440D01*
X82327532Y-142499999D01*
X85589569Y-142499999D01*
X85609167Y-142623738D01*
X85666045Y-142735368D01*
X85754631Y-142823954D01*
X85754633Y-142823955D01*
X85866260Y-142880832D01*
X85889123Y-142884453D01*
X85989999Y-142900430D01*
X85989999Y-142900429D01*
X85990000Y-142900430D01*
X86113740Y-142880832D01*
X86225367Y-142823955D01*
X86313955Y-142735367D01*
X86370832Y-142623740D01*
X86390430Y-142500000D01*
X86370832Y-142376260D01*
X86313955Y-142264633D01*
X86313954Y-142264631D01*
X86225368Y-142176045D01*
X86113738Y-142119167D01*
X85989999Y-142099569D01*
X85866261Y-142119167D01*
X85754631Y-142176045D01*
X85666045Y-142264631D01*
X85609167Y-142376261D01*
X85589569Y-142499999D01*
X82327532Y-142499999D01*
X82315798Y-142403360D01*
X82258059Y-142251114D01*
X82165563Y-142117110D01*
X82165562Y-142117108D01*
X82043687Y-142009137D01*
X81899507Y-141933466D01*
X81793124Y-141907245D01*
X81741413Y-141894500D01*
X81578587Y-141894500D01*
X81539621Y-141904104D01*
X81420492Y-141933466D01*
X81276312Y-142009137D01*
X81154437Y-142117108D01*
X81061941Y-142251113D01*
X81004202Y-142403359D01*
X80989951Y-142520719D01*
X80989950Y-142520732D01*
X80989500Y-142524440D01*
X80989500Y-142528188D01*
X80989500Y-142528189D01*
X80989500Y-143480855D01*
X80969815Y-143547894D01*
X80917011Y-143593649D01*
X80847853Y-143603593D01*
X80784297Y-143574568D01*
X80746523Y-143515790D01*
X80744094Y-143506083D01*
X80729815Y-143437368D01*
X80663353Y-143309103D01*
X80564755Y-143203530D01*
X80441329Y-143128473D01*
X80302228Y-143089500D01*
X80194051Y-143089500D01*
X80189867Y-143090075D01*
X80189853Y-143090076D01*
X80086889Y-143104229D01*
X79954391Y-143161781D01*
X79842333Y-143252946D01*
X79759030Y-143370960D01*
X79710653Y-143507081D01*
X79704732Y-143593649D01*
X79700796Y-143651199D01*
X74974252Y-143651199D01*
X74979204Y-143578801D01*
X74949814Y-143437366D01*
X74883354Y-143309105D01*
X74883353Y-143309103D01*
X74784755Y-143203530D01*
X74661329Y-143128473D01*
X74522228Y-143089500D01*
X74414051Y-143089500D01*
X74409867Y-143090075D01*
X74409853Y-143090076D01*
X74306889Y-143104229D01*
X74174391Y-143161781D01*
X74062333Y-143252946D01*
X73979028Y-143370962D01*
X73931340Y-143505147D01*
X73890342Y-143561724D01*
X73825265Y-143587154D01*
X73756770Y-143573364D01*
X73706603Y-143524731D01*
X73690500Y-143463622D01*
X73690500Y-142528189D01*
X73690500Y-142524440D01*
X73675798Y-142403360D01*
X73618059Y-142251114D01*
X73525563Y-142117110D01*
X73525562Y-142117108D01*
X73403687Y-142009137D01*
X73259507Y-141933466D01*
X73153124Y-141907245D01*
X73101413Y-141894500D01*
X72938587Y-141894500D01*
X72899621Y-141904104D01*
X72780492Y-141933466D01*
X72636312Y-142009137D01*
X72514437Y-142117108D01*
X72421941Y-142251113D01*
X72364202Y-142403359D01*
X72349951Y-142520719D01*
X72349950Y-142520732D01*
X72349500Y-142524440D01*
X72349500Y-143705560D01*
X66590499Y-143705560D01*
X66590499Y-141980000D01*
X67824574Y-141980000D01*
X67844202Y-142141640D01*
X67901941Y-142293886D01*
X67994437Y-142427891D01*
X68116312Y-142535862D01*
X68116313Y-142535862D01*
X68116315Y-142535864D01*
X68260491Y-142611533D01*
X68418587Y-142650500D01*
X68418588Y-142650500D01*
X68581412Y-142650500D01*
X68581413Y-142650500D01*
X68739509Y-142611533D01*
X68883685Y-142535864D01*
X69005563Y-142427890D01*
X69098059Y-142293886D01*
X69155798Y-142141640D01*
X69175425Y-141980000D01*
X69155798Y-141818360D01*
X69098059Y-141666114D01*
X69046096Y-141590832D01*
X69005562Y-141532108D01*
X68883687Y-141424137D01*
X68739507Y-141348466D01*
X68633124Y-141322245D01*
X68581413Y-141309500D01*
X68418587Y-141309500D01*
X68379621Y-141319104D01*
X68260492Y-141348466D01*
X68116312Y-141424137D01*
X67994437Y-141532108D01*
X67901941Y-141666113D01*
X67844202Y-141818359D01*
X67824574Y-141980000D01*
X66590499Y-141980000D01*
X66590499Y-140930000D01*
X82179569Y-140930000D01*
X82199167Y-141053738D01*
X82256045Y-141165368D01*
X82344631Y-141253954D01*
X82344633Y-141253955D01*
X82456260Y-141310832D01*
X82580000Y-141330430D01*
X82703740Y-141310832D01*
X82815367Y-141253955D01*
X82859322Y-141210000D01*
X83739569Y-141210000D01*
X83759167Y-141333738D01*
X83816045Y-141445368D01*
X83904631Y-141533954D01*
X83904633Y-141533955D01*
X84016260Y-141590832D01*
X84140000Y-141610430D01*
X84263740Y-141590832D01*
X84375367Y-141533955D01*
X84463955Y-141445367D01*
X84520832Y-141333740D01*
X84540430Y-141210000D01*
X84532511Y-141160000D01*
X85279569Y-141160000D01*
X85299167Y-141283738D01*
X85356045Y-141395368D01*
X85444631Y-141483954D01*
X85444633Y-141483955D01*
X85556260Y-141540832D01*
X85680000Y-141560430D01*
X85803740Y-141540832D01*
X85915367Y-141483955D01*
X86003955Y-141395367D01*
X86060832Y-141283740D01*
X86080430Y-141160000D01*
X86060832Y-141036260D01*
X86003955Y-140924633D01*
X86003954Y-140924631D01*
X85915368Y-140836045D01*
X85803738Y-140779167D01*
X85680000Y-140759569D01*
X85556261Y-140779167D01*
X85444631Y-140836045D01*
X85356045Y-140924631D01*
X85299167Y-141036261D01*
X85279569Y-141160000D01*
X84532511Y-141160000D01*
X84520832Y-141086260D01*
X84463955Y-140974633D01*
X84463954Y-140974631D01*
X84375368Y-140886045D01*
X84263738Y-140829167D01*
X84140000Y-140809569D01*
X84016261Y-140829167D01*
X83904631Y-140886045D01*
X83816045Y-140974631D01*
X83759167Y-141086261D01*
X83739569Y-141210000D01*
X82859322Y-141210000D01*
X82903955Y-141165367D01*
X82960832Y-141053740D01*
X82980430Y-140930000D01*
X82960832Y-140806260D01*
X82903955Y-140694633D01*
X82903954Y-140694631D01*
X82815368Y-140606045D01*
X82703738Y-140549167D01*
X82580000Y-140529569D01*
X82456261Y-140549167D01*
X82344631Y-140606045D01*
X82256045Y-140694631D01*
X82199167Y-140806261D01*
X82179569Y-140930000D01*
X66590499Y-140930000D01*
X66590499Y-138390000D01*
X74829569Y-138390000D01*
X74849167Y-138513738D01*
X74906045Y-138625368D01*
X74994631Y-138713954D01*
X74994633Y-138713955D01*
X75106260Y-138770832D01*
X75168129Y-138780630D01*
X75229999Y-138790430D01*
X75229999Y-138790429D01*
X75230000Y-138790430D01*
X75353740Y-138770832D01*
X75465367Y-138713955D01*
X75553955Y-138625367D01*
X75610832Y-138513740D01*
X75630430Y-138390000D01*
X75627262Y-138370000D01*
X79029569Y-138370000D01*
X79049167Y-138493738D01*
X79106045Y-138605368D01*
X79194631Y-138693954D01*
X79194633Y-138693955D01*
X79306260Y-138750832D01*
X79368129Y-138760630D01*
X79429999Y-138770430D01*
X79429999Y-138770429D01*
X79430000Y-138770430D01*
X79553740Y-138750832D01*
X79665367Y-138693955D01*
X79753955Y-138605367D01*
X79810832Y-138493740D01*
X79830430Y-138370000D01*
X79810832Y-138246260D01*
X79753955Y-138134633D01*
X79753954Y-138134631D01*
X79665368Y-138046045D01*
X79653504Y-138040000D01*
X86244662Y-138040000D01*
X86263917Y-138173920D01*
X86320118Y-138296984D01*
X86320119Y-138296985D01*
X86320120Y-138296987D01*
X86408720Y-138399236D01*
X86522537Y-138472383D01*
X86652352Y-138510500D01*
X86787648Y-138510500D01*
X86917463Y-138472383D01*
X87031280Y-138399236D01*
X87119880Y-138296987D01*
X87176083Y-138173918D01*
X87195338Y-138040000D01*
X87176083Y-137906082D01*
X87119880Y-137783013D01*
X87031280Y-137680764D01*
X87031279Y-137680763D01*
X86917463Y-137607617D01*
X86787648Y-137569500D01*
X86652352Y-137569500D01*
X86522536Y-137607617D01*
X86408720Y-137680763D01*
X86320118Y-137783015D01*
X86263917Y-137906079D01*
X86244662Y-138040000D01*
X79653504Y-138040000D01*
X79553738Y-137989167D01*
X79429999Y-137969569D01*
X79306261Y-137989167D01*
X79194631Y-138046045D01*
X79106045Y-138134631D01*
X79049167Y-138246261D01*
X79029569Y-138370000D01*
X75627262Y-138370000D01*
X75610832Y-138266260D01*
X75553955Y-138154633D01*
X75553954Y-138154631D01*
X75465368Y-138066045D01*
X75353738Y-138009167D01*
X75229999Y-137989569D01*
X75106261Y-138009167D01*
X74994631Y-138066045D01*
X74906045Y-138154631D01*
X74849167Y-138266261D01*
X74829569Y-138390000D01*
X66590499Y-138390000D01*
X66590499Y-136440000D01*
X80529569Y-136440000D01*
X80549167Y-136563738D01*
X80606045Y-136675368D01*
X80694631Y-136763954D01*
X80694633Y-136763955D01*
X80806260Y-136820832D01*
X80930000Y-136840430D01*
X81053740Y-136820832D01*
X81165367Y-136763955D01*
X81253955Y-136675367D01*
X81310832Y-136563740D01*
X81330430Y-136440000D01*
X81310832Y-136316260D01*
X81253955Y-136204633D01*
X81253954Y-136204631D01*
X81199323Y-136150000D01*
X83414662Y-136150000D01*
X83433917Y-136283920D01*
X83490118Y-136406984D01*
X83490119Y-136406985D01*
X83490120Y-136406987D01*
X83578720Y-136509236D01*
X83692537Y-136582383D01*
X83822352Y-136620500D01*
X83957648Y-136620500D01*
X84087463Y-136582383D01*
X84201280Y-136509236D01*
X84289880Y-136406987D01*
X84346083Y-136283918D01*
X84350960Y-136250000D01*
X85824662Y-136250000D01*
X85843917Y-136383920D01*
X85900118Y-136506984D01*
X85900119Y-136506985D01*
X85900120Y-136506987D01*
X85988720Y-136609236D01*
X86102537Y-136682383D01*
X86232352Y-136720500D01*
X86367648Y-136720500D01*
X86497463Y-136682383D01*
X86611280Y-136609236D01*
X86699880Y-136506987D01*
X86756083Y-136383918D01*
X86775338Y-136250000D01*
X86756083Y-136116082D01*
X86699880Y-135993013D01*
X86611280Y-135890764D01*
X86611279Y-135890763D01*
X86497463Y-135817617D01*
X86367648Y-135779500D01*
X86232352Y-135779500D01*
X86102536Y-135817617D01*
X85988720Y-135890763D01*
X85900118Y-135993015D01*
X85843917Y-136116079D01*
X85824662Y-136250000D01*
X84350960Y-136250000D01*
X84365338Y-136150000D01*
X84346083Y-136016082D01*
X84289880Y-135893013D01*
X84201280Y-135790764D01*
X84201279Y-135790763D01*
X84087463Y-135717617D01*
X83957648Y-135679500D01*
X83822352Y-135679500D01*
X83692536Y-135717617D01*
X83578720Y-135790763D01*
X83490118Y-135893015D01*
X83433917Y-136016079D01*
X83414662Y-136150000D01*
X81199323Y-136150000D01*
X81165368Y-136116045D01*
X81053738Y-136059167D01*
X80930000Y-136039569D01*
X80806261Y-136059167D01*
X80694631Y-136116045D01*
X80606045Y-136204631D01*
X80549167Y-136316261D01*
X80529569Y-136440000D01*
X66590499Y-136440000D01*
X66590499Y-135320000D01*
X81359569Y-135320000D01*
X81379167Y-135443738D01*
X81436045Y-135555368D01*
X81524631Y-135643954D01*
X81524633Y-135643955D01*
X81636260Y-135700832D01*
X81760000Y-135720430D01*
X81883740Y-135700832D01*
X81995367Y-135643955D01*
X82083955Y-135555367D01*
X82140832Y-135443740D01*
X82160430Y-135320000D01*
X82140832Y-135196260D01*
X82083955Y-135084633D01*
X82083954Y-135084631D01*
X81995368Y-134996045D01*
X81883738Y-134939167D01*
X81760000Y-134919569D01*
X81636261Y-134939167D01*
X81524631Y-134996045D01*
X81436045Y-135084631D01*
X81379167Y-135196261D01*
X81359569Y-135320000D01*
X66590499Y-135320000D01*
X66590499Y-133960000D01*
X79759569Y-133960000D01*
X79779167Y-134083738D01*
X79836045Y-134195368D01*
X79924631Y-134283954D01*
X79924633Y-134283955D01*
X80036260Y-134340832D01*
X80160000Y-134360430D01*
X80283740Y-134340832D01*
X80395367Y-134283955D01*
X80483955Y-134195367D01*
X80540832Y-134083740D01*
X80560430Y-133960000D01*
X80540832Y-133836260D01*
X80483955Y-133724633D01*
X80483954Y-133724631D01*
X80395368Y-133636045D01*
X80283738Y-133579167D01*
X80160000Y-133559569D01*
X80036261Y-133579167D01*
X79924631Y-133636045D01*
X79836045Y-133724631D01*
X79779167Y-133836261D01*
X79759569Y-133960000D01*
X66590499Y-133960000D01*
X66590499Y-133470000D01*
X78789569Y-133470000D01*
X78809167Y-133593738D01*
X78866045Y-133705368D01*
X78954631Y-133793954D01*
X78954633Y-133793955D01*
X79066260Y-133850832D01*
X79128129Y-133860630D01*
X79189999Y-133870430D01*
X79189999Y-133870429D01*
X79190000Y-133870430D01*
X79313740Y-133850832D01*
X79425367Y-133793955D01*
X79513955Y-133705367D01*
X79570832Y-133593740D01*
X79590430Y-133470000D01*
X79570832Y-133346260D01*
X79513955Y-133234633D01*
X79513954Y-133234631D01*
X79425368Y-133146045D01*
X79313738Y-133089167D01*
X79189999Y-133069569D01*
X79066261Y-133089167D01*
X78954631Y-133146045D01*
X78866045Y-133234631D01*
X78809167Y-133346261D01*
X78789569Y-133470000D01*
X66590499Y-133470000D01*
X66590499Y-132440000D01*
X73579569Y-132440000D01*
X73599167Y-132563738D01*
X73656045Y-132675368D01*
X73744631Y-132763954D01*
X73744633Y-132763955D01*
X73856260Y-132820832D01*
X73980000Y-132840430D01*
X74103740Y-132820832D01*
X74215367Y-132763955D01*
X74303955Y-132675367D01*
X74344469Y-132595853D01*
X74392443Y-132545057D01*
X74460264Y-132528262D01*
X74526399Y-132550799D01*
X74569851Y-132605514D01*
X74577427Y-132632750D01*
X74579167Y-132643738D01*
X74636045Y-132755368D01*
X74724631Y-132843954D01*
X74724633Y-132843955D01*
X74836260Y-132900832D01*
X74960000Y-132920430D01*
X75083740Y-132900832D01*
X75195367Y-132843955D01*
X75283955Y-132755367D01*
X75340832Y-132643740D01*
X75360430Y-132520000D01*
X75340832Y-132396260D01*
X75283955Y-132284633D01*
X75283954Y-132284631D01*
X75195368Y-132196045D01*
X75083738Y-132139167D01*
X74960000Y-132119569D01*
X74836261Y-132139167D01*
X74724631Y-132196045D01*
X74636044Y-132284632D01*
X74595529Y-132364147D01*
X74547555Y-132414942D01*
X74479734Y-132431737D01*
X74413599Y-132409199D01*
X74370148Y-132354484D01*
X74362573Y-132327254D01*
X74360832Y-132316260D01*
X74303955Y-132204633D01*
X74303954Y-132204631D01*
X74215368Y-132116045D01*
X74103738Y-132059167D01*
X73980000Y-132039569D01*
X73856261Y-132059167D01*
X73744631Y-132116045D01*
X73656045Y-132204631D01*
X73599167Y-132316261D01*
X73579569Y-132440000D01*
X66590499Y-132440000D01*
X66590499Y-131790000D01*
X69479569Y-131790000D01*
X69499167Y-131913738D01*
X69556045Y-132025368D01*
X69644631Y-132113954D01*
X69644633Y-132113955D01*
X69756260Y-132170832D01*
X69880000Y-132190430D01*
X70003740Y-132170832D01*
X70115367Y-132113955D01*
X70203955Y-132025367D01*
X70260832Y-131913740D01*
X70280430Y-131790000D01*
X70260832Y-131666260D01*
X70203955Y-131554633D01*
X70203954Y-131554631D01*
X70115368Y-131466045D01*
X70003738Y-131409167D01*
X69880000Y-131389569D01*
X69756261Y-131409167D01*
X69644631Y-131466045D01*
X69556045Y-131554631D01*
X69499167Y-131666261D01*
X69479569Y-131790000D01*
X66590499Y-131790000D01*
X66590499Y-131270000D01*
X88958069Y-131270000D01*
X88977667Y-131393738D01*
X89034545Y-131505368D01*
X89123131Y-131593954D01*
X89123133Y-131593955D01*
X89234760Y-131650832D01*
X89358500Y-131670430D01*
X89482240Y-131650832D01*
X89593867Y-131593955D01*
X89682455Y-131505367D01*
X89739332Y-131393740D01*
X89758930Y-131270000D01*
X89739332Y-131146260D01*
X89682455Y-131034633D01*
X89682454Y-131034631D01*
X89593868Y-130946045D01*
X89482238Y-130889167D01*
X89358500Y-130869569D01*
X89234761Y-130889167D01*
X89123131Y-130946045D01*
X89034545Y-131034631D01*
X88977667Y-131146261D01*
X88958069Y-131270000D01*
X66590499Y-131270000D01*
X66590499Y-129219999D01*
X71499569Y-129219999D01*
X71519167Y-129343738D01*
X71576045Y-129455368D01*
X71664631Y-129543954D01*
X71664633Y-129543955D01*
X71776260Y-129600832D01*
X71825864Y-129608688D01*
X71883046Y-129617745D01*
X71946181Y-129647674D01*
X71983113Y-129706985D01*
X71982115Y-129776848D01*
X71974135Y-129796511D01*
X71969167Y-129806260D01*
X71949569Y-129930000D01*
X71969167Y-130053738D01*
X72026045Y-130165368D01*
X72114631Y-130253954D01*
X72114633Y-130253955D01*
X72226260Y-130310832D01*
X72288129Y-130320630D01*
X72349999Y-130330430D01*
X72349999Y-130330429D01*
X72350000Y-130330430D01*
X72473740Y-130310832D01*
X72585367Y-130253955D01*
X72673955Y-130165367D01*
X72730832Y-130053740D01*
X72750430Y-129930000D01*
X72730832Y-129806260D01*
X72673955Y-129694633D01*
X72673954Y-129694631D01*
X72585368Y-129606045D01*
X72473738Y-129549167D01*
X72366952Y-129532254D01*
X72303817Y-129502325D01*
X72266886Y-129443013D01*
X72267884Y-129373151D01*
X72275864Y-129353489D01*
X72280832Y-129343740D01*
X72300430Y-129220000D01*
X72280832Y-129096260D01*
X72280832Y-129096259D01*
X72217186Y-128971346D01*
X72204290Y-128902677D01*
X72230567Y-128837937D01*
X72287673Y-128797680D01*
X72357479Y-128794688D01*
X72383961Y-128804565D01*
X72396260Y-128810832D01*
X72520000Y-128830430D01*
X72643740Y-128810832D01*
X72755367Y-128753955D01*
X72843955Y-128665367D01*
X72900832Y-128553740D01*
X72920430Y-128430000D01*
X72900832Y-128306260D01*
X72843955Y-128194633D01*
X72843954Y-128194631D01*
X72755368Y-128106045D01*
X72643738Y-128049167D01*
X72520000Y-128029569D01*
X72396261Y-128049167D01*
X72284631Y-128106045D01*
X72196045Y-128194631D01*
X72139167Y-128306261D01*
X72119569Y-128430000D01*
X72139167Y-128553740D01*
X72202813Y-128678653D01*
X72215709Y-128747322D01*
X72189432Y-128812062D01*
X72132326Y-128852319D01*
X72062520Y-128855311D01*
X72036033Y-128845431D01*
X72023741Y-128839167D01*
X71900000Y-128819569D01*
X71776261Y-128839167D01*
X71664631Y-128896045D01*
X71576045Y-128984631D01*
X71519167Y-129096261D01*
X71499569Y-129219999D01*
X66590499Y-129219999D01*
X66590499Y-127699999D01*
X76779569Y-127699999D01*
X76799167Y-127823738D01*
X76856045Y-127935368D01*
X76944631Y-128023954D01*
X76944633Y-128023955D01*
X77056260Y-128080832D01*
X77180000Y-128100430D01*
X77303740Y-128080832D01*
X77415367Y-128023955D01*
X77503955Y-127935367D01*
X77560832Y-127823740D01*
X77575679Y-127730000D01*
X78779569Y-127730000D01*
X78799167Y-127853738D01*
X78856045Y-127965368D01*
X78944631Y-128053954D01*
X78944633Y-128053955D01*
X79056260Y-128110832D01*
X79180000Y-128130430D01*
X79303740Y-128110832D01*
X79415367Y-128053955D01*
X79503955Y-127965367D01*
X79529372Y-127915483D01*
X81165052Y-127915483D01*
X81184650Y-128039221D01*
X81241528Y-128150851D01*
X81330114Y-128239437D01*
X81330116Y-128239438D01*
X81441743Y-128296315D01*
X81565483Y-128315913D01*
X81689223Y-128296315D01*
X81800850Y-128239438D01*
X81889438Y-128150850D01*
X81946315Y-128039223D01*
X81965913Y-127915483D01*
X81946315Y-127791743D01*
X81889438Y-127680116D01*
X81889437Y-127680114D01*
X81800851Y-127591528D01*
X81689221Y-127534650D01*
X81565483Y-127515052D01*
X81441744Y-127534650D01*
X81330114Y-127591528D01*
X81241528Y-127680114D01*
X81184650Y-127791744D01*
X81165052Y-127915483D01*
X79529372Y-127915483D01*
X79560832Y-127853740D01*
X79580430Y-127730000D01*
X79560832Y-127606260D01*
X79503955Y-127494633D01*
X79503954Y-127494631D01*
X79415368Y-127406045D01*
X79303738Y-127349167D01*
X79180000Y-127329569D01*
X79056261Y-127349167D01*
X78944631Y-127406045D01*
X78856045Y-127494631D01*
X78799167Y-127606261D01*
X78779569Y-127730000D01*
X77575679Y-127730000D01*
X77580430Y-127700000D01*
X77560832Y-127576260D01*
X77503955Y-127464633D01*
X77503954Y-127464631D01*
X77415368Y-127376045D01*
X77303738Y-127319167D01*
X77180000Y-127299569D01*
X77056261Y-127319167D01*
X76944631Y-127376045D01*
X76856045Y-127464631D01*
X76799167Y-127576261D01*
X76779569Y-127699999D01*
X66590499Y-127699999D01*
X66590499Y-127150000D01*
X73899569Y-127150000D01*
X73919167Y-127273738D01*
X73976045Y-127385368D01*
X74064631Y-127473954D01*
X74064633Y-127473955D01*
X74176260Y-127530832D01*
X74300000Y-127550430D01*
X74423740Y-127530832D01*
X74535367Y-127473955D01*
X74623955Y-127385367D01*
X74680832Y-127273740D01*
X74700430Y-127150000D01*
X74680832Y-127026260D01*
X74623955Y-126914633D01*
X74623954Y-126914631D01*
X74535368Y-126826045D01*
X74423738Y-126769167D01*
X74300000Y-126749569D01*
X74176261Y-126769167D01*
X74064631Y-126826045D01*
X73976045Y-126914631D01*
X73919167Y-127026261D01*
X73899569Y-127150000D01*
X66590499Y-127150000D01*
X66590499Y-126585000D01*
X77234662Y-126585000D01*
X77253917Y-126718920D01*
X77310118Y-126841984D01*
X77310119Y-126841985D01*
X77310120Y-126841987D01*
X77398720Y-126944236D01*
X77512537Y-127017383D01*
X77642352Y-127055500D01*
X77777648Y-127055500D01*
X77907463Y-127017383D01*
X78021280Y-126944236D01*
X78109880Y-126841987D01*
X78166083Y-126718918D01*
X78185338Y-126585000D01*
X78509662Y-126585000D01*
X78528917Y-126718920D01*
X78585118Y-126841984D01*
X78585119Y-126841985D01*
X78585120Y-126841987D01*
X78673720Y-126944236D01*
X78787537Y-127017383D01*
X78917352Y-127055500D01*
X79052648Y-127055500D01*
X79182463Y-127017383D01*
X79296280Y-126944236D01*
X79384880Y-126841987D01*
X79441083Y-126718918D01*
X79460338Y-126585000D01*
X79460338Y-126584999D01*
X79784662Y-126584999D01*
X79803917Y-126718920D01*
X79860118Y-126841984D01*
X79860119Y-126841985D01*
X79860120Y-126841987D01*
X79948720Y-126944236D01*
X80062537Y-127017383D01*
X80192352Y-127055500D01*
X80327648Y-127055500D01*
X80457463Y-127017383D01*
X80571280Y-126944236D01*
X80659880Y-126841987D01*
X80716083Y-126718918D01*
X80735338Y-126585000D01*
X80716083Y-126451082D01*
X80659880Y-126328013D01*
X80571280Y-126225764D01*
X80571279Y-126225763D01*
X80457463Y-126152617D01*
X80327648Y-126114500D01*
X80192352Y-126114500D01*
X80062536Y-126152617D01*
X79948720Y-126225763D01*
X79860118Y-126328015D01*
X79803917Y-126451079D01*
X79784662Y-126584999D01*
X79460338Y-126584999D01*
X79441083Y-126451082D01*
X79384880Y-126328013D01*
X79296280Y-126225764D01*
X79296279Y-126225763D01*
X79182463Y-126152617D01*
X79052648Y-126114500D01*
X78917352Y-126114500D01*
X78787536Y-126152617D01*
X78673720Y-126225763D01*
X78585118Y-126328015D01*
X78528917Y-126451079D01*
X78509662Y-126585000D01*
X78185338Y-126585000D01*
X78166083Y-126451082D01*
X78109880Y-126328013D01*
X78021280Y-126225764D01*
X78021279Y-126225763D01*
X77907463Y-126152617D01*
X77777648Y-126114500D01*
X77642352Y-126114500D01*
X77512536Y-126152617D01*
X77398720Y-126225763D01*
X77310118Y-126328015D01*
X77253917Y-126451079D01*
X77234662Y-126585000D01*
X66590499Y-126585000D01*
X66590499Y-125395000D01*
X71714569Y-125395000D01*
X71734167Y-125518738D01*
X71791045Y-125630368D01*
X71879631Y-125718954D01*
X71879633Y-125718955D01*
X71991260Y-125775832D01*
X72115000Y-125795430D01*
X72238740Y-125775832D01*
X72350367Y-125718955D01*
X72438955Y-125630367D01*
X72495832Y-125518740D01*
X72515430Y-125395000D01*
X72501968Y-125310000D01*
X77234662Y-125310000D01*
X77235005Y-125312383D01*
X77253917Y-125443920D01*
X77310118Y-125566984D01*
X77310119Y-125566985D01*
X77310120Y-125566987D01*
X77398720Y-125669236D01*
X77512537Y-125742383D01*
X77642352Y-125780500D01*
X77777648Y-125780500D01*
X77907463Y-125742383D01*
X78021280Y-125669236D01*
X78109880Y-125566987D01*
X78166083Y-125443918D01*
X78185338Y-125310000D01*
X78509662Y-125310000D01*
X78528917Y-125443920D01*
X78585118Y-125566984D01*
X78585119Y-125566985D01*
X78585120Y-125566987D01*
X78673720Y-125669236D01*
X78787537Y-125742383D01*
X78917352Y-125780500D01*
X79052648Y-125780500D01*
X79182463Y-125742383D01*
X79296280Y-125669236D01*
X79384880Y-125566987D01*
X79441083Y-125443918D01*
X79460338Y-125310000D01*
X79784662Y-125310000D01*
X79803917Y-125443920D01*
X79860118Y-125566984D01*
X79860119Y-125566985D01*
X79860120Y-125566987D01*
X79948720Y-125669236D01*
X80062537Y-125742383D01*
X80192352Y-125780500D01*
X80327648Y-125780500D01*
X80457463Y-125742383D01*
X80571280Y-125669236D01*
X80659880Y-125566987D01*
X80691429Y-125497902D01*
X80737182Y-125445099D01*
X80804222Y-125425414D01*
X80871261Y-125445098D01*
X80914707Y-125493117D01*
X80926044Y-125515367D01*
X81014632Y-125603955D01*
X81030920Y-125612254D01*
X81081716Y-125660228D01*
X81098512Y-125728049D01*
X81085111Y-125779033D01*
X81040667Y-125866259D01*
X81021069Y-125990000D01*
X81040667Y-126113738D01*
X81097545Y-126225368D01*
X81186131Y-126313954D01*
X81186133Y-126313955D01*
X81297760Y-126370832D01*
X81421500Y-126390430D01*
X81545240Y-126370832D01*
X81656867Y-126313955D01*
X81745455Y-126225367D01*
X81802332Y-126113740D01*
X81815595Y-126030000D01*
X83999569Y-126030000D01*
X84019167Y-126153738D01*
X84076045Y-126265368D01*
X84164631Y-126353954D01*
X84164633Y-126353955D01*
X84276260Y-126410832D01*
X84400000Y-126430430D01*
X84523740Y-126410832D01*
X84635367Y-126353955D01*
X84723955Y-126265367D01*
X84780832Y-126153740D01*
X84800430Y-126030000D01*
X84780832Y-125906260D01*
X84723955Y-125794633D01*
X84723954Y-125794631D01*
X84635368Y-125706045D01*
X84523738Y-125649167D01*
X84400000Y-125629569D01*
X84276261Y-125649167D01*
X84164631Y-125706045D01*
X84076045Y-125794631D01*
X84019167Y-125906261D01*
X83999569Y-126030000D01*
X81815595Y-126030000D01*
X81821930Y-125990000D01*
X81802332Y-125866260D01*
X81745455Y-125754633D01*
X81745454Y-125754631D01*
X81656867Y-125666044D01*
X81640578Y-125657745D01*
X81589782Y-125609771D01*
X81572986Y-125541951D01*
X81586386Y-125490968D01*
X81630832Y-125403740D01*
X81650430Y-125280000D01*
X81630832Y-125156260D01*
X81573955Y-125044633D01*
X81573954Y-125044631D01*
X81485368Y-124956045D01*
X81373738Y-124899167D01*
X81250000Y-124879569D01*
X81126261Y-124899167D01*
X81014631Y-124956045D01*
X80926045Y-125044631D01*
X80900259Y-125095240D01*
X80852284Y-125146036D01*
X80784463Y-125162831D01*
X80718328Y-125140293D01*
X80676980Y-125090456D01*
X80659881Y-125053015D01*
X80659880Y-125053014D01*
X80659880Y-125053013D01*
X80571280Y-124950764D01*
X80571279Y-124950763D01*
X80457463Y-124877617D01*
X80327648Y-124839500D01*
X80192352Y-124839500D01*
X80062536Y-124877617D01*
X79948720Y-124950763D01*
X79860118Y-125053015D01*
X79803917Y-125176079D01*
X79784662Y-125310000D01*
X79460338Y-125310000D01*
X79441083Y-125176082D01*
X79433570Y-125159631D01*
X79384881Y-125053015D01*
X79384880Y-125053014D01*
X79384880Y-125053013D01*
X79296280Y-124950764D01*
X79296279Y-124950763D01*
X79182463Y-124877617D01*
X79052648Y-124839500D01*
X78917352Y-124839500D01*
X78787536Y-124877617D01*
X78673720Y-124950763D01*
X78585118Y-125053015D01*
X78528917Y-125176079D01*
X78509662Y-125310000D01*
X78185338Y-125310000D01*
X78166083Y-125176082D01*
X78158570Y-125159631D01*
X78109881Y-125053015D01*
X78109880Y-125053014D01*
X78109880Y-125053013D01*
X78021280Y-124950764D01*
X78021279Y-124950763D01*
X77907463Y-124877617D01*
X77777648Y-124839500D01*
X77642352Y-124839500D01*
X77512536Y-124877617D01*
X77398720Y-124950763D01*
X77310118Y-125053015D01*
X77253917Y-125176079D01*
X77240232Y-125271260D01*
X77234662Y-125310000D01*
X72501968Y-125310000D01*
X72495832Y-125271260D01*
X72438955Y-125159633D01*
X72438954Y-125159631D01*
X72350368Y-125071045D01*
X72238738Y-125014167D01*
X72115000Y-124994569D01*
X71991261Y-125014167D01*
X71879631Y-125071045D01*
X71791045Y-125159631D01*
X71734167Y-125271261D01*
X71714569Y-125395000D01*
X66590499Y-125395000D01*
X66590499Y-123770000D01*
X71739569Y-123770000D01*
X71759167Y-123893738D01*
X71816045Y-124005368D01*
X71904631Y-124093954D01*
X71904633Y-124093955D01*
X72016260Y-124150832D01*
X72140000Y-124170430D01*
X72263740Y-124150832D01*
X72375367Y-124093955D01*
X72463955Y-124005367D01*
X72520832Y-123893740D01*
X72540430Y-123770000D01*
X72535678Y-123739999D01*
X76289569Y-123739999D01*
X76309167Y-123863738D01*
X76366045Y-123975368D01*
X76454631Y-124063954D01*
X76454633Y-124063955D01*
X76566260Y-124120832D01*
X76690000Y-124140430D01*
X76813740Y-124120832D01*
X76925367Y-124063955D01*
X77013955Y-123975367D01*
X77013956Y-123975364D01*
X77024256Y-123965065D01*
X77085579Y-123931580D01*
X77155271Y-123936564D01*
X77211205Y-123978435D01*
X77234676Y-124035099D01*
X77253916Y-124168920D01*
X77310118Y-124291984D01*
X77310119Y-124291985D01*
X77310120Y-124291987D01*
X77398720Y-124394236D01*
X77512537Y-124467383D01*
X77642352Y-124505500D01*
X77777648Y-124505500D01*
X77907463Y-124467383D01*
X78021280Y-124394236D01*
X78109880Y-124291987D01*
X78166083Y-124168918D01*
X78185338Y-124035000D01*
X78185338Y-124034999D01*
X78509662Y-124034999D01*
X78528917Y-124168920D01*
X78585118Y-124291984D01*
X78585119Y-124291985D01*
X78585120Y-124291987D01*
X78673720Y-124394236D01*
X78787537Y-124467383D01*
X78917352Y-124505500D01*
X79052648Y-124505500D01*
X79182463Y-124467383D01*
X79296280Y-124394236D01*
X79384880Y-124291987D01*
X79441083Y-124168918D01*
X79460338Y-124035000D01*
X79460338Y-124034999D01*
X79784662Y-124034999D01*
X79803917Y-124168920D01*
X79860118Y-124291984D01*
X79860119Y-124291985D01*
X79860120Y-124291987D01*
X79948720Y-124394236D01*
X80062537Y-124467383D01*
X80192352Y-124505500D01*
X80327648Y-124505500D01*
X80414493Y-124480000D01*
X85179569Y-124480000D01*
X85199167Y-124603738D01*
X85256045Y-124715368D01*
X85344631Y-124803954D01*
X85344633Y-124803955D01*
X85456260Y-124860832D01*
X85580000Y-124880430D01*
X85703740Y-124860832D01*
X85771273Y-124826421D01*
X85839941Y-124813525D01*
X85904682Y-124839801D01*
X85944939Y-124896907D01*
X85950306Y-124919258D01*
X85963917Y-125013920D01*
X86020118Y-125136984D01*
X86020119Y-125136985D01*
X86020120Y-125136987D01*
X86108720Y-125239236D01*
X86222537Y-125312383D01*
X86352352Y-125350500D01*
X86487648Y-125350500D01*
X86617463Y-125312383D01*
X86731280Y-125239236D01*
X86819880Y-125136987D01*
X86876083Y-125013918D01*
X86895338Y-124880000D01*
X86876083Y-124746082D01*
X86819880Y-124623013D01*
X86731280Y-124520764D01*
X86731279Y-124520763D01*
X86617463Y-124447617D01*
X86487648Y-124409500D01*
X86352352Y-124409500D01*
X86222536Y-124447617D01*
X86157940Y-124489131D01*
X86090900Y-124508816D01*
X86023861Y-124489132D01*
X85978106Y-124436328D01*
X85968427Y-124404213D01*
X85960832Y-124356261D01*
X85960832Y-124356260D01*
X85903955Y-124244633D01*
X85903954Y-124244631D01*
X85815368Y-124156045D01*
X85703738Y-124099167D01*
X85580000Y-124079569D01*
X85456261Y-124099167D01*
X85344631Y-124156045D01*
X85256045Y-124244631D01*
X85199167Y-124356261D01*
X85179569Y-124480000D01*
X80414493Y-124480000D01*
X80457463Y-124467383D01*
X80571280Y-124394236D01*
X80659880Y-124291987D01*
X80716083Y-124168918D01*
X80735338Y-124035000D01*
X80716083Y-123901082D01*
X80712729Y-123893738D01*
X80659881Y-123778015D01*
X80659880Y-123778014D01*
X80659880Y-123778013D01*
X80571280Y-123675764D01*
X80571279Y-123675763D01*
X80457463Y-123602617D01*
X80327648Y-123564500D01*
X80192352Y-123564500D01*
X80062536Y-123602617D01*
X79948720Y-123675763D01*
X79860118Y-123778015D01*
X79803917Y-123901079D01*
X79784662Y-124034999D01*
X79460338Y-124034999D01*
X79441083Y-123901082D01*
X79437729Y-123893738D01*
X79384881Y-123778015D01*
X79384880Y-123778014D01*
X79384880Y-123778013D01*
X79296280Y-123675764D01*
X79296279Y-123675763D01*
X79182463Y-123602617D01*
X79052648Y-123564500D01*
X78917352Y-123564500D01*
X78787536Y-123602617D01*
X78673720Y-123675763D01*
X78585118Y-123778015D01*
X78528917Y-123901079D01*
X78509662Y-124034999D01*
X78185338Y-124034999D01*
X78166083Y-123901082D01*
X78162729Y-123893738D01*
X78109881Y-123778015D01*
X78109880Y-123778014D01*
X78109880Y-123778013D01*
X78021280Y-123675764D01*
X78021279Y-123675763D01*
X77907463Y-123602617D01*
X77883225Y-123595500D01*
X77824447Y-123557725D01*
X77807219Y-123520000D01*
X83379569Y-123520000D01*
X83399167Y-123643738D01*
X83456045Y-123755368D01*
X83544631Y-123843954D01*
X83544633Y-123843955D01*
X83656260Y-123900832D01*
X83780000Y-123920430D01*
X83903740Y-123900832D01*
X84015367Y-123843955D01*
X84103955Y-123755367D01*
X84160832Y-123643740D01*
X84180430Y-123520000D01*
X84160832Y-123396260D01*
X84103955Y-123284633D01*
X84103954Y-123284631D01*
X84015368Y-123196045D01*
X83903738Y-123139167D01*
X83780000Y-123119569D01*
X83656261Y-123139167D01*
X83544631Y-123196045D01*
X83456045Y-123284631D01*
X83399167Y-123396261D01*
X83379569Y-123520000D01*
X77807219Y-123520000D01*
X77795423Y-123494169D01*
X77805367Y-123425011D01*
X77830477Y-123388844D01*
X77893955Y-123325367D01*
X77950832Y-123213740D01*
X77953090Y-123199486D01*
X77983019Y-123136351D01*
X78042330Y-123099419D01*
X78112193Y-123100417D01*
X78131858Y-123108398D01*
X78156260Y-123120832D01*
X78280000Y-123140430D01*
X78403740Y-123120832D01*
X78515367Y-123063955D01*
X78603955Y-122975367D01*
X78660832Y-122863740D01*
X78680430Y-122740000D01*
X78660832Y-122616260D01*
X78603955Y-122504633D01*
X78603954Y-122504631D01*
X78515368Y-122416045D01*
X78403738Y-122359167D01*
X78280000Y-122339569D01*
X78156261Y-122359167D01*
X78044631Y-122416045D01*
X77956045Y-122504631D01*
X77899167Y-122616261D01*
X77896909Y-122630518D01*
X77866977Y-122693651D01*
X77807665Y-122730581D01*
X77737802Y-122729581D01*
X77718141Y-122721601D01*
X77693738Y-122709167D01*
X77570000Y-122689569D01*
X77446259Y-122709167D01*
X77339260Y-122763686D01*
X77270591Y-122776582D01*
X77205851Y-122750305D01*
X77172481Y-122709496D01*
X77113954Y-122594631D01*
X77025368Y-122506045D01*
X76913738Y-122449167D01*
X76789999Y-122429569D01*
X76666261Y-122449167D01*
X76554631Y-122506045D01*
X76466045Y-122594631D01*
X76409167Y-122706261D01*
X76389569Y-122830000D01*
X76409167Y-122953738D01*
X76466045Y-123065368D01*
X76568520Y-123167843D01*
X76566758Y-123169604D01*
X76595775Y-123197004D01*
X76612576Y-123264824D01*
X76590043Y-123330961D01*
X76544984Y-123370008D01*
X76454631Y-123416045D01*
X76366045Y-123504631D01*
X76309167Y-123616261D01*
X76289569Y-123739999D01*
X72535678Y-123739999D01*
X72520832Y-123646260D01*
X72463955Y-123534633D01*
X72463954Y-123534631D01*
X72375368Y-123446045D01*
X72263738Y-123389167D01*
X72140000Y-123369569D01*
X72016261Y-123389167D01*
X71904631Y-123446045D01*
X71816045Y-123534631D01*
X71759167Y-123646261D01*
X71739569Y-123770000D01*
X66590499Y-123770000D01*
X66590499Y-121880000D01*
X75189569Y-121880000D01*
X75209167Y-122003738D01*
X75266045Y-122115368D01*
X75354631Y-122203954D01*
X75354633Y-122203955D01*
X75466260Y-122260832D01*
X75528130Y-122270631D01*
X75589999Y-122280430D01*
X75589999Y-122280429D01*
X75590000Y-122280430D01*
X75713740Y-122260832D01*
X75825367Y-122203955D01*
X75913955Y-122115367D01*
X75970832Y-122003740D01*
X75990430Y-121880000D01*
X75970832Y-121756260D01*
X75913955Y-121644633D01*
X75913954Y-121644631D01*
X75825368Y-121556045D01*
X75713738Y-121499167D01*
X75589999Y-121479569D01*
X75466261Y-121499167D01*
X75354631Y-121556045D01*
X75266045Y-121644631D01*
X75209167Y-121756261D01*
X75189569Y-121880000D01*
X66590499Y-121880000D01*
X66590499Y-120630000D01*
X76979569Y-120630000D01*
X76999167Y-120753738D01*
X77056045Y-120865368D01*
X77144631Y-120953954D01*
X77144633Y-120953955D01*
X77256260Y-121010832D01*
X77380000Y-121030430D01*
X77503740Y-121010832D01*
X77615367Y-120953955D01*
X77703955Y-120865367D01*
X77752547Y-120770000D01*
X79929569Y-120770000D01*
X79949167Y-120893738D01*
X80006045Y-121005368D01*
X80094631Y-121093954D01*
X80094633Y-121093955D01*
X80206260Y-121150832D01*
X80330000Y-121170430D01*
X80453740Y-121150832D01*
X80565367Y-121093955D01*
X80653955Y-121005367D01*
X80710832Y-120893740D01*
X80730430Y-120770000D01*
X80710832Y-120646260D01*
X80653955Y-120534633D01*
X80653954Y-120534631D01*
X80565368Y-120446045D01*
X80453738Y-120389167D01*
X80330000Y-120369569D01*
X80206261Y-120389167D01*
X80094631Y-120446045D01*
X80006045Y-120534631D01*
X79949167Y-120646261D01*
X79929569Y-120770000D01*
X77752547Y-120770000D01*
X77760832Y-120753740D01*
X77780430Y-120630000D01*
X77760832Y-120506260D01*
X77703955Y-120394633D01*
X77703954Y-120394631D01*
X77615368Y-120306045D01*
X77503738Y-120249167D01*
X77380000Y-120229569D01*
X77256261Y-120249167D01*
X77144631Y-120306045D01*
X77056045Y-120394631D01*
X76999167Y-120506261D01*
X76979569Y-120630000D01*
X66590499Y-120630000D01*
X66590499Y-120219999D01*
X74089569Y-120219999D01*
X74109167Y-120343738D01*
X74166045Y-120455368D01*
X74254631Y-120543954D01*
X74254633Y-120543955D01*
X74366260Y-120600832D01*
X74490000Y-120620430D01*
X74613740Y-120600832D01*
X74725367Y-120543955D01*
X74813955Y-120455367D01*
X74870832Y-120343740D01*
X74890430Y-120220000D01*
X74870832Y-120096260D01*
X74813955Y-119984633D01*
X74813954Y-119984631D01*
X74711480Y-119882157D01*
X74714649Y-119878987D01*
X74690510Y-119856184D01*
X74681553Y-119819999D01*
X78629569Y-119819999D01*
X78649167Y-119943738D01*
X78706045Y-120055368D01*
X78794631Y-120143954D01*
X78794633Y-120143955D01*
X78906260Y-120200832D01*
X78968130Y-120210631D01*
X79029999Y-120220430D01*
X79029999Y-120220429D01*
X79030000Y-120220430D01*
X79153740Y-120200832D01*
X79265367Y-120143955D01*
X79353955Y-120055367D01*
X79410832Y-119943740D01*
X79430430Y-119820000D01*
X79410832Y-119696260D01*
X79353955Y-119584633D01*
X79353954Y-119584631D01*
X79265368Y-119496045D01*
X79153738Y-119439167D01*
X79029999Y-119419569D01*
X78906261Y-119439167D01*
X78794631Y-119496045D01*
X78706045Y-119584631D01*
X78649167Y-119696261D01*
X78629569Y-119819999D01*
X74681553Y-119819999D01*
X74673721Y-119788361D01*
X74696266Y-119722228D01*
X74750985Y-119678782D01*
X74778210Y-119671211D01*
X74811518Y-119665935D01*
X74843740Y-119660832D01*
X74955367Y-119603955D01*
X75043955Y-119515367D01*
X75100832Y-119403740D01*
X75120430Y-119280000D01*
X75100832Y-119156260D01*
X75043955Y-119044633D01*
X75043954Y-119044631D01*
X74955368Y-118956045D01*
X74843738Y-118899167D01*
X74720000Y-118879569D01*
X74596261Y-118899167D01*
X74484631Y-118956045D01*
X74396045Y-119044631D01*
X74339167Y-119156261D01*
X74319569Y-119280000D01*
X74339167Y-119403738D01*
X74396045Y-119515368D01*
X74498520Y-119617843D01*
X74495350Y-119621012D01*
X74519473Y-119643789D01*
X74536279Y-119711607D01*
X74513751Y-119777745D01*
X74459043Y-119821205D01*
X74431791Y-119828788D01*
X74366261Y-119839167D01*
X74254631Y-119896045D01*
X74166045Y-119984631D01*
X74109167Y-120096261D01*
X74089569Y-120219999D01*
X66590499Y-120219999D01*
X66590499Y-118760000D01*
X76169569Y-118760000D01*
X76189167Y-118883738D01*
X76246045Y-118995368D01*
X76334631Y-119083954D01*
X76334633Y-119083955D01*
X76446260Y-119140832D01*
X76570000Y-119160430D01*
X76693740Y-119140832D01*
X76805367Y-119083955D01*
X76893955Y-118995367D01*
X76950832Y-118883740D01*
X76970430Y-118760000D01*
X76950832Y-118636260D01*
X76893955Y-118524633D01*
X76893954Y-118524631D01*
X76805368Y-118436045D01*
X76693738Y-118379167D01*
X76570000Y-118359569D01*
X76446261Y-118379167D01*
X76334631Y-118436045D01*
X76246045Y-118524631D01*
X76189167Y-118636261D01*
X76169569Y-118760000D01*
X66590499Y-118760000D01*
X66590500Y-116289500D01*
X66610185Y-116222461D01*
X66662989Y-116176706D01*
X66714500Y-116165500D01*
X81008920Y-116165500D01*
X81075959Y-116185185D01*
X81121714Y-116237989D01*
X81131658Y-116307147D01*
X81119405Y-116345794D01*
X81119167Y-116346259D01*
X81099569Y-116470000D01*
X81119167Y-116593738D01*
X81176045Y-116705368D01*
X81264632Y-116793955D01*
X81364235Y-116844705D01*
X81415032Y-116892679D01*
X81431827Y-116960500D01*
X81409290Y-117026635D01*
X81364236Y-117065674D01*
X81304633Y-117096043D01*
X81216045Y-117184631D01*
X81159167Y-117296261D01*
X81139569Y-117419999D01*
X81159167Y-117543738D01*
X81216045Y-117655368D01*
X81304631Y-117743954D01*
X81304633Y-117743955D01*
X81416260Y-117800832D01*
X81540000Y-117820430D01*
X81663740Y-117800832D01*
X81775367Y-117743955D01*
X81863955Y-117655367D01*
X81920832Y-117543740D01*
X81940430Y-117420000D01*
X81920832Y-117296260D01*
X81863955Y-117184633D01*
X81863954Y-117184631D01*
X81775368Y-117096045D01*
X81675763Y-117045294D01*
X81624967Y-116997319D01*
X81608172Y-116929498D01*
X81630709Y-116863364D01*
X81675763Y-116824324D01*
X81735367Y-116793955D01*
X81823955Y-116705367D01*
X81880832Y-116593740D01*
X81900430Y-116470000D01*
X81895388Y-116438168D01*
X81880832Y-116346261D01*
X81880832Y-116346260D01*
X81823996Y-116234713D01*
X81811100Y-116166043D01*
X81837376Y-116101303D01*
X81853273Y-116084709D01*
X81875243Y-116065673D01*
X81886439Y-116055076D01*
X81928706Y-115982484D01*
X81948391Y-115915445D01*
X81955500Y-115866000D01*
X81955500Y-104970000D01*
X85914414Y-104970000D01*
X85934737Y-105280076D01*
X85935527Y-105284047D01*
X85935528Y-105284055D01*
X85994567Y-105580863D01*
X85994569Y-105580870D01*
X85995360Y-105584847D01*
X85996660Y-105588678D01*
X85996664Y-105588691D01*
X86093939Y-105875250D01*
X86095245Y-105879097D01*
X86097038Y-105882733D01*
X86097041Y-105882740D01*
X86230886Y-106154153D01*
X86230892Y-106154164D01*
X86232682Y-106157793D01*
X86405321Y-106416165D01*
X86407996Y-106419215D01*
X86408002Y-106419223D01*
X86607533Y-106646744D01*
X86610207Y-106649793D01*
X86613255Y-106652466D01*
X86840776Y-106851997D01*
X86840782Y-106852001D01*
X86843835Y-106854679D01*
X87102207Y-107027318D01*
X87105840Y-107029109D01*
X87105846Y-107029113D01*
X87377259Y-107162958D01*
X87380903Y-107164755D01*
X87592195Y-107236479D01*
X87671308Y-107263335D01*
X87671310Y-107263335D01*
X87675153Y-107264640D01*
X87979924Y-107325263D01*
X88290000Y-107345586D01*
X88600076Y-107325263D01*
X88904847Y-107264640D01*
X89199097Y-107164755D01*
X89477793Y-107027318D01*
X89736165Y-106854679D01*
X89969793Y-106649793D01*
X90174679Y-106416165D01*
X90347318Y-106157793D01*
X90484755Y-105879097D01*
X90584640Y-105584847D01*
X90645263Y-105280076D01*
X90665586Y-104970000D01*
X90645263Y-104659924D01*
X90584640Y-104355153D01*
X90484755Y-104060903D01*
X90355467Y-103798731D01*
X90349113Y-103785846D01*
X90349109Y-103785840D01*
X90347318Y-103782207D01*
X90174679Y-103523835D01*
X90172001Y-103520782D01*
X90171997Y-103520776D01*
X89972466Y-103293255D01*
X89969793Y-103290207D01*
X89960089Y-103281697D01*
X89739223Y-103088002D01*
X89739215Y-103087996D01*
X89736165Y-103085321D01*
X89732783Y-103083061D01*
X89481167Y-102914936D01*
X89481162Y-102914933D01*
X89477793Y-102912682D01*
X89474164Y-102910892D01*
X89474153Y-102910886D01*
X89202740Y-102777041D01*
X89202733Y-102777038D01*
X89199097Y-102775245D01*
X89195250Y-102773939D01*
X88908691Y-102676664D01*
X88908678Y-102676660D01*
X88904847Y-102675360D01*
X88900870Y-102674569D01*
X88900863Y-102674567D01*
X88604055Y-102615528D01*
X88604047Y-102615527D01*
X88600076Y-102614737D01*
X88290000Y-102594414D01*
X88285957Y-102594679D01*
X87983966Y-102614472D01*
X87983964Y-102614472D01*
X87979924Y-102614737D01*
X87975954Y-102615526D01*
X87975944Y-102615528D01*
X87679136Y-102674567D01*
X87679125Y-102674569D01*
X87675153Y-102675360D01*
X87671324Y-102676659D01*
X87671308Y-102676664D01*
X87384749Y-102773939D01*
X87384742Y-102773941D01*
X87380903Y-102775245D01*
X87377271Y-102777035D01*
X87377259Y-102777041D01*
X87105846Y-102910886D01*
X87105828Y-102910895D01*
X87102207Y-102912682D01*
X87098844Y-102914928D01*
X87098832Y-102914936D01*
X86847216Y-103083061D01*
X86847207Y-103083067D01*
X86843835Y-103085321D01*
X86840791Y-103087990D01*
X86840776Y-103088002D01*
X86613255Y-103287533D01*
X86613247Y-103287540D01*
X86610207Y-103290207D01*
X86607540Y-103293247D01*
X86607533Y-103293255D01*
X86408002Y-103520776D01*
X86407990Y-103520791D01*
X86405321Y-103523835D01*
X86403067Y-103527207D01*
X86403061Y-103527216D01*
X86234936Y-103778832D01*
X86234928Y-103778844D01*
X86232682Y-103782207D01*
X86230895Y-103785828D01*
X86230886Y-103785846D01*
X86097041Y-104057259D01*
X86097035Y-104057271D01*
X86095245Y-104060903D01*
X86093941Y-104064742D01*
X86093939Y-104064749D01*
X85996664Y-104351308D01*
X85996659Y-104351324D01*
X85995360Y-104355153D01*
X85994569Y-104359125D01*
X85994567Y-104359136D01*
X85935528Y-104655944D01*
X85935526Y-104655954D01*
X85934737Y-104659924D01*
X85914414Y-104970000D01*
X81955500Y-104970000D01*
X81955500Y-102394500D01*
X81975185Y-102327461D01*
X82027989Y-102281706D01*
X82079500Y-102270500D01*
X88242405Y-102270500D01*
X88286519Y-102270500D01*
X88293472Y-102270695D01*
G37*
%TD.AperFunction*%
%TD*%
%TA.AperFunction,Conductor*%
%TO.N,GND*%
G36*
X81723039Y-102290185D02*
G01*
X81768794Y-102342989D01*
X81780000Y-102394500D01*
X81780000Y-115866000D01*
X81760315Y-115933039D01*
X81707511Y-115978794D01*
X81656000Y-115990000D01*
X66714499Y-115990000D01*
X66647460Y-115970315D01*
X66601705Y-115917511D01*
X66590499Y-115866000D01*
X66590499Y-108800000D01*
X68309685Y-108800000D01*
X68328874Y-108958023D01*
X68385321Y-109106863D01*
X68475748Y-109237870D01*
X68594897Y-109343427D01*
X68594899Y-109343428D01*
X68735849Y-109417404D01*
X68890408Y-109455500D01*
X68890409Y-109455500D01*
X69049591Y-109455500D01*
X69049592Y-109455500D01*
X69204151Y-109417404D01*
X69345101Y-109343428D01*
X69464252Y-109237869D01*
X69554679Y-109106863D01*
X69611126Y-108958023D01*
X69630314Y-108800000D01*
X77069685Y-108800000D01*
X77088874Y-108958023D01*
X77145321Y-109106863D01*
X77235748Y-109237870D01*
X77354897Y-109343427D01*
X77354899Y-109343428D01*
X77495849Y-109417404D01*
X77650408Y-109455500D01*
X77650409Y-109455500D01*
X77809591Y-109455500D01*
X77809592Y-109455500D01*
X77964151Y-109417404D01*
X78105101Y-109343428D01*
X78224252Y-109237869D01*
X78314679Y-109106863D01*
X78371126Y-108958023D01*
X78390314Y-108800000D01*
X78371126Y-108641977D01*
X78314679Y-108493137D01*
X78224252Y-108362131D01*
X78224251Y-108362129D01*
X78105102Y-108256572D01*
X78031126Y-108217747D01*
X77964151Y-108182596D01*
X77809592Y-108144500D01*
X77650408Y-108144500D01*
X77495849Y-108182596D01*
X77495847Y-108182596D01*
X77495847Y-108182597D01*
X77354897Y-108256572D01*
X77235748Y-108362129D01*
X77145321Y-108493136D01*
X77088874Y-108641976D01*
X77069685Y-108800000D01*
X69630314Y-108800000D01*
X69611126Y-108641977D01*
X69554679Y-108493137D01*
X69464252Y-108362131D01*
X69464251Y-108362129D01*
X69345102Y-108256572D01*
X69271126Y-108217747D01*
X69204151Y-108182596D01*
X69049592Y-108144500D01*
X68890408Y-108144500D01*
X68735849Y-108182596D01*
X68735847Y-108182596D01*
X68735847Y-108182597D01*
X68594897Y-108256572D01*
X68475748Y-108362129D01*
X68385321Y-108493136D01*
X68328874Y-108641976D01*
X68309685Y-108800000D01*
X66590499Y-108800000D01*
X66590499Y-104973480D01*
X66590694Y-104966527D01*
X66593654Y-104913827D01*
X66607084Y-104674694D01*
X66608638Y-104660896D01*
X66657015Y-104376167D01*
X66660109Y-104362615D01*
X66731563Y-104114596D01*
X66740061Y-104085096D01*
X66744653Y-104071975D01*
X66855175Y-103805151D01*
X66861195Y-103792651D01*
X67000902Y-103539868D01*
X67008297Y-103528100D01*
X67049842Y-103469548D01*
X67175422Y-103292559D01*
X67184077Y-103281705D01*
X67376534Y-103066346D01*
X67386346Y-103056534D01*
X67601705Y-102864077D01*
X67612559Y-102855422D01*
X67848105Y-102688293D01*
X67859868Y-102680902D01*
X68112651Y-102541195D01*
X68125151Y-102535175D01*
X68391979Y-102424651D01*
X68405096Y-102420061D01*
X68682621Y-102340107D01*
X68696167Y-102337015D01*
X68980898Y-102288638D01*
X68994691Y-102287084D01*
X69286527Y-102270695D01*
X69293481Y-102270500D01*
X81656000Y-102270500D01*
X81723039Y-102290185D01*
G37*
%TD.AperFunction*%
%TD*%
M02*
