%TF.GenerationSoftware,KiCad,Pcbnew,7.0.5-0*%
%TF.CreationDate,2024-02-18T18:21:39-05:00*%
%TF.ProjectId,BITSv5,42495453-7635-42e6-9b69-6361645f7063,2*%
%TF.SameCoordinates,Original*%
%TF.FileFunction,Copper,L4,Bot*%
%TF.FilePolarity,Positive*%
%FSLAX46Y46*%
G04 Gerber Fmt 4.6, Leading zero omitted, Abs format (unit mm)*
G04 Created by KiCad (PCBNEW 7.0.5-0) date 2024-02-18 18:21:39*
%MOMM*%
%LPD*%
G01*
G04 APERTURE LIST*
G04 Aperture macros list*
%AMRoundRect*
0 Rectangle with rounded corners*
0 $1 Rounding radius*
0 $2 $3 $4 $5 $6 $7 $8 $9 X,Y pos of 4 corners*
0 Add a 4 corners polygon primitive as box body*
4,1,4,$2,$3,$4,$5,$6,$7,$8,$9,$2,$3,0*
0 Add four circle primitives for the rounded corners*
1,1,$1+$1,$2,$3*
1,1,$1+$1,$4,$5*
1,1,$1+$1,$6,$7*
1,1,$1+$1,$8,$9*
0 Add four rect primitives between the rounded corners*
20,1,$1+$1,$2,$3,$4,$5,0*
20,1,$1+$1,$4,$5,$6,$7,0*
20,1,$1+$1,$6,$7,$8,$9,0*
20,1,$1+$1,$8,$9,$2,$3,0*%
%AMFreePoly0*
4,1,19,0.500000,-0.750000,0.000000,-0.750000,0.000000,-0.744911,-0.071157,-0.744911,-0.207708,-0.704816,-0.327430,-0.627875,-0.420627,-0.520320,-0.479746,-0.390866,-0.500000,-0.250000,-0.500000,0.250000,-0.479746,0.390866,-0.420627,0.520320,-0.327430,0.627875,-0.207708,0.704816,-0.071157,0.744911,0.000000,0.744911,0.000000,0.750000,0.500000,0.750000,0.500000,-0.750000,0.500000,-0.750000,
$1*%
%AMFreePoly1*
4,1,19,0.000000,0.744911,0.071157,0.744911,0.207708,0.704816,0.327430,0.627875,0.420627,0.520320,0.479746,0.390866,0.500000,0.250000,0.500000,-0.250000,0.479746,-0.390866,0.420627,-0.520320,0.327430,-0.627875,0.207708,-0.704816,0.071157,-0.744911,0.000000,-0.744911,0.000000,-0.750000,-0.500000,-0.750000,-0.500000,0.750000,0.000000,0.750000,0.000000,0.744911,0.000000,0.744911,
$1*%
G04 Aperture macros list end*
%TA.AperFunction,ComponentPad*%
%ADD10C,0.600000*%
%TD*%
%TA.AperFunction,ComponentPad*%
%ADD11C,4.400000*%
%TD*%
%TA.AperFunction,ComponentPad*%
%ADD12O,2.100000X1.000000*%
%TD*%
%TA.AperFunction,ComponentPad*%
%ADD13O,1.800000X1.000000*%
%TD*%
%TA.AperFunction,ComponentPad*%
%ADD14C,1.400000*%
%TD*%
%TA.AperFunction,ComponentPad*%
%ADD15R,3.500000X3.500000*%
%TD*%
%TA.AperFunction,ComponentPad*%
%ADD16C,3.500000*%
%TD*%
%TA.AperFunction,ComponentPad*%
%ADD17C,2.000000*%
%TD*%
%TA.AperFunction,ComponentPad*%
%ADD18C,0.499999*%
%TD*%
%TA.AperFunction,ComponentPad*%
%ADD19R,1.700000X1.700000*%
%TD*%
%TA.AperFunction,ComponentPad*%
%ADD20O,1.700000X1.700000*%
%TD*%
%TA.AperFunction,SMDPad,CuDef*%
%ADD21FreePoly0,0.000000*%
%TD*%
%TA.AperFunction,SMDPad,CuDef*%
%ADD22FreePoly1,0.000000*%
%TD*%
%TA.AperFunction,SMDPad,CuDef*%
%ADD23RoundRect,0.225000X-0.250000X0.225000X-0.250000X-0.225000X0.250000X-0.225000X0.250000X0.225000X0*%
%TD*%
%TA.AperFunction,SMDPad,CuDef*%
%ADD24RoundRect,0.322500X-1.177500X-0.322500X1.177500X-0.322500X1.177500X0.322500X-1.177500X0.322500X0*%
%TD*%
%TA.AperFunction,SMDPad,CuDef*%
%ADD25RoundRect,0.325000X-1.175000X-0.325000X1.175000X-0.325000X1.175000X0.325000X-1.175000X0.325000X0*%
%TD*%
%TA.AperFunction,SMDPad,CuDef*%
%ADD26RoundRect,0.325000X-0.325000X1.425000X-0.325000X-1.425000X0.325000X-1.425000X0.325000X1.425000X0*%
%TD*%
%TA.AperFunction,SMDPad,CuDef*%
%ADD27R,1.000000X1.000000*%
%TD*%
%TA.AperFunction,SMDPad,CuDef*%
%ADD28R,2.200000X1.050000*%
%TD*%
%TA.AperFunction,ViaPad*%
%ADD29C,0.450000*%
%TD*%
%TA.AperFunction,ViaPad*%
%ADD30C,0.800000*%
%TD*%
%TA.AperFunction,ViaPad*%
%ADD31C,0.600000*%
%TD*%
%TA.AperFunction,ViaPad*%
%ADD32C,1.000000*%
%TD*%
%TA.AperFunction,Conductor*%
%ADD33C,0.250000*%
%TD*%
%TA.AperFunction,Conductor*%
%ADD34C,0.500000*%
%TD*%
%TA.AperFunction,Conductor*%
%ADD35C,0.200000*%
%TD*%
%TA.AperFunction,Conductor*%
%ADD36C,0.300000*%
%TD*%
%TA.AperFunction,Conductor*%
%ADD37C,1.000000*%
%TD*%
%TA.AperFunction,Conductor*%
%ADD38C,0.237998*%
%TD*%
G04 APERTURE END LIST*
D10*
%TO.P,U1,57,GND*%
%TO.N,GND*%
X129105000Y-68123100D03*
X130380000Y-68123100D03*
X131655000Y-68123100D03*
X129105000Y-66848100D03*
X130380000Y-66848100D03*
X131655000Y-66848100D03*
X129105000Y-65573100D03*
X130380000Y-65573100D03*
X131655000Y-65573100D03*
%TD*%
D11*
%TO.P,H2,1*%
%TO.N,N/C*%
X108300000Y-84100000D03*
%TD*%
D12*
%TO.P,J2,S1,SHIELD*%
%TO.N,GND*%
X112900100Y-64278102D03*
D13*
X108720100Y-64278102D03*
D12*
X112900100Y-72918102D03*
D13*
X108720100Y-72918102D03*
%TD*%
D14*
%TO.P,J3,*%
%TO.N,*%
X98300000Y-59400000D03*
X98300000Y-48400000D03*
D15*
%TO.P,J3,1,Pin_1*%
%TO.N,GND*%
X108300000Y-51400000D03*
D16*
%TO.P,J3,2,Pin_2*%
%TO.N,+BATT*%
X108300000Y-56400000D03*
%TD*%
D17*
%TO.P,TP6,1,1*%
%TO.N,/BATT_REG*%
X113400000Y-44600000D03*
%TD*%
D18*
%TO.P,U8,10,GND*%
%TO.N,GND*%
X125757501Y-45112500D03*
X126757502Y-45112500D03*
X127757500Y-45112500D03*
%TD*%
D11*
%TO.P,H1,1*%
%TO.N,N/C*%
X108300000Y-45300000D03*
%TD*%
D19*
%TO.P,J1,1,Pin_1*%
%TO.N,Net-(J1-Pin_1)*%
X149900000Y-71425000D03*
D20*
%TO.P,J1,2,Pin_2*%
%TO.N,Net-(J1-Pin_2)*%
X149900000Y-68885000D03*
%TO.P,J1,3,Pin_3*%
%TO.N,GND*%
X149900000Y-66345000D03*
%TD*%
D18*
%TO.P,U5,10,GND*%
%TO.N,GND*%
X113957501Y-52800000D03*
X114957502Y-52800000D03*
X115957500Y-52800000D03*
%TD*%
D11*
%TO.P,H3,1,1*%
%TO.N,GND*%
X149100000Y-84100000D03*
%TD*%
D17*
%TO.P,TP4,1,1*%
%TO.N,+5V*%
X116800000Y-46400000D03*
%TD*%
%TO.P,TP5,1,1*%
%TO.N,+3V3*%
X135100000Y-49900000D03*
%TD*%
D21*
%TO.P,JP1,1,A*%
%TO.N,Net-(JP1-A)*%
X118200000Y-50400000D03*
D22*
%TO.P,JP1,2,B*%
%TO.N,+5V*%
X119500000Y-50400000D03*
%TD*%
D23*
%TO.P,C26,1*%
%TO.N,Net-(JP1-A)*%
X114625000Y-56250000D03*
%TO.P,C26,2*%
%TO.N,GND*%
X114625000Y-57800000D03*
%TD*%
D24*
%TO.P,U4,1,SW*%
%TO.N,/DRF_SW*%
X118100000Y-70345000D03*
D25*
%TO.P,U4,2,GND*%
%TO.N,GND*%
X118100000Y-67800000D03*
%TO.P,U4,3,TXEN*%
%TO.N,/DRF_TXEN*%
X118100000Y-65260000D03*
%TO.P,U4,4,GND*%
%TO.N,GND*%
X118100000Y-62720000D03*
%TO.P,U4,5,GND*%
X118100000Y-60180000D03*
%TO.P,U4,6,VDD*%
%TO.N,Net-(JP1-A)*%
X118100000Y-57640000D03*
%TO.P,U4,7,VDD*%
X118100000Y-55100000D03*
%TO.P,U4,8,DIO1*%
%TO.N,/DRF_DIO1*%
X137100000Y-55100000D03*
%TO.P,U4,9,BUSY*%
%TO.N,/DRF_BUSY*%
X137100000Y-57640000D03*
%TO.P,U4,10,RST*%
%TO.N,/RDIO_RST*%
X137100000Y-60180000D03*
%TO.P,U4,11,MISO*%
%TO.N,/MISO*%
X137100000Y-62720000D03*
%TO.P,U4,12,MOSI*%
%TO.N,/MOSI*%
X137100000Y-65260000D03*
%TO.P,U4,13,SCK*%
%TO.N,/SCK*%
X137100000Y-67800000D03*
D24*
%TO.P,U4,14,NSS*%
%TO.N,/DRF_CS*%
X137100000Y-70345000D03*
D26*
%TO.P,U4,15,GND*%
%TO.N,GND*%
X136270000Y-80950000D03*
%TO.P,U4,16,ANT*%
%TO.N,Net-(J6-In)*%
X133730000Y-80950000D03*
%TO.P,U4,17,GND*%
%TO.N,GND*%
X131190000Y-80950000D03*
%TD*%
D27*
%TO.P,J6,1,In*%
%TO.N,Net-(J6-In)*%
X141700000Y-84000000D03*
D28*
%TO.P,J6,2,Ext*%
%TO.N,GND*%
X143200000Y-85475000D03*
D27*
X144700000Y-84000000D03*
D28*
X143200000Y-82525000D03*
%TD*%
D23*
%TO.P,C27,1*%
%TO.N,Net-(JP1-A)*%
X113100000Y-56250000D03*
%TO.P,C27,2*%
%TO.N,GND*%
X113100000Y-57800000D03*
%TD*%
D29*
%TO.N,/QSPI_SS*%
X128670000Y-77240000D03*
X127070000Y-74430000D03*
D30*
%TO.N,GND*%
X123200000Y-46100000D03*
X150266668Y-53800000D03*
X138940000Y-82100000D03*
X141599998Y-50700000D03*
X117900000Y-43300000D03*
X137940000Y-80800000D03*
X146000000Y-46900000D03*
X150000000Y-79300000D03*
D29*
X127500000Y-48700000D03*
D30*
X142400000Y-80700000D03*
X134700000Y-76600000D03*
X147666664Y-55500000D03*
X149433330Y-55500000D03*
X146780000Y-77400000D03*
D29*
X125700000Y-60500000D03*
D31*
X107025000Y-60225000D03*
D29*
X139000000Y-65000000D03*
D30*
X133400000Y-77800000D03*
X136580000Y-85600000D03*
X134420000Y-85600000D03*
D29*
X131800000Y-60900000D03*
X119700000Y-59900000D03*
D30*
X140600000Y-60100000D03*
D29*
X116000000Y-65400000D03*
D30*
X143200000Y-53800000D03*
X146733332Y-53800000D03*
X140700000Y-52300000D03*
X140600000Y-63400000D03*
D29*
X133000000Y-67500000D03*
X137200000Y-75500000D03*
X144000000Y-60300000D03*
D30*
X140600000Y-61750000D03*
D29*
X119100000Y-66600000D03*
X118500000Y-66400000D03*
D30*
X115000000Y-47600000D03*
D29*
X124366402Y-75571000D03*
D30*
X146000000Y-43500000D03*
X148940000Y-77400000D03*
X115200000Y-74400000D03*
X117300000Y-56300000D03*
X145300000Y-65000000D03*
D29*
X144700000Y-60300000D03*
D30*
X137500000Y-78500000D03*
D32*
X128050000Y-79580000D03*
D30*
X147840000Y-79300000D03*
X150900000Y-46900000D03*
D29*
X126980000Y-73215600D03*
D30*
X141599998Y-45700000D03*
X127500000Y-60400000D03*
X150300000Y-50800000D03*
X144966666Y-53800000D03*
D29*
X138260000Y-63780000D03*
D30*
X140100000Y-80800000D03*
D29*
X117780000Y-71400000D03*
D30*
X133700000Y-53300000D03*
X147633330Y-52200000D03*
X140600000Y-55500000D03*
X145899998Y-55500000D03*
D29*
X144700000Y-61000000D03*
D30*
X133300000Y-84600000D03*
X151100000Y-77400000D03*
X141900000Y-60900000D03*
X132500000Y-78800000D03*
X133200000Y-43700000D03*
D29*
X135100000Y-80900000D03*
D30*
X133700000Y-52300000D03*
X149400000Y-52200000D03*
X148499998Y-53800000D03*
D29*
X126700000Y-60500000D03*
D30*
X132400000Y-83000000D03*
X142366666Y-55500000D03*
D29*
X115600000Y-57500000D03*
X121830000Y-69150000D03*
D30*
X139200000Y-79300000D03*
X120600000Y-48900000D03*
X144099998Y-52200000D03*
X148533330Y-50800000D03*
D29*
X116000000Y-60000000D03*
D30*
X134000000Y-72500000D03*
X140900000Y-85600000D03*
X132400000Y-80300000D03*
X138740000Y-85600000D03*
X145866664Y-52200000D03*
D29*
X144000000Y-61000000D03*
D30*
X125400000Y-56700000D03*
X146766664Y-50800000D03*
X141360000Y-79300000D03*
X144560000Y-80700000D03*
D29*
X127500000Y-49300000D03*
D30*
X146720000Y-80700000D03*
D29*
X118100000Y-66800000D03*
D30*
X140700000Y-47300000D03*
D29*
X147100000Y-73700000D03*
X117900000Y-69000000D03*
X135400000Y-69000000D03*
D30*
X140300000Y-77400000D03*
X123500000Y-58500000D03*
D31*
X107025000Y-59375000D03*
D30*
X145680000Y-79300000D03*
X144133332Y-55500000D03*
D29*
X127500000Y-49900000D03*
D30*
X144620000Y-77400000D03*
X142460000Y-77400000D03*
D29*
X116000000Y-62100000D03*
D30*
X143520000Y-79300000D03*
X141100000Y-82100000D03*
X146000000Y-45200000D03*
D29*
X130800000Y-73220000D03*
D30*
X151200000Y-55500000D03*
D29*
X111000000Y-60400000D03*
D30*
X147700000Y-46900000D03*
X124600000Y-60900000D03*
D29*
%TO.N,+3V3*%
X141060000Y-70950000D03*
D30*
X129500000Y-50200000D03*
D29*
X149600000Y-56800000D03*
X127850000Y-66120000D03*
X123900000Y-66700000D03*
X148500000Y-56800000D03*
X124600000Y-66700000D03*
X127700000Y-72500000D03*
X144800000Y-74100000D03*
X126660000Y-63470000D03*
X141000000Y-69800000D03*
X136000000Y-66300000D03*
D30*
X131000000Y-53300000D03*
D29*
X145100000Y-68800000D03*
X130690000Y-71720000D03*
X131980000Y-61570000D03*
D30*
X129500000Y-51200000D03*
X143000000Y-43900000D03*
X131000000Y-52300000D03*
D29*
%TO.N,Net-(U1-RUN)*%
X134800000Y-73300000D03*
X134800000Y-65280000D03*
D32*
%TO.N,+5V*%
X126300000Y-52400000D03*
X124500000Y-52400000D03*
X124800000Y-80000000D03*
X123200000Y-51000000D03*
X124800000Y-48900000D03*
X126200000Y-80000000D03*
D29*
%TO.N,/LED*%
X115900000Y-72300000D03*
X127600000Y-73800000D03*
%TO.N,/RDIO_RST*%
X132900000Y-69100000D03*
%TO.N,/MISO*%
X139950000Y-69050000D03*
X135800000Y-75200000D03*
X131100000Y-60400000D03*
D30*
%TO.N,Net-(SW3-C)*%
X111400000Y-75300000D03*
X113500000Y-59300000D03*
D29*
%TO.N,/DRF_SW*%
X132500000Y-72800000D03*
%TO.N,/DRF_TXEN*%
X132000000Y-72300000D03*
%TO.N,/DRF_DIO1*%
X133000000Y-71600000D03*
%TO.N,/RP_SWCLK*%
X128500000Y-59100000D03*
X128110000Y-64730000D03*
%TO.N,/RP_SWD*%
X130200000Y-58900000D03*
X128700000Y-64340000D03*
%TO.N,/DRF_BUSY*%
X133500000Y-70900000D03*
%TO.N,/SCK*%
X138800000Y-75100000D03*
X140300000Y-70500000D03*
X130000000Y-60700000D03*
%TO.N,/DRF_CS*%
X129700000Y-62100000D03*
%TO.N,/MOSI*%
X130500000Y-60200000D03*
X139900000Y-69800000D03*
X137800000Y-75000000D03*
%TO.N,/FRAM_CS*%
X128000000Y-69000000D03*
X130600000Y-75100000D03*
D30*
X127600000Y-61700000D03*
D29*
%TO.N,/SCL*%
X139200000Y-60100000D03*
X134200000Y-59400000D03*
%TO.N,/SDA*%
X144200000Y-71400000D03*
X132076477Y-64181879D03*
D32*
%TO.N,/BATT_REG*%
X117200000Y-53000000D03*
D30*
%TO.N,Net-(U8-VOUT)*%
X119700000Y-46300000D03*
D29*
X127700000Y-47700000D03*
D30*
%TO.N,Net-(SW3-B)*%
X110200000Y-78200000D03*
D29*
X111700000Y-55200000D03*
D30*
X112100000Y-60100000D03*
%TD*%
D33*
%TO.N,/QSPI_SS*%
X128670000Y-76030000D02*
X127070000Y-74430000D01*
X128670000Y-77240000D02*
X128670000Y-76030000D01*
D34*
%TO.N,GND*%
X113100000Y-57800000D02*
X114625000Y-57800000D01*
D35*
X118100000Y-67800000D02*
X117800000Y-68100000D01*
D36*
X117900000Y-68000000D02*
X118100000Y-67800000D01*
D34*
X115300000Y-57800000D02*
X115600000Y-57500000D01*
X119700000Y-59900000D02*
X119420000Y-60180000D01*
D35*
X118100000Y-67800000D02*
X118100000Y-66800000D01*
D34*
X119420000Y-60180000D02*
X118100000Y-60180000D01*
X114625000Y-57800000D02*
X115300000Y-57800000D01*
D36*
X117900000Y-69000000D02*
X117900000Y-68000000D01*
D37*
X118100000Y-62720000D02*
X118100000Y-60180000D01*
D35*
%TO.N,/LED*%
X126300000Y-73800000D02*
X127600000Y-73800000D01*
X124900000Y-72400000D02*
X126300000Y-73800000D01*
X116000000Y-72400000D02*
X124900000Y-72400000D01*
X115900000Y-72300000D02*
X116000000Y-72400000D01*
D38*
%TO.N,Net-(J6-In)*%
X133730000Y-83130000D02*
X134600000Y-84000000D01*
X134600000Y-84000000D02*
X141700000Y-84000000D01*
X133730000Y-80950000D02*
X133730000Y-83130000D01*
D35*
%TO.N,/RDIO_RST*%
X129100000Y-63400000D02*
X129100000Y-60700000D01*
X130500000Y-64800000D02*
X129100000Y-63400000D01*
X131900000Y-64800000D02*
X130500000Y-64800000D01*
X132400000Y-59500000D02*
X133500000Y-59500000D01*
X137100000Y-60180000D02*
X134180000Y-60180000D01*
X134180000Y-60180000D02*
X133800000Y-59800000D01*
X133700000Y-68300000D02*
X133700000Y-66600000D01*
X132900000Y-69100000D02*
X133700000Y-68300000D01*
X130300000Y-59500000D02*
X132400000Y-59500000D01*
X133700000Y-66600000D02*
X132000000Y-64900000D01*
X133500000Y-59500000D02*
X133800000Y-59800000D01*
X132000000Y-64900000D02*
X131900000Y-64800000D01*
X129100000Y-60700000D02*
X130300000Y-59500000D01*
D33*
%TO.N,/MISO*%
X131100000Y-60400000D02*
X132900000Y-60400000D01*
X138620000Y-62720000D02*
X137100000Y-62720000D01*
X132900000Y-60400000D02*
X135220000Y-62720000D01*
X135220000Y-62720000D02*
X137100000Y-62720000D01*
X139950000Y-69050000D02*
X139950000Y-65850000D01*
X139950000Y-65850000D02*
X139500000Y-65400000D01*
X139500000Y-65400000D02*
X139500000Y-63600000D01*
X139500000Y-63600000D02*
X138620000Y-62720000D01*
%TO.N,Net-(SW3-C)*%
X111400000Y-63700000D02*
X111400000Y-75300000D01*
X113500000Y-61600000D02*
X111400000Y-63700000D01*
X113500000Y-59300000D02*
X113500000Y-61600000D01*
D35*
%TO.N,/DRF_SW*%
X132500000Y-72800000D02*
X132000000Y-72800000D01*
X124900000Y-72000000D02*
X120600000Y-72000000D01*
X125800000Y-72500000D02*
X125300000Y-72000000D01*
X132000000Y-72800000D02*
X130800000Y-74000000D01*
X128500000Y-74000000D02*
X127000000Y-72500000D01*
X120600000Y-72000000D02*
X118945000Y-70345000D01*
X127000000Y-72500000D02*
X125800000Y-72500000D01*
X125300000Y-72000000D02*
X124900000Y-72000000D01*
X118945000Y-70345000D02*
X118100000Y-70345000D01*
X130800000Y-74000000D02*
X128500000Y-74000000D01*
%TO.N,/DRF_TXEN*%
X122600000Y-71600000D02*
X120500000Y-69500000D01*
X128000000Y-72000000D02*
X125800000Y-72000000D01*
X128400000Y-72400000D02*
X128000000Y-72000000D01*
X119660000Y-65260000D02*
X118100000Y-65260000D01*
X120500000Y-69500000D02*
X120500000Y-66100000D01*
X120500000Y-66100000D02*
X119660000Y-65260000D01*
X132000000Y-72300000D02*
X131900000Y-72400000D01*
X125400000Y-71600000D02*
X122600000Y-71600000D01*
X131900000Y-72400000D02*
X128400000Y-72400000D01*
X125800000Y-72000000D02*
X125400000Y-71600000D01*
%TO.N,/DRF_DIO1*%
X122100000Y-67800000D02*
X122100000Y-61700000D01*
X125400000Y-71100000D02*
X122100000Y-67800000D01*
X122100000Y-61700000D02*
X128700000Y-55100000D01*
X132500000Y-71100000D02*
X125400000Y-71100000D01*
X128700000Y-55100000D02*
X137100000Y-55100000D01*
X133000000Y-71600000D02*
X132500000Y-71100000D01*
%TO.N,/RP_SWCLK*%
X128227000Y-59373000D02*
X128500000Y-59100000D01*
X128227000Y-64613000D02*
X128227000Y-61800000D01*
X128227000Y-61800000D02*
X128227000Y-59373000D01*
X128110000Y-64730000D02*
X128227000Y-64613000D01*
%TO.N,/RP_SWD*%
X128700000Y-64340000D02*
X128700000Y-60400000D01*
X128700000Y-60400000D02*
X130200000Y-58900000D01*
%TO.N,/DRF_BUSY*%
X133500000Y-70900000D02*
X133300000Y-70700000D01*
X133300000Y-70700000D02*
X125600000Y-70700000D01*
X122500000Y-67600000D02*
X122500000Y-61800000D01*
X122500000Y-61800000D02*
X126660000Y-57640000D01*
X125600000Y-70700000D02*
X122500000Y-67600000D01*
X126660000Y-57640000D02*
X137100000Y-57640000D01*
D33*
%TO.N,/SCK*%
X133300000Y-64500000D02*
X136600000Y-67800000D01*
X139700000Y-70500000D02*
X137100000Y-67900000D01*
X137100000Y-67900000D02*
X137100000Y-67800000D01*
X140300000Y-70500000D02*
X139700000Y-70500000D01*
X136600000Y-67800000D02*
X137100000Y-67800000D01*
X130000000Y-60700000D02*
X130000000Y-60897738D01*
X133300000Y-64197738D02*
X133300000Y-64500000D01*
X130000000Y-60897738D02*
X133300000Y-64197738D01*
D35*
%TO.N,/DRF_CS*%
X132800000Y-64200000D02*
X130700000Y-62100000D01*
X137100000Y-70345000D02*
X135945000Y-70345000D01*
X130700000Y-62100000D02*
X129700000Y-62100000D01*
X134700000Y-66400000D02*
X132800000Y-64500000D01*
X132800000Y-64500000D02*
X132800000Y-64200000D01*
X134700000Y-69100000D02*
X134700000Y-66400000D01*
X135945000Y-70345000D02*
X134700000Y-69100000D01*
D33*
%TO.N,/MOSI*%
X136587000Y-64747000D02*
X137100000Y-65260000D01*
X139900000Y-69800000D02*
X139000000Y-68900000D01*
X130500000Y-60864580D02*
X134382420Y-64747000D01*
X139000000Y-67100000D02*
X137160000Y-65260000D01*
X134382420Y-64747000D02*
X136587000Y-64747000D01*
X137160000Y-65260000D02*
X137100000Y-65260000D01*
X130500000Y-60200000D02*
X130500000Y-60864580D01*
X139000000Y-68900000D02*
X139000000Y-67100000D01*
%TO.N,/FRAM_CS*%
X127300000Y-68300000D02*
X127300000Y-62000000D01*
X127300000Y-62000000D02*
X127600000Y-61700000D01*
X128000000Y-69000000D02*
X127300000Y-68300000D01*
D35*
%TO.N,/SDA*%
X132076477Y-64276477D02*
X134200000Y-66400000D01*
X144100000Y-71500000D02*
X144200000Y-71400000D01*
X135400000Y-71500000D02*
X144100000Y-71500000D01*
X134200000Y-70300000D02*
X135400000Y-71500000D01*
X134200000Y-66400000D02*
X134200000Y-70300000D01*
X132076477Y-64181879D02*
X132076477Y-64276477D01*
D34*
%TO.N,/BATT_REG*%
X117200000Y-53000000D02*
X117200000Y-52200000D01*
X113400000Y-48400000D02*
X113400000Y-44600000D01*
X117200000Y-52200000D02*
X113400000Y-48400000D01*
D35*
%TO.N,Net-(U8-VOUT)*%
X127500000Y-47500000D02*
X127700000Y-47700000D01*
X120900000Y-46300000D02*
X122100000Y-47500000D01*
X119700000Y-46300000D02*
X120900000Y-46300000D01*
X125879999Y-47500000D02*
X127500000Y-47500000D01*
X122100000Y-47500000D02*
X125879999Y-47500000D01*
D34*
%TO.N,Net-(JP1-A)*%
X116300000Y-55100000D02*
X118100000Y-55100000D01*
X115150000Y-56250000D02*
X116300000Y-55100000D01*
X113100000Y-56250000D02*
X114625000Y-56250000D01*
X114625000Y-56250000D02*
X115150000Y-56250000D01*
D33*
%TO.N,Net-(SW3-B)*%
X112100000Y-62400000D02*
X112100000Y-60100000D01*
D35*
X112100000Y-55600000D02*
X111700000Y-55200000D01*
X112100000Y-60100000D02*
X112100000Y-55600000D01*
D33*
X110200000Y-78200000D02*
X110700000Y-77700000D01*
X110700000Y-77700000D02*
X110700000Y-63800000D01*
X110700000Y-63800000D02*
X112100000Y-62400000D01*
%TD*%
%TA.AperFunction,Conductor*%
%TO.N,GND*%
G36*
X150702426Y-42500691D02*
G01*
X150728818Y-42502768D01*
X150877919Y-42514502D01*
X150897128Y-42517545D01*
X151061183Y-42556931D01*
X151079675Y-42562940D01*
X151205347Y-42614994D01*
X151235547Y-42627504D01*
X151252884Y-42636338D01*
X151396725Y-42724484D01*
X151412466Y-42735920D01*
X151540753Y-42845486D01*
X151554513Y-42859246D01*
X151664079Y-42987533D01*
X151675515Y-43003274D01*
X151763661Y-43147115D01*
X151772495Y-43164452D01*
X151837057Y-43320317D01*
X151843070Y-43338823D01*
X151882453Y-43502866D01*
X151885497Y-43522084D01*
X151899309Y-43697572D01*
X151899500Y-43702439D01*
X151899500Y-64076000D01*
X151879815Y-64143039D01*
X151827011Y-64188794D01*
X151775500Y-64200000D01*
X140124000Y-64200000D01*
X140056961Y-64180315D01*
X140011206Y-64127511D01*
X140000000Y-64076000D01*
X140000000Y-56800002D01*
X148143106Y-56800002D01*
X148160572Y-56910281D01*
X148160573Y-56910284D01*
X148160574Y-56910286D01*
X148211267Y-57009777D01*
X148211268Y-57009778D01*
X148211271Y-57009782D01*
X148290217Y-57088728D01*
X148290221Y-57088731D01*
X148290223Y-57088733D01*
X148389714Y-57139426D01*
X148389716Y-57139426D01*
X148389718Y-57139427D01*
X148499998Y-57156894D01*
X148500000Y-57156894D01*
X148500002Y-57156894D01*
X148610281Y-57139427D01*
X148610281Y-57139426D01*
X148610286Y-57139426D01*
X148709777Y-57088733D01*
X148788733Y-57009777D01*
X148839426Y-56910286D01*
X148856894Y-56800002D01*
X149243106Y-56800002D01*
X149260572Y-56910281D01*
X149260573Y-56910284D01*
X149260574Y-56910286D01*
X149311267Y-57009777D01*
X149311268Y-57009778D01*
X149311271Y-57009782D01*
X149390217Y-57088728D01*
X149390221Y-57088731D01*
X149390223Y-57088733D01*
X149489714Y-57139426D01*
X149489716Y-57139426D01*
X149489718Y-57139427D01*
X149599998Y-57156894D01*
X149600000Y-57156894D01*
X149600002Y-57156894D01*
X149710281Y-57139427D01*
X149710281Y-57139426D01*
X149710286Y-57139426D01*
X149809777Y-57088733D01*
X149888733Y-57009777D01*
X149939426Y-56910286D01*
X149956894Y-56800000D01*
X149939426Y-56689714D01*
X149888733Y-56590223D01*
X149888731Y-56590221D01*
X149888728Y-56590217D01*
X149809782Y-56511271D01*
X149809778Y-56511268D01*
X149809777Y-56511267D01*
X149710286Y-56460574D01*
X149710284Y-56460573D01*
X149710281Y-56460572D01*
X149600002Y-56443106D01*
X149599998Y-56443106D01*
X149489718Y-56460572D01*
X149390221Y-56511268D01*
X149390217Y-56511271D01*
X149311271Y-56590217D01*
X149311268Y-56590221D01*
X149260572Y-56689718D01*
X149243106Y-56799997D01*
X149243106Y-56800002D01*
X148856894Y-56800002D01*
X148856894Y-56800000D01*
X148839426Y-56689714D01*
X148788733Y-56590223D01*
X148788731Y-56590221D01*
X148788728Y-56590217D01*
X148709782Y-56511271D01*
X148709778Y-56511268D01*
X148709777Y-56511267D01*
X148610286Y-56460574D01*
X148610284Y-56460573D01*
X148610281Y-56460572D01*
X148500002Y-56443106D01*
X148499998Y-56443106D01*
X148389718Y-56460572D01*
X148290221Y-56511268D01*
X148290217Y-56511271D01*
X148211271Y-56590217D01*
X148211268Y-56590221D01*
X148160572Y-56689718D01*
X148143106Y-56799997D01*
X148143106Y-56800002D01*
X140000000Y-56800002D01*
X140000000Y-43900001D01*
X142467948Y-43900001D01*
X142486076Y-44037703D01*
X142486078Y-44037708D01*
X142539227Y-44166023D01*
X142539228Y-44166025D01*
X142539229Y-44166026D01*
X142623782Y-44276218D01*
X142733974Y-44360771D01*
X142862295Y-44413923D01*
X142931147Y-44422987D01*
X142999999Y-44432052D01*
X143000000Y-44432052D01*
X143000001Y-44432052D01*
X143045901Y-44426009D01*
X143137705Y-44413923D01*
X143266026Y-44360771D01*
X143376218Y-44276218D01*
X143460771Y-44166026D01*
X143513923Y-44037705D01*
X143532052Y-43900000D01*
X143513923Y-43762295D01*
X143460771Y-43633974D01*
X143376218Y-43523782D01*
X143266026Y-43439229D01*
X143266025Y-43439228D01*
X143266023Y-43439227D01*
X143137708Y-43386078D01*
X143137703Y-43386076D01*
X143000001Y-43367948D01*
X142999999Y-43367948D01*
X142862296Y-43386076D01*
X142862291Y-43386078D01*
X142733976Y-43439227D01*
X142623782Y-43523782D01*
X142539227Y-43633976D01*
X142486078Y-43762291D01*
X142486076Y-43762296D01*
X142467948Y-43899998D01*
X142467948Y-43900001D01*
X140000000Y-43900001D01*
X140000000Y-42624500D01*
X140019685Y-42557461D01*
X140072489Y-42511706D01*
X140124000Y-42500500D01*
X150652405Y-42500500D01*
X150697560Y-42500500D01*
X150702426Y-42500691D01*
G37*
%TD.AperFunction*%
%TD*%
%TA.AperFunction,Conductor*%
%TO.N,GND*%
G36*
X135517167Y-75419685D02*
G01*
X135537804Y-75436314D01*
X135590223Y-75488733D01*
X135689714Y-75539426D01*
X135689716Y-75539426D01*
X135689718Y-75539427D01*
X135799998Y-75556894D01*
X135800000Y-75556894D01*
X135800002Y-75556894D01*
X135910281Y-75539427D01*
X135910281Y-75539426D01*
X135910286Y-75539426D01*
X136009777Y-75488733D01*
X136062192Y-75436317D01*
X136123513Y-75402834D01*
X136149872Y-75400000D01*
X138582566Y-75400000D01*
X138638860Y-75413515D01*
X138689713Y-75439426D01*
X138689716Y-75439427D01*
X138799998Y-75456894D01*
X138800000Y-75456894D01*
X138800002Y-75456894D01*
X138910283Y-75439427D01*
X138910286Y-75439426D01*
X138961140Y-75413515D01*
X139017434Y-75400000D01*
X151775500Y-75400000D01*
X151842539Y-75419685D01*
X151888294Y-75472489D01*
X151899500Y-75524000D01*
X151899500Y-84198258D01*
X151899402Y-84201735D01*
X151882721Y-84498770D01*
X151881942Y-84505684D01*
X151832401Y-84797257D01*
X151830853Y-84804041D01*
X151748976Y-85088242D01*
X151746677Y-85094809D01*
X151633499Y-85368048D01*
X151630480Y-85374317D01*
X151487417Y-85633170D01*
X151483715Y-85639062D01*
X151312570Y-85880268D01*
X151308232Y-85885708D01*
X151111156Y-86106236D01*
X151106236Y-86111156D01*
X150885708Y-86308232D01*
X150880268Y-86312570D01*
X150639062Y-86483715D01*
X150633170Y-86487417D01*
X150374317Y-86630480D01*
X150368048Y-86633499D01*
X150094809Y-86746677D01*
X150088242Y-86748976D01*
X149804041Y-86830853D01*
X149797257Y-86832401D01*
X149505684Y-86881942D01*
X149498770Y-86882721D01*
X149201735Y-86899402D01*
X149198258Y-86899500D01*
X129584000Y-86899500D01*
X129516961Y-86879815D01*
X129471206Y-86827011D01*
X129460000Y-86775500D01*
X129460000Y-82429506D01*
X132952500Y-82429506D01*
X132955366Y-82460072D01*
X132955366Y-82460074D01*
X132955367Y-82460075D01*
X133000419Y-82588827D01*
X133081420Y-82698580D01*
X133191173Y-82779581D01*
X133319925Y-82824633D01*
X133330116Y-82825588D01*
X133350494Y-82827500D01*
X133350498Y-82827500D01*
X133359501Y-82827500D01*
X133426540Y-82847185D01*
X133472295Y-82899989D01*
X133483501Y-82951500D01*
X133483501Y-83093508D01*
X133481119Y-83117696D01*
X133478672Y-83129999D01*
X133478672Y-83130000D01*
X133483501Y-83154277D01*
X133497803Y-83226180D01*
X133525043Y-83266947D01*
X133552284Y-83307716D01*
X133562711Y-83314683D01*
X133581501Y-83330104D01*
X134399894Y-84148497D01*
X134415315Y-84167287D01*
X134422281Y-84177713D01*
X134422283Y-84177714D01*
X134422284Y-84177716D01*
X134429144Y-84182299D01*
X134442860Y-84191465D01*
X134442862Y-84191466D01*
X134442864Y-84191467D01*
X134442865Y-84191468D01*
X134503821Y-84232197D01*
X134503823Y-84232197D01*
X134503824Y-84232198D01*
X134599999Y-84251329D01*
X134600000Y-84251329D01*
X134600001Y-84251329D01*
X134612302Y-84248882D01*
X134636494Y-84246499D01*
X140948500Y-84246499D01*
X141015539Y-84266184D01*
X141061294Y-84318988D01*
X141072500Y-84370499D01*
X141072500Y-84512558D01*
X141079898Y-84549749D01*
X141108077Y-84591922D01*
X141150250Y-84620101D01*
X141150252Y-84620102D01*
X141178205Y-84625662D01*
X141187441Y-84627500D01*
X141187442Y-84627500D01*
X142212559Y-84627500D01*
X142219957Y-84626028D01*
X142249748Y-84620102D01*
X142291922Y-84591922D01*
X142320102Y-84549748D01*
X142327500Y-84512558D01*
X142327500Y-83487442D01*
X142320102Y-83450252D01*
X142320101Y-83450250D01*
X142291922Y-83408077D01*
X142249749Y-83379898D01*
X142212559Y-83372500D01*
X142212558Y-83372500D01*
X141187442Y-83372500D01*
X141187441Y-83372500D01*
X141150250Y-83379898D01*
X141108077Y-83408077D01*
X141079898Y-83450250D01*
X141072500Y-83487441D01*
X141072500Y-83629501D01*
X141052815Y-83696540D01*
X141000011Y-83742295D01*
X140948500Y-83753501D01*
X134753466Y-83753501D01*
X134686427Y-83733816D01*
X134665785Y-83717182D01*
X134012818Y-83064215D01*
X133979333Y-83002892D01*
X133976499Y-82976534D01*
X133976499Y-82951500D01*
X133996184Y-82884461D01*
X134048988Y-82838706D01*
X134100499Y-82827500D01*
X134109506Y-82827500D01*
X134126972Y-82825861D01*
X134140075Y-82824633D01*
X134268827Y-82779581D01*
X134378580Y-82698580D01*
X134459581Y-82588827D01*
X134504633Y-82460075D01*
X134507500Y-82429502D01*
X134507500Y-79470498D01*
X134504633Y-79439925D01*
X134459581Y-79311173D01*
X134378580Y-79201420D01*
X134268827Y-79120419D01*
X134140075Y-79075367D01*
X134140074Y-79075366D01*
X134140072Y-79075366D01*
X134109506Y-79072500D01*
X134109502Y-79072500D01*
X133350498Y-79072500D01*
X133350494Y-79072500D01*
X133319927Y-79075366D01*
X133191173Y-79120419D01*
X133081420Y-79201420D01*
X133000419Y-79311173D01*
X132955366Y-79439927D01*
X132952500Y-79470493D01*
X132952500Y-82429506D01*
X129460000Y-82429506D01*
X129460000Y-79909109D01*
X129479685Y-79842070D01*
X129496826Y-79820924D01*
X133933098Y-75435811D01*
X133994614Y-75402683D01*
X134020269Y-75400000D01*
X135450128Y-75400000D01*
X135517167Y-75419685D01*
G37*
%TD.AperFunction*%
%TD*%
%TA.AperFunction,Conductor*%
%TO.N,Net-(JP1-A)*%
G36*
X119243039Y-49119685D02*
G01*
X119288794Y-49172489D01*
X119300000Y-49224000D01*
X119300000Y-49396002D01*
X119280315Y-49463041D01*
X119227511Y-49508796D01*
X119176000Y-49520002D01*
X119000000Y-49520002D01*
X118950250Y-49529898D01*
X118908077Y-49558077D01*
X118879898Y-49600250D01*
X118870002Y-49650000D01*
X118870002Y-50096068D01*
X118868740Y-50113714D01*
X118866183Y-50131497D01*
X118866183Y-50168500D01*
X118868740Y-50186284D01*
X118870002Y-50203930D01*
X118870002Y-50596069D01*
X118868740Y-50613715D01*
X118866183Y-50631499D01*
X118866183Y-50668502D01*
X118868740Y-50686286D01*
X118870002Y-50703932D01*
X118870002Y-51149999D01*
X118879898Y-51199749D01*
X118908077Y-51241922D01*
X118950250Y-51270101D01*
X118950252Y-51270102D01*
X119000000Y-51279998D01*
X119176000Y-51279998D01*
X119243039Y-51299683D01*
X119288794Y-51352487D01*
X119300000Y-51403998D01*
X119300000Y-54227195D01*
X119280315Y-54294234D01*
X119227511Y-54339989D01*
X119223455Y-54341755D01*
X119203552Y-54349999D01*
X118453553Y-55099999D01*
X118453553Y-55100000D01*
X119203551Y-55849998D01*
X119223453Y-55858242D01*
X119277856Y-55902083D01*
X119299921Y-55968377D01*
X119300000Y-55972803D01*
X119300000Y-56767195D01*
X119280315Y-56834234D01*
X119227511Y-56879989D01*
X119223455Y-56881755D01*
X119203552Y-56889999D01*
X118453553Y-57639999D01*
X118453553Y-57640000D01*
X119203551Y-58389998D01*
X119223453Y-58398242D01*
X119277856Y-58442083D01*
X119299921Y-58508377D01*
X119300000Y-58512803D01*
X119300000Y-59176000D01*
X119280315Y-59243039D01*
X119227511Y-59288794D01*
X119176000Y-59300000D01*
X115624000Y-59300000D01*
X115556961Y-59280315D01*
X115511206Y-59227511D01*
X115500000Y-59176000D01*
X115500000Y-58188501D01*
X115519685Y-58121462D01*
X115532770Y-58104519D01*
X115535069Y-58102020D01*
X115535071Y-58102020D01*
X115571587Y-58062351D01*
X115573360Y-58060504D01*
X115635415Y-57998449D01*
X116500000Y-57998449D01*
X116515762Y-58097967D01*
X116576883Y-58217923D01*
X116576886Y-58217928D01*
X116672071Y-58313113D01*
X116672076Y-58313116D01*
X116792034Y-58374239D01*
X116792033Y-58374239D01*
X116891544Y-58389999D01*
X116996447Y-58389999D01*
X116996448Y-58389998D01*
X117703552Y-58389998D01*
X117703553Y-58389999D01*
X118496446Y-58389999D01*
X118496446Y-58389998D01*
X118100001Y-57993553D01*
X118100000Y-57993553D01*
X117703552Y-58389998D01*
X116996448Y-58389998D01*
X118100000Y-57286447D01*
X118496446Y-56890000D01*
X117761797Y-56890000D01*
X117694758Y-56870315D01*
X117649003Y-56817511D01*
X117639059Y-56748353D01*
X117668084Y-56684797D01*
X117674121Y-56678313D01*
X117676205Y-56676227D01*
X117676218Y-56676218D01*
X117760771Y-56566026D01*
X117813923Y-56437705D01*
X117832052Y-56300000D01*
X117813923Y-56162295D01*
X117760771Y-56033974D01*
X117757661Y-56026465D01*
X117759447Y-56025724D01*
X117745467Y-55968102D01*
X117768318Y-55902074D01*
X117823238Y-55858883D01*
X117869327Y-55849999D01*
X118496446Y-55849999D01*
X118496446Y-55849998D01*
X118100000Y-55453553D01*
X116996447Y-54350000D01*
X117703552Y-54350000D01*
X118100000Y-54746447D01*
X118100001Y-54746447D01*
X118496446Y-54350000D01*
X117703552Y-54350000D01*
X116996447Y-54350000D01*
X116891550Y-54350000D01*
X116792032Y-54365762D01*
X116672076Y-54426883D01*
X116672071Y-54426886D01*
X116576886Y-54522071D01*
X116576883Y-54522076D01*
X116515760Y-54642033D01*
X116500000Y-54741543D01*
X116500000Y-55458449D01*
X116515762Y-55557967D01*
X116576883Y-55677923D01*
X116576886Y-55677928D01*
X116672071Y-55773113D01*
X116672076Y-55773116D01*
X116800726Y-55838668D01*
X116799283Y-55841499D01*
X116843289Y-55871586D01*
X116870491Y-55935943D01*
X116858581Y-56004790D01*
X116845678Y-56025569D01*
X116839228Y-56033974D01*
X116786078Y-56162291D01*
X116786076Y-56162296D01*
X116767948Y-56299998D01*
X116767948Y-56300001D01*
X116786076Y-56437703D01*
X116786078Y-56437708D01*
X116839227Y-56566023D01*
X116839228Y-56566025D01*
X116839229Y-56566026D01*
X116923782Y-56676218D01*
X116923784Y-56676219D01*
X116923786Y-56676222D01*
X116929529Y-56681965D01*
X116927731Y-56683762D01*
X116961438Y-56729935D01*
X116965583Y-56799682D01*
X116931363Y-56860597D01*
X116869642Y-56893342D01*
X116864140Y-56894341D01*
X116792035Y-56905760D01*
X116792034Y-56905760D01*
X116672076Y-56966883D01*
X116672071Y-56966886D01*
X116576886Y-57062071D01*
X116576883Y-57062076D01*
X116515760Y-57182033D01*
X116500000Y-57281543D01*
X116500000Y-57998449D01*
X115635415Y-57998449D01*
X115640311Y-57993553D01*
X115889052Y-57744814D01*
X115943832Y-57668089D01*
X115979781Y-57547340D01*
X115974574Y-57421460D01*
X115928777Y-57304091D01*
X115847352Y-57207952D01*
X115847350Y-57207950D01*
X115739122Y-57143461D01*
X115739122Y-57143460D01*
X115615816Y-57117607D01*
X115615814Y-57117607D01*
X115605760Y-57115499D01*
X115606192Y-57113434D01*
X115552694Y-57095285D01*
X115509167Y-57040630D01*
X115500000Y-56993839D01*
X115500000Y-53175727D01*
X115519685Y-53108688D01*
X115572489Y-53062933D01*
X115641647Y-53052989D01*
X115705203Y-53082014D01*
X115711681Y-53088046D01*
X115732844Y-53109210D01*
X115732846Y-53109211D01*
X115839389Y-53163498D01*
X115839395Y-53163500D01*
X115957497Y-53182205D01*
X115957500Y-53182205D01*
X115957503Y-53182205D01*
X116075604Y-53163500D01*
X116075606Y-53163499D01*
X116075608Y-53163499D01*
X116075610Y-53163498D01*
X116182153Y-53109211D01*
X116182155Y-53109210D01*
X116266710Y-53024654D01*
X116266711Y-53024653D01*
X116320998Y-52918110D01*
X116321000Y-52918104D01*
X116339705Y-52800003D01*
X116339705Y-52799996D01*
X116321000Y-52681895D01*
X116320998Y-52681889D01*
X116266711Y-52575346D01*
X116266709Y-52575344D01*
X116182155Y-52490789D01*
X116182153Y-52490788D01*
X116075610Y-52436501D01*
X116075604Y-52436499D01*
X115957503Y-52417795D01*
X115957497Y-52417795D01*
X115839395Y-52436499D01*
X115839389Y-52436501D01*
X115732846Y-52490788D01*
X115732845Y-52490789D01*
X115711681Y-52511954D01*
X115650358Y-52545439D01*
X115580666Y-52540455D01*
X115524733Y-52498583D01*
X115500316Y-52433119D01*
X115500000Y-52424273D01*
X115500000Y-51333225D01*
X115519685Y-51266186D01*
X115572489Y-51220431D01*
X115641647Y-51210487D01*
X115705203Y-51239512D01*
X115711662Y-51245526D01*
X116392774Y-51926638D01*
X116786180Y-52320044D01*
X116819665Y-52381367D01*
X116822499Y-52407721D01*
X116822500Y-52440291D01*
X116802817Y-52507331D01*
X116780729Y-52533109D01*
X116726861Y-52580832D01*
X116726858Y-52580836D01*
X116640295Y-52706242D01*
X116640295Y-52706243D01*
X116586258Y-52848725D01*
X116567891Y-52999999D01*
X116567891Y-53000000D01*
X116586258Y-53151274D01*
X116640295Y-53293756D01*
X116640295Y-53293757D01*
X116718808Y-53407501D01*
X116726860Y-53419166D01*
X116840921Y-53520216D01*
X116975851Y-53591032D01*
X117123808Y-53627500D01*
X117276192Y-53627500D01*
X117424149Y-53591032D01*
X117559079Y-53520216D01*
X117673140Y-53419166D01*
X117759705Y-53293756D01*
X117813741Y-53151274D01*
X117832109Y-53000000D01*
X117813741Y-52848726D01*
X117759705Y-52706244D01*
X117673140Y-52580834D01*
X117673138Y-52580832D01*
X117619271Y-52533109D01*
X117582146Y-52473919D01*
X117577500Y-52440295D01*
X117577500Y-52252011D01*
X117580139Y-52226566D01*
X117580177Y-52226382D01*
X117582393Y-52215816D01*
X117580365Y-52199547D01*
X117577977Y-52180381D01*
X117577500Y-52172705D01*
X117577500Y-52168723D01*
X117577499Y-52168715D01*
X117573847Y-52146829D01*
X117573478Y-52144292D01*
X117566810Y-52090799D01*
X117566810Y-52090797D01*
X117566808Y-52090793D01*
X117564551Y-52083213D01*
X117561983Y-52075732D01*
X117561983Y-52075731D01*
X117536329Y-52028328D01*
X117535159Y-52026055D01*
X117511476Y-51977608D01*
X117506892Y-51971189D01*
X117502020Y-51964929D01*
X117462353Y-51928412D01*
X117460504Y-51926638D01*
X115904614Y-50370747D01*
X115871129Y-50309424D01*
X115876113Y-50239732D01*
X115904612Y-50195387D01*
X116963680Y-49136318D01*
X117025004Y-49102834D01*
X117051362Y-49100000D01*
X119176000Y-49100000D01*
X119243039Y-49119685D01*
G37*
%TD.AperFunction*%
%TD*%
%TA.AperFunction,Conductor*%
%TO.N,+5V*%
G36*
X122003622Y-47714707D02*
G01*
X122004484Y-47712464D01*
X122016647Y-47717133D01*
X122016648Y-47717133D01*
X122016650Y-47717134D01*
X122018696Y-47717458D01*
X122049744Y-47726655D01*
X122051641Y-47727499D01*
X122051642Y-47727500D01*
X122051643Y-47727500D01*
X122072343Y-47727500D01*
X122091739Y-47729026D01*
X122112172Y-47732263D01*
X122114180Y-47731724D01*
X122146273Y-47727500D01*
X126776000Y-47727500D01*
X126843039Y-47747185D01*
X126888794Y-47799989D01*
X126900000Y-47851500D01*
X126900000Y-52976000D01*
X126880315Y-53043039D01*
X126827511Y-53088794D01*
X126776000Y-53100000D01*
X119556500Y-53100000D01*
X119489461Y-53080315D01*
X119443706Y-53027511D01*
X119432500Y-52976000D01*
X119432500Y-51403998D01*
X119429472Y-51375832D01*
X119418266Y-51324321D01*
X119388931Y-51265718D01*
X119388930Y-51265716D01*
X119356989Y-51228855D01*
X119343176Y-51212914D01*
X119343173Y-51212912D01*
X119343172Y-51212911D01*
X119280374Y-51172552D01*
X119272491Y-51168952D01*
X119219686Y-51123199D01*
X119200000Y-51056163D01*
X119200000Y-49742731D01*
X119219684Y-49675696D01*
X119268493Y-49631852D01*
X119314280Y-49608933D01*
X119367084Y-49563178D01*
X119407448Y-49500372D01*
X119427133Y-49433333D01*
X119432500Y-49396002D01*
X119432500Y-49224000D01*
X119429472Y-49195834D01*
X119418266Y-49144323D01*
X119388931Y-49085720D01*
X119388930Y-49085718D01*
X119369576Y-49063384D01*
X119343176Y-49032916D01*
X119343173Y-49032914D01*
X119343172Y-49032913D01*
X119280375Y-48992554D01*
X119272489Y-48988953D01*
X119219685Y-48943198D01*
X119207001Y-48900001D01*
X120067948Y-48900001D01*
X120086076Y-49037703D01*
X120086078Y-49037708D01*
X120139227Y-49166023D01*
X120139228Y-49166025D01*
X120139229Y-49166026D01*
X120223782Y-49276218D01*
X120333974Y-49360771D01*
X120462295Y-49413923D01*
X120531147Y-49422987D01*
X120599999Y-49432052D01*
X120600000Y-49432052D01*
X120600001Y-49432052D01*
X120645901Y-49426009D01*
X120737705Y-49413923D01*
X120866026Y-49360771D01*
X120976218Y-49276218D01*
X121060771Y-49166026D01*
X121113923Y-49037705D01*
X121132052Y-48900000D01*
X121128913Y-48876159D01*
X121113923Y-48762296D01*
X121113921Y-48762291D01*
X121060772Y-48633976D01*
X121060771Y-48633975D01*
X121060771Y-48633974D01*
X120976218Y-48523782D01*
X120866026Y-48439229D01*
X120866025Y-48439228D01*
X120866023Y-48439227D01*
X120737708Y-48386078D01*
X120737703Y-48386076D01*
X120600001Y-48367948D01*
X120599999Y-48367948D01*
X120462296Y-48386076D01*
X120462291Y-48386078D01*
X120333976Y-48439227D01*
X120223782Y-48523782D01*
X120139227Y-48633976D01*
X120086078Y-48762291D01*
X120086076Y-48762296D01*
X120067948Y-48899998D01*
X120067948Y-48900001D01*
X119207001Y-48900001D01*
X119200000Y-48876159D01*
X119200000Y-47824000D01*
X119219685Y-47756961D01*
X119272489Y-47711206D01*
X119324000Y-47700000D01*
X121953536Y-47700000D01*
X122003622Y-47714707D01*
G37*
%TD.AperFunction*%
%TD*%
M02*
