%TF.GenerationSoftware,KiCad,Pcbnew,7.0.2*%
%TF.CreationDate,2023-10-17T14:13:15-04:00*%
%TF.ProjectId,BITSv5,42495453-7635-42e6-9b69-6361645f7063,rev?*%
%TF.SameCoordinates,Original*%
%TF.FileFunction,Copper,L2,Inr*%
%TF.FilePolarity,Positive*%
%FSLAX46Y46*%
G04 Gerber Fmt 4.6, Leading zero omitted, Abs format (unit mm)*
G04 Created by KiCad (PCBNEW 7.0.2) date 2023-10-17 14:13:15*
%MOMM*%
%LPD*%
G01*
G04 APERTURE LIST*
%TA.AperFunction,ComponentPad*%
%ADD10C,0.600000*%
%TD*%
%TA.AperFunction,ComponentPad*%
%ADD11C,4.400000*%
%TD*%
%TA.AperFunction,ComponentPad*%
%ADD12O,2.100000X1.000000*%
%TD*%
%TA.AperFunction,ComponentPad*%
%ADD13O,1.800000X1.000000*%
%TD*%
%TA.AperFunction,ComponentPad*%
%ADD14C,1.400000*%
%TD*%
%TA.AperFunction,ComponentPad*%
%ADD15R,3.500000X3.500000*%
%TD*%
%TA.AperFunction,ComponentPad*%
%ADD16C,3.500000*%
%TD*%
%TA.AperFunction,ViaPad*%
%ADD17C,0.450000*%
%TD*%
%TA.AperFunction,ViaPad*%
%ADD18C,0.750000*%
%TD*%
%TA.AperFunction,ViaPad*%
%ADD19C,0.600000*%
%TD*%
%TA.AperFunction,ViaPad*%
%ADD20C,1.000000*%
%TD*%
%TA.AperFunction,Conductor*%
%ADD21C,0.200000*%
%TD*%
G04 APERTURE END LIST*
D10*
%TO.N,GND*%
%TO.C,U1*%
X129105000Y-68123100D03*
X130380000Y-68123100D03*
X131655000Y-68123100D03*
X129105000Y-66848100D03*
X130380000Y-66848100D03*
X131655000Y-66848100D03*
X129105000Y-65573100D03*
X130380000Y-65573100D03*
X131655000Y-65573100D03*
%TD*%
D11*
%TO.N,N/C*%
%TO.C,H2*%
X108225000Y-84200000D03*
%TD*%
D12*
%TO.N,GND*%
%TO.C,J2*%
X112900100Y-64278102D03*
D13*
X108720100Y-64278102D03*
D12*
X112900100Y-72918102D03*
D13*
X108720100Y-72918102D03*
%TD*%
D14*
%TO.N,*%
%TO.C,BT1*%
X109205100Y-61223102D03*
X109205100Y-50223102D03*
D15*
%TO.N,+BATT*%
X119205100Y-53223102D03*
D16*
%TO.N,GND*%
X119205100Y-58223102D03*
%TD*%
D11*
%TO.N,GND*%
%TO.C,H3*%
X149225000Y-84200000D03*
%TD*%
%TO.N,N/C*%
%TO.C,H1*%
X108225000Y-45200000D03*
%TD*%
%TO.N,N/C*%
%TO.C,H4*%
X149225000Y-45200000D03*
%TD*%
D17*
%TO.N,+3V3*%
X131980000Y-61570000D03*
X127850000Y-66120000D03*
X137670000Y-49440000D03*
X136940000Y-50060000D03*
%TO.N,GND*%
X124366402Y-75571000D03*
X145110000Y-52070000D03*
X129320000Y-51530000D03*
%TO.N,/LVC_CUTOFF*%
X114300000Y-53180000D03*
%TO.N,GND*%
X118330000Y-64650000D03*
X119030000Y-66350000D03*
X120270000Y-73110000D03*
%TO.N,Net-(SW3-C)*%
X128030000Y-50530000D03*
X114210000Y-51860000D03*
%TO.N,/LED*%
X128080000Y-71150000D03*
%TO.N,GND*%
X111250000Y-48060000D03*
%TO.N,/RP_SWD*%
X116120000Y-63650000D03*
%TO.N,/RP_SWCLK*%
X115540000Y-64380000D03*
%TO.N,/RP_SWD*%
X128700000Y-64340000D03*
%TO.N,/RP_SWCLK*%
X128110000Y-64730000D03*
%TO.N,GND*%
X129911937Y-49298063D03*
X132660000Y-49360000D03*
%TO.N,+3V3*%
X135858068Y-66081932D03*
%TO.N,/DRF_SW*%
X128040000Y-73330000D03*
%TO.N,/DRF_TXEN*%
X127010000Y-70160000D03*
%TO.N,/DRF_BUSY*%
X134570000Y-62070000D03*
%TO.N,/DRF_DIO1*%
X133990000Y-61550000D03*
D18*
%TO.N,GND*%
X133930000Y-60620000D03*
D17*
%TO.N,/DRF_TXEN*%
X131231819Y-69308181D03*
%TO.N,GND*%
X140470000Y-45050000D03*
X138910000Y-45090000D03*
X137690000Y-46840000D03*
X137310000Y-47740000D03*
X136550000Y-48360000D03*
X135590000Y-48410000D03*
X134580000Y-48420000D03*
X133530000Y-48380000D03*
X132280000Y-48330000D03*
X130760000Y-48290000D03*
X129270000Y-48320000D03*
X127930000Y-48350000D03*
X126370000Y-48360000D03*
X125060000Y-48350000D03*
X123650000Y-48360000D03*
X122350000Y-48340000D03*
X121170000Y-48340000D03*
X119800000Y-48280000D03*
X119380000Y-47400000D03*
X119330000Y-46060000D03*
X119330000Y-44990000D03*
X119370000Y-43840000D03*
X119400000Y-42890000D03*
X135740000Y-45210000D03*
X135120000Y-45800000D03*
X134460000Y-46110000D03*
X133640000Y-46150000D03*
X133580000Y-47650000D03*
X134420000Y-47650000D03*
X135480000Y-47590000D03*
X136240000Y-47090000D03*
X136780000Y-46560000D03*
X137360000Y-45850000D03*
X137350000Y-45140000D03*
%TO.N,/RESET*%
X140820000Y-64090000D03*
%TO.N,/DRF_BUSY*%
X133560000Y-70290000D03*
%TO.N,+3V3*%
X121150000Y-80250000D03*
%TO.N,/SDA*%
X132076477Y-64181879D03*
%TO.N,/SCL*%
X131190327Y-64209620D03*
%TO.N,GND*%
X137500000Y-70690000D03*
%TO.N,/RESET*%
X132970000Y-73980000D03*
%TO.N,GND*%
X143510000Y-67810000D03*
X141490000Y-70360000D03*
X143250000Y-72900000D03*
X139710000Y-71800000D03*
%TO.N,+3V3*%
X135350000Y-76330000D03*
%TO.N,VCC*%
X127920000Y-49590000D03*
X131480000Y-57790000D03*
D19*
X131040000Y-54550000D03*
%TO.N,+BATT*%
X122310000Y-56440000D03*
%TO.N,VBUS*%
X129660000Y-56280000D03*
X129680000Y-55360000D03*
D17*
%TO.N,GND*%
X119520000Y-64660000D03*
X121830000Y-69150000D03*
%TO.N,+3V3*%
X121060000Y-68690000D03*
X126660000Y-63470000D03*
%TO.N,/DRF_DIO1*%
X132515000Y-69345000D03*
%TO.N,/DRF_SW*%
X132460000Y-71530000D03*
%TO.N,GND*%
X130800000Y-73220000D03*
X133810000Y-76160000D03*
X138600000Y-78430000D03*
X133270000Y-83340000D03*
%TO.N,+3V3*%
X114730000Y-77640000D03*
%TO.N,GND*%
X117780000Y-71020000D03*
X117780000Y-69220000D03*
X117820000Y-68480000D03*
X117790000Y-67820000D03*
%TO.N,+3V3*%
X120340000Y-70390000D03*
X127980000Y-71830000D03*
X130690000Y-71720000D03*
D19*
X133120000Y-72760000D03*
%TO.N,+5V*%
X119610000Y-61960000D03*
X118590000Y-61970000D03*
X118600000Y-62790000D03*
X119660000Y-62810000D03*
X119660000Y-63640000D03*
X118610000Y-63640000D03*
%TO.N,GND*%
X148450000Y-64020000D03*
%TO.N,+5V*%
X149450000Y-62020000D03*
X150260000Y-61310000D03*
X148720000Y-61340000D03*
X147840000Y-60120000D03*
X147050000Y-60100000D03*
X146030000Y-61340000D03*
X146040000Y-62250000D03*
X146040000Y-63180000D03*
%TO.N,+3V3*%
X149570000Y-56600000D03*
X150220000Y-57200000D03*
X148880000Y-57160000D03*
X147810000Y-58370000D03*
X146950000Y-58370000D03*
X146060000Y-57380000D03*
X146090000Y-56400000D03*
X146080000Y-55370000D03*
D17*
%TO.N,GND*%
X150980000Y-52610000D03*
X151120000Y-54330000D03*
%TO.N,Net-(BT2-+)*%
X149400000Y-49360000D03*
%TO.N,GND*%
X126280000Y-60380000D03*
X127000000Y-60530000D03*
%TO.N,+BATT*%
X125490000Y-58040000D03*
%TO.N,VBUS*%
X127100000Y-59790000D03*
%TO.N,Net-(BT2-+)*%
X138920000Y-48590000D03*
X145450000Y-48200000D03*
%TO.N,+3V3*%
X140490000Y-48660000D03*
X142020000Y-48600000D03*
X143570000Y-48610000D03*
%TO.N,/SCL*%
X143200000Y-45090000D03*
%TO.N,/SDA*%
X142090000Y-45060000D03*
%TO.N,GND*%
X143480000Y-75790000D03*
X142330000Y-75850000D03*
X141310000Y-75910000D03*
X140580000Y-76520000D03*
X140100000Y-77410000D03*
X139770000Y-78650000D03*
X138930000Y-79450000D03*
X138070000Y-80230000D03*
X137130000Y-81170000D03*
X136260000Y-82120000D03*
X135460000Y-82970000D03*
X135460000Y-84170000D03*
X135450000Y-85310000D03*
X135470000Y-86420000D03*
X151350000Y-65530000D03*
X150440000Y-65540000D03*
X149380000Y-65490000D03*
X148380000Y-65500000D03*
X147450000Y-65490000D03*
X146420000Y-65510000D03*
X145460000Y-66070000D03*
X145470000Y-67080000D03*
X145480000Y-67950000D03*
X145530000Y-69060000D03*
X145560000Y-70130000D03*
X145590000Y-71360000D03*
X145620000Y-72550000D03*
X145630000Y-73640000D03*
X145640000Y-74630000D03*
X150920000Y-80650000D03*
X149760000Y-80550000D03*
X148640000Y-80560000D03*
X147500000Y-80600000D03*
X146460000Y-80630000D03*
X145690000Y-80010000D03*
X145720000Y-78930000D03*
X145690000Y-75630000D03*
X144960000Y-75950000D03*
X144440000Y-76470000D03*
X143810000Y-77060000D03*
X143140000Y-77750000D03*
X142470000Y-78370000D03*
X141800000Y-79020000D03*
X141180000Y-79650000D03*
X145820000Y-77140000D03*
X145380000Y-77700000D03*
X144870000Y-78280000D03*
X144320000Y-78860000D03*
X143760000Y-79370000D03*
X143150000Y-79930000D03*
X142640000Y-80490000D03*
X142100000Y-81110000D03*
X141540000Y-81700000D03*
X141040000Y-82210000D03*
X140660000Y-80190000D03*
X140130000Y-80680000D03*
X139630000Y-81100000D03*
X139190000Y-81630000D03*
X138770000Y-82250000D03*
X138420000Y-83010000D03*
X138310000Y-83950000D03*
X138310000Y-84860000D03*
X138330000Y-85670000D03*
X138390000Y-86580000D03*
X140730000Y-86510000D03*
X140830000Y-85770000D03*
X140830000Y-85100000D03*
X140790000Y-84260000D03*
X140760000Y-83450000D03*
X140490000Y-82660000D03*
%TO.N,Net-(AE2-A)*%
X140540000Y-81460000D03*
%TO.N,/QSPI_SS*%
X127070000Y-74430000D03*
X128670000Y-77240000D03*
D18*
%TO.N,GND*%
X128050000Y-79580000D03*
%TO.N,+5V*%
X125550000Y-79980000D03*
D17*
%TO.N,/RESET*%
X124300000Y-83000000D03*
%TO.N,GND*%
X138620000Y-65550000D03*
X138810000Y-66800000D03*
X139770000Y-66720000D03*
X138260000Y-63780000D03*
X134980000Y-68400000D03*
X132860000Y-67850000D03*
%TO.N,/RESET*%
X134890000Y-64270000D03*
%TO.N,GND*%
X131120000Y-60530000D03*
%TO.N,/SDA*%
X133160000Y-62550000D03*
%TO.N,/SCL*%
X132664458Y-62034458D03*
%TO.N,/DRF_CS*%
X128626224Y-61453776D03*
%TO.N,/DRF_MISO*%
X130180000Y-60030000D03*
%TO.N,/DRF_CLK*%
X128840000Y-60840000D03*
%TO.N,/DRF_MOSI*%
X129440000Y-60378000D03*
D19*
%TO.N,GND*%
X141073000Y-50496899D03*
D17*
X124980000Y-55960000D03*
D19*
X139703000Y-54831899D03*
D17*
X129780000Y-57160000D03*
X118075000Y-78975000D03*
D19*
X122325000Y-51355000D03*
X108120100Y-67348102D03*
D17*
X127530000Y-53660000D03*
X117450000Y-78975000D03*
X128405000Y-51535000D03*
D19*
X133195000Y-54775000D03*
D17*
X130280000Y-57860000D03*
D19*
X136085000Y-49425000D03*
D17*
X118350000Y-75050000D03*
X116825000Y-79000000D03*
D18*
X114695000Y-74425000D03*
D19*
X137958000Y-57806899D03*
D17*
X126980000Y-73215600D03*
X126230000Y-51435000D03*
D19*
X108120100Y-70348102D03*
X142043000Y-50651899D03*
D17*
X122305000Y-57860000D03*
X125005000Y-53660000D03*
D20*
X141088101Y-65151899D03*
D17*
X127705000Y-51410000D03*
X122780000Y-57185000D03*
D19*
X136533000Y-57831899D03*
D17*
X127505000Y-55960000D03*
D19*
X123175000Y-51355000D03*
D17*
%TO.N,+3V3*%
X114400000Y-81625000D03*
D19*
X115025000Y-76525000D03*
D17*
%TO.N,VCC*%
X138403000Y-60226899D03*
%TO.N,Net-(U5-FB1)*%
X136860000Y-61520000D03*
X138323000Y-55086899D03*
%TO.N,Net-(U5-BIAS)*%
X136090000Y-61600000D03*
X136113000Y-55016899D03*
X139713000Y-55706899D03*
%TO.N,Net-(U5-VCC)*%
X139923000Y-57546899D03*
X139253000Y-60326899D03*
D19*
%TO.N,VBUS*%
X117005000Y-67825000D03*
X117005000Y-68555000D03*
X117015000Y-69295000D03*
D17*
%TO.N,Net-(J2-CC1)*%
X112245100Y-67348102D03*
%TO.N,/LED*%
X117637500Y-72400000D03*
%TO.N,/LVC_CUTOFF*%
X133473000Y-56416899D03*
%TO.N,Net-(J2-CC2)*%
X112145100Y-70348102D03*
%TD*%
D21*
%TO.N,/SCL*%
X144170000Y-46060000D02*
X143200000Y-45090000D01*
X144170000Y-56150000D02*
X144170000Y-46060000D01*
X134382775Y-62522000D02*
X137798000Y-62522000D01*
X137798000Y-62522000D02*
X144170000Y-56150000D01*
X133895233Y-62034458D02*
X134382775Y-62522000D01*
X132664458Y-62034458D02*
X133895233Y-62034458D01*
%TO.N,/SDA*%
X142750000Y-44400000D02*
X142090000Y-45060000D01*
X144530000Y-45460000D02*
X143470000Y-44400000D01*
X143470000Y-44400000D02*
X142750000Y-44400000D01*
X133459000Y-62849000D02*
X137933448Y-62849000D01*
X137933448Y-62849000D02*
X144530000Y-56252448D01*
X144530000Y-56252448D02*
X144530000Y-45460000D01*
X133160000Y-62550000D02*
X133459000Y-62849000D01*
%TO.N,+3V3*%
X126660000Y-64930000D02*
X126660000Y-63470000D01*
X127850000Y-66120000D02*
X126660000Y-64930000D01*
%TD*%
%TA.AperFunction,Conductor*%
%TO.N,GND*%
G36*
X119956639Y-42520185D02*
G01*
X120002394Y-42572989D01*
X120013600Y-42624500D01*
X120013599Y-47804999D01*
X120013600Y-47805000D01*
X133263600Y-47805000D01*
X133263600Y-42624500D01*
X133283285Y-42557461D01*
X133336089Y-42511706D01*
X133387600Y-42500500D01*
X149177405Y-42500500D01*
X149221519Y-42500500D01*
X149228472Y-42500695D01*
X149520306Y-42517084D01*
X149534103Y-42518638D01*
X149818827Y-42567015D01*
X149832382Y-42570108D01*
X149971141Y-42610084D01*
X150109899Y-42650060D01*
X150123025Y-42654653D01*
X150389841Y-42765172D01*
X150402355Y-42771198D01*
X150568444Y-42862992D01*
X150655125Y-42910899D01*
X150666899Y-42918297D01*
X150902430Y-43085415D01*
X150913302Y-43094085D01*
X151011964Y-43182255D01*
X151128642Y-43286524D01*
X151138475Y-43296357D01*
X151330914Y-43511697D01*
X151339584Y-43522569D01*
X151506702Y-43758100D01*
X151514100Y-43769874D01*
X151653797Y-44022637D01*
X151659830Y-44035165D01*
X151770346Y-44301975D01*
X151774939Y-44315100D01*
X151854890Y-44592615D01*
X151857984Y-44606172D01*
X151906359Y-44890885D01*
X151907916Y-44904703D01*
X151924305Y-45196526D01*
X151924500Y-45203479D01*
X151924500Y-65956000D01*
X151904815Y-66023039D01*
X151852011Y-66068794D01*
X151800500Y-66080000D01*
X146090000Y-66080000D01*
X146090000Y-80030000D01*
X151800500Y-80030000D01*
X151867539Y-80049685D01*
X151913294Y-80102489D01*
X151924500Y-80154000D01*
X151924500Y-84196519D01*
X151924305Y-84203472D01*
X151907916Y-84495296D01*
X151906359Y-84509114D01*
X151857984Y-84793827D01*
X151854890Y-84807384D01*
X151774939Y-85084899D01*
X151770346Y-85098024D01*
X151659830Y-85364834D01*
X151653797Y-85377362D01*
X151514100Y-85630125D01*
X151506702Y-85641899D01*
X151339584Y-85877430D01*
X151330914Y-85888302D01*
X151138475Y-86103642D01*
X151128642Y-86113475D01*
X150913302Y-86305914D01*
X150902430Y-86314584D01*
X150666899Y-86481702D01*
X150655125Y-86489100D01*
X150402362Y-86628797D01*
X150389834Y-86634830D01*
X150123024Y-86745346D01*
X150109899Y-86749939D01*
X149832384Y-86829890D01*
X149818827Y-86832984D01*
X149534114Y-86881359D01*
X149520296Y-86882916D01*
X149228472Y-86899305D01*
X149221519Y-86899500D01*
X108228481Y-86899500D01*
X108221528Y-86899305D01*
X107929703Y-86882916D01*
X107915885Y-86881359D01*
X107631172Y-86832984D01*
X107617615Y-86829890D01*
X107340100Y-86749939D01*
X107326975Y-86745346D01*
X107060165Y-86634830D01*
X107047637Y-86628797D01*
X106794874Y-86489100D01*
X106783100Y-86481702D01*
X106547569Y-86314584D01*
X106536697Y-86305914D01*
X106321357Y-86113475D01*
X106311524Y-86103642D01*
X106264026Y-86050492D01*
X106119085Y-85888302D01*
X106110415Y-85877430D01*
X105943297Y-85641899D01*
X105935899Y-85630125D01*
X105796202Y-85377362D01*
X105790172Y-85364841D01*
X105679653Y-85098024D01*
X105675060Y-85084899D01*
X105595109Y-84807384D01*
X105592015Y-84793827D01*
X105578965Y-84717020D01*
X105543638Y-84509103D01*
X105542084Y-84495306D01*
X105525695Y-84203472D01*
X105525598Y-84200000D01*
X105892506Y-84200000D01*
X105912461Y-84504452D01*
X105913251Y-84508423D01*
X105913252Y-84508431D01*
X105971191Y-84799710D01*
X105971193Y-84799717D01*
X105971984Y-84803694D01*
X105973284Y-84807525D01*
X105973288Y-84807538D01*
X106057428Y-85055404D01*
X106070057Y-85092607D01*
X106071850Y-85096243D01*
X106071853Y-85096250D01*
X106203205Y-85362607D01*
X106203211Y-85362618D01*
X106205001Y-85366247D01*
X106207252Y-85369616D01*
X106207255Y-85369621D01*
X106217141Y-85384416D01*
X106374508Y-85619932D01*
X106377183Y-85622982D01*
X106377189Y-85622990D01*
X106445122Y-85700452D01*
X106575678Y-85849322D01*
X106578726Y-85851995D01*
X106802009Y-86047810D01*
X106802015Y-86047814D01*
X106805068Y-86050492D01*
X107058753Y-86219999D01*
X107062386Y-86221790D01*
X107062392Y-86221794D01*
X107250553Y-86314584D01*
X107332393Y-86354943D01*
X107540541Y-86425600D01*
X107617461Y-86451711D01*
X107617463Y-86451711D01*
X107621306Y-86453016D01*
X107920548Y-86512539D01*
X108225000Y-86532494D01*
X108529452Y-86512539D01*
X108828694Y-86453016D01*
X109117607Y-86354943D01*
X109391247Y-86219999D01*
X109644932Y-86050492D01*
X109874322Y-85849322D01*
X110075492Y-85619932D01*
X110244999Y-85366247D01*
X110379943Y-85092607D01*
X110478016Y-84803694D01*
X110537539Y-84504452D01*
X110557494Y-84200000D01*
X110537539Y-83895548D01*
X110478016Y-83596306D01*
X110379943Y-83307393D01*
X110282741Y-83110286D01*
X110246794Y-83037392D01*
X110246790Y-83037386D01*
X110244999Y-83033753D01*
X110222445Y-82999999D01*
X123943105Y-82999999D01*
X123960573Y-83110285D01*
X124011266Y-83209777D01*
X124090222Y-83288733D01*
X124189714Y-83339426D01*
X124299999Y-83356894D01*
X124299999Y-83356893D01*
X124300000Y-83356894D01*
X124410286Y-83339426D01*
X124509777Y-83288733D01*
X124588733Y-83209777D01*
X124639426Y-83110286D01*
X124656894Y-83000000D01*
X124639426Y-82889714D01*
X124639425Y-82889714D01*
X124588733Y-82790222D01*
X124509777Y-82711266D01*
X124410285Y-82660573D01*
X124299999Y-82643105D01*
X124189714Y-82660573D01*
X124090222Y-82711266D01*
X124011266Y-82790222D01*
X123960573Y-82889714D01*
X123943105Y-82999999D01*
X110222445Y-82999999D01*
X110075492Y-82780068D01*
X110072814Y-82777015D01*
X110072810Y-82777009D01*
X109876995Y-82553726D01*
X109874322Y-82550678D01*
X109871273Y-82548004D01*
X109647990Y-82352189D01*
X109647982Y-82352183D01*
X109644932Y-82349508D01*
X109641550Y-82347248D01*
X109394621Y-82182255D01*
X109394616Y-82182252D01*
X109391247Y-82180001D01*
X109387618Y-82178211D01*
X109387607Y-82178205D01*
X109121250Y-82046853D01*
X109121243Y-82046850D01*
X109117607Y-82045057D01*
X109113760Y-82043751D01*
X108832538Y-81948288D01*
X108832525Y-81948284D01*
X108828694Y-81946984D01*
X108824717Y-81946193D01*
X108824710Y-81946191D01*
X108533431Y-81888252D01*
X108533423Y-81888251D01*
X108529452Y-81887461D01*
X108225000Y-81867506D01*
X108220957Y-81867771D01*
X107924590Y-81887196D01*
X107924588Y-81887196D01*
X107920548Y-81887461D01*
X107916577Y-81888250D01*
X107916568Y-81888252D01*
X107625289Y-81946191D01*
X107625278Y-81946193D01*
X107621306Y-81946984D01*
X107617477Y-81948283D01*
X107617461Y-81948288D01*
X107336239Y-82043751D01*
X107336232Y-82043753D01*
X107332393Y-82045057D01*
X107328761Y-82046847D01*
X107328749Y-82046853D01*
X107062392Y-82178205D01*
X107062374Y-82178214D01*
X107058753Y-82180001D01*
X107055390Y-82182247D01*
X107055378Y-82182255D01*
X106808449Y-82347248D01*
X106808440Y-82347254D01*
X106805068Y-82349508D01*
X106802024Y-82352177D01*
X106802009Y-82352189D01*
X106578726Y-82548004D01*
X106578718Y-82548011D01*
X106575678Y-82550678D01*
X106573011Y-82553718D01*
X106573004Y-82553726D01*
X106377189Y-82777009D01*
X106377177Y-82777024D01*
X106374508Y-82780068D01*
X106372254Y-82783440D01*
X106372248Y-82783449D01*
X106207255Y-83030378D01*
X106207247Y-83030390D01*
X106205001Y-83033753D01*
X106203214Y-83037374D01*
X106203205Y-83037392D01*
X106071853Y-83303749D01*
X106071847Y-83303761D01*
X106070057Y-83307393D01*
X106068753Y-83311232D01*
X106068751Y-83311239D01*
X105973288Y-83592461D01*
X105973283Y-83592477D01*
X105971984Y-83596306D01*
X105971193Y-83600278D01*
X105971191Y-83600289D01*
X105913252Y-83891568D01*
X105913250Y-83891577D01*
X105912461Y-83895548D01*
X105892506Y-84200000D01*
X105525598Y-84200000D01*
X105525500Y-84196519D01*
X105525500Y-81625000D01*
X114043105Y-81625000D01*
X114060573Y-81735285D01*
X114111266Y-81834777D01*
X114190222Y-81913733D01*
X114255482Y-81946984D01*
X114289714Y-81964426D01*
X114400000Y-81981894D01*
X114510286Y-81964426D01*
X114609777Y-81913733D01*
X114688733Y-81834777D01*
X114739426Y-81735286D01*
X114756894Y-81625000D01*
X114739426Y-81514714D01*
X114711548Y-81460000D01*
X140139999Y-81460000D01*
X140159576Y-81583605D01*
X140159576Y-81583606D01*
X140159577Y-81583607D01*
X140216393Y-81695114D01*
X140304886Y-81783607D01*
X140416393Y-81840423D01*
X140478196Y-81850211D01*
X140539999Y-81860000D01*
X140539999Y-81859999D01*
X140540000Y-81860000D01*
X140663607Y-81840423D01*
X140775114Y-81783607D01*
X140863607Y-81695114D01*
X140920423Y-81583607D01*
X140940000Y-81460000D01*
X140920423Y-81336393D01*
X140863607Y-81224886D01*
X140775114Y-81136393D01*
X140663607Y-81079577D01*
X140663606Y-81079576D01*
X140663605Y-81079576D01*
X140539999Y-81059999D01*
X140416394Y-81079576D01*
X140304884Y-81136394D01*
X140216394Y-81224884D01*
X140159576Y-81336394D01*
X140139999Y-81460000D01*
X114711548Y-81460000D01*
X114688733Y-81415222D01*
X114609777Y-81336266D01*
X114510285Y-81285573D01*
X114400000Y-81268105D01*
X114289714Y-81285573D01*
X114190222Y-81336266D01*
X114111266Y-81415222D01*
X114060573Y-81514714D01*
X114043105Y-81625000D01*
X105525500Y-81625000D01*
X105525500Y-80249999D01*
X120793105Y-80249999D01*
X120810573Y-80360285D01*
X120861266Y-80459777D01*
X120940222Y-80538733D01*
X121039714Y-80589426D01*
X121149999Y-80606894D01*
X121149999Y-80606893D01*
X121150000Y-80606894D01*
X121260286Y-80589426D01*
X121359777Y-80538733D01*
X121438733Y-80459777D01*
X121489426Y-80360286D01*
X121506894Y-80250000D01*
X121489426Y-80139714D01*
X121470459Y-80102489D01*
X121438733Y-80040222D01*
X121378511Y-79980000D01*
X125042333Y-79980000D01*
X125062897Y-80123028D01*
X125122922Y-80254466D01*
X125217547Y-80363667D01*
X125217549Y-80363669D01*
X125339108Y-80441790D01*
X125477751Y-80482500D01*
X125477752Y-80482500D01*
X125622248Y-80482500D01*
X125622249Y-80482500D01*
X125760892Y-80441790D01*
X125882451Y-80363669D01*
X125977077Y-80254466D01*
X126037103Y-80123026D01*
X126057667Y-79980000D01*
X126037103Y-79836974D01*
X125977077Y-79705534D01*
X125977077Y-79705533D01*
X125882452Y-79596332D01*
X125882451Y-79596331D01*
X125760892Y-79518210D01*
X125622249Y-79477500D01*
X125477751Y-79477500D01*
X125339107Y-79518209D01*
X125339108Y-79518210D01*
X125217547Y-79596332D01*
X125122922Y-79705533D01*
X125062897Y-79836971D01*
X125042333Y-79980000D01*
X121378511Y-79980000D01*
X121359777Y-79961266D01*
X121260285Y-79910573D01*
X121150000Y-79893105D01*
X121039714Y-79910573D01*
X120940222Y-79961266D01*
X120861266Y-80040222D01*
X120810573Y-80139714D01*
X120793105Y-80249999D01*
X105525500Y-80249999D01*
X105525500Y-77414182D01*
X106111258Y-77414182D01*
X106121491Y-77576823D01*
X106171848Y-77731808D01*
X106171849Y-77731810D01*
X106171850Y-77731812D01*
X106246713Y-77849777D01*
X106259173Y-77869411D01*
X106377964Y-77980962D01*
X106377965Y-77980963D01*
X106377968Y-77980965D01*
X106520775Y-78059474D01*
X106520777Y-78059475D01*
X106678619Y-78100002D01*
X106678620Y-78100002D01*
X106796783Y-78100002D01*
X106800678Y-78100002D01*
X106921782Y-78084703D01*
X107073303Y-78024712D01*
X107205144Y-77928923D01*
X107309022Y-77803357D01*
X107378409Y-77655902D01*
X107408945Y-77495824D01*
X107405396Y-77439422D01*
X107403808Y-77414182D01*
X112911254Y-77414182D01*
X112921487Y-77576823D01*
X112971844Y-77731808D01*
X112971845Y-77731810D01*
X112971846Y-77731812D01*
X113046709Y-77849777D01*
X113059169Y-77869411D01*
X113177960Y-77980962D01*
X113177961Y-77980963D01*
X113177964Y-77980965D01*
X113320771Y-78059474D01*
X113320773Y-78059475D01*
X113478615Y-78100002D01*
X113478616Y-78100002D01*
X113596779Y-78100002D01*
X113600674Y-78100002D01*
X113721778Y-78084703D01*
X113873299Y-78024712D01*
X114005140Y-77928923D01*
X114109018Y-77803357D01*
X114154342Y-77707037D01*
X114200695Y-77654760D01*
X114267955Y-77635842D01*
X114334766Y-77656290D01*
X114379915Y-77709613D01*
X114389013Y-77740434D01*
X114390573Y-77750285D01*
X114441266Y-77849777D01*
X114520222Y-77928733D01*
X114619714Y-77979426D01*
X114729999Y-77996894D01*
X114729999Y-77996893D01*
X114730000Y-77996894D01*
X114840286Y-77979426D01*
X114939777Y-77928733D01*
X115018733Y-77849777D01*
X115069426Y-77750286D01*
X115086894Y-77640000D01*
X115069426Y-77529714D01*
X115052157Y-77495821D01*
X115018733Y-77430222D01*
X114939777Y-77351266D01*
X114840285Y-77300573D01*
X114729999Y-77283105D01*
X114619714Y-77300573D01*
X114520222Y-77351266D01*
X114441266Y-77430222D01*
X114436579Y-77439422D01*
X114388603Y-77490217D01*
X114320782Y-77507011D01*
X114254647Y-77484472D01*
X114211197Y-77429756D01*
X114202340Y-77390910D01*
X114198708Y-77333180D01*
X114168432Y-77240000D01*
X128313105Y-77240000D01*
X128330573Y-77350285D01*
X128381266Y-77449777D01*
X128460222Y-77528733D01*
X128554605Y-77576823D01*
X128559714Y-77579426D01*
X128670000Y-77596894D01*
X128780286Y-77579426D01*
X128879777Y-77528733D01*
X128958733Y-77449777D01*
X129009426Y-77350286D01*
X129026894Y-77240000D01*
X129009426Y-77129714D01*
X128997672Y-77106645D01*
X128958733Y-77030222D01*
X128879777Y-76951266D01*
X128780285Y-76900573D01*
X128670000Y-76883105D01*
X128559714Y-76900573D01*
X128460222Y-76951266D01*
X128381266Y-77030222D01*
X128330573Y-77129714D01*
X128313105Y-77240000D01*
X114168432Y-77240000D01*
X114148351Y-77178195D01*
X114148350Y-77178194D01*
X114148350Y-77178192D01*
X114061029Y-77040596D01*
X114061027Y-77040594D01*
X114061026Y-77040592D01*
X113942235Y-76929041D01*
X113942232Y-76929039D01*
X113825515Y-76864873D01*
X113799422Y-76850528D01*
X113641581Y-76810002D01*
X113641580Y-76810002D01*
X113519522Y-76810002D01*
X113515663Y-76810489D01*
X113515655Y-76810490D01*
X113398417Y-76825300D01*
X113246899Y-76885290D01*
X113115054Y-76981082D01*
X113011178Y-77106645D01*
X112941791Y-77254101D01*
X112911254Y-77414182D01*
X107403808Y-77414182D01*
X107398712Y-77333180D01*
X107348355Y-77178195D01*
X107348354Y-77178194D01*
X107348354Y-77178192D01*
X107261033Y-77040596D01*
X107261031Y-77040594D01*
X107261030Y-77040592D01*
X107142239Y-76929041D01*
X107142236Y-76929039D01*
X107025519Y-76864873D01*
X106999426Y-76850528D01*
X106841585Y-76810002D01*
X106841584Y-76810002D01*
X106719526Y-76810002D01*
X106715667Y-76810489D01*
X106715659Y-76810490D01*
X106598421Y-76825300D01*
X106446903Y-76885290D01*
X106315058Y-76981082D01*
X106211182Y-77106645D01*
X106141795Y-77254101D01*
X106111258Y-77414182D01*
X105525500Y-77414182D01*
X105525500Y-76525000D01*
X114593104Y-76525000D01*
X114611050Y-76649821D01*
X114615280Y-76658125D01*
X114615281Y-76658126D01*
X114619326Y-76666067D01*
X114619335Y-76666083D01*
X114621626Y-76670828D01*
X114628964Y-76686894D01*
X114661667Y-76758504D01*
X114663317Y-76760408D01*
X114672920Y-76774668D01*
X114690419Y-76792167D01*
X114696450Y-76798645D01*
X114741408Y-76850528D01*
X114742168Y-76851405D01*
X114751913Y-76857667D01*
X114771271Y-76873268D01*
X114771778Y-76873526D01*
X114771780Y-76873528D01*
X114789494Y-76882553D01*
X114800221Y-76888713D01*
X114845584Y-76917866D01*
X114865694Y-76923770D01*
X114887056Y-76932264D01*
X114891874Y-76934719D01*
X114908097Y-76937288D01*
X114923638Y-76940784D01*
X114963535Y-76952500D01*
X114994381Y-76952500D01*
X115013779Y-76954026D01*
X115018524Y-76954778D01*
X115024999Y-76955804D01*
X115024999Y-76955803D01*
X115025000Y-76955804D01*
X115036220Y-76954026D01*
X115055619Y-76952500D01*
X115086464Y-76952500D01*
X115086465Y-76952500D01*
X115126361Y-76940784D01*
X115141897Y-76937289D01*
X115146416Y-76936573D01*
X115158126Y-76934719D01*
X115162944Y-76932263D01*
X115184299Y-76923772D01*
X115204416Y-76917866D01*
X115249780Y-76888711D01*
X115260497Y-76882557D01*
X115278220Y-76873528D01*
X115278223Y-76873524D01*
X115278731Y-76873266D01*
X115298089Y-76857665D01*
X115307832Y-76851405D01*
X115353548Y-76798645D01*
X115359561Y-76792186D01*
X115373528Y-76778220D01*
X115373529Y-76778217D01*
X115377087Y-76774660D01*
X115386695Y-76760392D01*
X115388334Y-76758501D01*
X115428363Y-76670848D01*
X115430658Y-76666094D01*
X115434719Y-76658126D01*
X115434719Y-76658123D01*
X115438948Y-76649824D01*
X115439399Y-76646681D01*
X115439401Y-76646679D01*
X115456896Y-76525000D01*
X115439401Y-76403321D01*
X115439400Y-76403319D01*
X115438948Y-76400174D01*
X115430660Y-76383907D01*
X115428367Y-76379160D01*
X115405916Y-76329999D01*
X134993105Y-76329999D01*
X135010573Y-76440285D01*
X135061266Y-76539777D01*
X135140222Y-76618733D01*
X135233153Y-76666083D01*
X135239714Y-76669426D01*
X135350000Y-76686894D01*
X135460286Y-76669426D01*
X135559777Y-76618733D01*
X135638733Y-76539777D01*
X135689426Y-76440286D01*
X135706894Y-76330000D01*
X135698684Y-76278168D01*
X135689426Y-76219714D01*
X135638733Y-76120222D01*
X135559777Y-76041266D01*
X135460285Y-75990573D01*
X135349999Y-75973105D01*
X135239714Y-75990573D01*
X135140222Y-76041266D01*
X135061266Y-76120222D01*
X135010573Y-76219714D01*
X134993105Y-76329999D01*
X115405916Y-76329999D01*
X115388334Y-76291499D01*
X115386687Y-76289598D01*
X115377083Y-76275335D01*
X115373528Y-76271780D01*
X115359566Y-76257818D01*
X115353547Y-76251353D01*
X115307830Y-76198593D01*
X115298086Y-76192331D01*
X115278728Y-76176731D01*
X115278220Y-76176472D01*
X115260512Y-76167449D01*
X115249775Y-76161284D01*
X115204416Y-76132133D01*
X115188470Y-76127451D01*
X115184303Y-76126228D01*
X115162949Y-76117738D01*
X115158126Y-76115280D01*
X115141896Y-76112710D01*
X115126360Y-76109214D01*
X115086466Y-76097500D01*
X115086465Y-76097500D01*
X115055619Y-76097500D01*
X115036220Y-76095973D01*
X115035052Y-76095788D01*
X115025000Y-76094195D01*
X115014947Y-76095788D01*
X115013779Y-76095973D01*
X114994381Y-76097500D01*
X114963535Y-76097500D01*
X114944653Y-76103044D01*
X114923639Y-76109214D01*
X114908109Y-76112709D01*
X114891872Y-76115281D01*
X114887048Y-76117739D01*
X114865700Y-76126226D01*
X114845585Y-76132133D01*
X114821238Y-76147779D01*
X114800223Y-76161284D01*
X114789487Y-76167449D01*
X114771277Y-76176727D01*
X114751917Y-76192328D01*
X114742169Y-76198592D01*
X114696455Y-76251348D01*
X114690430Y-76257820D01*
X114672926Y-76275325D01*
X114663323Y-76289586D01*
X114661667Y-76291497D01*
X114621644Y-76379133D01*
X114619342Y-76383901D01*
X114611050Y-76400178D01*
X114593104Y-76525000D01*
X105525500Y-76525000D01*
X105525500Y-74430000D01*
X126713105Y-74430000D01*
X126730573Y-74540285D01*
X126781266Y-74639777D01*
X126860222Y-74718733D01*
X126959714Y-74769425D01*
X126959714Y-74769426D01*
X127070000Y-74786894D01*
X127180286Y-74769426D01*
X127279777Y-74718733D01*
X127358733Y-74639777D01*
X127409426Y-74540286D01*
X127426894Y-74430000D01*
X127409426Y-74319714D01*
X127383450Y-74268733D01*
X127358733Y-74220222D01*
X127279777Y-74141266D01*
X127180285Y-74090573D01*
X127069999Y-74073105D01*
X126959714Y-74090573D01*
X126860222Y-74141266D01*
X126781266Y-74220222D01*
X126730573Y-74319714D01*
X126713105Y-74430000D01*
X105525500Y-74430000D01*
X105525500Y-73980000D01*
X132613105Y-73980000D01*
X132630573Y-74090285D01*
X132681266Y-74189777D01*
X132760222Y-74268733D01*
X132859714Y-74319426D01*
X132969999Y-74336894D01*
X132969999Y-74336893D01*
X132970000Y-74336894D01*
X133080286Y-74319426D01*
X133179777Y-74268733D01*
X133258733Y-74189777D01*
X133309426Y-74090286D01*
X133326894Y-73980000D01*
X133309426Y-73869714D01*
X133258733Y-73770222D01*
X133179777Y-73691266D01*
X133080285Y-73640573D01*
X132969999Y-73623105D01*
X132859714Y-73640573D01*
X132760222Y-73691266D01*
X132681266Y-73770222D01*
X132630573Y-73869714D01*
X132613105Y-73980000D01*
X105525500Y-73980000D01*
X105525500Y-73330000D01*
X127683105Y-73330000D01*
X127700573Y-73440285D01*
X127751266Y-73539777D01*
X127830222Y-73618733D01*
X127929714Y-73669425D01*
X127929714Y-73669426D01*
X128040000Y-73686894D01*
X128150286Y-73669426D01*
X128249777Y-73618733D01*
X128328733Y-73539777D01*
X128379426Y-73440286D01*
X128396894Y-73330000D01*
X128379426Y-73219714D01*
X128355262Y-73172289D01*
X128328733Y-73120222D01*
X128249777Y-73041266D01*
X128150285Y-72990573D01*
X128040000Y-72973105D01*
X127929714Y-72990573D01*
X127830222Y-73041266D01*
X127751266Y-73120222D01*
X127700573Y-73219714D01*
X127683105Y-73330000D01*
X105525500Y-73330000D01*
X105525500Y-72760000D01*
X132688104Y-72760000D01*
X132706050Y-72884821D01*
X132710280Y-72893125D01*
X132710281Y-72893126D01*
X132714326Y-72901067D01*
X132714335Y-72901083D01*
X132716626Y-72905828D01*
X132744345Y-72966522D01*
X132756667Y-72993504D01*
X132758317Y-72995408D01*
X132767920Y-73009668D01*
X132785419Y-73027167D01*
X132791450Y-73033645D01*
X132837165Y-73086402D01*
X132837168Y-73086405D01*
X132846913Y-73092667D01*
X132866271Y-73108268D01*
X132866778Y-73108526D01*
X132866780Y-73108528D01*
X132884494Y-73117553D01*
X132895221Y-73123713D01*
X132940584Y-73152866D01*
X132960694Y-73158770D01*
X132982056Y-73167264D01*
X132986874Y-73169719D01*
X133003097Y-73172288D01*
X133018638Y-73175784D01*
X133058535Y-73187500D01*
X133089381Y-73187500D01*
X133108779Y-73189026D01*
X133120000Y-73190804D01*
X133131220Y-73189026D01*
X133150619Y-73187500D01*
X133181464Y-73187500D01*
X133181465Y-73187500D01*
X133221361Y-73175784D01*
X133236897Y-73172289D01*
X133241416Y-73171573D01*
X133253126Y-73169719D01*
X133257944Y-73167263D01*
X133279299Y-73158772D01*
X133299416Y-73152866D01*
X133344780Y-73123711D01*
X133355497Y-73117557D01*
X133373220Y-73108528D01*
X133373223Y-73108524D01*
X133373731Y-73108266D01*
X133393089Y-73092665D01*
X133402832Y-73086405D01*
X133448548Y-73033645D01*
X133454561Y-73027186D01*
X133468528Y-73013220D01*
X133468529Y-73013217D01*
X133472087Y-73009660D01*
X133481695Y-72995392D01*
X133483334Y-72993501D01*
X133523363Y-72905848D01*
X133525658Y-72901094D01*
X133529719Y-72893126D01*
X133529719Y-72893123D01*
X133533948Y-72884824D01*
X133534399Y-72881681D01*
X133534401Y-72881679D01*
X133551896Y-72760000D01*
X133534401Y-72638321D01*
X133534400Y-72638319D01*
X133533948Y-72635174D01*
X133525660Y-72618907D01*
X133523367Y-72614160D01*
X133483334Y-72526499D01*
X133481687Y-72524598D01*
X133472083Y-72510335D01*
X133468528Y-72506780D01*
X133454566Y-72492818D01*
X133448547Y-72486353D01*
X133402830Y-72433593D01*
X133393086Y-72427331D01*
X133373728Y-72411731D01*
X133373220Y-72411472D01*
X133355512Y-72402449D01*
X133344775Y-72396284D01*
X133299416Y-72367133D01*
X133283470Y-72362451D01*
X133279303Y-72361228D01*
X133257949Y-72352738D01*
X133253126Y-72350280D01*
X133236896Y-72347710D01*
X133221360Y-72344214D01*
X133181466Y-72332500D01*
X133181465Y-72332500D01*
X133150619Y-72332500D01*
X133131220Y-72330973D01*
X133130052Y-72330788D01*
X133120000Y-72329195D01*
X133109947Y-72330788D01*
X133108779Y-72330973D01*
X133089381Y-72332500D01*
X133058535Y-72332500D01*
X133039653Y-72338044D01*
X133018639Y-72344214D01*
X133003109Y-72347709D01*
X132986872Y-72350281D01*
X132982048Y-72352739D01*
X132960700Y-72361226D01*
X132940585Y-72367133D01*
X132916238Y-72382779D01*
X132895223Y-72396284D01*
X132884487Y-72402449D01*
X132866277Y-72411727D01*
X132846917Y-72427328D01*
X132837169Y-72433592D01*
X132791455Y-72486348D01*
X132785430Y-72492820D01*
X132767926Y-72510325D01*
X132758323Y-72524586D01*
X132756667Y-72526497D01*
X132716644Y-72614133D01*
X132714342Y-72618901D01*
X132706050Y-72635178D01*
X132688104Y-72760000D01*
X105525500Y-72760000D01*
X105525500Y-72400000D01*
X117280605Y-72400000D01*
X117298073Y-72510285D01*
X117348766Y-72609777D01*
X117427722Y-72688733D01*
X117527213Y-72739425D01*
X117527214Y-72739426D01*
X117637500Y-72756894D01*
X117747786Y-72739426D01*
X117847277Y-72688733D01*
X117926233Y-72609777D01*
X117976926Y-72510286D01*
X117994394Y-72400000D01*
X117976926Y-72289714D01*
X117976925Y-72289714D01*
X117926233Y-72190222D01*
X117847277Y-72111266D01*
X117747785Y-72060573D01*
X117637500Y-72043105D01*
X117527214Y-72060573D01*
X117427722Y-72111266D01*
X117348766Y-72190222D01*
X117298073Y-72289714D01*
X117280605Y-72400000D01*
X105525500Y-72400000D01*
X105525500Y-71524301D01*
X111870896Y-71524301D01*
X111894997Y-71640285D01*
X111900286Y-71665736D01*
X111966746Y-71793998D01*
X112065344Y-71899571D01*
X112188770Y-71974628D01*
X112327872Y-72013602D01*
X112431812Y-72013602D01*
X112436049Y-72013602D01*
X112543211Y-71998873D01*
X112675709Y-71941321D01*
X112787765Y-71850156D01*
X112801993Y-71830000D01*
X127623105Y-71830000D01*
X127640573Y-71940285D01*
X127691266Y-72039777D01*
X127770222Y-72118733D01*
X127869714Y-72169426D01*
X127979999Y-72186894D01*
X127979999Y-72186893D01*
X127980000Y-72186894D01*
X128090286Y-72169426D01*
X128189777Y-72118733D01*
X128268733Y-72039777D01*
X128319426Y-71940286D01*
X128336894Y-71830000D01*
X128319471Y-71720000D01*
X130333105Y-71720000D01*
X130350573Y-71830285D01*
X130401266Y-71929777D01*
X130480222Y-72008733D01*
X130579714Y-72059426D01*
X130689999Y-72076894D01*
X130689999Y-72076893D01*
X130690000Y-72076894D01*
X130800286Y-72059426D01*
X130899777Y-72008733D01*
X130978733Y-71929777D01*
X131029426Y-71830286D01*
X131046894Y-71720000D01*
X131029426Y-71609714D01*
X130988810Y-71530000D01*
X130988809Y-71529999D01*
X132103105Y-71529999D01*
X132120573Y-71640285D01*
X132171266Y-71739777D01*
X132250222Y-71818733D01*
X132311892Y-71850155D01*
X132349714Y-71869426D01*
X132460000Y-71886894D01*
X132570286Y-71869426D01*
X132669777Y-71818733D01*
X132748733Y-71739777D01*
X132799426Y-71640286D01*
X132816894Y-71530000D01*
X132813761Y-71510222D01*
X132799426Y-71419714D01*
X132748733Y-71320222D01*
X132669777Y-71241266D01*
X132570285Y-71190573D01*
X132459999Y-71173105D01*
X132349714Y-71190573D01*
X132250222Y-71241266D01*
X132171266Y-71320222D01*
X132120573Y-71419714D01*
X132103105Y-71529999D01*
X130988809Y-71529999D01*
X130978733Y-71510222D01*
X130899777Y-71431266D01*
X130800285Y-71380573D01*
X130690000Y-71363105D01*
X130579714Y-71380573D01*
X130480222Y-71431266D01*
X130401266Y-71510222D01*
X130350573Y-71609714D01*
X130333105Y-71720000D01*
X128319471Y-71720000D01*
X128319426Y-71719714D01*
X128278956Y-71640286D01*
X128259817Y-71602723D01*
X128261965Y-71601628D01*
X128242707Y-71566358D01*
X128247691Y-71496666D01*
X128276192Y-71452319D01*
X128368733Y-71359777D01*
X128368732Y-71359777D01*
X128419426Y-71260286D01*
X128436894Y-71150000D01*
X128419426Y-71039714D01*
X128419425Y-71039714D01*
X128368733Y-70940222D01*
X128289777Y-70861266D01*
X128190285Y-70810573D01*
X128080000Y-70793105D01*
X127969714Y-70810573D01*
X127870222Y-70861266D01*
X127791266Y-70940222D01*
X127740573Y-71039714D01*
X127723105Y-71150000D01*
X127740573Y-71260285D01*
X127800183Y-71377277D01*
X127798034Y-71378371D01*
X127817293Y-71413642D01*
X127812309Y-71483334D01*
X127783808Y-71527681D01*
X127691266Y-71620222D01*
X127640573Y-71719714D01*
X127623105Y-71830000D01*
X112801993Y-71830000D01*
X112871071Y-71732139D01*
X112919446Y-71596023D01*
X112929304Y-71451903D01*
X112899914Y-71310468D01*
X112833454Y-71182207D01*
X112833453Y-71182205D01*
X112734855Y-71076632D01*
X112611429Y-71001575D01*
X112472328Y-70962602D01*
X112364151Y-70962602D01*
X112359967Y-70963177D01*
X112359953Y-70963178D01*
X112256989Y-70977331D01*
X112124491Y-71034883D01*
X112012433Y-71126048D01*
X111929130Y-71244062D01*
X111880753Y-71380183D01*
X111874048Y-71478218D01*
X111870896Y-71524301D01*
X105525500Y-71524301D01*
X105525500Y-70348102D01*
X111788205Y-70348102D01*
X111805673Y-70458387D01*
X111856366Y-70557879D01*
X111935322Y-70636835D01*
X112034814Y-70687528D01*
X112145099Y-70704996D01*
X112145099Y-70704995D01*
X112145100Y-70704996D01*
X112255386Y-70687528D01*
X112354877Y-70636835D01*
X112433833Y-70557879D01*
X112484526Y-70458388D01*
X112495358Y-70390000D01*
X119983105Y-70390000D01*
X120000573Y-70500285D01*
X120051266Y-70599777D01*
X120130222Y-70678733D01*
X120181767Y-70704996D01*
X120229714Y-70729426D01*
X120340000Y-70746894D01*
X120450286Y-70729426D01*
X120549777Y-70678733D01*
X120628733Y-70599777D01*
X120679426Y-70500286D01*
X120696894Y-70390000D01*
X120679426Y-70279714D01*
X120658078Y-70237816D01*
X120628733Y-70180222D01*
X120608511Y-70160000D01*
X126653105Y-70160000D01*
X126670573Y-70270285D01*
X126721266Y-70369777D01*
X126800222Y-70448733D01*
X126899714Y-70499426D01*
X127009999Y-70516894D01*
X127009999Y-70516893D01*
X127010000Y-70516894D01*
X127120286Y-70499426D01*
X127219777Y-70448733D01*
X127298733Y-70369777D01*
X127339381Y-70290000D01*
X133203105Y-70290000D01*
X133220573Y-70400285D01*
X133271266Y-70499777D01*
X133350222Y-70578733D01*
X133449714Y-70629426D01*
X133559999Y-70646894D01*
X133559999Y-70646893D01*
X133560000Y-70646894D01*
X133670286Y-70629426D01*
X133769777Y-70578733D01*
X133848733Y-70499777D01*
X133899426Y-70400286D01*
X133916894Y-70290000D01*
X133899426Y-70179714D01*
X133889381Y-70160000D01*
X133848733Y-70080222D01*
X133769777Y-70001266D01*
X133670285Y-69950573D01*
X133560000Y-69933105D01*
X133449714Y-69950573D01*
X133350222Y-70001266D01*
X133271266Y-70080222D01*
X133220573Y-70179714D01*
X133203105Y-70290000D01*
X127339381Y-70290000D01*
X127349426Y-70270286D01*
X127366894Y-70160000D01*
X127349426Y-70049714D01*
X127319616Y-69991208D01*
X127298733Y-69950222D01*
X127219777Y-69871266D01*
X127120285Y-69820573D01*
X127010000Y-69803105D01*
X126899714Y-69820573D01*
X126800222Y-69871266D01*
X126721266Y-69950222D01*
X126670573Y-70049714D01*
X126653105Y-70160000D01*
X120608511Y-70160000D01*
X120549777Y-70101266D01*
X120450285Y-70050573D01*
X120339999Y-70033105D01*
X120229714Y-70050573D01*
X120130222Y-70101266D01*
X120051266Y-70180222D01*
X120000573Y-70279714D01*
X119983105Y-70390000D01*
X112495358Y-70390000D01*
X112501994Y-70348102D01*
X112484526Y-70237816D01*
X112444877Y-70160000D01*
X112433833Y-70138324D01*
X112354877Y-70059368D01*
X112255385Y-70008675D01*
X112145100Y-69991207D01*
X112034814Y-70008675D01*
X111935322Y-70059368D01*
X111856366Y-70138324D01*
X111805673Y-70237816D01*
X111788205Y-70348102D01*
X105525500Y-70348102D01*
X105525500Y-68555000D01*
X116573104Y-68555000D01*
X116591050Y-68679821D01*
X116595280Y-68688125D01*
X116595281Y-68688126D01*
X116599326Y-68696067D01*
X116599335Y-68696083D01*
X116601626Y-68700828D01*
X116629345Y-68761522D01*
X116641667Y-68788504D01*
X116643317Y-68790408D01*
X116652920Y-68804668D01*
X116670419Y-68822167D01*
X116676449Y-68828643D01*
X116682833Y-68836010D01*
X116694578Y-68849565D01*
X116723604Y-68913119D01*
X116713663Y-68982278D01*
X116694578Y-69011974D01*
X116686455Y-69021348D01*
X116680430Y-69027820D01*
X116662926Y-69045325D01*
X116653323Y-69059586D01*
X116651667Y-69061497D01*
X116611644Y-69149133D01*
X116609342Y-69153901D01*
X116601050Y-69170178D01*
X116583104Y-69295000D01*
X116601050Y-69419821D01*
X116605280Y-69428125D01*
X116605281Y-69428126D01*
X116609326Y-69436067D01*
X116609335Y-69436083D01*
X116611626Y-69440828D01*
X116639345Y-69501522D01*
X116651667Y-69528504D01*
X116653317Y-69530408D01*
X116662920Y-69544668D01*
X116680419Y-69562167D01*
X116686450Y-69568645D01*
X116710946Y-69596914D01*
X116732168Y-69621405D01*
X116741913Y-69627667D01*
X116761271Y-69643268D01*
X116761778Y-69643526D01*
X116761780Y-69643528D01*
X116779494Y-69652553D01*
X116790221Y-69658713D01*
X116835584Y-69687866D01*
X116855694Y-69693770D01*
X116877056Y-69702264D01*
X116881874Y-69704719D01*
X116898097Y-69707288D01*
X116913638Y-69710784D01*
X116953535Y-69722500D01*
X116984381Y-69722500D01*
X117003779Y-69724026D01*
X117008524Y-69724778D01*
X117014999Y-69725804D01*
X117014999Y-69725803D01*
X117015000Y-69725804D01*
X117026220Y-69724026D01*
X117045619Y-69722500D01*
X117076464Y-69722500D01*
X117076465Y-69722500D01*
X117116361Y-69710784D01*
X117131897Y-69707289D01*
X117136416Y-69706573D01*
X117148126Y-69704719D01*
X117152944Y-69702263D01*
X117174299Y-69693772D01*
X117194416Y-69687866D01*
X117239780Y-69658711D01*
X117250497Y-69652557D01*
X117268220Y-69643528D01*
X117268223Y-69643524D01*
X117268731Y-69643266D01*
X117288089Y-69627665D01*
X117297832Y-69621405D01*
X117343548Y-69568645D01*
X117349561Y-69562186D01*
X117363528Y-69548220D01*
X117363529Y-69548217D01*
X117367087Y-69544660D01*
X117376695Y-69530392D01*
X117378334Y-69528501D01*
X117418363Y-69440848D01*
X117420658Y-69436094D01*
X117424719Y-69428126D01*
X117424719Y-69428123D01*
X117428948Y-69419824D01*
X117429399Y-69416681D01*
X117429401Y-69416679D01*
X117445001Y-69308180D01*
X130874924Y-69308180D01*
X130892392Y-69418466D01*
X130943085Y-69517958D01*
X131022041Y-69596914D01*
X131096541Y-69634873D01*
X131121533Y-69647607D01*
X131231819Y-69665075D01*
X131342105Y-69647607D01*
X131441596Y-69596914D01*
X131520552Y-69517958D01*
X131571245Y-69418467D01*
X131582881Y-69344999D01*
X132158105Y-69344999D01*
X132175573Y-69455285D01*
X132226266Y-69554777D01*
X132305222Y-69633733D01*
X132404714Y-69684426D01*
X132514999Y-69701894D01*
X132514999Y-69701893D01*
X132515000Y-69701894D01*
X132625286Y-69684426D01*
X132724777Y-69633733D01*
X132803733Y-69554777D01*
X132854426Y-69455286D01*
X132871894Y-69345000D01*
X132854426Y-69234714D01*
X132823145Y-69173321D01*
X132803733Y-69135222D01*
X132724777Y-69056266D01*
X132625285Y-69005573D01*
X132515000Y-68988105D01*
X132404714Y-69005573D01*
X132305222Y-69056266D01*
X132226266Y-69135222D01*
X132175573Y-69234714D01*
X132158105Y-69344999D01*
X131582881Y-69344999D01*
X131588713Y-69308181D01*
X131571245Y-69197895D01*
X131557123Y-69170178D01*
X131520552Y-69098403D01*
X131441596Y-69019447D01*
X131342104Y-68968754D01*
X131231818Y-68951286D01*
X131121533Y-68968754D01*
X131022041Y-69019447D01*
X130943085Y-69098403D01*
X130892392Y-69197895D01*
X130874924Y-69308180D01*
X117445001Y-69308180D01*
X117446896Y-69295000D01*
X117429401Y-69173321D01*
X117429400Y-69173319D01*
X117428948Y-69170174D01*
X117420660Y-69153907D01*
X117418367Y-69149160D01*
X117378334Y-69061499D01*
X117376687Y-69059598D01*
X117367083Y-69045335D01*
X117363528Y-69041780D01*
X117349566Y-69027818D01*
X117343547Y-69021352D01*
X117325419Y-69000431D01*
X117296394Y-68936876D01*
X117306338Y-68867717D01*
X117325416Y-68838030D01*
X117333550Y-68828643D01*
X117339561Y-68822186D01*
X117353528Y-68808220D01*
X117353529Y-68808217D01*
X117357087Y-68804660D01*
X117366695Y-68790392D01*
X117368334Y-68788501D01*
X117408363Y-68700848D01*
X117410658Y-68696094D01*
X117413764Y-68690000D01*
X120703105Y-68690000D01*
X120720573Y-68800285D01*
X120771266Y-68899777D01*
X120850222Y-68978733D01*
X120915462Y-69011974D01*
X120949714Y-69029426D01*
X121060000Y-69046894D01*
X121170286Y-69029426D01*
X121269777Y-68978733D01*
X121348733Y-68899777D01*
X121399426Y-68800286D01*
X121416894Y-68690000D01*
X121399426Y-68579714D01*
X121386834Y-68555000D01*
X121348733Y-68480222D01*
X121269777Y-68401266D01*
X121170285Y-68350573D01*
X121060000Y-68333105D01*
X120949714Y-68350573D01*
X120850222Y-68401266D01*
X120771266Y-68480222D01*
X120720573Y-68579714D01*
X120703105Y-68690000D01*
X117413764Y-68690000D01*
X117414719Y-68688126D01*
X117414719Y-68688123D01*
X117418948Y-68679824D01*
X117419399Y-68676681D01*
X117419401Y-68676679D01*
X117436896Y-68555000D01*
X117419401Y-68433321D01*
X117419400Y-68433319D01*
X117418948Y-68430174D01*
X117410660Y-68413907D01*
X117408367Y-68409160D01*
X117368334Y-68321499D01*
X117366687Y-68319598D01*
X117357083Y-68305335D01*
X117353528Y-68301780D01*
X117339566Y-68287818D01*
X117333548Y-68281353D01*
X117324752Y-68271202D01*
X117295726Y-68207647D01*
X117305669Y-68138488D01*
X117324748Y-68108800D01*
X117333554Y-68098637D01*
X117339561Y-68092186D01*
X117353528Y-68078220D01*
X117353529Y-68078217D01*
X117357087Y-68074660D01*
X117366695Y-68060392D01*
X117368334Y-68058501D01*
X117408363Y-67970848D01*
X117410658Y-67966094D01*
X117414719Y-67958126D01*
X117414719Y-67958123D01*
X117418948Y-67949824D01*
X117419399Y-67946681D01*
X117419401Y-67946679D01*
X117436896Y-67825000D01*
X117419401Y-67703321D01*
X117419400Y-67703319D01*
X117418948Y-67700174D01*
X117410660Y-67683907D01*
X117408367Y-67679160D01*
X117368334Y-67591499D01*
X117366687Y-67589598D01*
X117357083Y-67575335D01*
X117353528Y-67571780D01*
X117339566Y-67557818D01*
X117333547Y-67551353D01*
X117287830Y-67498593D01*
X117278086Y-67492331D01*
X117258728Y-67476731D01*
X117258220Y-67476472D01*
X117240512Y-67467449D01*
X117229775Y-67461284D01*
X117184416Y-67432133D01*
X117168470Y-67427451D01*
X117164303Y-67426228D01*
X117142949Y-67417738D01*
X117138126Y-67415280D01*
X117121896Y-67412710D01*
X117106360Y-67409214D01*
X117066466Y-67397500D01*
X117066465Y-67397500D01*
X117035619Y-67397500D01*
X117016220Y-67395973D01*
X117015052Y-67395788D01*
X117005000Y-67394195D01*
X116994947Y-67395788D01*
X116993779Y-67395973D01*
X116974381Y-67397500D01*
X116943535Y-67397500D01*
X116924653Y-67403044D01*
X116903639Y-67409214D01*
X116888109Y-67412709D01*
X116871872Y-67415281D01*
X116867048Y-67417739D01*
X116845700Y-67426226D01*
X116825585Y-67432133D01*
X116801238Y-67447779D01*
X116780223Y-67461284D01*
X116769487Y-67467449D01*
X116751277Y-67476727D01*
X116731917Y-67492328D01*
X116722169Y-67498592D01*
X116676455Y-67551348D01*
X116670430Y-67557820D01*
X116652926Y-67575325D01*
X116643323Y-67589586D01*
X116641667Y-67591497D01*
X116601644Y-67679133D01*
X116599342Y-67683901D01*
X116591050Y-67700178D01*
X116573104Y-67825000D01*
X116591050Y-67949821D01*
X116595280Y-67958125D01*
X116595281Y-67958126D01*
X116599326Y-67966067D01*
X116599335Y-67966083D01*
X116601626Y-67970828D01*
X116629345Y-68031522D01*
X116641667Y-68058504D01*
X116643317Y-68060408D01*
X116652920Y-68074668D01*
X116670419Y-68092167D01*
X116676450Y-68098645D01*
X116685246Y-68108796D01*
X116714272Y-68172351D01*
X116704329Y-68241510D01*
X116685246Y-68271203D01*
X116676456Y-68281347D01*
X116670430Y-68287820D01*
X116652926Y-68305325D01*
X116643323Y-68319586D01*
X116641667Y-68321497D01*
X116601644Y-68409133D01*
X116599342Y-68413901D01*
X116591050Y-68430178D01*
X116573104Y-68555000D01*
X105525500Y-68555000D01*
X105525500Y-67348101D01*
X111888205Y-67348101D01*
X111905673Y-67458387D01*
X111956366Y-67557879D01*
X112035322Y-67636835D01*
X112127696Y-67683901D01*
X112134814Y-67687528D01*
X112245100Y-67704996D01*
X112355386Y-67687528D01*
X112454877Y-67636835D01*
X112533833Y-67557879D01*
X112584526Y-67458388D01*
X112601994Y-67348102D01*
X112584526Y-67237816D01*
X112584526Y-67237815D01*
X112533833Y-67138324D01*
X112454877Y-67059368D01*
X112355385Y-67008675D01*
X112245100Y-66991207D01*
X112134814Y-67008675D01*
X112035322Y-67059368D01*
X111956366Y-67138324D01*
X111905673Y-67237816D01*
X111888205Y-67348101D01*
X105525500Y-67348101D01*
X105525500Y-65744301D01*
X111870896Y-65744301D01*
X111897464Y-65872154D01*
X111900286Y-65885736D01*
X111966746Y-66013998D01*
X112065344Y-66119571D01*
X112188770Y-66194628D01*
X112327872Y-66233602D01*
X112431812Y-66233602D01*
X112436049Y-66233602D01*
X112543211Y-66218873D01*
X112675709Y-66161321D01*
X112787765Y-66070156D01*
X112788727Y-66068794D01*
X112827406Y-66013998D01*
X112871071Y-65952139D01*
X112919446Y-65816023D01*
X112929304Y-65671903D01*
X112899914Y-65530468D01*
X112833454Y-65402207D01*
X112833453Y-65402205D01*
X112734855Y-65296632D01*
X112611429Y-65221575D01*
X112472328Y-65182602D01*
X112364151Y-65182602D01*
X112359967Y-65183177D01*
X112359953Y-65183178D01*
X112256989Y-65197331D01*
X112124491Y-65254883D01*
X112012433Y-65346048D01*
X111929130Y-65464062D01*
X111880753Y-65600183D01*
X111871019Y-65742505D01*
X111870896Y-65744301D01*
X105525500Y-65744301D01*
X105525500Y-64379999D01*
X115183105Y-64379999D01*
X115200573Y-64490285D01*
X115251266Y-64589777D01*
X115330222Y-64668733D01*
X115429714Y-64719426D01*
X115539999Y-64736894D01*
X115539999Y-64736893D01*
X115540000Y-64736894D01*
X115650286Y-64719426D01*
X115749777Y-64668733D01*
X115828733Y-64589777D01*
X115879426Y-64490286D01*
X115896894Y-64380000D01*
X115879426Y-64269714D01*
X115844051Y-64200286D01*
X115828733Y-64170222D01*
X115825705Y-64167194D01*
X115792220Y-64105871D01*
X115795556Y-64059214D01*
X115755459Y-64074170D01*
X115690319Y-64060971D01*
X115650286Y-64040573D01*
X115540000Y-64023105D01*
X115429714Y-64040573D01*
X115330222Y-64091266D01*
X115251266Y-64170222D01*
X115200573Y-64269714D01*
X115183105Y-64379999D01*
X105525500Y-64379999D01*
X105525500Y-63649999D01*
X115763105Y-63649999D01*
X115780573Y-63760285D01*
X115831266Y-63859777D01*
X115834294Y-63862805D01*
X115867779Y-63924128D01*
X115864442Y-63970784D01*
X115904540Y-63955829D01*
X115969680Y-63969027D01*
X116009714Y-63989426D01*
X116064857Y-63998160D01*
X116119999Y-64006894D01*
X116119999Y-64006893D01*
X116120000Y-64006894D01*
X116230286Y-63989426D01*
X116329777Y-63938733D01*
X116408733Y-63859777D01*
X116459426Y-63760286D01*
X116476894Y-63650000D01*
X116459426Y-63539714D01*
X116458320Y-63537544D01*
X116408733Y-63440222D01*
X116329777Y-63361266D01*
X116230285Y-63310573D01*
X116120000Y-63293105D01*
X116009714Y-63310573D01*
X115910222Y-63361266D01*
X115831266Y-63440222D01*
X115780573Y-63539714D01*
X115763105Y-63649999D01*
X105525500Y-63649999D01*
X105525500Y-61223102D01*
X108373042Y-61223102D01*
X108391224Y-61396097D01*
X108444977Y-61561530D01*
X108460950Y-61589196D01*
X108531950Y-61712173D01*
X108648345Y-61841443D01*
X108789067Y-61943683D01*
X108789070Y-61943684D01*
X108789071Y-61943685D01*
X108947980Y-62014436D01*
X108947983Y-62014436D01*
X108947984Y-62014437D01*
X109118124Y-62050602D01*
X109118126Y-62050602D01*
X109292076Y-62050602D01*
X109452524Y-62016497D01*
X109462220Y-62014436D01*
X109562025Y-61970000D01*
X118158104Y-61970000D01*
X118176050Y-62094821D01*
X118180280Y-62103125D01*
X118180281Y-62103126D01*
X118182024Y-62106548D01*
X118184335Y-62111083D01*
X118186626Y-62115828D01*
X118207287Y-62161067D01*
X118226667Y-62203504D01*
X118228317Y-62205408D01*
X118237920Y-62219668D01*
X118255419Y-62237167D01*
X118261450Y-62243645D01*
X118314240Y-62304567D01*
X118343266Y-62368122D01*
X118333323Y-62437281D01*
X118314239Y-62466975D01*
X118271455Y-62516348D01*
X118265430Y-62522820D01*
X118247926Y-62540325D01*
X118238323Y-62554586D01*
X118236667Y-62556497D01*
X118196644Y-62644133D01*
X118194342Y-62648901D01*
X118186050Y-62665178D01*
X118168104Y-62790000D01*
X118186050Y-62914821D01*
X118190280Y-62923125D01*
X118190281Y-62923126D01*
X118193948Y-62930325D01*
X118194335Y-62931083D01*
X118196626Y-62935828D01*
X118215494Y-62977141D01*
X118236667Y-63023504D01*
X118238317Y-63025408D01*
X118247920Y-63039668D01*
X118265419Y-63057167D01*
X118271450Y-63063645D01*
X118328843Y-63129879D01*
X118327855Y-63130734D01*
X118359021Y-63166702D01*
X118368965Y-63235860D01*
X118339940Y-63299416D01*
X118337987Y-63301108D01*
X118281455Y-63366348D01*
X118275430Y-63372820D01*
X118257926Y-63390325D01*
X118248323Y-63404586D01*
X118246667Y-63406497D01*
X118246666Y-63406498D01*
X118246666Y-63406499D01*
X118225135Y-63453645D01*
X118206644Y-63494133D01*
X118204342Y-63498901D01*
X118196050Y-63515178D01*
X118178104Y-63640000D01*
X118196050Y-63764821D01*
X118200280Y-63773125D01*
X118200281Y-63773126D01*
X118204326Y-63781067D01*
X118204335Y-63781083D01*
X118206626Y-63785828D01*
X118224509Y-63824984D01*
X118246667Y-63873504D01*
X118248317Y-63875408D01*
X118257920Y-63889668D01*
X118275419Y-63907167D01*
X118281450Y-63913645D01*
X118327165Y-63966402D01*
X118327168Y-63966405D01*
X118336913Y-63972667D01*
X118356271Y-63988268D01*
X118356778Y-63988526D01*
X118356780Y-63988528D01*
X118374494Y-63997553D01*
X118385221Y-64003713D01*
X118430584Y-64032866D01*
X118450694Y-64038770D01*
X118472056Y-64047264D01*
X118476874Y-64049719D01*
X118493097Y-64052288D01*
X118508638Y-64055784D01*
X118548535Y-64067500D01*
X118579381Y-64067500D01*
X118598779Y-64069026D01*
X118610000Y-64070804D01*
X118621220Y-64069026D01*
X118640619Y-64067500D01*
X118671464Y-64067500D01*
X118671465Y-64067500D01*
X118711361Y-64055784D01*
X118726897Y-64052289D01*
X118733350Y-64051267D01*
X118743126Y-64049719D01*
X118747944Y-64047263D01*
X118769299Y-64038772D01*
X118789416Y-64032866D01*
X118834780Y-64003711D01*
X118845497Y-63997557D01*
X118863220Y-63988528D01*
X118863223Y-63988524D01*
X118863731Y-63988266D01*
X118883089Y-63972665D01*
X118892832Y-63966405D01*
X118938548Y-63913645D01*
X118944561Y-63907186D01*
X118958528Y-63893220D01*
X118958529Y-63893217D01*
X118962087Y-63889660D01*
X118971695Y-63875392D01*
X118973334Y-63873501D01*
X119013363Y-63785848D01*
X119015670Y-63781072D01*
X119024516Y-63763711D01*
X119072490Y-63712915D01*
X119140311Y-63696120D01*
X119206446Y-63718658D01*
X119245487Y-63763716D01*
X119250280Y-63773125D01*
X119250281Y-63773126D01*
X119254326Y-63781067D01*
X119254334Y-63781081D01*
X119256626Y-63785828D01*
X119274509Y-63824984D01*
X119296667Y-63873504D01*
X119298317Y-63875408D01*
X119307920Y-63889668D01*
X119325419Y-63907167D01*
X119331450Y-63913645D01*
X119377165Y-63966402D01*
X119377168Y-63966405D01*
X119386913Y-63972667D01*
X119406271Y-63988268D01*
X119406778Y-63988526D01*
X119406780Y-63988528D01*
X119424494Y-63997553D01*
X119435221Y-64003713D01*
X119480584Y-64032866D01*
X119500694Y-64038770D01*
X119522056Y-64047264D01*
X119526874Y-64049719D01*
X119543097Y-64052288D01*
X119558638Y-64055784D01*
X119598535Y-64067500D01*
X119629381Y-64067500D01*
X119648779Y-64069026D01*
X119660000Y-64070804D01*
X119671220Y-64069026D01*
X119690619Y-64067500D01*
X119721464Y-64067500D01*
X119721465Y-64067500D01*
X119761361Y-64055784D01*
X119776897Y-64052289D01*
X119783350Y-64051267D01*
X119793126Y-64049719D01*
X119797944Y-64047263D01*
X119819299Y-64038772D01*
X119839416Y-64032866D01*
X119884780Y-64003711D01*
X119895497Y-63997557D01*
X119913220Y-63988528D01*
X119913223Y-63988524D01*
X119913731Y-63988266D01*
X119933089Y-63972665D01*
X119942832Y-63966405D01*
X119988548Y-63913645D01*
X119994561Y-63907186D01*
X120008528Y-63893220D01*
X120008529Y-63893217D01*
X120012087Y-63889660D01*
X120021695Y-63875392D01*
X120023334Y-63873501D01*
X120063363Y-63785848D01*
X120065658Y-63781094D01*
X120069719Y-63773126D01*
X120069719Y-63773123D01*
X120073948Y-63764824D01*
X120074399Y-63761681D01*
X120074401Y-63761679D01*
X120091896Y-63640000D01*
X120074401Y-63518321D01*
X120074400Y-63518319D01*
X120073948Y-63515174D01*
X120065660Y-63498907D01*
X120063367Y-63494160D01*
X120052333Y-63469999D01*
X126303105Y-63469999D01*
X126320573Y-63580285D01*
X126371266Y-63679777D01*
X126396180Y-63704690D01*
X126429666Y-63766012D01*
X126432500Y-63792372D01*
X126432500Y-64920812D01*
X126432330Y-64927300D01*
X126430282Y-64966384D01*
X126437698Y-64985705D01*
X126443223Y-65004357D01*
X126447526Y-65024600D01*
X126448748Y-65026282D01*
X126464193Y-65054728D01*
X126464939Y-65056672D01*
X126479568Y-65071301D01*
X126492205Y-65086096D01*
X126504371Y-65102842D01*
X126506173Y-65103882D01*
X126531856Y-65123589D01*
X127457999Y-66049733D01*
X127491484Y-66111056D01*
X127492791Y-66118015D01*
X127510573Y-66230286D01*
X127561266Y-66329777D01*
X127640222Y-66408733D01*
X127699284Y-66438826D01*
X127739714Y-66459426D01*
X127850000Y-66476894D01*
X127960286Y-66459426D01*
X128059777Y-66408733D01*
X128138733Y-66329777D01*
X128189426Y-66230286D01*
X128206894Y-66120000D01*
X128200864Y-66081931D01*
X135501173Y-66081931D01*
X135518641Y-66192217D01*
X135569334Y-66291709D01*
X135648290Y-66370665D01*
X135723004Y-66408733D01*
X135747782Y-66421358D01*
X135858068Y-66438826D01*
X135968354Y-66421358D01*
X136067845Y-66370665D01*
X136146801Y-66291709D01*
X136197494Y-66192218D01*
X136214962Y-66081932D01*
X136197494Y-65971646D01*
X136153721Y-65885736D01*
X136146801Y-65872154D01*
X136067845Y-65793198D01*
X135968353Y-65742505D01*
X135858068Y-65725037D01*
X135747782Y-65742505D01*
X135648290Y-65793198D01*
X135569334Y-65872154D01*
X135518641Y-65971646D01*
X135501173Y-66081931D01*
X128200864Y-66081931D01*
X128189426Y-66009714D01*
X128189426Y-66009713D01*
X128138733Y-65910222D01*
X128059777Y-65831266D01*
X127960285Y-65780573D01*
X127848013Y-65762790D01*
X127784878Y-65732860D01*
X127779731Y-65727998D01*
X126923819Y-64872085D01*
X126890334Y-64810762D01*
X126887500Y-64784404D01*
X126887500Y-64729999D01*
X127753105Y-64729999D01*
X127770573Y-64840285D01*
X127821266Y-64939777D01*
X127900222Y-65018733D01*
X127999714Y-65069426D01*
X128109999Y-65086894D01*
X128109999Y-65086893D01*
X128110000Y-65086894D01*
X128220286Y-65069426D01*
X128319777Y-65018733D01*
X128398733Y-64939777D01*
X128449426Y-64840286D01*
X128458315Y-64784160D01*
X128488245Y-64721025D01*
X128547557Y-64684094D01*
X128600188Y-64681085D01*
X128700000Y-64696894D01*
X128810286Y-64679426D01*
X128909777Y-64628733D01*
X128988733Y-64549777D01*
X129039426Y-64450286D01*
X129056894Y-64340000D01*
X129053639Y-64319452D01*
X129039426Y-64229714D01*
X129029187Y-64209619D01*
X130833432Y-64209619D01*
X130850900Y-64319905D01*
X130901593Y-64419397D01*
X130980549Y-64498353D01*
X131059879Y-64538773D01*
X131080041Y-64549046D01*
X131190327Y-64566514D01*
X131300613Y-64549046D01*
X131400104Y-64498353D01*
X131479060Y-64419397D01*
X131529753Y-64319906D01*
X131529753Y-64319905D01*
X131529984Y-64319452D01*
X131577958Y-64268656D01*
X131645779Y-64251860D01*
X131711914Y-64274397D01*
X131750954Y-64319452D01*
X131787743Y-64391656D01*
X131866699Y-64470612D01*
X131966191Y-64521305D01*
X132076476Y-64538773D01*
X132076476Y-64538772D01*
X132076477Y-64538773D01*
X132186763Y-64521305D01*
X132286254Y-64470612D01*
X132365210Y-64391656D01*
X132415903Y-64292165D01*
X132419414Y-64269999D01*
X134533105Y-64269999D01*
X134550573Y-64380285D01*
X134601266Y-64479777D01*
X134680222Y-64558733D01*
X134779713Y-64609426D01*
X134779714Y-64609426D01*
X134890000Y-64626894D01*
X135000286Y-64609426D01*
X135099777Y-64558733D01*
X135178733Y-64479777D01*
X135229426Y-64380286D01*
X135246894Y-64270000D01*
X135229426Y-64159714D01*
X135214399Y-64130222D01*
X135193905Y-64089999D01*
X140463105Y-64089999D01*
X140480573Y-64200285D01*
X140531266Y-64299777D01*
X140610222Y-64378733D01*
X140690031Y-64419397D01*
X140709714Y-64429426D01*
X140820000Y-64446894D01*
X140930286Y-64429426D01*
X141029777Y-64378733D01*
X141108733Y-64299777D01*
X141159426Y-64200286D01*
X141176894Y-64090000D01*
X141174050Y-64072047D01*
X141159426Y-63979714D01*
X141108733Y-63880222D01*
X141029777Y-63801266D01*
X140930285Y-63750573D01*
X140820000Y-63733105D01*
X140709714Y-63750573D01*
X140610222Y-63801266D01*
X140531266Y-63880222D01*
X140480573Y-63979714D01*
X140463105Y-64089999D01*
X135193905Y-64089999D01*
X135178733Y-64060222D01*
X135099777Y-63981266D01*
X135000285Y-63930573D01*
X134890000Y-63913105D01*
X134779714Y-63930573D01*
X134680222Y-63981266D01*
X134601266Y-64060222D01*
X134550573Y-64159714D01*
X134533105Y-64269999D01*
X132419414Y-64269999D01*
X132433371Y-64181879D01*
X132415903Y-64071593D01*
X132409596Y-64059214D01*
X132365210Y-63972101D01*
X132286254Y-63893145D01*
X132186762Y-63842452D01*
X132076477Y-63824984D01*
X131966191Y-63842452D01*
X131866699Y-63893145D01*
X131787744Y-63972100D01*
X131736819Y-64072047D01*
X131688844Y-64122843D01*
X131621023Y-64139638D01*
X131554888Y-64117101D01*
X131515849Y-64072046D01*
X131509824Y-64060222D01*
X131479060Y-63999843D01*
X131479059Y-63999841D01*
X131400104Y-63920886D01*
X131300612Y-63870193D01*
X131190327Y-63852725D01*
X131080041Y-63870193D01*
X130980549Y-63920886D01*
X130901593Y-63999842D01*
X130850900Y-64099334D01*
X130833432Y-64209619D01*
X129029187Y-64209619D01*
X128988733Y-64130222D01*
X128909777Y-64051266D01*
X128810285Y-64000573D01*
X128700000Y-63983105D01*
X128589714Y-64000573D01*
X128490222Y-64051266D01*
X128411266Y-64130222D01*
X128360573Y-64229713D01*
X128351683Y-64285841D01*
X128321752Y-64348975D01*
X128262440Y-64385905D01*
X128209812Y-64388914D01*
X128110000Y-64373105D01*
X127999714Y-64390573D01*
X127900222Y-64441266D01*
X127821266Y-64520222D01*
X127770573Y-64619714D01*
X127753105Y-64729999D01*
X126887500Y-64729999D01*
X126887500Y-63792371D01*
X126907185Y-63725332D01*
X126923817Y-63704692D01*
X126948733Y-63679777D01*
X126999426Y-63580286D01*
X127016894Y-63470000D01*
X126999426Y-63359714D01*
X126979743Y-63321083D01*
X126948733Y-63260222D01*
X126869777Y-63181266D01*
X126770285Y-63130573D01*
X126659999Y-63113105D01*
X126549714Y-63130573D01*
X126450222Y-63181266D01*
X126371266Y-63260222D01*
X126320573Y-63359714D01*
X126303105Y-63469999D01*
X120052333Y-63469999D01*
X120023334Y-63406499D01*
X120021687Y-63404598D01*
X120012083Y-63390335D01*
X120008528Y-63386780D01*
X119994566Y-63372818D01*
X119988548Y-63366353D01*
X119936427Y-63306203D01*
X119907401Y-63242648D01*
X119917344Y-63173489D01*
X119936425Y-63143798D01*
X119942829Y-63136406D01*
X119942832Y-63136405D01*
X119988556Y-63083635D01*
X119994561Y-63077186D01*
X120008528Y-63063220D01*
X120008529Y-63063217D01*
X120012087Y-63059660D01*
X120021695Y-63045392D01*
X120022208Y-63044800D01*
X120023334Y-63043501D01*
X120063363Y-62955848D01*
X120065658Y-62951094D01*
X120069719Y-62943126D01*
X120069719Y-62943123D01*
X120073948Y-62934824D01*
X120074399Y-62931681D01*
X120074401Y-62931679D01*
X120091896Y-62810000D01*
X120074401Y-62688321D01*
X120074400Y-62688319D01*
X120073948Y-62685174D01*
X120065660Y-62668907D01*
X120063367Y-62664160D01*
X120023334Y-62576499D01*
X120021687Y-62574598D01*
X120012083Y-62560335D01*
X120006334Y-62554586D01*
X119994566Y-62542818D01*
X119988547Y-62536353D01*
X119977543Y-62523654D01*
X119942832Y-62483595D01*
X119942831Y-62483594D01*
X119942830Y-62483593D01*
X119933086Y-62477331D01*
X119912446Y-62460698D01*
X119902658Y-62450910D01*
X119869173Y-62389587D01*
X119874157Y-62319895D01*
X119896625Y-62282028D01*
X119932778Y-62240304D01*
X119938548Y-62233645D01*
X119944561Y-62227186D01*
X119958528Y-62213220D01*
X119958529Y-62213217D01*
X119962087Y-62209660D01*
X119971695Y-62195392D01*
X119973334Y-62193501D01*
X120013363Y-62105848D01*
X120015658Y-62101094D01*
X120019719Y-62093126D01*
X120019719Y-62093123D01*
X120023948Y-62084824D01*
X120024399Y-62081681D01*
X120024401Y-62081679D01*
X120041896Y-61960000D01*
X120024401Y-61838321D01*
X120024400Y-61838319D01*
X120023948Y-61835174D01*
X120015660Y-61818907D01*
X120013367Y-61814160D01*
X119973334Y-61726499D01*
X119971687Y-61724598D01*
X119962083Y-61710335D01*
X119954164Y-61702416D01*
X119944566Y-61692818D01*
X119938547Y-61686353D01*
X119930931Y-61677564D01*
X119892832Y-61633595D01*
X119892831Y-61633594D01*
X119892830Y-61633593D01*
X119883086Y-61627331D01*
X119863728Y-61611731D01*
X119863220Y-61611472D01*
X119845512Y-61602449D01*
X119834775Y-61596284D01*
X119789416Y-61567133D01*
X119770335Y-61561531D01*
X119769303Y-61561228D01*
X119747949Y-61552738D01*
X119743126Y-61550280D01*
X119726896Y-61547710D01*
X119711360Y-61544214D01*
X119671466Y-61532500D01*
X119671465Y-61532500D01*
X119640619Y-61532500D01*
X119621220Y-61530973D01*
X119620052Y-61530788D01*
X119610000Y-61529195D01*
X119599947Y-61530788D01*
X119598779Y-61530973D01*
X119579381Y-61532500D01*
X119548535Y-61532500D01*
X119529653Y-61538044D01*
X119508639Y-61544214D01*
X119493109Y-61547709D01*
X119476872Y-61550281D01*
X119472048Y-61552739D01*
X119450700Y-61561226D01*
X119430585Y-61567133D01*
X119417734Y-61575392D01*
X119385223Y-61596284D01*
X119374487Y-61602449D01*
X119356277Y-61611727D01*
X119336917Y-61627328D01*
X119327169Y-61633592D01*
X119281455Y-61686348D01*
X119275430Y-61692820D01*
X119257926Y-61710325D01*
X119248323Y-61724586D01*
X119246667Y-61726497D01*
X119246666Y-61726498D01*
X119246666Y-61726499D01*
X119225353Y-61773168D01*
X119210510Y-61805668D01*
X119164754Y-61858471D01*
X119097714Y-61878155D01*
X119030675Y-61858470D01*
X118984922Y-61805667D01*
X118953334Y-61736499D01*
X118951687Y-61734598D01*
X118942083Y-61720335D01*
X118933771Y-61712023D01*
X118924566Y-61702818D01*
X118918547Y-61696353D01*
X118917402Y-61695032D01*
X118872832Y-61643595D01*
X118872831Y-61643594D01*
X118872830Y-61643593D01*
X118863086Y-61637331D01*
X118843728Y-61621731D01*
X118840578Y-61620126D01*
X118825512Y-61612449D01*
X118814775Y-61606284D01*
X118769416Y-61577133D01*
X118753470Y-61572451D01*
X118749303Y-61571228D01*
X118727949Y-61562738D01*
X118723126Y-61560280D01*
X118706896Y-61557710D01*
X118691360Y-61554214D01*
X118651466Y-61542500D01*
X118651465Y-61542500D01*
X118620619Y-61542500D01*
X118601220Y-61540973D01*
X118600052Y-61540788D01*
X118590000Y-61539195D01*
X118579947Y-61540788D01*
X118578779Y-61540973D01*
X118559381Y-61542500D01*
X118528535Y-61542500D01*
X118510791Y-61547710D01*
X118488639Y-61554214D01*
X118473109Y-61557709D01*
X118456872Y-61560281D01*
X118452048Y-61562739D01*
X118430700Y-61571226D01*
X118410585Y-61577133D01*
X118391080Y-61589668D01*
X118365223Y-61606284D01*
X118354487Y-61612449D01*
X118336277Y-61621727D01*
X118316917Y-61637328D01*
X118307169Y-61643592D01*
X118261455Y-61696348D01*
X118255430Y-61702820D01*
X118237926Y-61720325D01*
X118228323Y-61734586D01*
X118226667Y-61736497D01*
X118226666Y-61736498D01*
X118226666Y-61736499D01*
X118208926Y-61775344D01*
X118186644Y-61824133D01*
X118184342Y-61828901D01*
X118176050Y-61845178D01*
X118158104Y-61970000D01*
X109562025Y-61970000D01*
X109621129Y-61943685D01*
X109644240Y-61926894D01*
X109761854Y-61841443D01*
X109775266Y-61826548D01*
X109878249Y-61712173D01*
X109965223Y-61561530D01*
X110000235Y-61453775D01*
X128269329Y-61453775D01*
X128286797Y-61564061D01*
X128337490Y-61663553D01*
X128416446Y-61742509D01*
X128515938Y-61793202D01*
X128626223Y-61810670D01*
X128626223Y-61810669D01*
X128626224Y-61810670D01*
X128736510Y-61793202D01*
X128836001Y-61742509D01*
X128914957Y-61663553D01*
X128962624Y-61570000D01*
X131623105Y-61570000D01*
X131640573Y-61680285D01*
X131691266Y-61779777D01*
X131770222Y-61858733D01*
X131847919Y-61898321D01*
X131869714Y-61909426D01*
X131980000Y-61926894D01*
X132090286Y-61909426D01*
X132131340Y-61888507D01*
X132200008Y-61875611D01*
X132264749Y-61901887D01*
X132305006Y-61958993D01*
X132310108Y-62018389D01*
X132307563Y-62034456D01*
X132325031Y-62144743D01*
X132375724Y-62244235D01*
X132454680Y-62323191D01*
X132530893Y-62362023D01*
X132554172Y-62373884D01*
X132664458Y-62391352D01*
X132664458Y-62391351D01*
X132670180Y-62392258D01*
X132733167Y-62400397D01*
X132786620Y-62445391D01*
X132807262Y-62512142D01*
X132805748Y-62533315D01*
X132803105Y-62549999D01*
X132820573Y-62660285D01*
X132871266Y-62759777D01*
X132950222Y-62838733D01*
X133049713Y-62889426D01*
X133094107Y-62896457D01*
X133160000Y-62906894D01*
X133160000Y-62906893D01*
X133161984Y-62907208D01*
X133225119Y-62937137D01*
X133230267Y-62942000D01*
X133291621Y-63003354D01*
X133296090Y-63008063D01*
X133322292Y-63037163D01*
X133341199Y-63045581D01*
X133358294Y-63054862D01*
X133375651Y-63066134D01*
X133377697Y-63066458D01*
X133408741Y-63075653D01*
X133410643Y-63076500D01*
X133431343Y-63076500D01*
X133450740Y-63078026D01*
X133471172Y-63081263D01*
X133473180Y-63080724D01*
X133505271Y-63076500D01*
X137924260Y-63076500D01*
X137930748Y-63076670D01*
X137933141Y-63076795D01*
X137969832Y-63078718D01*
X137989151Y-63071301D01*
X138007800Y-63065777D01*
X138028048Y-63061474D01*
X138029733Y-63060249D01*
X138058179Y-63044805D01*
X138060121Y-63044060D01*
X138074755Y-63029425D01*
X138089537Y-63016798D01*
X138106290Y-63004628D01*
X138107334Y-63002819D01*
X138127034Y-62977145D01*
X139764179Y-61340000D01*
X145598104Y-61340000D01*
X145616050Y-61464821D01*
X145620280Y-61473125D01*
X145620281Y-61473126D01*
X145624326Y-61481067D01*
X145624335Y-61481083D01*
X145626626Y-61485828D01*
X145647244Y-61530973D01*
X145666667Y-61573504D01*
X145668317Y-61575408D01*
X145677920Y-61589668D01*
X145695419Y-61607167D01*
X145701450Y-61613645D01*
X145747165Y-61666402D01*
X145747168Y-61666405D01*
X145756913Y-61672667D01*
X145777553Y-61689301D01*
X145790668Y-61702416D01*
X145790421Y-61702662D01*
X145824698Y-61735032D01*
X145841496Y-61802852D01*
X145818962Y-61868988D01*
X145799193Y-61886121D01*
X145800663Y-61887591D01*
X145787548Y-61900704D01*
X145766917Y-61917328D01*
X145757169Y-61923592D01*
X145711455Y-61976348D01*
X145705430Y-61982820D01*
X145687926Y-62000325D01*
X145678323Y-62014586D01*
X145676667Y-62016497D01*
X145676666Y-62016498D01*
X145676666Y-62016499D01*
X145651534Y-62071529D01*
X145636644Y-62104133D01*
X145634342Y-62108901D01*
X145626050Y-62125178D01*
X145608104Y-62250000D01*
X145626050Y-62374821D01*
X145630280Y-62383125D01*
X145630281Y-62383126D01*
X145634326Y-62391067D01*
X145634335Y-62391083D01*
X145636626Y-62395828D01*
X145655558Y-62437281D01*
X145676667Y-62483504D01*
X145678317Y-62485408D01*
X145687920Y-62499668D01*
X145705419Y-62517167D01*
X145711450Y-62523645D01*
X145743243Y-62560335D01*
X145757168Y-62576405D01*
X145766913Y-62582667D01*
X145786271Y-62598268D01*
X145786778Y-62598526D01*
X145786780Y-62598528D01*
X145798529Y-62604514D01*
X145849325Y-62652487D01*
X145866121Y-62720308D01*
X145843585Y-62786443D01*
X145798536Y-62825481D01*
X145786277Y-62831727D01*
X145766917Y-62847328D01*
X145757169Y-62853592D01*
X145711455Y-62906348D01*
X145705430Y-62912820D01*
X145687926Y-62930325D01*
X145678323Y-62944586D01*
X145676667Y-62946497D01*
X145676666Y-62946498D01*
X145676666Y-62946499D01*
X145641500Y-63023501D01*
X145636644Y-63034133D01*
X145634342Y-63038901D01*
X145626050Y-63055178D01*
X145608104Y-63180000D01*
X145626050Y-63304821D01*
X145630280Y-63313125D01*
X145630281Y-63313126D01*
X145634326Y-63321067D01*
X145634335Y-63321083D01*
X145636626Y-63325828D01*
X145658093Y-63372833D01*
X145676667Y-63413504D01*
X145678317Y-63415408D01*
X145687920Y-63429668D01*
X145705419Y-63447167D01*
X145711450Y-63453645D01*
X145750669Y-63498905D01*
X145757168Y-63506405D01*
X145766913Y-63512667D01*
X145786271Y-63528268D01*
X145786778Y-63528526D01*
X145786780Y-63528528D01*
X145804494Y-63537553D01*
X145815221Y-63543713D01*
X145860584Y-63572866D01*
X145880694Y-63578770D01*
X145902056Y-63587264D01*
X145906874Y-63589719D01*
X145923097Y-63592288D01*
X145938638Y-63595784D01*
X145978535Y-63607500D01*
X146009381Y-63607500D01*
X146028779Y-63609026D01*
X146040000Y-63610804D01*
X146051220Y-63609026D01*
X146070619Y-63607500D01*
X146101464Y-63607500D01*
X146101465Y-63607500D01*
X146141361Y-63595784D01*
X146156897Y-63592289D01*
X146161416Y-63591573D01*
X146173126Y-63589719D01*
X146177944Y-63587263D01*
X146199299Y-63578772D01*
X146219416Y-63572866D01*
X146264780Y-63543711D01*
X146275497Y-63537557D01*
X146293220Y-63528528D01*
X146293223Y-63528524D01*
X146293731Y-63528266D01*
X146313089Y-63512665D01*
X146322832Y-63506405D01*
X146368548Y-63453645D01*
X146374561Y-63447186D01*
X146388528Y-63433220D01*
X146388529Y-63433217D01*
X146392087Y-63429660D01*
X146401695Y-63415392D01*
X146403334Y-63413501D01*
X146443363Y-63325848D01*
X146445658Y-63321094D01*
X146449719Y-63313126D01*
X146449719Y-63313123D01*
X146453948Y-63304824D01*
X146454399Y-63301681D01*
X146454401Y-63301679D01*
X146471896Y-63180000D01*
X146454401Y-63058321D01*
X146454400Y-63058319D01*
X146453948Y-63055174D01*
X146445660Y-63038907D01*
X146443367Y-63034160D01*
X146403334Y-62946499D01*
X146401687Y-62944598D01*
X146392083Y-62930335D01*
X146384874Y-62923126D01*
X146374566Y-62912818D01*
X146368547Y-62906353D01*
X146322830Y-62853593D01*
X146313086Y-62847331D01*
X146293724Y-62831728D01*
X146281466Y-62825482D01*
X146230671Y-62777507D01*
X146213877Y-62709686D01*
X146236416Y-62643551D01*
X146281472Y-62604513D01*
X146293220Y-62598528D01*
X146293223Y-62598524D01*
X146293729Y-62598267D01*
X146313089Y-62582665D01*
X146322832Y-62576405D01*
X146368548Y-62523645D01*
X146374561Y-62517186D01*
X146388528Y-62503220D01*
X146388529Y-62503217D01*
X146392087Y-62499660D01*
X146401695Y-62485392D01*
X146403334Y-62483501D01*
X146443363Y-62395848D01*
X146445658Y-62391094D01*
X146449719Y-62383126D01*
X146449719Y-62383123D01*
X146453948Y-62374824D01*
X146454399Y-62371681D01*
X146454401Y-62371679D01*
X146471896Y-62250000D01*
X146454401Y-62128321D01*
X146454400Y-62128319D01*
X146453948Y-62125174D01*
X146445660Y-62108907D01*
X146443367Y-62104160D01*
X146403334Y-62016499D01*
X146401687Y-62014598D01*
X146392083Y-62000335D01*
X146388528Y-61996780D01*
X146374566Y-61982818D01*
X146368547Y-61976353D01*
X146354129Y-61959714D01*
X146322832Y-61923595D01*
X146322831Y-61923594D01*
X146322830Y-61923593D01*
X146313086Y-61917331D01*
X146292446Y-61900698D01*
X146279333Y-61887585D01*
X146279579Y-61887338D01*
X146245297Y-61854958D01*
X146228504Y-61787137D01*
X146251044Y-61721003D01*
X146270793Y-61703893D01*
X146269325Y-61702425D01*
X146282439Y-61689308D01*
X146303089Y-61672665D01*
X146312832Y-61666405D01*
X146358548Y-61613645D01*
X146364561Y-61607186D01*
X146378528Y-61593220D01*
X146378529Y-61593217D01*
X146382087Y-61589660D01*
X146391695Y-61575392D01*
X146393334Y-61573501D01*
X146433363Y-61485848D01*
X146435658Y-61481094D01*
X146439719Y-61473126D01*
X146439719Y-61473123D01*
X146443948Y-61464824D01*
X146444399Y-61461681D01*
X146444401Y-61461679D01*
X146461896Y-61340000D01*
X148288104Y-61340000D01*
X148306050Y-61464821D01*
X148310280Y-61473125D01*
X148310281Y-61473126D01*
X148314326Y-61481067D01*
X148314335Y-61481083D01*
X148316626Y-61485828D01*
X148337244Y-61530973D01*
X148356667Y-61573504D01*
X148358317Y-61575408D01*
X148367920Y-61589668D01*
X148385419Y-61607167D01*
X148391450Y-61613645D01*
X148437165Y-61666402D01*
X148437168Y-61666405D01*
X148446913Y-61672667D01*
X148466271Y-61688268D01*
X148466778Y-61688526D01*
X148466780Y-61688528D01*
X148484494Y-61697553D01*
X148495221Y-61703713D01*
X148540584Y-61732866D01*
X148560694Y-61738770D01*
X148582056Y-61747264D01*
X148586874Y-61749719D01*
X148603097Y-61752288D01*
X148618638Y-61755784D01*
X148658535Y-61767500D01*
X148689381Y-61767500D01*
X148708779Y-61769026D01*
X148720000Y-61770804D01*
X148731220Y-61769026D01*
X148750619Y-61767500D01*
X148781464Y-61767500D01*
X148781465Y-61767500D01*
X148821361Y-61755784D01*
X148836897Y-61752289D01*
X148841416Y-61751573D01*
X148853126Y-61749719D01*
X148857944Y-61747263D01*
X148879305Y-61738770D01*
X148883442Y-61737556D01*
X148953309Y-61737563D01*
X149012083Y-61775344D01*
X149041102Y-61838902D01*
X149035157Y-61880247D01*
X149038136Y-61880676D01*
X149018104Y-62020000D01*
X149036050Y-62144821D01*
X149040280Y-62153125D01*
X149040281Y-62153126D01*
X149044326Y-62161067D01*
X149044335Y-62161083D01*
X149046626Y-62165828D01*
X149066644Y-62209660D01*
X149086667Y-62253504D01*
X149088317Y-62255408D01*
X149097920Y-62269668D01*
X149115419Y-62287167D01*
X149121450Y-62293645D01*
X149153268Y-62330364D01*
X149167168Y-62346405D01*
X149176913Y-62352667D01*
X149196271Y-62368268D01*
X149196778Y-62368526D01*
X149196780Y-62368528D01*
X149214494Y-62377553D01*
X149225221Y-62383713D01*
X149270584Y-62412866D01*
X149290694Y-62418770D01*
X149312056Y-62427264D01*
X149316874Y-62429719D01*
X149333097Y-62432288D01*
X149348638Y-62435784D01*
X149388535Y-62447500D01*
X149419381Y-62447500D01*
X149438779Y-62449026D01*
X149450000Y-62450804D01*
X149461220Y-62449026D01*
X149480619Y-62447500D01*
X149511464Y-62447500D01*
X149511465Y-62447500D01*
X149551361Y-62435784D01*
X149566897Y-62432289D01*
X149571416Y-62431573D01*
X149583126Y-62429719D01*
X149587944Y-62427263D01*
X149609299Y-62418772D01*
X149629416Y-62412866D01*
X149674780Y-62383711D01*
X149685497Y-62377557D01*
X149703220Y-62368528D01*
X149703223Y-62368524D01*
X149703731Y-62368266D01*
X149723089Y-62352665D01*
X149732832Y-62346405D01*
X149778548Y-62293645D01*
X149784561Y-62287186D01*
X149798528Y-62273220D01*
X149798529Y-62273217D01*
X149802087Y-62269660D01*
X149811695Y-62255392D01*
X149813334Y-62253501D01*
X149853363Y-62165848D01*
X149855658Y-62161094D01*
X149859719Y-62153126D01*
X149859719Y-62153123D01*
X149863948Y-62144824D01*
X149864399Y-62141681D01*
X149864401Y-62141679D01*
X149881896Y-62020000D01*
X149864401Y-61898321D01*
X149864400Y-61898319D01*
X149863948Y-61895174D01*
X149855660Y-61878907D01*
X149853367Y-61874160D01*
X149826197Y-61814666D01*
X149816255Y-61745509D01*
X149845281Y-61681954D01*
X149904059Y-61644180D01*
X149973929Y-61644180D01*
X149995286Y-61652671D01*
X150006778Y-61658526D01*
X150006780Y-61658528D01*
X150024494Y-61667553D01*
X150035221Y-61673713D01*
X150080584Y-61702866D01*
X150100694Y-61708770D01*
X150122056Y-61717264D01*
X150126874Y-61719719D01*
X150143097Y-61722288D01*
X150158638Y-61725784D01*
X150198535Y-61737500D01*
X150229381Y-61737500D01*
X150248779Y-61739026D01*
X150260000Y-61740804D01*
X150271220Y-61739026D01*
X150290619Y-61737500D01*
X150321464Y-61737500D01*
X150321465Y-61737500D01*
X150361361Y-61725784D01*
X150376897Y-61722289D01*
X150385017Y-61721003D01*
X150393126Y-61719719D01*
X150397944Y-61717263D01*
X150419299Y-61708772D01*
X150439416Y-61702866D01*
X150484780Y-61673711D01*
X150495497Y-61667557D01*
X150513220Y-61658528D01*
X150513223Y-61658524D01*
X150513731Y-61658266D01*
X150533089Y-61642665D01*
X150542832Y-61636405D01*
X150588543Y-61583650D01*
X150594561Y-61577186D01*
X150608528Y-61563220D01*
X150608529Y-61563217D01*
X150612087Y-61559660D01*
X150621695Y-61545392D01*
X150623334Y-61543501D01*
X150663363Y-61455848D01*
X150665658Y-61451094D01*
X150669719Y-61443126D01*
X150669719Y-61443123D01*
X150673948Y-61434824D01*
X150674399Y-61431681D01*
X150674401Y-61431679D01*
X150691896Y-61310000D01*
X150674401Y-61188321D01*
X150674400Y-61188319D01*
X150673948Y-61185174D01*
X150665660Y-61168907D01*
X150663367Y-61164160D01*
X150623334Y-61076499D01*
X150621687Y-61074598D01*
X150612083Y-61060335D01*
X150608528Y-61056780D01*
X150594566Y-61042818D01*
X150588547Y-61036353D01*
X150568825Y-61013593D01*
X150542832Y-60983595D01*
X150542831Y-60983594D01*
X150542830Y-60983593D01*
X150533086Y-60977331D01*
X150513728Y-60961731D01*
X150513220Y-60961472D01*
X150495512Y-60952449D01*
X150484775Y-60946284D01*
X150439416Y-60917133D01*
X150423470Y-60912451D01*
X150419303Y-60911228D01*
X150397949Y-60902738D01*
X150393126Y-60900280D01*
X150376896Y-60897710D01*
X150361360Y-60894214D01*
X150321466Y-60882500D01*
X150321465Y-60882500D01*
X150290619Y-60882500D01*
X150271220Y-60880973D01*
X150270052Y-60880788D01*
X150260000Y-60879195D01*
X150249947Y-60880788D01*
X150248779Y-60880973D01*
X150229381Y-60882500D01*
X150198535Y-60882500D01*
X150179653Y-60888044D01*
X150158639Y-60894214D01*
X150143109Y-60897709D01*
X150126872Y-60900281D01*
X150122048Y-60902739D01*
X150100700Y-60911226D01*
X150080585Y-60917133D01*
X150064127Y-60927710D01*
X150035223Y-60946284D01*
X150024487Y-60952449D01*
X150006277Y-60961727D01*
X149986917Y-60977328D01*
X149977169Y-60983592D01*
X149931455Y-61036348D01*
X149925430Y-61042820D01*
X149907926Y-61060325D01*
X149898323Y-61074586D01*
X149896667Y-61076497D01*
X149896666Y-61076498D01*
X149896666Y-61076499D01*
X149857113Y-61163105D01*
X149856644Y-61164133D01*
X149854342Y-61168901D01*
X149846050Y-61185178D01*
X149828104Y-61310000D01*
X149846050Y-61434821D01*
X149850280Y-61443125D01*
X149850281Y-61443126D01*
X149854326Y-61451067D01*
X149854335Y-61451083D01*
X149856635Y-61455846D01*
X149859299Y-61461679D01*
X149883801Y-61515333D01*
X149893744Y-61584492D01*
X149864718Y-61648047D01*
X149805939Y-61685821D01*
X149736070Y-61685820D01*
X149714708Y-61677326D01*
X149685516Y-61662451D01*
X149674775Y-61656284D01*
X149629416Y-61627133D01*
X149611016Y-61621731D01*
X149609303Y-61621228D01*
X149587949Y-61612738D01*
X149583126Y-61610280D01*
X149566896Y-61607710D01*
X149551360Y-61604214D01*
X149511466Y-61592500D01*
X149511465Y-61592500D01*
X149480619Y-61592500D01*
X149461220Y-61590973D01*
X149460052Y-61590788D01*
X149450000Y-61589195D01*
X149439947Y-61590788D01*
X149438779Y-61590973D01*
X149419381Y-61592500D01*
X149388535Y-61592500D01*
X149375648Y-61596284D01*
X149348639Y-61604214D01*
X149333109Y-61607709D01*
X149316872Y-61610281D01*
X149312048Y-61612739D01*
X149290695Y-61621227D01*
X149286574Y-61622437D01*
X149216704Y-61622437D01*
X149157926Y-61584662D01*
X149128902Y-61521106D01*
X149134846Y-61479761D01*
X149131863Y-61479332D01*
X149134684Y-61459714D01*
X149151896Y-61340000D01*
X149134401Y-61218321D01*
X149134400Y-61218319D01*
X149133948Y-61215174D01*
X149125660Y-61198907D01*
X149123367Y-61194160D01*
X149083334Y-61106499D01*
X149081687Y-61104598D01*
X149072083Y-61090335D01*
X149068528Y-61086780D01*
X149054566Y-61072818D01*
X149048547Y-61066353D01*
X149045787Y-61063168D01*
X149002832Y-61013595D01*
X149002831Y-61013594D01*
X149002830Y-61013593D01*
X148993086Y-61007331D01*
X148973728Y-60991731D01*
X148973220Y-60991472D01*
X148955512Y-60982449D01*
X148944775Y-60976284D01*
X148899416Y-60947133D01*
X148883470Y-60942451D01*
X148879303Y-60941228D01*
X148857949Y-60932738D01*
X148853126Y-60930280D01*
X148836896Y-60927710D01*
X148821360Y-60924214D01*
X148781466Y-60912500D01*
X148781465Y-60912500D01*
X148750619Y-60912500D01*
X148731220Y-60910973D01*
X148730052Y-60910788D01*
X148720000Y-60909195D01*
X148709947Y-60910788D01*
X148708779Y-60910973D01*
X148689381Y-60912500D01*
X148658535Y-60912500D01*
X148642756Y-60917133D01*
X148618639Y-60924214D01*
X148603109Y-60927709D01*
X148586872Y-60930281D01*
X148582048Y-60932739D01*
X148560700Y-60941226D01*
X148540585Y-60947133D01*
X148518273Y-60961472D01*
X148495223Y-60976284D01*
X148484487Y-60982449D01*
X148466277Y-60991727D01*
X148446917Y-61007328D01*
X148437169Y-61013592D01*
X148391455Y-61066348D01*
X148385430Y-61072820D01*
X148367926Y-61090325D01*
X148358323Y-61104586D01*
X148356667Y-61106497D01*
X148356666Y-61106498D01*
X148356666Y-61106499D01*
X148320734Y-61185178D01*
X148316644Y-61194133D01*
X148314342Y-61198901D01*
X148306050Y-61215178D01*
X148288104Y-61340000D01*
X146461896Y-61340000D01*
X146444401Y-61218321D01*
X146444400Y-61218319D01*
X146443948Y-61215174D01*
X146435660Y-61198907D01*
X146433367Y-61194160D01*
X146393334Y-61106499D01*
X146391687Y-61104598D01*
X146382083Y-61090335D01*
X146378528Y-61086780D01*
X146364566Y-61072818D01*
X146358547Y-61066353D01*
X146355787Y-61063168D01*
X146312832Y-61013595D01*
X146312831Y-61013594D01*
X146312830Y-61013593D01*
X146303086Y-61007331D01*
X146283728Y-60991731D01*
X146283220Y-60991472D01*
X146265512Y-60982449D01*
X146254775Y-60976284D01*
X146209416Y-60947133D01*
X146193470Y-60942451D01*
X146189303Y-60941228D01*
X146167949Y-60932738D01*
X146163126Y-60930280D01*
X146146896Y-60927710D01*
X146131360Y-60924214D01*
X146091466Y-60912500D01*
X146091465Y-60912500D01*
X146060619Y-60912500D01*
X146041220Y-60910973D01*
X146040052Y-60910788D01*
X146030000Y-60909195D01*
X146019947Y-60910788D01*
X146018779Y-60910973D01*
X145999381Y-60912500D01*
X145968535Y-60912500D01*
X145952756Y-60917133D01*
X145928639Y-60924214D01*
X145913109Y-60927709D01*
X145896872Y-60930281D01*
X145892048Y-60932739D01*
X145870700Y-60941226D01*
X145850585Y-60947133D01*
X145828273Y-60961472D01*
X145805223Y-60976284D01*
X145794487Y-60982449D01*
X145776277Y-60991727D01*
X145756917Y-61007328D01*
X145747169Y-61013592D01*
X145701455Y-61066348D01*
X145695430Y-61072820D01*
X145677926Y-61090325D01*
X145668323Y-61104586D01*
X145666667Y-61106497D01*
X145666666Y-61106498D01*
X145666666Y-61106499D01*
X145630734Y-61185178D01*
X145626644Y-61194133D01*
X145624342Y-61198901D01*
X145616050Y-61215178D01*
X145598104Y-61340000D01*
X139764179Y-61340000D01*
X141004179Y-60100000D01*
X146618104Y-60100000D01*
X146636050Y-60224821D01*
X146640280Y-60233125D01*
X146640281Y-60233126D01*
X146643669Y-60239777D01*
X146644335Y-60241083D01*
X146646626Y-60245828D01*
X146656622Y-60267714D01*
X146686667Y-60333504D01*
X146688317Y-60335408D01*
X146697920Y-60349668D01*
X146715419Y-60367167D01*
X146721450Y-60373645D01*
X146767166Y-60426403D01*
X146767168Y-60426405D01*
X146776913Y-60432667D01*
X146796271Y-60448268D01*
X146796778Y-60448526D01*
X146796780Y-60448528D01*
X146814494Y-60457553D01*
X146825221Y-60463713D01*
X146870584Y-60492866D01*
X146890694Y-60498770D01*
X146912056Y-60507264D01*
X146916874Y-60509719D01*
X146933097Y-60512288D01*
X146948638Y-60515784D01*
X146988535Y-60527500D01*
X147019381Y-60527500D01*
X147038779Y-60529026D01*
X147050000Y-60530804D01*
X147061220Y-60529026D01*
X147080619Y-60527500D01*
X147111464Y-60527500D01*
X147111465Y-60527500D01*
X147151361Y-60515784D01*
X147166897Y-60512289D01*
X147171416Y-60511573D01*
X147183126Y-60509719D01*
X147187944Y-60507263D01*
X147209299Y-60498772D01*
X147229416Y-60492866D01*
X147274780Y-60463711D01*
X147285497Y-60457557D01*
X147303220Y-60448528D01*
X147303223Y-60448524D01*
X147303731Y-60448266D01*
X147323089Y-60432665D01*
X147332832Y-60426405D01*
X147342620Y-60415108D01*
X147401394Y-60377333D01*
X147471264Y-60377330D01*
X147530044Y-60415102D01*
X147530046Y-60415105D01*
X147539836Y-60426403D01*
X147557168Y-60446405D01*
X147566913Y-60452667D01*
X147586271Y-60468268D01*
X147586778Y-60468526D01*
X147586780Y-60468528D01*
X147604494Y-60477553D01*
X147615221Y-60483713D01*
X147660584Y-60512866D01*
X147680694Y-60518770D01*
X147702056Y-60527264D01*
X147706874Y-60529719D01*
X147723097Y-60532288D01*
X147738638Y-60535784D01*
X147778535Y-60547500D01*
X147809381Y-60547500D01*
X147828779Y-60549026D01*
X147840000Y-60550804D01*
X147851220Y-60549026D01*
X147870619Y-60547500D01*
X147901464Y-60547500D01*
X147901465Y-60547500D01*
X147941361Y-60535784D01*
X147956897Y-60532289D01*
X147961416Y-60531573D01*
X147973126Y-60529719D01*
X147977944Y-60527263D01*
X147999299Y-60518772D01*
X148019416Y-60512866D01*
X148064780Y-60483711D01*
X148075497Y-60477557D01*
X148093220Y-60468528D01*
X148093223Y-60468524D01*
X148093731Y-60468266D01*
X148113089Y-60452665D01*
X148122832Y-60446405D01*
X148168543Y-60393650D01*
X148174561Y-60387186D01*
X148188528Y-60373220D01*
X148188529Y-60373217D01*
X148192087Y-60369660D01*
X148201695Y-60355392D01*
X148203334Y-60353501D01*
X148243363Y-60265848D01*
X148245658Y-60261094D01*
X148249719Y-60253126D01*
X148249719Y-60253123D01*
X148253948Y-60244824D01*
X148254399Y-60241681D01*
X148254401Y-60241679D01*
X148271896Y-60120000D01*
X148254401Y-59998321D01*
X148254400Y-59998319D01*
X148253948Y-59995174D01*
X148245660Y-59978907D01*
X148243367Y-59974160D01*
X148203334Y-59886499D01*
X148201687Y-59884598D01*
X148192083Y-59870335D01*
X148186334Y-59864586D01*
X148174566Y-59852818D01*
X148168547Y-59846353D01*
X148154113Y-59829695D01*
X148122832Y-59793595D01*
X148122831Y-59793594D01*
X148122830Y-59793593D01*
X148113086Y-59787331D01*
X148093728Y-59771731D01*
X148085087Y-59767328D01*
X148075512Y-59762449D01*
X148064775Y-59756284D01*
X148019416Y-59727133D01*
X148003470Y-59722451D01*
X147999303Y-59721228D01*
X147977949Y-59712738D01*
X147973126Y-59710280D01*
X147956896Y-59707710D01*
X147941360Y-59704214D01*
X147901466Y-59692500D01*
X147901465Y-59692500D01*
X147870619Y-59692500D01*
X147851220Y-59690973D01*
X147848701Y-59690574D01*
X147840000Y-59689195D01*
X147831299Y-59690574D01*
X147828779Y-59690973D01*
X147809381Y-59692500D01*
X147778535Y-59692500D01*
X147759885Y-59697976D01*
X147738639Y-59704214D01*
X147723109Y-59707709D01*
X147706872Y-59710281D01*
X147702048Y-59712739D01*
X147680700Y-59721226D01*
X147660585Y-59727133D01*
X147638592Y-59741267D01*
X147615223Y-59756284D01*
X147604487Y-59762449D01*
X147586277Y-59771727D01*
X147566917Y-59787328D01*
X147557170Y-59793592D01*
X147547374Y-59804897D01*
X147488594Y-59842669D01*
X147418724Y-59842666D01*
X147359951Y-59804892D01*
X147350160Y-59793593D01*
X147332832Y-59773595D01*
X147332831Y-59773594D01*
X147323086Y-59767331D01*
X147303728Y-59751731D01*
X147303220Y-59751472D01*
X147285512Y-59742449D01*
X147274775Y-59736284D01*
X147229416Y-59707133D01*
X147213470Y-59702451D01*
X147209303Y-59701228D01*
X147187949Y-59692738D01*
X147183126Y-59690280D01*
X147166896Y-59687710D01*
X147151360Y-59684214D01*
X147111466Y-59672500D01*
X147111465Y-59672500D01*
X147080619Y-59672500D01*
X147061220Y-59670973D01*
X147060052Y-59670788D01*
X147050000Y-59669195D01*
X147039947Y-59670788D01*
X147038779Y-59670973D01*
X147019381Y-59672500D01*
X146988535Y-59672500D01*
X146969653Y-59678044D01*
X146948639Y-59684214D01*
X146933109Y-59687709D01*
X146916872Y-59690281D01*
X146912048Y-59692739D01*
X146890700Y-59701226D01*
X146870585Y-59707133D01*
X146861862Y-59712739D01*
X146825223Y-59736284D01*
X146814487Y-59742449D01*
X146796277Y-59751727D01*
X146776917Y-59767328D01*
X146767169Y-59773592D01*
X146721455Y-59826348D01*
X146715430Y-59832820D01*
X146697926Y-59850325D01*
X146688323Y-59864586D01*
X146686667Y-59866497D01*
X146686666Y-59866498D01*
X146686666Y-59866499D01*
X146653936Y-59938166D01*
X146646644Y-59954133D01*
X146644342Y-59958901D01*
X146636050Y-59975178D01*
X146618104Y-60100000D01*
X141004179Y-60100000D01*
X142734179Y-58370000D01*
X146518104Y-58370000D01*
X146536050Y-58494821D01*
X146540280Y-58503125D01*
X146540281Y-58503126D01*
X146544326Y-58511067D01*
X146544335Y-58511083D01*
X146546626Y-58515828D01*
X146574345Y-58576522D01*
X146586667Y-58603504D01*
X146588317Y-58605408D01*
X146597920Y-58619668D01*
X146615419Y-58637167D01*
X146621450Y-58643645D01*
X146667165Y-58696402D01*
X146667168Y-58696405D01*
X146676913Y-58702667D01*
X146696271Y-58718268D01*
X146696778Y-58718526D01*
X146696780Y-58718528D01*
X146714494Y-58727553D01*
X146725221Y-58733713D01*
X146770584Y-58762866D01*
X146790694Y-58768770D01*
X146812056Y-58777264D01*
X146816874Y-58779719D01*
X146833097Y-58782288D01*
X146848638Y-58785784D01*
X146888535Y-58797500D01*
X146919381Y-58797500D01*
X146938779Y-58799026D01*
X146950000Y-58800804D01*
X146961220Y-58799026D01*
X146980619Y-58797500D01*
X147011464Y-58797500D01*
X147011465Y-58797500D01*
X147051361Y-58785784D01*
X147066897Y-58782289D01*
X147071416Y-58781573D01*
X147083126Y-58779719D01*
X147087944Y-58777263D01*
X147109299Y-58768772D01*
X147129416Y-58762866D01*
X147174780Y-58733711D01*
X147185497Y-58727557D01*
X147203220Y-58718528D01*
X147203223Y-58718524D01*
X147203731Y-58718266D01*
X147223089Y-58702665D01*
X147232832Y-58696405D01*
X147278548Y-58643645D01*
X147284562Y-58637185D01*
X147292325Y-58629422D01*
X147353650Y-58595942D01*
X147423341Y-58600931D01*
X147467681Y-58629429D01*
X147475419Y-58637167D01*
X147481450Y-58643645D01*
X147527165Y-58696402D01*
X147527168Y-58696405D01*
X147536913Y-58702667D01*
X147556271Y-58718268D01*
X147556778Y-58718526D01*
X147556780Y-58718528D01*
X147574494Y-58727553D01*
X147585221Y-58733713D01*
X147630584Y-58762866D01*
X147650694Y-58768770D01*
X147672056Y-58777264D01*
X147676874Y-58779719D01*
X147693097Y-58782288D01*
X147708638Y-58785784D01*
X147748535Y-58797500D01*
X147779381Y-58797500D01*
X147798779Y-58799026D01*
X147810000Y-58800804D01*
X147821220Y-58799026D01*
X147840619Y-58797500D01*
X147871464Y-58797500D01*
X147871465Y-58797500D01*
X147911361Y-58785784D01*
X147926897Y-58782289D01*
X147931416Y-58781573D01*
X147943126Y-58779719D01*
X147947944Y-58777263D01*
X147969299Y-58768772D01*
X147989416Y-58762866D01*
X148034780Y-58733711D01*
X148045497Y-58727557D01*
X148063220Y-58718528D01*
X148063223Y-58718524D01*
X148063731Y-58718266D01*
X148083089Y-58702665D01*
X148092832Y-58696405D01*
X148138548Y-58643645D01*
X148144561Y-58637186D01*
X148158528Y-58623220D01*
X148158529Y-58623217D01*
X148162087Y-58619660D01*
X148171695Y-58605392D01*
X148173334Y-58603501D01*
X148213363Y-58515848D01*
X148215658Y-58511094D01*
X148219719Y-58503126D01*
X148219719Y-58503123D01*
X148223948Y-58494824D01*
X148224399Y-58491681D01*
X148224401Y-58491679D01*
X148241896Y-58370000D01*
X148224401Y-58248321D01*
X148224400Y-58248319D01*
X148223948Y-58245174D01*
X148215660Y-58228907D01*
X148213367Y-58224160D01*
X148173334Y-58136499D01*
X148171687Y-58134598D01*
X148162083Y-58120335D01*
X148158528Y-58116780D01*
X148144566Y-58102818D01*
X148138547Y-58096353D01*
X148092830Y-58043593D01*
X148083086Y-58037331D01*
X148063728Y-58021731D01*
X148063220Y-58021472D01*
X148045512Y-58012449D01*
X148034775Y-58006284D01*
X147989416Y-57977133D01*
X147973470Y-57972451D01*
X147969303Y-57971228D01*
X147947949Y-57962738D01*
X147943126Y-57960280D01*
X147926896Y-57957710D01*
X147911360Y-57954214D01*
X147871466Y-57942500D01*
X147871465Y-57942500D01*
X147840619Y-57942500D01*
X147821220Y-57940973D01*
X147820052Y-57940788D01*
X147810000Y-57939195D01*
X147799947Y-57940788D01*
X147798779Y-57940973D01*
X147779381Y-57942500D01*
X147748535Y-57942500D01*
X147729653Y-57948044D01*
X147708639Y-57954214D01*
X147693109Y-57957709D01*
X147676872Y-57960281D01*
X147672048Y-57962739D01*
X147650700Y-57971226D01*
X147630585Y-57977133D01*
X147606238Y-57992779D01*
X147585223Y-58006284D01*
X147574487Y-58012449D01*
X147556277Y-58021727D01*
X147536917Y-58037328D01*
X147527169Y-58043592D01*
X147481455Y-58096348D01*
X147475431Y-58102819D01*
X147467686Y-58110565D01*
X147406365Y-58144054D01*
X147336673Y-58139074D01*
X147292318Y-58110570D01*
X147284579Y-58102831D01*
X147278547Y-58096353D01*
X147232830Y-58043593D01*
X147223086Y-58037331D01*
X147203728Y-58021731D01*
X147203220Y-58021472D01*
X147185512Y-58012449D01*
X147174775Y-58006284D01*
X147129416Y-57977133D01*
X147113470Y-57972451D01*
X147109303Y-57971228D01*
X147087949Y-57962738D01*
X147083126Y-57960280D01*
X147066896Y-57957710D01*
X147051360Y-57954214D01*
X147011466Y-57942500D01*
X147011465Y-57942500D01*
X146980619Y-57942500D01*
X146961220Y-57940973D01*
X146960052Y-57940788D01*
X146950000Y-57939195D01*
X146939947Y-57940788D01*
X146938779Y-57940973D01*
X146919381Y-57942500D01*
X146888535Y-57942500D01*
X146869653Y-57948044D01*
X146848639Y-57954214D01*
X146833109Y-57957709D01*
X146816872Y-57960281D01*
X146812048Y-57962739D01*
X146790700Y-57971226D01*
X146770585Y-57977133D01*
X146746238Y-57992779D01*
X146725223Y-58006284D01*
X146714487Y-58012449D01*
X146696277Y-58021727D01*
X146676917Y-58037328D01*
X146667169Y-58043592D01*
X146621455Y-58096348D01*
X146615430Y-58102820D01*
X146597926Y-58120325D01*
X146588323Y-58134586D01*
X146586667Y-58136497D01*
X146546644Y-58224133D01*
X146544342Y-58228901D01*
X146536050Y-58245178D01*
X146518104Y-58370000D01*
X142734179Y-58370000D01*
X143724179Y-57380000D01*
X145628104Y-57380000D01*
X145646050Y-57504821D01*
X145650280Y-57513125D01*
X145650281Y-57513126D01*
X145654326Y-57521067D01*
X145654335Y-57521083D01*
X145656626Y-57525828D01*
X145681468Y-57580222D01*
X145696667Y-57613504D01*
X145698317Y-57615408D01*
X145707920Y-57629668D01*
X145725419Y-57647167D01*
X145731450Y-57653645D01*
X145772115Y-57700574D01*
X145777168Y-57706405D01*
X145786913Y-57712667D01*
X145806271Y-57728268D01*
X145806778Y-57728526D01*
X145806780Y-57728528D01*
X145824494Y-57737553D01*
X145835221Y-57743713D01*
X145880584Y-57772866D01*
X145900694Y-57778770D01*
X145922056Y-57787264D01*
X145926874Y-57789719D01*
X145943097Y-57792288D01*
X145958638Y-57795784D01*
X145998535Y-57807500D01*
X146029381Y-57807500D01*
X146048779Y-57809026D01*
X146060000Y-57810804D01*
X146071220Y-57809026D01*
X146090619Y-57807500D01*
X146121464Y-57807500D01*
X146121465Y-57807500D01*
X146161361Y-57795784D01*
X146176897Y-57792289D01*
X146181416Y-57791573D01*
X146193126Y-57789719D01*
X146197944Y-57787263D01*
X146219299Y-57778772D01*
X146239416Y-57772866D01*
X146284780Y-57743711D01*
X146295497Y-57737557D01*
X146313220Y-57728528D01*
X146313223Y-57728524D01*
X146313731Y-57728266D01*
X146333089Y-57712665D01*
X146342832Y-57706405D01*
X146388548Y-57653645D01*
X146394561Y-57647186D01*
X146408528Y-57633220D01*
X146408529Y-57633217D01*
X146412087Y-57629660D01*
X146421695Y-57615392D01*
X146423334Y-57613501D01*
X146463363Y-57525848D01*
X146465658Y-57521094D01*
X146469719Y-57513126D01*
X146469719Y-57513123D01*
X146473948Y-57504824D01*
X146474399Y-57501681D01*
X146474401Y-57501679D01*
X146491896Y-57380000D01*
X146474401Y-57258321D01*
X146474400Y-57258319D01*
X146473948Y-57255174D01*
X146465660Y-57238907D01*
X146463367Y-57234160D01*
X146429500Y-57160000D01*
X148448104Y-57160000D01*
X148466050Y-57284821D01*
X148470280Y-57293125D01*
X148470281Y-57293126D01*
X148474326Y-57301067D01*
X148474335Y-57301083D01*
X148476626Y-57305828D01*
X148494909Y-57345860D01*
X148516667Y-57393504D01*
X148518317Y-57395408D01*
X148527920Y-57409668D01*
X148545419Y-57427167D01*
X148551450Y-57433645D01*
X148583216Y-57470304D01*
X148597168Y-57486405D01*
X148606913Y-57492667D01*
X148626271Y-57508268D01*
X148626778Y-57508526D01*
X148626780Y-57508528D01*
X148644494Y-57517553D01*
X148655221Y-57523713D01*
X148700584Y-57552866D01*
X148720694Y-57558770D01*
X148742056Y-57567264D01*
X148746874Y-57569719D01*
X148763097Y-57572288D01*
X148778638Y-57575784D01*
X148818535Y-57587500D01*
X148849381Y-57587500D01*
X148868779Y-57589026D01*
X148880000Y-57590804D01*
X148891220Y-57589026D01*
X148910619Y-57587500D01*
X148941464Y-57587500D01*
X148941465Y-57587500D01*
X148981361Y-57575784D01*
X148996897Y-57572289D01*
X149001416Y-57571573D01*
X149013126Y-57569719D01*
X149017944Y-57567263D01*
X149039299Y-57558772D01*
X149059416Y-57552866D01*
X149104780Y-57523711D01*
X149115497Y-57517557D01*
X149133220Y-57508528D01*
X149133223Y-57508524D01*
X149133731Y-57508266D01*
X149153089Y-57492665D01*
X149162832Y-57486405D01*
X149208548Y-57433645D01*
X149214561Y-57427186D01*
X149228528Y-57413220D01*
X149228529Y-57413217D01*
X149232087Y-57409660D01*
X149241695Y-57395392D01*
X149243334Y-57393501D01*
X149283363Y-57305848D01*
X149285658Y-57301094D01*
X149289719Y-57293126D01*
X149289719Y-57293123D01*
X149293948Y-57284824D01*
X149294399Y-57281681D01*
X149294401Y-57281679D01*
X149311896Y-57160000D01*
X149310801Y-57152385D01*
X149320742Y-57083227D01*
X149366496Y-57030422D01*
X149433535Y-57010736D01*
X149452726Y-57012230D01*
X149452892Y-57012256D01*
X149468638Y-57015784D01*
X149508535Y-57027500D01*
X149539381Y-57027500D01*
X149558779Y-57029026D01*
X149570000Y-57030804D01*
X149581220Y-57029026D01*
X149600619Y-57027500D01*
X149631464Y-57027500D01*
X149631465Y-57027500D01*
X149635766Y-57026236D01*
X149705635Y-57026233D01*
X149764415Y-57064005D01*
X149793443Y-57127559D01*
X149793444Y-57162858D01*
X149788104Y-57200000D01*
X149790969Y-57219931D01*
X149806050Y-57324821D01*
X149810280Y-57333125D01*
X149810281Y-57333126D01*
X149814326Y-57341067D01*
X149814335Y-57341083D01*
X149816626Y-57345828D01*
X149838400Y-57393504D01*
X149856667Y-57433504D01*
X149858317Y-57435408D01*
X149867920Y-57449668D01*
X149885419Y-57467167D01*
X149891450Y-57473645D01*
X149937165Y-57526402D01*
X149937168Y-57526405D01*
X149946913Y-57532667D01*
X149966271Y-57548268D01*
X149966778Y-57548526D01*
X149966780Y-57548528D01*
X149984494Y-57557553D01*
X149995221Y-57563713D01*
X150040584Y-57592866D01*
X150060694Y-57598770D01*
X150082056Y-57607264D01*
X150086874Y-57609719D01*
X150103097Y-57612288D01*
X150118638Y-57615784D01*
X150158535Y-57627500D01*
X150189381Y-57627500D01*
X150208779Y-57629026D01*
X150220000Y-57630804D01*
X150231220Y-57629026D01*
X150250619Y-57627500D01*
X150281464Y-57627500D01*
X150281465Y-57627500D01*
X150321361Y-57615784D01*
X150336897Y-57612289D01*
X150341416Y-57611573D01*
X150353126Y-57609719D01*
X150357944Y-57607263D01*
X150379299Y-57598772D01*
X150399416Y-57592866D01*
X150444780Y-57563711D01*
X150455497Y-57557557D01*
X150473220Y-57548528D01*
X150473223Y-57548524D01*
X150473731Y-57548266D01*
X150493089Y-57532665D01*
X150502832Y-57526405D01*
X150548548Y-57473645D01*
X150554561Y-57467186D01*
X150568528Y-57453220D01*
X150568529Y-57453217D01*
X150572087Y-57449660D01*
X150581695Y-57435392D01*
X150583334Y-57433501D01*
X150623363Y-57345848D01*
X150625658Y-57341094D01*
X150629719Y-57333126D01*
X150629719Y-57333123D01*
X150633948Y-57324824D01*
X150634399Y-57321681D01*
X150634401Y-57321679D01*
X150651896Y-57200000D01*
X150634401Y-57078321D01*
X150634400Y-57078319D01*
X150633948Y-57075174D01*
X150625660Y-57058907D01*
X150623367Y-57054160D01*
X150583334Y-56966499D01*
X150581687Y-56964598D01*
X150572083Y-56950335D01*
X150568528Y-56946780D01*
X150554566Y-56932818D01*
X150548547Y-56926353D01*
X150523985Y-56898007D01*
X150502832Y-56873595D01*
X150502831Y-56873594D01*
X150502830Y-56873593D01*
X150493086Y-56867331D01*
X150473728Y-56851731D01*
X150473220Y-56851472D01*
X150455512Y-56842449D01*
X150444775Y-56836284D01*
X150399416Y-56807133D01*
X150383462Y-56802449D01*
X150379303Y-56801228D01*
X150357949Y-56792738D01*
X150353126Y-56790280D01*
X150336896Y-56787710D01*
X150321360Y-56784214D01*
X150281466Y-56772500D01*
X150281465Y-56772500D01*
X150250619Y-56772500D01*
X150231220Y-56770973D01*
X150230052Y-56770788D01*
X150220000Y-56769195D01*
X150209947Y-56770788D01*
X150208779Y-56770973D01*
X150189381Y-56772500D01*
X150158533Y-56772500D01*
X150154224Y-56773765D01*
X150084354Y-56773763D01*
X150025578Y-56735987D01*
X149996555Y-56672430D01*
X149996555Y-56637147D01*
X150001896Y-56600000D01*
X149984401Y-56478321D01*
X149984400Y-56478319D01*
X149983948Y-56475174D01*
X149975660Y-56458907D01*
X149973367Y-56454160D01*
X149933334Y-56366499D01*
X149931687Y-56364598D01*
X149922083Y-56350335D01*
X149918528Y-56346780D01*
X149904566Y-56332818D01*
X149898547Y-56326353D01*
X149881442Y-56306613D01*
X149852832Y-56273595D01*
X149852831Y-56273594D01*
X149852830Y-56273593D01*
X149843086Y-56267331D01*
X149823728Y-56251731D01*
X149823220Y-56251472D01*
X149805512Y-56242449D01*
X149794775Y-56236284D01*
X149749416Y-56207133D01*
X149733470Y-56202451D01*
X149729303Y-56201228D01*
X149707949Y-56192738D01*
X149703126Y-56190280D01*
X149686896Y-56187710D01*
X149671360Y-56184214D01*
X149631466Y-56172500D01*
X149631465Y-56172500D01*
X149600619Y-56172500D01*
X149581220Y-56170973D01*
X149580052Y-56170788D01*
X149570000Y-56169195D01*
X149559947Y-56170788D01*
X149558779Y-56170973D01*
X149539381Y-56172500D01*
X149508535Y-56172500D01*
X149489653Y-56178044D01*
X149468639Y-56184214D01*
X149453109Y-56187709D01*
X149436872Y-56190281D01*
X149432048Y-56192739D01*
X149410700Y-56201226D01*
X149390585Y-56207133D01*
X149366673Y-56222500D01*
X149345223Y-56236284D01*
X149334487Y-56242449D01*
X149316277Y-56251727D01*
X149296917Y-56267328D01*
X149287169Y-56273592D01*
X149241455Y-56326348D01*
X149235430Y-56332820D01*
X149217926Y-56350325D01*
X149208323Y-56364586D01*
X149206667Y-56366497D01*
X149206666Y-56366498D01*
X149206666Y-56366499D01*
X149179556Y-56425860D01*
X149166644Y-56454133D01*
X149164342Y-56458901D01*
X149156050Y-56475178D01*
X149138104Y-56600000D01*
X149139199Y-56607617D01*
X149129255Y-56676776D01*
X149083499Y-56729579D01*
X149016460Y-56749263D01*
X148997273Y-56747769D01*
X148997107Y-56747743D01*
X148981360Y-56744214D01*
X148941466Y-56732500D01*
X148941465Y-56732500D01*
X148910619Y-56732500D01*
X148891220Y-56730973D01*
X148890052Y-56730788D01*
X148880000Y-56729195D01*
X148869947Y-56730788D01*
X148868779Y-56730973D01*
X148849381Y-56732500D01*
X148818535Y-56732500D01*
X148799653Y-56738044D01*
X148778639Y-56744214D01*
X148763109Y-56747709D01*
X148746872Y-56750281D01*
X148742048Y-56752739D01*
X148720700Y-56761226D01*
X148700585Y-56767133D01*
X148690222Y-56773793D01*
X148656719Y-56795324D01*
X148655228Y-56796282D01*
X148644487Y-56802449D01*
X148626277Y-56811727D01*
X148606917Y-56827328D01*
X148597169Y-56833592D01*
X148551455Y-56886348D01*
X148545430Y-56892820D01*
X148527926Y-56910325D01*
X148518323Y-56924586D01*
X148516667Y-56926497D01*
X148516666Y-56926498D01*
X148516666Y-56926499D01*
X148482175Y-57002023D01*
X148476644Y-57014133D01*
X148474342Y-57018901D01*
X148466050Y-57035178D01*
X148448104Y-57160000D01*
X146429500Y-57160000D01*
X146423334Y-57146499D01*
X146421687Y-57144598D01*
X146412083Y-57130335D01*
X146408528Y-57126780D01*
X146394566Y-57112818D01*
X146388547Y-57106353D01*
X146342830Y-57053593D01*
X146333086Y-57047331D01*
X146313728Y-57031731D01*
X146311159Y-57030422D01*
X146295512Y-57022449D01*
X146284774Y-57016283D01*
X146265590Y-57003954D01*
X146219835Y-56951150D01*
X146209892Y-56881991D01*
X146238918Y-56818436D01*
X146265589Y-56795324D01*
X146269411Y-56792867D01*
X146269416Y-56792866D01*
X146314794Y-56763702D01*
X146325497Y-56757557D01*
X146343220Y-56748528D01*
X146343223Y-56748524D01*
X146343731Y-56748266D01*
X146363089Y-56732665D01*
X146372832Y-56726405D01*
X146418548Y-56673645D01*
X146424561Y-56667186D01*
X146438528Y-56653220D01*
X146438529Y-56653217D01*
X146442087Y-56649660D01*
X146451695Y-56635392D01*
X146453334Y-56633501D01*
X146493363Y-56545848D01*
X146495658Y-56541094D01*
X146499719Y-56533126D01*
X146499719Y-56533123D01*
X146503948Y-56524824D01*
X146504399Y-56521681D01*
X146504401Y-56521679D01*
X146521896Y-56400000D01*
X146504401Y-56278321D01*
X146504400Y-56278319D01*
X146503948Y-56275174D01*
X146495660Y-56258907D01*
X146493367Y-56254160D01*
X146453334Y-56166499D01*
X146451687Y-56164598D01*
X146442083Y-56150335D01*
X146438528Y-56146780D01*
X146424566Y-56132818D01*
X146418547Y-56126353D01*
X146407492Y-56113595D01*
X146372832Y-56073595D01*
X146372831Y-56073594D01*
X146372830Y-56073593D01*
X146363086Y-56067331D01*
X146343728Y-56051731D01*
X146333456Y-56046497D01*
X146325512Y-56042449D01*
X146314775Y-56036284D01*
X146269416Y-56007134D01*
X146263654Y-56005442D01*
X146253661Y-56002507D01*
X146194884Y-55964733D01*
X146165860Y-55901177D01*
X146175804Y-55832018D01*
X146221560Y-55779215D01*
X146253657Y-55764556D01*
X146259416Y-55762866D01*
X146304780Y-55733711D01*
X146315497Y-55727557D01*
X146333220Y-55718528D01*
X146333223Y-55718524D01*
X146333731Y-55718266D01*
X146353089Y-55702665D01*
X146362832Y-55696405D01*
X146408548Y-55643645D01*
X146414561Y-55637186D01*
X146428528Y-55623220D01*
X146428529Y-55623217D01*
X146432087Y-55619660D01*
X146441695Y-55605392D01*
X146443334Y-55603501D01*
X146483363Y-55515848D01*
X146485658Y-55511094D01*
X146489719Y-55503126D01*
X146489719Y-55503123D01*
X146493948Y-55494824D01*
X146494399Y-55491681D01*
X146494401Y-55491679D01*
X146511896Y-55370000D01*
X146494401Y-55248321D01*
X146494400Y-55248319D01*
X146493948Y-55245174D01*
X146485660Y-55228907D01*
X146483367Y-55224160D01*
X146443334Y-55136499D01*
X146441687Y-55134598D01*
X146432083Y-55120335D01*
X146424916Y-55113168D01*
X146414566Y-55102818D01*
X146408547Y-55096353D01*
X146408543Y-55096348D01*
X146362832Y-55043595D01*
X146362831Y-55043594D01*
X146362830Y-55043593D01*
X146353086Y-55037331D01*
X146333728Y-55021731D01*
X146324245Y-55016899D01*
X146315512Y-55012449D01*
X146304775Y-55006284D01*
X146259416Y-54977133D01*
X146243470Y-54972451D01*
X146239303Y-54971228D01*
X146217949Y-54962738D01*
X146213126Y-54960280D01*
X146196896Y-54957710D01*
X146181360Y-54954214D01*
X146141466Y-54942500D01*
X146141465Y-54942500D01*
X146110619Y-54942500D01*
X146091220Y-54940973D01*
X146090052Y-54940788D01*
X146080000Y-54939195D01*
X146069947Y-54940788D01*
X146068779Y-54940973D01*
X146049381Y-54942500D01*
X146018535Y-54942500D01*
X146000791Y-54947710D01*
X145978639Y-54954214D01*
X145963109Y-54957709D01*
X145946872Y-54960281D01*
X145942048Y-54962739D01*
X145920700Y-54971226D01*
X145900585Y-54977133D01*
X145900014Y-54977500D01*
X145855223Y-55006284D01*
X145844487Y-55012449D01*
X145826277Y-55021727D01*
X145806917Y-55037328D01*
X145797169Y-55043592D01*
X145751455Y-55096348D01*
X145745430Y-55102820D01*
X145727926Y-55120325D01*
X145718323Y-55134586D01*
X145716667Y-55136497D01*
X145676644Y-55224133D01*
X145674342Y-55228901D01*
X145666050Y-55245178D01*
X145648104Y-55370000D01*
X145666050Y-55494821D01*
X145670280Y-55503125D01*
X145670281Y-55503126D01*
X145674326Y-55511067D01*
X145674335Y-55511083D01*
X145676626Y-55515828D01*
X145704345Y-55576522D01*
X145716667Y-55603504D01*
X145718317Y-55605408D01*
X145727920Y-55619668D01*
X145745419Y-55637167D01*
X145751450Y-55643645D01*
X145788500Y-55686402D01*
X145797168Y-55696405D01*
X145806913Y-55702667D01*
X145826271Y-55718268D01*
X145826778Y-55718526D01*
X145826780Y-55718528D01*
X145844494Y-55727553D01*
X145855221Y-55733713D01*
X145900584Y-55762866D01*
X145916336Y-55767491D01*
X145975111Y-55805262D01*
X146004138Y-55868818D01*
X145994195Y-55937976D01*
X145948441Y-55990781D01*
X145916341Y-56005442D01*
X145910587Y-56007131D01*
X145884006Y-56024214D01*
X145865223Y-56036284D01*
X145854487Y-56042449D01*
X145836277Y-56051727D01*
X145816917Y-56067328D01*
X145807169Y-56073592D01*
X145761455Y-56126348D01*
X145755430Y-56132820D01*
X145737926Y-56150325D01*
X145728323Y-56164586D01*
X145726667Y-56166497D01*
X145726666Y-56166498D01*
X145726666Y-56166499D01*
X145693891Y-56238265D01*
X145686644Y-56254133D01*
X145684342Y-56258901D01*
X145676050Y-56275178D01*
X145658104Y-56400000D01*
X145676050Y-56524821D01*
X145680280Y-56533125D01*
X145680281Y-56533126D01*
X145684326Y-56541067D01*
X145684335Y-56541083D01*
X145686626Y-56545828D01*
X145711366Y-56600000D01*
X145726667Y-56633504D01*
X145728317Y-56635408D01*
X145737920Y-56649668D01*
X145755419Y-56667167D01*
X145761450Y-56673645D01*
X145796111Y-56713645D01*
X145807168Y-56726405D01*
X145816913Y-56732667D01*
X145836271Y-56748268D01*
X145836778Y-56748526D01*
X145836780Y-56748528D01*
X145854494Y-56757553D01*
X145865221Y-56763713D01*
X145880906Y-56773793D01*
X145884409Y-56776044D01*
X145930164Y-56828848D01*
X145940107Y-56898007D01*
X145911082Y-56961562D01*
X145884410Y-56984674D01*
X145854411Y-57003954D01*
X145835221Y-57016285D01*
X145824487Y-57022449D01*
X145806277Y-57031727D01*
X145786917Y-57047328D01*
X145777169Y-57053592D01*
X145731455Y-57106348D01*
X145725430Y-57112820D01*
X145707926Y-57130325D01*
X145698323Y-57144586D01*
X145696667Y-57146497D01*
X145696666Y-57146498D01*
X145696666Y-57146499D01*
X145656647Y-57234126D01*
X145656644Y-57234133D01*
X145654342Y-57238901D01*
X145646050Y-57255178D01*
X145628104Y-57380000D01*
X143724179Y-57380000D01*
X144684379Y-56419800D01*
X144689073Y-56415347D01*
X144693572Y-56411296D01*
X144718163Y-56389156D01*
X144726583Y-56370242D01*
X144735856Y-56353162D01*
X144747134Y-56335798D01*
X144747458Y-56333747D01*
X144756653Y-56302705D01*
X144757500Y-56300805D01*
X144757500Y-56280094D01*
X144759024Y-56260723D01*
X144762263Y-56240276D01*
X144761723Y-56238263D01*
X144757500Y-56206175D01*
X144757500Y-49360000D01*
X149043105Y-49360000D01*
X149060573Y-49470285D01*
X149111266Y-49569777D01*
X149190222Y-49648733D01*
X149289713Y-49699425D01*
X149289714Y-49699426D01*
X149400000Y-49716894D01*
X149510286Y-49699426D01*
X149609777Y-49648733D01*
X149688733Y-49569777D01*
X149739426Y-49470286D01*
X149756894Y-49360000D01*
X149739426Y-49249714D01*
X149689265Y-49151267D01*
X149688733Y-49150222D01*
X149609777Y-49071266D01*
X149510285Y-49020573D01*
X149400000Y-49003105D01*
X149289714Y-49020573D01*
X149190222Y-49071266D01*
X149111266Y-49150222D01*
X149060573Y-49249714D01*
X149043105Y-49360000D01*
X144757500Y-49360000D01*
X144757500Y-48199999D01*
X145093105Y-48199999D01*
X145110573Y-48310285D01*
X145161266Y-48409777D01*
X145240222Y-48488733D01*
X145339713Y-48539425D01*
X145339714Y-48539426D01*
X145450000Y-48556894D01*
X145560286Y-48539426D01*
X145659777Y-48488733D01*
X145738733Y-48409777D01*
X145789426Y-48310286D01*
X145806894Y-48200000D01*
X145789426Y-48089714D01*
X145789425Y-48089713D01*
X145738733Y-47990222D01*
X145659777Y-47911266D01*
X145560285Y-47860573D01*
X145450000Y-47843105D01*
X145339714Y-47860573D01*
X145240222Y-47911266D01*
X145161266Y-47990222D01*
X145110573Y-48089714D01*
X145093105Y-48199999D01*
X144757500Y-48199999D01*
X144757500Y-45469186D01*
X144757670Y-45462697D01*
X144759718Y-45423616D01*
X144754002Y-45408725D01*
X144752303Y-45404298D01*
X144746776Y-45385641D01*
X144742474Y-45365400D01*
X144741250Y-45363715D01*
X144725804Y-45335265D01*
X144725060Y-45333327D01*
X144710422Y-45318689D01*
X144697792Y-45303901D01*
X144685628Y-45287158D01*
X144685627Y-45287157D01*
X144683822Y-45286115D01*
X144658146Y-45266412D01*
X144591734Y-45200000D01*
X146892506Y-45200000D01*
X146912461Y-45504452D01*
X146913251Y-45508423D01*
X146913252Y-45508431D01*
X146971191Y-45799710D01*
X146971193Y-45799717D01*
X146971984Y-45803694D01*
X146973284Y-45807525D01*
X146973288Y-45807538D01*
X147068751Y-46088760D01*
X147070057Y-46092607D01*
X147071850Y-46096243D01*
X147071853Y-46096250D01*
X147203205Y-46362607D01*
X147203211Y-46362618D01*
X147205001Y-46366247D01*
X147374508Y-46619932D01*
X147377183Y-46622982D01*
X147377189Y-46622990D01*
X147573004Y-46846273D01*
X147575678Y-46849322D01*
X147578726Y-46851995D01*
X147802009Y-47047810D01*
X147802015Y-47047814D01*
X147805068Y-47050492D01*
X148058753Y-47219999D01*
X148062386Y-47221790D01*
X148062392Y-47221794D01*
X148328749Y-47353146D01*
X148332393Y-47354943D01*
X148540541Y-47425600D01*
X148617461Y-47451711D01*
X148617463Y-47451711D01*
X148621306Y-47453016D01*
X148920548Y-47512539D01*
X149225000Y-47532494D01*
X149529452Y-47512539D01*
X149828694Y-47453016D01*
X150117607Y-47354943D01*
X150391247Y-47219999D01*
X150644932Y-47050492D01*
X150874322Y-46849322D01*
X151075492Y-46619932D01*
X151244999Y-46366247D01*
X151379943Y-46092607D01*
X151478016Y-45803694D01*
X151537539Y-45504452D01*
X151557494Y-45200000D01*
X151537539Y-44895548D01*
X151478016Y-44596306D01*
X151379943Y-44307393D01*
X151347165Y-44240925D01*
X151246794Y-44037392D01*
X151246790Y-44037386D01*
X151244999Y-44033753D01*
X151241643Y-44028731D01*
X151077751Y-43783449D01*
X151075492Y-43780068D01*
X151072814Y-43777015D01*
X151072810Y-43777009D01*
X150876995Y-43553726D01*
X150874322Y-43550678D01*
X150829873Y-43511697D01*
X150647990Y-43352189D01*
X150647982Y-43352183D01*
X150644932Y-43349508D01*
X150550670Y-43286524D01*
X150394621Y-43182255D01*
X150394616Y-43182252D01*
X150391247Y-43180001D01*
X150387618Y-43178211D01*
X150387607Y-43178205D01*
X150121250Y-43046853D01*
X150121243Y-43046850D01*
X150117607Y-43045057D01*
X150113760Y-43043751D01*
X149832538Y-42948288D01*
X149832525Y-42948284D01*
X149828694Y-42946984D01*
X149824717Y-42946193D01*
X149824710Y-42946191D01*
X149533431Y-42888252D01*
X149533423Y-42888251D01*
X149529452Y-42887461D01*
X149225000Y-42867506D01*
X149220957Y-42867771D01*
X148924590Y-42887196D01*
X148924588Y-42887196D01*
X148920548Y-42887461D01*
X148916577Y-42888250D01*
X148916568Y-42888252D01*
X148625289Y-42946191D01*
X148625278Y-42946193D01*
X148621306Y-42946984D01*
X148617477Y-42948283D01*
X148617461Y-42948288D01*
X148336239Y-43043751D01*
X148336232Y-43043753D01*
X148332393Y-43045057D01*
X148328761Y-43046847D01*
X148328749Y-43046853D01*
X148062392Y-43178205D01*
X148062374Y-43178214D01*
X148058753Y-43180001D01*
X148055390Y-43182247D01*
X148055378Y-43182255D01*
X147808449Y-43347248D01*
X147808440Y-43347254D01*
X147805068Y-43349508D01*
X147802024Y-43352177D01*
X147802009Y-43352189D01*
X147578726Y-43548004D01*
X147578718Y-43548011D01*
X147575678Y-43550678D01*
X147573011Y-43553718D01*
X147573004Y-43553726D01*
X147377189Y-43777009D01*
X147377177Y-43777024D01*
X147374508Y-43780068D01*
X147372254Y-43783440D01*
X147372248Y-43783449D01*
X147207255Y-44030378D01*
X147207247Y-44030390D01*
X147205001Y-44033753D01*
X147203214Y-44037374D01*
X147203205Y-44037392D01*
X147071853Y-44303749D01*
X147071847Y-44303761D01*
X147070057Y-44307393D01*
X147068753Y-44311232D01*
X147068751Y-44311239D01*
X146973288Y-44592461D01*
X146973283Y-44592477D01*
X146971984Y-44596306D01*
X146971193Y-44600278D01*
X146971191Y-44600289D01*
X146913252Y-44891568D01*
X146913250Y-44891577D01*
X146912461Y-44895548D01*
X146912196Y-44899588D01*
X146912196Y-44899590D01*
X146903672Y-45029646D01*
X146892506Y-45200000D01*
X144591734Y-45200000D01*
X143637368Y-44245634D01*
X143632899Y-44240925D01*
X143606708Y-44211837D01*
X143587796Y-44203416D01*
X143570703Y-44194134D01*
X143553351Y-44182866D01*
X143551299Y-44182541D01*
X143520263Y-44173348D01*
X143518358Y-44172500D01*
X143518357Y-44172500D01*
X143497657Y-44172500D01*
X143478260Y-44170973D01*
X143457828Y-44167737D01*
X143455819Y-44168275D01*
X143423728Y-44172500D01*
X142759201Y-44172500D01*
X142752710Y-44172330D01*
X142713616Y-44170280D01*
X142694290Y-44177699D01*
X142675637Y-44183224D01*
X142655399Y-44187525D01*
X142653712Y-44188752D01*
X142625278Y-44204190D01*
X142623328Y-44204938D01*
X142608692Y-44219574D01*
X142593903Y-44232205D01*
X142577157Y-44244372D01*
X142576114Y-44246180D01*
X142556414Y-44271850D01*
X142160265Y-44667999D01*
X142098942Y-44701484D01*
X142091983Y-44702791D01*
X141979713Y-44720573D01*
X141880222Y-44771266D01*
X141801266Y-44850222D01*
X141750573Y-44949714D01*
X141733105Y-45059999D01*
X141750573Y-45170285D01*
X141801266Y-45269777D01*
X141880222Y-45348733D01*
X141967497Y-45393201D01*
X141979714Y-45399426D01*
X142090000Y-45416894D01*
X142200286Y-45399426D01*
X142299777Y-45348733D01*
X142378733Y-45269777D01*
X142429426Y-45170286D01*
X142446894Y-45060000D01*
X142446893Y-45059998D01*
X142447208Y-45058015D01*
X142477137Y-44994880D01*
X142481979Y-44989752D01*
X142689848Y-44781884D01*
X142751169Y-44748401D01*
X142820861Y-44753385D01*
X142876794Y-44795257D01*
X142901211Y-44860721D01*
X142888013Y-44925860D01*
X142860573Y-44979714D01*
X142843105Y-45090000D01*
X142860573Y-45200285D01*
X142911266Y-45299777D01*
X142990222Y-45378733D01*
X143089713Y-45429426D01*
X143134107Y-45436457D01*
X143200000Y-45446894D01*
X143200000Y-45446893D01*
X143201984Y-45447208D01*
X143265119Y-45477137D01*
X143270267Y-45482000D01*
X143906182Y-46117915D01*
X143939666Y-46179236D01*
X143942500Y-46205594D01*
X143942500Y-48201828D01*
X143922815Y-48268867D01*
X143870011Y-48314622D01*
X143800853Y-48324566D01*
X143762206Y-48312313D01*
X143680286Y-48270573D01*
X143570000Y-48253105D01*
X143459714Y-48270573D01*
X143360222Y-48321266D01*
X143281266Y-48400222D01*
X143230573Y-48499714D01*
X143213105Y-48610000D01*
X143230573Y-48720285D01*
X143281266Y-48819777D01*
X143360222Y-48898733D01*
X143440088Y-48939426D01*
X143459714Y-48949426D01*
X143570000Y-48966894D01*
X143680286Y-48949426D01*
X143762206Y-48907685D01*
X143830874Y-48894790D01*
X143895615Y-48921066D01*
X143935872Y-48978173D01*
X143942500Y-49018171D01*
X143942500Y-56004403D01*
X143922815Y-56071442D01*
X143906181Y-56092084D01*
X139776980Y-60221284D01*
X139715657Y-60254769D01*
X139645965Y-60249785D01*
X139590032Y-60207913D01*
X139578814Y-60189897D01*
X139541733Y-60117121D01*
X139462777Y-60038165D01*
X139363285Y-59987472D01*
X139253000Y-59970004D01*
X139142714Y-59987472D01*
X139043222Y-60038165D01*
X138964267Y-60117120D01*
X138963961Y-60117722D01*
X138915986Y-60168518D01*
X138848165Y-60185313D01*
X138782030Y-60162775D01*
X138742991Y-60117721D01*
X138691733Y-60017121D01*
X138612777Y-59938165D01*
X138513285Y-59887472D01*
X138403000Y-59870004D01*
X138292714Y-59887472D01*
X138193222Y-59938165D01*
X138114266Y-60017121D01*
X138063573Y-60116613D01*
X138046105Y-60226899D01*
X138063573Y-60337184D01*
X138114266Y-60436676D01*
X138193222Y-60515632D01*
X138262252Y-60550804D01*
X138292714Y-60566325D01*
X138403000Y-60583793D01*
X138513286Y-60566325D01*
X138612777Y-60515632D01*
X138691733Y-60436676D01*
X138692036Y-60436080D01*
X138740006Y-60385283D01*
X138807826Y-60368483D01*
X138873962Y-60391017D01*
X138913008Y-60436075D01*
X138964267Y-60536677D01*
X139043222Y-60615632D01*
X139115998Y-60652713D01*
X139166795Y-60700687D01*
X139183590Y-60768508D01*
X139161053Y-60834643D01*
X139147385Y-60850879D01*
X137740085Y-62258181D01*
X137678762Y-62291666D01*
X137652404Y-62294500D01*
X135036522Y-62294500D01*
X134969483Y-62274815D01*
X134923728Y-62222011D01*
X134913784Y-62152853D01*
X134914049Y-62151102D01*
X134926894Y-62070000D01*
X134909426Y-61959714D01*
X134858733Y-61860222D01*
X134779777Y-61781266D01*
X134680285Y-61730573D01*
X134569999Y-61713105D01*
X134483225Y-61726849D01*
X134413931Y-61717894D01*
X134360479Y-61672898D01*
X134339840Y-61606146D01*
X134340280Y-61600000D01*
X135733105Y-61600000D01*
X135750573Y-61710285D01*
X135801266Y-61809777D01*
X135880222Y-61888733D01*
X135949776Y-61924172D01*
X135979714Y-61939426D01*
X136090000Y-61956894D01*
X136200286Y-61939426D01*
X136299777Y-61888733D01*
X136378733Y-61809777D01*
X136393240Y-61781304D01*
X136441212Y-61730509D01*
X136509032Y-61713712D01*
X136575168Y-61736248D01*
X136591406Y-61749917D01*
X136650222Y-61808733D01*
X136749714Y-61859426D01*
X136859999Y-61876894D01*
X136859999Y-61876893D01*
X136860000Y-61876894D01*
X136970286Y-61859426D01*
X137069777Y-61808733D01*
X137148733Y-61729777D01*
X137199426Y-61630286D01*
X137216894Y-61520000D01*
X137199426Y-61409714D01*
X137189494Y-61390222D01*
X137148733Y-61310222D01*
X137069777Y-61231266D01*
X136970285Y-61180573D01*
X136860000Y-61163105D01*
X136749714Y-61180573D01*
X136650222Y-61231266D01*
X136571267Y-61310221D01*
X136556759Y-61338696D01*
X136508784Y-61389492D01*
X136440963Y-61406287D01*
X136374828Y-61383750D01*
X136358593Y-61370082D01*
X136299777Y-61311266D01*
X136200285Y-61260573D01*
X136090000Y-61243105D01*
X135979714Y-61260573D01*
X135880222Y-61311266D01*
X135801266Y-61390222D01*
X135750573Y-61489714D01*
X135733105Y-61600000D01*
X134340280Y-61600000D01*
X134341354Y-61584977D01*
X134343172Y-61573499D01*
X134346894Y-61550000D01*
X134331983Y-61455861D01*
X134329426Y-61439714D01*
X134278733Y-61340222D01*
X134199777Y-61261266D01*
X134100285Y-61210573D01*
X133990000Y-61193105D01*
X133879714Y-61210573D01*
X133780222Y-61261266D01*
X133701266Y-61340222D01*
X133650573Y-61439714D01*
X133633105Y-61550000D01*
X133651092Y-61663560D01*
X133642138Y-61732853D01*
X133597142Y-61786305D01*
X133530390Y-61806945D01*
X133528619Y-61806958D01*
X132986830Y-61806958D01*
X132919791Y-61787273D01*
X132899148Y-61770638D01*
X132874235Y-61745724D01*
X132774743Y-61695031D01*
X132664457Y-61677563D01*
X132554171Y-61695031D01*
X132513116Y-61715950D01*
X132444446Y-61728846D01*
X132379706Y-61702569D01*
X132339450Y-61645462D01*
X132334349Y-61586066D01*
X132336894Y-61570000D01*
X132336573Y-61567976D01*
X132319426Y-61459714D01*
X132268733Y-61360222D01*
X132189777Y-61281266D01*
X132090285Y-61230573D01*
X131979999Y-61213105D01*
X131869714Y-61230573D01*
X131770222Y-61281266D01*
X131691266Y-61360222D01*
X131640573Y-61459714D01*
X131623105Y-61570000D01*
X128962624Y-61570000D01*
X128965650Y-61564062D01*
X128983118Y-61453776D01*
X128969862Y-61370082D01*
X128965650Y-61343488D01*
X128952413Y-61317508D01*
X128939517Y-61248839D01*
X128965794Y-61184099D01*
X129006601Y-61150732D01*
X129049777Y-61128733D01*
X129128733Y-61049777D01*
X129179426Y-60950286D01*
X129196894Y-60840000D01*
X129196893Y-60839999D01*
X129199685Y-60822377D01*
X129229614Y-60759242D01*
X129288926Y-60722311D01*
X129341557Y-60719302D01*
X129440000Y-60734894D01*
X129550286Y-60717426D01*
X129649777Y-60666733D01*
X129728733Y-60587777D01*
X129779426Y-60488286D01*
X129791824Y-60410008D01*
X129821753Y-60346874D01*
X129881064Y-60309942D01*
X129950927Y-60310940D01*
X129970591Y-60318920D01*
X130069714Y-60369426D01*
X130180000Y-60386894D01*
X130290286Y-60369426D01*
X130389777Y-60318733D01*
X130468733Y-60239777D01*
X130519426Y-60140286D01*
X130536894Y-60030000D01*
X130531876Y-59998321D01*
X130519426Y-59919714D01*
X130468733Y-59820222D01*
X130389777Y-59741266D01*
X130290285Y-59690573D01*
X130179999Y-59673105D01*
X130069714Y-59690573D01*
X129970222Y-59741266D01*
X129891266Y-59820222D01*
X129840573Y-59919713D01*
X129828175Y-59997992D01*
X129798245Y-60061126D01*
X129738933Y-60098057D01*
X129669071Y-60097059D01*
X129649408Y-60089078D01*
X129550286Y-60038573D01*
X129440000Y-60021105D01*
X129329714Y-60038573D01*
X129230222Y-60089266D01*
X129151266Y-60168222D01*
X129100573Y-60267713D01*
X129080314Y-60395623D01*
X129050384Y-60458757D01*
X128991073Y-60495688D01*
X128938443Y-60498697D01*
X128840000Y-60483105D01*
X128729714Y-60500573D01*
X128630222Y-60551266D01*
X128551266Y-60630222D01*
X128500573Y-60729714D01*
X128483105Y-60839999D01*
X128500573Y-60950286D01*
X128513810Y-60976265D01*
X128526706Y-61044935D01*
X128500429Y-61109675D01*
X128459621Y-61143043D01*
X128416446Y-61165042D01*
X128337490Y-61243998D01*
X128286797Y-61343490D01*
X128269329Y-61453775D01*
X110000235Y-61453775D01*
X110018976Y-61396097D01*
X110037158Y-61223102D01*
X110018976Y-61050107D01*
X109965223Y-60884674D01*
X109913544Y-60795164D01*
X109878249Y-60734030D01*
X109761854Y-60604760D01*
X109621132Y-60502520D01*
X109520114Y-60457544D01*
X109462220Y-60431768D01*
X109462219Y-60431767D01*
X109462215Y-60431766D01*
X109292076Y-60395602D01*
X109292074Y-60395602D01*
X109118126Y-60395602D01*
X109118124Y-60395602D01*
X108947984Y-60431766D01*
X108789067Y-60502520D01*
X108648345Y-60604760D01*
X108531950Y-60734030D01*
X108448140Y-60879195D01*
X108444977Y-60884674D01*
X108391224Y-61050107D01*
X108373042Y-61223102D01*
X105525500Y-61223102D01*
X105525500Y-59790000D01*
X126743105Y-59790000D01*
X126760573Y-59900285D01*
X126811266Y-59999777D01*
X126890222Y-60078733D01*
X126971214Y-60120000D01*
X126989714Y-60129426D01*
X127100000Y-60146894D01*
X127210286Y-60129426D01*
X127309777Y-60078733D01*
X127388733Y-59999777D01*
X127439426Y-59900286D01*
X127456894Y-59790000D01*
X127454295Y-59773594D01*
X127439426Y-59679714D01*
X127388733Y-59580222D01*
X127309777Y-59501266D01*
X127210285Y-59450573D01*
X127100000Y-59433105D01*
X126989714Y-59450573D01*
X126890222Y-59501266D01*
X126811266Y-59580222D01*
X126760573Y-59679714D01*
X126743105Y-59790000D01*
X105525500Y-59790000D01*
X105525500Y-58039999D01*
X125133105Y-58039999D01*
X125150573Y-58150285D01*
X125201266Y-58249777D01*
X125280222Y-58328733D01*
X125379714Y-58379426D01*
X125489999Y-58396894D01*
X125489999Y-58396893D01*
X125490000Y-58396894D01*
X125600286Y-58379426D01*
X125699777Y-58328733D01*
X125778733Y-58249777D01*
X125829426Y-58150286D01*
X125846894Y-58040000D01*
X125829426Y-57929714D01*
X125814431Y-57900285D01*
X125778733Y-57830222D01*
X125738511Y-57790000D01*
X131123105Y-57790000D01*
X131140573Y-57900285D01*
X131191266Y-57999777D01*
X131270222Y-58078733D01*
X131351852Y-58120325D01*
X131369714Y-58129426D01*
X131480000Y-58146894D01*
X131590286Y-58129426D01*
X131689777Y-58078733D01*
X131768733Y-57999777D01*
X131819426Y-57900286D01*
X131836894Y-57790000D01*
X131819426Y-57679714D01*
X131807947Y-57657185D01*
X131768733Y-57580222D01*
X131735410Y-57546899D01*
X139566105Y-57546899D01*
X139583573Y-57657184D01*
X139634266Y-57756676D01*
X139713222Y-57835632D01*
X139812713Y-57886324D01*
X139812714Y-57886325D01*
X139923000Y-57903793D01*
X140033286Y-57886325D01*
X140132777Y-57835632D01*
X140211733Y-57756676D01*
X140262426Y-57657185D01*
X140279894Y-57546899D01*
X140262426Y-57436613D01*
X140248693Y-57409660D01*
X140211733Y-57337121D01*
X140132777Y-57258165D01*
X140033285Y-57207472D01*
X139923000Y-57190004D01*
X139812714Y-57207472D01*
X139713222Y-57258165D01*
X139634266Y-57337121D01*
X139583573Y-57436613D01*
X139566105Y-57546899D01*
X131735410Y-57546899D01*
X131689777Y-57501266D01*
X131590285Y-57450573D01*
X131480000Y-57433105D01*
X131369714Y-57450573D01*
X131270222Y-57501266D01*
X131191266Y-57580222D01*
X131140573Y-57679714D01*
X131123105Y-57790000D01*
X125738511Y-57790000D01*
X125699777Y-57751266D01*
X125600285Y-57700573D01*
X125490000Y-57683105D01*
X125379714Y-57700573D01*
X125280222Y-57751266D01*
X125201266Y-57830222D01*
X125150573Y-57929714D01*
X125133105Y-58039999D01*
X105525500Y-58039999D01*
X105525500Y-56440000D01*
X121878104Y-56440000D01*
X121896050Y-56564821D01*
X121900280Y-56573125D01*
X121900281Y-56573126D01*
X121904326Y-56581067D01*
X121904335Y-56581083D01*
X121906626Y-56585828D01*
X121928400Y-56633504D01*
X121946667Y-56673504D01*
X121948317Y-56675408D01*
X121957920Y-56689668D01*
X121975419Y-56707167D01*
X121981450Y-56713645D01*
X122019864Y-56757976D01*
X122027168Y-56766405D01*
X122036913Y-56772667D01*
X122056271Y-56788268D01*
X122056778Y-56788526D01*
X122056780Y-56788528D01*
X122074494Y-56797553D01*
X122085221Y-56803713D01*
X122130584Y-56832866D01*
X122150694Y-56838770D01*
X122172055Y-56847263D01*
X122176874Y-56849719D01*
X122189579Y-56851731D01*
X122193097Y-56852288D01*
X122208638Y-56855784D01*
X122248535Y-56867500D01*
X122279381Y-56867500D01*
X122298779Y-56869026D01*
X122310000Y-56870804D01*
X122321220Y-56869026D01*
X122340619Y-56867500D01*
X122371464Y-56867500D01*
X122371465Y-56867500D01*
X122411361Y-56855784D01*
X122426897Y-56852289D01*
X122432056Y-56851472D01*
X122443126Y-56849719D01*
X122447944Y-56847263D01*
X122469299Y-56838772D01*
X122489416Y-56832866D01*
X122534780Y-56803711D01*
X122545497Y-56797557D01*
X122563220Y-56788528D01*
X122563223Y-56788524D01*
X122563731Y-56788266D01*
X122583089Y-56772665D01*
X122592832Y-56766405D01*
X122638548Y-56713645D01*
X122644561Y-56707186D01*
X122658528Y-56693220D01*
X122658529Y-56693217D01*
X122662087Y-56689660D01*
X122671695Y-56675392D01*
X122673334Y-56673501D01*
X122713363Y-56585848D01*
X122715658Y-56581094D01*
X122719719Y-56573126D01*
X122719719Y-56573123D01*
X122723948Y-56564824D01*
X122724399Y-56561681D01*
X122724401Y-56561679D01*
X122741896Y-56440000D01*
X122724401Y-56318321D01*
X122724400Y-56318319D01*
X122723948Y-56315174D01*
X122715660Y-56298907D01*
X122713367Y-56294160D01*
X122706900Y-56280000D01*
X129228104Y-56280000D01*
X129246050Y-56404821D01*
X129250280Y-56413125D01*
X129250281Y-56413126D01*
X129254326Y-56421067D01*
X129254335Y-56421083D01*
X129256626Y-56425828D01*
X129279164Y-56475178D01*
X129296667Y-56513504D01*
X129298317Y-56515408D01*
X129307920Y-56529668D01*
X129325419Y-56547167D01*
X129331450Y-56553645D01*
X129371616Y-56599998D01*
X129377168Y-56606405D01*
X129386913Y-56612667D01*
X129406271Y-56628268D01*
X129406778Y-56628526D01*
X129406780Y-56628528D01*
X129424494Y-56637553D01*
X129435221Y-56643713D01*
X129480584Y-56672866D01*
X129500694Y-56678770D01*
X129522056Y-56687264D01*
X129526874Y-56689719D01*
X129543097Y-56692288D01*
X129558638Y-56695784D01*
X129598535Y-56707500D01*
X129629381Y-56707500D01*
X129648779Y-56709026D01*
X129660000Y-56710804D01*
X129671220Y-56709026D01*
X129690619Y-56707500D01*
X129721464Y-56707500D01*
X129721465Y-56707500D01*
X129761361Y-56695784D01*
X129776897Y-56692289D01*
X129781416Y-56691573D01*
X129793126Y-56689719D01*
X129797944Y-56687263D01*
X129819299Y-56678772D01*
X129839416Y-56672866D01*
X129884780Y-56643711D01*
X129895497Y-56637557D01*
X129913220Y-56628528D01*
X129913223Y-56628524D01*
X129913731Y-56628266D01*
X129933089Y-56612665D01*
X129942832Y-56606405D01*
X129988548Y-56553645D01*
X129994561Y-56547186D01*
X130008528Y-56533220D01*
X130008529Y-56533217D01*
X130012087Y-56529660D01*
X130021695Y-56515392D01*
X130023334Y-56513501D01*
X130063363Y-56425848D01*
X130065658Y-56421094D01*
X130067796Y-56416899D01*
X133116105Y-56416899D01*
X133133573Y-56527184D01*
X133184266Y-56626676D01*
X133263222Y-56705632D01*
X133343357Y-56746462D01*
X133362714Y-56756325D01*
X133473000Y-56773793D01*
X133583286Y-56756325D01*
X133682777Y-56705632D01*
X133761733Y-56626676D01*
X133812426Y-56527185D01*
X133829894Y-56416899D01*
X133829296Y-56413126D01*
X133812426Y-56306613D01*
X133761733Y-56207121D01*
X133682777Y-56128165D01*
X133583285Y-56077472D01*
X133473000Y-56060004D01*
X133362714Y-56077472D01*
X133263222Y-56128165D01*
X133184266Y-56207121D01*
X133133573Y-56306613D01*
X133116105Y-56416899D01*
X130067796Y-56416899D01*
X130069719Y-56413126D01*
X130069719Y-56413123D01*
X130073948Y-56404824D01*
X130074399Y-56401681D01*
X130074401Y-56401679D01*
X130091896Y-56280000D01*
X130074401Y-56158321D01*
X130074400Y-56158319D01*
X130073948Y-56155174D01*
X130065660Y-56138907D01*
X130063367Y-56134160D01*
X130023334Y-56046499D01*
X130021687Y-56044598D01*
X130012083Y-56030335D01*
X130005962Y-56024214D01*
X129994566Y-56012818D01*
X129988547Y-56006353D01*
X129975054Y-55990781D01*
X129942832Y-55953595D01*
X129942831Y-55953594D01*
X129942830Y-55953593D01*
X129933086Y-55947331D01*
X129912446Y-55930698D01*
X129899333Y-55917585D01*
X129900739Y-55916178D01*
X129870485Y-55887605D01*
X129853690Y-55819783D01*
X129876228Y-55753649D01*
X129921282Y-55714609D01*
X129933220Y-55708528D01*
X129933222Y-55708525D01*
X129933730Y-55708267D01*
X129935427Y-55706899D01*
X139356105Y-55706899D01*
X139373573Y-55817184D01*
X139424266Y-55916676D01*
X139503222Y-55995632D01*
X139576048Y-56032738D01*
X139602714Y-56046325D01*
X139713000Y-56063793D01*
X139823286Y-56046325D01*
X139922777Y-55995632D01*
X140001733Y-55916676D01*
X140052426Y-55817185D01*
X140069894Y-55706899D01*
X140068231Y-55696402D01*
X140052426Y-55596613D01*
X140001733Y-55497121D01*
X139922777Y-55418165D01*
X139823285Y-55367472D01*
X139713000Y-55350004D01*
X139602714Y-55367472D01*
X139503222Y-55418165D01*
X139424266Y-55497121D01*
X139373573Y-55596613D01*
X139356105Y-55706899D01*
X129935427Y-55706899D01*
X129953089Y-55692665D01*
X129962832Y-55686405D01*
X130008548Y-55633645D01*
X130014561Y-55627186D01*
X130028528Y-55613220D01*
X130028529Y-55613217D01*
X130032087Y-55609660D01*
X130041695Y-55595392D01*
X130043334Y-55593501D01*
X130083363Y-55505848D01*
X130085658Y-55501094D01*
X130089719Y-55493126D01*
X130089719Y-55493123D01*
X130093948Y-55484824D01*
X130094399Y-55481681D01*
X130094401Y-55481679D01*
X130111896Y-55360000D01*
X130094401Y-55238321D01*
X130094400Y-55238319D01*
X130093948Y-55235174D01*
X130085660Y-55218907D01*
X130083367Y-55214160D01*
X130043334Y-55126499D01*
X130041687Y-55124598D01*
X130032083Y-55110335D01*
X130024568Y-55102820D01*
X130014566Y-55092818D01*
X130008547Y-55086353D01*
X129966069Y-55037331D01*
X129962832Y-55033595D01*
X129962831Y-55033594D01*
X129962830Y-55033593D01*
X129953086Y-55027331D01*
X129940141Y-55016899D01*
X135756105Y-55016899D01*
X135773573Y-55127184D01*
X135824266Y-55226676D01*
X135903222Y-55305632D01*
X135990308Y-55350004D01*
X136002714Y-55356325D01*
X136113000Y-55373793D01*
X136223286Y-55356325D01*
X136322777Y-55305632D01*
X136401733Y-55226676D01*
X136452426Y-55127185D01*
X136458807Y-55086898D01*
X137966105Y-55086898D01*
X137983573Y-55197184D01*
X138034266Y-55296676D01*
X138113222Y-55375632D01*
X138196699Y-55418165D01*
X138212714Y-55426325D01*
X138323000Y-55443793D01*
X138433286Y-55426325D01*
X138532777Y-55375632D01*
X138611733Y-55296676D01*
X138662426Y-55197185D01*
X138679894Y-55086899D01*
X138662426Y-54976613D01*
X138656909Y-54965785D01*
X138611733Y-54877121D01*
X138532777Y-54798165D01*
X138433285Y-54747472D01*
X138323000Y-54730004D01*
X138212714Y-54747472D01*
X138113222Y-54798165D01*
X138034266Y-54877121D01*
X137983573Y-54976613D01*
X137966105Y-55086898D01*
X136458807Y-55086898D01*
X136469894Y-55016899D01*
X136452426Y-54906613D01*
X136443897Y-54889873D01*
X136401733Y-54807121D01*
X136322777Y-54728165D01*
X136223285Y-54677472D01*
X136113000Y-54660004D01*
X136002714Y-54677472D01*
X135903222Y-54728165D01*
X135824266Y-54807121D01*
X135773573Y-54906613D01*
X135756105Y-55016899D01*
X129940141Y-55016899D01*
X129933728Y-55011731D01*
X129933220Y-55011472D01*
X129915512Y-55002449D01*
X129904775Y-54996284D01*
X129859416Y-54967133D01*
X129842913Y-54962288D01*
X129839303Y-54961228D01*
X129817949Y-54952738D01*
X129813126Y-54950280D01*
X129796896Y-54947710D01*
X129781360Y-54944214D01*
X129741466Y-54932500D01*
X129741465Y-54932500D01*
X129710619Y-54932500D01*
X129691220Y-54930973D01*
X129690052Y-54930788D01*
X129680000Y-54929195D01*
X129669947Y-54930788D01*
X129668779Y-54930973D01*
X129649381Y-54932500D01*
X129618535Y-54932500D01*
X129599653Y-54938044D01*
X129578639Y-54944214D01*
X129563109Y-54947709D01*
X129546872Y-54950281D01*
X129542048Y-54952739D01*
X129520700Y-54961226D01*
X129500585Y-54967133D01*
X129479312Y-54980804D01*
X129455223Y-54996284D01*
X129444487Y-55002449D01*
X129426277Y-55011727D01*
X129406917Y-55027328D01*
X129397169Y-55033592D01*
X129351455Y-55086348D01*
X129345430Y-55092820D01*
X129327926Y-55110325D01*
X129318323Y-55124586D01*
X129316667Y-55126497D01*
X129316666Y-55126498D01*
X129316666Y-55126499D01*
X129284384Y-55197185D01*
X129276644Y-55214133D01*
X129274342Y-55218901D01*
X129266050Y-55235178D01*
X129248104Y-55360000D01*
X129266050Y-55484821D01*
X129270280Y-55493125D01*
X129270281Y-55493126D01*
X129274326Y-55501067D01*
X129274335Y-55501083D01*
X129276626Y-55505828D01*
X129304345Y-55566522D01*
X129316667Y-55593504D01*
X129318317Y-55595408D01*
X129327920Y-55609668D01*
X129345419Y-55627167D01*
X129351450Y-55633645D01*
X129397165Y-55686402D01*
X129397168Y-55686405D01*
X129406913Y-55692667D01*
X129427553Y-55709301D01*
X129440668Y-55722416D01*
X129439261Y-55723822D01*
X129469511Y-55752390D01*
X129486308Y-55820211D01*
X129463773Y-55886346D01*
X129418722Y-55925386D01*
X129406278Y-55931727D01*
X129386917Y-55947328D01*
X129377169Y-55953592D01*
X129331455Y-56006348D01*
X129325430Y-56012820D01*
X129307926Y-56030325D01*
X129298323Y-56044586D01*
X129296667Y-56046497D01*
X129296666Y-56046498D01*
X129296666Y-56046499D01*
X129259369Y-56128166D01*
X129256644Y-56134133D01*
X129254342Y-56138901D01*
X129246050Y-56155178D01*
X129228104Y-56280000D01*
X122706900Y-56280000D01*
X122673334Y-56206499D01*
X122671687Y-56204598D01*
X122662083Y-56190335D01*
X122655962Y-56184214D01*
X122644566Y-56172818D01*
X122638547Y-56166353D01*
X122609502Y-56132833D01*
X122592832Y-56113595D01*
X122592831Y-56113594D01*
X122592830Y-56113593D01*
X122583086Y-56107331D01*
X122563728Y-56091731D01*
X122563220Y-56091472D01*
X122545512Y-56082449D01*
X122534775Y-56076284D01*
X122489416Y-56047133D01*
X122473462Y-56042449D01*
X122469303Y-56041228D01*
X122447949Y-56032738D01*
X122443126Y-56030280D01*
X122426896Y-56027710D01*
X122411360Y-56024214D01*
X122371466Y-56012500D01*
X122371465Y-56012500D01*
X122340619Y-56012500D01*
X122321220Y-56010973D01*
X122320052Y-56010788D01*
X122310000Y-56009195D01*
X122299947Y-56010788D01*
X122298779Y-56010973D01*
X122279381Y-56012500D01*
X122248535Y-56012500D01*
X122229653Y-56018044D01*
X122208639Y-56024214D01*
X122193109Y-56027709D01*
X122176872Y-56030281D01*
X122172048Y-56032739D01*
X122150700Y-56041226D01*
X122130585Y-56047133D01*
X122117152Y-56055766D01*
X122085223Y-56076284D01*
X122074487Y-56082449D01*
X122056277Y-56091727D01*
X122036917Y-56107328D01*
X122027169Y-56113592D01*
X121981455Y-56166348D01*
X121975430Y-56172820D01*
X121957926Y-56190325D01*
X121948323Y-56204586D01*
X121946667Y-56206497D01*
X121946666Y-56206498D01*
X121946666Y-56206499D01*
X121916024Y-56273595D01*
X121906644Y-56294133D01*
X121904342Y-56298901D01*
X121896050Y-56315178D01*
X121878104Y-56440000D01*
X105525500Y-56440000D01*
X105525500Y-54985660D01*
X117327600Y-54985660D01*
X117334997Y-55022849D01*
X117363177Y-55065024D01*
X117395091Y-55086348D01*
X117405352Y-55093204D01*
X117442542Y-55100602D01*
X120967658Y-55100602D01*
X121004848Y-55093204D01*
X121047022Y-55065024D01*
X121075202Y-55022850D01*
X121082600Y-54985660D01*
X121082600Y-54550000D01*
X130608104Y-54550000D01*
X130626050Y-54674821D01*
X130630280Y-54683125D01*
X130630281Y-54683126D01*
X130634326Y-54691067D01*
X130634335Y-54691083D01*
X130636626Y-54695828D01*
X130652235Y-54730005D01*
X130676667Y-54783504D01*
X130678317Y-54785408D01*
X130687920Y-54799668D01*
X130705419Y-54817167D01*
X130711450Y-54823645D01*
X130757165Y-54876402D01*
X130757168Y-54876405D01*
X130766913Y-54882667D01*
X130786271Y-54898268D01*
X130786778Y-54898526D01*
X130786780Y-54898528D01*
X130804494Y-54907553D01*
X130815221Y-54913713D01*
X130860584Y-54942866D01*
X130880694Y-54948770D01*
X130902055Y-54957263D01*
X130906874Y-54959719D01*
X130916409Y-54961229D01*
X130923097Y-54962288D01*
X130938638Y-54965784D01*
X130978535Y-54977500D01*
X131009381Y-54977500D01*
X131028779Y-54979026D01*
X131040000Y-54980804D01*
X131051220Y-54979026D01*
X131070619Y-54977500D01*
X131101464Y-54977500D01*
X131101465Y-54977500D01*
X131141361Y-54965784D01*
X131156897Y-54962289D01*
X131163609Y-54961226D01*
X131173126Y-54959719D01*
X131177944Y-54957263D01*
X131199299Y-54948772D01*
X131219416Y-54942866D01*
X131264780Y-54913711D01*
X131275497Y-54907557D01*
X131293220Y-54898528D01*
X131293223Y-54898524D01*
X131293731Y-54898266D01*
X131313089Y-54882665D01*
X131322832Y-54876405D01*
X131368548Y-54823645D01*
X131374561Y-54817186D01*
X131388528Y-54803220D01*
X131388529Y-54803217D01*
X131392087Y-54799660D01*
X131401695Y-54785392D01*
X131403334Y-54783501D01*
X131443363Y-54695848D01*
X131445658Y-54691094D01*
X131449719Y-54683126D01*
X131449719Y-54683123D01*
X131453948Y-54674824D01*
X131454399Y-54671681D01*
X131454401Y-54671679D01*
X131471896Y-54550000D01*
X131454401Y-54428321D01*
X131454400Y-54428319D01*
X131453948Y-54425174D01*
X131445660Y-54408907D01*
X131443367Y-54404160D01*
X131403334Y-54316499D01*
X131401687Y-54314598D01*
X131392083Y-54300335D01*
X131388528Y-54296780D01*
X131374566Y-54282818D01*
X131368547Y-54276353D01*
X131322830Y-54223593D01*
X131313086Y-54217331D01*
X131293728Y-54201731D01*
X131293220Y-54201472D01*
X131275512Y-54192449D01*
X131264775Y-54186284D01*
X131219416Y-54157133D01*
X131203470Y-54152451D01*
X131199303Y-54151228D01*
X131177949Y-54142738D01*
X131173126Y-54140280D01*
X131156896Y-54137710D01*
X131141360Y-54134214D01*
X131101466Y-54122500D01*
X131101465Y-54122500D01*
X131070619Y-54122500D01*
X131051220Y-54120973D01*
X131050052Y-54120788D01*
X131040000Y-54119195D01*
X131029947Y-54120788D01*
X131028779Y-54120973D01*
X131009381Y-54122500D01*
X130978535Y-54122500D01*
X130959653Y-54128044D01*
X130938639Y-54134214D01*
X130923109Y-54137709D01*
X130906872Y-54140281D01*
X130902048Y-54142739D01*
X130880700Y-54151226D01*
X130860585Y-54157133D01*
X130836238Y-54172779D01*
X130815223Y-54186284D01*
X130804487Y-54192449D01*
X130786277Y-54201727D01*
X130766917Y-54217328D01*
X130757169Y-54223592D01*
X130711455Y-54276348D01*
X130705430Y-54282820D01*
X130687926Y-54300325D01*
X130678323Y-54314586D01*
X130676667Y-54316497D01*
X130636644Y-54404133D01*
X130634342Y-54408901D01*
X130626050Y-54425178D01*
X130608104Y-54550000D01*
X121082600Y-54550000D01*
X121082600Y-51460544D01*
X121075202Y-51423354D01*
X121047022Y-51381179D01*
X121004847Y-51352999D01*
X120967658Y-51345602D01*
X117442542Y-51345602D01*
X117405352Y-51352999D01*
X117363177Y-51381179D01*
X117334997Y-51423354D01*
X117327600Y-51460543D01*
X117327600Y-54985660D01*
X105525500Y-54985660D01*
X105525500Y-53180000D01*
X113943105Y-53180000D01*
X113960573Y-53290285D01*
X114011266Y-53389777D01*
X114090222Y-53468733D01*
X114189713Y-53519426D01*
X114189714Y-53519426D01*
X114300000Y-53536894D01*
X114410286Y-53519426D01*
X114509777Y-53468733D01*
X114588733Y-53389777D01*
X114639426Y-53290286D01*
X114656894Y-53180000D01*
X114639426Y-53069714D01*
X114588733Y-52970222D01*
X114509777Y-52891266D01*
X114410285Y-52840573D01*
X114300000Y-52823105D01*
X114189714Y-52840573D01*
X114090222Y-52891266D01*
X114011266Y-52970222D01*
X113960573Y-53069714D01*
X113943105Y-53180000D01*
X105525500Y-53180000D01*
X105525500Y-51859999D01*
X113853105Y-51859999D01*
X113870573Y-51970285D01*
X113921266Y-52069777D01*
X114000222Y-52148733D01*
X114099713Y-52199426D01*
X114099714Y-52199426D01*
X114210000Y-52216894D01*
X114320286Y-52199426D01*
X114419777Y-52148733D01*
X114498733Y-52069777D01*
X114549426Y-51970286D01*
X114566894Y-51860000D01*
X114549426Y-51749714D01*
X114549426Y-51749713D01*
X114498733Y-51650222D01*
X114419777Y-51571266D01*
X114320285Y-51520573D01*
X114209999Y-51503105D01*
X114099714Y-51520573D01*
X114000222Y-51571266D01*
X113921266Y-51650222D01*
X113870573Y-51749714D01*
X113853105Y-51859999D01*
X105525500Y-51859999D01*
X105525500Y-50223102D01*
X108373042Y-50223102D01*
X108391224Y-50396097D01*
X108444977Y-50561530D01*
X108444978Y-50561531D01*
X108531950Y-50712173D01*
X108648345Y-50841443D01*
X108789067Y-50943683D01*
X108789070Y-50943684D01*
X108789071Y-50943685D01*
X108947980Y-51014436D01*
X108947983Y-51014436D01*
X108947984Y-51014437D01*
X109118124Y-51050602D01*
X109118126Y-51050602D01*
X109292076Y-51050602D01*
X109462215Y-51014437D01*
X109462214Y-51014437D01*
X109462220Y-51014436D01*
X109621129Y-50943685D01*
X109621132Y-50943683D01*
X109761854Y-50841443D01*
X109878249Y-50712173D01*
X109878249Y-50712172D01*
X109965223Y-50561530D01*
X109975468Y-50529999D01*
X127673105Y-50529999D01*
X127690573Y-50640285D01*
X127741266Y-50739777D01*
X127820222Y-50818733D01*
X127919714Y-50869426D01*
X128029999Y-50886894D01*
X128029999Y-50886893D01*
X128030000Y-50886894D01*
X128140286Y-50869426D01*
X128239777Y-50818733D01*
X128318733Y-50739777D01*
X128369426Y-50640286D01*
X128386894Y-50530000D01*
X128369426Y-50419714D01*
X128333260Y-50348733D01*
X128318733Y-50320222D01*
X128239777Y-50241266D01*
X128140286Y-50190573D01*
X128034141Y-50173761D01*
X127985005Y-50150467D01*
X127976315Y-50163574D01*
X127937118Y-50181475D01*
X127937212Y-50181658D01*
X127820222Y-50241266D01*
X127741266Y-50320222D01*
X127690573Y-50419714D01*
X127673105Y-50529999D01*
X109975468Y-50529999D01*
X110018976Y-50396097D01*
X110037158Y-50223102D01*
X110020016Y-50059999D01*
X136583105Y-50059999D01*
X136600573Y-50170285D01*
X136651266Y-50269777D01*
X136730222Y-50348733D01*
X136823178Y-50396096D01*
X136829714Y-50399426D01*
X136940000Y-50416894D01*
X137050286Y-50399426D01*
X137149777Y-50348733D01*
X137228733Y-50269777D01*
X137279426Y-50170286D01*
X137296894Y-50060000D01*
X137279426Y-49949714D01*
X137243260Y-49878733D01*
X137228733Y-49850222D01*
X137149777Y-49771266D01*
X137050285Y-49720573D01*
X136940000Y-49703105D01*
X136829714Y-49720573D01*
X136730222Y-49771266D01*
X136651266Y-49850222D01*
X136600573Y-49949714D01*
X136583105Y-50059999D01*
X110020016Y-50059999D01*
X110018976Y-50050107D01*
X109965223Y-49884674D01*
X109899747Y-49771266D01*
X109878249Y-49734030D01*
X109761854Y-49604760D01*
X109741538Y-49590000D01*
X127563105Y-49590000D01*
X127580573Y-49700285D01*
X127631266Y-49799777D01*
X127710222Y-49878733D01*
X127809713Y-49929426D01*
X127915857Y-49946238D01*
X127964994Y-49969531D01*
X127973685Y-49956424D01*
X128012881Y-49938525D01*
X128012788Y-49938342D01*
X128129777Y-49878733D01*
X128208733Y-49799777D01*
X128219102Y-49779426D01*
X128259426Y-49700286D01*
X128276894Y-49590000D01*
X128259426Y-49479714D01*
X128239191Y-49440000D01*
X137313105Y-49440000D01*
X137330573Y-49550285D01*
X137381266Y-49649777D01*
X137460222Y-49728733D01*
X137543699Y-49771266D01*
X137559714Y-49779426D01*
X137670000Y-49796894D01*
X137780286Y-49779426D01*
X137879777Y-49728733D01*
X137958733Y-49649777D01*
X138009426Y-49550286D01*
X138026894Y-49440000D01*
X138009426Y-49329714D01*
X137994931Y-49301266D01*
X137958733Y-49230222D01*
X137879777Y-49151266D01*
X137780285Y-49100573D01*
X137670000Y-49083105D01*
X137559714Y-49100573D01*
X137460222Y-49151266D01*
X137381266Y-49230222D01*
X137330573Y-49329714D01*
X137313105Y-49440000D01*
X128239191Y-49440000D01*
X128208733Y-49380222D01*
X128129777Y-49301266D01*
X128030285Y-49250573D01*
X127920000Y-49233105D01*
X127809714Y-49250573D01*
X127710222Y-49301266D01*
X127631266Y-49380222D01*
X127580573Y-49479714D01*
X127563105Y-49590000D01*
X109741538Y-49590000D01*
X109621132Y-49502520D01*
X109480709Y-49440000D01*
X109462220Y-49431768D01*
X109462219Y-49431767D01*
X109462215Y-49431766D01*
X109292076Y-49395602D01*
X109292074Y-49395602D01*
X109118126Y-49395602D01*
X109118124Y-49395602D01*
X108947984Y-49431766D01*
X108789067Y-49502520D01*
X108648345Y-49604760D01*
X108531950Y-49734030D01*
X108464867Y-49850223D01*
X108444977Y-49884674D01*
X108391224Y-50050107D01*
X108373042Y-50223102D01*
X105525500Y-50223102D01*
X105525500Y-48589999D01*
X138563105Y-48589999D01*
X138580573Y-48700285D01*
X138631266Y-48799777D01*
X138710222Y-48878733D01*
X138809713Y-48929425D01*
X138809714Y-48929426D01*
X138920000Y-48946894D01*
X139030286Y-48929426D01*
X139129777Y-48878733D01*
X139208733Y-48799777D01*
X139259426Y-48700286D01*
X139265807Y-48659999D01*
X140133105Y-48659999D01*
X140150573Y-48770285D01*
X140201266Y-48869777D01*
X140280222Y-48948733D01*
X140338002Y-48978173D01*
X140379714Y-48999426D01*
X140490000Y-49016894D01*
X140600286Y-48999426D01*
X140699777Y-48948733D01*
X140778733Y-48869777D01*
X140829426Y-48770286D01*
X140846894Y-48660000D01*
X140837391Y-48600000D01*
X141663105Y-48600000D01*
X141680573Y-48710285D01*
X141731266Y-48809777D01*
X141810222Y-48888733D01*
X141873680Y-48921066D01*
X141909714Y-48939426D01*
X142020000Y-48956894D01*
X142130286Y-48939426D01*
X142229777Y-48888733D01*
X142308733Y-48809777D01*
X142359426Y-48710286D01*
X142376894Y-48600000D01*
X142359426Y-48489714D01*
X142354331Y-48479714D01*
X142308733Y-48390222D01*
X142229777Y-48311266D01*
X142130285Y-48260573D01*
X142020000Y-48243105D01*
X141909714Y-48260573D01*
X141810222Y-48311266D01*
X141731266Y-48390222D01*
X141680573Y-48489714D01*
X141663105Y-48600000D01*
X140837391Y-48600000D01*
X140829426Y-48549714D01*
X140798355Y-48488733D01*
X140778733Y-48450222D01*
X140699777Y-48371266D01*
X140600285Y-48320573D01*
X140490000Y-48303105D01*
X140379714Y-48320573D01*
X140280222Y-48371266D01*
X140201266Y-48450222D01*
X140150573Y-48549714D01*
X140133105Y-48659999D01*
X139265807Y-48659999D01*
X139276894Y-48590000D01*
X139271650Y-48556894D01*
X139259426Y-48479714D01*
X139208733Y-48380222D01*
X139129777Y-48301266D01*
X139030285Y-48250573D01*
X138920000Y-48233105D01*
X138809714Y-48250573D01*
X138710222Y-48301266D01*
X138631266Y-48380222D01*
X138580573Y-48479714D01*
X138563105Y-48589999D01*
X105525500Y-48589999D01*
X105525500Y-45203479D01*
X105525598Y-45200000D01*
X105892506Y-45200000D01*
X105912461Y-45504452D01*
X105913251Y-45508423D01*
X105913252Y-45508431D01*
X105971191Y-45799710D01*
X105971193Y-45799717D01*
X105971984Y-45803694D01*
X105973284Y-45807525D01*
X105973288Y-45807538D01*
X106068751Y-46088760D01*
X106070057Y-46092607D01*
X106071850Y-46096243D01*
X106071853Y-46096250D01*
X106203205Y-46362607D01*
X106203211Y-46362618D01*
X106205001Y-46366247D01*
X106374508Y-46619932D01*
X106377183Y-46622982D01*
X106377189Y-46622990D01*
X106573004Y-46846273D01*
X106575678Y-46849322D01*
X106578726Y-46851995D01*
X106802009Y-47047810D01*
X106802015Y-47047814D01*
X106805068Y-47050492D01*
X107058753Y-47219999D01*
X107062386Y-47221790D01*
X107062392Y-47221794D01*
X107328749Y-47353146D01*
X107332393Y-47354943D01*
X107540541Y-47425600D01*
X107617461Y-47451711D01*
X107617463Y-47451711D01*
X107621306Y-47453016D01*
X107920548Y-47512539D01*
X108225000Y-47532494D01*
X108529452Y-47512539D01*
X108828694Y-47453016D01*
X109117607Y-47354943D01*
X109391247Y-47219999D01*
X109644932Y-47050492D01*
X109874322Y-46849322D01*
X110075492Y-46619932D01*
X110244999Y-46366247D01*
X110379943Y-46092607D01*
X110478016Y-45803694D01*
X110537539Y-45504452D01*
X110554025Y-45252922D01*
X111870618Y-45252922D01*
X111901407Y-45401083D01*
X111901407Y-45401084D01*
X111901408Y-45401085D01*
X111971029Y-45535447D01*
X112025974Y-45594278D01*
X112074321Y-45646045D01*
X112117419Y-45672253D01*
X112203618Y-45724672D01*
X112349335Y-45765500D01*
X112349337Y-45765500D01*
X112458421Y-45765500D01*
X112462658Y-45765500D01*
X112574920Y-45750070D01*
X112713720Y-45689780D01*
X112831108Y-45594278D01*
X112918377Y-45470647D01*
X112940385Y-45408721D01*
X112981380Y-45352148D01*
X113046458Y-45326717D01*
X113114953Y-45340507D01*
X113165120Y-45389139D01*
X113167322Y-45393201D01*
X113227030Y-45508431D01*
X113241029Y-45535447D01*
X113295974Y-45594278D01*
X113344321Y-45646045D01*
X113387419Y-45672253D01*
X113473618Y-45724672D01*
X113619335Y-45765500D01*
X113619337Y-45765500D01*
X113728421Y-45765500D01*
X113732658Y-45765500D01*
X113844920Y-45750070D01*
X113983720Y-45689780D01*
X114101108Y-45594278D01*
X114188377Y-45470647D01*
X114210385Y-45408721D01*
X114251380Y-45352148D01*
X114316458Y-45326717D01*
X114384953Y-45340507D01*
X114435120Y-45389139D01*
X114437322Y-45393201D01*
X114497030Y-45508431D01*
X114511029Y-45535447D01*
X114565974Y-45594278D01*
X114614321Y-45646045D01*
X114657419Y-45672253D01*
X114743618Y-45724672D01*
X114889335Y-45765500D01*
X114889337Y-45765500D01*
X114998421Y-45765500D01*
X115002658Y-45765500D01*
X115114920Y-45750070D01*
X115253720Y-45689780D01*
X115371108Y-45594278D01*
X115458377Y-45470647D01*
X115480385Y-45408721D01*
X115521380Y-45352148D01*
X115586458Y-45326717D01*
X115654953Y-45340507D01*
X115705120Y-45389139D01*
X115707322Y-45393201D01*
X115767030Y-45508431D01*
X115781029Y-45535447D01*
X115835974Y-45594278D01*
X115884321Y-45646045D01*
X115927419Y-45672253D01*
X116013618Y-45724672D01*
X116159335Y-45765500D01*
X116159337Y-45765500D01*
X116268421Y-45765500D01*
X116272658Y-45765500D01*
X116384920Y-45750070D01*
X116523720Y-45689780D01*
X116641108Y-45594278D01*
X116728377Y-45470647D01*
X116750385Y-45408721D01*
X116791380Y-45352148D01*
X116856458Y-45326717D01*
X116924953Y-45340507D01*
X116975120Y-45389139D01*
X116977322Y-45393201D01*
X117037030Y-45508431D01*
X117051029Y-45535447D01*
X117105974Y-45594278D01*
X117154321Y-45646045D01*
X117197419Y-45672253D01*
X117283618Y-45724672D01*
X117429335Y-45765500D01*
X117429337Y-45765500D01*
X117538421Y-45765500D01*
X117542658Y-45765500D01*
X117654920Y-45750070D01*
X117793720Y-45689780D01*
X117911108Y-45594278D01*
X117998377Y-45470647D01*
X117998897Y-45469186D01*
X118020384Y-45408725D01*
X118049054Y-45328056D01*
X118059381Y-45177079D01*
X118057969Y-45170286D01*
X118038761Y-45077852D01*
X118028592Y-45028915D01*
X117958971Y-44894553D01*
X117855680Y-44783956D01*
X117855679Y-44783955D01*
X117855678Y-44783954D01*
X117751451Y-44720573D01*
X117726382Y-44705328D01*
X117580665Y-44664500D01*
X117467342Y-44664500D01*
X117463158Y-44665075D01*
X117463144Y-44665076D01*
X117355079Y-44679930D01*
X117216280Y-44740219D01*
X117098892Y-44835721D01*
X117011621Y-44959354D01*
X116989615Y-45021275D01*
X116948617Y-45077852D01*
X116883539Y-45103282D01*
X116815044Y-45089491D01*
X116764878Y-45040859D01*
X116762677Y-45036798D01*
X116694230Y-44904703D01*
X116688971Y-44894553D01*
X116585680Y-44783956D01*
X116585679Y-44783955D01*
X116585678Y-44783954D01*
X116481451Y-44720573D01*
X116456382Y-44705328D01*
X116310665Y-44664500D01*
X116197342Y-44664500D01*
X116193158Y-44665075D01*
X116193144Y-44665076D01*
X116085079Y-44679930D01*
X115946280Y-44740219D01*
X115828892Y-44835721D01*
X115741621Y-44959354D01*
X115719615Y-45021275D01*
X115678617Y-45077852D01*
X115613539Y-45103282D01*
X115545044Y-45089491D01*
X115494878Y-45040859D01*
X115492677Y-45036798D01*
X115424230Y-44904703D01*
X115418971Y-44894553D01*
X115315680Y-44783956D01*
X115315679Y-44783955D01*
X115315678Y-44783954D01*
X115211451Y-44720573D01*
X115186382Y-44705328D01*
X115040665Y-44664500D01*
X114927342Y-44664500D01*
X114923158Y-44665075D01*
X114923144Y-44665076D01*
X114815079Y-44679930D01*
X114676280Y-44740219D01*
X114558892Y-44835721D01*
X114471621Y-44959354D01*
X114449615Y-45021275D01*
X114408617Y-45077852D01*
X114343539Y-45103282D01*
X114275044Y-45089491D01*
X114224878Y-45040859D01*
X114222677Y-45036798D01*
X114154230Y-44904703D01*
X114148971Y-44894553D01*
X114045680Y-44783956D01*
X114045679Y-44783955D01*
X114045678Y-44783954D01*
X113941451Y-44720573D01*
X113916382Y-44705328D01*
X113770665Y-44664500D01*
X113657342Y-44664500D01*
X113653158Y-44665075D01*
X113653144Y-44665076D01*
X113545079Y-44679930D01*
X113406280Y-44740219D01*
X113288892Y-44835721D01*
X113201621Y-44959354D01*
X113179615Y-45021275D01*
X113138617Y-45077852D01*
X113073539Y-45103282D01*
X113005044Y-45089491D01*
X112954878Y-45040859D01*
X112952677Y-45036798D01*
X112884230Y-44904703D01*
X112878971Y-44894553D01*
X112775680Y-44783956D01*
X112775679Y-44783955D01*
X112775678Y-44783954D01*
X112671451Y-44720573D01*
X112646382Y-44705328D01*
X112500665Y-44664500D01*
X112387342Y-44664500D01*
X112383158Y-44665075D01*
X112383144Y-44665076D01*
X112275079Y-44679930D01*
X112136280Y-44740219D01*
X112018892Y-44835721D01*
X111931621Y-44959354D01*
X111880946Y-45101942D01*
X111870618Y-45252922D01*
X110554025Y-45252922D01*
X110557494Y-45200000D01*
X110537539Y-44895548D01*
X110478016Y-44596306D01*
X110379943Y-44307393D01*
X110347165Y-44240925D01*
X110246794Y-44037392D01*
X110246790Y-44037386D01*
X110244999Y-44033753D01*
X110241643Y-44028731D01*
X110077751Y-43783449D01*
X110075492Y-43780068D01*
X110072814Y-43777015D01*
X110072810Y-43777009D01*
X109876995Y-43553726D01*
X109874322Y-43550678D01*
X109829873Y-43511697D01*
X109647990Y-43352189D01*
X109647982Y-43352183D01*
X109644932Y-43349508D01*
X109550670Y-43286524D01*
X109394621Y-43182255D01*
X109394616Y-43182252D01*
X109391247Y-43180001D01*
X109387618Y-43178211D01*
X109387607Y-43178205D01*
X109121250Y-43046853D01*
X109121243Y-43046850D01*
X109117607Y-43045057D01*
X109113760Y-43043751D01*
X108832538Y-42948288D01*
X108832525Y-42948284D01*
X108828694Y-42946984D01*
X108824717Y-42946193D01*
X108824710Y-42946191D01*
X108533431Y-42888252D01*
X108533423Y-42888251D01*
X108529452Y-42887461D01*
X108225000Y-42867506D01*
X108220957Y-42867771D01*
X107924590Y-42887196D01*
X107924588Y-42887196D01*
X107920548Y-42887461D01*
X107916577Y-42888250D01*
X107916568Y-42888252D01*
X107625289Y-42946191D01*
X107625278Y-42946193D01*
X107621306Y-42946984D01*
X107617477Y-42948283D01*
X107617461Y-42948288D01*
X107336239Y-43043751D01*
X107336232Y-43043753D01*
X107332393Y-43045057D01*
X107328761Y-43046847D01*
X107328749Y-43046853D01*
X107062392Y-43178205D01*
X107062374Y-43178214D01*
X107058753Y-43180001D01*
X107055390Y-43182247D01*
X107055378Y-43182255D01*
X106808449Y-43347248D01*
X106808440Y-43347254D01*
X106805068Y-43349508D01*
X106802024Y-43352177D01*
X106802009Y-43352189D01*
X106578726Y-43548004D01*
X106578718Y-43548011D01*
X106575678Y-43550678D01*
X106573011Y-43553718D01*
X106573004Y-43553726D01*
X106377189Y-43777009D01*
X106377177Y-43777024D01*
X106374508Y-43780068D01*
X106372254Y-43783440D01*
X106372248Y-43783449D01*
X106207255Y-44030378D01*
X106207247Y-44030390D01*
X106205001Y-44033753D01*
X106203214Y-44037374D01*
X106203205Y-44037392D01*
X106071853Y-44303749D01*
X106071847Y-44303761D01*
X106070057Y-44307393D01*
X106068753Y-44311232D01*
X106068751Y-44311239D01*
X105973288Y-44592461D01*
X105973283Y-44592477D01*
X105971984Y-44596306D01*
X105971193Y-44600278D01*
X105971191Y-44600289D01*
X105913252Y-44891568D01*
X105913250Y-44891577D01*
X105912461Y-44895548D01*
X105912196Y-44899588D01*
X105912196Y-44899590D01*
X105903672Y-45029646D01*
X105892506Y-45200000D01*
X105525598Y-45200000D01*
X105525695Y-45196526D01*
X105527169Y-45170285D01*
X105542084Y-44904691D01*
X105543638Y-44890898D01*
X105592015Y-44606167D01*
X105595109Y-44592615D01*
X105595154Y-44592461D01*
X105675061Y-44315096D01*
X105679653Y-44301975D01*
X105790175Y-44035151D01*
X105796195Y-44022651D01*
X105935902Y-43769868D01*
X105943297Y-43758100D01*
X105984842Y-43699548D01*
X106110422Y-43522559D01*
X106119077Y-43511705D01*
X106311534Y-43296346D01*
X106321346Y-43286534D01*
X106536705Y-43094077D01*
X106547559Y-43085422D01*
X106783105Y-42918293D01*
X106794868Y-42910902D01*
X107047651Y-42771195D01*
X107060151Y-42765175D01*
X107326979Y-42654651D01*
X107340096Y-42650061D01*
X107617621Y-42570107D01*
X107631167Y-42567015D01*
X107915898Y-42518638D01*
X107929691Y-42517084D01*
X108221527Y-42500695D01*
X108228481Y-42500500D01*
X108272595Y-42500500D01*
X119889600Y-42500500D01*
X119956639Y-42520185D01*
G37*
%TD.AperFunction*%
%TD*%
M02*
