%TF.GenerationSoftware,KiCad,Pcbnew,7.0.2*%
%TF.CreationDate,2023-10-17T14:13:15-04:00*%
%TF.ProjectId,BITSv5,42495453-7635-42e6-9b69-6361645f7063,rev?*%
%TF.SameCoordinates,Original*%
%TF.FileFunction,Legend,Top*%
%TF.FilePolarity,Positive*%
%FSLAX46Y46*%
G04 Gerber Fmt 4.6, Leading zero omitted, Abs format (unit mm)*
G04 Created by KiCad (PCBNEW 7.0.2) date 2023-10-17 14:13:15*
%MOMM*%
%LPD*%
G01*
G04 APERTURE LIST*
%ADD10C,0.150000*%
%ADD11C,0.152400*%
%ADD12C,0.120000*%
%ADD13C,0.508000*%
%ADD14C,0.200000*%
%ADD15C,0.100000*%
G04 APERTURE END LIST*
D10*
X132683333Y-46091785D02*
X132683333Y-45556071D01*
X132683333Y-45556071D02*
X132716666Y-45448928D01*
X132716666Y-45448928D02*
X132783333Y-45377500D01*
X132783333Y-45377500D02*
X132883333Y-45341785D01*
X132883333Y-45341785D02*
X132950000Y-45341785D01*
X132350000Y-45413214D02*
X132316667Y-45377500D01*
X132316667Y-45377500D02*
X132350000Y-45341785D01*
X132350000Y-45341785D02*
X132383333Y-45377500D01*
X132383333Y-45377500D02*
X132350000Y-45413214D01*
X132350000Y-45413214D02*
X132350000Y-45341785D01*
X131250001Y-45734642D02*
X131150001Y-45698928D01*
X131150001Y-45698928D02*
X131116667Y-45663214D01*
X131116667Y-45663214D02*
X131083334Y-45591785D01*
X131083334Y-45591785D02*
X131083334Y-45484642D01*
X131083334Y-45484642D02*
X131116667Y-45413214D01*
X131116667Y-45413214D02*
X131150001Y-45377500D01*
X131150001Y-45377500D02*
X131216667Y-45341785D01*
X131216667Y-45341785D02*
X131483334Y-45341785D01*
X131483334Y-45341785D02*
X131483334Y-46091785D01*
X131483334Y-46091785D02*
X131250001Y-46091785D01*
X131250001Y-46091785D02*
X131183334Y-46056071D01*
X131183334Y-46056071D02*
X131150001Y-46020357D01*
X131150001Y-46020357D02*
X131116667Y-45948928D01*
X131116667Y-45948928D02*
X131116667Y-45877500D01*
X131116667Y-45877500D02*
X131150001Y-45806071D01*
X131150001Y-45806071D02*
X131183334Y-45770357D01*
X131183334Y-45770357D02*
X131250001Y-45734642D01*
X131250001Y-45734642D02*
X131483334Y-45734642D01*
X130783334Y-45341785D02*
X130783334Y-45841785D01*
X130783334Y-46091785D02*
X130816667Y-46056071D01*
X130816667Y-46056071D02*
X130783334Y-46020357D01*
X130783334Y-46020357D02*
X130750001Y-46056071D01*
X130750001Y-46056071D02*
X130783334Y-46091785D01*
X130783334Y-46091785D02*
X130783334Y-46020357D01*
X130483334Y-45377500D02*
X130416668Y-45341785D01*
X130416668Y-45341785D02*
X130283334Y-45341785D01*
X130283334Y-45341785D02*
X130216668Y-45377500D01*
X130216668Y-45377500D02*
X130183334Y-45448928D01*
X130183334Y-45448928D02*
X130183334Y-45484642D01*
X130183334Y-45484642D02*
X130216668Y-45556071D01*
X130216668Y-45556071D02*
X130283334Y-45591785D01*
X130283334Y-45591785D02*
X130383334Y-45591785D01*
X130383334Y-45591785D02*
X130450001Y-45627500D01*
X130450001Y-45627500D02*
X130483334Y-45698928D01*
X130483334Y-45698928D02*
X130483334Y-45734642D01*
X130483334Y-45734642D02*
X130450001Y-45806071D01*
X130450001Y-45806071D02*
X130383334Y-45841785D01*
X130383334Y-45841785D02*
X130283334Y-45841785D01*
X130283334Y-45841785D02*
X130216668Y-45806071D01*
X129883334Y-45341785D02*
X129883334Y-46091785D01*
X129583334Y-45341785D02*
X129583334Y-45734642D01*
X129583334Y-45734642D02*
X129616667Y-45806071D01*
X129616667Y-45806071D02*
X129683334Y-45841785D01*
X129683334Y-45841785D02*
X129783334Y-45841785D01*
X129783334Y-45841785D02*
X129850001Y-45806071D01*
X129850001Y-45806071D02*
X129883334Y-45770357D01*
X129150001Y-45341785D02*
X129216668Y-45377500D01*
X129216668Y-45377500D02*
X129250001Y-45413214D01*
X129250001Y-45413214D02*
X129283334Y-45484642D01*
X129283334Y-45484642D02*
X129283334Y-45698928D01*
X129283334Y-45698928D02*
X129250001Y-45770357D01*
X129250001Y-45770357D02*
X129216668Y-45806071D01*
X129216668Y-45806071D02*
X129150001Y-45841785D01*
X129150001Y-45841785D02*
X129050001Y-45841785D01*
X129050001Y-45841785D02*
X128983334Y-45806071D01*
X128983334Y-45806071D02*
X128950001Y-45770357D01*
X128950001Y-45770357D02*
X128916668Y-45698928D01*
X128916668Y-45698928D02*
X128916668Y-45484642D01*
X128916668Y-45484642D02*
X128950001Y-45413214D01*
X128950001Y-45413214D02*
X128983334Y-45377500D01*
X128983334Y-45377500D02*
X129050001Y-45341785D01*
X129050001Y-45341785D02*
X129150001Y-45341785D01*
X128616668Y-45841785D02*
X128616668Y-45091785D01*
X128616668Y-45806071D02*
X128550001Y-45841785D01*
X128550001Y-45841785D02*
X128416668Y-45841785D01*
X128416668Y-45841785D02*
X128350001Y-45806071D01*
X128350001Y-45806071D02*
X128316668Y-45770357D01*
X128316668Y-45770357D02*
X128283335Y-45698928D01*
X128283335Y-45698928D02*
X128283335Y-45484642D01*
X128283335Y-45484642D02*
X128316668Y-45413214D01*
X128316668Y-45413214D02*
X128350001Y-45377500D01*
X128350001Y-45377500D02*
X128416668Y-45341785D01*
X128416668Y-45341785D02*
X128550001Y-45341785D01*
X128550001Y-45341785D02*
X128616668Y-45377500D01*
X132883333Y-44126785D02*
X132883333Y-44876785D01*
X132883333Y-44876785D02*
X132650000Y-44341071D01*
X132650000Y-44341071D02*
X132416666Y-44876785D01*
X132416666Y-44876785D02*
X132416666Y-44126785D01*
X132083333Y-44198214D02*
X132050000Y-44162500D01*
X132050000Y-44162500D02*
X132083333Y-44126785D01*
X132083333Y-44126785D02*
X132116666Y-44162500D01*
X132116666Y-44162500D02*
X132083333Y-44198214D01*
X132083333Y-44198214D02*
X132083333Y-44126785D01*
X131250000Y-44162500D02*
X131150000Y-44126785D01*
X131150000Y-44126785D02*
X130983334Y-44126785D01*
X130983334Y-44126785D02*
X130916667Y-44162500D01*
X130916667Y-44162500D02*
X130883334Y-44198214D01*
X130883334Y-44198214D02*
X130850000Y-44269642D01*
X130850000Y-44269642D02*
X130850000Y-44341071D01*
X130850000Y-44341071D02*
X130883334Y-44412500D01*
X130883334Y-44412500D02*
X130916667Y-44448214D01*
X130916667Y-44448214D02*
X130983334Y-44483928D01*
X130983334Y-44483928D02*
X131116667Y-44519642D01*
X131116667Y-44519642D02*
X131183334Y-44555357D01*
X131183334Y-44555357D02*
X131216667Y-44591071D01*
X131216667Y-44591071D02*
X131250000Y-44662500D01*
X131250000Y-44662500D02*
X131250000Y-44733928D01*
X131250000Y-44733928D02*
X131216667Y-44805357D01*
X131216667Y-44805357D02*
X131183334Y-44841071D01*
X131183334Y-44841071D02*
X131116667Y-44876785D01*
X131116667Y-44876785D02*
X130950000Y-44876785D01*
X130950000Y-44876785D02*
X130850000Y-44841071D01*
X130550000Y-44126785D02*
X130550000Y-44876785D01*
X130250000Y-44126785D02*
X130250000Y-44519642D01*
X130250000Y-44519642D02*
X130283333Y-44591071D01*
X130283333Y-44591071D02*
X130350000Y-44626785D01*
X130350000Y-44626785D02*
X130450000Y-44626785D01*
X130450000Y-44626785D02*
X130516667Y-44591071D01*
X130516667Y-44591071D02*
X130550000Y-44555357D01*
X129916667Y-44126785D02*
X129916667Y-44626785D01*
X129916667Y-44876785D02*
X129950000Y-44841071D01*
X129950000Y-44841071D02*
X129916667Y-44805357D01*
X129916667Y-44805357D02*
X129883334Y-44841071D01*
X129883334Y-44841071D02*
X129916667Y-44876785D01*
X129916667Y-44876785D02*
X129916667Y-44805357D01*
X129583334Y-44626785D02*
X129583334Y-43876785D01*
X129583334Y-44591071D02*
X129516667Y-44626785D01*
X129516667Y-44626785D02*
X129383334Y-44626785D01*
X129383334Y-44626785D02*
X129316667Y-44591071D01*
X129316667Y-44591071D02*
X129283334Y-44555357D01*
X129283334Y-44555357D02*
X129250001Y-44483928D01*
X129250001Y-44483928D02*
X129250001Y-44269642D01*
X129250001Y-44269642D02*
X129283334Y-44198214D01*
X129283334Y-44198214D02*
X129316667Y-44162500D01*
X129316667Y-44162500D02*
X129383334Y-44126785D01*
X129383334Y-44126785D02*
X129516667Y-44126785D01*
X129516667Y-44126785D02*
X129583334Y-44162500D01*
X128950001Y-44126785D02*
X128950001Y-44626785D01*
X128950001Y-44555357D02*
X128916668Y-44591071D01*
X128916668Y-44591071D02*
X128850001Y-44626785D01*
X128850001Y-44626785D02*
X128750001Y-44626785D01*
X128750001Y-44626785D02*
X128683334Y-44591071D01*
X128683334Y-44591071D02*
X128650001Y-44519642D01*
X128650001Y-44519642D02*
X128650001Y-44126785D01*
X128650001Y-44519642D02*
X128616668Y-44591071D01*
X128616668Y-44591071D02*
X128550001Y-44626785D01*
X128550001Y-44626785D02*
X128450001Y-44626785D01*
X128450001Y-44626785D02*
X128383334Y-44591071D01*
X128383334Y-44591071D02*
X128350001Y-44519642D01*
X128350001Y-44519642D02*
X128350001Y-44126785D01*
X127716668Y-44126785D02*
X127716668Y-44519642D01*
X127716668Y-44519642D02*
X127750001Y-44591071D01*
X127750001Y-44591071D02*
X127816668Y-44626785D01*
X127816668Y-44626785D02*
X127950001Y-44626785D01*
X127950001Y-44626785D02*
X128016668Y-44591071D01*
X127716668Y-44162500D02*
X127783335Y-44126785D01*
X127783335Y-44126785D02*
X127950001Y-44126785D01*
X127950001Y-44126785D02*
X128016668Y-44162500D01*
X128016668Y-44162500D02*
X128050001Y-44233928D01*
X128050001Y-44233928D02*
X128050001Y-44305357D01*
X128050001Y-44305357D02*
X128016668Y-44376785D01*
X128016668Y-44376785D02*
X127950001Y-44412500D01*
X127950001Y-44412500D02*
X127783335Y-44412500D01*
X127783335Y-44412500D02*
X127716668Y-44448214D01*
X127383335Y-44626785D02*
X127383335Y-44126785D01*
X127383335Y-44555357D02*
X127350002Y-44591071D01*
X127350002Y-44591071D02*
X127283335Y-44626785D01*
X127283335Y-44626785D02*
X127183335Y-44626785D01*
X127183335Y-44626785D02*
X127116668Y-44591071D01*
X127116668Y-44591071D02*
X127083335Y-44519642D01*
X127083335Y-44519642D02*
X127083335Y-44126785D01*
X132916666Y-43126071D02*
X132583333Y-43126071D01*
X132983333Y-42911785D02*
X132750000Y-43661785D01*
X132750000Y-43661785D02*
X132516666Y-42911785D01*
X132283333Y-42983214D02*
X132250000Y-42947500D01*
X132250000Y-42947500D02*
X132283333Y-42911785D01*
X132283333Y-42911785D02*
X132316666Y-42947500D01*
X132316666Y-42947500D02*
X132283333Y-42983214D01*
X132283333Y-42983214D02*
X132283333Y-42911785D01*
X131516667Y-43661785D02*
X131116667Y-43661785D01*
X131316667Y-42911785D02*
X131316667Y-43661785D01*
X130583334Y-42911785D02*
X130583334Y-43304642D01*
X130583334Y-43304642D02*
X130616667Y-43376071D01*
X130616667Y-43376071D02*
X130683334Y-43411785D01*
X130683334Y-43411785D02*
X130816667Y-43411785D01*
X130816667Y-43411785D02*
X130883334Y-43376071D01*
X130583334Y-42947500D02*
X130650001Y-42911785D01*
X130650001Y-42911785D02*
X130816667Y-42911785D01*
X130816667Y-42911785D02*
X130883334Y-42947500D01*
X130883334Y-42947500D02*
X130916667Y-43018928D01*
X130916667Y-43018928D02*
X130916667Y-43090357D01*
X130916667Y-43090357D02*
X130883334Y-43161785D01*
X130883334Y-43161785D02*
X130816667Y-43197500D01*
X130816667Y-43197500D02*
X130650001Y-43197500D01*
X130650001Y-43197500D02*
X130583334Y-43233214D01*
X130250001Y-42911785D02*
X130250001Y-43661785D01*
X130183334Y-43197500D02*
X129983334Y-42911785D01*
X129983334Y-43411785D02*
X130250001Y-43126071D01*
X129416667Y-42947500D02*
X129483334Y-42911785D01*
X129483334Y-42911785D02*
X129616667Y-42911785D01*
X129616667Y-42911785D02*
X129683334Y-42947500D01*
X129683334Y-42947500D02*
X129716667Y-43018928D01*
X129716667Y-43018928D02*
X129716667Y-43304642D01*
X129716667Y-43304642D02*
X129683334Y-43376071D01*
X129683334Y-43376071D02*
X129616667Y-43411785D01*
X129616667Y-43411785D02*
X129483334Y-43411785D01*
X129483334Y-43411785D02*
X129416667Y-43376071D01*
X129416667Y-43376071D02*
X129383334Y-43304642D01*
X129383334Y-43304642D02*
X129383334Y-43233214D01*
X129383334Y-43233214D02*
X129716667Y-43161785D01*
X128783334Y-43411785D02*
X128783334Y-42911785D01*
X129083334Y-43411785D02*
X129083334Y-43018928D01*
X129083334Y-43018928D02*
X129050001Y-42947500D01*
X129050001Y-42947500D02*
X128983334Y-42911785D01*
X128983334Y-42911785D02*
X128883334Y-42911785D01*
X128883334Y-42911785D02*
X128816667Y-42947500D01*
X128816667Y-42947500D02*
X128783334Y-42983214D01*
X128150001Y-42947500D02*
X128216668Y-42911785D01*
X128216668Y-42911785D02*
X128350001Y-42911785D01*
X128350001Y-42911785D02*
X128416668Y-42947500D01*
X128416668Y-42947500D02*
X128450001Y-42983214D01*
X128450001Y-42983214D02*
X128483334Y-43054642D01*
X128483334Y-43054642D02*
X128483334Y-43268928D01*
X128483334Y-43268928D02*
X128450001Y-43340357D01*
X128450001Y-43340357D02*
X128416668Y-43376071D01*
X128416668Y-43376071D02*
X128350001Y-43411785D01*
X128350001Y-43411785D02*
X128216668Y-43411785D01*
X128216668Y-43411785D02*
X128150001Y-43376071D01*
X127850001Y-42911785D02*
X127850001Y-43661785D01*
X127550001Y-42911785D02*
X127550001Y-43304642D01*
X127550001Y-43304642D02*
X127583334Y-43376071D01*
X127583334Y-43376071D02*
X127650001Y-43411785D01*
X127650001Y-43411785D02*
X127750001Y-43411785D01*
X127750001Y-43411785D02*
X127816668Y-43376071D01*
X127816668Y-43376071D02*
X127850001Y-43340357D01*
X127216668Y-42911785D02*
X127216668Y-43411785D01*
X127216668Y-43661785D02*
X127250001Y-43626071D01*
X127250001Y-43626071D02*
X127216668Y-43590357D01*
X127216668Y-43590357D02*
X127183335Y-43626071D01*
X127183335Y-43626071D02*
X127216668Y-43661785D01*
X127216668Y-43661785D02*
X127216668Y-43590357D01*
X124373333Y-44549642D02*
X124273333Y-44513928D01*
X124273333Y-44513928D02*
X124239999Y-44478214D01*
X124239999Y-44478214D02*
X124206666Y-44406785D01*
X124206666Y-44406785D02*
X124206666Y-44299642D01*
X124206666Y-44299642D02*
X124239999Y-44228214D01*
X124239999Y-44228214D02*
X124273333Y-44192500D01*
X124273333Y-44192500D02*
X124339999Y-44156785D01*
X124339999Y-44156785D02*
X124606666Y-44156785D01*
X124606666Y-44156785D02*
X124606666Y-44906785D01*
X124606666Y-44906785D02*
X124373333Y-44906785D01*
X124373333Y-44906785D02*
X124306666Y-44871071D01*
X124306666Y-44871071D02*
X124273333Y-44835357D01*
X124273333Y-44835357D02*
X124239999Y-44763928D01*
X124239999Y-44763928D02*
X124239999Y-44692500D01*
X124239999Y-44692500D02*
X124273333Y-44621071D01*
X124273333Y-44621071D02*
X124306666Y-44585357D01*
X124306666Y-44585357D02*
X124373333Y-44549642D01*
X124373333Y-44549642D02*
X124606666Y-44549642D01*
X123906666Y-44156785D02*
X123906666Y-44906785D01*
X123673333Y-44906785D02*
X123273333Y-44906785D01*
X123473333Y-44156785D02*
X123473333Y-44906785D01*
X123073333Y-44192500D02*
X122973333Y-44156785D01*
X122973333Y-44156785D02*
X122806667Y-44156785D01*
X122806667Y-44156785D02*
X122740000Y-44192500D01*
X122740000Y-44192500D02*
X122706667Y-44228214D01*
X122706667Y-44228214D02*
X122673333Y-44299642D01*
X122673333Y-44299642D02*
X122673333Y-44371071D01*
X122673333Y-44371071D02*
X122706667Y-44442500D01*
X122706667Y-44442500D02*
X122740000Y-44478214D01*
X122740000Y-44478214D02*
X122806667Y-44513928D01*
X122806667Y-44513928D02*
X122940000Y-44549642D01*
X122940000Y-44549642D02*
X123006667Y-44585357D01*
X123006667Y-44585357D02*
X123040000Y-44621071D01*
X123040000Y-44621071D02*
X123073333Y-44692500D01*
X123073333Y-44692500D02*
X123073333Y-44763928D01*
X123073333Y-44763928D02*
X123040000Y-44835357D01*
X123040000Y-44835357D02*
X123006667Y-44871071D01*
X123006667Y-44871071D02*
X122940000Y-44906785D01*
X122940000Y-44906785D02*
X122773333Y-44906785D01*
X122773333Y-44906785D02*
X122673333Y-44871071D01*
X122440000Y-44656785D02*
X122273333Y-44156785D01*
X122273333Y-44156785D02*
X122106666Y-44656785D01*
X121506667Y-44906785D02*
X121840000Y-44906785D01*
X121840000Y-44906785D02*
X121873333Y-44549642D01*
X121873333Y-44549642D02*
X121840000Y-44585357D01*
X121840000Y-44585357D02*
X121773333Y-44621071D01*
X121773333Y-44621071D02*
X121606667Y-44621071D01*
X121606667Y-44621071D02*
X121540000Y-44585357D01*
X121540000Y-44585357D02*
X121506667Y-44549642D01*
X121506667Y-44549642D02*
X121473333Y-44478214D01*
X121473333Y-44478214D02*
X121473333Y-44299642D01*
X121473333Y-44299642D02*
X121506667Y-44228214D01*
X121506667Y-44228214D02*
X121540000Y-44192500D01*
X121540000Y-44192500D02*
X121606667Y-44156785D01*
X121606667Y-44156785D02*
X121773333Y-44156785D01*
X121773333Y-44156785D02*
X121840000Y-44192500D01*
X121840000Y-44192500D02*
X121873333Y-44228214D01*
X121173333Y-44228214D02*
X121140000Y-44192500D01*
X121140000Y-44192500D02*
X121173333Y-44156785D01*
X121173333Y-44156785D02*
X121206666Y-44192500D01*
X121206666Y-44192500D02*
X121173333Y-44228214D01*
X121173333Y-44228214D02*
X121173333Y-44156785D01*
X120706667Y-44906785D02*
X120640000Y-44906785D01*
X120640000Y-44906785D02*
X120573333Y-44871071D01*
X120573333Y-44871071D02*
X120540000Y-44835357D01*
X120540000Y-44835357D02*
X120506667Y-44763928D01*
X120506667Y-44763928D02*
X120473333Y-44621071D01*
X120473333Y-44621071D02*
X120473333Y-44442500D01*
X120473333Y-44442500D02*
X120506667Y-44299642D01*
X120506667Y-44299642D02*
X120540000Y-44228214D01*
X120540000Y-44228214D02*
X120573333Y-44192500D01*
X120573333Y-44192500D02*
X120640000Y-44156785D01*
X120640000Y-44156785D02*
X120706667Y-44156785D01*
X120706667Y-44156785D02*
X120773333Y-44192500D01*
X120773333Y-44192500D02*
X120806667Y-44228214D01*
X120806667Y-44228214D02*
X120840000Y-44299642D01*
X120840000Y-44299642D02*
X120873333Y-44442500D01*
X120873333Y-44442500D02*
X120873333Y-44621071D01*
X120873333Y-44621071D02*
X120840000Y-44763928D01*
X120840000Y-44763928D02*
X120806667Y-44835357D01*
X120806667Y-44835357D02*
X120773333Y-44871071D01*
X120773333Y-44871071D02*
X120706667Y-44906785D01*
X124540001Y-42941785D02*
X124940001Y-42941785D01*
X124740001Y-42941785D02*
X124740001Y-43691785D01*
X124740001Y-43691785D02*
X124806668Y-43584642D01*
X124806668Y-43584642D02*
X124873335Y-43513214D01*
X124873335Y-43513214D02*
X124940001Y-43477500D01*
X124106668Y-43691785D02*
X124040001Y-43691785D01*
X124040001Y-43691785D02*
X123973334Y-43656071D01*
X123973334Y-43656071D02*
X123940001Y-43620357D01*
X123940001Y-43620357D02*
X123906668Y-43548928D01*
X123906668Y-43548928D02*
X123873334Y-43406071D01*
X123873334Y-43406071D02*
X123873334Y-43227500D01*
X123873334Y-43227500D02*
X123906668Y-43084642D01*
X123906668Y-43084642D02*
X123940001Y-43013214D01*
X123940001Y-43013214D02*
X123973334Y-42977500D01*
X123973334Y-42977500D02*
X124040001Y-42941785D01*
X124040001Y-42941785D02*
X124106668Y-42941785D01*
X124106668Y-42941785D02*
X124173334Y-42977500D01*
X124173334Y-42977500D02*
X124206668Y-43013214D01*
X124206668Y-43013214D02*
X124240001Y-43084642D01*
X124240001Y-43084642D02*
X124273334Y-43227500D01*
X124273334Y-43227500D02*
X124273334Y-43406071D01*
X124273334Y-43406071D02*
X124240001Y-43548928D01*
X124240001Y-43548928D02*
X124206668Y-43620357D01*
X124206668Y-43620357D02*
X124173334Y-43656071D01*
X124173334Y-43656071D02*
X124106668Y-43691785D01*
X123073334Y-43727500D02*
X123673334Y-42763214D01*
X122873334Y-43620357D02*
X122840001Y-43656071D01*
X122840001Y-43656071D02*
X122773334Y-43691785D01*
X122773334Y-43691785D02*
X122606668Y-43691785D01*
X122606668Y-43691785D02*
X122540001Y-43656071D01*
X122540001Y-43656071D02*
X122506668Y-43620357D01*
X122506668Y-43620357D02*
X122473334Y-43548928D01*
X122473334Y-43548928D02*
X122473334Y-43477500D01*
X122473334Y-43477500D02*
X122506668Y-43370357D01*
X122506668Y-43370357D02*
X122906668Y-42941785D01*
X122906668Y-42941785D02*
X122473334Y-42941785D01*
X122040001Y-43691785D02*
X121973334Y-43691785D01*
X121973334Y-43691785D02*
X121906667Y-43656071D01*
X121906667Y-43656071D02*
X121873334Y-43620357D01*
X121873334Y-43620357D02*
X121840001Y-43548928D01*
X121840001Y-43548928D02*
X121806667Y-43406071D01*
X121806667Y-43406071D02*
X121806667Y-43227500D01*
X121806667Y-43227500D02*
X121840001Y-43084642D01*
X121840001Y-43084642D02*
X121873334Y-43013214D01*
X121873334Y-43013214D02*
X121906667Y-42977500D01*
X121906667Y-42977500D02*
X121973334Y-42941785D01*
X121973334Y-42941785D02*
X122040001Y-42941785D01*
X122040001Y-42941785D02*
X122106667Y-42977500D01*
X122106667Y-42977500D02*
X122140001Y-43013214D01*
X122140001Y-43013214D02*
X122173334Y-43084642D01*
X122173334Y-43084642D02*
X122206667Y-43227500D01*
X122206667Y-43227500D02*
X122206667Y-43406071D01*
X122206667Y-43406071D02*
X122173334Y-43548928D01*
X122173334Y-43548928D02*
X122140001Y-43620357D01*
X122140001Y-43620357D02*
X122106667Y-43656071D01*
X122106667Y-43656071D02*
X122040001Y-43691785D01*
X121540000Y-43620357D02*
X121506667Y-43656071D01*
X121506667Y-43656071D02*
X121440000Y-43691785D01*
X121440000Y-43691785D02*
X121273334Y-43691785D01*
X121273334Y-43691785D02*
X121206667Y-43656071D01*
X121206667Y-43656071D02*
X121173334Y-43620357D01*
X121173334Y-43620357D02*
X121140000Y-43548928D01*
X121140000Y-43548928D02*
X121140000Y-43477500D01*
X121140000Y-43477500D02*
X121173334Y-43370357D01*
X121173334Y-43370357D02*
X121573334Y-42941785D01*
X121573334Y-42941785D02*
X121140000Y-42941785D01*
X120906667Y-43691785D02*
X120473333Y-43691785D01*
X120473333Y-43691785D02*
X120706667Y-43406071D01*
X120706667Y-43406071D02*
X120606667Y-43406071D01*
X120606667Y-43406071D02*
X120540000Y-43370357D01*
X120540000Y-43370357D02*
X120506667Y-43334642D01*
X120506667Y-43334642D02*
X120473333Y-43263214D01*
X120473333Y-43263214D02*
X120473333Y-43084642D01*
X120473333Y-43084642D02*
X120506667Y-43013214D01*
X120506667Y-43013214D02*
X120540000Y-42977500D01*
X120540000Y-42977500D02*
X120606667Y-42941785D01*
X120606667Y-42941785D02*
X120806667Y-42941785D01*
X120806667Y-42941785D02*
X120873333Y-42977500D01*
X120873333Y-42977500D02*
X120906667Y-43013214D01*
%TO.C,BT1*%
X119327600Y-50794530D02*
X119327600Y-49651673D01*
X119327600Y-61794530D02*
X119327600Y-60651673D01*
X119899028Y-61223101D02*
X118756171Y-61223101D01*
D11*
%TO.C,U10*%
X118348400Y-66897102D02*
X116341800Y-66897102D01*
X116341800Y-70199102D02*
X118348400Y-70199102D01*
%TO.C,U7*%
X138403300Y-71149400D02*
X136396700Y-71149400D01*
X136396700Y-74400600D02*
X138403300Y-74400600D01*
D12*
%TO.C,R20*%
X129155000Y-50091359D02*
X129155000Y-50398641D01*
X128395000Y-50091359D02*
X128395000Y-50398641D01*
%TO.C,C35*%
X128195000Y-56244420D02*
X128195000Y-56525580D01*
X129215000Y-56244420D02*
X129215000Y-56525580D01*
%TO.C,R18*%
X131215000Y-53198641D02*
X131215000Y-52891359D01*
X131975000Y-53198641D02*
X131975000Y-52891359D01*
%TO.C,C1*%
X124297836Y-64185600D02*
X124082164Y-64185600D01*
X124297836Y-63465600D02*
X124082164Y-63465600D01*
%TO.C,C25*%
X139763000Y-61966319D02*
X139763000Y-62247479D01*
X138743000Y-61966319D02*
X138743000Y-62247479D01*
D11*
%TO.C,SW3*%
X114541600Y-80082002D02*
X114541600Y-74824202D01*
X114541600Y-74824202D02*
X113629740Y-74824202D01*
X111770460Y-74824202D02*
X108549740Y-74824202D01*
X111089740Y-80082002D02*
X114541600Y-80082002D01*
X106690460Y-74824202D02*
X105778600Y-74824202D01*
X105778600Y-80082002D02*
X109230460Y-80082002D01*
X105778600Y-74824202D02*
X105778600Y-80082002D01*
D13*
X116700600Y-75255001D02*
G75*
G03*
X116700600Y-75255001I-381000J0D01*
G01*
D12*
%TO.C,C42*%
X141059420Y-74015000D02*
X141340580Y-74015000D01*
X141059420Y-75035000D02*
X141340580Y-75035000D01*
%TO.C,L1*%
X140583000Y-62238963D02*
X140583000Y-61034835D01*
X143303000Y-62238963D02*
X143303000Y-61034835D01*
%TO.C,U1*%
X133990000Y-70458100D02*
X133340000Y-70458100D01*
X126770000Y-69808100D02*
X126770000Y-70458100D01*
X133990000Y-69808100D02*
X133990000Y-70458100D01*
X126770000Y-63888100D02*
X126770000Y-63238100D01*
X133990000Y-63888100D02*
X133990000Y-63238100D01*
X126770000Y-63238100D02*
X127420000Y-63238100D01*
X133990000Y-63238100D02*
X133340000Y-63238100D01*
%TO.C,R24*%
X143052500Y-47137258D02*
X143052500Y-46662742D01*
X144097500Y-47137258D02*
X144097500Y-46662742D01*
%TO.C,R19*%
X132275000Y-50688641D02*
X132275000Y-50381359D01*
X133035000Y-50688641D02*
X133035000Y-50381359D01*
%TO.C,C37*%
X129635000Y-53142836D02*
X129635000Y-52927164D01*
X130355000Y-53142836D02*
X130355000Y-52927164D01*
%TO.C,R5*%
X135607836Y-67425600D02*
X135392164Y-67425600D01*
X135607836Y-66705600D02*
X135392164Y-66705600D01*
%TO.C,C43*%
X141084420Y-72390000D02*
X141365580Y-72390000D01*
X141084420Y-73410000D02*
X141365580Y-73410000D01*
%TO.C,C36*%
X129215000Y-53425580D02*
X129215000Y-53144420D01*
X128195000Y-53425580D02*
X128195000Y-53144420D01*
%TO.C,R17*%
X127577500Y-51697258D02*
X127577500Y-51222742D01*
X126532500Y-51697258D02*
X126532500Y-51222742D01*
%TO.C,C21*%
X133403000Y-52896319D02*
X133403000Y-53177479D01*
X132383000Y-52896319D02*
X132383000Y-53177479D01*
%TO.C,R33*%
X135160500Y-61839157D02*
X135160500Y-61364641D01*
X136205500Y-61839157D02*
X136205500Y-61364641D01*
%TO.C,J2*%
X109795100Y-63928102D02*
X111595100Y-63928102D01*
X107695100Y-63928102D02*
X106545100Y-63928102D01*
X109795100Y-73268102D02*
X111595100Y-73268102D01*
X107695100Y-73268102D02*
X106545100Y-73268102D01*
%TO.C,R34*%
X133410258Y-54884399D02*
X132935742Y-54884399D01*
X133410258Y-55929399D02*
X132935742Y-55929399D01*
%TO.C,L2*%
X143293000Y-56274835D02*
X143293000Y-57478963D01*
X140573000Y-56274835D02*
X140573000Y-57478963D01*
%TO.C,C9*%
X130770000Y-61863436D02*
X130770000Y-61647764D01*
X131490000Y-61863436D02*
X131490000Y-61647764D01*
%TO.C,C20*%
X142663000Y-52843151D02*
X142663000Y-51420647D01*
X144483000Y-52843151D02*
X144483000Y-51420647D01*
%TO.C,Q1*%
X117707500Y-71790000D02*
X115907500Y-71790000D01*
X117707500Y-71790000D02*
X118507500Y-71790000D01*
X117707500Y-74910000D02*
X116907500Y-74910000D01*
X117707500Y-74910000D02*
X118507500Y-74910000D01*
%TO.C,C28*%
X148665000Y-57561252D02*
X148665000Y-56138748D01*
X150485000Y-57561252D02*
X150485000Y-56138748D01*
%TO.C,C39*%
X139965000Y-47040580D02*
X139965000Y-46759420D01*
X140985000Y-47040580D02*
X140985000Y-46759420D01*
D14*
%TO.C,U6*%
X127430000Y-56210002D02*
X127430000Y-55985001D01*
X127430000Y-53685001D02*
X127430000Y-53460000D01*
X125130000Y-56210002D02*
X125130000Y-55985001D01*
D12*
%TO.C,C13*%
X136330000Y-68397764D02*
X136330000Y-68613436D01*
X135610000Y-68397764D02*
X135610000Y-68613436D01*
D15*
%TO.C,J3*%
X113695000Y-43691000D02*
X113695000Y-44580000D01*
X112425000Y-43691000D02*
X112425000Y-44580000D01*
X113695000Y-43691000D02*
G75*
G03*
X112425000Y-43691000I-635000J0D01*
G01*
D12*
%TO.C,C33*%
X125940000Y-51600580D02*
X125940000Y-51319420D01*
X124920000Y-51600580D02*
X124920000Y-51319420D01*
%TO.C,C23*%
X135368580Y-54306899D02*
X135087420Y-54306899D01*
X135368580Y-53286899D02*
X135087420Y-53286899D01*
%TO.C,J1*%
X115195000Y-82195000D02*
X116145000Y-82195000D01*
X115195000Y-82645000D02*
X115195000Y-82195000D01*
X115195000Y-86165000D02*
X115195000Y-86615000D01*
X115195000Y-86615000D02*
X129665000Y-86615000D01*
X116145000Y-82195000D02*
X116145000Y-80705000D01*
X129665000Y-82195000D02*
X128715000Y-82195000D01*
X129665000Y-82645000D02*
X129665000Y-82195000D01*
X129665000Y-86615000D02*
X129665000Y-86165000D01*
%TO.C,R14*%
X148927500Y-51662258D02*
X148927500Y-51187742D01*
X149972500Y-51662258D02*
X149972500Y-51187742D01*
%TO.C,C10*%
X131780000Y-71837764D02*
X131780000Y-72053436D01*
X131060000Y-71837764D02*
X131060000Y-72053436D01*
%TO.C,R22*%
X126027500Y-58272258D02*
X126027500Y-57797742D01*
X124982500Y-58272258D02*
X124982500Y-57797742D01*
%TO.C,C26*%
X121509420Y-63065000D02*
X121790580Y-63065000D01*
X121509420Y-64085000D02*
X121790580Y-64085000D01*
%TO.C,R10*%
X145362258Y-59022500D02*
X144887742Y-59022500D01*
X145362258Y-57977500D02*
X144887742Y-57977500D01*
%TO.C,SW1*%
X141500000Y-67075000D02*
X141600000Y-67075000D01*
X140000000Y-67075000D02*
X140000000Y-71475000D01*
X143100000Y-68125000D02*
X143100000Y-67075000D01*
X143100000Y-71475000D02*
X143100000Y-70425000D01*
X141500000Y-71475000D02*
X141600000Y-71475000D01*
%TO.C,C6*%
X123035000Y-67917164D02*
X123035000Y-68132836D01*
X122315000Y-67917164D02*
X122315000Y-68132836D01*
D11*
%TO.C,SW2*%
X136107100Y-81496600D02*
X136107100Y-78753400D01*
X136107100Y-78753400D02*
X135763341Y-78753400D01*
X134286662Y-78753400D02*
X132263338Y-78753400D01*
X134013340Y-81496600D02*
X136107100Y-81496600D01*
X130786659Y-78753400D02*
X130442900Y-78753400D01*
X130442900Y-81496600D02*
X132536660Y-81496600D01*
X130442900Y-78753400D02*
X130442900Y-81496600D01*
X135101200Y-76717501D02*
G75*
G03*
X135101200Y-76717501I-76200J0D01*
G01*
D12*
%TO.C,R23*%
X123367258Y-58262500D02*
X122892742Y-58262500D01*
X123367258Y-59307500D02*
X122892742Y-59307500D01*
%TO.C,C38*%
X150435000Y-60988748D02*
X150435000Y-62411252D01*
X148615000Y-60988748D02*
X148615000Y-62411252D01*
%TO.C,R15*%
X127627500Y-58272258D02*
X127627500Y-57797742D01*
X126582500Y-58272258D02*
X126582500Y-57797742D01*
%TO.C,C3*%
X137322164Y-64255600D02*
X137537836Y-64255600D01*
X137322164Y-64975600D02*
X137537836Y-64975600D01*
%TO.C,C12*%
X122085000Y-67907764D02*
X122085000Y-68123436D01*
X121365000Y-67907764D02*
X121365000Y-68123436D01*
%TO.C,Y1*%
X139420000Y-67180600D02*
X136620000Y-67180600D01*
X136620000Y-67180600D02*
X136620000Y-70480600D01*
%TO.C,R32*%
X134990742Y-51674399D02*
X135465258Y-51674399D01*
X134990742Y-52719399D02*
X135465258Y-52719399D01*
%TO.C,C15*%
X132850000Y-59274420D02*
X132850000Y-59555580D01*
X131830000Y-59274420D02*
X131830000Y-59555580D01*
%TO.C,C17*%
X139092420Y-53236899D02*
X139373580Y-53236899D01*
X139092420Y-54256899D02*
X139373580Y-54256899D01*
%TO.C,C19*%
X139122420Y-49986899D02*
X139403580Y-49986899D01*
X139122420Y-51006899D02*
X139403580Y-51006899D01*
%TO.C,C11*%
X137322164Y-65235600D02*
X137537836Y-65235600D01*
X137322164Y-65955600D02*
X137537836Y-65955600D01*
%TO.C,BT1*%
X108095100Y-61373102D02*
X108095100Y-60783102D01*
X110315100Y-61373102D02*
X110315100Y-60783102D01*
X105995100Y-60783102D02*
X108095100Y-60783102D01*
X105995100Y-60783102D02*
X105995100Y-50663102D01*
X110315100Y-60783102D02*
X115215100Y-60783102D01*
X115215100Y-60783102D02*
X115215100Y-50663102D01*
X105995100Y-50663102D02*
X108095100Y-50663102D01*
X108095100Y-50663102D02*
X108095100Y-50073102D01*
X110315100Y-50663102D02*
X115215100Y-50663102D01*
X110315100Y-50663102D02*
X110315100Y-50073102D01*
X108095100Y-61373102D02*
G75*
G03*
X110315100Y-61373102I1110000J0D01*
G01*
X110315100Y-50073102D02*
G75*
G03*
X108095100Y-50073102I-1110000J0D01*
G01*
%TO.C,L4*%
X146527064Y-63735000D02*
X145322936Y-63735000D01*
X146527064Y-61015000D02*
X145322936Y-61015000D01*
%TO.C,R29*%
X136810500Y-61824157D02*
X136810500Y-61349641D01*
X137855500Y-61824157D02*
X137855500Y-61349641D01*
D11*
%TO.C,U8*%
X131902000Y-51467000D02*
X131902000Y-49113000D01*
X129548000Y-49113000D02*
X129548000Y-51467000D01*
X130151172Y-51977541D02*
G75*
G03*
X130298828Y-51977541I73828J-18859D01*
G01*
D12*
%TO.C,C16*%
X141884252Y-66061899D02*
X140461748Y-66061899D01*
X141884252Y-64241899D02*
X140461748Y-64241899D01*
%TO.C,C2*%
X124297836Y-63175600D02*
X124082164Y-63175600D01*
X124297836Y-62455600D02*
X124082164Y-62455600D01*
%TO.C,R2*%
X124036359Y-65455600D02*
X124343641Y-65455600D01*
X124036359Y-66215600D02*
X124343641Y-66215600D01*
%TO.C,R16*%
X129217742Y-59282500D02*
X129692258Y-59282500D01*
X129217742Y-58237500D02*
X129692258Y-58237500D01*
%TO.C,C14*%
X137322164Y-66235600D02*
X137537836Y-66235600D01*
X137322164Y-66955600D02*
X137537836Y-66955600D01*
%TO.C,U5*%
G36*
X134700501Y-58737401D02*
G01*
X134446501Y-58737401D01*
X134446501Y-58356401D01*
X134700501Y-58356401D01*
X134700501Y-58737401D01*
G37*
G36*
X140050299Y-57237399D02*
G01*
X139796299Y-57237399D01*
X139796299Y-56856399D01*
X140050299Y-56856399D01*
X140050299Y-57237399D01*
G37*
%TO.C,C30*%
X139360000Y-76059420D02*
X139360000Y-76340580D01*
X138340000Y-76059420D02*
X138340000Y-76340580D01*
%TO.C,R4*%
X131662258Y-76647500D02*
X131187742Y-76647500D01*
X131662258Y-75602500D02*
X131187742Y-75602500D01*
%TO.C,C41*%
X134715580Y-75660000D02*
X134434420Y-75660000D01*
X134715580Y-74640000D02*
X134434420Y-74640000D01*
%TO.C,C5*%
X127340000Y-71887764D02*
X127340000Y-72103436D01*
X126620000Y-71887764D02*
X126620000Y-72103436D01*
%TO.C,R21*%
X141502500Y-47137258D02*
X141502500Y-46662742D01*
X142547500Y-47137258D02*
X142547500Y-46662742D01*
%TO.C,R12*%
X115395000Y-77027258D02*
X115395000Y-76552742D01*
X116440000Y-77027258D02*
X116440000Y-76552742D01*
%TO.C,R27*%
X139480258Y-52659399D02*
X139005742Y-52659399D01*
X139480258Y-51614399D02*
X139005742Y-51614399D01*
%TO.C,C4*%
X124157836Y-68485600D02*
X123942164Y-68485600D01*
X124157836Y-67765600D02*
X123942164Y-67765600D01*
%TO.C,R1*%
X124036359Y-64455600D02*
X124343641Y-64455600D01*
X124036359Y-65215600D02*
X124343641Y-65215600D01*
%TO.C,C32*%
X126330000Y-61803436D02*
X126330000Y-61587764D01*
X127050000Y-61803436D02*
X127050000Y-61587764D01*
%TO.C,D1*%
X119852500Y-76685000D02*
X119852500Y-75215000D01*
X119852500Y-75215000D02*
X117567500Y-75215000D01*
X117567500Y-76685000D02*
X119852500Y-76685000D01*
%TO.C,C34*%
X123370000Y-56269420D02*
X123370000Y-56550580D01*
X124390000Y-56269420D02*
X124390000Y-56550580D01*
%TO.C,R13*%
X145362258Y-60497500D02*
X144887742Y-60497500D01*
X145362258Y-59452500D02*
X144887742Y-59452500D01*
%TO.C,C40*%
X138415000Y-47040580D02*
X138415000Y-46759420D01*
X139435000Y-47040580D02*
X139435000Y-46759420D01*
%TO.C,C27*%
X121509420Y-61540000D02*
X121790580Y-61540000D01*
X121509420Y-62560000D02*
X121790580Y-62560000D01*
%TO.C,C24*%
X135383580Y-51076899D02*
X135102420Y-51076899D01*
X135383580Y-50056899D02*
X135102420Y-50056899D01*
%TO.C,C7*%
X119142836Y-71395000D02*
X118927164Y-71395000D01*
X119142836Y-70675000D02*
X118927164Y-70675000D01*
D11*
%TO.C,AE2*%
X151669600Y-75461450D02*
X151669600Y-70488550D01*
X149180400Y-70488550D02*
X149180400Y-75461450D01*
D12*
%TO.C,L3*%
X146577064Y-57485000D02*
X145372936Y-57485000D01*
X146577064Y-54765000D02*
X145372936Y-54765000D01*
%TO.C,D2*%
X148425000Y-49940000D02*
X146425000Y-49940000D01*
X148425000Y-49940000D02*
X148425000Y-53800000D01*
X146425000Y-49940000D02*
X146425000Y-53800000D01*
%TO.C,C18*%
X142113000Y-52836319D02*
X142113000Y-53117479D01*
X141093000Y-52836319D02*
X141093000Y-53117479D01*
%TO.C,R11*%
X134872500Y-72537742D02*
X134872500Y-73012258D01*
X133827500Y-72537742D02*
X133827500Y-73012258D01*
%TO.C,C8*%
X125300000Y-61803436D02*
X125300000Y-61587764D01*
X126020000Y-61803436D02*
X126020000Y-61587764D01*
%TO.C,C22*%
X134380000Y-58714420D02*
X134380000Y-58995580D01*
X133360000Y-58714420D02*
X133360000Y-58995580D01*
%TO.C,R3*%
X118594758Y-78112500D02*
X118120242Y-78112500D01*
X118594758Y-77067500D02*
X118120242Y-77067500D01*
D11*
%TO.C,U2*%
X120405300Y-75875800D02*
X120631360Y-75875800D01*
X121728640Y-75875800D02*
X121901360Y-75875800D01*
X122998640Y-75875800D02*
X123171360Y-75875800D01*
X124268640Y-75875800D02*
X124441360Y-75875800D01*
X125538640Y-75875800D02*
X125764700Y-75875800D01*
X125764700Y-75875800D02*
X125764700Y-69525800D01*
X120405300Y-69525800D02*
X120405300Y-75875800D01*
X120631360Y-69525800D02*
X120405300Y-69525800D01*
X121901360Y-69525800D02*
X121728640Y-69525800D01*
X123171360Y-69525800D02*
X122998640Y-69525800D01*
X124441360Y-69525800D02*
X124268640Y-69525800D01*
X125764700Y-69525800D02*
X125538640Y-69525800D01*
X121281600Y-77374400D02*
G75*
G03*
X121281600Y-77374400I-101600J0D01*
G01*
D14*
%TO.C,U9*%
X121550000Y-51980000D02*
X121550000Y-52229999D01*
X123950000Y-51980000D02*
X123950000Y-52830000D01*
X121550000Y-53830001D02*
X121550000Y-54080000D01*
X123950000Y-53830001D02*
X123950000Y-54080000D01*
%TD*%
M02*
