%TF.GenerationSoftware,KiCad,Pcbnew,7.0.2*%
%TF.CreationDate,2023-10-17T14:13:22-04:00*%
%TF.ProjectId,BITSv5,42495453-7635-42e6-9b69-6361645f7063,rev?*%
%TF.SameCoordinates,Original*%
%TF.FileFunction,Drillmap*%
%TF.FilePolarity,Positive*%
%FSLAX45Y45*%
G04 Gerber Fmt 4.5, Leading zero omitted, Abs format (unit mm)*
G04 Created by KiCad (PCBNEW 7.0.2) date 2023-10-17 14:13:22*
%MOMM*%
%LPD*%
G01*
G04 APERTURE LIST*
%ADD10C,0.100000*%
%ADD11C,0.200000*%
%ADD12C,0.065000*%
%ADD13C,0.070000*%
%ADD14C,0.088900*%
G04 APERTURE END LIST*
D10*
X10822500Y-4220000D02*
X14922500Y-4220000D01*
X10822500Y-4220000D02*
G75*
G03*
X10522500Y-4520000I0J-300000D01*
G01*
X10522500Y-8420000D02*
X10522500Y-4520000D01*
X14922500Y-8720000D02*
G75*
G03*
X15222500Y-8420000I0J300000D01*
G01*
X15222500Y-8420000D02*
X15222500Y-4520000D01*
X14922500Y-8720000D02*
X10822500Y-8720000D01*
X10522500Y-8420000D02*
G75*
G03*
X10822500Y-8720000I300000J0D01*
G01*
X15222500Y-4520000D02*
G75*
G03*
X14922500Y-4220000I-300000J0D01*
G01*
D11*
D12*
X11207510Y-6538310D02*
X11272510Y-6603310D01*
X11272510Y-6538310D02*
X11207510Y-6603310D01*
X11207510Y-7116310D02*
X11272510Y-7181310D01*
X11272510Y-7116310D02*
X11207510Y-7181310D01*
D13*
X11277500Y-4521500D02*
G75*
G03*
X11277500Y-4521500I-35000J0D01*
G01*
X11404500Y-4521500D02*
G75*
G03*
X11404500Y-4521500I-35000J0D01*
G01*
X11531500Y-4521500D02*
G75*
G03*
X11531500Y-4521500I-35000J0D01*
G01*
X11658500Y-4521500D02*
G75*
G03*
X11658500Y-4521500I-35000J0D01*
G01*
X11785500Y-4521500D02*
G75*
G03*
X11785500Y-4521500I-35000J0D01*
G01*
D14*
X10676010Y-7701050D02*
X10676010Y-7789950D01*
X10631560Y-7745500D02*
X10720460Y-7745500D01*
X11356010Y-7701050D02*
X11356010Y-7789950D01*
X11311560Y-7745500D02*
X11400460Y-7745500D01*
D11*
X10765119Y-9037524D02*
X10765119Y-8837524D01*
X10765119Y-8837524D02*
X10812738Y-8837524D01*
X10812738Y-8837524D02*
X10841310Y-8847048D01*
X10841310Y-8847048D02*
X10860357Y-8866095D01*
X10860357Y-8866095D02*
X10869881Y-8885143D01*
X10869881Y-8885143D02*
X10879405Y-8923238D01*
X10879405Y-8923238D02*
X10879405Y-8951810D01*
X10879405Y-8951810D02*
X10869881Y-8989905D01*
X10869881Y-8989905D02*
X10860357Y-9008952D01*
X10860357Y-9008952D02*
X10841310Y-9028000D01*
X10841310Y-9028000D02*
X10812738Y-9037524D01*
X10812738Y-9037524D02*
X10765119Y-9037524D01*
X10965119Y-9037524D02*
X10965119Y-8904190D01*
X10965119Y-8942286D02*
X10974643Y-8923238D01*
X10974643Y-8923238D02*
X10984167Y-8913714D01*
X10984167Y-8913714D02*
X11003214Y-8904190D01*
X11003214Y-8904190D02*
X11022262Y-8904190D01*
X11088929Y-9037524D02*
X11088929Y-8904190D01*
X11088929Y-8837524D02*
X11079405Y-8847048D01*
X11079405Y-8847048D02*
X11088929Y-8856571D01*
X11088929Y-8856571D02*
X11098452Y-8847048D01*
X11098452Y-8847048D02*
X11088929Y-8837524D01*
X11088929Y-8837524D02*
X11088929Y-8856571D01*
X11212738Y-9037524D02*
X11193690Y-9028000D01*
X11193690Y-9028000D02*
X11184167Y-9008952D01*
X11184167Y-9008952D02*
X11184167Y-8837524D01*
X11317500Y-9037524D02*
X11298452Y-9028000D01*
X11298452Y-9028000D02*
X11288928Y-9008952D01*
X11288928Y-9008952D02*
X11288928Y-8837524D01*
X11546071Y-9037524D02*
X11546071Y-8837524D01*
X11546071Y-8837524D02*
X11612738Y-8980381D01*
X11612738Y-8980381D02*
X11679405Y-8837524D01*
X11679405Y-8837524D02*
X11679405Y-9037524D01*
X11860357Y-9037524D02*
X11860357Y-8932762D01*
X11860357Y-8932762D02*
X11850833Y-8913714D01*
X11850833Y-8913714D02*
X11831786Y-8904190D01*
X11831786Y-8904190D02*
X11793690Y-8904190D01*
X11793690Y-8904190D02*
X11774643Y-8913714D01*
X11860357Y-9028000D02*
X11841309Y-9037524D01*
X11841309Y-9037524D02*
X11793690Y-9037524D01*
X11793690Y-9037524D02*
X11774643Y-9028000D01*
X11774643Y-9028000D02*
X11765119Y-9008952D01*
X11765119Y-9008952D02*
X11765119Y-8989905D01*
X11765119Y-8989905D02*
X11774643Y-8970857D01*
X11774643Y-8970857D02*
X11793690Y-8961333D01*
X11793690Y-8961333D02*
X11841309Y-8961333D01*
X11841309Y-8961333D02*
X11860357Y-8951810D01*
X11955595Y-8904190D02*
X11955595Y-9104190D01*
X11955595Y-8913714D02*
X11974643Y-8904190D01*
X11974643Y-8904190D02*
X12012738Y-8904190D01*
X12012738Y-8904190D02*
X12031786Y-8913714D01*
X12031786Y-8913714D02*
X12041309Y-8923238D01*
X12041309Y-8923238D02*
X12050833Y-8942286D01*
X12050833Y-8942286D02*
X12050833Y-8999429D01*
X12050833Y-8999429D02*
X12041309Y-9018476D01*
X12041309Y-9018476D02*
X12031786Y-9028000D01*
X12031786Y-9028000D02*
X12012738Y-9037524D01*
X12012738Y-9037524D02*
X11974643Y-9037524D01*
X11974643Y-9037524D02*
X11955595Y-9028000D01*
X12136548Y-9018476D02*
X12146071Y-9028000D01*
X12146071Y-9028000D02*
X12136548Y-9037524D01*
X12136548Y-9037524D02*
X12127024Y-9028000D01*
X12127024Y-9028000D02*
X12136548Y-9018476D01*
X12136548Y-9018476D02*
X12136548Y-9037524D01*
X12136548Y-8913714D02*
X12146071Y-8923238D01*
X12146071Y-8923238D02*
X12136548Y-8932762D01*
X12136548Y-8932762D02*
X12127024Y-8923238D01*
X12127024Y-8923238D02*
X12136548Y-8913714D01*
X12136548Y-8913714D02*
X12136548Y-8932762D01*
D12*
X10452500Y-9332500D02*
X10517500Y-9397500D01*
X10517500Y-9332500D02*
X10452500Y-9397500D01*
D11*
X10803214Y-9257524D02*
X10822262Y-9257524D01*
X10822262Y-9257524D02*
X10841310Y-9267048D01*
X10841310Y-9267048D02*
X10850833Y-9276571D01*
X10850833Y-9276571D02*
X10860357Y-9295619D01*
X10860357Y-9295619D02*
X10869881Y-9333714D01*
X10869881Y-9333714D02*
X10869881Y-9381333D01*
X10869881Y-9381333D02*
X10860357Y-9419429D01*
X10860357Y-9419429D02*
X10850833Y-9438476D01*
X10850833Y-9438476D02*
X10841310Y-9448000D01*
X10841310Y-9448000D02*
X10822262Y-9457524D01*
X10822262Y-9457524D02*
X10803214Y-9457524D01*
X10803214Y-9457524D02*
X10784167Y-9448000D01*
X10784167Y-9448000D02*
X10774643Y-9438476D01*
X10774643Y-9438476D02*
X10765119Y-9419429D01*
X10765119Y-9419429D02*
X10755595Y-9381333D01*
X10755595Y-9381333D02*
X10755595Y-9333714D01*
X10755595Y-9333714D02*
X10765119Y-9295619D01*
X10765119Y-9295619D02*
X10774643Y-9276571D01*
X10774643Y-9276571D02*
X10784167Y-9267048D01*
X10784167Y-9267048D02*
X10803214Y-9257524D01*
X10955595Y-9438476D02*
X10965119Y-9448000D01*
X10965119Y-9448000D02*
X10955595Y-9457524D01*
X10955595Y-9457524D02*
X10946071Y-9448000D01*
X10946071Y-9448000D02*
X10955595Y-9438476D01*
X10955595Y-9438476D02*
X10955595Y-9457524D01*
X11136548Y-9257524D02*
X11098452Y-9257524D01*
X11098452Y-9257524D02*
X11079405Y-9267048D01*
X11079405Y-9267048D02*
X11069881Y-9276571D01*
X11069881Y-9276571D02*
X11050833Y-9305143D01*
X11050833Y-9305143D02*
X11041310Y-9343238D01*
X11041310Y-9343238D02*
X11041310Y-9419429D01*
X11041310Y-9419429D02*
X11050833Y-9438476D01*
X11050833Y-9438476D02*
X11060357Y-9448000D01*
X11060357Y-9448000D02*
X11079405Y-9457524D01*
X11079405Y-9457524D02*
X11117500Y-9457524D01*
X11117500Y-9457524D02*
X11136548Y-9448000D01*
X11136548Y-9448000D02*
X11146071Y-9438476D01*
X11146071Y-9438476D02*
X11155595Y-9419429D01*
X11155595Y-9419429D02*
X11155595Y-9371810D01*
X11155595Y-9371810D02*
X11146071Y-9352762D01*
X11146071Y-9352762D02*
X11136548Y-9343238D01*
X11136548Y-9343238D02*
X11117500Y-9333714D01*
X11117500Y-9333714D02*
X11079405Y-9333714D01*
X11079405Y-9333714D02*
X11060357Y-9343238D01*
X11060357Y-9343238D02*
X11050833Y-9352762D01*
X11050833Y-9352762D02*
X11041310Y-9371810D01*
X11336548Y-9257524D02*
X11241309Y-9257524D01*
X11241309Y-9257524D02*
X11231786Y-9352762D01*
X11231786Y-9352762D02*
X11241309Y-9343238D01*
X11241309Y-9343238D02*
X11260357Y-9333714D01*
X11260357Y-9333714D02*
X11307976Y-9333714D01*
X11307976Y-9333714D02*
X11327024Y-9343238D01*
X11327024Y-9343238D02*
X11336548Y-9352762D01*
X11336548Y-9352762D02*
X11346071Y-9371810D01*
X11346071Y-9371810D02*
X11346071Y-9419429D01*
X11346071Y-9419429D02*
X11336548Y-9438476D01*
X11336548Y-9438476D02*
X11327024Y-9448000D01*
X11327024Y-9448000D02*
X11307976Y-9457524D01*
X11307976Y-9457524D02*
X11260357Y-9457524D01*
X11260357Y-9457524D02*
X11241309Y-9448000D01*
X11241309Y-9448000D02*
X11231786Y-9438476D01*
X11469881Y-9257524D02*
X11488929Y-9257524D01*
X11488929Y-9257524D02*
X11507976Y-9267048D01*
X11507976Y-9267048D02*
X11517500Y-9276571D01*
X11517500Y-9276571D02*
X11527024Y-9295619D01*
X11527024Y-9295619D02*
X11536548Y-9333714D01*
X11536548Y-9333714D02*
X11536548Y-9381333D01*
X11536548Y-9381333D02*
X11527024Y-9419429D01*
X11527024Y-9419429D02*
X11517500Y-9438476D01*
X11517500Y-9438476D02*
X11507976Y-9448000D01*
X11507976Y-9448000D02*
X11488929Y-9457524D01*
X11488929Y-9457524D02*
X11469881Y-9457524D01*
X11469881Y-9457524D02*
X11450833Y-9448000D01*
X11450833Y-9448000D02*
X11441309Y-9438476D01*
X11441309Y-9438476D02*
X11431786Y-9419429D01*
X11431786Y-9419429D02*
X11422262Y-9381333D01*
X11422262Y-9381333D02*
X11422262Y-9333714D01*
X11422262Y-9333714D02*
X11431786Y-9295619D01*
X11431786Y-9295619D02*
X11441309Y-9276571D01*
X11441309Y-9276571D02*
X11450833Y-9267048D01*
X11450833Y-9267048D02*
X11469881Y-9257524D01*
X11622262Y-9457524D02*
X11622262Y-9324190D01*
X11622262Y-9343238D02*
X11631786Y-9333714D01*
X11631786Y-9333714D02*
X11650833Y-9324190D01*
X11650833Y-9324190D02*
X11679405Y-9324190D01*
X11679405Y-9324190D02*
X11698452Y-9333714D01*
X11698452Y-9333714D02*
X11707976Y-9352762D01*
X11707976Y-9352762D02*
X11707976Y-9457524D01*
X11707976Y-9352762D02*
X11717500Y-9333714D01*
X11717500Y-9333714D02*
X11736548Y-9324190D01*
X11736548Y-9324190D02*
X11765119Y-9324190D01*
X11765119Y-9324190D02*
X11784167Y-9333714D01*
X11784167Y-9333714D02*
X11793690Y-9352762D01*
X11793690Y-9352762D02*
X11793690Y-9457524D01*
X11888929Y-9457524D02*
X11888929Y-9324190D01*
X11888929Y-9343238D02*
X11898452Y-9333714D01*
X11898452Y-9333714D02*
X11917500Y-9324190D01*
X11917500Y-9324190D02*
X11946071Y-9324190D01*
X11946071Y-9324190D02*
X11965119Y-9333714D01*
X11965119Y-9333714D02*
X11974643Y-9352762D01*
X11974643Y-9352762D02*
X11974643Y-9457524D01*
X11974643Y-9352762D02*
X11984167Y-9333714D01*
X11984167Y-9333714D02*
X12003214Y-9324190D01*
X12003214Y-9324190D02*
X12031786Y-9324190D01*
X12031786Y-9324190D02*
X12050833Y-9333714D01*
X12050833Y-9333714D02*
X12060357Y-9352762D01*
X12060357Y-9352762D02*
X12060357Y-9457524D01*
X12450833Y-9248000D02*
X12279405Y-9505143D01*
X12707976Y-9257524D02*
X12727024Y-9257524D01*
X12727024Y-9257524D02*
X12746072Y-9267048D01*
X12746072Y-9267048D02*
X12755595Y-9276571D01*
X12755595Y-9276571D02*
X12765119Y-9295619D01*
X12765119Y-9295619D02*
X12774643Y-9333714D01*
X12774643Y-9333714D02*
X12774643Y-9381333D01*
X12774643Y-9381333D02*
X12765119Y-9419429D01*
X12765119Y-9419429D02*
X12755595Y-9438476D01*
X12755595Y-9438476D02*
X12746072Y-9448000D01*
X12746072Y-9448000D02*
X12727024Y-9457524D01*
X12727024Y-9457524D02*
X12707976Y-9457524D01*
X12707976Y-9457524D02*
X12688929Y-9448000D01*
X12688929Y-9448000D02*
X12679405Y-9438476D01*
X12679405Y-9438476D02*
X12669881Y-9419429D01*
X12669881Y-9419429D02*
X12660357Y-9381333D01*
X12660357Y-9381333D02*
X12660357Y-9333714D01*
X12660357Y-9333714D02*
X12669881Y-9295619D01*
X12669881Y-9295619D02*
X12679405Y-9276571D01*
X12679405Y-9276571D02*
X12688929Y-9267048D01*
X12688929Y-9267048D02*
X12707976Y-9257524D01*
X12860357Y-9438476D02*
X12869881Y-9448000D01*
X12869881Y-9448000D02*
X12860357Y-9457524D01*
X12860357Y-9457524D02*
X12850833Y-9448000D01*
X12850833Y-9448000D02*
X12860357Y-9438476D01*
X12860357Y-9438476D02*
X12860357Y-9457524D01*
X12993691Y-9257524D02*
X13012738Y-9257524D01*
X13012738Y-9257524D02*
X13031786Y-9267048D01*
X13031786Y-9267048D02*
X13041310Y-9276571D01*
X13041310Y-9276571D02*
X13050833Y-9295619D01*
X13050833Y-9295619D02*
X13060357Y-9333714D01*
X13060357Y-9333714D02*
X13060357Y-9381333D01*
X13060357Y-9381333D02*
X13050833Y-9419429D01*
X13050833Y-9419429D02*
X13041310Y-9438476D01*
X13041310Y-9438476D02*
X13031786Y-9448000D01*
X13031786Y-9448000D02*
X13012738Y-9457524D01*
X13012738Y-9457524D02*
X12993691Y-9457524D01*
X12993691Y-9457524D02*
X12974643Y-9448000D01*
X12974643Y-9448000D02*
X12965119Y-9438476D01*
X12965119Y-9438476D02*
X12955595Y-9419429D01*
X12955595Y-9419429D02*
X12946072Y-9381333D01*
X12946072Y-9381333D02*
X12946072Y-9333714D01*
X12946072Y-9333714D02*
X12955595Y-9295619D01*
X12955595Y-9295619D02*
X12965119Y-9276571D01*
X12965119Y-9276571D02*
X12974643Y-9267048D01*
X12974643Y-9267048D02*
X12993691Y-9257524D01*
X13136548Y-9276571D02*
X13146072Y-9267048D01*
X13146072Y-9267048D02*
X13165119Y-9257524D01*
X13165119Y-9257524D02*
X13212738Y-9257524D01*
X13212738Y-9257524D02*
X13231786Y-9267048D01*
X13231786Y-9267048D02*
X13241310Y-9276571D01*
X13241310Y-9276571D02*
X13250833Y-9295619D01*
X13250833Y-9295619D02*
X13250833Y-9314667D01*
X13250833Y-9314667D02*
X13241310Y-9343238D01*
X13241310Y-9343238D02*
X13127024Y-9457524D01*
X13127024Y-9457524D02*
X13250833Y-9457524D01*
X13431786Y-9257524D02*
X13336548Y-9257524D01*
X13336548Y-9257524D02*
X13327024Y-9352762D01*
X13327024Y-9352762D02*
X13336548Y-9343238D01*
X13336548Y-9343238D02*
X13355595Y-9333714D01*
X13355595Y-9333714D02*
X13403214Y-9333714D01*
X13403214Y-9333714D02*
X13422262Y-9343238D01*
X13422262Y-9343238D02*
X13431786Y-9352762D01*
X13431786Y-9352762D02*
X13441310Y-9371810D01*
X13441310Y-9371810D02*
X13441310Y-9419429D01*
X13441310Y-9419429D02*
X13431786Y-9438476D01*
X13431786Y-9438476D02*
X13422262Y-9448000D01*
X13422262Y-9448000D02*
X13403214Y-9457524D01*
X13403214Y-9457524D02*
X13355595Y-9457524D01*
X13355595Y-9457524D02*
X13336548Y-9448000D01*
X13336548Y-9448000D02*
X13327024Y-9438476D01*
X13612738Y-9257524D02*
X13574643Y-9257524D01*
X13574643Y-9257524D02*
X13555595Y-9267048D01*
X13555595Y-9267048D02*
X13546072Y-9276571D01*
X13546072Y-9276571D02*
X13527024Y-9305143D01*
X13527024Y-9305143D02*
X13517500Y-9343238D01*
X13517500Y-9343238D02*
X13517500Y-9419429D01*
X13517500Y-9419429D02*
X13527024Y-9438476D01*
X13527024Y-9438476D02*
X13536548Y-9448000D01*
X13536548Y-9448000D02*
X13555595Y-9457524D01*
X13555595Y-9457524D02*
X13593691Y-9457524D01*
X13593691Y-9457524D02*
X13612738Y-9448000D01*
X13612738Y-9448000D02*
X13622262Y-9438476D01*
X13622262Y-9438476D02*
X13631786Y-9419429D01*
X13631786Y-9419429D02*
X13631786Y-9371810D01*
X13631786Y-9371810D02*
X13622262Y-9352762D01*
X13622262Y-9352762D02*
X13612738Y-9343238D01*
X13612738Y-9343238D02*
X13593691Y-9333714D01*
X13593691Y-9333714D02*
X13555595Y-9333714D01*
X13555595Y-9333714D02*
X13536548Y-9343238D01*
X13536548Y-9343238D02*
X13527024Y-9352762D01*
X13527024Y-9352762D02*
X13517500Y-9371810D01*
X13707976Y-9257524D02*
X13707976Y-9295619D01*
X13784167Y-9257524D02*
X13784167Y-9295619D01*
X14079405Y-9533714D02*
X14069881Y-9524190D01*
X14069881Y-9524190D02*
X14050834Y-9495619D01*
X14050834Y-9495619D02*
X14041310Y-9476571D01*
X14041310Y-9476571D02*
X14031786Y-9448000D01*
X14031786Y-9448000D02*
X14022262Y-9400381D01*
X14022262Y-9400381D02*
X14022262Y-9362286D01*
X14022262Y-9362286D02*
X14031786Y-9314667D01*
X14031786Y-9314667D02*
X14041310Y-9286095D01*
X14041310Y-9286095D02*
X14050834Y-9267048D01*
X14050834Y-9267048D02*
X14069881Y-9238476D01*
X14069881Y-9238476D02*
X14079405Y-9228952D01*
X14146072Y-9276571D02*
X14155595Y-9267048D01*
X14155595Y-9267048D02*
X14174643Y-9257524D01*
X14174643Y-9257524D02*
X14222262Y-9257524D01*
X14222262Y-9257524D02*
X14241310Y-9267048D01*
X14241310Y-9267048D02*
X14250834Y-9276571D01*
X14250834Y-9276571D02*
X14260357Y-9295619D01*
X14260357Y-9295619D02*
X14260357Y-9314667D01*
X14260357Y-9314667D02*
X14250834Y-9343238D01*
X14250834Y-9343238D02*
X14136548Y-9457524D01*
X14136548Y-9457524D02*
X14260357Y-9457524D01*
X14498453Y-9457524D02*
X14498453Y-9257524D01*
X14584167Y-9457524D02*
X14584167Y-9352762D01*
X14584167Y-9352762D02*
X14574643Y-9333714D01*
X14574643Y-9333714D02*
X14555596Y-9324190D01*
X14555596Y-9324190D02*
X14527024Y-9324190D01*
X14527024Y-9324190D02*
X14507976Y-9333714D01*
X14507976Y-9333714D02*
X14498453Y-9343238D01*
X14707976Y-9457524D02*
X14688929Y-9448000D01*
X14688929Y-9448000D02*
X14679405Y-9438476D01*
X14679405Y-9438476D02*
X14669881Y-9419429D01*
X14669881Y-9419429D02*
X14669881Y-9362286D01*
X14669881Y-9362286D02*
X14679405Y-9343238D01*
X14679405Y-9343238D02*
X14688929Y-9333714D01*
X14688929Y-9333714D02*
X14707976Y-9324190D01*
X14707976Y-9324190D02*
X14736548Y-9324190D01*
X14736548Y-9324190D02*
X14755596Y-9333714D01*
X14755596Y-9333714D02*
X14765119Y-9343238D01*
X14765119Y-9343238D02*
X14774643Y-9362286D01*
X14774643Y-9362286D02*
X14774643Y-9419429D01*
X14774643Y-9419429D02*
X14765119Y-9438476D01*
X14765119Y-9438476D02*
X14755596Y-9448000D01*
X14755596Y-9448000D02*
X14736548Y-9457524D01*
X14736548Y-9457524D02*
X14707976Y-9457524D01*
X14888929Y-9457524D02*
X14869881Y-9448000D01*
X14869881Y-9448000D02*
X14860357Y-9428952D01*
X14860357Y-9428952D02*
X14860357Y-9257524D01*
X15041310Y-9448000D02*
X15022262Y-9457524D01*
X15022262Y-9457524D02*
X14984167Y-9457524D01*
X14984167Y-9457524D02*
X14965119Y-9448000D01*
X14965119Y-9448000D02*
X14955596Y-9428952D01*
X14955596Y-9428952D02*
X14955596Y-9352762D01*
X14955596Y-9352762D02*
X14965119Y-9333714D01*
X14965119Y-9333714D02*
X14984167Y-9324190D01*
X14984167Y-9324190D02*
X15022262Y-9324190D01*
X15022262Y-9324190D02*
X15041310Y-9333714D01*
X15041310Y-9333714D02*
X15050834Y-9352762D01*
X15050834Y-9352762D02*
X15050834Y-9371810D01*
X15050834Y-9371810D02*
X14955596Y-9390857D01*
X15127024Y-9448000D02*
X15146072Y-9457524D01*
X15146072Y-9457524D02*
X15184167Y-9457524D01*
X15184167Y-9457524D02*
X15203215Y-9448000D01*
X15203215Y-9448000D02*
X15212738Y-9428952D01*
X15212738Y-9428952D02*
X15212738Y-9419429D01*
X15212738Y-9419429D02*
X15203215Y-9400381D01*
X15203215Y-9400381D02*
X15184167Y-9390857D01*
X15184167Y-9390857D02*
X15155596Y-9390857D01*
X15155596Y-9390857D02*
X15136548Y-9381333D01*
X15136548Y-9381333D02*
X15127024Y-9362286D01*
X15127024Y-9362286D02*
X15127024Y-9352762D01*
X15127024Y-9352762D02*
X15136548Y-9333714D01*
X15136548Y-9333714D02*
X15155596Y-9324190D01*
X15155596Y-9324190D02*
X15184167Y-9324190D01*
X15184167Y-9324190D02*
X15203215Y-9333714D01*
X15279405Y-9533714D02*
X15288929Y-9524190D01*
X15288929Y-9524190D02*
X15307977Y-9495619D01*
X15307977Y-9495619D02*
X15317500Y-9476571D01*
X15317500Y-9476571D02*
X15327024Y-9448000D01*
X15327024Y-9448000D02*
X15336548Y-9400381D01*
X15336548Y-9400381D02*
X15336548Y-9362286D01*
X15336548Y-9362286D02*
X15327024Y-9314667D01*
X15327024Y-9314667D02*
X15317500Y-9286095D01*
X15317500Y-9286095D02*
X15307977Y-9267048D01*
X15307977Y-9267048D02*
X15288929Y-9238476D01*
X15288929Y-9238476D02*
X15279405Y-9228952D01*
X15641310Y-9533714D02*
X15631786Y-9524190D01*
X15631786Y-9524190D02*
X15612738Y-9495619D01*
X15612738Y-9495619D02*
X15603215Y-9476571D01*
X15603215Y-9476571D02*
X15593691Y-9448000D01*
X15593691Y-9448000D02*
X15584167Y-9400381D01*
X15584167Y-9400381D02*
X15584167Y-9362286D01*
X15584167Y-9362286D02*
X15593691Y-9314667D01*
X15593691Y-9314667D02*
X15603215Y-9286095D01*
X15603215Y-9286095D02*
X15612738Y-9267048D01*
X15612738Y-9267048D02*
X15631786Y-9238476D01*
X15631786Y-9238476D02*
X15641310Y-9228952D01*
X15717500Y-9324190D02*
X15717500Y-9457524D01*
X15717500Y-9343238D02*
X15727024Y-9333714D01*
X15727024Y-9333714D02*
X15746072Y-9324190D01*
X15746072Y-9324190D02*
X15774643Y-9324190D01*
X15774643Y-9324190D02*
X15793691Y-9333714D01*
X15793691Y-9333714D02*
X15803215Y-9352762D01*
X15803215Y-9352762D02*
X15803215Y-9457524D01*
X15927024Y-9457524D02*
X15907977Y-9448000D01*
X15907977Y-9448000D02*
X15898453Y-9438476D01*
X15898453Y-9438476D02*
X15888929Y-9419429D01*
X15888929Y-9419429D02*
X15888929Y-9362286D01*
X15888929Y-9362286D02*
X15898453Y-9343238D01*
X15898453Y-9343238D02*
X15907977Y-9333714D01*
X15907977Y-9333714D02*
X15927024Y-9324190D01*
X15927024Y-9324190D02*
X15955596Y-9324190D01*
X15955596Y-9324190D02*
X15974643Y-9333714D01*
X15974643Y-9333714D02*
X15984167Y-9343238D01*
X15984167Y-9343238D02*
X15993691Y-9362286D01*
X15993691Y-9362286D02*
X15993691Y-9419429D01*
X15993691Y-9419429D02*
X15984167Y-9438476D01*
X15984167Y-9438476D02*
X15974643Y-9448000D01*
X15974643Y-9448000D02*
X15955596Y-9457524D01*
X15955596Y-9457524D02*
X15927024Y-9457524D01*
X16050834Y-9324190D02*
X16127024Y-9324190D01*
X16079405Y-9257524D02*
X16079405Y-9428952D01*
X16079405Y-9428952D02*
X16088929Y-9448000D01*
X16088929Y-9448000D02*
X16107977Y-9457524D01*
X16107977Y-9457524D02*
X16127024Y-9457524D01*
X16346072Y-9324190D02*
X16346072Y-9524190D01*
X16346072Y-9333714D02*
X16365119Y-9324190D01*
X16365119Y-9324190D02*
X16403215Y-9324190D01*
X16403215Y-9324190D02*
X16422262Y-9333714D01*
X16422262Y-9333714D02*
X16431786Y-9343238D01*
X16431786Y-9343238D02*
X16441310Y-9362286D01*
X16441310Y-9362286D02*
X16441310Y-9419429D01*
X16441310Y-9419429D02*
X16431786Y-9438476D01*
X16431786Y-9438476D02*
X16422262Y-9448000D01*
X16422262Y-9448000D02*
X16403215Y-9457524D01*
X16403215Y-9457524D02*
X16365119Y-9457524D01*
X16365119Y-9457524D02*
X16346072Y-9448000D01*
X16555596Y-9457524D02*
X16536548Y-9448000D01*
X16536548Y-9448000D02*
X16527024Y-9428952D01*
X16527024Y-9428952D02*
X16527024Y-9257524D01*
X16717500Y-9457524D02*
X16717500Y-9352762D01*
X16717500Y-9352762D02*
X16707977Y-9333714D01*
X16707977Y-9333714D02*
X16688929Y-9324190D01*
X16688929Y-9324190D02*
X16650834Y-9324190D01*
X16650834Y-9324190D02*
X16631786Y-9333714D01*
X16717500Y-9448000D02*
X16698453Y-9457524D01*
X16698453Y-9457524D02*
X16650834Y-9457524D01*
X16650834Y-9457524D02*
X16631786Y-9448000D01*
X16631786Y-9448000D02*
X16622262Y-9428952D01*
X16622262Y-9428952D02*
X16622262Y-9409905D01*
X16622262Y-9409905D02*
X16631786Y-9390857D01*
X16631786Y-9390857D02*
X16650834Y-9381333D01*
X16650834Y-9381333D02*
X16698453Y-9381333D01*
X16698453Y-9381333D02*
X16717500Y-9371810D01*
X16784167Y-9324190D02*
X16860358Y-9324190D01*
X16812739Y-9257524D02*
X16812739Y-9428952D01*
X16812739Y-9428952D02*
X16822262Y-9448000D01*
X16822262Y-9448000D02*
X16841310Y-9457524D01*
X16841310Y-9457524D02*
X16860358Y-9457524D01*
X17003215Y-9448000D02*
X16984167Y-9457524D01*
X16984167Y-9457524D02*
X16946072Y-9457524D01*
X16946072Y-9457524D02*
X16927024Y-9448000D01*
X16927024Y-9448000D02*
X16917501Y-9428952D01*
X16917501Y-9428952D02*
X16917501Y-9352762D01*
X16917501Y-9352762D02*
X16927024Y-9333714D01*
X16927024Y-9333714D02*
X16946072Y-9324190D01*
X16946072Y-9324190D02*
X16984167Y-9324190D01*
X16984167Y-9324190D02*
X17003215Y-9333714D01*
X17003215Y-9333714D02*
X17012739Y-9352762D01*
X17012739Y-9352762D02*
X17012739Y-9371810D01*
X17012739Y-9371810D02*
X16917501Y-9390857D01*
X17184167Y-9457524D02*
X17184167Y-9257524D01*
X17184167Y-9448000D02*
X17165120Y-9457524D01*
X17165120Y-9457524D02*
X17127024Y-9457524D01*
X17127024Y-9457524D02*
X17107977Y-9448000D01*
X17107977Y-9448000D02*
X17098453Y-9438476D01*
X17098453Y-9438476D02*
X17088929Y-9419429D01*
X17088929Y-9419429D02*
X17088929Y-9362286D01*
X17088929Y-9362286D02*
X17098453Y-9343238D01*
X17098453Y-9343238D02*
X17107977Y-9333714D01*
X17107977Y-9333714D02*
X17127024Y-9324190D01*
X17127024Y-9324190D02*
X17165120Y-9324190D01*
X17165120Y-9324190D02*
X17184167Y-9333714D01*
X17260358Y-9533714D02*
X17269882Y-9524190D01*
X17269882Y-9524190D02*
X17288929Y-9495619D01*
X17288929Y-9495619D02*
X17298453Y-9476571D01*
X17298453Y-9476571D02*
X17307977Y-9448000D01*
X17307977Y-9448000D02*
X17317501Y-9400381D01*
X17317501Y-9400381D02*
X17317501Y-9362286D01*
X17317501Y-9362286D02*
X17307977Y-9314667D01*
X17307977Y-9314667D02*
X17298453Y-9286095D01*
X17298453Y-9286095D02*
X17288929Y-9267048D01*
X17288929Y-9267048D02*
X17269882Y-9238476D01*
X17269882Y-9238476D02*
X17260358Y-9228952D01*
D13*
X10517500Y-9629000D02*
G75*
G03*
X10517500Y-9629000I-35000J0D01*
G01*
D11*
X10803214Y-9521524D02*
X10822262Y-9521524D01*
X10822262Y-9521524D02*
X10841310Y-9531048D01*
X10841310Y-9531048D02*
X10850833Y-9540571D01*
X10850833Y-9540571D02*
X10860357Y-9559619D01*
X10860357Y-9559619D02*
X10869881Y-9597714D01*
X10869881Y-9597714D02*
X10869881Y-9645333D01*
X10869881Y-9645333D02*
X10860357Y-9683429D01*
X10860357Y-9683429D02*
X10850833Y-9702476D01*
X10850833Y-9702476D02*
X10841310Y-9712000D01*
X10841310Y-9712000D02*
X10822262Y-9721524D01*
X10822262Y-9721524D02*
X10803214Y-9721524D01*
X10803214Y-9721524D02*
X10784167Y-9712000D01*
X10784167Y-9712000D02*
X10774643Y-9702476D01*
X10774643Y-9702476D02*
X10765119Y-9683429D01*
X10765119Y-9683429D02*
X10755595Y-9645333D01*
X10755595Y-9645333D02*
X10755595Y-9597714D01*
X10755595Y-9597714D02*
X10765119Y-9559619D01*
X10765119Y-9559619D02*
X10774643Y-9540571D01*
X10774643Y-9540571D02*
X10784167Y-9531048D01*
X10784167Y-9531048D02*
X10803214Y-9521524D01*
X10955595Y-9702476D02*
X10965119Y-9712000D01*
X10965119Y-9712000D02*
X10955595Y-9721524D01*
X10955595Y-9721524D02*
X10946071Y-9712000D01*
X10946071Y-9712000D02*
X10955595Y-9702476D01*
X10955595Y-9702476D02*
X10955595Y-9721524D01*
X11031786Y-9521524D02*
X11165119Y-9521524D01*
X11165119Y-9521524D02*
X11079405Y-9721524D01*
X11279405Y-9521524D02*
X11298452Y-9521524D01*
X11298452Y-9521524D02*
X11317500Y-9531048D01*
X11317500Y-9531048D02*
X11327024Y-9540571D01*
X11327024Y-9540571D02*
X11336548Y-9559619D01*
X11336548Y-9559619D02*
X11346071Y-9597714D01*
X11346071Y-9597714D02*
X11346071Y-9645333D01*
X11346071Y-9645333D02*
X11336548Y-9683429D01*
X11336548Y-9683429D02*
X11327024Y-9702476D01*
X11327024Y-9702476D02*
X11317500Y-9712000D01*
X11317500Y-9712000D02*
X11298452Y-9721524D01*
X11298452Y-9721524D02*
X11279405Y-9721524D01*
X11279405Y-9721524D02*
X11260357Y-9712000D01*
X11260357Y-9712000D02*
X11250833Y-9702476D01*
X11250833Y-9702476D02*
X11241309Y-9683429D01*
X11241309Y-9683429D02*
X11231786Y-9645333D01*
X11231786Y-9645333D02*
X11231786Y-9597714D01*
X11231786Y-9597714D02*
X11241309Y-9559619D01*
X11241309Y-9559619D02*
X11250833Y-9540571D01*
X11250833Y-9540571D02*
X11260357Y-9531048D01*
X11260357Y-9531048D02*
X11279405Y-9521524D01*
X11469881Y-9521524D02*
X11488929Y-9521524D01*
X11488929Y-9521524D02*
X11507976Y-9531048D01*
X11507976Y-9531048D02*
X11517500Y-9540571D01*
X11517500Y-9540571D02*
X11527024Y-9559619D01*
X11527024Y-9559619D02*
X11536548Y-9597714D01*
X11536548Y-9597714D02*
X11536548Y-9645333D01*
X11536548Y-9645333D02*
X11527024Y-9683429D01*
X11527024Y-9683429D02*
X11517500Y-9702476D01*
X11517500Y-9702476D02*
X11507976Y-9712000D01*
X11507976Y-9712000D02*
X11488929Y-9721524D01*
X11488929Y-9721524D02*
X11469881Y-9721524D01*
X11469881Y-9721524D02*
X11450833Y-9712000D01*
X11450833Y-9712000D02*
X11441309Y-9702476D01*
X11441309Y-9702476D02*
X11431786Y-9683429D01*
X11431786Y-9683429D02*
X11422262Y-9645333D01*
X11422262Y-9645333D02*
X11422262Y-9597714D01*
X11422262Y-9597714D02*
X11431786Y-9559619D01*
X11431786Y-9559619D02*
X11441309Y-9540571D01*
X11441309Y-9540571D02*
X11450833Y-9531048D01*
X11450833Y-9531048D02*
X11469881Y-9521524D01*
X11622262Y-9721524D02*
X11622262Y-9588190D01*
X11622262Y-9607238D02*
X11631786Y-9597714D01*
X11631786Y-9597714D02*
X11650833Y-9588190D01*
X11650833Y-9588190D02*
X11679405Y-9588190D01*
X11679405Y-9588190D02*
X11698452Y-9597714D01*
X11698452Y-9597714D02*
X11707976Y-9616762D01*
X11707976Y-9616762D02*
X11707976Y-9721524D01*
X11707976Y-9616762D02*
X11717500Y-9597714D01*
X11717500Y-9597714D02*
X11736548Y-9588190D01*
X11736548Y-9588190D02*
X11765119Y-9588190D01*
X11765119Y-9588190D02*
X11784167Y-9597714D01*
X11784167Y-9597714D02*
X11793690Y-9616762D01*
X11793690Y-9616762D02*
X11793690Y-9721524D01*
X11888929Y-9721524D02*
X11888929Y-9588190D01*
X11888929Y-9607238D02*
X11898452Y-9597714D01*
X11898452Y-9597714D02*
X11917500Y-9588190D01*
X11917500Y-9588190D02*
X11946071Y-9588190D01*
X11946071Y-9588190D02*
X11965119Y-9597714D01*
X11965119Y-9597714D02*
X11974643Y-9616762D01*
X11974643Y-9616762D02*
X11974643Y-9721524D01*
X11974643Y-9616762D02*
X11984167Y-9597714D01*
X11984167Y-9597714D02*
X12003214Y-9588190D01*
X12003214Y-9588190D02*
X12031786Y-9588190D01*
X12031786Y-9588190D02*
X12050833Y-9597714D01*
X12050833Y-9597714D02*
X12060357Y-9616762D01*
X12060357Y-9616762D02*
X12060357Y-9721524D01*
X12450833Y-9512000D02*
X12279405Y-9769143D01*
X12707976Y-9521524D02*
X12727024Y-9521524D01*
X12727024Y-9521524D02*
X12746072Y-9531048D01*
X12746072Y-9531048D02*
X12755595Y-9540571D01*
X12755595Y-9540571D02*
X12765119Y-9559619D01*
X12765119Y-9559619D02*
X12774643Y-9597714D01*
X12774643Y-9597714D02*
X12774643Y-9645333D01*
X12774643Y-9645333D02*
X12765119Y-9683429D01*
X12765119Y-9683429D02*
X12755595Y-9702476D01*
X12755595Y-9702476D02*
X12746072Y-9712000D01*
X12746072Y-9712000D02*
X12727024Y-9721524D01*
X12727024Y-9721524D02*
X12707976Y-9721524D01*
X12707976Y-9721524D02*
X12688929Y-9712000D01*
X12688929Y-9712000D02*
X12679405Y-9702476D01*
X12679405Y-9702476D02*
X12669881Y-9683429D01*
X12669881Y-9683429D02*
X12660357Y-9645333D01*
X12660357Y-9645333D02*
X12660357Y-9597714D01*
X12660357Y-9597714D02*
X12669881Y-9559619D01*
X12669881Y-9559619D02*
X12679405Y-9540571D01*
X12679405Y-9540571D02*
X12688929Y-9531048D01*
X12688929Y-9531048D02*
X12707976Y-9521524D01*
X12860357Y-9702476D02*
X12869881Y-9712000D01*
X12869881Y-9712000D02*
X12860357Y-9721524D01*
X12860357Y-9721524D02*
X12850833Y-9712000D01*
X12850833Y-9712000D02*
X12860357Y-9702476D01*
X12860357Y-9702476D02*
X12860357Y-9721524D01*
X12993691Y-9521524D02*
X13012738Y-9521524D01*
X13012738Y-9521524D02*
X13031786Y-9531048D01*
X13031786Y-9531048D02*
X13041310Y-9540571D01*
X13041310Y-9540571D02*
X13050833Y-9559619D01*
X13050833Y-9559619D02*
X13060357Y-9597714D01*
X13060357Y-9597714D02*
X13060357Y-9645333D01*
X13060357Y-9645333D02*
X13050833Y-9683429D01*
X13050833Y-9683429D02*
X13041310Y-9702476D01*
X13041310Y-9702476D02*
X13031786Y-9712000D01*
X13031786Y-9712000D02*
X13012738Y-9721524D01*
X13012738Y-9721524D02*
X12993691Y-9721524D01*
X12993691Y-9721524D02*
X12974643Y-9712000D01*
X12974643Y-9712000D02*
X12965119Y-9702476D01*
X12965119Y-9702476D02*
X12955595Y-9683429D01*
X12955595Y-9683429D02*
X12946072Y-9645333D01*
X12946072Y-9645333D02*
X12946072Y-9597714D01*
X12946072Y-9597714D02*
X12955595Y-9559619D01*
X12955595Y-9559619D02*
X12965119Y-9540571D01*
X12965119Y-9540571D02*
X12974643Y-9531048D01*
X12974643Y-9531048D02*
X12993691Y-9521524D01*
X13136548Y-9540571D02*
X13146072Y-9531048D01*
X13146072Y-9531048D02*
X13165119Y-9521524D01*
X13165119Y-9521524D02*
X13212738Y-9521524D01*
X13212738Y-9521524D02*
X13231786Y-9531048D01*
X13231786Y-9531048D02*
X13241310Y-9540571D01*
X13241310Y-9540571D02*
X13250833Y-9559619D01*
X13250833Y-9559619D02*
X13250833Y-9578667D01*
X13250833Y-9578667D02*
X13241310Y-9607238D01*
X13241310Y-9607238D02*
X13127024Y-9721524D01*
X13127024Y-9721524D02*
X13250833Y-9721524D01*
X13317500Y-9521524D02*
X13450833Y-9521524D01*
X13450833Y-9521524D02*
X13365119Y-9721524D01*
X13612738Y-9521524D02*
X13574643Y-9521524D01*
X13574643Y-9521524D02*
X13555595Y-9531048D01*
X13555595Y-9531048D02*
X13546072Y-9540571D01*
X13546072Y-9540571D02*
X13527024Y-9569143D01*
X13527024Y-9569143D02*
X13517500Y-9607238D01*
X13517500Y-9607238D02*
X13517500Y-9683429D01*
X13517500Y-9683429D02*
X13527024Y-9702476D01*
X13527024Y-9702476D02*
X13536548Y-9712000D01*
X13536548Y-9712000D02*
X13555595Y-9721524D01*
X13555595Y-9721524D02*
X13593691Y-9721524D01*
X13593691Y-9721524D02*
X13612738Y-9712000D01*
X13612738Y-9712000D02*
X13622262Y-9702476D01*
X13622262Y-9702476D02*
X13631786Y-9683429D01*
X13631786Y-9683429D02*
X13631786Y-9635810D01*
X13631786Y-9635810D02*
X13622262Y-9616762D01*
X13622262Y-9616762D02*
X13612738Y-9607238D01*
X13612738Y-9607238D02*
X13593691Y-9597714D01*
X13593691Y-9597714D02*
X13555595Y-9597714D01*
X13555595Y-9597714D02*
X13536548Y-9607238D01*
X13536548Y-9607238D02*
X13527024Y-9616762D01*
X13527024Y-9616762D02*
X13517500Y-9635810D01*
X13707976Y-9521524D02*
X13707976Y-9559619D01*
X13784167Y-9521524D02*
X13784167Y-9559619D01*
X14079405Y-9797714D02*
X14069881Y-9788190D01*
X14069881Y-9788190D02*
X14050834Y-9759619D01*
X14050834Y-9759619D02*
X14041310Y-9740571D01*
X14041310Y-9740571D02*
X14031786Y-9712000D01*
X14031786Y-9712000D02*
X14022262Y-9664381D01*
X14022262Y-9664381D02*
X14022262Y-9626286D01*
X14022262Y-9626286D02*
X14031786Y-9578667D01*
X14031786Y-9578667D02*
X14041310Y-9550095D01*
X14041310Y-9550095D02*
X14050834Y-9531048D01*
X14050834Y-9531048D02*
X14069881Y-9502476D01*
X14069881Y-9502476D02*
X14079405Y-9492952D01*
X14250834Y-9521524D02*
X14155595Y-9521524D01*
X14155595Y-9521524D02*
X14146072Y-9616762D01*
X14146072Y-9616762D02*
X14155595Y-9607238D01*
X14155595Y-9607238D02*
X14174643Y-9597714D01*
X14174643Y-9597714D02*
X14222262Y-9597714D01*
X14222262Y-9597714D02*
X14241310Y-9607238D01*
X14241310Y-9607238D02*
X14250834Y-9616762D01*
X14250834Y-9616762D02*
X14260357Y-9635810D01*
X14260357Y-9635810D02*
X14260357Y-9683429D01*
X14260357Y-9683429D02*
X14250834Y-9702476D01*
X14250834Y-9702476D02*
X14241310Y-9712000D01*
X14241310Y-9712000D02*
X14222262Y-9721524D01*
X14222262Y-9721524D02*
X14174643Y-9721524D01*
X14174643Y-9721524D02*
X14155595Y-9712000D01*
X14155595Y-9712000D02*
X14146072Y-9702476D01*
X14498453Y-9721524D02*
X14498453Y-9521524D01*
X14584167Y-9721524D02*
X14584167Y-9616762D01*
X14584167Y-9616762D02*
X14574643Y-9597714D01*
X14574643Y-9597714D02*
X14555596Y-9588190D01*
X14555596Y-9588190D02*
X14527024Y-9588190D01*
X14527024Y-9588190D02*
X14507976Y-9597714D01*
X14507976Y-9597714D02*
X14498453Y-9607238D01*
X14707976Y-9721524D02*
X14688929Y-9712000D01*
X14688929Y-9712000D02*
X14679405Y-9702476D01*
X14679405Y-9702476D02*
X14669881Y-9683429D01*
X14669881Y-9683429D02*
X14669881Y-9626286D01*
X14669881Y-9626286D02*
X14679405Y-9607238D01*
X14679405Y-9607238D02*
X14688929Y-9597714D01*
X14688929Y-9597714D02*
X14707976Y-9588190D01*
X14707976Y-9588190D02*
X14736548Y-9588190D01*
X14736548Y-9588190D02*
X14755596Y-9597714D01*
X14755596Y-9597714D02*
X14765119Y-9607238D01*
X14765119Y-9607238D02*
X14774643Y-9626286D01*
X14774643Y-9626286D02*
X14774643Y-9683429D01*
X14774643Y-9683429D02*
X14765119Y-9702476D01*
X14765119Y-9702476D02*
X14755596Y-9712000D01*
X14755596Y-9712000D02*
X14736548Y-9721524D01*
X14736548Y-9721524D02*
X14707976Y-9721524D01*
X14888929Y-9721524D02*
X14869881Y-9712000D01*
X14869881Y-9712000D02*
X14860357Y-9692952D01*
X14860357Y-9692952D02*
X14860357Y-9521524D01*
X15041310Y-9712000D02*
X15022262Y-9721524D01*
X15022262Y-9721524D02*
X14984167Y-9721524D01*
X14984167Y-9721524D02*
X14965119Y-9712000D01*
X14965119Y-9712000D02*
X14955596Y-9692952D01*
X14955596Y-9692952D02*
X14955596Y-9616762D01*
X14955596Y-9616762D02*
X14965119Y-9597714D01*
X14965119Y-9597714D02*
X14984167Y-9588190D01*
X14984167Y-9588190D02*
X15022262Y-9588190D01*
X15022262Y-9588190D02*
X15041310Y-9597714D01*
X15041310Y-9597714D02*
X15050834Y-9616762D01*
X15050834Y-9616762D02*
X15050834Y-9635810D01*
X15050834Y-9635810D02*
X14955596Y-9654857D01*
X15127024Y-9712000D02*
X15146072Y-9721524D01*
X15146072Y-9721524D02*
X15184167Y-9721524D01*
X15184167Y-9721524D02*
X15203215Y-9712000D01*
X15203215Y-9712000D02*
X15212738Y-9692952D01*
X15212738Y-9692952D02*
X15212738Y-9683429D01*
X15212738Y-9683429D02*
X15203215Y-9664381D01*
X15203215Y-9664381D02*
X15184167Y-9654857D01*
X15184167Y-9654857D02*
X15155596Y-9654857D01*
X15155596Y-9654857D02*
X15136548Y-9645333D01*
X15136548Y-9645333D02*
X15127024Y-9626286D01*
X15127024Y-9626286D02*
X15127024Y-9616762D01*
X15127024Y-9616762D02*
X15136548Y-9597714D01*
X15136548Y-9597714D02*
X15155596Y-9588190D01*
X15155596Y-9588190D02*
X15184167Y-9588190D01*
X15184167Y-9588190D02*
X15203215Y-9597714D01*
X15279405Y-9797714D02*
X15288929Y-9788190D01*
X15288929Y-9788190D02*
X15307977Y-9759619D01*
X15307977Y-9759619D02*
X15317500Y-9740571D01*
X15317500Y-9740571D02*
X15327024Y-9712000D01*
X15327024Y-9712000D02*
X15336548Y-9664381D01*
X15336548Y-9664381D02*
X15336548Y-9626286D01*
X15336548Y-9626286D02*
X15327024Y-9578667D01*
X15327024Y-9578667D02*
X15317500Y-9550095D01*
X15317500Y-9550095D02*
X15307977Y-9531048D01*
X15307977Y-9531048D02*
X15288929Y-9502476D01*
X15288929Y-9502476D02*
X15279405Y-9492952D01*
X15641310Y-9797714D02*
X15631786Y-9788190D01*
X15631786Y-9788190D02*
X15612738Y-9759619D01*
X15612738Y-9759619D02*
X15603215Y-9740571D01*
X15603215Y-9740571D02*
X15593691Y-9712000D01*
X15593691Y-9712000D02*
X15584167Y-9664381D01*
X15584167Y-9664381D02*
X15584167Y-9626286D01*
X15584167Y-9626286D02*
X15593691Y-9578667D01*
X15593691Y-9578667D02*
X15603215Y-9550095D01*
X15603215Y-9550095D02*
X15612738Y-9531048D01*
X15612738Y-9531048D02*
X15631786Y-9502476D01*
X15631786Y-9502476D02*
X15641310Y-9492952D01*
X15717500Y-9588190D02*
X15717500Y-9721524D01*
X15717500Y-9607238D02*
X15727024Y-9597714D01*
X15727024Y-9597714D02*
X15746072Y-9588190D01*
X15746072Y-9588190D02*
X15774643Y-9588190D01*
X15774643Y-9588190D02*
X15793691Y-9597714D01*
X15793691Y-9597714D02*
X15803215Y-9616762D01*
X15803215Y-9616762D02*
X15803215Y-9721524D01*
X15927024Y-9721524D02*
X15907977Y-9712000D01*
X15907977Y-9712000D02*
X15898453Y-9702476D01*
X15898453Y-9702476D02*
X15888929Y-9683429D01*
X15888929Y-9683429D02*
X15888929Y-9626286D01*
X15888929Y-9626286D02*
X15898453Y-9607238D01*
X15898453Y-9607238D02*
X15907977Y-9597714D01*
X15907977Y-9597714D02*
X15927024Y-9588190D01*
X15927024Y-9588190D02*
X15955596Y-9588190D01*
X15955596Y-9588190D02*
X15974643Y-9597714D01*
X15974643Y-9597714D02*
X15984167Y-9607238D01*
X15984167Y-9607238D02*
X15993691Y-9626286D01*
X15993691Y-9626286D02*
X15993691Y-9683429D01*
X15993691Y-9683429D02*
X15984167Y-9702476D01*
X15984167Y-9702476D02*
X15974643Y-9712000D01*
X15974643Y-9712000D02*
X15955596Y-9721524D01*
X15955596Y-9721524D02*
X15927024Y-9721524D01*
X16050834Y-9588190D02*
X16127024Y-9588190D01*
X16079405Y-9521524D02*
X16079405Y-9692952D01*
X16079405Y-9692952D02*
X16088929Y-9712000D01*
X16088929Y-9712000D02*
X16107977Y-9721524D01*
X16107977Y-9721524D02*
X16127024Y-9721524D01*
X16346072Y-9588190D02*
X16346072Y-9788190D01*
X16346072Y-9597714D02*
X16365119Y-9588190D01*
X16365119Y-9588190D02*
X16403215Y-9588190D01*
X16403215Y-9588190D02*
X16422262Y-9597714D01*
X16422262Y-9597714D02*
X16431786Y-9607238D01*
X16431786Y-9607238D02*
X16441310Y-9626286D01*
X16441310Y-9626286D02*
X16441310Y-9683429D01*
X16441310Y-9683429D02*
X16431786Y-9702476D01*
X16431786Y-9702476D02*
X16422262Y-9712000D01*
X16422262Y-9712000D02*
X16403215Y-9721524D01*
X16403215Y-9721524D02*
X16365119Y-9721524D01*
X16365119Y-9721524D02*
X16346072Y-9712000D01*
X16555596Y-9721524D02*
X16536548Y-9712000D01*
X16536548Y-9712000D02*
X16527024Y-9692952D01*
X16527024Y-9692952D02*
X16527024Y-9521524D01*
X16717500Y-9721524D02*
X16717500Y-9616762D01*
X16717500Y-9616762D02*
X16707977Y-9597714D01*
X16707977Y-9597714D02*
X16688929Y-9588190D01*
X16688929Y-9588190D02*
X16650834Y-9588190D01*
X16650834Y-9588190D02*
X16631786Y-9597714D01*
X16717500Y-9712000D02*
X16698453Y-9721524D01*
X16698453Y-9721524D02*
X16650834Y-9721524D01*
X16650834Y-9721524D02*
X16631786Y-9712000D01*
X16631786Y-9712000D02*
X16622262Y-9692952D01*
X16622262Y-9692952D02*
X16622262Y-9673905D01*
X16622262Y-9673905D02*
X16631786Y-9654857D01*
X16631786Y-9654857D02*
X16650834Y-9645333D01*
X16650834Y-9645333D02*
X16698453Y-9645333D01*
X16698453Y-9645333D02*
X16717500Y-9635810D01*
X16784167Y-9588190D02*
X16860358Y-9588190D01*
X16812739Y-9521524D02*
X16812739Y-9692952D01*
X16812739Y-9692952D02*
X16822262Y-9712000D01*
X16822262Y-9712000D02*
X16841310Y-9721524D01*
X16841310Y-9721524D02*
X16860358Y-9721524D01*
X17003215Y-9712000D02*
X16984167Y-9721524D01*
X16984167Y-9721524D02*
X16946072Y-9721524D01*
X16946072Y-9721524D02*
X16927024Y-9712000D01*
X16927024Y-9712000D02*
X16917501Y-9692952D01*
X16917501Y-9692952D02*
X16917501Y-9616762D01*
X16917501Y-9616762D02*
X16927024Y-9597714D01*
X16927024Y-9597714D02*
X16946072Y-9588190D01*
X16946072Y-9588190D02*
X16984167Y-9588190D01*
X16984167Y-9588190D02*
X17003215Y-9597714D01*
X17003215Y-9597714D02*
X17012739Y-9616762D01*
X17012739Y-9616762D02*
X17012739Y-9635810D01*
X17012739Y-9635810D02*
X16917501Y-9654857D01*
X17184167Y-9721524D02*
X17184167Y-9521524D01*
X17184167Y-9712000D02*
X17165120Y-9721524D01*
X17165120Y-9721524D02*
X17127024Y-9721524D01*
X17127024Y-9721524D02*
X17107977Y-9712000D01*
X17107977Y-9712000D02*
X17098453Y-9702476D01*
X17098453Y-9702476D02*
X17088929Y-9683429D01*
X17088929Y-9683429D02*
X17088929Y-9626286D01*
X17088929Y-9626286D02*
X17098453Y-9607238D01*
X17098453Y-9607238D02*
X17107977Y-9597714D01*
X17107977Y-9597714D02*
X17127024Y-9588190D01*
X17127024Y-9588190D02*
X17165120Y-9588190D01*
X17165120Y-9588190D02*
X17184167Y-9597714D01*
X17260358Y-9797714D02*
X17269882Y-9788190D01*
X17269882Y-9788190D02*
X17288929Y-9759619D01*
X17288929Y-9759619D02*
X17298453Y-9740571D01*
X17298453Y-9740571D02*
X17307977Y-9712000D01*
X17307977Y-9712000D02*
X17317501Y-9664381D01*
X17317501Y-9664381D02*
X17317501Y-9626286D01*
X17317501Y-9626286D02*
X17307977Y-9578667D01*
X17307977Y-9578667D02*
X17298453Y-9550095D01*
X17298453Y-9550095D02*
X17288929Y-9531048D01*
X17288929Y-9531048D02*
X17269882Y-9502476D01*
X17269882Y-9502476D02*
X17260358Y-9492952D01*
D14*
X10473050Y-9848550D02*
X10473050Y-9937450D01*
X10428600Y-9893000D02*
X10517500Y-9893000D01*
D11*
X10803214Y-9785524D02*
X10822262Y-9785524D01*
X10822262Y-9785524D02*
X10841310Y-9795048D01*
X10841310Y-9795048D02*
X10850833Y-9804571D01*
X10850833Y-9804571D02*
X10860357Y-9823619D01*
X10860357Y-9823619D02*
X10869881Y-9861714D01*
X10869881Y-9861714D02*
X10869881Y-9909333D01*
X10869881Y-9909333D02*
X10860357Y-9947429D01*
X10860357Y-9947429D02*
X10850833Y-9966476D01*
X10850833Y-9966476D02*
X10841310Y-9976000D01*
X10841310Y-9976000D02*
X10822262Y-9985524D01*
X10822262Y-9985524D02*
X10803214Y-9985524D01*
X10803214Y-9985524D02*
X10784167Y-9976000D01*
X10784167Y-9976000D02*
X10774643Y-9966476D01*
X10774643Y-9966476D02*
X10765119Y-9947429D01*
X10765119Y-9947429D02*
X10755595Y-9909333D01*
X10755595Y-9909333D02*
X10755595Y-9861714D01*
X10755595Y-9861714D02*
X10765119Y-9823619D01*
X10765119Y-9823619D02*
X10774643Y-9804571D01*
X10774643Y-9804571D02*
X10784167Y-9795048D01*
X10784167Y-9795048D02*
X10803214Y-9785524D01*
X10955595Y-9966476D02*
X10965119Y-9976000D01*
X10965119Y-9976000D02*
X10955595Y-9985524D01*
X10955595Y-9985524D02*
X10946071Y-9976000D01*
X10946071Y-9976000D02*
X10955595Y-9966476D01*
X10955595Y-9966476D02*
X10955595Y-9985524D01*
X11079405Y-9871238D02*
X11060357Y-9861714D01*
X11060357Y-9861714D02*
X11050833Y-9852190D01*
X11050833Y-9852190D02*
X11041310Y-9833143D01*
X11041310Y-9833143D02*
X11041310Y-9823619D01*
X11041310Y-9823619D02*
X11050833Y-9804571D01*
X11050833Y-9804571D02*
X11060357Y-9795048D01*
X11060357Y-9795048D02*
X11079405Y-9785524D01*
X11079405Y-9785524D02*
X11117500Y-9785524D01*
X11117500Y-9785524D02*
X11136548Y-9795048D01*
X11136548Y-9795048D02*
X11146071Y-9804571D01*
X11146071Y-9804571D02*
X11155595Y-9823619D01*
X11155595Y-9823619D02*
X11155595Y-9833143D01*
X11155595Y-9833143D02*
X11146071Y-9852190D01*
X11146071Y-9852190D02*
X11136548Y-9861714D01*
X11136548Y-9861714D02*
X11117500Y-9871238D01*
X11117500Y-9871238D02*
X11079405Y-9871238D01*
X11079405Y-9871238D02*
X11060357Y-9880762D01*
X11060357Y-9880762D02*
X11050833Y-9890286D01*
X11050833Y-9890286D02*
X11041310Y-9909333D01*
X11041310Y-9909333D02*
X11041310Y-9947429D01*
X11041310Y-9947429D02*
X11050833Y-9966476D01*
X11050833Y-9966476D02*
X11060357Y-9976000D01*
X11060357Y-9976000D02*
X11079405Y-9985524D01*
X11079405Y-9985524D02*
X11117500Y-9985524D01*
X11117500Y-9985524D02*
X11136548Y-9976000D01*
X11136548Y-9976000D02*
X11146071Y-9966476D01*
X11146071Y-9966476D02*
X11155595Y-9947429D01*
X11155595Y-9947429D02*
X11155595Y-9909333D01*
X11155595Y-9909333D02*
X11146071Y-9890286D01*
X11146071Y-9890286D02*
X11136548Y-9880762D01*
X11136548Y-9880762D02*
X11117500Y-9871238D01*
X11269881Y-9871238D02*
X11250833Y-9861714D01*
X11250833Y-9861714D02*
X11241309Y-9852190D01*
X11241309Y-9852190D02*
X11231786Y-9833143D01*
X11231786Y-9833143D02*
X11231786Y-9823619D01*
X11231786Y-9823619D02*
X11241309Y-9804571D01*
X11241309Y-9804571D02*
X11250833Y-9795048D01*
X11250833Y-9795048D02*
X11269881Y-9785524D01*
X11269881Y-9785524D02*
X11307976Y-9785524D01*
X11307976Y-9785524D02*
X11327024Y-9795048D01*
X11327024Y-9795048D02*
X11336548Y-9804571D01*
X11336548Y-9804571D02*
X11346071Y-9823619D01*
X11346071Y-9823619D02*
X11346071Y-9833143D01*
X11346071Y-9833143D02*
X11336548Y-9852190D01*
X11336548Y-9852190D02*
X11327024Y-9861714D01*
X11327024Y-9861714D02*
X11307976Y-9871238D01*
X11307976Y-9871238D02*
X11269881Y-9871238D01*
X11269881Y-9871238D02*
X11250833Y-9880762D01*
X11250833Y-9880762D02*
X11241309Y-9890286D01*
X11241309Y-9890286D02*
X11231786Y-9909333D01*
X11231786Y-9909333D02*
X11231786Y-9947429D01*
X11231786Y-9947429D02*
X11241309Y-9966476D01*
X11241309Y-9966476D02*
X11250833Y-9976000D01*
X11250833Y-9976000D02*
X11269881Y-9985524D01*
X11269881Y-9985524D02*
X11307976Y-9985524D01*
X11307976Y-9985524D02*
X11327024Y-9976000D01*
X11327024Y-9976000D02*
X11336548Y-9966476D01*
X11336548Y-9966476D02*
X11346071Y-9947429D01*
X11346071Y-9947429D02*
X11346071Y-9909333D01*
X11346071Y-9909333D02*
X11336548Y-9890286D01*
X11336548Y-9890286D02*
X11327024Y-9880762D01*
X11327024Y-9880762D02*
X11307976Y-9871238D01*
X11441309Y-9985524D02*
X11479405Y-9985524D01*
X11479405Y-9985524D02*
X11498452Y-9976000D01*
X11498452Y-9976000D02*
X11507976Y-9966476D01*
X11507976Y-9966476D02*
X11527024Y-9937905D01*
X11527024Y-9937905D02*
X11536548Y-9899810D01*
X11536548Y-9899810D02*
X11536548Y-9823619D01*
X11536548Y-9823619D02*
X11527024Y-9804571D01*
X11527024Y-9804571D02*
X11517500Y-9795048D01*
X11517500Y-9795048D02*
X11498452Y-9785524D01*
X11498452Y-9785524D02*
X11460357Y-9785524D01*
X11460357Y-9785524D02*
X11441309Y-9795048D01*
X11441309Y-9795048D02*
X11431786Y-9804571D01*
X11431786Y-9804571D02*
X11422262Y-9823619D01*
X11422262Y-9823619D02*
X11422262Y-9871238D01*
X11422262Y-9871238D02*
X11431786Y-9890286D01*
X11431786Y-9890286D02*
X11441309Y-9899810D01*
X11441309Y-9899810D02*
X11460357Y-9909333D01*
X11460357Y-9909333D02*
X11498452Y-9909333D01*
X11498452Y-9909333D02*
X11517500Y-9899810D01*
X11517500Y-9899810D02*
X11527024Y-9890286D01*
X11527024Y-9890286D02*
X11536548Y-9871238D01*
X11622262Y-9985524D02*
X11622262Y-9852190D01*
X11622262Y-9871238D02*
X11631786Y-9861714D01*
X11631786Y-9861714D02*
X11650833Y-9852190D01*
X11650833Y-9852190D02*
X11679405Y-9852190D01*
X11679405Y-9852190D02*
X11698452Y-9861714D01*
X11698452Y-9861714D02*
X11707976Y-9880762D01*
X11707976Y-9880762D02*
X11707976Y-9985524D01*
X11707976Y-9880762D02*
X11717500Y-9861714D01*
X11717500Y-9861714D02*
X11736548Y-9852190D01*
X11736548Y-9852190D02*
X11765119Y-9852190D01*
X11765119Y-9852190D02*
X11784167Y-9861714D01*
X11784167Y-9861714D02*
X11793690Y-9880762D01*
X11793690Y-9880762D02*
X11793690Y-9985524D01*
X11888929Y-9985524D02*
X11888929Y-9852190D01*
X11888929Y-9871238D02*
X11898452Y-9861714D01*
X11898452Y-9861714D02*
X11917500Y-9852190D01*
X11917500Y-9852190D02*
X11946071Y-9852190D01*
X11946071Y-9852190D02*
X11965119Y-9861714D01*
X11965119Y-9861714D02*
X11974643Y-9880762D01*
X11974643Y-9880762D02*
X11974643Y-9985524D01*
X11974643Y-9880762D02*
X11984167Y-9861714D01*
X11984167Y-9861714D02*
X12003214Y-9852190D01*
X12003214Y-9852190D02*
X12031786Y-9852190D01*
X12031786Y-9852190D02*
X12050833Y-9861714D01*
X12050833Y-9861714D02*
X12060357Y-9880762D01*
X12060357Y-9880762D02*
X12060357Y-9985524D01*
X12450833Y-9776000D02*
X12279405Y-10033143D01*
X12707976Y-9785524D02*
X12727024Y-9785524D01*
X12727024Y-9785524D02*
X12746072Y-9795048D01*
X12746072Y-9795048D02*
X12755595Y-9804571D01*
X12755595Y-9804571D02*
X12765119Y-9823619D01*
X12765119Y-9823619D02*
X12774643Y-9861714D01*
X12774643Y-9861714D02*
X12774643Y-9909333D01*
X12774643Y-9909333D02*
X12765119Y-9947429D01*
X12765119Y-9947429D02*
X12755595Y-9966476D01*
X12755595Y-9966476D02*
X12746072Y-9976000D01*
X12746072Y-9976000D02*
X12727024Y-9985524D01*
X12727024Y-9985524D02*
X12707976Y-9985524D01*
X12707976Y-9985524D02*
X12688929Y-9976000D01*
X12688929Y-9976000D02*
X12679405Y-9966476D01*
X12679405Y-9966476D02*
X12669881Y-9947429D01*
X12669881Y-9947429D02*
X12660357Y-9909333D01*
X12660357Y-9909333D02*
X12660357Y-9861714D01*
X12660357Y-9861714D02*
X12669881Y-9823619D01*
X12669881Y-9823619D02*
X12679405Y-9804571D01*
X12679405Y-9804571D02*
X12688929Y-9795048D01*
X12688929Y-9795048D02*
X12707976Y-9785524D01*
X12860357Y-9966476D02*
X12869881Y-9976000D01*
X12869881Y-9976000D02*
X12860357Y-9985524D01*
X12860357Y-9985524D02*
X12850833Y-9976000D01*
X12850833Y-9976000D02*
X12860357Y-9966476D01*
X12860357Y-9966476D02*
X12860357Y-9985524D01*
X12993691Y-9785524D02*
X13012738Y-9785524D01*
X13012738Y-9785524D02*
X13031786Y-9795048D01*
X13031786Y-9795048D02*
X13041310Y-9804571D01*
X13041310Y-9804571D02*
X13050833Y-9823619D01*
X13050833Y-9823619D02*
X13060357Y-9861714D01*
X13060357Y-9861714D02*
X13060357Y-9909333D01*
X13060357Y-9909333D02*
X13050833Y-9947429D01*
X13050833Y-9947429D02*
X13041310Y-9966476D01*
X13041310Y-9966476D02*
X13031786Y-9976000D01*
X13031786Y-9976000D02*
X13012738Y-9985524D01*
X13012738Y-9985524D02*
X12993691Y-9985524D01*
X12993691Y-9985524D02*
X12974643Y-9976000D01*
X12974643Y-9976000D02*
X12965119Y-9966476D01*
X12965119Y-9966476D02*
X12955595Y-9947429D01*
X12955595Y-9947429D02*
X12946072Y-9909333D01*
X12946072Y-9909333D02*
X12946072Y-9861714D01*
X12946072Y-9861714D02*
X12955595Y-9823619D01*
X12955595Y-9823619D02*
X12965119Y-9804571D01*
X12965119Y-9804571D02*
X12974643Y-9795048D01*
X12974643Y-9795048D02*
X12993691Y-9785524D01*
X13127024Y-9785524D02*
X13250833Y-9785524D01*
X13250833Y-9785524D02*
X13184167Y-9861714D01*
X13184167Y-9861714D02*
X13212738Y-9861714D01*
X13212738Y-9861714D02*
X13231786Y-9871238D01*
X13231786Y-9871238D02*
X13241310Y-9880762D01*
X13241310Y-9880762D02*
X13250833Y-9899810D01*
X13250833Y-9899810D02*
X13250833Y-9947429D01*
X13250833Y-9947429D02*
X13241310Y-9966476D01*
X13241310Y-9966476D02*
X13231786Y-9976000D01*
X13231786Y-9976000D02*
X13212738Y-9985524D01*
X13212738Y-9985524D02*
X13155595Y-9985524D01*
X13155595Y-9985524D02*
X13136548Y-9976000D01*
X13136548Y-9976000D02*
X13127024Y-9966476D01*
X13431786Y-9785524D02*
X13336548Y-9785524D01*
X13336548Y-9785524D02*
X13327024Y-9880762D01*
X13327024Y-9880762D02*
X13336548Y-9871238D01*
X13336548Y-9871238D02*
X13355595Y-9861714D01*
X13355595Y-9861714D02*
X13403214Y-9861714D01*
X13403214Y-9861714D02*
X13422262Y-9871238D01*
X13422262Y-9871238D02*
X13431786Y-9880762D01*
X13431786Y-9880762D02*
X13441310Y-9899810D01*
X13441310Y-9899810D02*
X13441310Y-9947429D01*
X13441310Y-9947429D02*
X13431786Y-9966476D01*
X13431786Y-9966476D02*
X13422262Y-9976000D01*
X13422262Y-9976000D02*
X13403214Y-9985524D01*
X13403214Y-9985524D02*
X13355595Y-9985524D01*
X13355595Y-9985524D02*
X13336548Y-9976000D01*
X13336548Y-9976000D02*
X13327024Y-9966476D01*
X13565119Y-9785524D02*
X13584167Y-9785524D01*
X13584167Y-9785524D02*
X13603214Y-9795048D01*
X13603214Y-9795048D02*
X13612738Y-9804571D01*
X13612738Y-9804571D02*
X13622262Y-9823619D01*
X13622262Y-9823619D02*
X13631786Y-9861714D01*
X13631786Y-9861714D02*
X13631786Y-9909333D01*
X13631786Y-9909333D02*
X13622262Y-9947429D01*
X13622262Y-9947429D02*
X13612738Y-9966476D01*
X13612738Y-9966476D02*
X13603214Y-9976000D01*
X13603214Y-9976000D02*
X13584167Y-9985524D01*
X13584167Y-9985524D02*
X13565119Y-9985524D01*
X13565119Y-9985524D02*
X13546072Y-9976000D01*
X13546072Y-9976000D02*
X13536548Y-9966476D01*
X13536548Y-9966476D02*
X13527024Y-9947429D01*
X13527024Y-9947429D02*
X13517500Y-9909333D01*
X13517500Y-9909333D02*
X13517500Y-9861714D01*
X13517500Y-9861714D02*
X13527024Y-9823619D01*
X13527024Y-9823619D02*
X13536548Y-9804571D01*
X13536548Y-9804571D02*
X13546072Y-9795048D01*
X13546072Y-9795048D02*
X13565119Y-9785524D01*
X13707976Y-9785524D02*
X13707976Y-9823619D01*
X13784167Y-9785524D02*
X13784167Y-9823619D01*
X14079405Y-10061714D02*
X14069881Y-10052190D01*
X14069881Y-10052190D02*
X14050834Y-10023619D01*
X14050834Y-10023619D02*
X14041310Y-10004571D01*
X14041310Y-10004571D02*
X14031786Y-9976000D01*
X14031786Y-9976000D02*
X14022262Y-9928381D01*
X14022262Y-9928381D02*
X14022262Y-9890286D01*
X14022262Y-9890286D02*
X14031786Y-9842667D01*
X14031786Y-9842667D02*
X14041310Y-9814095D01*
X14041310Y-9814095D02*
X14050834Y-9795048D01*
X14050834Y-9795048D02*
X14069881Y-9766476D01*
X14069881Y-9766476D02*
X14079405Y-9756952D01*
X14146072Y-9804571D02*
X14155595Y-9795048D01*
X14155595Y-9795048D02*
X14174643Y-9785524D01*
X14174643Y-9785524D02*
X14222262Y-9785524D01*
X14222262Y-9785524D02*
X14241310Y-9795048D01*
X14241310Y-9795048D02*
X14250834Y-9804571D01*
X14250834Y-9804571D02*
X14260357Y-9823619D01*
X14260357Y-9823619D02*
X14260357Y-9842667D01*
X14260357Y-9842667D02*
X14250834Y-9871238D01*
X14250834Y-9871238D02*
X14136548Y-9985524D01*
X14136548Y-9985524D02*
X14260357Y-9985524D01*
X14498453Y-9985524D02*
X14498453Y-9785524D01*
X14584167Y-9985524D02*
X14584167Y-9880762D01*
X14584167Y-9880762D02*
X14574643Y-9861714D01*
X14574643Y-9861714D02*
X14555596Y-9852190D01*
X14555596Y-9852190D02*
X14527024Y-9852190D01*
X14527024Y-9852190D02*
X14507976Y-9861714D01*
X14507976Y-9861714D02*
X14498453Y-9871238D01*
X14707976Y-9985524D02*
X14688929Y-9976000D01*
X14688929Y-9976000D02*
X14679405Y-9966476D01*
X14679405Y-9966476D02*
X14669881Y-9947429D01*
X14669881Y-9947429D02*
X14669881Y-9890286D01*
X14669881Y-9890286D02*
X14679405Y-9871238D01*
X14679405Y-9871238D02*
X14688929Y-9861714D01*
X14688929Y-9861714D02*
X14707976Y-9852190D01*
X14707976Y-9852190D02*
X14736548Y-9852190D01*
X14736548Y-9852190D02*
X14755596Y-9861714D01*
X14755596Y-9861714D02*
X14765119Y-9871238D01*
X14765119Y-9871238D02*
X14774643Y-9890286D01*
X14774643Y-9890286D02*
X14774643Y-9947429D01*
X14774643Y-9947429D02*
X14765119Y-9966476D01*
X14765119Y-9966476D02*
X14755596Y-9976000D01*
X14755596Y-9976000D02*
X14736548Y-9985524D01*
X14736548Y-9985524D02*
X14707976Y-9985524D01*
X14888929Y-9985524D02*
X14869881Y-9976000D01*
X14869881Y-9976000D02*
X14860357Y-9956952D01*
X14860357Y-9956952D02*
X14860357Y-9785524D01*
X15041310Y-9976000D02*
X15022262Y-9985524D01*
X15022262Y-9985524D02*
X14984167Y-9985524D01*
X14984167Y-9985524D02*
X14965119Y-9976000D01*
X14965119Y-9976000D02*
X14955596Y-9956952D01*
X14955596Y-9956952D02*
X14955596Y-9880762D01*
X14955596Y-9880762D02*
X14965119Y-9861714D01*
X14965119Y-9861714D02*
X14984167Y-9852190D01*
X14984167Y-9852190D02*
X15022262Y-9852190D01*
X15022262Y-9852190D02*
X15041310Y-9861714D01*
X15041310Y-9861714D02*
X15050834Y-9880762D01*
X15050834Y-9880762D02*
X15050834Y-9899810D01*
X15050834Y-9899810D02*
X14955596Y-9918857D01*
X15127024Y-9976000D02*
X15146072Y-9985524D01*
X15146072Y-9985524D02*
X15184167Y-9985524D01*
X15184167Y-9985524D02*
X15203215Y-9976000D01*
X15203215Y-9976000D02*
X15212738Y-9956952D01*
X15212738Y-9956952D02*
X15212738Y-9947429D01*
X15212738Y-9947429D02*
X15203215Y-9928381D01*
X15203215Y-9928381D02*
X15184167Y-9918857D01*
X15184167Y-9918857D02*
X15155596Y-9918857D01*
X15155596Y-9918857D02*
X15136548Y-9909333D01*
X15136548Y-9909333D02*
X15127024Y-9890286D01*
X15127024Y-9890286D02*
X15127024Y-9880762D01*
X15127024Y-9880762D02*
X15136548Y-9861714D01*
X15136548Y-9861714D02*
X15155596Y-9852190D01*
X15155596Y-9852190D02*
X15184167Y-9852190D01*
X15184167Y-9852190D02*
X15203215Y-9861714D01*
X15279405Y-10061714D02*
X15288929Y-10052190D01*
X15288929Y-10052190D02*
X15307977Y-10023619D01*
X15307977Y-10023619D02*
X15317500Y-10004571D01*
X15317500Y-10004571D02*
X15327024Y-9976000D01*
X15327024Y-9976000D02*
X15336548Y-9928381D01*
X15336548Y-9928381D02*
X15336548Y-9890286D01*
X15336548Y-9890286D02*
X15327024Y-9842667D01*
X15327024Y-9842667D02*
X15317500Y-9814095D01*
X15317500Y-9814095D02*
X15307977Y-9795048D01*
X15307977Y-9795048D02*
X15288929Y-9766476D01*
X15288929Y-9766476D02*
X15279405Y-9756952D01*
X15641310Y-10061714D02*
X15631786Y-10052190D01*
X15631786Y-10052190D02*
X15612738Y-10023619D01*
X15612738Y-10023619D02*
X15603215Y-10004571D01*
X15603215Y-10004571D02*
X15593691Y-9976000D01*
X15593691Y-9976000D02*
X15584167Y-9928381D01*
X15584167Y-9928381D02*
X15584167Y-9890286D01*
X15584167Y-9890286D02*
X15593691Y-9842667D01*
X15593691Y-9842667D02*
X15603215Y-9814095D01*
X15603215Y-9814095D02*
X15612738Y-9795048D01*
X15612738Y-9795048D02*
X15631786Y-9766476D01*
X15631786Y-9766476D02*
X15641310Y-9756952D01*
X15717500Y-9852190D02*
X15717500Y-9985524D01*
X15717500Y-9871238D02*
X15727024Y-9861714D01*
X15727024Y-9861714D02*
X15746072Y-9852190D01*
X15746072Y-9852190D02*
X15774643Y-9852190D01*
X15774643Y-9852190D02*
X15793691Y-9861714D01*
X15793691Y-9861714D02*
X15803215Y-9880762D01*
X15803215Y-9880762D02*
X15803215Y-9985524D01*
X15927024Y-9985524D02*
X15907977Y-9976000D01*
X15907977Y-9976000D02*
X15898453Y-9966476D01*
X15898453Y-9966476D02*
X15888929Y-9947429D01*
X15888929Y-9947429D02*
X15888929Y-9890286D01*
X15888929Y-9890286D02*
X15898453Y-9871238D01*
X15898453Y-9871238D02*
X15907977Y-9861714D01*
X15907977Y-9861714D02*
X15927024Y-9852190D01*
X15927024Y-9852190D02*
X15955596Y-9852190D01*
X15955596Y-9852190D02*
X15974643Y-9861714D01*
X15974643Y-9861714D02*
X15984167Y-9871238D01*
X15984167Y-9871238D02*
X15993691Y-9890286D01*
X15993691Y-9890286D02*
X15993691Y-9947429D01*
X15993691Y-9947429D02*
X15984167Y-9966476D01*
X15984167Y-9966476D02*
X15974643Y-9976000D01*
X15974643Y-9976000D02*
X15955596Y-9985524D01*
X15955596Y-9985524D02*
X15927024Y-9985524D01*
X16050834Y-9852190D02*
X16127024Y-9852190D01*
X16079405Y-9785524D02*
X16079405Y-9956952D01*
X16079405Y-9956952D02*
X16088929Y-9976000D01*
X16088929Y-9976000D02*
X16107977Y-9985524D01*
X16107977Y-9985524D02*
X16127024Y-9985524D01*
X16346072Y-9852190D02*
X16346072Y-10052190D01*
X16346072Y-9861714D02*
X16365119Y-9852190D01*
X16365119Y-9852190D02*
X16403215Y-9852190D01*
X16403215Y-9852190D02*
X16422262Y-9861714D01*
X16422262Y-9861714D02*
X16431786Y-9871238D01*
X16431786Y-9871238D02*
X16441310Y-9890286D01*
X16441310Y-9890286D02*
X16441310Y-9947429D01*
X16441310Y-9947429D02*
X16431786Y-9966476D01*
X16431786Y-9966476D02*
X16422262Y-9976000D01*
X16422262Y-9976000D02*
X16403215Y-9985524D01*
X16403215Y-9985524D02*
X16365119Y-9985524D01*
X16365119Y-9985524D02*
X16346072Y-9976000D01*
X16555596Y-9985524D02*
X16536548Y-9976000D01*
X16536548Y-9976000D02*
X16527024Y-9956952D01*
X16527024Y-9956952D02*
X16527024Y-9785524D01*
X16717500Y-9985524D02*
X16717500Y-9880762D01*
X16717500Y-9880762D02*
X16707977Y-9861714D01*
X16707977Y-9861714D02*
X16688929Y-9852190D01*
X16688929Y-9852190D02*
X16650834Y-9852190D01*
X16650834Y-9852190D02*
X16631786Y-9861714D01*
X16717500Y-9976000D02*
X16698453Y-9985524D01*
X16698453Y-9985524D02*
X16650834Y-9985524D01*
X16650834Y-9985524D02*
X16631786Y-9976000D01*
X16631786Y-9976000D02*
X16622262Y-9956952D01*
X16622262Y-9956952D02*
X16622262Y-9937905D01*
X16622262Y-9937905D02*
X16631786Y-9918857D01*
X16631786Y-9918857D02*
X16650834Y-9909333D01*
X16650834Y-9909333D02*
X16698453Y-9909333D01*
X16698453Y-9909333D02*
X16717500Y-9899810D01*
X16784167Y-9852190D02*
X16860358Y-9852190D01*
X16812739Y-9785524D02*
X16812739Y-9956952D01*
X16812739Y-9956952D02*
X16822262Y-9976000D01*
X16822262Y-9976000D02*
X16841310Y-9985524D01*
X16841310Y-9985524D02*
X16860358Y-9985524D01*
X17003215Y-9976000D02*
X16984167Y-9985524D01*
X16984167Y-9985524D02*
X16946072Y-9985524D01*
X16946072Y-9985524D02*
X16927024Y-9976000D01*
X16927024Y-9976000D02*
X16917501Y-9956952D01*
X16917501Y-9956952D02*
X16917501Y-9880762D01*
X16917501Y-9880762D02*
X16927024Y-9861714D01*
X16927024Y-9861714D02*
X16946072Y-9852190D01*
X16946072Y-9852190D02*
X16984167Y-9852190D01*
X16984167Y-9852190D02*
X17003215Y-9861714D01*
X17003215Y-9861714D02*
X17012739Y-9880762D01*
X17012739Y-9880762D02*
X17012739Y-9899810D01*
X17012739Y-9899810D02*
X16917501Y-9918857D01*
X17184167Y-9985524D02*
X17184167Y-9785524D01*
X17184167Y-9976000D02*
X17165120Y-9985524D01*
X17165120Y-9985524D02*
X17127024Y-9985524D01*
X17127024Y-9985524D02*
X17107977Y-9976000D01*
X17107977Y-9976000D02*
X17098453Y-9966476D01*
X17098453Y-9966476D02*
X17088929Y-9947429D01*
X17088929Y-9947429D02*
X17088929Y-9890286D01*
X17088929Y-9890286D02*
X17098453Y-9871238D01*
X17098453Y-9871238D02*
X17107977Y-9861714D01*
X17107977Y-9861714D02*
X17127024Y-9852190D01*
X17127024Y-9852190D02*
X17165120Y-9852190D01*
X17165120Y-9852190D02*
X17184167Y-9861714D01*
X17260358Y-10061714D02*
X17269882Y-10052190D01*
X17269882Y-10052190D02*
X17288929Y-10023619D01*
X17288929Y-10023619D02*
X17298453Y-10004571D01*
X17298453Y-10004571D02*
X17307977Y-9976000D01*
X17307977Y-9976000D02*
X17317501Y-9928381D01*
X17317501Y-9928381D02*
X17317501Y-9890286D01*
X17317501Y-9890286D02*
X17307977Y-9842667D01*
X17307977Y-9842667D02*
X17298453Y-9814095D01*
X17298453Y-9814095D02*
X17288929Y-9795048D01*
X17288929Y-9795048D02*
X17269882Y-9766476D01*
X17269882Y-9766476D02*
X17260358Y-9756952D01*
M02*
