%TF.GenerationSoftware,KiCad,Pcbnew,7.0.2*%
%TF.CreationDate,2023-10-17T14:13:15-04:00*%
%TF.ProjectId,BITSv5,42495453-7635-42e6-9b69-6361645f7063,rev?*%
%TF.SameCoordinates,Original*%
%TF.FileFunction,Paste,Top*%
%TF.FilePolarity,Positive*%
%FSLAX46Y46*%
G04 Gerber Fmt 4.6, Leading zero omitted, Abs format (unit mm)*
G04 Created by KiCad (PCBNEW 7.0.2) date 2023-10-17 14:13:15*
%MOMM*%
%LPD*%
G01*
G04 APERTURE LIST*
G04 Aperture macros list*
%AMRoundRect*
0 Rectangle with rounded corners*
0 $1 Rounding radius*
0 $2 $3 $4 $5 $6 $7 $8 $9 X,Y pos of 4 corners*
0 Add a 4 corners polygon primitive as box body*
4,1,4,$2,$3,$4,$5,$6,$7,$8,$9,$2,$3,0*
0 Add four circle primitives for the rounded corners*
1,1,$1+$1,$2,$3*
1,1,$1+$1,$4,$5*
1,1,$1+$1,$6,$7*
1,1,$1+$1,$8,$9*
0 Add four rect primitives between the rounded corners*
20,1,$1+$1,$2,$3,$4,$5,0*
20,1,$1+$1,$4,$5,$6,$7,0*
20,1,$1+$1,$6,$7,$8,$9,0*
20,1,$1+$1,$8,$9,$2,$3,0*%
G04 Aperture macros list end*
%ADD10R,0.972299X0.558000*%
%ADD11R,0.979300X0.431800*%
%ADD12RoundRect,0.135000X-0.185000X0.135000X-0.185000X-0.135000X0.185000X-0.135000X0.185000X0.135000X0*%
%ADD13RoundRect,0.225000X-0.250000X0.225000X-0.250000X-0.225000X0.250000X-0.225000X0.250000X0.225000X0*%
%ADD14RoundRect,0.135000X0.185000X-0.135000X0.185000X0.135000X-0.185000X0.135000X-0.185000X-0.135000X0*%
%ADD15RoundRect,0.140000X0.140000X0.170000X-0.140000X0.170000X-0.140000X-0.170000X0.140000X-0.170000X0*%
%ADD16R,1.193800X1.397000*%
%ADD17RoundRect,0.225000X-0.225000X-0.250000X0.225000X-0.250000X0.225000X0.250000X-0.225000X0.250000X0*%
%ADD18RoundRect,0.250000X1.075000X-0.375000X1.075000X0.375000X-1.075000X0.375000X-1.075000X-0.375000X0*%
%ADD19RoundRect,0.250000X0.292217X-0.292217X0.292217X0.292217X-0.292217X0.292217X-0.292217X-0.292217X0*%
%ADD20RoundRect,0.050000X0.050000X-0.387500X0.050000X0.387500X-0.050000X0.387500X-0.050000X-0.387500X0*%
%ADD21RoundRect,0.050000X0.387500X-0.050000X0.387500X0.050000X-0.387500X0.050000X-0.387500X-0.050000X0*%
%ADD22RoundRect,0.200000X0.275000X-0.200000X0.275000X0.200000X-0.275000X0.200000X-0.275000X-0.200000X0*%
%ADD23RoundRect,0.140000X0.170000X-0.140000X0.170000X0.140000X-0.170000X0.140000X-0.170000X-0.140000X0*%
%ADD24RoundRect,0.225000X0.250000X-0.225000X0.250000X0.225000X-0.250000X0.225000X-0.250000X-0.225000X0*%
%ADD25R,1.150000X0.600000*%
%ADD26R,1.150000X0.300000*%
%ADD27RoundRect,0.200000X0.200000X0.275000X-0.200000X0.275000X-0.200000X-0.275000X0.200000X-0.275000X0*%
%ADD28RoundRect,0.250000X-1.075000X0.375000X-1.075000X-0.375000X1.075000X-0.375000X1.075000X0.375000X0*%
%ADD29RoundRect,0.250000X0.650000X-0.325000X0.650000X0.325000X-0.650000X0.325000X-0.650000X-0.325000X0*%
%ADD30RoundRect,0.150000X-0.512500X-0.150000X0.512500X-0.150000X0.512500X0.150000X-0.512500X0.150000X0*%
%ADD31R,0.200000X0.599999*%
%ADD32R,1.050000X0.399999*%
%ADD33RoundRect,0.140000X-0.170000X0.140000X-0.170000X-0.140000X0.170000X-0.140000X0.170000X0.140000X0*%
%ADD34RoundRect,0.225000X0.225000X0.250000X-0.225000X0.250000X-0.225000X-0.250000X0.225000X-0.250000X0*%
%ADD35RoundRect,0.200000X-0.200000X-0.600000X0.200000X-0.600000X0.200000X0.600000X-0.200000X0.600000X0*%
%ADD36RoundRect,0.250001X-0.799999X-1.249999X0.799999X-1.249999X0.799999X1.249999X-0.799999X1.249999X0*%
%ADD37R,1.000000X0.900000*%
%ADD38R,0.550000X1.700000*%
%ADD39R,0.811200X1.406398*%
%ADD40RoundRect,0.250000X-0.650000X0.325000X-0.650000X-0.325000X0.650000X-0.325000X0.650000X0.325000X0*%
%ADD41RoundRect,0.140000X-0.140000X-0.170000X0.140000X-0.170000X0.140000X0.170000X-0.140000X0.170000X0*%
%ADD42R,1.000000X1.150000*%
%ADD43RoundRect,0.200000X-0.200000X-0.275000X0.200000X-0.275000X0.200000X0.275000X-0.200000X0.275000X0*%
%ADD44RoundRect,0.250000X0.375000X1.075000X-0.375000X1.075000X-0.375000X-1.075000X0.375000X-1.075000X0*%
%ADD45R,0.300000X0.804800*%
%ADD46RoundRect,0.250000X0.325000X0.650000X-0.325000X0.650000X-0.325000X-0.650000X0.325000X-0.650000X0*%
%ADD47RoundRect,0.135000X-0.135000X-0.185000X0.135000X-0.185000X0.135000X0.185000X-0.135000X0.185000X0*%
%ADD48R,0.229400X0.807999*%
%ADD49R,0.807999X0.229400*%
%ADD50R,2.387600X1.397000*%
%ADD51R,0.381000X0.381000*%
%ADD52RoundRect,0.218750X0.218750X0.256250X-0.218750X0.256250X-0.218750X-0.256250X0.218750X-0.256250X0*%
%ADD53R,2.235200X1.168400*%
%ADD54RoundRect,0.250000X-0.300000X0.300000X-0.300000X-0.300000X0.300000X-0.300000X0.300000X0.300000X0*%
%ADD55RoundRect,0.200000X-0.275000X0.200000X-0.275000X-0.200000X0.275000X-0.200000X0.275000X0.200000X0*%
%ADD56R,0.431800X0.965200*%
%ADD57R,4.343400X3.454400*%
%ADD58R,0.299999X0.449999*%
%ADD59R,1.599999X1.000000*%
G04 APERTURE END LIST*
%TO.C,U8*%
G36*
X131425000Y-50815000D02*
G01*
X130025000Y-50815000D01*
X130025000Y-49765000D01*
X131425000Y-49765000D01*
X131425000Y-50815000D01*
G37*
%TO.C,U2*%
G36*
X122261100Y-74328000D02*
G01*
X121013300Y-74328000D01*
X121013300Y-72800800D01*
X122261100Y-72800800D01*
X122261100Y-74328000D01*
G37*
G36*
X123708900Y-74328000D02*
G01*
X122461100Y-74328000D01*
X122461100Y-72800800D01*
X123708900Y-72800800D01*
X123708900Y-74328000D01*
G37*
G36*
X125156700Y-74328000D02*
G01*
X123908900Y-74328000D01*
X123908900Y-72800800D01*
X125156700Y-72800800D01*
X125156700Y-74328000D01*
G37*
G36*
X122261100Y-72600800D02*
G01*
X121013300Y-72600800D01*
X121013300Y-71073600D01*
X122261100Y-71073600D01*
X122261100Y-72600800D01*
G37*
G36*
X123708900Y-72600800D02*
G01*
X122461100Y-72600800D01*
X122461100Y-71073600D01*
X123708900Y-71073600D01*
X123708900Y-72600800D01*
G37*
G36*
X125156700Y-72600800D02*
G01*
X123908900Y-72600800D01*
X123908900Y-71073600D01*
X125156700Y-71073600D01*
X125156700Y-72600800D01*
G37*
%TO.C,U9*%
G36*
X122610562Y-52530941D02*
G01*
X122619754Y-52533730D01*
X122628225Y-52538259D01*
X122635649Y-52544352D01*
X122641743Y-52551776D01*
X122646271Y-52560247D01*
X122649060Y-52569440D01*
X122650003Y-52579000D01*
X122650003Y-53481000D01*
X122649060Y-53490560D01*
X122646271Y-53499753D01*
X122641743Y-53508224D01*
X122635649Y-53515648D01*
X122628225Y-53521741D01*
X122619754Y-53526270D01*
X122610562Y-53529059D01*
X122601001Y-53530002D01*
X121999001Y-53530002D01*
X121989440Y-53529059D01*
X121980248Y-53526270D01*
X121971777Y-53521741D01*
X121964353Y-53515648D01*
X121958259Y-53508224D01*
X121953730Y-53499753D01*
X121950941Y-53490560D01*
X121950002Y-53481000D01*
X121950002Y-52579000D01*
X121950941Y-52569440D01*
X121953730Y-52560247D01*
X121958259Y-52551776D01*
X121964353Y-52544352D01*
X121971777Y-52538259D01*
X121980248Y-52533730D01*
X121989440Y-52530941D01*
X121999001Y-52529998D01*
X122601001Y-52529998D01*
X122610562Y-52530941D01*
G37*
G36*
X123510560Y-52530941D02*
G01*
X123519752Y-52533730D01*
X123528223Y-52538259D01*
X123535647Y-52544352D01*
X123541741Y-52551776D01*
X123546270Y-52560247D01*
X123549059Y-52569440D01*
X123549998Y-52579000D01*
X123549998Y-53481000D01*
X123549059Y-53490560D01*
X123546270Y-53499753D01*
X123541741Y-53508224D01*
X123535647Y-53515648D01*
X123528223Y-53521741D01*
X123519752Y-53526270D01*
X123510560Y-53529059D01*
X123500999Y-53530002D01*
X122898999Y-53530002D01*
X122889438Y-53529059D01*
X122880246Y-53526270D01*
X122871775Y-53521741D01*
X122864351Y-53515648D01*
X122858257Y-53508224D01*
X122853729Y-53499753D01*
X122850940Y-53490560D01*
X122849997Y-53481000D01*
X122849997Y-52579000D01*
X122850940Y-52569440D01*
X122853729Y-52560247D01*
X122858257Y-52551776D01*
X122864351Y-52544352D01*
X122871775Y-52538259D01*
X122880246Y-52533730D01*
X122889438Y-52530941D01*
X122898999Y-52529998D01*
X123500999Y-52529998D01*
X123510560Y-52530941D01*
G37*
%TD*%
D10*
%TO.C,U10*%
X118707551Y-69498103D03*
X118707551Y-68548102D03*
X118707551Y-67598101D03*
X115982649Y-67598101D03*
X115982649Y-68548102D03*
X115982649Y-69498103D03*
%TD*%
D11*
%TO.C,U7*%
X138765948Y-73749999D03*
X138765948Y-73100001D03*
X138765948Y-72449999D03*
X138765948Y-71800001D03*
X136034052Y-71800001D03*
X136034052Y-72449999D03*
X136034052Y-73100001D03*
X136034052Y-73749999D03*
%TD*%
D12*
%TO.C,R20*%
X128775000Y-49735000D03*
X128775000Y-50755000D03*
%TD*%
D13*
%TO.C,C35*%
X128705000Y-57160000D03*
X128705000Y-55610000D03*
%TD*%
D14*
%TO.C,R18*%
X131595000Y-53555000D03*
X131595000Y-52535000D03*
%TD*%
D15*
%TO.C,C1*%
X124670000Y-63825600D03*
X123710000Y-63825600D03*
%TD*%
D13*
%TO.C,C25*%
X139253000Y-61331899D03*
X139253000Y-62881899D03*
%TD*%
D16*
%TO.C,SW3*%
X112700100Y-75255001D03*
X110160100Y-79655000D03*
X107620100Y-75255001D03*
%TD*%
D17*
%TO.C,C42*%
X140425000Y-74525000D03*
X141975000Y-74525000D03*
%TD*%
D18*
%TO.C,L1*%
X141943000Y-63036899D03*
X141943000Y-60236899D03*
%TD*%
D19*
%TO.C,U1*%
X129742500Y-67485600D03*
X131017500Y-67485600D03*
X129742500Y-66210600D03*
X131017500Y-66210600D03*
D20*
X127780000Y-70285600D03*
X128180000Y-70285600D03*
X128580000Y-70285600D03*
X128980000Y-70285600D03*
X129380000Y-70285600D03*
X129780000Y-70285600D03*
X130180000Y-70285600D03*
X130580000Y-70285600D03*
X130980000Y-70285600D03*
X131380000Y-70285600D03*
X131780000Y-70285600D03*
X132180000Y-70285600D03*
X132580000Y-70285600D03*
X132980000Y-70285600D03*
D21*
X133817500Y-69448100D03*
X133817500Y-69048100D03*
X133817500Y-68648100D03*
X133817500Y-68248100D03*
X133817500Y-67848100D03*
X133817500Y-67448100D03*
X133817500Y-67048100D03*
X133817500Y-66648100D03*
X133817500Y-66248100D03*
X133817500Y-65848100D03*
X133817500Y-65448100D03*
X133817500Y-65048100D03*
X133817500Y-64648100D03*
X133817500Y-64248100D03*
D20*
X132980000Y-63410600D03*
X132580000Y-63410600D03*
X132180000Y-63410600D03*
X131780000Y-63410600D03*
X131380000Y-63410600D03*
X130980000Y-63410600D03*
X130580000Y-63410600D03*
X130180000Y-63410600D03*
X129780000Y-63410600D03*
X129380000Y-63410600D03*
X128980000Y-63410600D03*
X128580000Y-63410600D03*
X128180000Y-63410600D03*
X127780000Y-63410600D03*
D21*
X126942500Y-64248100D03*
X126942500Y-64648100D03*
X126942500Y-65048100D03*
X126942500Y-65448100D03*
X126942500Y-65848100D03*
X126942500Y-66248100D03*
X126942500Y-66648100D03*
X126942500Y-67048100D03*
X126942500Y-67448100D03*
X126942500Y-67848100D03*
X126942500Y-68248100D03*
X126942500Y-68648100D03*
X126942500Y-69048100D03*
X126942500Y-69448100D03*
%TD*%
D22*
%TO.C,R24*%
X143575000Y-47725000D03*
X143575000Y-46075000D03*
%TD*%
D14*
%TO.C,R19*%
X132655000Y-51045000D03*
X132655000Y-50025000D03*
%TD*%
D23*
%TO.C,C37*%
X129995000Y-53515000D03*
X129995000Y-52555000D03*
%TD*%
D15*
%TO.C,R5*%
X135980000Y-67065600D03*
X135020000Y-67065600D03*
%TD*%
D17*
%TO.C,C43*%
X140450000Y-72900000D03*
X142000000Y-72900000D03*
%TD*%
D24*
%TO.C,C36*%
X128705000Y-52510000D03*
X128705000Y-54060000D03*
%TD*%
D22*
%TO.C,R17*%
X127055000Y-50635000D03*
X127055000Y-52285000D03*
%TD*%
D13*
%TO.C,C21*%
X132893000Y-52261899D03*
X132893000Y-53811899D03*
%TD*%
D22*
%TO.C,R33*%
X135683000Y-62426899D03*
X135683000Y-60776899D03*
%TD*%
D25*
%TO.C,J2*%
X113475100Y-65398102D03*
X113475100Y-66198102D03*
D26*
X113475100Y-67348102D03*
X113475100Y-68348102D03*
X113475100Y-68848102D03*
X113475100Y-69848102D03*
D25*
X113475100Y-70998102D03*
X113475100Y-71798102D03*
X113475100Y-71798102D03*
X113475100Y-70998102D03*
D26*
X113475100Y-70348102D03*
X113475100Y-69348102D03*
X113475100Y-67848102D03*
X113475100Y-66848102D03*
D25*
X113475100Y-66198102D03*
X113475100Y-65398102D03*
%TD*%
D27*
%TO.C,R34*%
X132348000Y-55406899D03*
X133998000Y-55406899D03*
%TD*%
D28*
%TO.C,L2*%
X141933000Y-55476899D03*
X141933000Y-58276899D03*
%TD*%
D23*
%TO.C,C9*%
X131130000Y-62235600D03*
X131130000Y-61275600D03*
%TD*%
D29*
%TO.C,C20*%
X143573000Y-53606899D03*
X143573000Y-50656899D03*
%TD*%
D30*
%TO.C,Q1*%
X116570000Y-72400000D03*
X116570000Y-74300000D03*
X118845000Y-73350000D03*
%TD*%
D29*
%TO.C,C28*%
X149575000Y-58325000D03*
X149575000Y-55375000D03*
%TD*%
D24*
%TO.C,C39*%
X140475000Y-47675000D03*
X140475000Y-46125000D03*
%TD*%
D31*
%TO.C,U6*%
X125529999Y-53660002D03*
X126030000Y-53660002D03*
X126530000Y-53660002D03*
X127030001Y-53660002D03*
D32*
X126955000Y-54485002D03*
X126955000Y-55185001D03*
D31*
X127030001Y-55960000D03*
X126530000Y-55960000D03*
X126030000Y-55960000D03*
X125529999Y-55960000D03*
D32*
X125605000Y-55185001D03*
X125605000Y-54485002D03*
%TD*%
D33*
%TO.C,C13*%
X135970000Y-68025600D03*
X135970000Y-68985600D03*
%TD*%
D24*
%TO.C,C33*%
X125430000Y-50685000D03*
X125430000Y-52235000D03*
%TD*%
D34*
%TO.C,C23*%
X136003000Y-53796899D03*
X134453000Y-53796899D03*
%TD*%
D35*
%TO.C,J1*%
X116805000Y-81505000D03*
X118055000Y-81505000D03*
X119305000Y-81505000D03*
X120555000Y-81505000D03*
X121805000Y-81505000D03*
X123055000Y-81505000D03*
X124305000Y-81505000D03*
X125555000Y-81505000D03*
X126805000Y-81505000D03*
X128055000Y-81505000D03*
D36*
X114255000Y-84405000D03*
X130605000Y-84405000D03*
%TD*%
D22*
%TO.C,R14*%
X149450000Y-52250000D03*
X149450000Y-50600000D03*
%TD*%
D33*
%TO.C,C10*%
X131420000Y-71465600D03*
X131420000Y-72425600D03*
%TD*%
D22*
%TO.C,R22*%
X125505000Y-57210000D03*
X125505000Y-58860000D03*
%TD*%
D17*
%TO.C,C26*%
X120875000Y-63575000D03*
X122425000Y-63575000D03*
%TD*%
D27*
%TO.C,R10*%
X145950000Y-58500000D03*
X144300000Y-58500000D03*
%TD*%
D37*
%TO.C,SW1*%
X142350000Y-67225000D03*
X142350000Y-71325000D03*
X140750000Y-67225000D03*
X140750000Y-71325000D03*
D38*
X142975000Y-69275000D03*
%TD*%
D33*
%TO.C,C6*%
X122675000Y-67545000D03*
X122675000Y-68505000D03*
%TD*%
D39*
%TO.C,SW2*%
X135025002Y-78182700D03*
X131524998Y-78182700D03*
X133275000Y-82067300D03*
%TD*%
D27*
%TO.C,R23*%
X122305000Y-58785000D03*
X123955000Y-58785000D03*
%TD*%
D40*
%TO.C,C38*%
X149525000Y-60225000D03*
X149525000Y-63175000D03*
%TD*%
D22*
%TO.C,R15*%
X127105000Y-57210000D03*
X127105000Y-58860000D03*
%TD*%
D41*
%TO.C,C3*%
X136950000Y-64615600D03*
X137910000Y-64615600D03*
%TD*%
D33*
%TO.C,C12*%
X121725000Y-67535600D03*
X121725000Y-68495600D03*
%TD*%
D42*
%TO.C,Y1*%
X137320000Y-67955600D03*
X137320000Y-69705600D03*
X138720000Y-69705600D03*
X138720000Y-67955600D03*
%TD*%
D43*
%TO.C,R32*%
X134403000Y-52196899D03*
X136053000Y-52196899D03*
%TD*%
D13*
%TO.C,C15*%
X132340000Y-58640000D03*
X132340000Y-60190000D03*
%TD*%
D17*
%TO.C,C17*%
X138458000Y-53746899D03*
X140008000Y-53746899D03*
%TD*%
%TO.C,C19*%
X138488000Y-50496899D03*
X140038000Y-50496899D03*
%TD*%
D41*
%TO.C,C11*%
X136950000Y-65595600D03*
X137910000Y-65595600D03*
%TD*%
D44*
%TO.C,L4*%
X147325000Y-62375000D03*
X144525000Y-62375000D03*
%TD*%
D22*
%TO.C,R29*%
X137333000Y-62411899D03*
X137333000Y-60761899D03*
%TD*%
D45*
%TO.C,U8*%
X130225001Y-51242401D03*
X130725000Y-51242401D03*
X131224999Y-51242401D03*
%TD*%
D46*
%TO.C,C16*%
X142648000Y-65151899D03*
X139698000Y-65151899D03*
%TD*%
D15*
%TO.C,C2*%
X124670000Y-62815600D03*
X123710000Y-62815600D03*
%TD*%
D47*
%TO.C,R2*%
X123680000Y-65835600D03*
X124700000Y-65835600D03*
%TD*%
D43*
%TO.C,R16*%
X130280000Y-58760000D03*
X128630000Y-58760000D03*
%TD*%
D41*
%TO.C,C14*%
X136950000Y-66595600D03*
X137910000Y-66595600D03*
%TD*%
D48*
%TO.C,U5*%
X135998400Y-59191500D03*
X136498399Y-59191500D03*
X136998400Y-59191500D03*
X137498400Y-59191500D03*
X137998401Y-59191500D03*
X138498400Y-59191500D03*
D49*
X139138300Y-58546901D03*
X139138300Y-58046900D03*
X139138300Y-57546900D03*
X139138300Y-57046899D03*
D48*
X138498400Y-56402300D03*
X137998401Y-56402300D03*
X137498400Y-56402300D03*
X136998400Y-56402300D03*
X136498399Y-56402300D03*
X135998400Y-56402300D03*
D49*
X135358500Y-57046899D03*
X135358500Y-57546900D03*
X135358500Y-58046900D03*
X135358500Y-58546901D03*
D50*
X137248400Y-57796900D03*
D51*
X135445000Y-59105000D03*
X139051800Y-59105000D03*
X139051800Y-56488800D03*
X135445000Y-56488800D03*
%TD*%
D13*
%TO.C,C30*%
X138850000Y-75425000D03*
X138850000Y-76975000D03*
%TD*%
D27*
%TO.C,R4*%
X132250000Y-76125000D03*
X130600000Y-76125000D03*
%TD*%
D34*
%TO.C,C41*%
X135350000Y-75150000D03*
X133800000Y-75150000D03*
%TD*%
D33*
%TO.C,C5*%
X126980000Y-71515600D03*
X126980000Y-72475600D03*
%TD*%
D22*
%TO.C,R21*%
X142025000Y-47725000D03*
X142025000Y-46075000D03*
%TD*%
%TO.C,R12*%
X115917500Y-77615000D03*
X115917500Y-75965000D03*
%TD*%
D27*
%TO.C,R27*%
X140068000Y-52136899D03*
X138418000Y-52136899D03*
%TD*%
D15*
%TO.C,C4*%
X124530000Y-68125600D03*
X123570000Y-68125600D03*
%TD*%
D47*
%TO.C,R1*%
X123680000Y-64835600D03*
X124700000Y-64835600D03*
%TD*%
D23*
%TO.C,C32*%
X126690000Y-62175600D03*
X126690000Y-61215600D03*
%TD*%
D52*
%TO.C,D1*%
X119155000Y-75950000D03*
X117580000Y-75950000D03*
%TD*%
D13*
%TO.C,C34*%
X123880000Y-57185000D03*
X123880000Y-55635000D03*
%TD*%
D27*
%TO.C,R13*%
X145950000Y-59975000D03*
X144300000Y-59975000D03*
%TD*%
D24*
%TO.C,C40*%
X138925000Y-47675000D03*
X138925000Y-46125000D03*
%TD*%
D17*
%TO.C,C27*%
X120875000Y-62050000D03*
X122425000Y-62050000D03*
%TD*%
D34*
%TO.C,C24*%
X136018000Y-50566899D03*
X134468000Y-50566899D03*
%TD*%
D15*
%TO.C,C7*%
X119515000Y-71035000D03*
X118555000Y-71035000D03*
%TD*%
D53*
%TO.C,AE2*%
X150425000Y-76353200D03*
X150425000Y-69596800D03*
%TD*%
D44*
%TO.C,L3*%
X147375000Y-56125000D03*
X144575000Y-56125000D03*
%TD*%
D54*
%TO.C,D2*%
X147425000Y-50750000D03*
X147425000Y-53550000D03*
%TD*%
D13*
%TO.C,C18*%
X141603000Y-52201899D03*
X141603000Y-53751899D03*
%TD*%
D55*
%TO.C,R11*%
X134350000Y-71950000D03*
X134350000Y-73600000D03*
%TD*%
D23*
%TO.C,C8*%
X125660000Y-62175600D03*
X125660000Y-61215600D03*
%TD*%
D13*
%TO.C,C22*%
X133870000Y-58080000D03*
X133870000Y-59630000D03*
%TD*%
D27*
%TO.C,R3*%
X119182500Y-77590000D03*
X117532500Y-77590000D03*
%TD*%
D56*
%TO.C,U2*%
X121180000Y-75571000D03*
X122450000Y-75571000D03*
X123720000Y-75571000D03*
X124990000Y-75571000D03*
X124990000Y-69830600D03*
X123720000Y-69830600D03*
X122450000Y-69830600D03*
X121180000Y-69830600D03*
D57*
X123085000Y-72700800D03*
%TD*%
D58*
%TO.C,U9*%
X123400001Y-52055001D03*
X122750000Y-52055001D03*
X122100001Y-52055001D03*
X122100001Y-54004999D03*
X122750000Y-54004999D03*
X123400001Y-54004999D03*
D59*
X122750000Y-53030000D03*
%TD*%
M02*
