%TF.GenerationSoftware,KiCad,Pcbnew,7.0.5-0*%
%TF.CreationDate,2024-02-18T18:21:39-05:00*%
%TF.ProjectId,BITSv5,42495453-7635-42e6-9b69-6361645f7063,2*%
%TF.SameCoordinates,Original*%
%TF.FileFunction,Copper,L1,Top*%
%TF.FilePolarity,Positive*%
%FSLAX46Y46*%
G04 Gerber Fmt 4.6, Leading zero omitted, Abs format (unit mm)*
G04 Created by KiCad (PCBNEW 7.0.5-0) date 2024-02-18 18:21:39*
%MOMM*%
%LPD*%
G01*
G04 APERTURE LIST*
G04 Aperture macros list*
%AMRoundRect*
0 Rectangle with rounded corners*
0 $1 Rounding radius*
0 $2 $3 $4 $5 $6 $7 $8 $9 X,Y pos of 4 corners*
0 Add a 4 corners polygon primitive as box body*
4,1,4,$2,$3,$4,$5,$6,$7,$8,$9,$2,$3,0*
0 Add four circle primitives for the rounded corners*
1,1,$1+$1,$2,$3*
1,1,$1+$1,$4,$5*
1,1,$1+$1,$6,$7*
1,1,$1+$1,$8,$9*
0 Add four rect primitives between the rounded corners*
20,1,$1+$1,$2,$3,$4,$5,0*
20,1,$1+$1,$4,$5,$6,$7,0*
20,1,$1+$1,$6,$7,$8,$9,0*
20,1,$1+$1,$8,$9,$2,$3,0*%
%AMFreePoly0*
4,1,12,0.600035,0.600035,0.600050,0.600000,0.600050,-1.800000,0.600036,-1.800036,0.600000,-1.800050,0.599965,-1.800036,-1.800035,0.599965,-1.800050,0.600000,-1.800035,0.600035,-1.800000,0.600050,0.600000,0.600050,0.600035,0.600035,0.600035,0.600035,$1*%
G04 Aperture macros list end*
%TA.AperFunction,SMDPad,CuDef*%
%ADD10RoundRect,0.200000X0.200000X0.275000X-0.200000X0.275000X-0.200000X-0.275000X0.200000X-0.275000X0*%
%TD*%
%TA.AperFunction,SMDPad,CuDef*%
%ADD11RoundRect,0.225000X-0.225000X-0.250000X0.225000X-0.250000X0.225000X0.250000X-0.225000X0.250000X0*%
%TD*%
%TA.AperFunction,SMDPad,CuDef*%
%ADD12RoundRect,0.140000X0.140000X0.170000X-0.140000X0.170000X-0.140000X-0.170000X0.140000X-0.170000X0*%
%TD*%
%TA.AperFunction,SMDPad,CuDef*%
%ADD13R,1.193800X1.397000*%
%TD*%
%TA.AperFunction,SMDPad,CuDef*%
%ADD14RoundRect,0.050000X0.050000X-0.387500X0.050000X0.387500X-0.050000X0.387500X-0.050000X-0.387500X0*%
%TD*%
%TA.AperFunction,SMDPad,CuDef*%
%ADD15RoundRect,0.050000X0.387500X-0.050000X0.387500X0.050000X-0.387500X0.050000X-0.387500X-0.050000X0*%
%TD*%
%TA.AperFunction,ComponentPad*%
%ADD16C,0.600000*%
%TD*%
%TA.AperFunction,SMDPad,CuDef*%
%ADD17RoundRect,0.144000X1.456000X-1.456000X1.456000X1.456000X-1.456000X1.456000X-1.456000X-1.456000X0*%
%TD*%
%TA.AperFunction,SMDPad,CuDef*%
%ADD18RoundRect,0.200000X0.053033X-0.335876X0.335876X-0.053033X-0.053033X0.335876X-0.335876X0.053033X0*%
%TD*%
%TA.AperFunction,SMDPad,CuDef*%
%ADD19R,0.972299X0.558000*%
%TD*%
%TA.AperFunction,SMDPad,CuDef*%
%ADD20FreePoly0,0.000000*%
%TD*%
%TA.AperFunction,SMDPad,CuDef*%
%ADD21R,4.100000X1.700000*%
%TD*%
%TA.AperFunction,SMDPad,CuDef*%
%ADD22RoundRect,0.200000X-0.275000X0.200000X-0.275000X-0.200000X0.275000X-0.200000X0.275000X0.200000X0*%
%TD*%
%TA.AperFunction,SMDPad,CuDef*%
%ADD23RoundRect,0.250000X-0.475000X0.250000X-0.475000X-0.250000X0.475000X-0.250000X0.475000X0.250000X0*%
%TD*%
%TA.AperFunction,SMDPad,CuDef*%
%ADD24RoundRect,0.135000X0.135000X0.185000X-0.135000X0.185000X-0.135000X-0.185000X0.135000X-0.185000X0*%
%TD*%
%TA.AperFunction,ComponentPad*%
%ADD25C,4.400000*%
%TD*%
%TA.AperFunction,SMDPad,CuDef*%
%ADD26RoundRect,0.200000X0.275000X-0.200000X0.275000X0.200000X-0.275000X0.200000X-0.275000X-0.200000X0*%
%TD*%
%TA.AperFunction,SMDPad,CuDef*%
%ADD27C,2.000000*%
%TD*%
%TA.AperFunction,SMDPad,CuDef*%
%ADD28RoundRect,0.200000X0.335876X0.053033X0.053033X0.335876X-0.335876X-0.053033X-0.053033X-0.335876X0*%
%TD*%
%TA.AperFunction,SMDPad,CuDef*%
%ADD29R,1.150000X0.600000*%
%TD*%
%TA.AperFunction,SMDPad,CuDef*%
%ADD30R,1.150000X0.300000*%
%TD*%
%TA.AperFunction,ComponentPad*%
%ADD31O,2.100000X1.000000*%
%TD*%
%TA.AperFunction,ComponentPad*%
%ADD32O,1.800000X1.000000*%
%TD*%
%TA.AperFunction,ComponentPad*%
%ADD33C,1.400000*%
%TD*%
%TA.AperFunction,ComponentPad*%
%ADD34R,3.500000X3.500000*%
%TD*%
%TA.AperFunction,ComponentPad*%
%ADD35C,3.500000*%
%TD*%
%TA.AperFunction,SMDPad,CuDef*%
%ADD36RoundRect,0.140000X0.170000X-0.140000X0.170000X0.140000X-0.170000X0.140000X-0.170000X-0.140000X0*%
%TD*%
%TA.AperFunction,SMDPad,CuDef*%
%ADD37RoundRect,0.150000X-0.512500X-0.150000X0.512500X-0.150000X0.512500X0.150000X-0.512500X0.150000X0*%
%TD*%
%TA.AperFunction,SMDPad,CuDef*%
%ADD38RoundRect,0.250000X-0.325000X-0.650000X0.325000X-0.650000X0.325000X0.650000X-0.325000X0.650000X0*%
%TD*%
%TA.AperFunction,SMDPad,CuDef*%
%ADD39RoundRect,0.250000X0.475000X-0.250000X0.475000X0.250000X-0.475000X0.250000X-0.475000X-0.250000X0*%
%TD*%
%TA.AperFunction,ComponentPad*%
%ADD40C,2.000000*%
%TD*%
%TA.AperFunction,SMDPad,CuDef*%
%ADD41R,0.399999X1.050000*%
%TD*%
%TA.AperFunction,SMDPad,CuDef*%
%ADD42R,0.599999X0.200000*%
%TD*%
%TA.AperFunction,SMDPad,CuDef*%
%ADD43R,0.475000X1.200000*%
%TD*%
%TA.AperFunction,SMDPad,CuDef*%
%ADD44R,0.349999X1.200000*%
%TD*%
%TA.AperFunction,SMDPad,CuDef*%
%ADD45R,2.150001X1.599999*%
%TD*%
%TA.AperFunction,SMDPad,CuDef*%
%ADD46R,0.900001X0.349999*%
%TD*%
%TA.AperFunction,SMDPad,CuDef*%
%ADD47R,1.500000X0.300000*%
%TD*%
%TA.AperFunction,ComponentPad*%
%ADD48C,0.499999*%
%TD*%
%TA.AperFunction,SMDPad,CuDef*%
%ADD49RoundRect,0.140000X-0.170000X0.140000X-0.170000X-0.140000X0.170000X-0.140000X0.170000X0.140000X0*%
%TD*%
%TA.AperFunction,SMDPad,CuDef*%
%ADD50R,0.550000X0.950000*%
%TD*%
%TA.AperFunction,SMDPad,CuDef*%
%ADD51RoundRect,0.225000X0.225000X0.250000X-0.225000X0.250000X-0.225000X-0.250000X0.225000X-0.250000X0*%
%TD*%
%TA.AperFunction,SMDPad,CuDef*%
%ADD52R,0.900000X1.000000*%
%TD*%
%TA.AperFunction,SMDPad,CuDef*%
%ADD53R,0.811200X1.406398*%
%TD*%
%TA.AperFunction,SMDPad,CuDef*%
%ADD54RoundRect,0.250000X0.650000X-0.325000X0.650000X0.325000X-0.650000X0.325000X-0.650000X-0.325000X0*%
%TD*%
%TA.AperFunction,SMDPad,CuDef*%
%ADD55RoundRect,0.140000X-0.140000X-0.170000X0.140000X-0.170000X0.140000X0.170000X-0.140000X0.170000X0*%
%TD*%
%TA.AperFunction,SMDPad,CuDef*%
%ADD56R,1.000000X1.150000*%
%TD*%
%TA.AperFunction,SMDPad,CuDef*%
%ADD57RoundRect,0.225000X-0.250000X0.225000X-0.250000X-0.225000X0.250000X-0.225000X0.250000X0.225000X0*%
%TD*%
%TA.AperFunction,SMDPad,CuDef*%
%ADD58RoundRect,0.225000X0.250000X-0.225000X0.250000X0.225000X-0.250000X0.225000X-0.250000X-0.225000X0*%
%TD*%
%TA.AperFunction,SMDPad,CuDef*%
%ADD59R,0.449999X0.299999*%
%TD*%
%TA.AperFunction,SMDPad,CuDef*%
%ADD60R,1.000000X1.599999*%
%TD*%
%TA.AperFunction,ComponentPad*%
%ADD61R,1.700000X1.700000*%
%TD*%
%TA.AperFunction,ComponentPad*%
%ADD62O,1.700000X1.700000*%
%TD*%
%TA.AperFunction,SMDPad,CuDef*%
%ADD63RoundRect,0.250000X-1.075000X0.375000X-1.075000X-0.375000X1.075000X-0.375000X1.075000X0.375000X0*%
%TD*%
%TA.AperFunction,SMDPad,CuDef*%
%ADD64RoundRect,0.200000X-0.335876X-0.053033X-0.053033X-0.335876X0.335876X0.053033X0.053033X0.335876X0*%
%TD*%
%TA.AperFunction,SMDPad,CuDef*%
%ADD65RoundRect,0.200000X-0.200000X-0.275000X0.200000X-0.275000X0.200000X0.275000X-0.200000X0.275000X0*%
%TD*%
%TA.AperFunction,SMDPad,CuDef*%
%ADD66RoundRect,0.135000X-0.135000X-0.185000X0.135000X-0.185000X0.135000X0.185000X-0.135000X0.185000X0*%
%TD*%
%TA.AperFunction,SMDPad,CuDef*%
%ADD67RoundRect,0.225000X-0.309574X-0.131488X0.098265X-0.321666X0.309574X0.131488X-0.098265X0.321666X0*%
%TD*%
%TA.AperFunction,SMDPad,CuDef*%
%ADD68RoundRect,0.200000X-0.053033X0.335876X-0.335876X0.053033X0.053033X-0.335876X0.335876X-0.053033X0*%
%TD*%
%TA.AperFunction,SMDPad,CuDef*%
%ADD69RoundRect,0.200000X-0.200000X-0.600000X0.200000X-0.600000X0.200000X0.600000X-0.200000X0.600000X0*%
%TD*%
%TA.AperFunction,SMDPad,CuDef*%
%ADD70RoundRect,0.250001X-0.799999X-1.249999X0.799999X-1.249999X0.799999X1.249999X-0.799999X1.249999X0*%
%TD*%
%TA.AperFunction,SMDPad,CuDef*%
%ADD71RoundRect,0.218750X0.218750X0.256250X-0.218750X0.256250X-0.218750X-0.256250X0.218750X-0.256250X0*%
%TD*%
%TA.AperFunction,SMDPad,CuDef*%
%ADD72RoundRect,0.250000X1.075000X-0.375000X1.075000X0.375000X-1.075000X0.375000X-1.075000X-0.375000X0*%
%TD*%
%TA.AperFunction,SMDPad,CuDef*%
%ADD73RoundRect,0.250000X-0.300000X-0.300000X0.300000X-0.300000X0.300000X0.300000X-0.300000X0.300000X0*%
%TD*%
%TA.AperFunction,SMDPad,CuDef*%
%ADD74R,1.000000X1.000000*%
%TD*%
%TA.AperFunction,SMDPad,CuDef*%
%ADD75R,1.050000X2.200000*%
%TD*%
%TA.AperFunction,SMDPad,CuDef*%
%ADD76RoundRect,0.237500X-0.250000X-0.237500X0.250000X-0.237500X0.250000X0.237500X-0.250000X0.237500X0*%
%TD*%
%TA.AperFunction,SMDPad,CuDef*%
%ADD77C,0.200000*%
%TD*%
%TA.AperFunction,SMDPad,CuDef*%
%ADD78RoundRect,0.237500X0.250000X0.237500X-0.250000X0.237500X-0.250000X-0.237500X0.250000X-0.237500X0*%
%TD*%
%TA.AperFunction,SMDPad,CuDef*%
%ADD79R,0.431800X0.965200*%
%TD*%
%TA.AperFunction,SMDPad,CuDef*%
%ADD80R,4.343400X3.454400*%
%TD*%
%TA.AperFunction,SMDPad,CuDef*%
%ADD81RoundRect,0.250000X-0.650000X0.325000X-0.650000X-0.325000X0.650000X-0.325000X0.650000X0.325000X0*%
%TD*%
%TA.AperFunction,SMDPad,CuDef*%
%ADD82RoundRect,0.175000X0.175000X-0.725000X0.175000X0.725000X-0.175000X0.725000X-0.175000X-0.725000X0*%
%TD*%
%TA.AperFunction,SMDPad,CuDef*%
%ADD83RoundRect,0.200000X0.200000X-0.700000X0.200000X0.700000X-0.200000X0.700000X-0.200000X-0.700000X0*%
%TD*%
%TA.AperFunction,ViaPad*%
%ADD84C,0.450000*%
%TD*%
%TA.AperFunction,ViaPad*%
%ADD85C,0.800000*%
%TD*%
%TA.AperFunction,ViaPad*%
%ADD86C,0.600000*%
%TD*%
%TA.AperFunction,ViaPad*%
%ADD87C,1.000000*%
%TD*%
%TA.AperFunction,Conductor*%
%ADD88C,0.200000*%
%TD*%
%TA.AperFunction,Conductor*%
%ADD89C,0.250000*%
%TD*%
%TA.AperFunction,Conductor*%
%ADD90C,0.300000*%
%TD*%
%TA.AperFunction,Conductor*%
%ADD91C,0.500000*%
%TD*%
%TA.AperFunction,Conductor*%
%ADD92C,0.800000*%
%TD*%
%TA.AperFunction,Conductor*%
%ADD93C,0.600000*%
%TD*%
%TA.AperFunction,Conductor*%
%ADD94C,0.450000*%
%TD*%
%TA.AperFunction,Conductor*%
%ADD95C,0.400000*%
%TD*%
%TA.AperFunction,Conductor*%
%ADD96C,0.750000*%
%TD*%
%TA.AperFunction,Conductor*%
%ADD97C,1.000000*%
%TD*%
%TA.AperFunction,Conductor*%
%ADD98C,0.350000*%
%TD*%
%TA.AperFunction,Conductor*%
%ADD99C,0.700000*%
%TD*%
%TA.AperFunction,Conductor*%
%ADD100C,0.650000*%
%TD*%
%TA.AperFunction,Conductor*%
%ADD101C,0.228600*%
%TD*%
G04 APERTURE END LIST*
D10*
%TO.P,R9,1*%
%TO.N,+3V3*%
X145825000Y-68800000D03*
%TO.P,R9,2*%
%TO.N,/SDA*%
X144175000Y-68800000D03*
%TD*%
D11*
%TO.P,C17,1*%
%TO.N,Net-(U5-VCC)*%
X114550000Y-48900000D03*
%TO.P,C17,2*%
%TO.N,GND*%
X116100000Y-48900000D03*
%TD*%
D12*
%TO.P,C1,1*%
%TO.N,+1V1*%
X124670000Y-63825600D03*
%TO.P,C1,2*%
%TO.N,GND*%
X123710000Y-63825600D03*
%TD*%
D13*
%TO.P,SW3,1,A*%
%TO.N,GND*%
X112700100Y-75255001D03*
%TO.P,SW3,2,B*%
%TO.N,Net-(SW3-B)*%
X110160100Y-79655000D03*
%TO.P,SW3,3,C*%
%TO.N,Net-(SW3-C)*%
X107620100Y-75255001D03*
%TD*%
D14*
%TO.P,U1,1,IOVDD*%
%TO.N,+3V3*%
X127780000Y-70285600D03*
%TO.P,U1,2,GPIO0*%
%TO.N,/LED*%
X128180000Y-70285600D03*
%TO.P,U1,3,GPIO1*%
%TO.N,/IRIDIUM_RXD*%
X128580000Y-70285600D03*
%TO.P,U1,4,GPIO2*%
%TO.N,/IRIDIUM_CTS*%
X128980000Y-70285600D03*
%TO.P,U1,5,GPIO3*%
%TO.N,/IRIDIUM_RTS*%
X129380000Y-70285600D03*
%TO.P,U1,6,GPIO4*%
%TO.N,/IRIDIUM_NETAV*%
X129780000Y-70285600D03*
%TO.P,U1,7,GPIO5*%
%TO.N,/IRIDIUM_RING*%
X130180000Y-70285600D03*
%TO.P,U1,8,GPIO6*%
%TO.N,unconnected-(U1-GPIO6-Pad8)*%
X130580000Y-70285600D03*
%TO.P,U1,9,GPIO7*%
%TO.N,unconnected-(U1-GPIO7-Pad9)*%
X130980000Y-70285600D03*
%TO.P,U1,10,IOVDD*%
%TO.N,+3V3*%
X131380000Y-70285600D03*
%TO.P,U1,11,GPIO8*%
%TO.N,/DRF_TXEN*%
X131780000Y-70285600D03*
%TO.P,U1,12,GPIO9*%
%TO.N,/DRF_SW*%
X132180000Y-70285600D03*
%TO.P,U1,13,GPIO10*%
%TO.N,/DRF_DIO1*%
X132580000Y-70285600D03*
%TO.P,U1,14,GPIO11*%
%TO.N,/DRF_BUSY*%
X132980000Y-70285600D03*
D15*
%TO.P,U1,15,GPIO12*%
%TO.N,/IRIDIUM_TXD*%
X133817500Y-69448100D03*
%TO.P,U1,16,GPIO13*%
%TO.N,/RDIO_RST*%
X133817500Y-69048100D03*
%TO.P,U1,17,GPIO14*%
%TO.N,unconnected-(U1-GPIO14-Pad17)*%
X133817500Y-68648100D03*
%TO.P,U1,18,GPIO15*%
%TO.N,unconnected-(U1-GPIO15-Pad18)*%
X133817500Y-68248100D03*
%TO.P,U1,19,TESTEN*%
%TO.N,GND*%
X133817500Y-67848100D03*
%TO.P,U1,20,XIN*%
%TO.N,Net-(U1-XIN)*%
X133817500Y-67448100D03*
%TO.P,U1,21,XOUT*%
%TO.N,Net-(U1-XOUT)*%
X133817500Y-67048100D03*
%TO.P,U1,22,IOVDD*%
%TO.N,+3V3*%
X133817500Y-66648100D03*
%TO.P,U1,23,DVDD*%
%TO.N,+1V1*%
X133817500Y-66248100D03*
%TO.P,U1,24,SWCLK*%
%TO.N,/RP_SWCLK*%
X133817500Y-65848100D03*
%TO.P,U1,25,SWD*%
%TO.N,/RP_SWD*%
X133817500Y-65448100D03*
%TO.P,U1,26,RUN*%
%TO.N,Net-(U1-RUN)*%
X133817500Y-65048100D03*
%TO.P,U1,27,GPIO16*%
%TO.N,unconnected-(U1-GPIO16-Pad27)*%
X133817500Y-64648100D03*
%TO.P,U1,28,GPIO17*%
%TO.N,/TIMEPULSE*%
X133817500Y-64248100D03*
D14*
%TO.P,U1,29,GPIO18*%
%TO.N,/EXTINT*%
X132980000Y-63410600D03*
%TO.P,U1,30,GPIO19*%
%TO.N,unconnected-(U1-GPIO19-Pad30)*%
X132580000Y-63410600D03*
%TO.P,U1,31,GPIO20*%
%TO.N,/SDA*%
X132180000Y-63410600D03*
%TO.P,U1,32,GPIO21*%
%TO.N,/SCL*%
X131780000Y-63410600D03*
%TO.P,U1,33,IOVDD*%
%TO.N,+3V3*%
X131380000Y-63410600D03*
%TO.P,U1,34,GPIO22*%
%TO.N,unconnected-(U1-GPIO22-Pad34)*%
X130980000Y-63410600D03*
%TO.P,U1,35,GPIO23*%
%TO.N,unconnected-(U1-GPIO23-Pad35)*%
X130580000Y-63410600D03*
%TO.P,U1,36,GPIO24*%
%TO.N,/MISO*%
X130180000Y-63410600D03*
%TO.P,U1,37,GPIO25*%
%TO.N,/DRF_CS*%
X129780000Y-63410600D03*
%TO.P,U1,38,GPIO26_ADC0*%
%TO.N,/SCK*%
X129380000Y-63410600D03*
%TO.P,U1,39,GPIO27_ADC1*%
%TO.N,/MOSI*%
X128980000Y-63410600D03*
%TO.P,U1,40,GPIO28_ADC2*%
%TO.N,unconnected-(U1-GPIO28_ADC2-Pad40)*%
X128580000Y-63410600D03*
%TO.P,U1,41,GPIO29_ADC3*%
%TO.N,/FRAM_CS*%
X128180000Y-63410600D03*
%TO.P,U1,42,IOVDD*%
%TO.N,+3V3*%
X127780000Y-63410600D03*
D15*
%TO.P,U1,43,ADC_AVDD*%
X126942500Y-64248100D03*
%TO.P,U1,44,VREG_IN*%
X126942500Y-64648100D03*
%TO.P,U1,45,VREG_VOUT*%
%TO.N,+1V1*%
X126942500Y-65048100D03*
%TO.P,U1,46,USB_DM*%
%TO.N,Net-(U1-USB_DM)*%
X126942500Y-65448100D03*
%TO.P,U1,47,USB_DP*%
%TO.N,Net-(U1-USB_DP)*%
X126942500Y-65848100D03*
%TO.P,U1,48,USB_VDD*%
%TO.N,+3V3*%
X126942500Y-66248100D03*
%TO.P,U1,49,IOVDD*%
X126942500Y-66648100D03*
%TO.P,U1,50,DVDD*%
%TO.N,+1V1*%
X126942500Y-67048100D03*
%TO.P,U1,51,QSPI_SD3*%
%TO.N,/QSPI_SD3*%
X126942500Y-67448100D03*
%TO.P,U1,52,QSPI_SCLK*%
%TO.N,/QSPI_SCLK*%
X126942500Y-67848100D03*
%TO.P,U1,53,QSPI_SD0*%
%TO.N,/QSPI_SD0*%
X126942500Y-68248100D03*
%TO.P,U1,54,QSPI_SD2*%
%TO.N,/QSPI_SD2*%
X126942500Y-68648100D03*
%TO.P,U1,55,QSPI_SD1*%
%TO.N,/QSPI_SD1*%
X126942500Y-69048100D03*
%TO.P,U1,56,QSPI_SS*%
%TO.N,/QSPI_SS*%
X126942500Y-69448100D03*
D16*
%TO.P,U1,57,GND*%
%TO.N,GND*%
X129105000Y-68123100D03*
X130380000Y-68123100D03*
X131655000Y-68123100D03*
X129105000Y-66848100D03*
X130380000Y-66848100D03*
D17*
X130380000Y-66848100D03*
D16*
X131655000Y-66848100D03*
X129105000Y-65573100D03*
X130380000Y-65573100D03*
X131655000Y-65573100D03*
%TD*%
D18*
%TO.P,R29,1*%
%TO.N,VBUS*%
X119216637Y-62983363D03*
%TO.P,R29,2*%
%TO.N,Net-(U6-PR1)*%
X120383363Y-61816637D03*
%TD*%
D19*
%TO.P,U10,1,1*%
%TO.N,/USB_D+*%
X118707551Y-69498103D03*
%TO.P,U10,2,2*%
%TO.N,GND*%
X118707551Y-68548102D03*
%TO.P,U10,3,3*%
%TO.N,/USB_D-*%
X118707551Y-67598101D03*
%TO.P,U10,4,4*%
%TO.N,Net-(J2-D--PadA7)*%
X115982649Y-67598101D03*
%TO.P,U10,5,5*%
%TO.N,VBUS*%
X115982649Y-68548102D03*
%TO.P,U10,6,6*%
%TO.N,Net-(J2-D+-PadA6)*%
X115982649Y-69498103D03*
%TD*%
D20*
%TO.P,BT2,1,+*%
%TO.N,Net-(BT2-+)*%
X145650000Y-62500000D03*
D21*
%TO.P,BT2,2,-*%
%TO.N,GND*%
X144200000Y-66450000D03*
%TD*%
D22*
%TO.P,R24,1*%
%TO.N,+3V3*%
X143000000Y-45075000D03*
%TO.P,R24,2*%
%TO.N,/SCL*%
X143000000Y-46725000D03*
%TD*%
D23*
%TO.P,C21,1*%
%TO.N,+BATT*%
X111700000Y-57050000D03*
%TO.P,C21,2*%
%TO.N,GND*%
X111700000Y-58950000D03*
%TD*%
D24*
%TO.P,R5,1*%
%TO.N,Net-(C14-Pad1)*%
X136010000Y-67065600D03*
%TO.P,R5,2*%
%TO.N,Net-(U1-XOUT)*%
X134990000Y-67065600D03*
%TD*%
D25*
%TO.P,H2,1*%
%TO.N,N/C*%
X108300000Y-84100000D03*
%TD*%
D26*
%TO.P,R33,1*%
%TO.N,Net-(U8-FB)*%
X119200000Y-45025000D03*
%TO.P,R33,2*%
%TO.N,GND*%
X119200000Y-43375000D03*
%TD*%
D27*
%TO.P,TP1,1,1*%
%TO.N,/RP_SWCLK*%
X128800000Y-56900000D03*
%TD*%
D22*
%TO.P,R17,1*%
%TO.N,Net-(U6-ILM)*%
X123700000Y-59575000D03*
%TO.P,R17,2*%
%TO.N,GND*%
X123700000Y-61225000D03*
%TD*%
D28*
%TO.P,R26,1*%
%TO.N,Net-(U6-CP2)*%
X119283363Y-56983363D03*
%TO.P,R26,2*%
%TO.N,GND*%
X118116637Y-55816637D03*
%TD*%
D29*
%TO.P,J2,A1,GND*%
%TO.N,GND*%
X113475100Y-65398102D03*
%TO.P,J2,A4,VBUS*%
%TO.N,VBUS*%
X113475100Y-66198102D03*
D30*
%TO.P,J2,A5,CC1*%
%TO.N,Net-(J2-CC1)*%
X113475100Y-67348102D03*
%TO.P,J2,A6,D+*%
%TO.N,Net-(J2-D+-PadA6)*%
X113475100Y-68348102D03*
%TO.P,J2,A7,D-*%
%TO.N,Net-(J2-D--PadA7)*%
X113475100Y-68848102D03*
%TO.P,J2,A8,SBU1*%
%TO.N,unconnected-(J2-SBU1-PadA8)*%
X113475100Y-69848102D03*
D29*
%TO.P,J2,A9,VBUS*%
%TO.N,VBUS*%
X113475100Y-70998102D03*
%TO.P,J2,A12,GND*%
%TO.N,GND*%
X113475100Y-71798102D03*
%TO.P,J2,B1,GND*%
X113475100Y-71798102D03*
%TO.P,J2,B4,VBUS*%
%TO.N,VBUS*%
X113475100Y-70998102D03*
D30*
%TO.P,J2,B5,CC2*%
%TO.N,Net-(J2-CC2)*%
X113475100Y-70348102D03*
%TO.P,J2,B6,D+*%
%TO.N,Net-(J2-D+-PadA6)*%
X113475100Y-69348102D03*
%TO.P,J2,B7,D-*%
%TO.N,Net-(J2-D--PadA7)*%
X113475100Y-67848102D03*
%TO.P,J2,B8,SBU2*%
%TO.N,unconnected-(J2-SBU2-PadB8)*%
X113475100Y-66848102D03*
D29*
%TO.P,J2,B9,VBUS*%
%TO.N,VBUS*%
X113475100Y-66198102D03*
%TO.P,J2,B12,GND*%
%TO.N,GND*%
X113475100Y-65398102D03*
D31*
%TO.P,J2,S1,SHIELD*%
X112900100Y-64278102D03*
D32*
X108720100Y-64278102D03*
D31*
X112900100Y-72918102D03*
D32*
X108720100Y-72918102D03*
%TD*%
D26*
%TO.P,R32,1*%
%TO.N,Net-(U5-FB)*%
X111400000Y-49825000D03*
%TO.P,R32,2*%
%TO.N,GND*%
X111400000Y-48175000D03*
%TD*%
%TO.P,R15,1*%
%TO.N,+BATT*%
X113300000Y-62325000D03*
%TO.P,R15,2*%
%TO.N,Net-(SW3-B)*%
X113300000Y-60675000D03*
%TD*%
D33*
%TO.P,J3,*%
%TO.N,*%
X98300000Y-59400000D03*
X98300000Y-48400000D03*
D34*
%TO.P,J3,1,Pin_1*%
%TO.N,GND*%
X108300000Y-51400000D03*
D35*
%TO.P,J3,2,Pin_2*%
%TO.N,+BATT*%
X108300000Y-56400000D03*
%TD*%
D36*
%TO.P,C9,1*%
%TO.N,+3V3*%
X131130000Y-62235600D03*
%TO.P,C9,2*%
%TO.N,GND*%
X131130000Y-61275600D03*
%TD*%
D37*
%TO.P,Q1,1,G*%
%TO.N,/LED*%
X116962500Y-72350000D03*
%TO.P,Q1,2,S*%
%TO.N,GND*%
X116962500Y-74250000D03*
%TO.P,Q1,3,D*%
%TO.N,Net-(D1-K)*%
X119237500Y-73300000D03*
%TD*%
D38*
%TO.P,C28,1*%
%TO.N,+3V3*%
X129485000Y-52725000D03*
%TO.P,C28,2*%
%TO.N,GND*%
X132435000Y-52725000D03*
%TD*%
D39*
%TO.P,C25,1*%
%TO.N,Net-(U8-VOUT)*%
X129600000Y-45650000D03*
%TO.P,C25,2*%
%TO.N,GND*%
X129600000Y-43750000D03*
%TD*%
D40*
%TO.P,TP6,1,1*%
%TO.N,/BATT_REG*%
X113400000Y-44600000D03*
%TD*%
D11*
%TO.P,C39,1*%
%TO.N,+3V3*%
X149300000Y-60500000D03*
%TO.P,C39,2*%
%TO.N,GND*%
X150850000Y-60500000D03*
%TD*%
D41*
%TO.P,U6,1,OUT*%
%TO.N,Net-(C16-Pad1)*%
X122724998Y-56325000D03*
%TO.P,U6,2,IN2*%
%TO.N,/BATT_REG*%
X122024999Y-56325000D03*
D42*
%TO.P,U6,3,CP2*%
%TO.N,Net-(U6-CP2)*%
X121250000Y-56249999D03*
%TO.P,U6,4,OV2*%
%TO.N,Net-(U6-OV2)*%
X121250000Y-56750000D03*
%TO.P,U6,5,OV1*%
%TO.N,Net-(U6-OV1)*%
X121250000Y-57250000D03*
%TO.P,U6,6,PR1*%
%TO.N,Net-(U6-PR1)*%
X121250000Y-57750001D03*
D41*
%TO.P,U6,7,IN1*%
%TO.N,VBUS*%
X122024999Y-57675000D03*
%TO.P,U6,8,OUT*%
%TO.N,Net-(C16-Pad1)*%
X122724998Y-57675000D03*
D42*
%TO.P,U6,9,ST*%
%TO.N,GND*%
X123549998Y-57750001D03*
%TO.P,U6,10,ILM*%
%TO.N,Net-(U6-ILM)*%
X123549998Y-57250000D03*
%TO.P,U6,11,SS*%
%TO.N,Net-(U6-SS)*%
X123549998Y-56750000D03*
%TO.P,U6,12,GND*%
%TO.N,GND*%
X123549998Y-56249999D03*
%TD*%
D43*
%TO.P,U8,1,PGOOD*%
%TO.N,unconnected-(U8-PGOOD-Pad1)*%
X124025501Y-46512500D03*
D44*
%TO.P,U8,2,EN*%
%TO.N,+5V*%
X124837501Y-46512500D03*
%TO.P,U8,3,VIN*%
X125337500Y-46512500D03*
D45*
%TO.P,U8,4,VOUT*%
%TO.N,Net-(U8-VOUT)*%
X126987502Y-46312500D03*
%TO.P,U8,5,SW*%
%TO.N,unconnected-(U8-SW-Pad5)*%
X126987502Y-43912500D03*
D44*
%TO.P,U8,6,SW*%
%TO.N,unconnected-(U8-SW-Pad6)*%
X125337500Y-43712500D03*
%TO.P,U8,7,BOOT*%
%TO.N,unconnected-(U8-BOOT-Pad7)*%
X124837501Y-43712500D03*
D43*
%TO.P,U8,8,VCC*%
%TO.N,Net-(U8-VCC)*%
X124025501Y-43712500D03*
D46*
%TO.P,U8,9,FB*%
%TO.N,Net-(U8-FB)*%
X123937503Y-44612501D03*
D47*
%TO.P,U8,10,GND*%
%TO.N,GND*%
X124237501Y-45112500D03*
D48*
X125757501Y-45112500D03*
X126757502Y-45112500D03*
X127757500Y-45112500D03*
D46*
%TO.P,U8,11,MODE*%
X123937503Y-45612499D03*
%TD*%
D49*
%TO.P,C13,1*%
%TO.N,Net-(U1-XIN)*%
X135970000Y-68025600D03*
%TO.P,C13,2*%
%TO.N,GND*%
X135970000Y-68985600D03*
%TD*%
D11*
%TO.P,C33,1*%
%TO.N,Net-(U6-SS)*%
X125225000Y-59400000D03*
%TO.P,C33,2*%
%TO.N,GND*%
X126775000Y-59400000D03*
%TD*%
D18*
%TO.P,R23,1*%
%TO.N,Net-(U6-OV1)*%
X117816637Y-62083363D03*
%TO.P,R23,2*%
%TO.N,GND*%
X118983363Y-60916637D03*
%TD*%
D50*
%TO.P,U11,1,VDD*%
%TO.N,+3V3*%
X143300000Y-72600000D03*
%TO.P,U11,2,PS*%
X144550000Y-72600000D03*
%TO.P,U11,3,GND*%
%TO.N,GND*%
X145800000Y-72600000D03*
%TO.P,U11,4,CSB*%
X147050000Y-72600000D03*
%TO.P,U11,5,CSB*%
X147050000Y-70450000D03*
%TO.P,U11,6,SDO*%
%TO.N,unconnected-(U11-SDO-Pad6)*%
X145800000Y-70450000D03*
%TO.P,U11,7,SDI/SDA*%
%TO.N,/SDA*%
X144550000Y-70450000D03*
%TO.P,U11,8,SCLK*%
%TO.N,/SCL*%
X143300000Y-70450000D03*
%TD*%
D51*
%TO.P,C24,1*%
%TO.N,Net-(U8-VCC)*%
X122575000Y-43300000D03*
%TO.P,C24,2*%
%TO.N,GND*%
X121025000Y-43300000D03*
%TD*%
D26*
%TO.P,R14,1*%
%TO.N,Net-(D2-K)*%
X147300000Y-66025000D03*
%TO.P,R14,2*%
%TO.N,Net-(BT2-+)*%
X147300000Y-64375000D03*
%TD*%
D49*
%TO.P,C10,1*%
%TO.N,+3V3*%
X131300000Y-71465600D03*
%TO.P,C10,2*%
%TO.N,GND*%
X131300000Y-72425600D03*
%TD*%
D25*
%TO.P,H1,1*%
%TO.N,N/C*%
X108300000Y-45300000D03*
%TD*%
D26*
%TO.P,R10,1*%
%TO.N,+3V3*%
X129310000Y-49100000D03*
%TO.P,R10,2*%
%TO.N,Net-(U8-VOUT)*%
X129310000Y-47450000D03*
%TD*%
D11*
%TO.P,C16,1*%
%TO.N,Net-(C16-Pad1)*%
X124725000Y-55600000D03*
%TO.P,C16,2*%
%TO.N,GND*%
X126275000Y-55600000D03*
%TD*%
D52*
%TO.P,B1,1,1*%
%TO.N,GND*%
X135650000Y-71800000D03*
X139750000Y-71800000D03*
%TO.P,B1,2,2*%
%TO.N,Net-(U1-RUN)*%
X135650000Y-73400000D03*
X139750000Y-73400000D03*
%TD*%
D49*
%TO.P,C6,1*%
%TO.N,+3V3*%
X122675000Y-67545000D03*
%TO.P,C6,2*%
%TO.N,GND*%
X122675000Y-68505000D03*
%TD*%
D53*
%TO.P,SW2,1,A*%
%TO.N,unconnected-(SW2-A-Pad1)*%
X135025002Y-78182700D03*
%TO.P,SW2,2,B*%
%TO.N,Net-(SW2-B)*%
X131524998Y-78182700D03*
%TO.P,SW2,3,C*%
%TO.N,GND*%
X133275000Y-82067300D03*
%TD*%
D54*
%TO.P,C18,1*%
%TO.N,/BATT_REG*%
X118800000Y-52375000D03*
%TO.P,C18,2*%
%TO.N,GND*%
X118800000Y-49425000D03*
%TD*%
D38*
%TO.P,C38,1*%
%TO.N,+5V*%
X123350000Y-48900000D03*
%TO.P,C38,2*%
%TO.N,GND*%
X126300000Y-48900000D03*
%TD*%
D55*
%TO.P,C3,1*%
%TO.N,+1V1*%
X136950000Y-64615600D03*
%TO.P,C3,2*%
%TO.N,GND*%
X137910000Y-64615600D03*
%TD*%
D49*
%TO.P,C12,1*%
%TO.N,+3V3*%
X121725000Y-67535600D03*
%TO.P,C12,2*%
%TO.N,GND*%
X121725000Y-68495600D03*
%TD*%
D56*
%TO.P,Y1,1,1*%
%TO.N,Net-(C14-Pad1)*%
X137320000Y-67955600D03*
%TO.P,Y1,2,2*%
%TO.N,GND*%
X137320000Y-69705600D03*
%TO.P,Y1,3,3*%
%TO.N,Net-(U1-XIN)*%
X138720000Y-69705600D03*
%TO.P,Y1,4,4*%
%TO.N,GND*%
X138720000Y-67955600D03*
%TD*%
D57*
%TO.P,C29,1*%
%TO.N,+3V3*%
X143700000Y-74225000D03*
%TO.P,C29,2*%
%TO.N,GND*%
X143700000Y-75775000D03*
%TD*%
D22*
%TO.P,R16,1*%
%TO.N,Net-(SW3-C)*%
X114900000Y-60675000D03*
%TO.P,R16,2*%
%TO.N,GND*%
X114900000Y-62325000D03*
%TD*%
%TO.P,R11,1*%
%TO.N,+3V3*%
X141500000Y-71975000D03*
%TO.P,R11,2*%
%TO.N,Net-(U1-RUN)*%
X141500000Y-73625000D03*
%TD*%
D58*
%TO.P,C23,1*%
%TO.N,+5V*%
X122400000Y-46975000D03*
%TO.P,C23,2*%
%TO.N,GND*%
X122400000Y-45425000D03*
%TD*%
D27*
%TO.P,TP2,1,1*%
%TO.N,/RP_SWD*%
X132300000Y-56800000D03*
%TD*%
D26*
%TO.P,R20,1*%
%TO.N,Net-(U8-VOUT)*%
X120800000Y-46425000D03*
%TO.P,R20,2*%
%TO.N,Net-(U8-FB)*%
X120800000Y-44775000D03*
%TD*%
D59*
%TO.P,U9,1,GND*%
%TO.N,GND*%
X107725001Y-59149999D03*
%TO.P,U9,2,GND*%
X107725001Y-59800000D03*
%TO.P,U9,3,GND*%
X107725001Y-60449999D03*
%TO.P,U9,4,IN*%
%TO.N,+BATT*%
X109674999Y-60449999D03*
%TO.P,U9,5,IN*%
X109674999Y-59800000D03*
%TO.P,U9,6,IN*%
X109674999Y-59149999D03*
D60*
%TO.P,U9,7,PAD*%
%TO.N,GND*%
X108700000Y-59800000D03*
%TD*%
D55*
%TO.P,C11,1*%
%TO.N,+3V3*%
X136950000Y-65595600D03*
%TO.P,C11,2*%
%TO.N,GND*%
X137910000Y-65595600D03*
%TD*%
D61*
%TO.P,J1,1,Pin_1*%
%TO.N,Net-(J1-Pin_1)*%
X149900000Y-71425000D03*
D62*
%TO.P,J1,2,Pin_2*%
%TO.N,Net-(J1-Pin_2)*%
X149900000Y-68885000D03*
%TO.P,J1,3,Pin_3*%
%TO.N,GND*%
X149900000Y-66345000D03*
%TD*%
D63*
%TO.P,L4,1*%
%TO.N,+5V*%
X125500000Y-51100000D03*
%TO.P,L4,2*%
%TO.N,Net-(C16-Pad1)*%
X125500000Y-53900000D03*
%TD*%
D64*
%TO.P,R25,1*%
%TO.N,/BATT_REG*%
X118816637Y-54316637D03*
%TO.P,R25,2*%
%TO.N,Net-(U6-CP2)*%
X119983363Y-55483363D03*
%TD*%
D65*
%TO.P,R6,1*%
%TO.N,+3V3*%
X140975000Y-68800000D03*
%TO.P,R6,2*%
%TO.N,/SCL*%
X142625000Y-68800000D03*
%TD*%
D18*
%TO.P,R22,1*%
%TO.N,VBUS*%
X115616637Y-64283363D03*
%TO.P,R22,2*%
%TO.N,Net-(U6-OV1)*%
X116783363Y-63116637D03*
%TD*%
D12*
%TO.P,C2,1*%
%TO.N,+3V3*%
X124670000Y-62815600D03*
%TO.P,C2,2*%
%TO.N,GND*%
X123710000Y-62815600D03*
%TD*%
D66*
%TO.P,R2,1*%
%TO.N,/USB_D+*%
X123680000Y-65835600D03*
%TO.P,R2,2*%
%TO.N,Net-(U1-USB_DP)*%
X124700000Y-65835600D03*
%TD*%
D55*
%TO.P,C14,1*%
%TO.N,Net-(C14-Pad1)*%
X136950000Y-66595600D03*
%TO.P,C14,2*%
%TO.N,GND*%
X137910000Y-66595600D03*
%TD*%
D67*
%TO.P,C30,1*%
%TO.N,+3V3*%
X140500000Y-75500000D03*
%TO.P,C30,2*%
%TO.N,GND*%
X141904778Y-76155058D03*
%TD*%
D10*
%TO.P,R4,1*%
%TO.N,Net-(SW2-B)*%
X132250000Y-76125000D03*
%TO.P,R4,2*%
%TO.N,/QSPI_SS*%
X130600000Y-76125000D03*
%TD*%
D57*
%TO.P,C15,1*%
%TO.N,VBUS*%
X122200000Y-61825000D03*
%TO.P,C15,2*%
%TO.N,GND*%
X122200000Y-63375000D03*
%TD*%
D43*
%TO.P,U5,1,PGOOD*%
%TO.N,unconnected-(U5-PGOOD-Pad1)*%
X112225501Y-54200000D03*
D44*
%TO.P,U5,2,EN*%
%TO.N,Net-(SW3-B)*%
X113037501Y-54200000D03*
%TO.P,U5,3,VIN*%
%TO.N,+BATT*%
X113537500Y-54200000D03*
D45*
%TO.P,U5,4,VOUT*%
%TO.N,/BATT_REG*%
X115187502Y-54000000D03*
%TO.P,U5,5,SW*%
%TO.N,unconnected-(U5-SW-Pad5)*%
X115187502Y-51600000D03*
D44*
%TO.P,U5,6,SW*%
%TO.N,unconnected-(U5-SW-Pad6)*%
X113537500Y-51400000D03*
%TO.P,U5,7,BOOT*%
%TO.N,unconnected-(U5-BOOT-Pad7)*%
X113037501Y-51400000D03*
D43*
%TO.P,U5,8,VCC*%
%TO.N,Net-(U5-VCC)*%
X112225501Y-51400000D03*
D46*
%TO.P,U5,9,FB*%
%TO.N,Net-(U5-FB)*%
X112137503Y-52300001D03*
D47*
%TO.P,U5,10,GND*%
%TO.N,GND*%
X112437501Y-52800000D03*
D48*
X113957501Y-52800000D03*
X114957502Y-52800000D03*
X115957500Y-52800000D03*
D46*
%TO.P,U5,11,MODE*%
X112137503Y-53299999D03*
%TD*%
D49*
%TO.P,C5,1*%
%TO.N,+3V3*%
X126980000Y-71515600D03*
%TO.P,C5,2*%
%TO.N,GND*%
X126980000Y-72475600D03*
%TD*%
D22*
%TO.P,R31,1*%
%TO.N,/BATT_REG*%
X113000000Y-47375000D03*
%TO.P,R31,2*%
%TO.N,Net-(U5-FB)*%
X113000000Y-49025000D03*
%TD*%
%TO.P,R21,1*%
%TO.N,+3V3*%
X144600000Y-45075000D03*
%TO.P,R21,2*%
%TO.N,/SDA*%
X144600000Y-46725000D03*
%TD*%
D68*
%TO.P,R28,1*%
%TO.N,Net-(U6-OV2)*%
X117783363Y-59816637D03*
%TO.P,R28,2*%
%TO.N,GND*%
X116616637Y-60983363D03*
%TD*%
D26*
%TO.P,R12,1*%
%TO.N,+3V3*%
X115917500Y-77615000D03*
%TO.P,R12,2*%
%TO.N,Net-(D1-A)*%
X115917500Y-75965000D03*
%TD*%
D12*
%TO.P,C4,1*%
%TO.N,+1V1*%
X124530000Y-68125600D03*
%TO.P,C4,2*%
%TO.N,GND*%
X123570000Y-68125600D03*
%TD*%
D66*
%TO.P,R1,1*%
%TO.N,/USB_D-*%
X123680000Y-64835600D03*
%TO.P,R1,2*%
%TO.N,Net-(U1-USB_DM)*%
X124700000Y-64835600D03*
%TD*%
D36*
%TO.P,C32,1*%
%TO.N,+3V3*%
X126690000Y-62175600D03*
%TO.P,C32,2*%
%TO.N,GND*%
X126690000Y-61215600D03*
%TD*%
D69*
%TO.P,J4,1,Pin_1*%
%TO.N,/IRIDIUM_RXD*%
X116805000Y-81500000D03*
%TO.P,J4,2,Pin_2*%
%TO.N,/IRIDIUM_CTS*%
X118055000Y-81500000D03*
%TO.P,J4,3,Pin_3*%
%TO.N,/IRIDIUM_RTS*%
X119305000Y-81500000D03*
%TO.P,J4,4,Pin_4*%
%TO.N,/IRIDIUM_NETAV*%
X120555000Y-81500000D03*
%TO.P,J4,5,Pin_5*%
%TO.N,/IRIDIUM_RING*%
X121805000Y-81500000D03*
%TO.P,J4,6,Pin_6*%
%TO.N,/IRIDIUM_TXD*%
X123055000Y-81500000D03*
%TO.P,J4,7,Pin_7*%
%TO.N,unconnected-(J4-Pin_7-Pad7)*%
X124305000Y-81500000D03*
%TO.P,J4,8,Pin_8*%
%TO.N,+5V*%
X125555000Y-81500000D03*
%TO.P,J4,9,Pin_9*%
%TO.N,unconnected-(J4-Pin_9-Pad9)*%
X126805000Y-81500000D03*
%TO.P,J4,10,Pin_10*%
%TO.N,GND*%
X128055000Y-81500000D03*
D70*
%TO.P,J4,MP*%
%TO.N,N/C*%
X114255000Y-84400000D03*
X130605000Y-84400000D03*
%TD*%
D71*
%TO.P,D1,1,K*%
%TO.N,Net-(D1-K)*%
X119155000Y-75950000D03*
%TO.P,D1,2,A*%
%TO.N,Net-(D1-A)*%
X117580000Y-75950000D03*
%TD*%
D58*
%TO.P,C34,1*%
%TO.N,/BATT_REG*%
X120800000Y-51775000D03*
%TO.P,C34,2*%
%TO.N,GND*%
X120800000Y-50225000D03*
%TD*%
D22*
%TO.P,R13,1*%
%TO.N,+5V*%
X123100000Y-52475000D03*
%TO.P,R13,2*%
%TO.N,Net-(C16-Pad1)*%
X123100000Y-54125000D03*
%TD*%
D51*
%TO.P,C40,1*%
%TO.N,Net-(BT2-+)*%
X147250000Y-60500000D03*
%TO.P,C40,2*%
%TO.N,GND*%
X145700000Y-60500000D03*
%TD*%
D64*
%TO.P,R27,1*%
%TO.N,/BATT_REG*%
X117716637Y-57616637D03*
%TO.P,R27,2*%
%TO.N,Net-(U6-OV2)*%
X118883363Y-58783363D03*
%TD*%
D12*
%TO.P,C7,1*%
%TO.N,+3V3*%
X119515000Y-71035000D03*
%TO.P,C7,2*%
%TO.N,GND*%
X118555000Y-71035000D03*
%TD*%
D25*
%TO.P,H3,1,1*%
%TO.N,GND*%
X149100000Y-84100000D03*
%TD*%
D40*
%TO.P,TP4,1,1*%
%TO.N,+5V*%
X116800000Y-46400000D03*
%TD*%
D68*
%TO.P,R30,1*%
%TO.N,Net-(U6-PR1)*%
X118183363Y-63916637D03*
%TO.P,R30,2*%
%TO.N,GND*%
X117016637Y-65083363D03*
%TD*%
D39*
%TO.P,C31,1*%
%TO.N,Net-(U8-VOUT)*%
X131700000Y-45650000D03*
%TO.P,C31,2*%
%TO.N,GND*%
X131700000Y-43750000D03*
%TD*%
D72*
%TO.P,L3,1*%
%TO.N,+3V3*%
X131685000Y-50525000D03*
%TO.P,L3,2*%
%TO.N,Net-(U8-VOUT)*%
X131685000Y-47725000D03*
%TD*%
D73*
%TO.P,D2,1,K*%
%TO.N,Net-(D2-K)*%
X148100000Y-62500000D03*
%TO.P,D2,2,A*%
%TO.N,+3V3*%
X150900000Y-62500000D03*
%TD*%
D57*
%TO.P,C19,1*%
%TO.N,+BATT*%
X113500000Y-56425000D03*
%TO.P,C19,2*%
%TO.N,GND*%
X113500000Y-57975000D03*
%TD*%
D74*
%TO.P,J5,1,In*%
%TO.N,Net-(J5-In)*%
X149100000Y-46450000D03*
D75*
%TO.P,J5,2,Ext*%
%TO.N,GND*%
X147625000Y-44950000D03*
D74*
X149100000Y-43450000D03*
D75*
X150575000Y-44950000D03*
%TD*%
D76*
%TO.P,R8,1*%
%TO.N,Net-(J2-CC2)*%
X106387500Y-62400000D03*
%TO.P,R8,2*%
%TO.N,GND*%
X108212500Y-62400000D03*
%TD*%
D36*
%TO.P,C8,1*%
%TO.N,+3V3*%
X125660000Y-62175600D03*
%TO.P,C8,2*%
%TO.N,GND*%
X125660000Y-61215600D03*
%TD*%
D77*
%TO.P,U7,A1,GND*%
%TO.N,GND*%
X137700000Y-75800000D03*
%TO.P,U7,A3,SI*%
%TO.N,/MOSI*%
X138500000Y-75800000D03*
%TO.P,U7,B2,~{WP}*%
%TO.N,unconnected-(U7-~{WP}-PadB2)*%
X138100000Y-76100000D03*
%TO.P,U7,C1,SO*%
%TO.N,/MISO*%
X137700000Y-76400000D03*
%TO.P,U7,C3,SCK*%
%TO.N,/SCK*%
X138500000Y-76400000D03*
%TO.P,U7,D2,~{HOLD}*%
%TO.N,unconnected-(U7-~{HOLD}-PadD2)*%
X138100000Y-76700000D03*
%TO.P,U7,E1,~{CS}*%
%TO.N,/FRAM_CS*%
X137700000Y-77000000D03*
%TO.P,U7,E3,VDD*%
%TO.N,+3V3*%
X138500000Y-77000000D03*
%TD*%
D78*
%TO.P,R7,1*%
%TO.N,GND*%
X111612500Y-62400000D03*
%TO.P,R7,2*%
%TO.N,Net-(J2-CC1)*%
X109787500Y-62400000D03*
%TD*%
D10*
%TO.P,R3,1*%
%TO.N,/QSPI_SS*%
X119182500Y-77590000D03*
%TO.P,R3,2*%
%TO.N,+3V3*%
X117532500Y-77590000D03*
%TD*%
D79*
%TO.P,U2,1,~{CS}*%
%TO.N,/QSPI_SS*%
X121180000Y-75571000D03*
%TO.P,U2,2,DO(IO1)*%
%TO.N,/QSPI_SD1*%
X122450000Y-75571000D03*
%TO.P,U2,3,IO2*%
%TO.N,/QSPI_SD2*%
X123720000Y-75571000D03*
%TO.P,U2,4,GND*%
%TO.N,GND*%
X124990000Y-75571000D03*
%TO.P,U2,5,DI(IO0)*%
%TO.N,/QSPI_SD0*%
X124990000Y-69830600D03*
%TO.P,U2,6,CLK*%
%TO.N,/QSPI_SCLK*%
X123720000Y-69830600D03*
%TO.P,U2,7,IO3*%
%TO.N,/QSPI_SD3*%
X122450000Y-69830600D03*
%TO.P,U2,8,VCC*%
%TO.N,+3V3*%
X121180000Y-69830600D03*
D80*
%TO.P,U2,9*%
%TO.N,N/C*%
X123085000Y-72700800D03*
%TD*%
D81*
%TO.P,C20,1*%
%TO.N,/BATT_REG*%
X115500000Y-55925000D03*
%TO.P,C20,2*%
%TO.N,GND*%
X115500000Y-58875000D03*
%TD*%
D82*
%TO.P,U3,1,GND*%
%TO.N,GND*%
X141900000Y-58300000D03*
D83*
%TO.P,U3,2,TXD*%
%TO.N,Net-(J1-Pin_1)*%
X143000000Y-58300000D03*
%TO.P,U3,3,RXD*%
%TO.N,Net-(J1-Pin_2)*%
X144100000Y-58300000D03*
%TO.P,U3,4,TIMEPULSE*%
%TO.N,/TIMEPULSE*%
X145200000Y-58300000D03*
%TO.P,U3,5,EXTINT*%
%TO.N,/EXTINT*%
X146300000Y-58300000D03*
%TO.P,U3,6,V_BCKP*%
%TO.N,Net-(BT2-+)*%
X147400000Y-58300000D03*
%TO.P,U3,7,VCC_IO*%
%TO.N,+3V3*%
X148500000Y-58300000D03*
%TO.P,U3,8,VCC*%
X149600000Y-58300000D03*
D82*
%TO.P,U3,9,~{RESET}*%
%TO.N,unconnected-(U3-~{RESET}-Pad9)*%
X150700000Y-58300000D03*
%TO.P,U3,10,GND*%
%TO.N,GND*%
X150700000Y-48800000D03*
D83*
%TO.P,U3,11,RF_IN*%
%TO.N,Net-(J5-In)*%
X149600000Y-48800000D03*
%TO.P,U3,12,GND*%
%TO.N,GND*%
X148500000Y-48800000D03*
%TO.P,U3,13,LNA_EN*%
%TO.N,unconnected-(U3-LNA_EN-Pad13)*%
X147400000Y-48800000D03*
%TO.P,U3,14,VCC_RF*%
%TO.N,unconnected-(U3-VCC_RF-Pad14)*%
X146300000Y-48800000D03*
%TO.P,U3,15,VIO_SEL*%
%TO.N,unconnected-(U3-VIO_SEL-Pad15)*%
X145200000Y-48800000D03*
%TO.P,U3,16,SDA*%
%TO.N,/SDA*%
X144100000Y-48800000D03*
%TO.P,U3,17,SCL*%
%TO.N,/SCL*%
X143000000Y-48800000D03*
D82*
%TO.P,U3,18,~{SAFEBOOT}*%
%TO.N,unconnected-(U3-~{SAFEBOOT}-Pad18)*%
X141900000Y-48800000D03*
%TD*%
D40*
%TO.P,TP5,1,1*%
%TO.N,+3V3*%
X135100000Y-49900000D03*
%TD*%
D84*
%TO.N,/QSPI_SS*%
X128670000Y-77240000D03*
X127070000Y-74430000D03*
D85*
%TO.N,GND*%
X123200000Y-46100000D03*
X150266668Y-53800000D03*
X138940000Y-82100000D03*
X141599998Y-50700000D03*
X117900000Y-43300000D03*
X137940000Y-80800000D03*
X146000000Y-46900000D03*
X150000000Y-79300000D03*
D84*
X127500000Y-48700000D03*
D85*
X142400000Y-80700000D03*
X134700000Y-76600000D03*
X147666664Y-55500000D03*
X149433330Y-55500000D03*
X146780000Y-77400000D03*
D84*
X125700000Y-60500000D03*
D86*
X107025000Y-60225000D03*
D84*
X139000000Y-65000000D03*
D85*
X133400000Y-77800000D03*
X136580000Y-85600000D03*
X134420000Y-85600000D03*
D84*
X131800000Y-60900000D03*
X119700000Y-59900000D03*
D85*
X140600000Y-60100000D03*
D84*
X116000000Y-65400000D03*
D85*
X143200000Y-53800000D03*
X146733332Y-53800000D03*
X140700000Y-52300000D03*
X140600000Y-63400000D03*
D84*
X133000000Y-67500000D03*
X137200000Y-75500000D03*
X144000000Y-60300000D03*
D85*
X140600000Y-61750000D03*
D84*
X119100000Y-66600000D03*
X118500000Y-66400000D03*
D85*
X115000000Y-47600000D03*
D84*
X124366402Y-75571000D03*
D85*
X146000000Y-43500000D03*
X148940000Y-77400000D03*
X115200000Y-74400000D03*
X117300000Y-56300000D03*
X145300000Y-65000000D03*
D84*
X144700000Y-60300000D03*
D85*
X137500000Y-78500000D03*
D87*
X128050000Y-79580000D03*
D85*
X147840000Y-79300000D03*
X150900000Y-46900000D03*
D84*
X126980000Y-73215600D03*
D85*
X141599998Y-45700000D03*
X127500000Y-60400000D03*
X150300000Y-50800000D03*
X144966666Y-53800000D03*
D84*
X138260000Y-63780000D03*
D85*
X140100000Y-80800000D03*
D84*
X117780000Y-71400000D03*
D85*
X133700000Y-53300000D03*
X147633330Y-52200000D03*
X140600000Y-55500000D03*
X145899998Y-55500000D03*
D84*
X144700000Y-61000000D03*
D85*
X133300000Y-84600000D03*
X151100000Y-77400000D03*
X141900000Y-60900000D03*
X132500000Y-78800000D03*
X133200000Y-43700000D03*
D84*
X135100000Y-80900000D03*
D85*
X133700000Y-52300000D03*
X149400000Y-52200000D03*
X148499998Y-53800000D03*
D84*
X126700000Y-60500000D03*
D85*
X132400000Y-83000000D03*
X142366666Y-55500000D03*
D84*
X115600000Y-57500000D03*
X121830000Y-69150000D03*
D85*
X139200000Y-79300000D03*
X120600000Y-48900000D03*
X144099998Y-52200000D03*
X148533330Y-50800000D03*
D84*
X116000000Y-60000000D03*
D85*
X134000000Y-72500000D03*
X140900000Y-85600000D03*
X132400000Y-80300000D03*
X138740000Y-85600000D03*
X145866664Y-52200000D03*
D84*
X144000000Y-61000000D03*
D85*
X125400000Y-56700000D03*
X146766664Y-50800000D03*
X141360000Y-79300000D03*
X144560000Y-80700000D03*
D84*
X127500000Y-49300000D03*
D85*
X146720000Y-80700000D03*
D84*
X118100000Y-66800000D03*
D85*
X140700000Y-47300000D03*
D84*
X147100000Y-73700000D03*
X117900000Y-69000000D03*
X135400000Y-69000000D03*
D85*
X140300000Y-77400000D03*
X123500000Y-58500000D03*
D86*
X107025000Y-59375000D03*
D85*
X145680000Y-79300000D03*
X144133332Y-55500000D03*
D84*
X127500000Y-49900000D03*
D85*
X144620000Y-77400000D03*
X142460000Y-77400000D03*
D84*
X116000000Y-62100000D03*
D85*
X143520000Y-79300000D03*
X141100000Y-82100000D03*
X146000000Y-45200000D03*
D84*
X130800000Y-73220000D03*
D85*
X151200000Y-55500000D03*
D84*
X111000000Y-60400000D03*
D85*
X147700000Y-46900000D03*
X124600000Y-60900000D03*
D84*
%TO.N,+3V3*%
X141060000Y-70950000D03*
D85*
X129500000Y-50200000D03*
D84*
X149600000Y-56800000D03*
X127850000Y-66120000D03*
X123900000Y-66700000D03*
X148500000Y-56800000D03*
X124600000Y-66700000D03*
X127700000Y-72500000D03*
X144800000Y-74100000D03*
X126660000Y-63470000D03*
X141000000Y-69800000D03*
X136000000Y-66300000D03*
D85*
X131000000Y-53300000D03*
D84*
X145100000Y-68800000D03*
X130690000Y-71720000D03*
X131980000Y-61570000D03*
D85*
X129500000Y-51200000D03*
X143000000Y-43900000D03*
X131000000Y-52300000D03*
D84*
%TO.N,Net-(U1-RUN)*%
X134800000Y-73300000D03*
X134800000Y-65280000D03*
D87*
%TO.N,+5V*%
X126300000Y-52400000D03*
X124500000Y-52400000D03*
X124800000Y-80000000D03*
X123200000Y-51000000D03*
X124800000Y-48900000D03*
X126200000Y-80000000D03*
D84*
%TO.N,/LED*%
X115900000Y-72300000D03*
X127600000Y-73800000D03*
%TO.N,/RDIO_RST*%
X132900000Y-69100000D03*
%TO.N,/MISO*%
X139950000Y-69050000D03*
X135800000Y-75200000D03*
X131100000Y-60400000D03*
D85*
%TO.N,Net-(SW3-C)*%
X111400000Y-75300000D03*
X113500000Y-59300000D03*
D84*
%TO.N,/DRF_SW*%
X132500000Y-72800000D03*
%TO.N,/DRF_TXEN*%
X132000000Y-72300000D03*
%TO.N,/DRF_DIO1*%
X133000000Y-71600000D03*
%TO.N,/RP_SWCLK*%
X128500000Y-59100000D03*
X128110000Y-64730000D03*
%TO.N,/RP_SWD*%
X130200000Y-58900000D03*
X128700000Y-64340000D03*
%TO.N,/DRF_BUSY*%
X133500000Y-70900000D03*
%TO.N,/SCK*%
X138800000Y-75100000D03*
X140300000Y-70500000D03*
X130000000Y-60700000D03*
%TO.N,/DRF_CS*%
X129700000Y-62100000D03*
%TO.N,/MOSI*%
X130500000Y-60200000D03*
X139900000Y-69800000D03*
X137800000Y-75000000D03*
%TO.N,/FRAM_CS*%
X128000000Y-69000000D03*
X130600000Y-75100000D03*
D85*
X127600000Y-61700000D03*
D84*
%TO.N,/SCL*%
X139200000Y-60100000D03*
X134200000Y-59400000D03*
%TO.N,/SDA*%
X144200000Y-71400000D03*
X132076477Y-64181879D03*
D87*
%TO.N,/BATT_REG*%
X117200000Y-53000000D03*
D85*
%TO.N,Net-(U8-VOUT)*%
X119700000Y-46300000D03*
D84*
X127700000Y-47700000D03*
D85*
%TO.N,Net-(SW3-B)*%
X110200000Y-78200000D03*
D84*
X111700000Y-55200000D03*
D85*
X112100000Y-60100000D03*
%TD*%
D88*
%TO.N,/QSPI_SS*%
X126575711Y-69448100D02*
X126302672Y-69721139D01*
D89*
X119182500Y-77590000D02*
X119182500Y-77568500D01*
D88*
X125560448Y-76607600D02*
X122216600Y-76607600D01*
X126942500Y-69448100D02*
X126575711Y-69448100D01*
X122216600Y-76607600D02*
X121180000Y-75571000D01*
X126490000Y-75010000D02*
X127070000Y-74430000D01*
D89*
X128670000Y-77240000D02*
X129785000Y-76125000D01*
D88*
X126302672Y-69721139D02*
X126302672Y-75010000D01*
D89*
X119182500Y-77568500D02*
X121180000Y-75571000D01*
D88*
X126302672Y-75865376D02*
X125560448Y-76607600D01*
X126302672Y-75010000D02*
X126302672Y-75865376D01*
D89*
X129785000Y-76125000D02*
X130600000Y-76125000D01*
D88*
X126302672Y-75010000D02*
X126490000Y-75010000D01*
%TO.N,/QSPI_SD1*%
X126942500Y-69048100D02*
X126513263Y-69048100D01*
X126513263Y-69048100D02*
X125975672Y-69585691D01*
X123159600Y-76280600D02*
X122450000Y-75571000D01*
X125425000Y-76280600D02*
X123159600Y-76280600D01*
X125975672Y-75729928D02*
X125425000Y-76280600D01*
X125975672Y-69585691D02*
X125975672Y-75729928D01*
%TO.N,/QSPI_SD2*%
X126942500Y-68648100D02*
X126234844Y-68648100D01*
X125648672Y-69234272D02*
X125648672Y-74490028D01*
X123964400Y-74775600D02*
X123720000Y-75020000D01*
X125363100Y-74775600D02*
X123964400Y-74775600D01*
X123720000Y-75020000D02*
X123720000Y-75571000D01*
X126234844Y-68648100D02*
X125648672Y-69234272D01*
X125648672Y-74490028D02*
X125363100Y-74775600D01*
D90*
%TO.N,GND*%
X123300000Y-45612499D02*
X122587499Y-45612499D01*
X110199999Y-53299999D02*
X108300000Y-51400000D01*
D88*
X123949999Y-56249999D02*
X124200000Y-56500000D01*
D91*
X126275000Y-55825000D02*
X125400000Y-56700000D01*
X116100000Y-48900000D02*
X115000000Y-47800000D01*
D88*
X133000000Y-67500000D02*
X133348100Y-67848100D01*
D92*
X129600000Y-43750000D02*
X131700000Y-43750000D01*
D90*
X123200000Y-46100000D02*
X123300000Y-46000000D01*
D93*
X113475100Y-64853102D02*
X112900100Y-64278102D01*
X112900100Y-63687600D02*
X111612500Y-62400000D01*
D91*
X131130000Y-61170000D02*
X131130000Y-61275600D01*
X131800000Y-60900000D02*
X131700000Y-61000000D01*
X145300000Y-65000000D02*
X145300000Y-65350000D01*
D89*
X118145000Y-71035000D02*
X118555000Y-71035000D01*
D88*
X118100000Y-66800000D02*
X118500000Y-66400000D01*
X121725000Y-69045000D02*
X121830000Y-69150000D01*
D90*
X123937503Y-45612499D02*
X123937503Y-45412498D01*
D94*
X123700000Y-61225000D02*
X124025000Y-60900000D01*
D90*
X112137503Y-53099998D02*
X112437501Y-52800000D01*
D88*
X117783363Y-55816637D02*
X117300000Y-56300000D01*
D91*
X111000000Y-59650000D02*
X111000000Y-60400000D01*
D90*
X112137503Y-53299999D02*
X110199999Y-53299999D01*
D89*
X114344999Y-75255001D02*
X112700100Y-75255001D01*
D94*
X135100000Y-80900000D02*
X133932700Y-82067300D01*
D93*
X108300000Y-50500000D02*
X108300000Y-51400000D01*
D91*
X119125000Y-43300000D02*
X117900000Y-43300000D01*
D89*
X135400000Y-69000000D02*
X136105600Y-69705600D01*
D91*
X134000000Y-72500000D02*
X134700000Y-71800000D01*
D89*
X108212500Y-63770502D02*
X108720100Y-64278102D01*
D91*
X127500000Y-60400000D02*
X127500000Y-60125000D01*
X131700000Y-61000000D02*
X131300000Y-61000000D01*
D93*
X113475100Y-72343102D02*
X112900100Y-72918102D01*
D91*
X112675000Y-57975000D02*
X113500000Y-57975000D01*
D95*
X138095600Y-66595600D02*
X138720000Y-67220000D01*
D91*
X119325000Y-48900000D02*
X118800000Y-49425000D01*
D89*
X137700000Y-75800000D02*
X137500000Y-75800000D01*
D88*
X124200000Y-56500000D02*
X125200000Y-56500000D01*
D89*
X115200000Y-74400000D02*
X115350000Y-74250000D01*
D91*
X145800000Y-72600000D02*
X147050000Y-72600000D01*
D88*
X122587499Y-45612499D02*
X122400000Y-45425000D01*
D91*
X145300000Y-65350000D02*
X144200000Y-66450000D01*
X120600000Y-48900000D02*
X119325000Y-48900000D01*
D96*
X128050000Y-79580000D02*
X128055000Y-79585000D01*
D88*
X126980000Y-72475600D02*
X126980000Y-73215600D01*
X121734400Y-68505000D02*
X121725000Y-68495600D01*
D94*
X122759400Y-62815600D02*
X122200000Y-63375000D01*
X123710000Y-63825600D02*
X123710000Y-62815600D01*
D95*
X137910000Y-65595600D02*
X137910000Y-66595600D01*
D94*
X123710000Y-62815600D02*
X122759400Y-62815600D01*
D95*
X119700000Y-60200000D02*
X119700000Y-59900000D01*
D91*
X116000000Y-61600000D02*
X116616637Y-60983363D01*
D93*
X113475100Y-65398102D02*
X113475100Y-64853102D01*
D91*
X120800000Y-49100000D02*
X120600000Y-48900000D01*
X114900000Y-62325000D02*
X115775000Y-62325000D01*
D88*
X119275000Y-43300000D02*
X119200000Y-43375000D01*
X123549998Y-58450002D02*
X123500000Y-58500000D01*
D89*
X137500000Y-75800000D02*
X137200000Y-75500000D01*
D93*
X110575000Y-48225000D02*
X108300000Y-50500000D01*
D91*
X115000000Y-47800000D02*
X115000000Y-47600000D01*
X111700000Y-58950000D02*
X112675000Y-57975000D01*
D89*
X108212500Y-62400000D02*
X108212500Y-63770502D01*
D88*
X123570000Y-68125600D02*
X123054400Y-68125600D01*
D90*
X137910000Y-65595600D02*
X138404400Y-65595600D01*
D94*
X131300000Y-72425600D02*
X131300000Y-72720000D01*
D88*
X123549998Y-56249999D02*
X123949999Y-56249999D01*
D90*
X112437501Y-52800000D02*
X115957500Y-52800000D01*
D91*
X116000000Y-62100000D02*
X116000000Y-61600000D01*
D94*
X123710000Y-62815600D02*
X123710000Y-61235000D01*
D91*
X147100000Y-73700000D02*
X147100000Y-72650000D01*
D88*
X123054400Y-68125600D02*
X122675000Y-68505000D01*
D92*
X133150000Y-43750000D02*
X133200000Y-43700000D01*
D89*
X115350000Y-74250000D02*
X116962500Y-74250000D01*
D88*
X118500000Y-66400000D02*
X118900000Y-66400000D01*
D94*
X126700000Y-61205600D02*
X126690000Y-61215600D01*
D93*
X112900100Y-64278102D02*
X112900100Y-63687600D01*
D90*
X118100000Y-66800000D02*
X117800000Y-67100000D01*
D91*
X147050000Y-70450000D02*
X147050000Y-72600000D01*
D90*
X124237501Y-45112500D02*
X127757500Y-45112500D01*
D91*
X119200000Y-43375000D02*
X119125000Y-43300000D01*
X111700000Y-58950000D02*
X111000000Y-59650000D01*
D95*
X138720000Y-67220000D02*
X138720000Y-67955600D01*
X118983363Y-60916637D02*
X119700000Y-60200000D01*
D94*
X123710000Y-61235000D02*
X123700000Y-61225000D01*
X131300000Y-72720000D02*
X130800000Y-73220000D01*
D91*
X115500000Y-58875000D02*
X116000000Y-59375000D01*
D90*
X123300000Y-46000000D02*
X123300000Y-45612499D01*
D89*
X136105600Y-69705600D02*
X137320000Y-69705600D01*
D88*
X135414400Y-68985600D02*
X135970000Y-68985600D01*
D94*
X125660000Y-60540000D02*
X125660000Y-61215600D01*
D91*
X131300000Y-61000000D02*
X131130000Y-61170000D01*
X117016637Y-65083363D02*
X116316637Y-65083363D01*
X115775000Y-62325000D02*
X116000000Y-62100000D01*
D95*
X137910000Y-66595600D02*
X138095600Y-66595600D01*
D90*
X117800000Y-67100000D02*
X117800000Y-68200000D01*
D91*
X147100000Y-72650000D02*
X147050000Y-72600000D01*
D90*
X123937503Y-45612499D02*
X123300000Y-45612499D01*
D89*
X124366402Y-75571000D02*
X124990000Y-75571000D01*
D88*
X123549998Y-57750001D02*
X123549998Y-58450002D01*
D91*
X116316637Y-65083363D02*
X116000000Y-65400000D01*
D89*
X115200000Y-74400000D02*
X114344999Y-75255001D01*
D88*
X118900000Y-66400000D02*
X119100000Y-66600000D01*
X121025000Y-43300000D02*
X119275000Y-43300000D01*
D93*
X113475100Y-71798102D02*
X113475100Y-72343102D01*
D96*
X128055000Y-79585000D02*
X128055000Y-81505000D01*
D90*
X137910000Y-64615600D02*
X137910000Y-64130000D01*
D93*
X111400000Y-48225000D02*
X110575000Y-48225000D01*
D91*
X116000000Y-59375000D02*
X116000000Y-60000000D01*
D88*
X133348100Y-67848100D02*
X133817500Y-67848100D01*
X121725000Y-68495600D02*
X121725000Y-69045000D01*
D90*
X112137503Y-53299999D02*
X112137503Y-53099998D01*
D92*
X139750000Y-71800000D02*
X135650000Y-71800000D01*
D90*
X123937503Y-45412498D02*
X124237501Y-45112500D01*
D91*
X126275000Y-55600000D02*
X126275000Y-55825000D01*
X134700000Y-71800000D02*
X135650000Y-71800000D01*
X120800000Y-50225000D02*
X120800000Y-49100000D01*
D90*
X138404400Y-65595600D02*
X139000000Y-65000000D01*
D88*
X135400000Y-69000000D02*
X135414400Y-68985600D01*
D94*
X125700000Y-60500000D02*
X125660000Y-60540000D01*
D88*
X122675000Y-68505000D02*
X121734400Y-68505000D01*
X125200000Y-56500000D02*
X125400000Y-56700000D01*
D94*
X126700000Y-60500000D02*
X126700000Y-61205600D01*
X133932700Y-82067300D02*
X133275000Y-82067300D01*
D89*
X117780000Y-71400000D02*
X118145000Y-71035000D01*
D92*
X131700000Y-43750000D02*
X133150000Y-43750000D01*
D94*
X124025000Y-60900000D02*
X124600000Y-60900000D01*
D90*
X137910000Y-64130000D02*
X138260000Y-63780000D01*
D91*
X127500000Y-60125000D02*
X126775000Y-59400000D01*
D88*
X118116637Y-55816637D02*
X117783363Y-55816637D01*
%TO.N,/QSPI_SD0*%
X126942500Y-68248100D02*
X126172396Y-68248100D01*
X126172396Y-68248100D02*
X124990000Y-69430496D01*
X124990000Y-69430496D02*
X124990000Y-69830600D01*
%TO.N,/QSPI_SCLK*%
X124475000Y-69075600D02*
X123720000Y-69830600D01*
X126109948Y-67848100D02*
X124882448Y-69075600D01*
X124882448Y-69075600D02*
X124475000Y-69075600D01*
X126942500Y-67848100D02*
X126109948Y-67848100D01*
%TO.N,/QSPI_SD3*%
X124747000Y-68748600D02*
X123532000Y-68748600D01*
X126942500Y-67448100D02*
X126047500Y-67448100D01*
X126047500Y-67448100D02*
X124747000Y-68748600D01*
X123532000Y-68748600D02*
X122450000Y-69830600D01*
%TO.N,+3V3*%
X125660000Y-62175600D02*
X125310000Y-62175600D01*
X131300000Y-71465600D02*
X131380000Y-71385600D01*
D91*
X148500000Y-58300000D02*
X148500000Y-56800000D01*
D89*
X121000000Y-69300000D02*
X121000000Y-69550000D01*
D88*
X125355000Y-66245000D02*
X124900000Y-66700000D01*
D89*
X119515000Y-71485000D02*
X119515000Y-71035000D01*
D88*
X127721900Y-66248100D02*
X127850000Y-66120000D01*
D89*
X117532500Y-77590000D02*
X115942500Y-77590000D01*
X141500000Y-71390000D02*
X141060000Y-70950000D01*
X117532500Y-77590000D02*
X117532500Y-77567500D01*
D88*
X126660000Y-63175600D02*
X125660000Y-62175600D01*
X131314400Y-62235600D02*
X131980000Y-61570000D01*
X126939400Y-66245000D02*
X125355000Y-66245000D01*
X131130000Y-62235600D02*
X131314400Y-62235600D01*
X140975000Y-68800000D02*
X141000000Y-68825000D01*
X126660000Y-63470000D02*
X126660000Y-63175600D01*
X127780000Y-70715600D02*
X126980000Y-71515600D01*
X127700000Y-72500000D02*
X127700000Y-72235600D01*
X125660000Y-62175600D02*
X125660000Y-63335600D01*
X131380000Y-71385600D02*
X131380000Y-70285600D01*
X126942500Y-66648100D02*
X127321900Y-66648100D01*
D95*
X122560600Y-66700000D02*
X121725000Y-67535600D01*
X123900000Y-66700000D02*
X124600000Y-66700000D01*
D88*
X124600000Y-66700000D02*
X124900000Y-66700000D01*
D91*
X149300000Y-60500000D02*
X149300000Y-60900000D01*
D88*
X126572500Y-64248100D02*
X126942500Y-64248100D01*
X126660000Y-63470000D02*
X126690000Y-63440000D01*
D95*
X143300000Y-72600000D02*
X143300000Y-73825000D01*
D88*
X124900000Y-66700000D02*
X126890600Y-66700000D01*
D89*
X138500000Y-77000000D02*
X139000000Y-77000000D01*
D88*
X127780000Y-70285600D02*
X127780000Y-70715600D01*
X136245600Y-66300000D02*
X136000000Y-66300000D01*
X125660000Y-63335600D02*
X126572500Y-64248100D01*
X130944400Y-71465600D02*
X130690000Y-71720000D01*
D95*
X141200000Y-74800000D02*
X140500000Y-75500000D01*
D88*
X121734400Y-67545000D02*
X121725000Y-67535600D01*
X127700000Y-72235600D02*
X126980000Y-71515600D01*
D89*
X139000000Y-77000000D02*
X140500000Y-75500000D01*
D88*
X126690000Y-63440000D02*
X126690000Y-62175600D01*
X125310000Y-62175600D02*
X124670000Y-62815600D01*
D92*
X143000000Y-45075000D02*
X143000000Y-43900000D01*
D95*
X122675000Y-67545000D02*
X123520000Y-66700000D01*
D88*
X126502500Y-64648100D02*
X124670000Y-62815600D01*
D95*
X143700000Y-74225000D02*
X144675000Y-74225000D01*
D89*
X121000000Y-69300000D02*
X121000000Y-69650600D01*
D91*
X149600000Y-58300000D02*
X149600000Y-56800000D01*
D88*
X136950000Y-65595600D02*
X136245600Y-66300000D01*
X131300000Y-71465600D02*
X130944400Y-71465600D01*
X145825000Y-68800000D02*
X145100000Y-68800000D01*
X134875100Y-66300000D02*
X134527000Y-66648100D01*
X127321900Y-66648100D02*
X127850000Y-66120000D01*
D89*
X121000000Y-69650600D02*
X121180000Y-69830600D01*
D95*
X143300000Y-73825000D02*
X143700000Y-74225000D01*
D88*
X126690000Y-62320600D02*
X127780000Y-63410600D01*
D91*
X149600000Y-60200000D02*
X149300000Y-60500000D01*
D89*
X121000000Y-69550000D02*
X119515000Y-71035000D01*
D95*
X143700000Y-74225000D02*
X143075000Y-74225000D01*
D89*
X118300000Y-76800000D02*
X118300000Y-72700000D01*
X118300000Y-72700000D02*
X119515000Y-71485000D01*
D88*
X134527000Y-66648100D02*
X133817500Y-66648100D01*
X141000000Y-68825000D02*
X141000000Y-69800000D01*
X131380000Y-63410600D02*
X131380000Y-62485600D01*
D95*
X143075000Y-74225000D02*
X142500000Y-74800000D01*
X142500000Y-74800000D02*
X141200000Y-74800000D01*
D88*
X126690000Y-62175600D02*
X126690000Y-62320600D01*
D97*
X131685000Y-50525000D02*
X132310000Y-49900000D01*
D89*
X121000000Y-68260600D02*
X121000000Y-69300000D01*
D97*
X132310000Y-49900000D02*
X135100000Y-49900000D01*
D89*
X115942500Y-77590000D02*
X115917500Y-77615000D01*
D95*
X123900000Y-66700000D02*
X122560600Y-66700000D01*
D91*
X149300000Y-60900000D02*
X150900000Y-62500000D01*
D89*
X121725000Y-67535600D02*
X121000000Y-68260600D01*
D91*
X149600000Y-58300000D02*
X149600000Y-60200000D01*
D88*
X126942500Y-66248100D02*
X127721900Y-66248100D01*
X126890600Y-66700000D02*
X126942500Y-66648100D01*
X131380000Y-62485600D02*
X131130000Y-62235600D01*
D92*
X143000000Y-45075000D02*
X144600000Y-45075000D01*
D88*
X126942500Y-64648100D02*
X126502500Y-64648100D01*
D89*
X117532500Y-77567500D02*
X118300000Y-76800000D01*
D91*
X149600000Y-58300000D02*
X148500000Y-58300000D01*
D88*
X126942500Y-66248100D02*
X126939400Y-66245000D01*
D95*
X143300000Y-72600000D02*
X144550000Y-72600000D01*
X122675000Y-67545000D02*
X121734400Y-67545000D01*
X144675000Y-74225000D02*
X144800000Y-74100000D01*
D89*
X141500000Y-71975000D02*
X141500000Y-71390000D01*
D88*
X136000000Y-66300000D02*
X134875100Y-66300000D01*
D98*
%TO.N,+BATT*%
X113537500Y-54200000D02*
X113537500Y-56387500D01*
D92*
X112325000Y-56425000D02*
X111700000Y-57050000D01*
D89*
X110700000Y-61300000D02*
X109849999Y-60449999D01*
D88*
X113537500Y-56387500D02*
X113500000Y-56425000D01*
D89*
X109849999Y-60449999D02*
X109674999Y-60449999D01*
X112275000Y-61300000D02*
X113300000Y-62325000D01*
D92*
X113500000Y-56425000D02*
X112325000Y-56425000D01*
D89*
X110700000Y-61300000D02*
X112275000Y-61300000D01*
D88*
%TO.N,Net-(U1-RUN)*%
X134800000Y-65280000D02*
X134568100Y-65048100D01*
X134900000Y-73400000D02*
X135650000Y-73400000D01*
D91*
X139750000Y-73400000D02*
X141275000Y-73400000D01*
X135650000Y-73400000D02*
X139750000Y-73400000D01*
D88*
X134800000Y-73300000D02*
X134900000Y-73400000D01*
D91*
X141275000Y-73400000D02*
X141500000Y-73625000D01*
D88*
X134568100Y-65048100D02*
X133817500Y-65048100D01*
D89*
%TO.N,Net-(J1-Pin_1)*%
X149725000Y-71425000D02*
X149900000Y-71425000D01*
X146100000Y-67800000D02*
X149725000Y-71425000D01*
X142100000Y-67800000D02*
X146100000Y-67800000D01*
X141600000Y-64300000D02*
X141600000Y-67300000D01*
X141600000Y-67300000D02*
X142100000Y-67800000D01*
X143000000Y-58300000D02*
X143000000Y-62900000D01*
X143000000Y-62900000D02*
X141600000Y-64300000D01*
D88*
%TO.N,Net-(J1-Pin_2)*%
X149900000Y-68885000D02*
X149715000Y-68700000D01*
X146500000Y-65300000D02*
X143400000Y-62200000D01*
X143400000Y-60000000D02*
X143400000Y-61600000D01*
X148500000Y-68700000D02*
X146500000Y-66700000D01*
X143400000Y-62200000D02*
X143400000Y-61600000D01*
X146500000Y-66700000D02*
X146500000Y-65300000D01*
X144100000Y-58300000D02*
X144100000Y-59300000D01*
X149715000Y-68700000D02*
X148500000Y-68700000D01*
X144100000Y-59300000D02*
X143400000Y-60000000D01*
D99*
%TO.N,+5V*%
X125555000Y-80755000D02*
X124800000Y-80000000D01*
X125555000Y-80645000D02*
X126200000Y-80000000D01*
D95*
X124837501Y-47412499D02*
X124475000Y-47775000D01*
X116800000Y-46400000D02*
X117400000Y-46400000D01*
X122300000Y-48900000D02*
X123350000Y-48900000D01*
X124025000Y-48225000D02*
X123350000Y-48900000D01*
X124475000Y-47775000D02*
X123200000Y-47775000D01*
X117400000Y-46400000D02*
X118200000Y-47200000D01*
X123200000Y-47775000D02*
X122400000Y-46975000D01*
X120600000Y-47200000D02*
X122300000Y-48900000D01*
X118200000Y-47200000D02*
X120600000Y-47200000D01*
X125337500Y-46912500D02*
X124025000Y-48225000D01*
D99*
X125555000Y-81500000D02*
X125555000Y-80645000D01*
X125555000Y-81500000D02*
X125555000Y-80755000D01*
D95*
X124475000Y-47775000D02*
X124025000Y-48225000D01*
D98*
X124837501Y-46512500D02*
X124837501Y-47412499D01*
D88*
X125337500Y-46842499D02*
X125337500Y-46912500D01*
D89*
%TO.N,Net-(D1-A)*%
X115917500Y-75965000D02*
X117565000Y-75965000D01*
X117565000Y-75965000D02*
X117580000Y-75950000D01*
D95*
%TO.N,Net-(C16-Pad1)*%
X122724998Y-55875002D02*
X123500000Y-55100000D01*
X122724998Y-57675000D02*
X122724998Y-56325000D01*
X122724998Y-56325000D02*
X122724998Y-55875002D01*
D92*
%TO.N,Net-(BT2-+)*%
X147400000Y-60350000D02*
X147250000Y-60500000D01*
X147250000Y-60500000D02*
X145650000Y-62100000D01*
X145650000Y-62500000D02*
X145650000Y-62725000D01*
X147400000Y-58300000D02*
X147400000Y-60350000D01*
X145650000Y-62100000D02*
X145650000Y-62500000D01*
X145650000Y-62725000D02*
X147300000Y-64375000D01*
D88*
%TO.N,Net-(U1-XIN)*%
X134348100Y-67448100D02*
X134925600Y-68025600D01*
X135970000Y-68025600D02*
X136770000Y-68825600D01*
X133817500Y-67448100D02*
X134348100Y-67448100D01*
X137840000Y-68825600D02*
X138720000Y-69705600D01*
X134925600Y-68025600D02*
X135970000Y-68025600D01*
X136770000Y-68825600D02*
X137840000Y-68825600D01*
%TO.N,Net-(C14-Pad1)*%
X136870000Y-67955600D02*
X135980000Y-67065600D01*
X137320000Y-67955600D02*
X137320000Y-66965600D01*
X137320000Y-67955600D02*
X136870000Y-67955600D01*
X137320000Y-66965600D02*
X136950000Y-66595600D01*
D89*
%TO.N,Net-(U5-VCC)*%
X112225501Y-50474499D02*
X112225501Y-51400000D01*
X113550000Y-49900000D02*
X112800000Y-49900000D01*
X114550000Y-48900000D02*
X113550000Y-49900000D01*
X112800000Y-49900000D02*
X112225501Y-50474499D01*
D92*
%TO.N,VBUS*%
X114600000Y-66198102D02*
X116201799Y-66198102D01*
X117005000Y-67001303D02*
X117005000Y-66795000D01*
D88*
X119251992Y-62948008D02*
X119348008Y-62948008D01*
D92*
X120100000Y-63700000D02*
X122024999Y-61775001D01*
X117005000Y-66795000D02*
X120100000Y-63700000D01*
X114801898Y-70998102D02*
X114800000Y-71000000D01*
D88*
X115100000Y-65698102D02*
X114600000Y-66198102D01*
D93*
X113475100Y-70998102D02*
X114798102Y-70998102D01*
D89*
X114798102Y-70998102D02*
X114800000Y-71000000D01*
D88*
X119348008Y-62948008D02*
X120100000Y-63700000D01*
X115100000Y-64800000D02*
X115100000Y-65698102D01*
D92*
X122024999Y-61775001D02*
X122024999Y-58675001D01*
X116004100Y-70998102D02*
X117015000Y-69987202D01*
X117015000Y-69987202D02*
X117015000Y-69295000D01*
D93*
X113475100Y-66198102D02*
X114600000Y-66198102D01*
D92*
X116004100Y-70998102D02*
X114801898Y-70998102D01*
X117005000Y-67001303D02*
X117005000Y-67825000D01*
X116201799Y-66198102D02*
X117005000Y-67001303D01*
D88*
X115651992Y-64248008D02*
X115100000Y-64800000D01*
D95*
X122024999Y-57675000D02*
X122024999Y-58675001D01*
D100*
%TO.N,/USB_D+*%
X120415000Y-68425000D02*
X120415000Y-67790654D01*
X123088499Y-65724100D02*
X123199999Y-65835600D01*
X120415000Y-67790654D02*
X120843500Y-67362154D01*
X121895322Y-65724100D02*
X123088499Y-65724100D01*
X123199999Y-65835600D02*
X123680000Y-65835600D01*
X118707551Y-69498103D02*
X118926552Y-69279102D01*
X120843500Y-67362154D02*
X120843500Y-66775922D01*
X120843500Y-66775922D02*
X121895322Y-65724100D01*
X118926552Y-69279102D02*
X119560898Y-69279102D01*
X119560898Y-69279102D02*
X120415000Y-68425000D01*
%TO.N,/USB_D-*%
X118707551Y-67598101D02*
X119508709Y-67598101D01*
X123199999Y-64835600D02*
X123680000Y-64835600D01*
X123088499Y-64947100D02*
X123199999Y-64835600D01*
X121573478Y-64947100D02*
X123088499Y-64947100D01*
X120066500Y-66454078D02*
X121573478Y-64947100D01*
X119508709Y-67598101D02*
X120066500Y-67040310D01*
X120066500Y-67040310D02*
X120066500Y-66454078D01*
D89*
%TO.N,Net-(D1-K)*%
X119155000Y-75950000D02*
X119155000Y-73382500D01*
X119155000Y-73382500D02*
X119237500Y-73300000D01*
D88*
%TO.N,/IRIDIUM_RXD*%
X125630496Y-77000000D02*
X120851369Y-77000000D01*
X120851369Y-77000000D02*
X116805000Y-81046369D01*
X116805000Y-81046369D02*
X116805000Y-81505000D01*
X128580000Y-74050496D02*
X125630496Y-77000000D01*
X128580000Y-70285600D02*
X128580000Y-74050496D01*
%TO.N,/IRIDIUM_CTS*%
X128980000Y-74112944D02*
X125765944Y-77327000D01*
X128980000Y-70285600D02*
X128980000Y-74112944D01*
X125765944Y-77327000D02*
X120986817Y-77327000D01*
X118055000Y-80258817D02*
X118055000Y-81505000D01*
X120986817Y-77327000D02*
X118055000Y-80258817D01*
%TO.N,/IRIDIUM_RTS*%
X121696000Y-77654000D02*
X119305000Y-80045000D01*
X125901392Y-77654000D02*
X121696000Y-77654000D01*
X129380000Y-74175392D02*
X125901392Y-77654000D01*
X129380000Y-70285600D02*
X129380000Y-74175392D01*
X119305000Y-80045000D02*
X119305000Y-81505000D01*
%TO.N,/IRIDIUM_NETAV*%
X126036840Y-77981000D02*
X129780000Y-74237840D01*
X120555000Y-81505000D02*
X120555000Y-80020000D01*
X120555000Y-80020000D02*
X122594000Y-77981000D01*
X122594000Y-77981000D02*
X126036840Y-77981000D01*
X129780000Y-74237840D02*
X129780000Y-70285600D01*
%TO.N,/IRIDIUM_RING*%
X121805000Y-79695000D02*
X121805000Y-81505000D01*
X130180000Y-74300288D02*
X126155288Y-78325000D01*
X123175000Y-78325000D02*
X121805000Y-79695000D01*
X126155288Y-78325000D02*
X123175000Y-78325000D01*
X130180000Y-70285600D02*
X130180000Y-74300288D01*
%TO.N,/IRIDIUM_TXD*%
X133300000Y-72200000D02*
X134100000Y-71400000D01*
X132300000Y-74600000D02*
X133300000Y-73600000D01*
X130342736Y-74600000D02*
X132300000Y-74600000D01*
X124173000Y-78652000D02*
X126290736Y-78652000D01*
X133300000Y-73600000D02*
X133300000Y-72200000D01*
X134100000Y-71400000D02*
X134100000Y-69730600D01*
X134100000Y-69730600D02*
X133817500Y-69448100D01*
X123055000Y-79770000D02*
X124173000Y-78652000D01*
X126290736Y-78652000D02*
X130342736Y-74600000D01*
X123055000Y-81505000D02*
X123055000Y-79770000D01*
%TO.N,Net-(U6-SS)*%
X125225000Y-58025000D02*
X125225000Y-59400000D01*
X123549998Y-56750000D02*
X123950000Y-56750000D01*
X123950000Y-56750000D02*
X125225000Y-58025000D01*
D89*
%TO.N,Net-(J2-CC1)*%
X112245100Y-67348102D02*
X110000000Y-65103002D01*
X110000000Y-62612500D02*
X109787500Y-62400000D01*
X110000000Y-65103002D02*
X110000000Y-62612500D01*
X113475100Y-67348102D02*
X112245100Y-67348102D01*
%TO.N,Net-(J2-D+-PadA6)*%
X112650100Y-69348102D02*
X113475100Y-69348102D01*
X112445100Y-68553102D02*
X112445100Y-69143102D01*
X112650100Y-68348102D02*
X112445100Y-68553102D01*
X113475100Y-68348102D02*
X112650100Y-68348102D01*
X115832648Y-69348102D02*
X115982649Y-69498103D01*
X112445100Y-69143102D02*
X112650100Y-69348102D01*
X113475100Y-69348102D02*
X115832648Y-69348102D01*
%TO.N,/LED*%
X115950000Y-72350000D02*
X116962500Y-72350000D01*
X115900000Y-72300000D02*
X115950000Y-72350000D01*
D88*
X127600000Y-73800000D02*
X128180000Y-73220000D01*
X128180000Y-73220000D02*
X128180000Y-70285600D01*
%TO.N,/TIMEPULSE*%
X145200000Y-57500000D02*
X145200000Y-58300000D01*
X133817500Y-64182500D02*
X141300000Y-56700000D01*
X144400000Y-56700000D02*
X145200000Y-57500000D01*
X133817500Y-64248100D02*
X133817500Y-64182500D01*
X141300000Y-56700000D02*
X144400000Y-56700000D01*
D91*
%TO.N,Net-(D2-K)*%
X148300000Y-62700000D02*
X148300000Y-65025000D01*
X148100000Y-62500000D02*
X148300000Y-62700000D01*
X148300000Y-65025000D02*
X147300000Y-66025000D01*
D88*
%TO.N,+1V1*%
X134994136Y-65800000D02*
X135274136Y-65520000D01*
X126940600Y-65050000D02*
X126942500Y-65048100D01*
X125607500Y-67048100D02*
X126942500Y-67048100D01*
X125945900Y-65050000D02*
X126940600Y-65050000D01*
X128060000Y-67660000D02*
X127409918Y-67009918D01*
X128060000Y-68240000D02*
X128060000Y-67660000D01*
X132400000Y-68460000D02*
X132112000Y-68748000D01*
X128440000Y-66570000D02*
X128440000Y-65710000D01*
X124670000Y-63825600D02*
X124721500Y-63825600D01*
X133817500Y-66248100D02*
X133388263Y-66248100D01*
X124530000Y-68125600D02*
X125607500Y-67048100D01*
X124721500Y-63825600D02*
X125945900Y-65050000D01*
X128440000Y-65710000D02*
X127778100Y-65048100D01*
X136045600Y-65520000D02*
X136950000Y-64615600D01*
X126942500Y-67048100D02*
X127961900Y-67048100D01*
X135274136Y-65520000D02*
X136045600Y-65520000D01*
X133817500Y-66248100D02*
X134251900Y-66248100D01*
X127961900Y-67048100D02*
X128440000Y-66570000D01*
X128568000Y-68748000D02*
X128060000Y-68240000D01*
X132400000Y-67236363D02*
X132400000Y-68460000D01*
X127778100Y-65048100D02*
X126942500Y-65048100D01*
X134251900Y-66248100D02*
X134700000Y-65800000D01*
X133388263Y-66248100D02*
X132400000Y-67236363D01*
X132112000Y-68748000D02*
X128568000Y-68748000D01*
X134700000Y-65800000D02*
X134994136Y-65800000D01*
D89*
%TO.N,Net-(J2-D--PadA7)*%
X113475100Y-67848102D02*
X115420100Y-67848102D01*
X115070100Y-67848102D02*
X115420100Y-67848102D01*
X115420100Y-67848102D02*
X115732648Y-67848102D01*
X113475100Y-68848102D02*
X114070100Y-68848102D01*
X115732648Y-67848102D02*
X115982649Y-67598101D01*
X114070100Y-68848102D02*
X115070100Y-67848102D01*
D88*
%TO.N,/EXTINT*%
X145400000Y-56300000D02*
X140900000Y-56300000D01*
X133789400Y-63410600D02*
X132980000Y-63410600D01*
X146300000Y-57200000D02*
X145400000Y-56300000D01*
X140900000Y-56300000D02*
X133789400Y-63410600D01*
X146300000Y-58300000D02*
X146300000Y-57200000D01*
%TO.N,/RDIO_RST*%
X132951900Y-69048100D02*
X132900000Y-69100000D01*
X133817500Y-69048100D02*
X132951900Y-69048100D01*
%TO.N,Net-(U1-XOUT)*%
X134972500Y-67048100D02*
X134990000Y-67065600D01*
X133817500Y-67048100D02*
X134972500Y-67048100D01*
%TO.N,/MISO*%
X130180000Y-61320000D02*
X130180000Y-63410600D01*
D89*
X137000000Y-76400000D02*
X137700000Y-76400000D01*
X135800000Y-75200000D02*
X137000000Y-76400000D01*
D88*
X131100000Y-60400000D02*
X130180000Y-61320000D01*
%TO.N,Net-(U1-USB_DM)*%
X126942500Y-65448100D02*
X125312500Y-65448100D01*
X125312500Y-65448100D02*
X124700000Y-64835600D01*
%TO.N,Net-(U1-USB_DP)*%
X124700000Y-65835600D02*
X126930000Y-65835600D01*
X126930000Y-65835600D02*
X126942500Y-65848100D01*
%TO.N,Net-(U6-OV1)*%
X120850000Y-57250000D02*
X119800000Y-58300000D01*
X121250000Y-57250000D02*
X120850000Y-57250000D01*
X119800000Y-58900000D02*
X117851992Y-60848008D01*
X119800000Y-58300000D02*
X119800000Y-58900000D01*
X116748008Y-63151992D02*
X117851992Y-62048008D01*
X117851992Y-62048008D02*
X117851992Y-60848008D01*
%TO.N,Net-(U6-ILM)*%
X123549998Y-57250000D02*
X123950000Y-57250000D01*
X124200000Y-59075000D02*
X123700000Y-59575000D01*
X123950000Y-57250000D02*
X124200000Y-57500000D01*
X124200000Y-57500000D02*
X124200000Y-59075000D01*
D89*
%TO.N,Net-(SW3-C)*%
X111400000Y-75300000D02*
X111355001Y-75255001D01*
X111355001Y-75255001D02*
X107620100Y-75255001D01*
X113500000Y-59300000D02*
X114900000Y-60700000D01*
D88*
%TO.N,Net-(U6-OV2)*%
X120850000Y-56750000D02*
X121250000Y-56750000D01*
X117748008Y-59851992D02*
X118848008Y-58751992D01*
X118848008Y-58748008D02*
X118851992Y-58748008D01*
X118851992Y-58748008D02*
X120850000Y-56750000D01*
X118848008Y-58751992D02*
X118848008Y-58748008D01*
%TO.N,/DRF_SW*%
X132180000Y-70780000D02*
X132400000Y-71000000D01*
X132400000Y-71000000D02*
X132500000Y-71100000D01*
X132180000Y-70285600D02*
X132180000Y-70780000D01*
X132500000Y-71100000D02*
X132500000Y-72800000D01*
%TO.N,/DRF_TXEN*%
X131800000Y-71000000D02*
X132000000Y-71200000D01*
X131780000Y-70980000D02*
X131800000Y-71000000D01*
X132000000Y-71200000D02*
X132000000Y-72300000D01*
X131780000Y-70285600D02*
X131780000Y-70980000D01*
%TO.N,/DRF_DIO1*%
X132782581Y-70917418D02*
X133000000Y-71134837D01*
X132580000Y-70285600D02*
X132580000Y-70714837D01*
X132580000Y-70714837D02*
X132782581Y-70917418D01*
X133000000Y-71134837D02*
X133000000Y-71600000D01*
%TO.N,/RP_SWCLK*%
X133817500Y-65848100D02*
X132816673Y-65848100D01*
X132004958Y-65036385D02*
X131957193Y-64988620D01*
X132816673Y-65848100D02*
X132004958Y-65036385D01*
X128500000Y-57200000D02*
X128800000Y-56900000D01*
X128368620Y-64988620D02*
X128110000Y-64730000D01*
X131957193Y-64988620D02*
X129920000Y-64988620D01*
X129920000Y-64988620D02*
X128368620Y-64988620D01*
X128500000Y-59100000D02*
X128500000Y-57200000D01*
%TO.N,/RP_SWD*%
X133817500Y-65448100D02*
X132879121Y-65448100D01*
X129740000Y-64340000D02*
X128700000Y-64340000D01*
X132092641Y-64661620D02*
X130061620Y-64661620D01*
X132879121Y-65448100D02*
X132092641Y-64661620D01*
X132300000Y-56800000D02*
X130200000Y-58900000D01*
X130061620Y-64661620D02*
X129740000Y-64340000D01*
%TO.N,/DRF_BUSY*%
X132980000Y-70285600D02*
X132980000Y-70380000D01*
X132980000Y-70380000D02*
X133400000Y-70800000D01*
X133400000Y-70800000D02*
X133500000Y-70900000D01*
D89*
%TO.N,/SCK*%
X138800000Y-75100000D02*
X139100000Y-75400000D01*
D88*
X130000000Y-60700000D02*
X129200000Y-61500000D01*
D89*
X139100000Y-75800000D02*
X138500000Y-76400000D01*
D88*
X129200000Y-62490000D02*
X129380000Y-62670000D01*
X129380000Y-62670000D02*
X129380000Y-63410600D01*
X129200000Y-61500000D02*
X129200000Y-62490000D01*
D89*
X139100000Y-75400000D02*
X139100000Y-75800000D01*
D88*
%TO.N,/DRF_CS*%
X129780000Y-63410600D02*
X129780000Y-62180000D01*
X129780000Y-62180000D02*
X129700000Y-62100000D01*
D89*
%TO.N,/MOSI*%
X137800000Y-75100000D02*
X138500000Y-75800000D01*
D88*
X130500000Y-60200000D02*
X129300000Y-60200000D01*
X128980000Y-62732448D02*
X128980000Y-63410600D01*
D89*
X137800000Y-75000000D02*
X137800000Y-75100000D01*
D88*
X128800000Y-62552448D02*
X128980000Y-62732448D01*
X128800000Y-60700000D02*
X128800000Y-62552448D01*
X129300000Y-60200000D02*
X128800000Y-60700000D01*
D89*
%TO.N,/FRAM_CS*%
X136500000Y-77000000D02*
X137700000Y-77000000D01*
X130600000Y-75100000D02*
X134600000Y-75100000D01*
X134600000Y-75100000D02*
X136500000Y-77000000D01*
X127600000Y-61700000D02*
X128180000Y-62280000D01*
X128180000Y-62280000D02*
X128180000Y-63410600D01*
D93*
%TO.N,Net-(SW2-B)*%
X131524998Y-78182700D02*
X131524998Y-76850002D01*
X131524998Y-76850002D02*
X132250000Y-76125000D01*
D89*
%TO.N,Net-(J2-CC2)*%
X113475100Y-70348102D02*
X112300000Y-70348102D01*
X112300000Y-70348102D02*
X112148102Y-70348102D01*
X112300000Y-70348102D02*
X112145100Y-70348102D01*
X112148102Y-70348102D02*
X106387500Y-64587500D01*
X106387500Y-64587500D02*
X106387500Y-62400000D01*
D88*
%TO.N,/SCL*%
X139200000Y-64300000D02*
X139200000Y-60100000D01*
X131780000Y-62620000D02*
X133850000Y-60550000D01*
X139300000Y-64400000D02*
X139200000Y-64300000D01*
X134200000Y-60200000D02*
X134200000Y-59400000D01*
X142625000Y-68800000D02*
X143300000Y-69475000D01*
X140300000Y-66400000D02*
X140300000Y-65400000D01*
X140300000Y-65400000D02*
X139300000Y-64400000D01*
X141300000Y-67700000D02*
X140300000Y-66700000D01*
D89*
X143000000Y-46725000D02*
X143000000Y-48800000D01*
D88*
X143300000Y-69475000D02*
X143300000Y-70450000D01*
X133850000Y-60550000D02*
X134200000Y-60200000D01*
X142400000Y-68800000D02*
X141300000Y-67700000D01*
X133850000Y-60550000D02*
X143000000Y-51400000D01*
X140300000Y-66700000D02*
X140300000Y-66400000D01*
X142625000Y-68800000D02*
X142400000Y-68800000D01*
X131780000Y-63410600D02*
X131780000Y-62620000D01*
X143000000Y-51400000D02*
X143000000Y-48800000D01*
%TO.N,/SDA*%
X144550000Y-71050000D02*
X144200000Y-71400000D01*
D89*
X144600000Y-46725000D02*
X144600000Y-47800000D01*
D88*
X144550000Y-69175000D02*
X144550000Y-70450000D01*
X144175000Y-68800000D02*
X144550000Y-69175000D01*
X132180000Y-63410600D02*
X132180000Y-62720000D01*
X144550000Y-70450000D02*
X144550000Y-71050000D01*
X144100000Y-50800000D02*
X144100000Y-48800000D01*
D89*
X144600000Y-47800000D02*
X144100000Y-48300000D01*
D88*
X132180000Y-64078356D02*
X132180000Y-63410600D01*
X132076477Y-64181879D02*
X132180000Y-64078356D01*
D89*
X144100000Y-48300000D02*
X144100000Y-48800000D01*
D88*
X132180000Y-62720000D02*
X144100000Y-50800000D01*
D91*
%TO.N,/BATT_REG*%
X113000000Y-47375000D02*
X113000000Y-45000000D01*
D95*
X122024999Y-56325000D02*
X122024999Y-55124999D01*
X122024999Y-55124999D02*
X121400000Y-54500000D01*
D88*
X117716637Y-57616637D02*
X117191637Y-57616637D01*
D91*
X113000000Y-45000000D02*
X113400000Y-44600000D01*
D88*
X117191637Y-57616637D02*
X115500000Y-55925000D01*
%TO.N,Net-(U8-VCC)*%
X124025501Y-43712500D02*
X123613001Y-43300000D01*
X123613001Y-43300000D02*
X122575000Y-43300000D01*
%TO.N,Net-(U8-VOUT)*%
X119825000Y-46425000D02*
X120800000Y-46425000D01*
X119700000Y-46300000D02*
X119825000Y-46425000D01*
D101*
%TO.N,Net-(J5-In)*%
X149600000Y-48800000D02*
X149600000Y-46950000D01*
X149600000Y-46950000D02*
X149100000Y-46450000D01*
D89*
%TO.N,Net-(SW3-B)*%
X110160100Y-79655000D02*
X110160100Y-78239900D01*
X110160100Y-78239900D02*
X110200000Y-78200000D01*
D88*
X111700000Y-55200000D02*
X112587501Y-55200000D01*
X112587501Y-55200000D02*
X113037501Y-54750000D01*
D89*
X112725000Y-60725000D02*
X113300000Y-60725000D01*
X112100000Y-60100000D02*
X112725000Y-60725000D01*
D88*
%TO.N,Net-(U8-FB)*%
X120962499Y-44612501D02*
X120800000Y-44775000D01*
X123937503Y-44612501D02*
X120962499Y-44612501D01*
X120550000Y-45025000D02*
X120800000Y-44775000D01*
X119200000Y-45025000D02*
X120550000Y-45025000D01*
%TO.N,Net-(U6-CP2)*%
X120749999Y-56249999D02*
X121250000Y-56249999D01*
X119946017Y-56249999D02*
X119248008Y-56948008D01*
X121250000Y-56249999D02*
X119946017Y-56249999D01*
X119948008Y-55448008D02*
X120749999Y-56249999D01*
%TO.N,Net-(U6-PR1)*%
X120849999Y-57750001D02*
X121250000Y-57750001D01*
X118148008Y-62951992D02*
X120200000Y-60900000D01*
X120200000Y-58400000D02*
X120849999Y-57750001D01*
X120200000Y-61633274D02*
X120200000Y-58400000D01*
X118148008Y-63951992D02*
X118148008Y-62951992D01*
X120383363Y-61816637D02*
X120200000Y-61633274D01*
D89*
%TO.N,Net-(U5-FB)*%
X113000000Y-49025000D02*
X112200000Y-49025000D01*
X112200000Y-49025000D02*
X111400000Y-49825000D01*
X111400000Y-52000000D02*
X111400000Y-49775000D01*
X111700001Y-52300001D02*
X111400000Y-52000000D01*
X112137503Y-52300001D02*
X111700001Y-52300001D01*
%TD*%
%TA.AperFunction,Conductor*%
%TO.N,GND*%
G36*
X134143039Y-51719685D02*
G01*
X134188794Y-51772489D01*
X134200000Y-51824000D01*
X134200000Y-53776000D01*
X134180315Y-53843039D01*
X134127511Y-53888794D01*
X134076000Y-53900000D01*
X132056500Y-53900000D01*
X131989461Y-53880315D01*
X131943706Y-53827511D01*
X131932500Y-53776000D01*
X131932500Y-53629100D01*
X131929090Y-53599231D01*
X131916494Y-53544783D01*
X131916491Y-53544774D01*
X131906440Y-53516450D01*
X131879832Y-53462021D01*
X131868528Y-53425436D01*
X131866295Y-53410107D01*
X131865000Y-53392232D01*
X131865000Y-52057759D01*
X131866295Y-52039887D01*
X131868526Y-52024569D01*
X131879832Y-51987978D01*
X131906438Y-51933557D01*
X131906441Y-51933549D01*
X131916493Y-51905225D01*
X131929088Y-51850778D01*
X131929091Y-51850767D01*
X131932500Y-51820903D01*
X131932500Y-51820896D01*
X131932700Y-51817391D01*
X131932899Y-51817402D01*
X131932900Y-51817400D01*
X131932941Y-51817404D01*
X131934412Y-51817488D01*
X131952185Y-51756961D01*
X132004989Y-51711206D01*
X132056500Y-51700000D01*
X134076000Y-51700000D01*
X134143039Y-51719685D01*
G37*
%TD.AperFunction*%
%TD*%
%TA.AperFunction,Conductor*%
%TO.N,GND*%
G36*
X126915677Y-47719685D02*
G01*
X126936319Y-47736319D01*
X127763681Y-48563681D01*
X127797166Y-48625004D01*
X127800000Y-48651362D01*
X127800000Y-50076000D01*
X127780315Y-50143039D01*
X127727511Y-50188794D01*
X127676000Y-50200000D01*
X127151362Y-50200000D01*
X127084323Y-50180315D01*
X127063681Y-50163681D01*
X126900000Y-50000000D01*
X125924000Y-50000000D01*
X125856961Y-49980315D01*
X125811206Y-49927511D01*
X125800000Y-49876000D01*
X125800000Y-47824000D01*
X125819685Y-47756961D01*
X125872489Y-47711206D01*
X125924000Y-47700000D01*
X126848638Y-47700000D01*
X126915677Y-47719685D01*
G37*
%TD.AperFunction*%
%TD*%
%TA.AperFunction,Conductor*%
%TO.N,GND*%
G36*
X109143039Y-59019685D02*
G01*
X109188794Y-59072489D01*
X109200000Y-59124000D01*
X109200000Y-60476000D01*
X109180315Y-60543039D01*
X109127511Y-60588794D01*
X109076000Y-60600000D01*
X106724000Y-60600000D01*
X106656961Y-60580315D01*
X106611206Y-60527511D01*
X106600000Y-60476000D01*
X106600000Y-59124000D01*
X106619685Y-59056961D01*
X106672489Y-59011206D01*
X106724000Y-59000000D01*
X109076000Y-59000000D01*
X109143039Y-59019685D01*
G37*
%TD.AperFunction*%
%TD*%
%TA.AperFunction,Conductor*%
%TO.N,Net-(U8-VOUT)*%
G36*
X132659191Y-44718907D02*
G01*
X132695155Y-44768407D01*
X132700000Y-44799000D01*
X132700000Y-45249074D01*
X132681093Y-45307265D01*
X132631593Y-45343229D01*
X132570407Y-45343229D01*
X132520907Y-45307265D01*
X132512059Y-45292555D01*
X132463786Y-45193812D01*
X132381187Y-45111213D01*
X132276248Y-45059912D01*
X132208216Y-45050000D01*
X131950001Y-45050000D01*
X131950000Y-45050001D01*
X131950000Y-46249997D01*
X131950001Y-46249999D01*
X132208213Y-46249999D01*
X132208216Y-46249998D01*
X132276250Y-46240087D01*
X132381188Y-46188785D01*
X132463786Y-46106187D01*
X132512059Y-46007443D01*
X132554602Y-45963469D01*
X132614867Y-45952899D01*
X132669836Y-45979771D01*
X132698512Y-46033821D01*
X132700000Y-46050923D01*
X132700000Y-46901000D01*
X132681093Y-46959191D01*
X132631593Y-46995155D01*
X132601000Y-47000000D01*
X131935001Y-47000000D01*
X131934999Y-47000001D01*
X131935000Y-47876000D01*
X131916093Y-47934191D01*
X131866593Y-47970155D01*
X131836000Y-47975000D01*
X130260002Y-47975000D01*
X130260001Y-47975001D01*
X130260001Y-48133216D01*
X130269912Y-48201250D01*
X130321214Y-48306188D01*
X130346022Y-48330996D01*
X130373799Y-48385513D01*
X130364228Y-48445945D01*
X130320963Y-48489210D01*
X130276018Y-48500000D01*
X127928391Y-48500000D01*
X127870200Y-48481093D01*
X127858387Y-48471004D01*
X127857375Y-48469992D01*
X127857373Y-48469989D01*
X127087383Y-47700000D01*
X128735605Y-47700000D01*
X128737909Y-47719874D01*
X128783213Y-47822477D01*
X128862522Y-47901786D01*
X128965127Y-47947090D01*
X128990203Y-47949999D01*
X129059999Y-47949998D01*
X129059999Y-47949997D01*
X129559999Y-47949997D01*
X129560001Y-47949999D01*
X129629790Y-47949999D01*
X129629791Y-47949998D01*
X129654874Y-47947090D01*
X129757477Y-47901786D01*
X129836786Y-47822477D01*
X129882090Y-47719872D01*
X129884396Y-47700000D01*
X129560001Y-47700000D01*
X129559999Y-47700001D01*
X129559999Y-47949997D01*
X129059999Y-47949997D01*
X129060000Y-47700001D01*
X129059999Y-47700000D01*
X128735605Y-47700000D01*
X127087383Y-47700000D01*
X127027501Y-47640118D01*
X127022240Y-47635392D01*
X127022236Y-47635388D01*
X127022230Y-47635383D01*
X127022221Y-47635375D01*
X126998816Y-47616514D01*
X126998812Y-47616512D01*
X126998811Y-47616511D01*
X126998812Y-47616511D01*
X126953009Y-47592552D01*
X126953004Y-47592550D01*
X126891665Y-47574539D01*
X126849554Y-47549554D01*
X126774999Y-47474999D01*
X130260000Y-47474999D01*
X130260001Y-47475000D01*
X131434999Y-47475000D01*
X131435000Y-47474998D01*
X131435000Y-47000001D01*
X131434999Y-47000000D01*
X130576786Y-47000000D01*
X130576783Y-47000001D01*
X130508749Y-47009912D01*
X130403811Y-47061214D01*
X130321213Y-47143812D01*
X130269912Y-47248751D01*
X130260000Y-47316784D01*
X130260000Y-47474999D01*
X126774999Y-47474999D01*
X126681503Y-47381503D01*
X126653726Y-47326986D01*
X126663297Y-47266554D01*
X126706562Y-47223289D01*
X126733076Y-47216923D01*
X126737502Y-47212498D01*
X126737502Y-47212497D01*
X127237502Y-47212497D01*
X127237503Y-47212499D01*
X128072353Y-47212499D01*
X128101519Y-47206698D01*
X128111545Y-47199999D01*
X128735603Y-47199999D01*
X128735604Y-47200000D01*
X129059999Y-47200000D01*
X129060000Y-47199999D01*
X129060000Y-46950000D01*
X129560000Y-46950000D01*
X129560000Y-47199998D01*
X129560001Y-47200000D01*
X129884395Y-47200000D01*
X129882090Y-47180125D01*
X129836786Y-47077522D01*
X129757477Y-46998213D01*
X129654872Y-46952909D01*
X129629797Y-46950000D01*
X129560000Y-46950000D01*
X129060000Y-46950000D01*
X129060000Y-46949999D01*
X128990211Y-46950000D01*
X128990207Y-46950001D01*
X128965125Y-46952909D01*
X128862522Y-46998213D01*
X128783213Y-47077522D01*
X128737909Y-47180127D01*
X128735603Y-47199999D01*
X128111545Y-47199999D01*
X128134597Y-47184596D01*
X128134601Y-47184592D01*
X128156701Y-47151518D01*
X128162502Y-47122351D01*
X128162503Y-47122348D01*
X128162503Y-46562501D01*
X128162502Y-46562500D01*
X127237503Y-46562500D01*
X127237502Y-46562501D01*
X127237502Y-47212497D01*
X126737502Y-47212497D01*
X126737502Y-46161500D01*
X126756409Y-46103309D01*
X126805909Y-46067345D01*
X126836502Y-46062500D01*
X128162501Y-46062500D01*
X128162502Y-46062499D01*
X128162502Y-45933216D01*
X128775001Y-45933216D01*
X128784912Y-46001250D01*
X128836214Y-46106188D01*
X128918812Y-46188786D01*
X129023751Y-46240087D01*
X129091784Y-46249999D01*
X129349997Y-46249999D01*
X129349999Y-46249997D01*
X129349999Y-45900000D01*
X129850000Y-45900000D01*
X129850000Y-46249998D01*
X129850001Y-46249999D01*
X130108213Y-46249999D01*
X130108216Y-46249998D01*
X130176250Y-46240087D01*
X130281188Y-46188785D01*
X130363786Y-46106187D01*
X130415087Y-46001248D01*
X130425000Y-45933215D01*
X130425000Y-45900001D01*
X130875000Y-45900001D01*
X130875001Y-45933213D01*
X130875001Y-45933216D01*
X130884912Y-46001250D01*
X130936214Y-46106188D01*
X131018812Y-46188786D01*
X131123751Y-46240087D01*
X131191784Y-46249999D01*
X131449998Y-46249999D01*
X131450000Y-46249997D01*
X131450000Y-45900001D01*
X131449999Y-45900000D01*
X130875002Y-45900000D01*
X130875000Y-45900001D01*
X130425000Y-45900001D01*
X130424999Y-45900000D01*
X129850000Y-45900000D01*
X129349999Y-45900000D01*
X128775002Y-45900000D01*
X128775001Y-45900001D01*
X128775001Y-45933216D01*
X128162502Y-45933216D01*
X128162501Y-45502650D01*
X128156701Y-45473483D01*
X128134599Y-45440405D01*
X128134594Y-45440400D01*
X128117852Y-45429213D01*
X128094822Y-45399999D01*
X128775000Y-45399999D01*
X128775001Y-45400000D01*
X129349999Y-45400000D01*
X129349999Y-45399998D01*
X129849999Y-45399998D01*
X129850001Y-45400000D01*
X130424998Y-45400000D01*
X130424998Y-45399999D01*
X130875000Y-45399999D01*
X130875001Y-45400000D01*
X131449999Y-45400000D01*
X131449999Y-45050000D01*
X131191786Y-45050000D01*
X131191783Y-45050001D01*
X131123749Y-45059912D01*
X131018811Y-45111214D01*
X130936213Y-45193812D01*
X130884912Y-45298751D01*
X130875000Y-45366784D01*
X130875000Y-45399999D01*
X130424998Y-45399999D01*
X130424999Y-45366786D01*
X130424998Y-45366783D01*
X130415087Y-45298749D01*
X130363785Y-45193811D01*
X130281187Y-45111213D01*
X130176248Y-45059912D01*
X130108216Y-45050000D01*
X129850001Y-45050000D01*
X129849999Y-45050001D01*
X129849999Y-45399998D01*
X129349999Y-45399998D01*
X129349999Y-45050001D01*
X129349998Y-45050000D01*
X129091786Y-45050000D01*
X129091783Y-45050001D01*
X129023749Y-45059912D01*
X128918811Y-45111214D01*
X128836213Y-45193812D01*
X128784912Y-45298751D01*
X128775000Y-45366784D01*
X128775000Y-45399999D01*
X128094822Y-45399999D01*
X128079973Y-45381163D01*
X128077572Y-45320024D01*
X128084646Y-45301953D01*
X128120997Y-45230611D01*
X128120999Y-45230608D01*
X128139705Y-45112500D01*
X128120999Y-44994392D01*
X128097216Y-44947717D01*
X128087645Y-44887288D01*
X128115421Y-44832771D01*
X128130414Y-44820465D01*
X128154425Y-44804422D01*
X128182605Y-44762248D01*
X128182606Y-44762240D01*
X128183073Y-44761117D01*
X128184395Y-44759568D01*
X128188022Y-44754141D01*
X128188664Y-44754570D01*
X128222808Y-44714590D01*
X128274538Y-44700000D01*
X132601000Y-44700000D01*
X132659191Y-44718907D01*
G37*
%TD.AperFunction*%
%TD*%
%TA.AperFunction,Conductor*%
%TO.N,/BATT_REG*%
G36*
X120210770Y-51318907D02*
G01*
X120246734Y-51368407D01*
X120246734Y-51429593D01*
X120242304Y-51440839D01*
X120231231Y-51464583D01*
X120225000Y-51511916D01*
X120225000Y-51524999D01*
X120225001Y-51525000D01*
X121374998Y-51525000D01*
X121374999Y-51524998D01*
X121374999Y-51511919D01*
X121374998Y-51511908D01*
X121368769Y-51464587D01*
X121357696Y-51440840D01*
X121350239Y-51380111D01*
X121379901Y-51326597D01*
X121435354Y-51300738D01*
X121447420Y-51300000D01*
X122201000Y-51300000D01*
X122259191Y-51318907D01*
X122295155Y-51368407D01*
X122300000Y-51399000D01*
X122300000Y-53062387D01*
X122293024Y-53092465D01*
X122295080Y-53093133D01*
X122292893Y-53099863D01*
X122292892Y-53099865D01*
X122289856Y-53109210D01*
X122273983Y-53158060D01*
X122267500Y-53198996D01*
X122267500Y-53686729D01*
X122271160Y-53717658D01*
X122271161Y-53717658D01*
X122281951Y-53762603D01*
X122287376Y-53772291D01*
X122300000Y-53820665D01*
X122300000Y-54426659D01*
X122293024Y-54456737D01*
X122295080Y-54457405D01*
X122292893Y-54464135D01*
X122292892Y-54464137D01*
X122285478Y-54486955D01*
X122273983Y-54522332D01*
X122267500Y-54563268D01*
X122267500Y-55602279D01*
X122267592Y-55602997D01*
X122267557Y-55603180D01*
X122267701Y-55605432D01*
X122267125Y-55605468D01*
X122256242Y-55663121D01*
X122239401Y-55685596D01*
X122224998Y-55699999D01*
X122224998Y-56425999D01*
X122206091Y-56484190D01*
X122156591Y-56520154D01*
X122125998Y-56524999D01*
X121924000Y-56524999D01*
X121865809Y-56506092D01*
X121829845Y-56456592D01*
X121825000Y-56425999D01*
X121825000Y-55700000D01*
X121824999Y-55699999D01*
X121815158Y-55700000D01*
X121785980Y-55705803D01*
X121752904Y-55727903D01*
X121752900Y-55727907D01*
X121730800Y-55760981D01*
X121730799Y-55760985D01*
X121724824Y-55791023D01*
X121694927Y-55844406D01*
X121639362Y-55870021D01*
X121579352Y-55858083D01*
X121554142Y-55837936D01*
X120800000Y-55000000D01*
X120799999Y-55000000D01*
X120393070Y-55000000D01*
X120334879Y-54981093D01*
X120323066Y-54971004D01*
X120240838Y-54888776D01*
X120202672Y-54859488D01*
X120168265Y-54846965D01*
X120094143Y-54819987D01*
X119978649Y-54819987D01*
X119942709Y-54833068D01*
X119870119Y-54859488D01*
X119831953Y-54888775D01*
X119749724Y-54971004D01*
X119695207Y-54998781D01*
X119679721Y-55000000D01*
X119079385Y-55000000D01*
X119021194Y-54981093D01*
X118985230Y-54931593D01*
X118985230Y-54870407D01*
X118993413Y-54857053D01*
X118993413Y-54846965D01*
X118816637Y-54670190D01*
X118585395Y-54901430D01*
X118571488Y-54954473D01*
X118524145Y-54993233D01*
X118488171Y-55000000D01*
X117899999Y-55000000D01*
X117093641Y-55806356D01*
X117061529Y-55827814D01*
X117033971Y-55839230D01*
X116923787Y-55923777D01*
X116923777Y-55923787D01*
X116839229Y-56033972D01*
X116839227Y-56033977D01*
X116786078Y-56162290D01*
X116786076Y-56162298D01*
X116767948Y-56299999D01*
X116767948Y-56300000D01*
X116786076Y-56437701D01*
X116786078Y-56437709D01*
X116839227Y-56566022D01*
X116839229Y-56566026D01*
X116879542Y-56618564D01*
X116899966Y-56676238D01*
X116900000Y-56678830D01*
X116900000Y-56801000D01*
X116881093Y-56859191D01*
X116831593Y-56895155D01*
X116801000Y-56900000D01*
X114178745Y-56900000D01*
X114120554Y-56881093D01*
X114084590Y-56831593D01*
X114084590Y-56770407D01*
X114089805Y-56757519D01*
X114092517Y-56751972D01*
X114102500Y-56683453D01*
X114102499Y-56283216D01*
X114500001Y-56283216D01*
X114509912Y-56351250D01*
X114561214Y-56456188D01*
X114643812Y-56538786D01*
X114748751Y-56590087D01*
X114816784Y-56599999D01*
X115249998Y-56599999D01*
X115249999Y-56599998D01*
X115749999Y-56599998D01*
X115750000Y-56599999D01*
X116183213Y-56599999D01*
X116183216Y-56599998D01*
X116251250Y-56590087D01*
X116356188Y-56538785D01*
X116438786Y-56456187D01*
X116490087Y-56351248D01*
X116500000Y-56283215D01*
X116500000Y-56175001D01*
X116499999Y-56175000D01*
X115750001Y-56175000D01*
X115749999Y-56175001D01*
X115749999Y-56599998D01*
X115249999Y-56599998D01*
X115250000Y-56599997D01*
X115250000Y-56175001D01*
X115249999Y-56175000D01*
X114500002Y-56175000D01*
X114500001Y-56175001D01*
X114500001Y-56283216D01*
X114102499Y-56283216D01*
X114102499Y-56166548D01*
X114092517Y-56098028D01*
X114040848Y-55992338D01*
X114028993Y-55980483D01*
X114001218Y-55925966D01*
X114000000Y-55910482D01*
X114000000Y-55674999D01*
X114500000Y-55674999D01*
X114500001Y-55675000D01*
X115249999Y-55675000D01*
X115249999Y-55250000D01*
X115749999Y-55250000D01*
X115749999Y-55674998D01*
X115750001Y-55675000D01*
X116499998Y-55675000D01*
X116499999Y-55674998D01*
X116499999Y-55566786D01*
X116499998Y-55566783D01*
X116490087Y-55498749D01*
X116438785Y-55393811D01*
X116356187Y-55311213D01*
X116251248Y-55259912D01*
X116183216Y-55250000D01*
X115749999Y-55250000D01*
X115249999Y-55250000D01*
X114816786Y-55250000D01*
X114816783Y-55250001D01*
X114748749Y-55259912D01*
X114643811Y-55311214D01*
X114561213Y-55393812D01*
X114509912Y-55498751D01*
X114500000Y-55566784D01*
X114500000Y-55674999D01*
X114000000Y-55674999D01*
X114000000Y-54998999D01*
X114018907Y-54940808D01*
X114068407Y-54904844D01*
X114099000Y-54899999D01*
X114937501Y-54899999D01*
X114937502Y-54899997D01*
X115437502Y-54899997D01*
X115437503Y-54899999D01*
X116272353Y-54899999D01*
X116301519Y-54894198D01*
X116334597Y-54872096D01*
X116334601Y-54872092D01*
X116356701Y-54839018D01*
X116362502Y-54809851D01*
X116362503Y-54809848D01*
X116362503Y-54425748D01*
X118180760Y-54425748D01*
X118180761Y-54425751D01*
X118221277Y-54530333D01*
X118233701Y-54546018D01*
X118463083Y-54316637D01*
X118463081Y-54316635D01*
X119170189Y-54316635D01*
X119346966Y-54493412D01*
X119396314Y-54444065D01*
X119411996Y-54424268D01*
X119452512Y-54319685D01*
X119452512Y-54207522D01*
X119411995Y-54102938D01*
X119399572Y-54087254D01*
X119399571Y-54087254D01*
X119170189Y-54316635D01*
X118463081Y-54316635D01*
X118286306Y-54139860D01*
X118236960Y-54189207D01*
X118236946Y-54189222D01*
X118221278Y-54209004D01*
X118180761Y-54313588D01*
X118180760Y-54313591D01*
X118180760Y-54425748D01*
X116362503Y-54425748D01*
X116362503Y-54250001D01*
X116362502Y-54250000D01*
X115437503Y-54250000D01*
X115437502Y-54250001D01*
X115437502Y-54899997D01*
X114937502Y-54899997D01*
X114937502Y-53849000D01*
X114956409Y-53790809D01*
X114962607Y-53786306D01*
X118639860Y-53786306D01*
X118816637Y-53963083D01*
X119046018Y-53733701D01*
X119030333Y-53721277D01*
X118925751Y-53680761D01*
X118813591Y-53680761D01*
X118813585Y-53680762D01*
X118709006Y-53721277D01*
X118689212Y-53736955D01*
X118639860Y-53786306D01*
X114962607Y-53786306D01*
X115005909Y-53754845D01*
X115036502Y-53750000D01*
X116362501Y-53750000D01*
X116362502Y-53749999D01*
X116362501Y-53190150D01*
X116356701Y-53160983D01*
X116334599Y-53127905D01*
X116327704Y-53121010D01*
X116329283Y-53119430D01*
X116299605Y-53081774D01*
X116297209Y-53020636D01*
X116322483Y-52977516D01*
X116566784Y-52733216D01*
X117800001Y-52733216D01*
X117809912Y-52801250D01*
X117861214Y-52906188D01*
X117943812Y-52988786D01*
X118048751Y-53040087D01*
X118116784Y-53049999D01*
X118549998Y-53049999D01*
X118549999Y-53049998D01*
X119050000Y-53049998D01*
X119050001Y-53049999D01*
X119483213Y-53049999D01*
X119483216Y-53049998D01*
X119551250Y-53040087D01*
X119656188Y-52988785D01*
X119738786Y-52906187D01*
X119790087Y-52801248D01*
X119800000Y-52733215D01*
X119800000Y-52625001D01*
X119799999Y-52625000D01*
X119050001Y-52625000D01*
X119050000Y-52625001D01*
X119050000Y-53049998D01*
X118549999Y-53049998D01*
X118550000Y-53049997D01*
X118550000Y-52625001D01*
X118549999Y-52625000D01*
X117800002Y-52625000D01*
X117800001Y-52625001D01*
X117800001Y-52733216D01*
X116566784Y-52733216D01*
X116800000Y-52500000D01*
X116800000Y-52124999D01*
X117800000Y-52124999D01*
X117800001Y-52125000D01*
X118549999Y-52125000D01*
X118550000Y-52124999D01*
X118550000Y-51700000D01*
X119050000Y-51700000D01*
X119050000Y-52124999D01*
X119050001Y-52125000D01*
X119799998Y-52125000D01*
X119799999Y-52124999D01*
X119799999Y-52038091D01*
X120225001Y-52038091D01*
X120231230Y-52085413D01*
X120231230Y-52085415D01*
X120279666Y-52189285D01*
X120360714Y-52270333D01*
X120464581Y-52318767D01*
X120464582Y-52318768D01*
X120511916Y-52324999D01*
X120550000Y-52324998D01*
X120550000Y-52025000D01*
X121050000Y-52025000D01*
X121050000Y-52324998D01*
X121050001Y-52324999D01*
X121088081Y-52324999D01*
X121088091Y-52324998D01*
X121135413Y-52318769D01*
X121135415Y-52318769D01*
X121239285Y-52270333D01*
X121320333Y-52189285D01*
X121368767Y-52085418D01*
X121368768Y-52085417D01*
X121375000Y-52038083D01*
X121375000Y-52025001D01*
X121374999Y-52025000D01*
X121050000Y-52025000D01*
X120550000Y-52025000D01*
X120225002Y-52025000D01*
X120225001Y-52025001D01*
X120225001Y-52038091D01*
X119799999Y-52038091D01*
X119799999Y-52016786D01*
X119799998Y-52016783D01*
X119790087Y-51948749D01*
X119738785Y-51843811D01*
X119656187Y-51761213D01*
X119551248Y-51709912D01*
X119483216Y-51700000D01*
X119050000Y-51700000D01*
X118550000Y-51700000D01*
X118116786Y-51700000D01*
X118116783Y-51700001D01*
X118048749Y-51709912D01*
X117943811Y-51761214D01*
X117861213Y-51843812D01*
X117809912Y-51948751D01*
X117800000Y-52016784D01*
X117800000Y-52124999D01*
X116800000Y-52124999D01*
X116800000Y-51399000D01*
X116818907Y-51340809D01*
X116868407Y-51304845D01*
X116899000Y-51300000D01*
X120152579Y-51300000D01*
X120210770Y-51318907D01*
G37*
%TD.AperFunction*%
%TD*%
%TA.AperFunction,Conductor*%
%TO.N,+BATT*%
G36*
X109924739Y-53418907D02*
G01*
X109936552Y-53428996D01*
X109963120Y-53455565D01*
X109967624Y-53460741D01*
X109974710Y-53470124D01*
X109974712Y-53470126D01*
X109974713Y-53470127D01*
X109985431Y-53479898D01*
X110007450Y-53499970D01*
X110009104Y-53501549D01*
X110015634Y-53508078D01*
X110021960Y-53514404D01*
X110024438Y-53516101D01*
X110029823Y-53520366D01*
X110051382Y-53540020D01*
X110051383Y-53540020D01*
X110051384Y-53540021D01*
X110059021Y-53542979D01*
X110079208Y-53553619D01*
X110085969Y-53558251D01*
X110085971Y-53558251D01*
X110085972Y-53558252D01*
X110114361Y-53564928D01*
X110120917Y-53566957D01*
X110148125Y-53577499D01*
X110156322Y-53577499D01*
X110178987Y-53580128D01*
X110186961Y-53582004D01*
X110215851Y-53577974D01*
X110222699Y-53577499D01*
X111581380Y-53577499D01*
X111628561Y-53591812D01*
X111628745Y-53591369D01*
X111633245Y-53593233D01*
X111636383Y-53594185D01*
X111637754Y-53595101D01*
X111674944Y-53602499D01*
X111761501Y-53602499D01*
X111819692Y-53621406D01*
X111855656Y-53670906D01*
X111860501Y-53701499D01*
X111860501Y-54752612D01*
X111841594Y-54810803D01*
X111792094Y-54846767D01*
X111746015Y-54850393D01*
X111700003Y-54843106D01*
X111700000Y-54843106D01*
X111589711Y-54860574D01*
X111589710Y-54860575D01*
X111490225Y-54911265D01*
X111411265Y-54990225D01*
X111360575Y-55089710D01*
X111360574Y-55089711D01*
X111343106Y-55199999D01*
X111343106Y-55200000D01*
X111360574Y-55310288D01*
X111360575Y-55310289D01*
X111411265Y-55409774D01*
X111411267Y-55409777D01*
X111490223Y-55488733D01*
X111490225Y-55488734D01*
X111589710Y-55539424D01*
X111589711Y-55539425D01*
X111589712Y-55539425D01*
X111589714Y-55539426D01*
X111700000Y-55556894D01*
X111810286Y-55539426D01*
X111909777Y-55488733D01*
X111909779Y-55488731D01*
X111942015Y-55456496D01*
X111996532Y-55428719D01*
X112012018Y-55427500D01*
X112580268Y-55427500D01*
X112582852Y-55427567D01*
X112604821Y-55428719D01*
X112623883Y-55429718D01*
X112623883Y-55429717D01*
X112623885Y-55429718D01*
X112645048Y-55421593D01*
X112659928Y-55417186D01*
X112682101Y-55412474D01*
X112686442Y-55409319D01*
X112709160Y-55396984D01*
X112714174Y-55395060D01*
X112730207Y-55379025D01*
X112742005Y-55368950D01*
X112760343Y-55355628D01*
X112763029Y-55350974D01*
X112778760Y-55330472D01*
X113092882Y-55016352D01*
X113147395Y-54988577D01*
X113207827Y-54998148D01*
X113217884Y-55004043D01*
X113264952Y-55035493D01*
X113337875Y-55049999D01*
X113337877Y-55050000D01*
X113362500Y-55050000D01*
X113362501Y-55049998D01*
X113362501Y-54124001D01*
X113381408Y-54065810D01*
X113430908Y-54029846D01*
X113461501Y-54025001D01*
X113613499Y-54025001D01*
X113671690Y-54043908D01*
X113707654Y-54093408D01*
X113712499Y-54124001D01*
X113712499Y-55049999D01*
X113712500Y-55050000D01*
X113737122Y-55050000D01*
X113749179Y-55047601D01*
X113809941Y-55054789D01*
X113854873Y-55096319D01*
X113867499Y-55144698D01*
X113867500Y-55542499D01*
X113867500Y-55626000D01*
X113848593Y-55684191D01*
X113799093Y-55720155D01*
X113768500Y-55725000D01*
X113750001Y-55725000D01*
X113750000Y-55725001D01*
X113750000Y-57132221D01*
X113770273Y-57172011D01*
X113760702Y-57232443D01*
X113742496Y-57257502D01*
X113631494Y-57368504D01*
X113576977Y-57396281D01*
X113561490Y-57397500D01*
X113216552Y-57397500D01*
X113216549Y-57397500D01*
X113216548Y-57397501D01*
X113193708Y-57400828D01*
X113148026Y-57407483D01*
X113042339Y-57459151D01*
X112959150Y-57542340D01*
X112954385Y-57549015D01*
X112953282Y-57548227D01*
X112916783Y-57585955D01*
X112870386Y-57597500D01*
X112740273Y-57597500D01*
X112682082Y-57578593D01*
X112646118Y-57529093D01*
X112646118Y-57467907D01*
X112647515Y-57463904D01*
X112668596Y-57407381D01*
X112668598Y-57407370D01*
X112675000Y-57347824D01*
X112675000Y-57300001D01*
X112674999Y-57300000D01*
X111950000Y-57300000D01*
X111950000Y-57799999D01*
X111950001Y-57800000D01*
X112077125Y-57800000D01*
X112135316Y-57818907D01*
X112171280Y-57868407D01*
X112171280Y-57929593D01*
X112147128Y-57969004D01*
X111822627Y-58293504D01*
X111768111Y-58321281D01*
X111752624Y-58322500D01*
X111189178Y-58322500D01*
X111189175Y-58322500D01*
X111189174Y-58322501D01*
X111164714Y-58326064D01*
X111115794Y-58333191D01*
X111002610Y-58388524D01*
X110913524Y-58477610D01*
X110858191Y-58590794D01*
X110847500Y-58664176D01*
X110847500Y-59227624D01*
X110828593Y-59285815D01*
X110818504Y-59297628D01*
X110768006Y-59348126D01*
X110752153Y-59360999D01*
X110740794Y-59368420D01*
X110740790Y-59368424D01*
X110718381Y-59397213D01*
X110714322Y-59401811D01*
X110710951Y-59405181D01*
X110710944Y-59405190D01*
X110697895Y-59423465D01*
X110696674Y-59425102D01*
X110663408Y-59467843D01*
X110659647Y-59474793D01*
X110656168Y-59481910D01*
X110640712Y-59533823D01*
X110640088Y-59535770D01*
X110622499Y-59587004D01*
X110621198Y-59594805D01*
X110620219Y-59602659D01*
X110620219Y-59602660D01*
X110622458Y-59656804D01*
X110622500Y-59658817D01*
X110622500Y-60336491D01*
X110603593Y-60394682D01*
X110593504Y-60406495D01*
X110319003Y-60680996D01*
X110264486Y-60708773D01*
X110204054Y-60699202D01*
X110160789Y-60655937D01*
X110149999Y-60610992D01*
X110149999Y-60599998D01*
X109624000Y-60599998D01*
X109565809Y-60581091D01*
X109529845Y-60531591D01*
X109525000Y-60500998D01*
X109525000Y-60299998D01*
X109824998Y-60299998D01*
X109824999Y-60300000D01*
X110149998Y-60300000D01*
X110149998Y-60299998D01*
X110149999Y-60275376D01*
X110149998Y-60275374D01*
X110135492Y-60202453D01*
X110120491Y-60180002D01*
X110103882Y-60121114D01*
X110120492Y-60069995D01*
X110135493Y-60047545D01*
X110149998Y-59974624D01*
X110149999Y-59974622D01*
X110149998Y-59949999D01*
X109824999Y-59949999D01*
X109824998Y-59950000D01*
X109824998Y-60299998D01*
X109525000Y-60299998D01*
X109525000Y-59650000D01*
X109824998Y-59650000D01*
X109824999Y-59650001D01*
X110149998Y-59650001D01*
X110149998Y-59650000D01*
X110149999Y-59625377D01*
X110149998Y-59625375D01*
X110135492Y-59552454D01*
X110135493Y-59552454D01*
X110120490Y-59530001D01*
X110103881Y-59471113D01*
X110120491Y-59419995D01*
X110135493Y-59397544D01*
X110149998Y-59324623D01*
X110149999Y-59324621D01*
X110149998Y-59299998D01*
X109824999Y-59299998D01*
X109824998Y-59299999D01*
X109824998Y-59650000D01*
X109525000Y-59650000D01*
X109525000Y-58749999D01*
X109824998Y-58749999D01*
X109824998Y-58999999D01*
X109824999Y-59000000D01*
X110149998Y-59000000D01*
X110149998Y-58999998D01*
X110149999Y-58975376D01*
X110149998Y-58975374D01*
X110135492Y-58902452D01*
X110135491Y-58902450D01*
X110080240Y-58819761D01*
X110080236Y-58819757D01*
X109997547Y-58764506D01*
X109997545Y-58764505D01*
X109924623Y-58749999D01*
X109824998Y-58749999D01*
X109525000Y-58749999D01*
X109425374Y-58749999D01*
X109352452Y-58764505D01*
X109352450Y-58764506D01*
X109269761Y-58819757D01*
X109269756Y-58819762D01*
X109263917Y-58828502D01*
X109215867Y-58866381D01*
X109181602Y-58872500D01*
X109117856Y-58872500D01*
X109103768Y-58871492D01*
X109093517Y-58870018D01*
X109076003Y-58867500D01*
X109076000Y-58867500D01*
X107308508Y-58867500D01*
X107250317Y-58848593D01*
X107238504Y-58838504D01*
X105529496Y-57129496D01*
X105501719Y-57074979D01*
X105500500Y-57059492D01*
X105500500Y-56399999D01*
X106294891Y-56399999D01*
X106315299Y-56685351D01*
X106376113Y-56964908D01*
X106476089Y-57232953D01*
X106476093Y-57232961D01*
X106613188Y-57484033D01*
X106719883Y-57626560D01*
X107474642Y-56871800D01*
X107544889Y-56984499D01*
X107678005Y-57124537D01*
X107826004Y-57227548D01*
X107073437Y-57980116D01*
X107215960Y-58086807D01*
X107215963Y-58086809D01*
X107467038Y-58223906D01*
X107467046Y-58223910D01*
X107735091Y-58323886D01*
X108014648Y-58384700D01*
X108300000Y-58405108D01*
X108585351Y-58384700D01*
X108864908Y-58323886D01*
X109132953Y-58223910D01*
X109132961Y-58223906D01*
X109384036Y-58086809D01*
X109384039Y-58086807D01*
X109526561Y-57980116D01*
X108771349Y-57224904D01*
X108845503Y-57183746D01*
X108992104Y-57057894D01*
X109110370Y-56905107D01*
X109126262Y-56872707D01*
X109880116Y-57626561D01*
X109986807Y-57484039D01*
X109986809Y-57484036D01*
X110061186Y-57347824D01*
X110724999Y-57347824D01*
X110731401Y-57407370D01*
X110731403Y-57407381D01*
X110781646Y-57542088D01*
X110781647Y-57542090D01*
X110867807Y-57657184D01*
X110867815Y-57657192D01*
X110982909Y-57743352D01*
X110982911Y-57743353D01*
X111117618Y-57793596D01*
X111117629Y-57793598D01*
X111177176Y-57800000D01*
X111449999Y-57800000D01*
X111450000Y-57799998D01*
X111450000Y-57300001D01*
X111449999Y-57300000D01*
X110725001Y-57300000D01*
X110725000Y-57300001D01*
X110725000Y-57347824D01*
X110724999Y-57347824D01*
X110061186Y-57347824D01*
X110123906Y-57232961D01*
X110123910Y-57232953D01*
X110223886Y-56964908D01*
X110259760Y-56799999D01*
X110725000Y-56799999D01*
X110725001Y-56800000D01*
X111449999Y-56800000D01*
X111450000Y-56799999D01*
X111950000Y-56799999D01*
X111950001Y-56800000D01*
X112692927Y-56800000D01*
X112710885Y-56790849D01*
X112771318Y-56800417D01*
X112814584Y-56843680D01*
X112819135Y-56854032D01*
X112828814Y-56879983D01*
X112910668Y-56989327D01*
X112910672Y-56989331D01*
X113020016Y-57071185D01*
X113147990Y-57118916D01*
X113147998Y-57118918D01*
X113204566Y-57124999D01*
X113250000Y-57124998D01*
X113250000Y-56675001D01*
X113249999Y-56675000D01*
X112749340Y-56675000D01*
X112747105Y-56676138D01*
X112739930Y-56675000D01*
X112733994Y-56675000D01*
X112733994Y-56674058D01*
X112686675Y-56666554D01*
X112643420Y-56623280D01*
X112638880Y-56612949D01*
X112618352Y-56557908D01*
X112532192Y-56442815D01*
X112532184Y-56442807D01*
X112417090Y-56356647D01*
X112417088Y-56356646D01*
X112282381Y-56306403D01*
X112282370Y-56306401D01*
X112222824Y-56300000D01*
X111950001Y-56300000D01*
X111950000Y-56300001D01*
X111950000Y-56799999D01*
X111450000Y-56799999D01*
X111450000Y-56799998D01*
X111450000Y-56300001D01*
X111449999Y-56300000D01*
X111177176Y-56300000D01*
X111117629Y-56306401D01*
X111117618Y-56306403D01*
X110982911Y-56356646D01*
X110982909Y-56356647D01*
X110867815Y-56442807D01*
X110867807Y-56442815D01*
X110781647Y-56557909D01*
X110781646Y-56557911D01*
X110731403Y-56692618D01*
X110731401Y-56692629D01*
X110725000Y-56752175D01*
X110725000Y-56799999D01*
X110259760Y-56799999D01*
X110284700Y-56685351D01*
X110305108Y-56400000D01*
X110289016Y-56174999D01*
X112775000Y-56174999D01*
X112775001Y-56175000D01*
X113249999Y-56175000D01*
X113250000Y-56174999D01*
X113250000Y-55724999D01*
X113204569Y-55725000D01*
X113204563Y-55725001D01*
X113147994Y-55731081D01*
X113147993Y-55731082D01*
X113020016Y-55778814D01*
X112910672Y-55860668D01*
X112910668Y-55860672D01*
X112828814Y-55970016D01*
X112781083Y-56097990D01*
X112781081Y-56097998D01*
X112775000Y-56154565D01*
X112775000Y-56174999D01*
X110289016Y-56174999D01*
X110284700Y-56114648D01*
X110223886Y-55835091D01*
X110123910Y-55567046D01*
X110123906Y-55567038D01*
X109986809Y-55315963D01*
X109986807Y-55315960D01*
X109880116Y-55173437D01*
X109125355Y-55928197D01*
X109055111Y-55815501D01*
X108921995Y-55675463D01*
X108773992Y-55572450D01*
X109526560Y-54819883D01*
X109384033Y-54713188D01*
X109132961Y-54576093D01*
X109132953Y-54576089D01*
X108864908Y-54476113D01*
X108585351Y-54415299D01*
X108299999Y-54394891D01*
X108014648Y-54415299D01*
X107735091Y-54476113D01*
X107467046Y-54576089D01*
X107467038Y-54576093D01*
X107215960Y-54713191D01*
X107215953Y-54713196D01*
X107073437Y-54819882D01*
X107828650Y-55575095D01*
X107754497Y-55616254D01*
X107607896Y-55742106D01*
X107489630Y-55894893D01*
X107473737Y-55927292D01*
X106719882Y-55173437D01*
X106613196Y-55315953D01*
X106613191Y-55315960D01*
X106476093Y-55567038D01*
X106476089Y-55567046D01*
X106376113Y-55835091D01*
X106315299Y-56114648D01*
X106294891Y-56399999D01*
X105500500Y-56399999D01*
X105500500Y-53499000D01*
X105519407Y-53440809D01*
X105568907Y-53404845D01*
X105599500Y-53400000D01*
X109866548Y-53400000D01*
X109924739Y-53418907D01*
G37*
%TD.AperFunction*%
%TD*%
%TA.AperFunction,Conductor*%
%TO.N,+3V3*%
G36*
X132943039Y-48709685D02*
G01*
X132988794Y-48762489D01*
X133000000Y-48814000D01*
X133000000Y-51226000D01*
X132980315Y-51293039D01*
X132927511Y-51338794D01*
X132876000Y-51350000D01*
X131800000Y-51350000D01*
X131800000Y-51820903D01*
X131787401Y-51875363D01*
X131743190Y-51965797D01*
X131732500Y-52039172D01*
X131732500Y-53410825D01*
X131743191Y-53484204D01*
X131787401Y-53574638D01*
X131800000Y-53629096D01*
X131800000Y-53786000D01*
X131780315Y-53853039D01*
X131727511Y-53898794D01*
X131676000Y-53910000D01*
X128914000Y-53910000D01*
X128846961Y-53890315D01*
X128801206Y-53837511D01*
X128790000Y-53786000D01*
X128790000Y-48814000D01*
X128809685Y-48746961D01*
X128862489Y-48701206D01*
X128914000Y-48690000D01*
X132876000Y-48690000D01*
X132943039Y-48709685D01*
G37*
%TD.AperFunction*%
%TD*%
%TA.AperFunction,Conductor*%
%TO.N,Net-(C16-Pad1)*%
G36*
X124174209Y-53118907D02*
G01*
X124210173Y-53168407D01*
X124210173Y-53229593D01*
X124186022Y-53269004D01*
X124136213Y-53318812D01*
X124084912Y-53423751D01*
X124075000Y-53491784D01*
X124075000Y-53649999D01*
X124075001Y-53650000D01*
X125651000Y-53650000D01*
X125709191Y-53668907D01*
X125745155Y-53718407D01*
X125750000Y-53749000D01*
X125750000Y-54624998D01*
X125750001Y-54624999D01*
X126608213Y-54624999D01*
X126608216Y-54624998D01*
X126676250Y-54615087D01*
X126676254Y-54615085D01*
X126747139Y-54580432D01*
X126807721Y-54571860D01*
X126861771Y-54600535D01*
X126888644Y-54655503D01*
X126878075Y-54715769D01*
X126860623Y-54739376D01*
X126628841Y-54971157D01*
X126574325Y-54998934D01*
X126544568Y-54999119D01*
X126533453Y-54997500D01*
X126016552Y-54997500D01*
X126016549Y-54997500D01*
X126016548Y-54997501D01*
X125993708Y-55000828D01*
X125948026Y-55007483D01*
X125842339Y-55059151D01*
X125759151Y-55142339D01*
X125750168Y-55160714D01*
X125707483Y-55248028D01*
X125698175Y-55311919D01*
X125697500Y-55316550D01*
X125697500Y-55601000D01*
X125678593Y-55659191D01*
X125629093Y-55695155D01*
X125598500Y-55700000D01*
X123600000Y-55700000D01*
X123599999Y-55700000D01*
X123306496Y-55993503D01*
X123251980Y-56021280D01*
X123241220Y-56022126D01*
X123237444Y-56022499D01*
X123237440Y-56022499D01*
X123212646Y-56027431D01*
X123200248Y-56029897D01*
X123178998Y-56044097D01*
X123120109Y-56060705D01*
X123062706Y-56039527D01*
X123028714Y-55988653D01*
X123024997Y-55961781D01*
X123024996Y-55790150D01*
X123019196Y-55760983D01*
X122997094Y-55727905D01*
X122997090Y-55727901D01*
X122964016Y-55705801D01*
X122934849Y-55700000D01*
X122924998Y-55700000D01*
X122924997Y-55700001D01*
X122924997Y-56425999D01*
X122906090Y-56484190D01*
X122856590Y-56520154D01*
X122825997Y-56524999D01*
X122623999Y-56524999D01*
X122565808Y-56506092D01*
X122529844Y-56456592D01*
X122524999Y-56425999D01*
X122524999Y-55700000D01*
X122524998Y-55699999D01*
X122515154Y-55700000D01*
X122510324Y-55700477D01*
X122510120Y-55698410D01*
X122457518Y-55692164D01*
X122412604Y-55650614D01*
X122400000Y-55602274D01*
X122400000Y-55311916D01*
X124174999Y-55311916D01*
X124175000Y-55349999D01*
X124175001Y-55350000D01*
X124474999Y-55350000D01*
X124474999Y-55025000D01*
X124975000Y-55025000D01*
X124975000Y-55349999D01*
X124975001Y-55350000D01*
X125274998Y-55350000D01*
X125274999Y-55349999D01*
X125274999Y-55311919D01*
X125274998Y-55311908D01*
X125268769Y-55264586D01*
X125268769Y-55264584D01*
X125220333Y-55160714D01*
X125139285Y-55079666D01*
X125035418Y-55031232D01*
X125035417Y-55031231D01*
X124988084Y-55025000D01*
X124975000Y-55025000D01*
X124474999Y-55025000D01*
X124474998Y-55024999D01*
X124461922Y-55025000D01*
X124461907Y-55025001D01*
X124414586Y-55031230D01*
X124414584Y-55031230D01*
X124310714Y-55079666D01*
X124229666Y-55160714D01*
X124181232Y-55264581D01*
X124181231Y-55264582D01*
X124174999Y-55311916D01*
X122400000Y-55311916D01*
X122400000Y-54563272D01*
X122418907Y-54505081D01*
X122468407Y-54469117D01*
X122529593Y-54469117D01*
X122569004Y-54493268D01*
X122652522Y-54576786D01*
X122755127Y-54622090D01*
X122780203Y-54624999D01*
X122849999Y-54624998D01*
X122850000Y-54624998D01*
X122850000Y-54624997D01*
X123349999Y-54624997D01*
X123350001Y-54624999D01*
X123419790Y-54624999D01*
X123419791Y-54624998D01*
X123444874Y-54622090D01*
X123547477Y-54576786D01*
X123626786Y-54497477D01*
X123672090Y-54394872D01*
X123674396Y-54375000D01*
X123350001Y-54375000D01*
X123349999Y-54375001D01*
X123349999Y-54624997D01*
X122850000Y-54624997D01*
X122850000Y-54308216D01*
X124075001Y-54308216D01*
X124084912Y-54376250D01*
X124136214Y-54481188D01*
X124218812Y-54563786D01*
X124323751Y-54615087D01*
X124391784Y-54624999D01*
X125249998Y-54624999D01*
X125250000Y-54624998D01*
X125250000Y-54150000D01*
X124075002Y-54150000D01*
X124075001Y-54150001D01*
X124075001Y-54308216D01*
X122850000Y-54308216D01*
X122850000Y-53874999D01*
X123350000Y-53874999D01*
X123350001Y-53875000D01*
X123674395Y-53875000D01*
X123672090Y-53855125D01*
X123626786Y-53752522D01*
X123547477Y-53673213D01*
X123444872Y-53627909D01*
X123419797Y-53625000D01*
X123350001Y-53625000D01*
X123350000Y-53625001D01*
X123350000Y-53874999D01*
X122850000Y-53874999D01*
X122850000Y-53624999D01*
X122780211Y-53625000D01*
X122780207Y-53625001D01*
X122755125Y-53627909D01*
X122652520Y-53673214D01*
X122569003Y-53756731D01*
X122514486Y-53784508D01*
X122454054Y-53774936D01*
X122410790Y-53731672D01*
X122400000Y-53686727D01*
X122400000Y-53199000D01*
X122418907Y-53140809D01*
X122468407Y-53104845D01*
X122499000Y-53100000D01*
X124116018Y-53100000D01*
X124174209Y-53118907D01*
G37*
%TD.AperFunction*%
%TD*%
%TA.AperFunction,Conductor*%
%TO.N,GND*%
G36*
X118036940Y-67492787D02*
G01*
X118082695Y-67545591D01*
X118093901Y-67597102D01*
X118093901Y-67889659D01*
X118101299Y-67926850D01*
X118136264Y-67979178D01*
X118133426Y-67981073D01*
X118157166Y-68024549D01*
X118160000Y-68050907D01*
X118160000Y-68098102D01*
X118448680Y-68386783D01*
X118482165Y-68448106D01*
X118484999Y-68474464D01*
X118484999Y-68621740D01*
X118465314Y-68688779D01*
X118448680Y-68709421D01*
X118160000Y-68998101D01*
X118160000Y-69045298D01*
X118140315Y-69112337D01*
X118134949Y-69118995D01*
X118101299Y-69169355D01*
X118100389Y-69171553D01*
X118097120Y-69175608D01*
X118094514Y-69179510D01*
X118094164Y-69179276D01*
X118056549Y-69225957D01*
X117990255Y-69248023D01*
X117985827Y-69248102D01*
X117684000Y-69248102D01*
X117616961Y-69228417D01*
X117571206Y-69175613D01*
X117560000Y-69124102D01*
X117560000Y-67597102D01*
X117579685Y-67530063D01*
X117632489Y-67484308D01*
X117684000Y-67473102D01*
X117969901Y-67473102D01*
X118036940Y-67492787D01*
G37*
%TD.AperFunction*%
%TD*%
%TA.AperFunction,Conductor*%
%TO.N,VBUS*%
G36*
X117278139Y-67492787D02*
G01*
X117323894Y-67545591D01*
X117335100Y-67597102D01*
X117335100Y-69524102D01*
X117315415Y-69591141D01*
X117262611Y-69636896D01*
X117211100Y-69648102D01*
X116769100Y-69648102D01*
X116702061Y-69628417D01*
X116656306Y-69575613D01*
X116645100Y-69524102D01*
X116645100Y-68998102D01*
X115578971Y-68954828D01*
X115512785Y-68932441D01*
X115469209Y-68877824D01*
X115460000Y-68830930D01*
X115460000Y-68268688D01*
X115479685Y-68201649D01*
X115532489Y-68155894D01*
X115578573Y-68144807D01*
X116645100Y-68098102D01*
X116645099Y-67597101D01*
X116664785Y-67530063D01*
X116717589Y-67484308D01*
X116769100Y-67473102D01*
X117211100Y-67473102D01*
X117278139Y-67492787D01*
G37*
%TD.AperFunction*%
%TD*%
%TA.AperFunction,Conductor*%
%TO.N,GND*%
G36*
X144321444Y-56947185D02*
G01*
X144342086Y-56963819D01*
X144439829Y-57061562D01*
X144473314Y-57122885D01*
X144468330Y-57192577D01*
X144426458Y-57248510D01*
X144360994Y-57272927D01*
X144342450Y-57272377D01*
X144342425Y-57272765D01*
X144338382Y-57272500D01*
X143861628Y-57272500D01*
X143813929Y-57278778D01*
X143709255Y-57327589D01*
X143637681Y-57399164D01*
X143576358Y-57432649D01*
X143506666Y-57427665D01*
X143462319Y-57399164D01*
X143390745Y-57327590D01*
X143390744Y-57327589D01*
X143308715Y-57289338D01*
X143286072Y-57278779D01*
X143286068Y-57278778D01*
X143238377Y-57272500D01*
X142761628Y-57272500D01*
X142713929Y-57278778D01*
X142609255Y-57327589D01*
X142527588Y-57409256D01*
X142525081Y-57414633D01*
X142478906Y-57467071D01*
X142411712Y-57486220D01*
X142344832Y-57466001D01*
X142309599Y-57431114D01*
X142273265Y-57376736D01*
X142182299Y-57315954D01*
X142182298Y-57315953D01*
X142150000Y-57309529D01*
X142150000Y-59290468D01*
X142182300Y-59284044D01*
X142182304Y-59284042D01*
X142273263Y-59223264D01*
X142309598Y-59168885D01*
X142363210Y-59124080D01*
X142432535Y-59115371D01*
X142495563Y-59145526D01*
X142525082Y-59185368D01*
X142527588Y-59190743D01*
X142527589Y-59190743D01*
X142527589Y-59190744D01*
X142609256Y-59272411D01*
X142675133Y-59303130D01*
X142675905Y-59303490D01*
X142728344Y-59349663D01*
X142747500Y-59415872D01*
X142747500Y-62744048D01*
X142727815Y-62811087D01*
X142711181Y-62831729D01*
X141447676Y-64095233D01*
X141428891Y-64110651D01*
X141417955Y-64117958D01*
X141399962Y-64144889D01*
X141346351Y-64189695D01*
X141296859Y-64200000D01*
X140124000Y-64200000D01*
X140056961Y-64180315D01*
X140011206Y-64127511D01*
X140000000Y-64076000D01*
X140000000Y-58550000D01*
X141450000Y-58550000D01*
X141450000Y-59052092D01*
X141465953Y-59132297D01*
X141465954Y-59132298D01*
X141526735Y-59223264D01*
X141617695Y-59284042D01*
X141617699Y-59284044D01*
X141650000Y-59290468D01*
X141650000Y-58550000D01*
X141450000Y-58550000D01*
X140000000Y-58550000D01*
X140000000Y-58373095D01*
X140019685Y-58306056D01*
X140036315Y-58285418D01*
X140271733Y-58050000D01*
X141450000Y-58050000D01*
X141650000Y-58050000D01*
X141650000Y-57309530D01*
X141649999Y-57309529D01*
X141617701Y-57315953D01*
X141617700Y-57315954D01*
X141526735Y-57376735D01*
X141465954Y-57467701D01*
X141465953Y-57467702D01*
X141450000Y-57547907D01*
X141450000Y-58050000D01*
X140271733Y-58050000D01*
X141357914Y-56963819D01*
X141419238Y-56930334D01*
X141445596Y-56927500D01*
X144254405Y-56927500D01*
X144321444Y-56947185D01*
G37*
%TD.AperFunction*%
%TA.AperFunction,Conductor*%
G36*
X150702426Y-42500691D02*
G01*
X150728818Y-42502768D01*
X150877919Y-42514502D01*
X150897128Y-42517545D01*
X151061183Y-42556931D01*
X151079675Y-42562940D01*
X151205347Y-42614994D01*
X151235547Y-42627504D01*
X151252884Y-42636338D01*
X151396725Y-42724484D01*
X151412466Y-42735920D01*
X151540753Y-42845486D01*
X151554513Y-42859246D01*
X151664079Y-42987533D01*
X151675515Y-43003274D01*
X151763661Y-43147115D01*
X151772495Y-43164452D01*
X151837057Y-43320317D01*
X151843070Y-43338823D01*
X151882453Y-43502866D01*
X151885497Y-43522084D01*
X151899309Y-43697572D01*
X151899500Y-43702439D01*
X151899500Y-64076000D01*
X151879815Y-64143039D01*
X151827011Y-64188794D01*
X151775500Y-64200000D01*
X148801500Y-64200000D01*
X148734461Y-64180315D01*
X148688706Y-64127511D01*
X148677500Y-64076000D01*
X148677500Y-63107728D01*
X148697185Y-63040689D01*
X148707936Y-63027347D01*
X148711473Y-63022393D01*
X148711473Y-63022392D01*
X148711476Y-63022390D01*
X148766809Y-62909204D01*
X148777500Y-62835827D01*
X148777499Y-62164174D01*
X148766809Y-62090796D01*
X148711476Y-61977610D01*
X148711474Y-61977608D01*
X148711474Y-61977607D01*
X148622392Y-61888525D01*
X148509202Y-61833190D01*
X148435827Y-61822500D01*
X147764179Y-61822500D01*
X147690796Y-61833191D01*
X147577607Y-61888525D01*
X147488525Y-61977607D01*
X147433190Y-62090797D01*
X147422500Y-62164172D01*
X147422500Y-62835820D01*
X147422501Y-62835826D01*
X147433191Y-62909204D01*
X147464263Y-62972763D01*
X147488525Y-63022392D01*
X147577607Y-63111474D01*
X147577608Y-63111474D01*
X147577610Y-63111476D01*
X147690796Y-63166809D01*
X147764173Y-63177500D01*
X147798499Y-63177499D01*
X147865537Y-63197182D01*
X147911293Y-63249985D01*
X147922500Y-63301499D01*
X147922500Y-63781044D01*
X147902815Y-63848083D01*
X147850011Y-63893838D01*
X147780853Y-63903782D01*
X147746095Y-63893426D01*
X147661075Y-63853780D01*
X147661068Y-63853778D01*
X147613377Y-63847500D01*
X147613375Y-63847500D01*
X147569860Y-63847500D01*
X147502821Y-63827815D01*
X147482179Y-63811181D01*
X146416367Y-62745368D01*
X146382882Y-62684045D01*
X146380048Y-62657687D01*
X146380048Y-62167310D01*
X146399733Y-62100271D01*
X146416367Y-62079629D01*
X147357178Y-61138818D01*
X147418501Y-61105333D01*
X147444859Y-61102499D01*
X147508452Y-61102499D01*
X147576972Y-61092517D01*
X147682662Y-61040848D01*
X147765848Y-60957662D01*
X147817517Y-60851972D01*
X147827500Y-60783453D01*
X147827499Y-60700956D01*
X147847183Y-60633919D01*
X147852677Y-60626057D01*
X147864124Y-60610963D01*
X147870266Y-60595384D01*
X147879678Y-60576436D01*
X147881290Y-60573784D01*
X147888377Y-60562132D01*
X147899787Y-60521404D01*
X147901804Y-60515406D01*
X147917319Y-60476067D01*
X147919031Y-60459411D01*
X147922981Y-60438628D01*
X147925770Y-60428678D01*
X147927500Y-60422503D01*
X147927500Y-60380223D01*
X147927825Y-60373878D01*
X147930570Y-60347178D01*
X147932149Y-60331822D01*
X147929303Y-60315315D01*
X147927500Y-60294247D01*
X147927500Y-59382297D01*
X147947185Y-59315258D01*
X147999989Y-59269503D01*
X148069147Y-59259559D01*
X148103906Y-59269915D01*
X148109253Y-59272408D01*
X148109256Y-59272411D01*
X148213929Y-59321221D01*
X148261625Y-59327500D01*
X148738374Y-59327499D01*
X148786071Y-59321221D01*
X148890744Y-59272411D01*
X148962318Y-59200836D01*
X149023642Y-59167351D01*
X149093334Y-59172335D01*
X149137681Y-59200836D01*
X149186181Y-59249336D01*
X149219666Y-59310659D01*
X149222500Y-59337017D01*
X149222500Y-59773500D01*
X149202815Y-59840539D01*
X149150011Y-59886294D01*
X149098502Y-59897500D01*
X149041548Y-59897500D01*
X148997706Y-59903887D01*
X148973028Y-59907483D01*
X148973026Y-59907483D01*
X148973025Y-59907484D01*
X148867336Y-59959152D01*
X148784152Y-60042336D01*
X148732483Y-60148025D01*
X148732483Y-60148028D01*
X148722500Y-60216547D01*
X148722500Y-60216551D01*
X148722500Y-60216552D01*
X148722500Y-60783451D01*
X148723177Y-60788095D01*
X148732483Y-60851972D01*
X148732484Y-60851974D01*
X148784152Y-60957663D01*
X148867335Y-61040846D01*
X148867336Y-61040846D01*
X148867338Y-61040848D01*
X148935957Y-61074394D01*
X148980746Y-61115315D01*
X148982553Y-61114026D01*
X148988522Y-61122386D01*
X148988524Y-61122389D01*
X148988525Y-61122390D01*
X148993123Y-61128829D01*
X148997978Y-61135068D01*
X148997980Y-61135071D01*
X148997982Y-61135073D01*
X148997983Y-61135074D01*
X149037658Y-61171597D01*
X149039507Y-61173372D01*
X150186181Y-62320047D01*
X150219666Y-62381370D01*
X150222500Y-62407728D01*
X150222500Y-62835820D01*
X150222501Y-62835826D01*
X150233191Y-62909204D01*
X150264263Y-62972763D01*
X150288525Y-63022392D01*
X150377607Y-63111474D01*
X150377608Y-63111474D01*
X150377610Y-63111476D01*
X150490796Y-63166809D01*
X150564173Y-63177500D01*
X151235826Y-63177499D01*
X151309204Y-63166809D01*
X151422390Y-63111476D01*
X151511476Y-63022390D01*
X151566809Y-62909204D01*
X151577500Y-62835827D01*
X151577499Y-62164174D01*
X151566809Y-62090796D01*
X151511476Y-61977610D01*
X151511474Y-61977608D01*
X151511474Y-61977607D01*
X151422392Y-61888525D01*
X151309202Y-61833190D01*
X151235828Y-61822500D01*
X151235827Y-61822500D01*
X150807728Y-61822500D01*
X150740689Y-61802815D01*
X150720047Y-61786181D01*
X149901098Y-60967232D01*
X149867613Y-60905909D01*
X149869626Y-60862012D01*
X149866128Y-60861503D01*
X149867516Y-60851973D01*
X149867517Y-60851972D01*
X149877500Y-60783453D01*
X149877500Y-60750000D01*
X150300001Y-60750000D01*
X150300001Y-60788077D01*
X150306232Y-60835416D01*
X150306232Y-60835417D01*
X150354668Y-60939288D01*
X150435711Y-61020331D01*
X150539582Y-61068767D01*
X150539590Y-61068769D01*
X150586907Y-61074999D01*
X150586918Y-61074999D01*
X150600000Y-61074998D01*
X150600000Y-60750000D01*
X151100000Y-60750000D01*
X151100000Y-61074999D01*
X151113078Y-61074999D01*
X151160416Y-61068767D01*
X151160417Y-61068767D01*
X151264288Y-61020331D01*
X151345331Y-60939288D01*
X151393767Y-60835417D01*
X151393769Y-60835409D01*
X151399998Y-60788095D01*
X151400000Y-60788078D01*
X151400000Y-60750000D01*
X151100000Y-60750000D01*
X150600000Y-60750000D01*
X150300001Y-60750000D01*
X149877500Y-60750000D01*
X149877499Y-60500718D01*
X149897183Y-60433680D01*
X149900573Y-60428678D01*
X149901951Y-60426747D01*
X149903488Y-60424686D01*
X149918002Y-60406039D01*
X149936592Y-60382155D01*
X149936592Y-60382152D01*
X149940344Y-60375219D01*
X149943828Y-60368093D01*
X149943832Y-60368089D01*
X149959219Y-60316402D01*
X149959996Y-60313977D01*
X149963127Y-60304859D01*
X149977500Y-60262994D01*
X149977500Y-60262993D01*
X149978800Y-60255201D01*
X149979449Y-60250000D01*
X150300000Y-60250000D01*
X150600000Y-60250000D01*
X150600000Y-59925000D01*
X151100000Y-59925000D01*
X151100000Y-60250000D01*
X151399999Y-60250000D01*
X151399999Y-60211922D01*
X151393767Y-60164583D01*
X151393767Y-60164582D01*
X151345331Y-60060711D01*
X151264288Y-59979668D01*
X151160417Y-59931232D01*
X151160409Y-59931230D01*
X151113095Y-59925001D01*
X151113078Y-59925000D01*
X151100000Y-59925000D01*
X150600000Y-59925000D01*
X150600000Y-59924999D01*
X150586915Y-59925000D01*
X150586912Y-59925000D01*
X150539590Y-59931230D01*
X150539582Y-59931232D01*
X150435711Y-59979668D01*
X150354668Y-60060711D01*
X150306232Y-60164582D01*
X150306230Y-60164590D01*
X150300001Y-60211904D01*
X150300000Y-60211921D01*
X150300000Y-60250000D01*
X149979449Y-60250000D01*
X149979781Y-60247338D01*
X149977553Y-60193478D01*
X149977500Y-60190915D01*
X149977500Y-59337017D01*
X149997185Y-59269978D01*
X150013819Y-59249336D01*
X150080082Y-59183073D01*
X150082715Y-59185706D01*
X150121872Y-59154388D01*
X150191368Y-59147174D01*
X150253733Y-59178677D01*
X150270958Y-59198758D01*
X150271114Y-59198914D01*
X150271115Y-59198915D01*
X150351085Y-59278885D01*
X150454543Y-59324566D01*
X150479833Y-59327500D01*
X150920166Y-59327499D01*
X150945457Y-59324566D01*
X151048915Y-59278885D01*
X151128885Y-59198915D01*
X151174566Y-59095457D01*
X151177500Y-59070167D01*
X151177499Y-57529834D01*
X151174566Y-57504543D01*
X151128885Y-57401085D01*
X151048915Y-57321115D01*
X151042254Y-57318174D01*
X150945458Y-57275434D01*
X150920167Y-57272500D01*
X150479841Y-57272500D01*
X150479832Y-57272501D01*
X150454541Y-57275434D01*
X150351085Y-57321114D01*
X150351084Y-57321115D01*
X150262990Y-57409210D01*
X150262136Y-57408356D01*
X150217075Y-57445138D01*
X150147653Y-57453042D01*
X150084979Y-57422160D01*
X150080249Y-57416758D01*
X150080081Y-57416927D01*
X150072411Y-57409257D01*
X150072411Y-57409256D01*
X150013817Y-57350662D01*
X149980334Y-57289339D01*
X149977500Y-57262982D01*
X149977500Y-56768719D01*
X149972208Y-56737006D01*
X149961983Y-56675731D01*
X149902020Y-56564929D01*
X149809328Y-56479600D01*
X149693952Y-56428991D01*
X149693949Y-56428990D01*
X149693948Y-56428990D01*
X149568397Y-56418586D01*
X149446262Y-56449515D01*
X149340792Y-56518422D01*
X149263407Y-56617845D01*
X149263406Y-56617847D01*
X149222500Y-56737003D01*
X149222500Y-57262983D01*
X149202815Y-57330022D01*
X149186180Y-57350665D01*
X149137679Y-57399165D01*
X149076356Y-57432649D01*
X149006664Y-57427664D01*
X148962318Y-57399163D01*
X148938066Y-57374911D01*
X148913817Y-57350661D01*
X148880333Y-57289338D01*
X148877500Y-57262982D01*
X148877500Y-56768719D01*
X148872208Y-56737006D01*
X148861983Y-56675731D01*
X148802020Y-56564929D01*
X148709328Y-56479600D01*
X148593952Y-56428991D01*
X148593949Y-56428990D01*
X148593948Y-56428990D01*
X148468397Y-56418586D01*
X148346262Y-56449515D01*
X148240792Y-56518422D01*
X148163407Y-56617845D01*
X148163406Y-56617847D01*
X148122500Y-56737003D01*
X148122500Y-57262982D01*
X148102815Y-57330021D01*
X148086182Y-57350662D01*
X148037682Y-57399163D01*
X147976359Y-57432649D01*
X147906668Y-57427665D01*
X147862319Y-57399164D01*
X147790745Y-57327590D01*
X147790744Y-57327589D01*
X147708715Y-57289338D01*
X147686072Y-57278779D01*
X147686068Y-57278778D01*
X147638377Y-57272500D01*
X147161628Y-57272500D01*
X147113929Y-57278778D01*
X147009257Y-57327588D01*
X146937680Y-57399165D01*
X146876356Y-57432649D01*
X146806665Y-57427664D01*
X146762322Y-57399167D01*
X146690744Y-57327589D01*
X146646310Y-57306869D01*
X146600972Y-57285727D01*
X146548533Y-57239554D01*
X146529382Y-57172360D01*
X146529548Y-57166854D01*
X146529718Y-57163616D01*
X146522302Y-57144297D01*
X146516775Y-57125638D01*
X146512474Y-57105400D01*
X146511250Y-57103716D01*
X146495802Y-57075260D01*
X146495059Y-57073325D01*
X146480428Y-57058694D01*
X146467790Y-57043898D01*
X146455627Y-57027157D01*
X146455626Y-57027156D01*
X146453821Y-57026114D01*
X146428145Y-57006411D01*
X145566220Y-56144486D01*
X145563985Y-56142131D01*
X145536708Y-56111837D01*
X145536706Y-56111835D01*
X145517797Y-56103416D01*
X145500702Y-56094134D01*
X145483350Y-56082865D01*
X145483347Y-56082864D01*
X145481296Y-56082540D01*
X145450265Y-56073348D01*
X145448363Y-56072501D01*
X145448357Y-56072500D01*
X145427657Y-56072500D01*
X145408260Y-56070973D01*
X145387828Y-56067737D01*
X145385819Y-56068275D01*
X145353727Y-56072500D01*
X140907577Y-56072500D01*
X140904333Y-56072415D01*
X140876819Y-56070973D01*
X140863617Y-56070281D01*
X140863616Y-56070281D01*
X140863615Y-56070281D01*
X140863611Y-56070282D01*
X140844287Y-56077699D01*
X140825640Y-56083223D01*
X140805400Y-56087525D01*
X140805396Y-56087527D01*
X140803705Y-56088756D01*
X140775285Y-56104187D01*
X140773331Y-56104937D01*
X140773327Y-56104939D01*
X140758692Y-56119574D01*
X140743903Y-56132204D01*
X140727159Y-56144369D01*
X140727157Y-56144372D01*
X140726113Y-56146181D01*
X140706412Y-56171853D01*
X140211681Y-56666584D01*
X140150358Y-56700069D01*
X140080666Y-56695085D01*
X140024733Y-56653213D01*
X140000316Y-56587749D01*
X140000000Y-56578903D01*
X140000000Y-55273093D01*
X140019685Y-55206054D01*
X140036313Y-55185418D01*
X144255539Y-50966192D01*
X144257838Y-50964011D01*
X144288163Y-50936708D01*
X144296580Y-50917801D01*
X144305866Y-50900698D01*
X144317134Y-50883349D01*
X144317458Y-50881297D01*
X144326654Y-50850254D01*
X144327500Y-50848357D01*
X144327500Y-50827663D01*
X144329027Y-50808263D01*
X144332264Y-50787828D01*
X144332135Y-50787349D01*
X144331725Y-50785814D01*
X144327500Y-50753723D01*
X144327500Y-49927529D01*
X144347185Y-49860490D01*
X144399095Y-49815147D01*
X144490744Y-49772411D01*
X144562319Y-49700836D01*
X144623642Y-49667351D01*
X144693334Y-49672335D01*
X144737681Y-49700836D01*
X144809256Y-49772411D01*
X144913929Y-49821221D01*
X144961625Y-49827500D01*
X145438374Y-49827499D01*
X145486071Y-49821221D01*
X145590744Y-49772411D01*
X145662318Y-49700835D01*
X145723642Y-49667351D01*
X145793334Y-49672335D01*
X145837681Y-49700836D01*
X145909256Y-49772411D01*
X146013929Y-49821221D01*
X146061625Y-49827500D01*
X146538374Y-49827499D01*
X146586071Y-49821221D01*
X146690744Y-49772411D01*
X146762319Y-49700835D01*
X146823642Y-49667351D01*
X146893334Y-49672335D01*
X146937681Y-49700836D01*
X147009256Y-49772411D01*
X147113929Y-49821221D01*
X147161625Y-49827500D01*
X147638374Y-49827499D01*
X147686071Y-49821221D01*
X147790744Y-49772411D01*
X147872411Y-49690744D01*
X147872411Y-49690743D01*
X147880082Y-49683073D01*
X147882629Y-49685620D01*
X147922122Y-49654038D01*
X147991619Y-49646828D01*
X148053981Y-49678336D01*
X148056829Y-49681094D01*
X148127520Y-49751785D01*
X148127525Y-49751788D01*
X148230127Y-49797090D01*
X148249998Y-49799395D01*
X148249999Y-49799395D01*
X148250000Y-49050000D01*
X148250000Y-47800604D01*
X148230124Y-47802910D01*
X148230122Y-47802910D01*
X148127525Y-47848211D01*
X148127523Y-47848212D01*
X148056829Y-47918906D01*
X147995505Y-47952390D01*
X147925814Y-47947405D01*
X147882230Y-47914778D01*
X147880082Y-47916927D01*
X147790745Y-47827590D01*
X147790744Y-47827589D01*
X147724091Y-47796508D01*
X147686072Y-47778779D01*
X147686068Y-47778778D01*
X147638377Y-47772500D01*
X147161628Y-47772500D01*
X147113929Y-47778778D01*
X147009255Y-47827589D01*
X146937681Y-47899164D01*
X146876358Y-47932649D01*
X146806666Y-47927665D01*
X146762319Y-47899164D01*
X146690745Y-47827590D01*
X146690744Y-47827589D01*
X146624091Y-47796508D01*
X146586072Y-47778779D01*
X146586068Y-47778778D01*
X146538377Y-47772500D01*
X146061628Y-47772500D01*
X146013929Y-47778778D01*
X145909255Y-47827589D01*
X145837681Y-47899164D01*
X145776358Y-47932649D01*
X145706666Y-47927665D01*
X145662319Y-47899164D01*
X145590745Y-47827590D01*
X145590744Y-47827589D01*
X145524091Y-47796508D01*
X145486072Y-47778779D01*
X145486068Y-47778778D01*
X145438377Y-47772500D01*
X144976500Y-47772500D01*
X144909461Y-47752815D01*
X144863706Y-47700011D01*
X144852500Y-47648500D01*
X144852500Y-47369260D01*
X144872185Y-47302221D01*
X144924989Y-47256466D01*
X144960320Y-47246320D01*
X144961071Y-47246221D01*
X144961073Y-47246220D01*
X145065744Y-47197411D01*
X145147411Y-47115744D01*
X145196221Y-47011071D01*
X145202500Y-46963375D01*
X145202499Y-46486626D01*
X145196221Y-46438929D01*
X145147411Y-46334256D01*
X145065744Y-46252589D01*
X145009881Y-46226540D01*
X144961072Y-46203779D01*
X144961068Y-46203778D01*
X144913376Y-46197500D01*
X144286628Y-46197500D01*
X144238929Y-46203778D01*
X144134255Y-46252589D01*
X144052590Y-46334254D01*
X144003779Y-46438927D01*
X144003778Y-46438931D01*
X143997500Y-46486622D01*
X143997500Y-46963371D01*
X144003778Y-47011070D01*
X144034755Y-47077500D01*
X144052589Y-47115744D01*
X144134256Y-47197411D01*
X144238929Y-47246221D01*
X144239678Y-47246319D01*
X144240471Y-47246670D01*
X144248033Y-47248874D01*
X144247738Y-47249884D01*
X144303575Y-47274581D01*
X144342050Y-47332903D01*
X144347500Y-47369259D01*
X144347500Y-47644047D01*
X144327815Y-47711086D01*
X144311181Y-47731728D01*
X144306728Y-47736181D01*
X144245405Y-47769666D01*
X144219047Y-47772500D01*
X143861628Y-47772500D01*
X143813929Y-47778778D01*
X143709257Y-47827588D01*
X143637681Y-47899164D01*
X143576357Y-47932648D01*
X143506666Y-47927663D01*
X143462319Y-47899164D01*
X143439890Y-47876735D01*
X143390744Y-47827589D01*
X143324094Y-47796509D01*
X143271656Y-47750337D01*
X143252500Y-47684128D01*
X143252500Y-47369260D01*
X143272185Y-47302221D01*
X143324989Y-47256466D01*
X143360320Y-47246320D01*
X143361071Y-47246221D01*
X143361073Y-47246220D01*
X143465744Y-47197411D01*
X143547411Y-47115744D01*
X143596221Y-47011071D01*
X143602500Y-46963375D01*
X143602499Y-46486626D01*
X143596221Y-46438929D01*
X143547411Y-46334256D01*
X143465744Y-46252589D01*
X143409881Y-46226540D01*
X143361072Y-46203779D01*
X143361068Y-46203778D01*
X143313376Y-46197500D01*
X142686628Y-46197500D01*
X142638929Y-46203778D01*
X142534255Y-46252589D01*
X142452590Y-46334254D01*
X142403779Y-46438927D01*
X142403778Y-46438931D01*
X142397500Y-46486622D01*
X142397500Y-46963371D01*
X142403778Y-47011070D01*
X142434755Y-47077500D01*
X142452589Y-47115744D01*
X142534256Y-47197411D01*
X142638929Y-47246221D01*
X142639678Y-47246319D01*
X142640471Y-47246670D01*
X142648033Y-47248874D01*
X142647738Y-47249884D01*
X142703575Y-47274581D01*
X142742050Y-47332903D01*
X142747500Y-47369259D01*
X142747500Y-47684127D01*
X142727815Y-47751166D01*
X142675906Y-47796508D01*
X142609257Y-47827587D01*
X142609256Y-47827588D01*
X142519918Y-47916927D01*
X142517291Y-47914300D01*
X142478047Y-47945644D01*
X142408545Y-47952810D01*
X142346203Y-47921262D01*
X142329044Y-47901244D01*
X142248915Y-47821115D01*
X142145458Y-47775434D01*
X142120167Y-47772500D01*
X141679841Y-47772500D01*
X141679832Y-47772501D01*
X141654541Y-47775434D01*
X141551085Y-47821114D01*
X141471115Y-47901084D01*
X141425434Y-48004540D01*
X141425434Y-48004542D01*
X141422500Y-48029829D01*
X141422500Y-49570158D01*
X141422501Y-49570167D01*
X141425434Y-49595458D01*
X141471114Y-49698914D01*
X141471114Y-49698915D01*
X141471115Y-49698915D01*
X141551085Y-49778885D01*
X141654543Y-49824566D01*
X141679833Y-49827500D01*
X142120166Y-49827499D01*
X142145457Y-49824566D01*
X142248915Y-49778885D01*
X142328885Y-49698915D01*
X142328885Y-49698914D01*
X142337010Y-49690790D01*
X142337863Y-49691643D01*
X142382910Y-49654866D01*
X142452331Y-49646954D01*
X142515008Y-49677829D01*
X142519748Y-49683242D01*
X142519918Y-49683073D01*
X142527589Y-49690744D01*
X142609256Y-49772411D01*
X142662180Y-49797090D01*
X142700905Y-49815148D01*
X142753344Y-49861321D01*
X142772500Y-49927530D01*
X142772500Y-51254403D01*
X142752815Y-51321442D01*
X142736181Y-51342084D01*
X140211681Y-53866584D01*
X140150358Y-53900069D01*
X140080666Y-53895085D01*
X140024733Y-53853213D01*
X140000316Y-53787749D01*
X140000000Y-53778903D01*
X140000000Y-45313371D01*
X142397500Y-45313371D01*
X142403778Y-45361070D01*
X142403779Y-45361072D01*
X142452589Y-45465744D01*
X142534256Y-45547411D01*
X142638929Y-45596221D01*
X142686625Y-45602500D01*
X142913054Y-45602499D01*
X142913062Y-45602500D01*
X142927497Y-45602500D01*
X142979864Y-45602500D01*
X142984096Y-45602645D01*
X143003269Y-45603956D01*
X143036336Y-45606218D01*
X143041745Y-45605093D01*
X143066974Y-45602500D01*
X144639820Y-45602500D01*
X144639836Y-45602499D01*
X144913371Y-45602499D01*
X144913374Y-45602499D01*
X144961071Y-45596221D01*
X145065744Y-45547411D01*
X145147411Y-45465744D01*
X145196221Y-45361071D01*
X145202500Y-45313375D01*
X145202500Y-45200000D01*
X147000001Y-45200000D01*
X147000001Y-46059844D01*
X147005802Y-46089018D01*
X147027904Y-46122095D01*
X147060983Y-46144198D01*
X147060984Y-46144199D01*
X147090148Y-46149999D01*
X147374999Y-46149999D01*
X147375000Y-46149998D01*
X147375000Y-45200000D01*
X147875000Y-45200000D01*
X147875000Y-46149999D01*
X148159845Y-46149999D01*
X148189018Y-46144197D01*
X148222094Y-46122096D01*
X148245397Y-46087222D01*
X148299009Y-46042416D01*
X148368334Y-46033709D01*
X148431362Y-46063863D01*
X148468082Y-46123306D01*
X148472500Y-46156112D01*
X148472500Y-46962558D01*
X148479898Y-46999749D01*
X148508077Y-47041922D01*
X148550250Y-47070101D01*
X148550252Y-47070102D01*
X148578205Y-47075662D01*
X148587441Y-47077500D01*
X148587442Y-47077500D01*
X149234200Y-47077500D01*
X149301239Y-47097185D01*
X149346994Y-47149989D01*
X149358200Y-47201500D01*
X149358200Y-47679138D01*
X149338515Y-47746177D01*
X149286606Y-47791519D01*
X149223140Y-47821115D01*
X149209254Y-47827590D01*
X149119918Y-47916927D01*
X149117375Y-47914384D01*
X149077810Y-47945988D01*
X149008310Y-47953158D01*
X148945966Y-47921615D01*
X148943170Y-47918905D01*
X148872479Y-47848214D01*
X148872474Y-47848211D01*
X148769876Y-47802910D01*
X148750000Y-47800604D01*
X148750000Y-49799395D01*
X148769870Y-49797091D01*
X148769873Y-49797090D01*
X148872474Y-49751788D01*
X148872475Y-49751788D01*
X148943169Y-49681094D01*
X149004492Y-49647609D01*
X149074184Y-49652593D01*
X149117770Y-49685220D01*
X149119918Y-49683073D01*
X149127588Y-49690743D01*
X149127589Y-49690744D01*
X149209256Y-49772411D01*
X149313929Y-49821221D01*
X149361625Y-49827500D01*
X149838374Y-49827499D01*
X149886071Y-49821221D01*
X149990744Y-49772411D01*
X150072411Y-49690744D01*
X150074916Y-49685371D01*
X150121084Y-49632933D01*
X150188277Y-49613779D01*
X150255159Y-49633992D01*
X150290400Y-49668884D01*
X150326735Y-49723264D01*
X150417695Y-49784042D01*
X150417699Y-49784044D01*
X150450000Y-49790468D01*
X150450000Y-49050000D01*
X150950000Y-49050000D01*
X150950000Y-49790468D01*
X150982300Y-49784044D01*
X150982304Y-49784042D01*
X151073264Y-49723264D01*
X151134045Y-49632298D01*
X151134046Y-49632297D01*
X151149999Y-49552092D01*
X151150000Y-49552089D01*
X151150000Y-49050000D01*
X150950000Y-49050000D01*
X150450000Y-49050000D01*
X150450000Y-47809530D01*
X150449999Y-47809529D01*
X150950000Y-47809529D01*
X150950000Y-48550000D01*
X151150000Y-48550000D01*
X151150000Y-48047910D01*
X151149999Y-48047907D01*
X151134046Y-47967702D01*
X151134045Y-47967701D01*
X151073264Y-47876735D01*
X150982299Y-47815954D01*
X150982298Y-47815953D01*
X150950000Y-47809529D01*
X150449999Y-47809529D01*
X150417701Y-47815953D01*
X150417700Y-47815954D01*
X150326736Y-47876735D01*
X150290400Y-47931116D01*
X150236787Y-47975920D01*
X150167462Y-47984627D01*
X150104435Y-47954472D01*
X150074916Y-47914628D01*
X150072411Y-47909256D01*
X149990744Y-47827589D01*
X149913393Y-47791519D01*
X149860955Y-47745347D01*
X149841800Y-47679138D01*
X149841800Y-46957962D01*
X149841885Y-46954716D01*
X149844159Y-46911329D01*
X149836055Y-46890219D01*
X149830528Y-46871560D01*
X149825830Y-46849454D01*
X149823924Y-46846831D01*
X149808483Y-46818392D01*
X149807321Y-46815364D01*
X149791328Y-46799371D01*
X149778699Y-46784584D01*
X149765410Y-46766293D01*
X149765409Y-46766292D01*
X149757748Y-46755747D01*
X149759511Y-46754465D01*
X149731879Y-46709612D01*
X149727500Y-46676950D01*
X149727500Y-46156112D01*
X149747185Y-46089073D01*
X149799989Y-46043318D01*
X149869147Y-46033374D01*
X149932703Y-46062399D01*
X149954603Y-46087222D01*
X149977904Y-46122096D01*
X150010983Y-46144198D01*
X150010984Y-46144199D01*
X150040148Y-46149999D01*
X150324999Y-46149999D01*
X150325000Y-46149998D01*
X150325000Y-45200000D01*
X150825000Y-45200000D01*
X150825000Y-46149999D01*
X151109845Y-46149999D01*
X151139018Y-46144197D01*
X151172095Y-46122095D01*
X151194198Y-46089016D01*
X151194199Y-46089015D01*
X151199999Y-46059853D01*
X151200000Y-46059850D01*
X151200000Y-45200000D01*
X150825000Y-45200000D01*
X150325000Y-45200000D01*
X149950001Y-45200000D01*
X149950001Y-45835546D01*
X149930316Y-45902585D01*
X149877512Y-45948340D01*
X149808354Y-45958284D01*
X149744798Y-45929259D01*
X149722899Y-45904437D01*
X149691922Y-45858077D01*
X149649749Y-45829898D01*
X149612559Y-45822500D01*
X149612558Y-45822500D01*
X148587442Y-45822500D01*
X148587441Y-45822500D01*
X148550250Y-45829898D01*
X148508077Y-45858077D01*
X148477102Y-45904436D01*
X148423490Y-45949241D01*
X148354165Y-45957948D01*
X148291137Y-45927793D01*
X148254418Y-45868350D01*
X148250000Y-45835545D01*
X148250000Y-45200000D01*
X147875000Y-45200000D01*
X147375000Y-45200000D01*
X147000001Y-45200000D01*
X145202500Y-45200000D01*
X145202499Y-44836626D01*
X145196221Y-44788929D01*
X145154753Y-44700000D01*
X147000000Y-44700000D01*
X147375000Y-44700000D01*
X147375000Y-43750000D01*
X147875000Y-43750000D01*
X147875000Y-44700000D01*
X148249999Y-44700000D01*
X149950000Y-44700000D01*
X150325000Y-44700000D01*
X150325000Y-43750000D01*
X150825000Y-43750000D01*
X150825000Y-44700000D01*
X151199999Y-44700000D01*
X151199999Y-43840155D01*
X151194197Y-43810981D01*
X151172095Y-43777904D01*
X151139016Y-43755801D01*
X151139015Y-43755800D01*
X151109853Y-43750000D01*
X150825000Y-43750000D01*
X150325000Y-43750000D01*
X150040155Y-43750000D01*
X150010981Y-43755802D01*
X149977904Y-43777904D01*
X149955801Y-43810983D01*
X149955800Y-43810984D01*
X149950000Y-43840146D01*
X149950000Y-44700000D01*
X148249999Y-44700000D01*
X148249999Y-43840155D01*
X148244197Y-43810981D01*
X148222095Y-43777904D01*
X148189016Y-43755801D01*
X148189015Y-43755800D01*
X148159853Y-43750000D01*
X147875000Y-43750000D01*
X147375000Y-43750000D01*
X147090155Y-43750000D01*
X147060981Y-43755802D01*
X147027904Y-43777904D01*
X147005801Y-43810983D01*
X147005800Y-43810984D01*
X147000000Y-43840146D01*
X147000000Y-44700000D01*
X145154753Y-44700000D01*
X145147411Y-44684256D01*
X145065744Y-44602589D01*
X145009882Y-44576540D01*
X144961072Y-44553779D01*
X144961068Y-44553778D01*
X144913377Y-44547500D01*
X144913375Y-44547500D01*
X144672504Y-44547500D01*
X144672503Y-44547500D01*
X143651500Y-44547500D01*
X143584461Y-44527815D01*
X143538706Y-44475011D01*
X143527500Y-44423500D01*
X143527500Y-43938643D01*
X143528031Y-43930541D01*
X143532052Y-43900000D01*
X143527965Y-43868955D01*
X143527580Y-43865104D01*
X143527500Y-43863941D01*
X143527500Y-43863920D01*
X143522805Y-43829764D01*
X143513923Y-43762295D01*
X143513921Y-43762292D01*
X143513827Y-43761571D01*
X143512923Y-43757093D01*
X143512714Y-43756349D01*
X143512714Y-43756344D01*
X143488239Y-43700000D01*
X148500001Y-43700000D01*
X148500001Y-43959844D01*
X148505802Y-43989018D01*
X148527904Y-44022095D01*
X148560983Y-44044198D01*
X148560984Y-44044199D01*
X148590148Y-44049999D01*
X148849999Y-44049999D01*
X148850000Y-44049998D01*
X148850000Y-43700000D01*
X149350000Y-43700000D01*
X149350000Y-44049999D01*
X149609845Y-44049999D01*
X149639018Y-44044197D01*
X149672095Y-44022095D01*
X149694198Y-43989016D01*
X149694199Y-43989015D01*
X149699999Y-43959853D01*
X149700000Y-43959850D01*
X149700000Y-43700000D01*
X149350000Y-43700000D01*
X148850000Y-43700000D01*
X148500001Y-43700000D01*
X143488239Y-43700000D01*
X143485644Y-43694025D01*
X143460771Y-43633974D01*
X143460768Y-43633970D01*
X143457653Y-43628575D01*
X143455376Y-43624055D01*
X143454944Y-43623347D01*
X143454943Y-43623343D01*
X143414494Y-43573624D01*
X143413442Y-43572293D01*
X143376218Y-43523782D01*
X143376215Y-43523778D01*
X143370471Y-43518034D01*
X143370957Y-43517547D01*
X143369824Y-43516446D01*
X143369633Y-43516651D01*
X143363434Y-43510862D01*
X143363433Y-43510861D01*
X143363432Y-43510860D01*
X143313809Y-43475832D01*
X143311821Y-43474368D01*
X143266022Y-43439226D01*
X143258987Y-43435164D01*
X143259079Y-43435003D01*
X143245355Y-43427440D01*
X143244960Y-43427235D01*
X143205339Y-43413154D01*
X143190886Y-43408017D01*
X143187933Y-43406882D01*
X143137704Y-43386076D01*
X143137705Y-43386076D01*
X143137099Y-43385997D01*
X143111773Y-43379900D01*
X143108334Y-43378678D01*
X143054411Y-43374988D01*
X143050576Y-43374605D01*
X143012003Y-43369528D01*
X143000002Y-43367948D01*
X142999996Y-43367948D01*
X142995678Y-43368516D01*
X142971051Y-43369286D01*
X142963672Y-43368781D01*
X142963660Y-43368782D01*
X142914040Y-43379092D01*
X142909520Y-43379858D01*
X142862297Y-43386076D01*
X142862288Y-43386079D01*
X142854805Y-43389178D01*
X142832605Y-43396016D01*
X142821691Y-43398284D01*
X142821685Y-43398286D01*
X142779672Y-43420055D01*
X142774876Y-43422285D01*
X142733978Y-43439227D01*
X142733970Y-43439231D01*
X142724582Y-43446435D01*
X142706151Y-43458152D01*
X142692939Y-43464997D01*
X142660814Y-43495001D01*
X142656237Y-43498878D01*
X142623780Y-43523783D01*
X142614302Y-43536136D01*
X142600566Y-43551270D01*
X142586966Y-43563971D01*
X142586961Y-43563977D01*
X142565880Y-43598646D01*
X142562092Y-43604177D01*
X142539230Y-43633972D01*
X142539227Y-43633977D01*
X142531839Y-43651812D01*
X142523229Y-43668782D01*
X142511622Y-43687868D01*
X142501578Y-43723712D01*
X142499157Y-43730714D01*
X142486077Y-43762294D01*
X142483071Y-43785125D01*
X142479536Y-43802383D01*
X142472500Y-43827497D01*
X142472500Y-43827498D01*
X142472500Y-43827499D01*
X142472500Y-43861356D01*
X142471969Y-43869458D01*
X142467948Y-43899999D01*
X142471969Y-43930541D01*
X142472500Y-43938643D01*
X142472500Y-44616722D01*
X142455751Y-44673761D01*
X142457173Y-44674425D01*
X142403780Y-44788924D01*
X142403778Y-44788931D01*
X142397500Y-44836622D01*
X142397500Y-45313371D01*
X140000000Y-45313371D01*
X140000000Y-43200000D01*
X148500000Y-43200000D01*
X148850000Y-43200000D01*
X148850000Y-42850000D01*
X149350000Y-42850000D01*
X149350000Y-43200000D01*
X149699999Y-43200000D01*
X149699999Y-42940155D01*
X149694197Y-42910981D01*
X149672095Y-42877904D01*
X149639016Y-42855801D01*
X149639015Y-42855800D01*
X149609853Y-42850000D01*
X149350000Y-42850000D01*
X148850000Y-42850000D01*
X148590155Y-42850000D01*
X148560981Y-42855802D01*
X148527904Y-42877904D01*
X148505801Y-42910983D01*
X148505800Y-42910984D01*
X148500000Y-42940146D01*
X148500000Y-43200000D01*
X140000000Y-43200000D01*
X140000000Y-42624500D01*
X140019685Y-42557461D01*
X140072489Y-42511706D01*
X140124000Y-42500500D01*
X150652405Y-42500500D01*
X150697560Y-42500500D01*
X150702426Y-42500691D01*
G37*
%TD.AperFunction*%
%TA.AperFunction,Conductor*%
G36*
X145793333Y-59172334D02*
G01*
X145837676Y-59200831D01*
X145909256Y-59272411D01*
X146013929Y-59321221D01*
X146061625Y-59327500D01*
X146538374Y-59327499D01*
X146586071Y-59321221D01*
X146690744Y-59272411D01*
X146690746Y-59272408D01*
X146696094Y-59269915D01*
X146765172Y-59259423D01*
X146828956Y-59287942D01*
X146867196Y-59346418D01*
X146872500Y-59382297D01*
X146872500Y-59855939D01*
X146852815Y-59922978D01*
X146820556Y-59956854D01*
X146817342Y-59959148D01*
X146734151Y-60042338D01*
X146682483Y-60148025D01*
X146682483Y-60148028D01*
X146672500Y-60216547D01*
X146672500Y-60216551D01*
X146672500Y-60216552D01*
X146672500Y-60280139D01*
X146652815Y-60347178D01*
X146636181Y-60367820D01*
X146290320Y-60713681D01*
X146228997Y-60747166D01*
X146202639Y-60750000D01*
X145950000Y-60750000D01*
X145950000Y-61002639D01*
X145930315Y-61069678D01*
X145913681Y-61090320D01*
X145284118Y-61719884D01*
X145282597Y-61721353D01*
X145272573Y-61730716D01*
X145266302Y-61736572D01*
X145203875Y-61767946D01*
X145181663Y-61769952D01*
X143827714Y-61769952D01*
X143815494Y-61776624D01*
X143811860Y-61777357D01*
X143807416Y-61778184D01*
X143801719Y-61779246D01*
X143800945Y-61779555D01*
X143798948Y-61780383D01*
X143797117Y-61780579D01*
X143795878Y-61780939D01*
X143795814Y-61780719D01*
X143729478Y-61787849D01*
X143667000Y-61756571D01*
X143631350Y-61696481D01*
X143627500Y-61665820D01*
X143627500Y-60750000D01*
X145150001Y-60750000D01*
X145150001Y-60788077D01*
X145156232Y-60835416D01*
X145156232Y-60835417D01*
X145204668Y-60939288D01*
X145285711Y-61020331D01*
X145389582Y-61068767D01*
X145389590Y-61068769D01*
X145436907Y-61074999D01*
X145436918Y-61074999D01*
X145450000Y-61074998D01*
X145450000Y-60750000D01*
X145150001Y-60750000D01*
X143627500Y-60750000D01*
X143627500Y-60250000D01*
X145150000Y-60250000D01*
X145450000Y-60250000D01*
X145450000Y-59925000D01*
X145950000Y-59925000D01*
X145950000Y-60250000D01*
X146249999Y-60250000D01*
X146249999Y-60211922D01*
X146243767Y-60164583D01*
X146243767Y-60164582D01*
X146195331Y-60060711D01*
X146114288Y-59979668D01*
X146010417Y-59931232D01*
X146010409Y-59931230D01*
X145963095Y-59925001D01*
X145963078Y-59925000D01*
X145950000Y-59925000D01*
X145450000Y-59925000D01*
X145450000Y-59924999D01*
X145436915Y-59925000D01*
X145436912Y-59925000D01*
X145389590Y-59931230D01*
X145389582Y-59931232D01*
X145285711Y-59979668D01*
X145204668Y-60060711D01*
X145156232Y-60164582D01*
X145156230Y-60164590D01*
X145150001Y-60211904D01*
X145150000Y-60211921D01*
X145150000Y-60250000D01*
X143627500Y-60250000D01*
X143627500Y-60145594D01*
X143647185Y-60078555D01*
X143663814Y-60057918D01*
X144255550Y-59466182D01*
X144257829Y-59464019D01*
X144288163Y-59436708D01*
X144296585Y-59417790D01*
X144305859Y-59400711D01*
X144317134Y-59383350D01*
X144317134Y-59383348D01*
X144324237Y-59372413D01*
X144327629Y-59374616D01*
X144355646Y-59337907D01*
X144378195Y-59326782D01*
X144377472Y-59325231D01*
X144424867Y-59303130D01*
X144490744Y-59272411D01*
X144562322Y-59200832D01*
X144623641Y-59167350D01*
X144693333Y-59172334D01*
X144737676Y-59200831D01*
X144809256Y-59272411D01*
X144913929Y-59321221D01*
X144961625Y-59327500D01*
X145438374Y-59327499D01*
X145486071Y-59321221D01*
X145590744Y-59272411D01*
X145662322Y-59200832D01*
X145723641Y-59167350D01*
X145793333Y-59172334D01*
G37*
%TD.AperFunction*%
%TD*%
%TA.AperFunction,Conductor*%
%TO.N,+5V*%
G36*
X125568039Y-47714685D02*
G01*
X125613794Y-47767489D01*
X125625000Y-47819000D01*
X125625000Y-48077724D01*
X125612403Y-48132180D01*
X125608191Y-48140795D01*
X125608189Y-48140800D01*
X125597500Y-48214172D01*
X125597500Y-49585825D01*
X125608191Y-49659204D01*
X125612399Y-49667813D01*
X125625000Y-49722274D01*
X125625000Y-50255000D01*
X126701000Y-50255000D01*
X126768039Y-50274685D01*
X126813794Y-50327489D01*
X126825000Y-50379000D01*
X126825000Y-52791000D01*
X126805315Y-52858039D01*
X126752511Y-52903794D01*
X126701000Y-52915000D01*
X122739000Y-52915000D01*
X122671961Y-52895315D01*
X122626206Y-52842511D01*
X122615000Y-52791000D01*
X122615000Y-47819000D01*
X122634685Y-47751961D01*
X122687489Y-47706206D01*
X122739000Y-47695000D01*
X125501000Y-47695000D01*
X125568039Y-47714685D01*
G37*
%TD.AperFunction*%
%TD*%
%TA.AperFunction,Conductor*%
%TO.N,GND*%
G36*
X134558588Y-75419685D02*
G01*
X134579230Y-75436319D01*
X136295229Y-77152318D01*
X136310650Y-77171108D01*
X136317954Y-77182040D01*
X136317956Y-77182041D01*
X136317957Y-77182043D01*
X136345797Y-77200645D01*
X136401475Y-77237848D01*
X136401476Y-77237848D01*
X136401479Y-77237850D01*
X136412283Y-77239999D01*
X136412287Y-77240001D01*
X136412288Y-77240000D01*
X136499999Y-77257448D01*
X136499999Y-77257447D01*
X136500000Y-77257448D01*
X136512894Y-77254882D01*
X136537087Y-77252500D01*
X137724871Y-77252500D01*
X137724872Y-77252499D01*
X137798521Y-77237850D01*
X137882043Y-77182043D01*
X137937850Y-77098521D01*
X137951701Y-77028885D01*
X137984085Y-76966976D01*
X138044801Y-76932402D01*
X138097511Y-76931462D01*
X138100000Y-76931957D01*
X138102486Y-76931462D01*
X138108017Y-76931957D01*
X138112213Y-76931957D01*
X138112213Y-76932332D01*
X138172073Y-76937685D01*
X138227253Y-76980544D01*
X138248298Y-77028886D01*
X138262149Y-77098521D01*
X138290854Y-77141480D01*
X138317957Y-77182043D01*
X138368024Y-77215496D01*
X138401478Y-77237850D01*
X138475125Y-77252499D01*
X138475129Y-77252500D01*
X138475130Y-77252500D01*
X138962913Y-77252500D01*
X138987105Y-77254882D01*
X139000000Y-77257448D01*
X139087712Y-77240000D01*
X139098521Y-77237850D01*
X139182043Y-77182043D01*
X139189348Y-77171108D01*
X139204765Y-77152322D01*
X140228762Y-76128325D01*
X140290083Y-76094842D01*
X140359775Y-76099826D01*
X140368846Y-76103626D01*
X140462934Y-76147500D01*
X140479610Y-76155276D01*
X140545929Y-76175187D01*
X140663553Y-76173026D01*
X140774101Y-76132789D01*
X140865595Y-76058838D01*
X140903600Y-76000958D01*
X140905851Y-75996132D01*
X141002962Y-75787875D01*
X141143184Y-75487167D01*
X141143185Y-75487162D01*
X141144784Y-75482968D01*
X141146022Y-75483439D01*
X141180969Y-75429789D01*
X141244702Y-75401156D01*
X141261594Y-75400000D01*
X151775500Y-75400000D01*
X151842539Y-75419685D01*
X151888294Y-75472489D01*
X151899500Y-75524000D01*
X151899500Y-84198258D01*
X151899402Y-84201735D01*
X151882721Y-84498770D01*
X151881942Y-84505684D01*
X151832401Y-84797257D01*
X151830853Y-84804041D01*
X151748976Y-85088242D01*
X151746677Y-85094809D01*
X151633499Y-85368048D01*
X151630480Y-85374317D01*
X151487417Y-85633170D01*
X151483715Y-85639062D01*
X151312570Y-85880268D01*
X151308232Y-85885708D01*
X151111156Y-86106236D01*
X151106236Y-86111156D01*
X150885708Y-86308232D01*
X150880268Y-86312570D01*
X150639062Y-86483715D01*
X150633170Y-86487417D01*
X150374317Y-86630480D01*
X150368048Y-86633499D01*
X150094809Y-86746677D01*
X150088242Y-86748976D01*
X149804041Y-86830853D01*
X149797257Y-86832401D01*
X149505684Y-86881942D01*
X149498770Y-86882721D01*
X149201735Y-86899402D01*
X149198258Y-86899500D01*
X129584000Y-86899500D01*
X129516961Y-86879815D01*
X129471206Y-86827011D01*
X129460000Y-86775500D01*
X129460000Y-86100179D01*
X129479685Y-86033140D01*
X129532489Y-85987385D01*
X129601647Y-85977441D01*
X129638459Y-85988778D01*
X129661512Y-86000048D01*
X129695797Y-86016809D01*
X129769173Y-86027500D01*
X129769174Y-86027500D01*
X131440827Y-86027500D01*
X131465285Y-86023936D01*
X131514203Y-86016809D01*
X131627389Y-85961476D01*
X131716476Y-85872389D01*
X131771809Y-85759203D01*
X131782500Y-85685826D01*
X131782500Y-83114174D01*
X131771809Y-83040797D01*
X131716476Y-82927611D01*
X131716474Y-82927609D01*
X131716474Y-82927608D01*
X131627391Y-82838525D01*
X131514201Y-82783190D01*
X131440827Y-82772500D01*
X131440826Y-82772500D01*
X129769174Y-82772500D01*
X129769173Y-82772500D01*
X129695798Y-82783190D01*
X129638460Y-82811221D01*
X129569586Y-82822979D01*
X129505290Y-82795636D01*
X129465983Y-82737871D01*
X129460000Y-82699820D01*
X129460000Y-82699819D01*
X129460000Y-79909105D01*
X129479684Y-79842070D01*
X129496821Y-79820929D01*
X130780730Y-78551825D01*
X130842243Y-78518699D01*
X130911905Y-78524087D01*
X130967594Y-78566283D01*
X130991631Y-78631887D01*
X130991898Y-78640016D01*
X130991898Y-78898457D01*
X130999296Y-78935648D01*
X131027475Y-78977821D01*
X131069648Y-79006000D01*
X131069650Y-79006001D01*
X131097603Y-79011561D01*
X131106839Y-79013399D01*
X131106840Y-79013399D01*
X131943157Y-79013399D01*
X131950554Y-79011927D01*
X131980346Y-79006001D01*
X132022520Y-78977821D01*
X132050700Y-78935647D01*
X132058098Y-78898457D01*
X134491902Y-78898457D01*
X134499300Y-78935648D01*
X134527479Y-78977821D01*
X134569652Y-79006000D01*
X134569654Y-79006001D01*
X134597607Y-79011561D01*
X134606843Y-79013399D01*
X134606844Y-79013399D01*
X135443161Y-79013399D01*
X135450559Y-79011927D01*
X135480350Y-79006001D01*
X135522524Y-78977821D01*
X135550704Y-78935647D01*
X135558102Y-78898457D01*
X135558102Y-77466943D01*
X135550704Y-77429753D01*
X135550703Y-77429751D01*
X135522524Y-77387578D01*
X135480351Y-77359399D01*
X135443161Y-77352001D01*
X135443160Y-77352001D01*
X134606844Y-77352001D01*
X134606843Y-77352001D01*
X134569652Y-77359399D01*
X134527479Y-77387578D01*
X134499300Y-77429751D01*
X134491902Y-77466942D01*
X134491902Y-78898457D01*
X132058098Y-78898457D01*
X132058098Y-77466943D01*
X132050700Y-77429753D01*
X132050699Y-77429751D01*
X132050699Y-77429749D01*
X132046026Y-77418468D01*
X132048564Y-77417416D01*
X132033073Y-77367940D01*
X132051558Y-77300560D01*
X132069873Y-77277550D01*
X133933098Y-75435811D01*
X133994614Y-75402683D01*
X134020269Y-75400000D01*
X134491549Y-75400000D01*
X134558588Y-75419685D01*
G37*
%TD.AperFunction*%
%TA.AperFunction,Conductor*%
G36*
X137758588Y-75419685D02*
G01*
X137779230Y-75436319D01*
X138034702Y-75691791D01*
X138068187Y-75753114D01*
X138063203Y-75822806D01*
X138021331Y-75878739D01*
X138015912Y-75882574D01*
X137935982Y-75935982D01*
X137885700Y-76011234D01*
X137885698Y-76011237D01*
X137877695Y-76051471D01*
X137845309Y-76113382D01*
X137784592Y-76147955D01*
X137731889Y-76148896D01*
X137724870Y-76147500D01*
X137155951Y-76147500D01*
X137088912Y-76127815D01*
X137068270Y-76111181D01*
X136568770Y-75611681D01*
X136535285Y-75550358D01*
X136540269Y-75480666D01*
X136582141Y-75424733D01*
X136647605Y-75400316D01*
X136656451Y-75400000D01*
X137691549Y-75400000D01*
X137758588Y-75419685D01*
G37*
%TD.AperFunction*%
%TD*%
M02*
