%TF.GenerationSoftware,KiCad,Pcbnew,7.0.5-0*%
%TF.CreationDate,2024-02-02T13:20:02-05:00*%
%TF.ProjectId,BITSv5,42495453-7635-42e6-9b69-6361645f7063,rev?*%
%TF.SameCoordinates,Original*%
%TF.FileFunction,Drillmap*%
%TF.FilePolarity,Positive*%
%FSLAX45Y45*%
G04 Gerber Fmt 4.5, Leading zero omitted, Abs format (unit mm)*
G04 Created by KiCad (PCBNEW 7.0.5-0) date 2024-02-02 13:20:02*
%MOMM*%
%LPD*%
G01*
G04 APERTURE LIST*
%ADD10C,0.100000*%
%ADD11C,0.200000*%
%ADD12C,0.065000*%
%ADD13C,0.088900*%
G04 APERTURE END LIST*
D10*
X10700000Y-4220000D02*
X14920000Y-4220000D01*
X10520000Y-8420000D02*
X10520000Y-4520000D01*
X14920000Y-8720000D02*
G75*
G03*
X15220000Y-8420000I0J300000D01*
G01*
X15220000Y-8420000D02*
X15220000Y-4520000D01*
X14920000Y-8720000D02*
X10820000Y-8720000D01*
X10520000Y-8420000D02*
G75*
G03*
X10820000Y-8720000I300000J0D01*
G01*
X10700000Y-4220000D02*
G75*
G03*
X10520000Y-4400000I0J-180000D01*
G01*
X15220000Y-4520000D02*
G75*
G03*
X14920000Y-4220000I-300000J0D01*
G01*
X10520000Y-4520000D02*
X10520000Y-4400000D01*
D11*
D12*
X11207510Y-6538310D02*
X11272510Y-6603310D01*
X11272510Y-6538310D02*
X11207510Y-6603310D01*
X11207510Y-7116310D02*
X11272510Y-7181310D01*
X11272510Y-7116310D02*
X11207510Y-7181310D01*
D13*
X10720460Y-7745500D02*
G75*
G03*
X10720460Y-7745500I-44450J0D01*
G01*
X11400460Y-7745500D02*
G75*
G03*
X11400460Y-7745500I-44450J0D01*
G01*
D11*
X10775777Y-9036484D02*
X10775777Y-8836484D01*
X10775777Y-8836484D02*
X10823396Y-8836484D01*
X10823396Y-8836484D02*
X10851967Y-8846008D01*
X10851967Y-8846008D02*
X10871015Y-8865055D01*
X10871015Y-8865055D02*
X10880539Y-8884103D01*
X10880539Y-8884103D02*
X10890063Y-8922198D01*
X10890063Y-8922198D02*
X10890063Y-8950770D01*
X10890063Y-8950770D02*
X10880539Y-8988865D01*
X10880539Y-8988865D02*
X10871015Y-9007912D01*
X10871015Y-9007912D02*
X10851967Y-9026960D01*
X10851967Y-9026960D02*
X10823396Y-9036484D01*
X10823396Y-9036484D02*
X10775777Y-9036484D01*
X10975777Y-9036484D02*
X10975777Y-8903150D01*
X10975777Y-8941246D02*
X10985301Y-8922198D01*
X10985301Y-8922198D02*
X10994824Y-8912674D01*
X10994824Y-8912674D02*
X11013872Y-8903150D01*
X11013872Y-8903150D02*
X11032920Y-8903150D01*
X11099586Y-9036484D02*
X11099586Y-8903150D01*
X11099586Y-8836484D02*
X11090063Y-8846008D01*
X11090063Y-8846008D02*
X11099586Y-8855531D01*
X11099586Y-8855531D02*
X11109110Y-8846008D01*
X11109110Y-8846008D02*
X11099586Y-8836484D01*
X11099586Y-8836484D02*
X11099586Y-8855531D01*
X11223396Y-9036484D02*
X11204348Y-9026960D01*
X11204348Y-9026960D02*
X11194824Y-9007912D01*
X11194824Y-9007912D02*
X11194824Y-8836484D01*
X11328158Y-9036484D02*
X11309110Y-9026960D01*
X11309110Y-9026960D02*
X11299586Y-9007912D01*
X11299586Y-9007912D02*
X11299586Y-8836484D01*
X11556729Y-9036484D02*
X11556729Y-8836484D01*
X11556729Y-8836484D02*
X11623396Y-8979341D01*
X11623396Y-8979341D02*
X11690062Y-8836484D01*
X11690062Y-8836484D02*
X11690062Y-9036484D01*
X11871015Y-9036484D02*
X11871015Y-8931722D01*
X11871015Y-8931722D02*
X11861491Y-8912674D01*
X11861491Y-8912674D02*
X11842443Y-8903150D01*
X11842443Y-8903150D02*
X11804348Y-8903150D01*
X11804348Y-8903150D02*
X11785301Y-8912674D01*
X11871015Y-9026960D02*
X11851967Y-9036484D01*
X11851967Y-9036484D02*
X11804348Y-9036484D01*
X11804348Y-9036484D02*
X11785301Y-9026960D01*
X11785301Y-9026960D02*
X11775777Y-9007912D01*
X11775777Y-9007912D02*
X11775777Y-8988865D01*
X11775777Y-8988865D02*
X11785301Y-8969817D01*
X11785301Y-8969817D02*
X11804348Y-8960293D01*
X11804348Y-8960293D02*
X11851967Y-8960293D01*
X11851967Y-8960293D02*
X11871015Y-8950770D01*
X11966253Y-8903150D02*
X11966253Y-9103150D01*
X11966253Y-8912674D02*
X11985301Y-8903150D01*
X11985301Y-8903150D02*
X12023396Y-8903150D01*
X12023396Y-8903150D02*
X12042443Y-8912674D01*
X12042443Y-8912674D02*
X12051967Y-8922198D01*
X12051967Y-8922198D02*
X12061491Y-8941246D01*
X12061491Y-8941246D02*
X12061491Y-8998389D01*
X12061491Y-8998389D02*
X12051967Y-9017436D01*
X12051967Y-9017436D02*
X12042443Y-9026960D01*
X12042443Y-9026960D02*
X12023396Y-9036484D01*
X12023396Y-9036484D02*
X11985301Y-9036484D01*
X11985301Y-9036484D02*
X11966253Y-9026960D01*
X12147205Y-9017436D02*
X12156729Y-9026960D01*
X12156729Y-9026960D02*
X12147205Y-9036484D01*
X12147205Y-9036484D02*
X12137682Y-9026960D01*
X12137682Y-9026960D02*
X12147205Y-9017436D01*
X12147205Y-9017436D02*
X12147205Y-9036484D01*
X12147205Y-8912674D02*
X12156729Y-8922198D01*
X12156729Y-8922198D02*
X12147205Y-8931722D01*
X12147205Y-8931722D02*
X12137682Y-8922198D01*
X12137682Y-8922198D02*
X12147205Y-8912674D01*
X12147205Y-8912674D02*
X12147205Y-8931722D01*
D12*
X10450000Y-9332500D02*
X10515000Y-9397500D01*
X10515000Y-9332500D02*
X10450000Y-9397500D01*
D11*
X10813872Y-9256484D02*
X10832920Y-9256484D01*
X10832920Y-9256484D02*
X10851967Y-9266008D01*
X10851967Y-9266008D02*
X10861491Y-9275531D01*
X10861491Y-9275531D02*
X10871015Y-9294579D01*
X10871015Y-9294579D02*
X10880539Y-9332674D01*
X10880539Y-9332674D02*
X10880539Y-9380293D01*
X10880539Y-9380293D02*
X10871015Y-9418389D01*
X10871015Y-9418389D02*
X10861491Y-9437436D01*
X10861491Y-9437436D02*
X10851967Y-9446960D01*
X10851967Y-9446960D02*
X10832920Y-9456484D01*
X10832920Y-9456484D02*
X10813872Y-9456484D01*
X10813872Y-9456484D02*
X10794824Y-9446960D01*
X10794824Y-9446960D02*
X10785301Y-9437436D01*
X10785301Y-9437436D02*
X10775777Y-9418389D01*
X10775777Y-9418389D02*
X10766253Y-9380293D01*
X10766253Y-9380293D02*
X10766253Y-9332674D01*
X10766253Y-9332674D02*
X10775777Y-9294579D01*
X10775777Y-9294579D02*
X10785301Y-9275531D01*
X10785301Y-9275531D02*
X10794824Y-9266008D01*
X10794824Y-9266008D02*
X10813872Y-9256484D01*
X10966253Y-9437436D02*
X10975777Y-9446960D01*
X10975777Y-9446960D02*
X10966253Y-9456484D01*
X10966253Y-9456484D02*
X10956729Y-9446960D01*
X10956729Y-9446960D02*
X10966253Y-9437436D01*
X10966253Y-9437436D02*
X10966253Y-9456484D01*
X11147205Y-9256484D02*
X11109110Y-9256484D01*
X11109110Y-9256484D02*
X11090063Y-9266008D01*
X11090063Y-9266008D02*
X11080539Y-9275531D01*
X11080539Y-9275531D02*
X11061491Y-9304103D01*
X11061491Y-9304103D02*
X11051967Y-9342198D01*
X11051967Y-9342198D02*
X11051967Y-9418389D01*
X11051967Y-9418389D02*
X11061491Y-9437436D01*
X11061491Y-9437436D02*
X11071015Y-9446960D01*
X11071015Y-9446960D02*
X11090063Y-9456484D01*
X11090063Y-9456484D02*
X11128158Y-9456484D01*
X11128158Y-9456484D02*
X11147205Y-9446960D01*
X11147205Y-9446960D02*
X11156729Y-9437436D01*
X11156729Y-9437436D02*
X11166253Y-9418389D01*
X11166253Y-9418389D02*
X11166253Y-9370770D01*
X11166253Y-9370770D02*
X11156729Y-9351722D01*
X11156729Y-9351722D02*
X11147205Y-9342198D01*
X11147205Y-9342198D02*
X11128158Y-9332674D01*
X11128158Y-9332674D02*
X11090063Y-9332674D01*
X11090063Y-9332674D02*
X11071015Y-9342198D01*
X11071015Y-9342198D02*
X11061491Y-9351722D01*
X11061491Y-9351722D02*
X11051967Y-9370770D01*
X11347205Y-9256484D02*
X11251967Y-9256484D01*
X11251967Y-9256484D02*
X11242443Y-9351722D01*
X11242443Y-9351722D02*
X11251967Y-9342198D01*
X11251967Y-9342198D02*
X11271015Y-9332674D01*
X11271015Y-9332674D02*
X11318634Y-9332674D01*
X11318634Y-9332674D02*
X11337682Y-9342198D01*
X11337682Y-9342198D02*
X11347205Y-9351722D01*
X11347205Y-9351722D02*
X11356729Y-9370770D01*
X11356729Y-9370770D02*
X11356729Y-9418389D01*
X11356729Y-9418389D02*
X11347205Y-9437436D01*
X11347205Y-9437436D02*
X11337682Y-9446960D01*
X11337682Y-9446960D02*
X11318634Y-9456484D01*
X11318634Y-9456484D02*
X11271015Y-9456484D01*
X11271015Y-9456484D02*
X11251967Y-9446960D01*
X11251967Y-9446960D02*
X11242443Y-9437436D01*
X11480539Y-9256484D02*
X11499586Y-9256484D01*
X11499586Y-9256484D02*
X11518634Y-9266008D01*
X11518634Y-9266008D02*
X11528158Y-9275531D01*
X11528158Y-9275531D02*
X11537682Y-9294579D01*
X11537682Y-9294579D02*
X11547205Y-9332674D01*
X11547205Y-9332674D02*
X11547205Y-9380293D01*
X11547205Y-9380293D02*
X11537682Y-9418389D01*
X11537682Y-9418389D02*
X11528158Y-9437436D01*
X11528158Y-9437436D02*
X11518634Y-9446960D01*
X11518634Y-9446960D02*
X11499586Y-9456484D01*
X11499586Y-9456484D02*
X11480539Y-9456484D01*
X11480539Y-9456484D02*
X11461491Y-9446960D01*
X11461491Y-9446960D02*
X11451967Y-9437436D01*
X11451967Y-9437436D02*
X11442443Y-9418389D01*
X11442443Y-9418389D02*
X11432920Y-9380293D01*
X11432920Y-9380293D02*
X11432920Y-9332674D01*
X11432920Y-9332674D02*
X11442443Y-9294579D01*
X11442443Y-9294579D02*
X11451967Y-9275531D01*
X11451967Y-9275531D02*
X11461491Y-9266008D01*
X11461491Y-9266008D02*
X11480539Y-9256484D01*
X11632920Y-9456484D02*
X11632920Y-9323150D01*
X11632920Y-9342198D02*
X11642443Y-9332674D01*
X11642443Y-9332674D02*
X11661491Y-9323150D01*
X11661491Y-9323150D02*
X11690063Y-9323150D01*
X11690063Y-9323150D02*
X11709110Y-9332674D01*
X11709110Y-9332674D02*
X11718634Y-9351722D01*
X11718634Y-9351722D02*
X11718634Y-9456484D01*
X11718634Y-9351722D02*
X11728158Y-9332674D01*
X11728158Y-9332674D02*
X11747205Y-9323150D01*
X11747205Y-9323150D02*
X11775777Y-9323150D01*
X11775777Y-9323150D02*
X11794824Y-9332674D01*
X11794824Y-9332674D02*
X11804348Y-9351722D01*
X11804348Y-9351722D02*
X11804348Y-9456484D01*
X11899586Y-9456484D02*
X11899586Y-9323150D01*
X11899586Y-9342198D02*
X11909110Y-9332674D01*
X11909110Y-9332674D02*
X11928158Y-9323150D01*
X11928158Y-9323150D02*
X11956729Y-9323150D01*
X11956729Y-9323150D02*
X11975777Y-9332674D01*
X11975777Y-9332674D02*
X11985301Y-9351722D01*
X11985301Y-9351722D02*
X11985301Y-9456484D01*
X11985301Y-9351722D02*
X11994824Y-9332674D01*
X11994824Y-9332674D02*
X12013872Y-9323150D01*
X12013872Y-9323150D02*
X12042443Y-9323150D01*
X12042443Y-9323150D02*
X12061491Y-9332674D01*
X12061491Y-9332674D02*
X12071015Y-9351722D01*
X12071015Y-9351722D02*
X12071015Y-9456484D01*
X12461491Y-9246960D02*
X12290063Y-9504103D01*
X12718634Y-9256484D02*
X12737682Y-9256484D01*
X12737682Y-9256484D02*
X12756729Y-9266008D01*
X12756729Y-9266008D02*
X12766253Y-9275531D01*
X12766253Y-9275531D02*
X12775777Y-9294579D01*
X12775777Y-9294579D02*
X12785301Y-9332674D01*
X12785301Y-9332674D02*
X12785301Y-9380293D01*
X12785301Y-9380293D02*
X12775777Y-9418389D01*
X12775777Y-9418389D02*
X12766253Y-9437436D01*
X12766253Y-9437436D02*
X12756729Y-9446960D01*
X12756729Y-9446960D02*
X12737682Y-9456484D01*
X12737682Y-9456484D02*
X12718634Y-9456484D01*
X12718634Y-9456484D02*
X12699586Y-9446960D01*
X12699586Y-9446960D02*
X12690063Y-9437436D01*
X12690063Y-9437436D02*
X12680539Y-9418389D01*
X12680539Y-9418389D02*
X12671015Y-9380293D01*
X12671015Y-9380293D02*
X12671015Y-9332674D01*
X12671015Y-9332674D02*
X12680539Y-9294579D01*
X12680539Y-9294579D02*
X12690063Y-9275531D01*
X12690063Y-9275531D02*
X12699586Y-9266008D01*
X12699586Y-9266008D02*
X12718634Y-9256484D01*
X12871015Y-9437436D02*
X12880539Y-9446960D01*
X12880539Y-9446960D02*
X12871015Y-9456484D01*
X12871015Y-9456484D02*
X12861491Y-9446960D01*
X12861491Y-9446960D02*
X12871015Y-9437436D01*
X12871015Y-9437436D02*
X12871015Y-9456484D01*
X13004348Y-9256484D02*
X13023396Y-9256484D01*
X13023396Y-9256484D02*
X13042444Y-9266008D01*
X13042444Y-9266008D02*
X13051967Y-9275531D01*
X13051967Y-9275531D02*
X13061491Y-9294579D01*
X13061491Y-9294579D02*
X13071015Y-9332674D01*
X13071015Y-9332674D02*
X13071015Y-9380293D01*
X13071015Y-9380293D02*
X13061491Y-9418389D01*
X13061491Y-9418389D02*
X13051967Y-9437436D01*
X13051967Y-9437436D02*
X13042444Y-9446960D01*
X13042444Y-9446960D02*
X13023396Y-9456484D01*
X13023396Y-9456484D02*
X13004348Y-9456484D01*
X13004348Y-9456484D02*
X12985301Y-9446960D01*
X12985301Y-9446960D02*
X12975777Y-9437436D01*
X12975777Y-9437436D02*
X12966253Y-9418389D01*
X12966253Y-9418389D02*
X12956729Y-9380293D01*
X12956729Y-9380293D02*
X12956729Y-9332674D01*
X12956729Y-9332674D02*
X12966253Y-9294579D01*
X12966253Y-9294579D02*
X12975777Y-9275531D01*
X12975777Y-9275531D02*
X12985301Y-9266008D01*
X12985301Y-9266008D02*
X13004348Y-9256484D01*
X13147206Y-9275531D02*
X13156729Y-9266008D01*
X13156729Y-9266008D02*
X13175777Y-9256484D01*
X13175777Y-9256484D02*
X13223396Y-9256484D01*
X13223396Y-9256484D02*
X13242444Y-9266008D01*
X13242444Y-9266008D02*
X13251967Y-9275531D01*
X13251967Y-9275531D02*
X13261491Y-9294579D01*
X13261491Y-9294579D02*
X13261491Y-9313627D01*
X13261491Y-9313627D02*
X13251967Y-9342198D01*
X13251967Y-9342198D02*
X13137682Y-9456484D01*
X13137682Y-9456484D02*
X13261491Y-9456484D01*
X13442444Y-9256484D02*
X13347206Y-9256484D01*
X13347206Y-9256484D02*
X13337682Y-9351722D01*
X13337682Y-9351722D02*
X13347206Y-9342198D01*
X13347206Y-9342198D02*
X13366253Y-9332674D01*
X13366253Y-9332674D02*
X13413872Y-9332674D01*
X13413872Y-9332674D02*
X13432920Y-9342198D01*
X13432920Y-9342198D02*
X13442444Y-9351722D01*
X13442444Y-9351722D02*
X13451967Y-9370770D01*
X13451967Y-9370770D02*
X13451967Y-9418389D01*
X13451967Y-9418389D02*
X13442444Y-9437436D01*
X13442444Y-9437436D02*
X13432920Y-9446960D01*
X13432920Y-9446960D02*
X13413872Y-9456484D01*
X13413872Y-9456484D02*
X13366253Y-9456484D01*
X13366253Y-9456484D02*
X13347206Y-9446960D01*
X13347206Y-9446960D02*
X13337682Y-9437436D01*
X13623396Y-9256484D02*
X13585301Y-9256484D01*
X13585301Y-9256484D02*
X13566253Y-9266008D01*
X13566253Y-9266008D02*
X13556729Y-9275531D01*
X13556729Y-9275531D02*
X13537682Y-9304103D01*
X13537682Y-9304103D02*
X13528158Y-9342198D01*
X13528158Y-9342198D02*
X13528158Y-9418389D01*
X13528158Y-9418389D02*
X13537682Y-9437436D01*
X13537682Y-9437436D02*
X13547206Y-9446960D01*
X13547206Y-9446960D02*
X13566253Y-9456484D01*
X13566253Y-9456484D02*
X13604348Y-9456484D01*
X13604348Y-9456484D02*
X13623396Y-9446960D01*
X13623396Y-9446960D02*
X13632920Y-9437436D01*
X13632920Y-9437436D02*
X13642444Y-9418389D01*
X13642444Y-9418389D02*
X13642444Y-9370770D01*
X13642444Y-9370770D02*
X13632920Y-9351722D01*
X13632920Y-9351722D02*
X13623396Y-9342198D01*
X13623396Y-9342198D02*
X13604348Y-9332674D01*
X13604348Y-9332674D02*
X13566253Y-9332674D01*
X13566253Y-9332674D02*
X13547206Y-9342198D01*
X13547206Y-9342198D02*
X13537682Y-9351722D01*
X13537682Y-9351722D02*
X13528158Y-9370770D01*
X13718634Y-9256484D02*
X13718634Y-9294579D01*
X13794825Y-9256484D02*
X13794825Y-9294579D01*
X14090063Y-9532674D02*
X14080539Y-9523150D01*
X14080539Y-9523150D02*
X14061491Y-9494579D01*
X14061491Y-9494579D02*
X14051968Y-9475531D01*
X14051968Y-9475531D02*
X14042444Y-9446960D01*
X14042444Y-9446960D02*
X14032920Y-9399341D01*
X14032920Y-9399341D02*
X14032920Y-9361246D01*
X14032920Y-9361246D02*
X14042444Y-9313627D01*
X14042444Y-9313627D02*
X14051968Y-9285055D01*
X14051968Y-9285055D02*
X14061491Y-9266008D01*
X14061491Y-9266008D02*
X14080539Y-9237436D01*
X14080539Y-9237436D02*
X14090063Y-9227912D01*
X14156729Y-9275531D02*
X14166253Y-9266008D01*
X14166253Y-9266008D02*
X14185301Y-9256484D01*
X14185301Y-9256484D02*
X14232920Y-9256484D01*
X14232920Y-9256484D02*
X14251968Y-9266008D01*
X14251968Y-9266008D02*
X14261491Y-9275531D01*
X14261491Y-9275531D02*
X14271015Y-9294579D01*
X14271015Y-9294579D02*
X14271015Y-9313627D01*
X14271015Y-9313627D02*
X14261491Y-9342198D01*
X14261491Y-9342198D02*
X14147206Y-9456484D01*
X14147206Y-9456484D02*
X14271015Y-9456484D01*
X14509110Y-9456484D02*
X14509110Y-9256484D01*
X14594825Y-9456484D02*
X14594825Y-9351722D01*
X14594825Y-9351722D02*
X14585301Y-9332674D01*
X14585301Y-9332674D02*
X14566253Y-9323150D01*
X14566253Y-9323150D02*
X14537682Y-9323150D01*
X14537682Y-9323150D02*
X14518634Y-9332674D01*
X14518634Y-9332674D02*
X14509110Y-9342198D01*
X14718634Y-9456484D02*
X14699587Y-9446960D01*
X14699587Y-9446960D02*
X14690063Y-9437436D01*
X14690063Y-9437436D02*
X14680539Y-9418389D01*
X14680539Y-9418389D02*
X14680539Y-9361246D01*
X14680539Y-9361246D02*
X14690063Y-9342198D01*
X14690063Y-9342198D02*
X14699587Y-9332674D01*
X14699587Y-9332674D02*
X14718634Y-9323150D01*
X14718634Y-9323150D02*
X14747206Y-9323150D01*
X14747206Y-9323150D02*
X14766253Y-9332674D01*
X14766253Y-9332674D02*
X14775777Y-9342198D01*
X14775777Y-9342198D02*
X14785301Y-9361246D01*
X14785301Y-9361246D02*
X14785301Y-9418389D01*
X14785301Y-9418389D02*
X14775777Y-9437436D01*
X14775777Y-9437436D02*
X14766253Y-9446960D01*
X14766253Y-9446960D02*
X14747206Y-9456484D01*
X14747206Y-9456484D02*
X14718634Y-9456484D01*
X14899587Y-9456484D02*
X14880539Y-9446960D01*
X14880539Y-9446960D02*
X14871015Y-9427912D01*
X14871015Y-9427912D02*
X14871015Y-9256484D01*
X15051968Y-9446960D02*
X15032920Y-9456484D01*
X15032920Y-9456484D02*
X14994825Y-9456484D01*
X14994825Y-9456484D02*
X14975777Y-9446960D01*
X14975777Y-9446960D02*
X14966253Y-9427912D01*
X14966253Y-9427912D02*
X14966253Y-9351722D01*
X14966253Y-9351722D02*
X14975777Y-9332674D01*
X14975777Y-9332674D02*
X14994825Y-9323150D01*
X14994825Y-9323150D02*
X15032920Y-9323150D01*
X15032920Y-9323150D02*
X15051968Y-9332674D01*
X15051968Y-9332674D02*
X15061491Y-9351722D01*
X15061491Y-9351722D02*
X15061491Y-9370770D01*
X15061491Y-9370770D02*
X14966253Y-9389817D01*
X15137682Y-9446960D02*
X15156730Y-9456484D01*
X15156730Y-9456484D02*
X15194825Y-9456484D01*
X15194825Y-9456484D02*
X15213872Y-9446960D01*
X15213872Y-9446960D02*
X15223396Y-9427912D01*
X15223396Y-9427912D02*
X15223396Y-9418389D01*
X15223396Y-9418389D02*
X15213872Y-9399341D01*
X15213872Y-9399341D02*
X15194825Y-9389817D01*
X15194825Y-9389817D02*
X15166253Y-9389817D01*
X15166253Y-9389817D02*
X15147206Y-9380293D01*
X15147206Y-9380293D02*
X15137682Y-9361246D01*
X15137682Y-9361246D02*
X15137682Y-9351722D01*
X15137682Y-9351722D02*
X15147206Y-9332674D01*
X15147206Y-9332674D02*
X15166253Y-9323150D01*
X15166253Y-9323150D02*
X15194825Y-9323150D01*
X15194825Y-9323150D02*
X15213872Y-9332674D01*
X15290063Y-9532674D02*
X15299587Y-9523150D01*
X15299587Y-9523150D02*
X15318634Y-9494579D01*
X15318634Y-9494579D02*
X15328158Y-9475531D01*
X15328158Y-9475531D02*
X15337682Y-9446960D01*
X15337682Y-9446960D02*
X15347206Y-9399341D01*
X15347206Y-9399341D02*
X15347206Y-9361246D01*
X15347206Y-9361246D02*
X15337682Y-9313627D01*
X15337682Y-9313627D02*
X15328158Y-9285055D01*
X15328158Y-9285055D02*
X15318634Y-9266008D01*
X15318634Y-9266008D02*
X15299587Y-9237436D01*
X15299587Y-9237436D02*
X15290063Y-9227912D01*
X15651968Y-9532674D02*
X15642444Y-9523150D01*
X15642444Y-9523150D02*
X15623396Y-9494579D01*
X15623396Y-9494579D02*
X15613872Y-9475531D01*
X15613872Y-9475531D02*
X15604349Y-9446960D01*
X15604349Y-9446960D02*
X15594825Y-9399341D01*
X15594825Y-9399341D02*
X15594825Y-9361246D01*
X15594825Y-9361246D02*
X15604349Y-9313627D01*
X15604349Y-9313627D02*
X15613872Y-9285055D01*
X15613872Y-9285055D02*
X15623396Y-9266008D01*
X15623396Y-9266008D02*
X15642444Y-9237436D01*
X15642444Y-9237436D02*
X15651968Y-9227912D01*
X15728158Y-9323150D02*
X15728158Y-9456484D01*
X15728158Y-9342198D02*
X15737682Y-9332674D01*
X15737682Y-9332674D02*
X15756730Y-9323150D01*
X15756730Y-9323150D02*
X15785301Y-9323150D01*
X15785301Y-9323150D02*
X15804349Y-9332674D01*
X15804349Y-9332674D02*
X15813872Y-9351722D01*
X15813872Y-9351722D02*
X15813872Y-9456484D01*
X15937682Y-9456484D02*
X15918634Y-9446960D01*
X15918634Y-9446960D02*
X15909111Y-9437436D01*
X15909111Y-9437436D02*
X15899587Y-9418389D01*
X15899587Y-9418389D02*
X15899587Y-9361246D01*
X15899587Y-9361246D02*
X15909111Y-9342198D01*
X15909111Y-9342198D02*
X15918634Y-9332674D01*
X15918634Y-9332674D02*
X15937682Y-9323150D01*
X15937682Y-9323150D02*
X15966253Y-9323150D01*
X15966253Y-9323150D02*
X15985301Y-9332674D01*
X15985301Y-9332674D02*
X15994825Y-9342198D01*
X15994825Y-9342198D02*
X16004349Y-9361246D01*
X16004349Y-9361246D02*
X16004349Y-9418389D01*
X16004349Y-9418389D02*
X15994825Y-9437436D01*
X15994825Y-9437436D02*
X15985301Y-9446960D01*
X15985301Y-9446960D02*
X15966253Y-9456484D01*
X15966253Y-9456484D02*
X15937682Y-9456484D01*
X16061492Y-9323150D02*
X16137682Y-9323150D01*
X16090063Y-9256484D02*
X16090063Y-9427912D01*
X16090063Y-9427912D02*
X16099587Y-9446960D01*
X16099587Y-9446960D02*
X16118634Y-9456484D01*
X16118634Y-9456484D02*
X16137682Y-9456484D01*
X16356730Y-9323150D02*
X16356730Y-9523150D01*
X16356730Y-9332674D02*
X16375777Y-9323150D01*
X16375777Y-9323150D02*
X16413873Y-9323150D01*
X16413873Y-9323150D02*
X16432920Y-9332674D01*
X16432920Y-9332674D02*
X16442444Y-9342198D01*
X16442444Y-9342198D02*
X16451968Y-9361246D01*
X16451968Y-9361246D02*
X16451968Y-9418389D01*
X16451968Y-9418389D02*
X16442444Y-9437436D01*
X16442444Y-9437436D02*
X16432920Y-9446960D01*
X16432920Y-9446960D02*
X16413873Y-9456484D01*
X16413873Y-9456484D02*
X16375777Y-9456484D01*
X16375777Y-9456484D02*
X16356730Y-9446960D01*
X16566253Y-9456484D02*
X16547206Y-9446960D01*
X16547206Y-9446960D02*
X16537682Y-9427912D01*
X16537682Y-9427912D02*
X16537682Y-9256484D01*
X16728158Y-9456484D02*
X16728158Y-9351722D01*
X16728158Y-9351722D02*
X16718634Y-9332674D01*
X16718634Y-9332674D02*
X16699587Y-9323150D01*
X16699587Y-9323150D02*
X16661492Y-9323150D01*
X16661492Y-9323150D02*
X16642444Y-9332674D01*
X16728158Y-9446960D02*
X16709111Y-9456484D01*
X16709111Y-9456484D02*
X16661492Y-9456484D01*
X16661492Y-9456484D02*
X16642444Y-9446960D01*
X16642444Y-9446960D02*
X16632920Y-9427912D01*
X16632920Y-9427912D02*
X16632920Y-9408865D01*
X16632920Y-9408865D02*
X16642444Y-9389817D01*
X16642444Y-9389817D02*
X16661492Y-9380293D01*
X16661492Y-9380293D02*
X16709111Y-9380293D01*
X16709111Y-9380293D02*
X16728158Y-9370770D01*
X16794825Y-9323150D02*
X16871015Y-9323150D01*
X16823396Y-9256484D02*
X16823396Y-9427912D01*
X16823396Y-9427912D02*
X16832920Y-9446960D01*
X16832920Y-9446960D02*
X16851968Y-9456484D01*
X16851968Y-9456484D02*
X16871015Y-9456484D01*
X17013873Y-9446960D02*
X16994825Y-9456484D01*
X16994825Y-9456484D02*
X16956730Y-9456484D01*
X16956730Y-9456484D02*
X16937682Y-9446960D01*
X16937682Y-9446960D02*
X16928158Y-9427912D01*
X16928158Y-9427912D02*
X16928158Y-9351722D01*
X16928158Y-9351722D02*
X16937682Y-9332674D01*
X16937682Y-9332674D02*
X16956730Y-9323150D01*
X16956730Y-9323150D02*
X16994825Y-9323150D01*
X16994825Y-9323150D02*
X17013873Y-9332674D01*
X17013873Y-9332674D02*
X17023396Y-9351722D01*
X17023396Y-9351722D02*
X17023396Y-9370770D01*
X17023396Y-9370770D02*
X16928158Y-9389817D01*
X17194825Y-9456484D02*
X17194825Y-9256484D01*
X17194825Y-9446960D02*
X17175777Y-9456484D01*
X17175777Y-9456484D02*
X17137682Y-9456484D01*
X17137682Y-9456484D02*
X17118635Y-9446960D01*
X17118635Y-9446960D02*
X17109111Y-9437436D01*
X17109111Y-9437436D02*
X17099587Y-9418389D01*
X17099587Y-9418389D02*
X17099587Y-9361246D01*
X17099587Y-9361246D02*
X17109111Y-9342198D01*
X17109111Y-9342198D02*
X17118635Y-9332674D01*
X17118635Y-9332674D02*
X17137682Y-9323150D01*
X17137682Y-9323150D02*
X17175777Y-9323150D01*
X17175777Y-9323150D02*
X17194825Y-9332674D01*
X17271016Y-9532674D02*
X17280539Y-9523150D01*
X17280539Y-9523150D02*
X17299587Y-9494579D01*
X17299587Y-9494579D02*
X17309111Y-9475531D01*
X17309111Y-9475531D02*
X17318635Y-9446960D01*
X17318635Y-9446960D02*
X17328158Y-9399341D01*
X17328158Y-9399341D02*
X17328158Y-9361246D01*
X17328158Y-9361246D02*
X17318635Y-9313627D01*
X17318635Y-9313627D02*
X17309111Y-9285055D01*
X17309111Y-9285055D02*
X17299587Y-9266008D01*
X17299587Y-9266008D02*
X17280539Y-9237436D01*
X17280539Y-9237436D02*
X17271016Y-9227912D01*
D13*
X10515000Y-9629000D02*
G75*
G03*
X10515000Y-9629000I-44450J0D01*
G01*
D11*
X10813872Y-9520484D02*
X10832920Y-9520484D01*
X10832920Y-9520484D02*
X10851967Y-9530008D01*
X10851967Y-9530008D02*
X10861491Y-9539531D01*
X10861491Y-9539531D02*
X10871015Y-9558579D01*
X10871015Y-9558579D02*
X10880539Y-9596674D01*
X10880539Y-9596674D02*
X10880539Y-9644293D01*
X10880539Y-9644293D02*
X10871015Y-9682389D01*
X10871015Y-9682389D02*
X10861491Y-9701436D01*
X10861491Y-9701436D02*
X10851967Y-9710960D01*
X10851967Y-9710960D02*
X10832920Y-9720484D01*
X10832920Y-9720484D02*
X10813872Y-9720484D01*
X10813872Y-9720484D02*
X10794824Y-9710960D01*
X10794824Y-9710960D02*
X10785301Y-9701436D01*
X10785301Y-9701436D02*
X10775777Y-9682389D01*
X10775777Y-9682389D02*
X10766253Y-9644293D01*
X10766253Y-9644293D02*
X10766253Y-9596674D01*
X10766253Y-9596674D02*
X10775777Y-9558579D01*
X10775777Y-9558579D02*
X10785301Y-9539531D01*
X10785301Y-9539531D02*
X10794824Y-9530008D01*
X10794824Y-9530008D02*
X10813872Y-9520484D01*
X10966253Y-9701436D02*
X10975777Y-9710960D01*
X10975777Y-9710960D02*
X10966253Y-9720484D01*
X10966253Y-9720484D02*
X10956729Y-9710960D01*
X10956729Y-9710960D02*
X10966253Y-9701436D01*
X10966253Y-9701436D02*
X10966253Y-9720484D01*
X11090063Y-9606198D02*
X11071015Y-9596674D01*
X11071015Y-9596674D02*
X11061491Y-9587150D01*
X11061491Y-9587150D02*
X11051967Y-9568103D01*
X11051967Y-9568103D02*
X11051967Y-9558579D01*
X11051967Y-9558579D02*
X11061491Y-9539531D01*
X11061491Y-9539531D02*
X11071015Y-9530008D01*
X11071015Y-9530008D02*
X11090063Y-9520484D01*
X11090063Y-9520484D02*
X11128158Y-9520484D01*
X11128158Y-9520484D02*
X11147205Y-9530008D01*
X11147205Y-9530008D02*
X11156729Y-9539531D01*
X11156729Y-9539531D02*
X11166253Y-9558579D01*
X11166253Y-9558579D02*
X11166253Y-9568103D01*
X11166253Y-9568103D02*
X11156729Y-9587150D01*
X11156729Y-9587150D02*
X11147205Y-9596674D01*
X11147205Y-9596674D02*
X11128158Y-9606198D01*
X11128158Y-9606198D02*
X11090063Y-9606198D01*
X11090063Y-9606198D02*
X11071015Y-9615722D01*
X11071015Y-9615722D02*
X11061491Y-9625246D01*
X11061491Y-9625246D02*
X11051967Y-9644293D01*
X11051967Y-9644293D02*
X11051967Y-9682389D01*
X11051967Y-9682389D02*
X11061491Y-9701436D01*
X11061491Y-9701436D02*
X11071015Y-9710960D01*
X11071015Y-9710960D02*
X11090063Y-9720484D01*
X11090063Y-9720484D02*
X11128158Y-9720484D01*
X11128158Y-9720484D02*
X11147205Y-9710960D01*
X11147205Y-9710960D02*
X11156729Y-9701436D01*
X11156729Y-9701436D02*
X11166253Y-9682389D01*
X11166253Y-9682389D02*
X11166253Y-9644293D01*
X11166253Y-9644293D02*
X11156729Y-9625246D01*
X11156729Y-9625246D02*
X11147205Y-9615722D01*
X11147205Y-9615722D02*
X11128158Y-9606198D01*
X11280539Y-9606198D02*
X11261491Y-9596674D01*
X11261491Y-9596674D02*
X11251967Y-9587150D01*
X11251967Y-9587150D02*
X11242443Y-9568103D01*
X11242443Y-9568103D02*
X11242443Y-9558579D01*
X11242443Y-9558579D02*
X11251967Y-9539531D01*
X11251967Y-9539531D02*
X11261491Y-9530008D01*
X11261491Y-9530008D02*
X11280539Y-9520484D01*
X11280539Y-9520484D02*
X11318634Y-9520484D01*
X11318634Y-9520484D02*
X11337682Y-9530008D01*
X11337682Y-9530008D02*
X11347205Y-9539531D01*
X11347205Y-9539531D02*
X11356729Y-9558579D01*
X11356729Y-9558579D02*
X11356729Y-9568103D01*
X11356729Y-9568103D02*
X11347205Y-9587150D01*
X11347205Y-9587150D02*
X11337682Y-9596674D01*
X11337682Y-9596674D02*
X11318634Y-9606198D01*
X11318634Y-9606198D02*
X11280539Y-9606198D01*
X11280539Y-9606198D02*
X11261491Y-9615722D01*
X11261491Y-9615722D02*
X11251967Y-9625246D01*
X11251967Y-9625246D02*
X11242443Y-9644293D01*
X11242443Y-9644293D02*
X11242443Y-9682389D01*
X11242443Y-9682389D02*
X11251967Y-9701436D01*
X11251967Y-9701436D02*
X11261491Y-9710960D01*
X11261491Y-9710960D02*
X11280539Y-9720484D01*
X11280539Y-9720484D02*
X11318634Y-9720484D01*
X11318634Y-9720484D02*
X11337682Y-9710960D01*
X11337682Y-9710960D02*
X11347205Y-9701436D01*
X11347205Y-9701436D02*
X11356729Y-9682389D01*
X11356729Y-9682389D02*
X11356729Y-9644293D01*
X11356729Y-9644293D02*
X11347205Y-9625246D01*
X11347205Y-9625246D02*
X11337682Y-9615722D01*
X11337682Y-9615722D02*
X11318634Y-9606198D01*
X11451967Y-9720484D02*
X11490062Y-9720484D01*
X11490062Y-9720484D02*
X11509110Y-9710960D01*
X11509110Y-9710960D02*
X11518634Y-9701436D01*
X11518634Y-9701436D02*
X11537682Y-9672865D01*
X11537682Y-9672865D02*
X11547205Y-9634770D01*
X11547205Y-9634770D02*
X11547205Y-9558579D01*
X11547205Y-9558579D02*
X11537682Y-9539531D01*
X11537682Y-9539531D02*
X11528158Y-9530008D01*
X11528158Y-9530008D02*
X11509110Y-9520484D01*
X11509110Y-9520484D02*
X11471015Y-9520484D01*
X11471015Y-9520484D02*
X11451967Y-9530008D01*
X11451967Y-9530008D02*
X11442443Y-9539531D01*
X11442443Y-9539531D02*
X11432920Y-9558579D01*
X11432920Y-9558579D02*
X11432920Y-9606198D01*
X11432920Y-9606198D02*
X11442443Y-9625246D01*
X11442443Y-9625246D02*
X11451967Y-9634770D01*
X11451967Y-9634770D02*
X11471015Y-9644293D01*
X11471015Y-9644293D02*
X11509110Y-9644293D01*
X11509110Y-9644293D02*
X11528158Y-9634770D01*
X11528158Y-9634770D02*
X11537682Y-9625246D01*
X11537682Y-9625246D02*
X11547205Y-9606198D01*
X11632920Y-9720484D02*
X11632920Y-9587150D01*
X11632920Y-9606198D02*
X11642443Y-9596674D01*
X11642443Y-9596674D02*
X11661491Y-9587150D01*
X11661491Y-9587150D02*
X11690063Y-9587150D01*
X11690063Y-9587150D02*
X11709110Y-9596674D01*
X11709110Y-9596674D02*
X11718634Y-9615722D01*
X11718634Y-9615722D02*
X11718634Y-9720484D01*
X11718634Y-9615722D02*
X11728158Y-9596674D01*
X11728158Y-9596674D02*
X11747205Y-9587150D01*
X11747205Y-9587150D02*
X11775777Y-9587150D01*
X11775777Y-9587150D02*
X11794824Y-9596674D01*
X11794824Y-9596674D02*
X11804348Y-9615722D01*
X11804348Y-9615722D02*
X11804348Y-9720484D01*
X11899586Y-9720484D02*
X11899586Y-9587150D01*
X11899586Y-9606198D02*
X11909110Y-9596674D01*
X11909110Y-9596674D02*
X11928158Y-9587150D01*
X11928158Y-9587150D02*
X11956729Y-9587150D01*
X11956729Y-9587150D02*
X11975777Y-9596674D01*
X11975777Y-9596674D02*
X11985301Y-9615722D01*
X11985301Y-9615722D02*
X11985301Y-9720484D01*
X11985301Y-9615722D02*
X11994824Y-9596674D01*
X11994824Y-9596674D02*
X12013872Y-9587150D01*
X12013872Y-9587150D02*
X12042443Y-9587150D01*
X12042443Y-9587150D02*
X12061491Y-9596674D01*
X12061491Y-9596674D02*
X12071015Y-9615722D01*
X12071015Y-9615722D02*
X12071015Y-9720484D01*
X12461491Y-9510960D02*
X12290063Y-9768103D01*
X12718634Y-9520484D02*
X12737682Y-9520484D01*
X12737682Y-9520484D02*
X12756729Y-9530008D01*
X12756729Y-9530008D02*
X12766253Y-9539531D01*
X12766253Y-9539531D02*
X12775777Y-9558579D01*
X12775777Y-9558579D02*
X12785301Y-9596674D01*
X12785301Y-9596674D02*
X12785301Y-9644293D01*
X12785301Y-9644293D02*
X12775777Y-9682389D01*
X12775777Y-9682389D02*
X12766253Y-9701436D01*
X12766253Y-9701436D02*
X12756729Y-9710960D01*
X12756729Y-9710960D02*
X12737682Y-9720484D01*
X12737682Y-9720484D02*
X12718634Y-9720484D01*
X12718634Y-9720484D02*
X12699586Y-9710960D01*
X12699586Y-9710960D02*
X12690063Y-9701436D01*
X12690063Y-9701436D02*
X12680539Y-9682389D01*
X12680539Y-9682389D02*
X12671015Y-9644293D01*
X12671015Y-9644293D02*
X12671015Y-9596674D01*
X12671015Y-9596674D02*
X12680539Y-9558579D01*
X12680539Y-9558579D02*
X12690063Y-9539531D01*
X12690063Y-9539531D02*
X12699586Y-9530008D01*
X12699586Y-9530008D02*
X12718634Y-9520484D01*
X12871015Y-9701436D02*
X12880539Y-9710960D01*
X12880539Y-9710960D02*
X12871015Y-9720484D01*
X12871015Y-9720484D02*
X12861491Y-9710960D01*
X12861491Y-9710960D02*
X12871015Y-9701436D01*
X12871015Y-9701436D02*
X12871015Y-9720484D01*
X13004348Y-9520484D02*
X13023396Y-9520484D01*
X13023396Y-9520484D02*
X13042444Y-9530008D01*
X13042444Y-9530008D02*
X13051967Y-9539531D01*
X13051967Y-9539531D02*
X13061491Y-9558579D01*
X13061491Y-9558579D02*
X13071015Y-9596674D01*
X13071015Y-9596674D02*
X13071015Y-9644293D01*
X13071015Y-9644293D02*
X13061491Y-9682389D01*
X13061491Y-9682389D02*
X13051967Y-9701436D01*
X13051967Y-9701436D02*
X13042444Y-9710960D01*
X13042444Y-9710960D02*
X13023396Y-9720484D01*
X13023396Y-9720484D02*
X13004348Y-9720484D01*
X13004348Y-9720484D02*
X12985301Y-9710960D01*
X12985301Y-9710960D02*
X12975777Y-9701436D01*
X12975777Y-9701436D02*
X12966253Y-9682389D01*
X12966253Y-9682389D02*
X12956729Y-9644293D01*
X12956729Y-9644293D02*
X12956729Y-9596674D01*
X12956729Y-9596674D02*
X12966253Y-9558579D01*
X12966253Y-9558579D02*
X12975777Y-9539531D01*
X12975777Y-9539531D02*
X12985301Y-9530008D01*
X12985301Y-9530008D02*
X13004348Y-9520484D01*
X13137682Y-9520484D02*
X13261491Y-9520484D01*
X13261491Y-9520484D02*
X13194825Y-9596674D01*
X13194825Y-9596674D02*
X13223396Y-9596674D01*
X13223396Y-9596674D02*
X13242444Y-9606198D01*
X13242444Y-9606198D02*
X13251967Y-9615722D01*
X13251967Y-9615722D02*
X13261491Y-9634770D01*
X13261491Y-9634770D02*
X13261491Y-9682389D01*
X13261491Y-9682389D02*
X13251967Y-9701436D01*
X13251967Y-9701436D02*
X13242444Y-9710960D01*
X13242444Y-9710960D02*
X13223396Y-9720484D01*
X13223396Y-9720484D02*
X13166253Y-9720484D01*
X13166253Y-9720484D02*
X13147206Y-9710960D01*
X13147206Y-9710960D02*
X13137682Y-9701436D01*
X13442444Y-9520484D02*
X13347206Y-9520484D01*
X13347206Y-9520484D02*
X13337682Y-9615722D01*
X13337682Y-9615722D02*
X13347206Y-9606198D01*
X13347206Y-9606198D02*
X13366253Y-9596674D01*
X13366253Y-9596674D02*
X13413872Y-9596674D01*
X13413872Y-9596674D02*
X13432920Y-9606198D01*
X13432920Y-9606198D02*
X13442444Y-9615722D01*
X13442444Y-9615722D02*
X13451967Y-9634770D01*
X13451967Y-9634770D02*
X13451967Y-9682389D01*
X13451967Y-9682389D02*
X13442444Y-9701436D01*
X13442444Y-9701436D02*
X13432920Y-9710960D01*
X13432920Y-9710960D02*
X13413872Y-9720484D01*
X13413872Y-9720484D02*
X13366253Y-9720484D01*
X13366253Y-9720484D02*
X13347206Y-9710960D01*
X13347206Y-9710960D02*
X13337682Y-9701436D01*
X13575777Y-9520484D02*
X13594825Y-9520484D01*
X13594825Y-9520484D02*
X13613872Y-9530008D01*
X13613872Y-9530008D02*
X13623396Y-9539531D01*
X13623396Y-9539531D02*
X13632920Y-9558579D01*
X13632920Y-9558579D02*
X13642444Y-9596674D01*
X13642444Y-9596674D02*
X13642444Y-9644293D01*
X13642444Y-9644293D02*
X13632920Y-9682389D01*
X13632920Y-9682389D02*
X13623396Y-9701436D01*
X13623396Y-9701436D02*
X13613872Y-9710960D01*
X13613872Y-9710960D02*
X13594825Y-9720484D01*
X13594825Y-9720484D02*
X13575777Y-9720484D01*
X13575777Y-9720484D02*
X13556729Y-9710960D01*
X13556729Y-9710960D02*
X13547206Y-9701436D01*
X13547206Y-9701436D02*
X13537682Y-9682389D01*
X13537682Y-9682389D02*
X13528158Y-9644293D01*
X13528158Y-9644293D02*
X13528158Y-9596674D01*
X13528158Y-9596674D02*
X13537682Y-9558579D01*
X13537682Y-9558579D02*
X13547206Y-9539531D01*
X13547206Y-9539531D02*
X13556729Y-9530008D01*
X13556729Y-9530008D02*
X13575777Y-9520484D01*
X13718634Y-9520484D02*
X13718634Y-9558579D01*
X13794825Y-9520484D02*
X13794825Y-9558579D01*
X14090063Y-9796674D02*
X14080539Y-9787150D01*
X14080539Y-9787150D02*
X14061491Y-9758579D01*
X14061491Y-9758579D02*
X14051968Y-9739531D01*
X14051968Y-9739531D02*
X14042444Y-9710960D01*
X14042444Y-9710960D02*
X14032920Y-9663341D01*
X14032920Y-9663341D02*
X14032920Y-9625246D01*
X14032920Y-9625246D02*
X14042444Y-9577627D01*
X14042444Y-9577627D02*
X14051968Y-9549055D01*
X14051968Y-9549055D02*
X14061491Y-9530008D01*
X14061491Y-9530008D02*
X14080539Y-9501436D01*
X14080539Y-9501436D02*
X14090063Y-9491912D01*
X14156729Y-9539531D02*
X14166253Y-9530008D01*
X14166253Y-9530008D02*
X14185301Y-9520484D01*
X14185301Y-9520484D02*
X14232920Y-9520484D01*
X14232920Y-9520484D02*
X14251968Y-9530008D01*
X14251968Y-9530008D02*
X14261491Y-9539531D01*
X14261491Y-9539531D02*
X14271015Y-9558579D01*
X14271015Y-9558579D02*
X14271015Y-9577627D01*
X14271015Y-9577627D02*
X14261491Y-9606198D01*
X14261491Y-9606198D02*
X14147206Y-9720484D01*
X14147206Y-9720484D02*
X14271015Y-9720484D01*
X14509110Y-9720484D02*
X14509110Y-9520484D01*
X14594825Y-9720484D02*
X14594825Y-9615722D01*
X14594825Y-9615722D02*
X14585301Y-9596674D01*
X14585301Y-9596674D02*
X14566253Y-9587150D01*
X14566253Y-9587150D02*
X14537682Y-9587150D01*
X14537682Y-9587150D02*
X14518634Y-9596674D01*
X14518634Y-9596674D02*
X14509110Y-9606198D01*
X14718634Y-9720484D02*
X14699587Y-9710960D01*
X14699587Y-9710960D02*
X14690063Y-9701436D01*
X14690063Y-9701436D02*
X14680539Y-9682389D01*
X14680539Y-9682389D02*
X14680539Y-9625246D01*
X14680539Y-9625246D02*
X14690063Y-9606198D01*
X14690063Y-9606198D02*
X14699587Y-9596674D01*
X14699587Y-9596674D02*
X14718634Y-9587150D01*
X14718634Y-9587150D02*
X14747206Y-9587150D01*
X14747206Y-9587150D02*
X14766253Y-9596674D01*
X14766253Y-9596674D02*
X14775777Y-9606198D01*
X14775777Y-9606198D02*
X14785301Y-9625246D01*
X14785301Y-9625246D02*
X14785301Y-9682389D01*
X14785301Y-9682389D02*
X14775777Y-9701436D01*
X14775777Y-9701436D02*
X14766253Y-9710960D01*
X14766253Y-9710960D02*
X14747206Y-9720484D01*
X14747206Y-9720484D02*
X14718634Y-9720484D01*
X14899587Y-9720484D02*
X14880539Y-9710960D01*
X14880539Y-9710960D02*
X14871015Y-9691912D01*
X14871015Y-9691912D02*
X14871015Y-9520484D01*
X15051968Y-9710960D02*
X15032920Y-9720484D01*
X15032920Y-9720484D02*
X14994825Y-9720484D01*
X14994825Y-9720484D02*
X14975777Y-9710960D01*
X14975777Y-9710960D02*
X14966253Y-9691912D01*
X14966253Y-9691912D02*
X14966253Y-9615722D01*
X14966253Y-9615722D02*
X14975777Y-9596674D01*
X14975777Y-9596674D02*
X14994825Y-9587150D01*
X14994825Y-9587150D02*
X15032920Y-9587150D01*
X15032920Y-9587150D02*
X15051968Y-9596674D01*
X15051968Y-9596674D02*
X15061491Y-9615722D01*
X15061491Y-9615722D02*
X15061491Y-9634770D01*
X15061491Y-9634770D02*
X14966253Y-9653817D01*
X15137682Y-9710960D02*
X15156730Y-9720484D01*
X15156730Y-9720484D02*
X15194825Y-9720484D01*
X15194825Y-9720484D02*
X15213872Y-9710960D01*
X15213872Y-9710960D02*
X15223396Y-9691912D01*
X15223396Y-9691912D02*
X15223396Y-9682389D01*
X15223396Y-9682389D02*
X15213872Y-9663341D01*
X15213872Y-9663341D02*
X15194825Y-9653817D01*
X15194825Y-9653817D02*
X15166253Y-9653817D01*
X15166253Y-9653817D02*
X15147206Y-9644293D01*
X15147206Y-9644293D02*
X15137682Y-9625246D01*
X15137682Y-9625246D02*
X15137682Y-9615722D01*
X15137682Y-9615722D02*
X15147206Y-9596674D01*
X15147206Y-9596674D02*
X15166253Y-9587150D01*
X15166253Y-9587150D02*
X15194825Y-9587150D01*
X15194825Y-9587150D02*
X15213872Y-9596674D01*
X15290063Y-9796674D02*
X15299587Y-9787150D01*
X15299587Y-9787150D02*
X15318634Y-9758579D01*
X15318634Y-9758579D02*
X15328158Y-9739531D01*
X15328158Y-9739531D02*
X15337682Y-9710960D01*
X15337682Y-9710960D02*
X15347206Y-9663341D01*
X15347206Y-9663341D02*
X15347206Y-9625246D01*
X15347206Y-9625246D02*
X15337682Y-9577627D01*
X15337682Y-9577627D02*
X15328158Y-9549055D01*
X15328158Y-9549055D02*
X15318634Y-9530008D01*
X15318634Y-9530008D02*
X15299587Y-9501436D01*
X15299587Y-9501436D02*
X15290063Y-9491912D01*
X15651968Y-9796674D02*
X15642444Y-9787150D01*
X15642444Y-9787150D02*
X15623396Y-9758579D01*
X15623396Y-9758579D02*
X15613872Y-9739531D01*
X15613872Y-9739531D02*
X15604349Y-9710960D01*
X15604349Y-9710960D02*
X15594825Y-9663341D01*
X15594825Y-9663341D02*
X15594825Y-9625246D01*
X15594825Y-9625246D02*
X15604349Y-9577627D01*
X15604349Y-9577627D02*
X15613872Y-9549055D01*
X15613872Y-9549055D02*
X15623396Y-9530008D01*
X15623396Y-9530008D02*
X15642444Y-9501436D01*
X15642444Y-9501436D02*
X15651968Y-9491912D01*
X15728158Y-9587150D02*
X15728158Y-9720484D01*
X15728158Y-9606198D02*
X15737682Y-9596674D01*
X15737682Y-9596674D02*
X15756730Y-9587150D01*
X15756730Y-9587150D02*
X15785301Y-9587150D01*
X15785301Y-9587150D02*
X15804349Y-9596674D01*
X15804349Y-9596674D02*
X15813872Y-9615722D01*
X15813872Y-9615722D02*
X15813872Y-9720484D01*
X15937682Y-9720484D02*
X15918634Y-9710960D01*
X15918634Y-9710960D02*
X15909111Y-9701436D01*
X15909111Y-9701436D02*
X15899587Y-9682389D01*
X15899587Y-9682389D02*
X15899587Y-9625246D01*
X15899587Y-9625246D02*
X15909111Y-9606198D01*
X15909111Y-9606198D02*
X15918634Y-9596674D01*
X15918634Y-9596674D02*
X15937682Y-9587150D01*
X15937682Y-9587150D02*
X15966253Y-9587150D01*
X15966253Y-9587150D02*
X15985301Y-9596674D01*
X15985301Y-9596674D02*
X15994825Y-9606198D01*
X15994825Y-9606198D02*
X16004349Y-9625246D01*
X16004349Y-9625246D02*
X16004349Y-9682389D01*
X16004349Y-9682389D02*
X15994825Y-9701436D01*
X15994825Y-9701436D02*
X15985301Y-9710960D01*
X15985301Y-9710960D02*
X15966253Y-9720484D01*
X15966253Y-9720484D02*
X15937682Y-9720484D01*
X16061492Y-9587150D02*
X16137682Y-9587150D01*
X16090063Y-9520484D02*
X16090063Y-9691912D01*
X16090063Y-9691912D02*
X16099587Y-9710960D01*
X16099587Y-9710960D02*
X16118634Y-9720484D01*
X16118634Y-9720484D02*
X16137682Y-9720484D01*
X16356730Y-9587150D02*
X16356730Y-9787150D01*
X16356730Y-9596674D02*
X16375777Y-9587150D01*
X16375777Y-9587150D02*
X16413873Y-9587150D01*
X16413873Y-9587150D02*
X16432920Y-9596674D01*
X16432920Y-9596674D02*
X16442444Y-9606198D01*
X16442444Y-9606198D02*
X16451968Y-9625246D01*
X16451968Y-9625246D02*
X16451968Y-9682389D01*
X16451968Y-9682389D02*
X16442444Y-9701436D01*
X16442444Y-9701436D02*
X16432920Y-9710960D01*
X16432920Y-9710960D02*
X16413873Y-9720484D01*
X16413873Y-9720484D02*
X16375777Y-9720484D01*
X16375777Y-9720484D02*
X16356730Y-9710960D01*
X16566253Y-9720484D02*
X16547206Y-9710960D01*
X16547206Y-9710960D02*
X16537682Y-9691912D01*
X16537682Y-9691912D02*
X16537682Y-9520484D01*
X16728158Y-9720484D02*
X16728158Y-9615722D01*
X16728158Y-9615722D02*
X16718634Y-9596674D01*
X16718634Y-9596674D02*
X16699587Y-9587150D01*
X16699587Y-9587150D02*
X16661492Y-9587150D01*
X16661492Y-9587150D02*
X16642444Y-9596674D01*
X16728158Y-9710960D02*
X16709111Y-9720484D01*
X16709111Y-9720484D02*
X16661492Y-9720484D01*
X16661492Y-9720484D02*
X16642444Y-9710960D01*
X16642444Y-9710960D02*
X16632920Y-9691912D01*
X16632920Y-9691912D02*
X16632920Y-9672865D01*
X16632920Y-9672865D02*
X16642444Y-9653817D01*
X16642444Y-9653817D02*
X16661492Y-9644293D01*
X16661492Y-9644293D02*
X16709111Y-9644293D01*
X16709111Y-9644293D02*
X16728158Y-9634770D01*
X16794825Y-9587150D02*
X16871015Y-9587150D01*
X16823396Y-9520484D02*
X16823396Y-9691912D01*
X16823396Y-9691912D02*
X16832920Y-9710960D01*
X16832920Y-9710960D02*
X16851968Y-9720484D01*
X16851968Y-9720484D02*
X16871015Y-9720484D01*
X17013873Y-9710960D02*
X16994825Y-9720484D01*
X16994825Y-9720484D02*
X16956730Y-9720484D01*
X16956730Y-9720484D02*
X16937682Y-9710960D01*
X16937682Y-9710960D02*
X16928158Y-9691912D01*
X16928158Y-9691912D02*
X16928158Y-9615722D01*
X16928158Y-9615722D02*
X16937682Y-9596674D01*
X16937682Y-9596674D02*
X16956730Y-9587150D01*
X16956730Y-9587150D02*
X16994825Y-9587150D01*
X16994825Y-9587150D02*
X17013873Y-9596674D01*
X17013873Y-9596674D02*
X17023396Y-9615722D01*
X17023396Y-9615722D02*
X17023396Y-9634770D01*
X17023396Y-9634770D02*
X16928158Y-9653817D01*
X17194825Y-9720484D02*
X17194825Y-9520484D01*
X17194825Y-9710960D02*
X17175777Y-9720484D01*
X17175777Y-9720484D02*
X17137682Y-9720484D01*
X17137682Y-9720484D02*
X17118635Y-9710960D01*
X17118635Y-9710960D02*
X17109111Y-9701436D01*
X17109111Y-9701436D02*
X17099587Y-9682389D01*
X17099587Y-9682389D02*
X17099587Y-9625246D01*
X17099587Y-9625246D02*
X17109111Y-9606198D01*
X17109111Y-9606198D02*
X17118635Y-9596674D01*
X17118635Y-9596674D02*
X17137682Y-9587150D01*
X17137682Y-9587150D02*
X17175777Y-9587150D01*
X17175777Y-9587150D02*
X17194825Y-9596674D01*
X17271016Y-9796674D02*
X17280539Y-9787150D01*
X17280539Y-9787150D02*
X17299587Y-9758579D01*
X17299587Y-9758579D02*
X17309111Y-9739531D01*
X17309111Y-9739531D02*
X17318635Y-9710960D01*
X17318635Y-9710960D02*
X17328158Y-9663341D01*
X17328158Y-9663341D02*
X17328158Y-9625246D01*
X17328158Y-9625246D02*
X17318635Y-9577627D01*
X17318635Y-9577627D02*
X17309111Y-9549055D01*
X17309111Y-9549055D02*
X17299587Y-9530008D01*
X17299587Y-9530008D02*
X17280539Y-9501436D01*
X17280539Y-9501436D02*
X17271016Y-9491912D01*
M02*
