M48
; DRILL file {KiCad 7.0.5-0} date 2024 February 02, Friday 13:20:01
; FORMAT={-:-/ absolute / metric / decimal}
; #@! TF.CreationDate,2024-02-02T13:20:01-05:00
; #@! TF.GenerationSoftware,Kicad,Pcbnew,7.0.5-0
; #@! TF.FileFunction,Plated,1,4,PTH
FMAT,2
METRIC
; #@! TA.AperFunction,Plated,PTH,ViaDrill
T1C0.300
; #@! TA.AperFunction,Plated,PTH,ComponentDrill
T2C0.350
; #@! TA.AperFunction,Plated,PTH,ViaDrill
T3C0.400
; #@! TA.AperFunction,Plated,PTH,ViaDrill
T4C0.450
; #@! TA.AperFunction,Plated,PTH,ViaDrill
T5C0.600
; #@! TA.AperFunction,Plated,PTH,ComponentDrill
T6C0.600
; #@! TA.AperFunction,Plated,PTH,ViaDrill
T7C0.850
; #@! TA.AperFunction,Plated,PTH,ComponentDrill
T8C1.000
; #@! TA.AperFunction,Plated,PTH,ComponentDrill
T9C1.900
; #@! TA.AperFunction,Plated,PTH,ComponentDrill
T10C2.200
%
G90
G05
T1
X106.3Y-53.6
X109.467Y-53.6
X112.145Y-70.348
X112.245Y-67.348
X112.633Y-53.6
X112.9Y-55.5
X114.3Y-54.5
X114.4Y-81.625
X114.73Y-77.64
X115.54Y-64.38
X115.8Y-53.6
X116.12Y-63.65
X116.3Y-51.9
X116.5Y-50.0
X116.825Y-79.0
X117.3Y-48.7
X117.45Y-78.975
X117.5Y-43.1
X117.637Y-72.4
X117.7Y-46.5
X117.7Y-50.0
X117.78Y-69.22
X117.78Y-71.02
X117.79Y-67.82
X117.82Y-68.48
X118.075Y-78.975
X118.33Y-64.65
X118.35Y-75.05
X118.9Y-44.3
X119.03Y-66.35
X119.1Y-48.024
X119.52Y-64.66
X120.27Y-73.11
X120.34Y-70.39
X120.5Y-43.1
X120.7Y-46.5
X121.06Y-68.69
X121.15Y-80.25
X121.83Y-69.15
X121.9Y-44.3
X122.1Y-48.024
X122.305Y-57.86
X122.78Y-57.185
X123.5Y-43.1
X123.7Y-46.5
X124.366Y-75.571
X124.9Y-44.3
X124.9Y-56.2
X125.005Y-53.66
X125.1Y-48.024
X125.49Y-58.04
X126.23Y-51.435
X126.28Y-60.38
X126.5Y-43.1
X126.66Y-63.47
X126.7Y-46.5
X126.8Y-70.8
X126.98Y-73.216
X127.0Y-60.53
X127.07Y-74.43
X127.1Y-59.79
X127.3Y-70.3
X127.505Y-56.2
X127.53Y-53.66
X127.6Y-72.1
X127.705Y-51.41
X127.85Y-66.12
X127.9Y-44.3
X127.9Y-71.5
X127.92Y-49.59
X128.03Y-50.53
X128.04Y-73.33
X128.1Y-48.024
X128.11Y-64.73
X128.405Y-51.535
X128.67Y-77.24
X128.7Y-64.34
X129.32Y-51.53
X129.4Y-61.0
X129.44Y-60.378
X129.5Y-43.1
X129.7Y-46.5
X129.7Y-61.527
X129.78Y-57.16
X129.912Y-49.298
X130.18Y-60.03
X130.28Y-57.86
X130.69Y-71.72
X130.8Y-73.22
X130.9Y-44.3
X131.1Y-48.024
X131.12Y-60.53
X131.19Y-64.21
X131.232Y-69.308
X131.48Y-57.79
X131.98Y-61.57
X132.0Y-75.1
X132.076Y-64.182
X132.46Y-71.53
X132.5Y-43.1
X132.515Y-69.345
X132.66Y-49.36
X132.664Y-62.034
X132.7Y-46.5
X132.86Y-67.85
X133.16Y-62.55
X133.27Y-83.34
X133.473Y-56.417
X133.56Y-70.29
X133.9Y-44.3
X133.99Y-61.55
X134.1Y-48.024
X134.57Y-62.07
X134.8Y-64.2
X134.8Y-65.28
X134.8Y-72.84
X135.45Y-85.31
X135.46Y-82.97
X135.46Y-84.17
X135.47Y-86.42
X135.5Y-70.0
X135.7Y-46.5
X135.8Y-75.2
X135.858Y-66.082
X136.09Y-61.6
X136.113Y-55.017
X136.2Y-69.9
X136.26Y-82.12
X136.3Y-77.5
X136.5Y-63.75
X136.86Y-61.52
X136.94Y-50.06
X137.1Y-48.024
X137.13Y-81.17
X137.2Y-75.5
X137.67Y-49.44
X137.8Y-75.0
X138.07Y-80.23
X138.26Y-63.78
X138.31Y-83.95
X138.31Y-84.86
X138.323Y-55.087
X138.33Y-85.67
X138.39Y-86.58
X138.403Y-60.227
X138.42Y-83.01
X138.62Y-65.55
X138.77Y-82.25
X138.8Y-75.1
X138.81Y-66.8
X138.91Y-45.09
X138.92Y-48.59
X138.93Y-79.45
X139.19Y-81.63
X139.253Y-60.327
X139.63Y-81.1
X139.713Y-55.707
X139.77Y-66.72
X139.77Y-78.65
X139.9Y-69.8
X139.923Y-57.547
X140.1Y-77.41
X140.13Y-80.68
X140.3Y-70.5
X140.47Y-45.05
X140.49Y-82.66
X140.58Y-76.52
X140.6Y-67.8
X140.66Y-80.19
X140.73Y-86.51
X140.75Y-48.5
X140.76Y-83.45
X140.79Y-84.26
X140.83Y-85.1
X140.83Y-85.77
X141.04Y-82.21
X141.06Y-70.95
X141.18Y-79.65
X141.5Y-76.25
X141.54Y-81.7
X141.75Y-45.0
X141.8Y-79.02
X142.02Y-48.6
X142.1Y-81.11
X142.33Y-76.3
X142.47Y-78.37
X142.64Y-80.49
X143.15Y-79.93
X143.4Y-76.24
X143.4Y-78.1
X143.57Y-48.61
X143.75Y-45.09
X143.8Y-79.9
X144.3Y-78.1
X144.4Y-76.25
X144.7Y-79.9
X145.11Y-52.07
X145.2Y-78.1
X145.3Y-75.8
X145.45Y-48.2
X145.5Y-79.9
X146.3Y-75.8
X147.4Y-75.8
X148.5Y-75.8
X149.4Y-49.36
X149.5Y-75.8
X150.5Y-75.8
X150.98Y-52.61
X151.12Y-54.33
X151.5Y-75.8
T2
X129.105Y-65.573
X129.105Y-66.848
X129.105Y-68.123
X130.38Y-65.573
X130.38Y-66.848
X130.38Y-68.123
X131.655Y-65.573
X131.655Y-66.848
X131.655Y-68.123
T3
X128.0Y-61.9
X137.68Y-71.8
X141.25Y-56.75
X142.5Y-57.0
T4
X108.12Y-67.348
X108.12Y-70.348
X115.025Y-76.525
X117.005Y-67.825
X117.005Y-68.555
X117.015Y-69.295
X118.59Y-61.97
X118.6Y-62.79
X118.61Y-63.64
X119.61Y-61.96
X119.66Y-62.81
X119.66Y-63.64
X122.31Y-56.44
X122.325Y-51.355
X123.175Y-51.355
X129.66Y-56.28
X129.68Y-55.36
X131.04Y-54.55
X133.195Y-54.775
X136.085Y-49.425
X136.533Y-57.832
X137.958Y-57.807
X139.703Y-54.832
X141.073Y-50.497
X142.043Y-50.652
X146.03Y-61.34
X146.04Y-62.25
X146.04Y-63.18
X146.06Y-57.38
X146.08Y-55.37
X146.09Y-56.4
X146.95Y-58.37
X147.05Y-60.1
X147.81Y-58.37
X147.84Y-60.12
X148.45Y-64.02
X148.72Y-61.34
X148.88Y-57.16
X149.45Y-62.02
X149.57Y-56.6
X150.22Y-57.2
X150.26Y-61.31
T5
X114.695Y-74.425
X125.55Y-79.98
X128.05Y-79.58
X133.93Y-60.62
T7
X141.088Y-65.152
T8
X109.205Y-50.223
X109.205Y-61.223
X149.2Y-67.16
X149.2Y-69.7
X149.2Y-72.24
T9
X119.205Y-53.223
X119.205Y-58.223
T10
X108.225Y-84.2
X149.225Y-45.2
X149.225Y-84.2
T6
X109.12Y-64.278G85X108.32Y-64.278
G05
X109.12Y-72.918G85X108.32Y-72.918
G05
X113.45Y-64.278G85X112.35Y-64.278
G05
X113.45Y-72.918G85X112.35Y-72.918
G05
T0
M30
