%TF.GenerationSoftware,KiCad,Pcbnew,7.0.5-0*%
%TF.CreationDate,2024-02-18T18:21:39-05:00*%
%TF.ProjectId,BITSv5,42495453-7635-42e6-9b69-6361645f7063,2*%
%TF.SameCoordinates,Original*%
%TF.FileFunction,Legend,Top*%
%TF.FilePolarity,Positive*%
%FSLAX46Y46*%
G04 Gerber Fmt 4.6, Leading zero omitted, Abs format (unit mm)*
G04 Created by KiCad (PCBNEW 7.0.5-0) date 2024-02-18 18:21:39*
%MOMM*%
%LPD*%
G01*
G04 APERTURE LIST*
G04 Aperture macros list*
%AMRoundRect*
0 Rectangle with rounded corners*
0 $1 Rounding radius*
0 $2 $3 $4 $5 $6 $7 $8 $9 X,Y pos of 4 corners*
0 Add a 4 corners polygon primitive as box body*
4,1,4,$2,$3,$4,$5,$6,$7,$8,$9,$2,$3,0*
0 Add four circle primitives for the rounded corners*
1,1,$1+$1,$2,$3*
1,1,$1+$1,$4,$5*
1,1,$1+$1,$6,$7*
1,1,$1+$1,$8,$9*
0 Add four rect primitives between the rounded corners*
20,1,$1+$1,$2,$3,$4,$5,0*
20,1,$1+$1,$4,$5,$6,$7,0*
20,1,$1+$1,$6,$7,$8,$9,0*
20,1,$1+$1,$8,$9,$2,$3,0*%
G04 Aperture macros list end*
%ADD10C,0.150000*%
%ADD11C,0.120000*%
%ADD12C,0.125000*%
%ADD13C,0.152400*%
%ADD14C,0.127000*%
%ADD15C,0.200000*%
%ADD16C,0.250000*%
%ADD17C,0.000100*%
%ADD18C,0.182463*%
%ADD19C,0.002645*%
%ADD20RoundRect,0.200000X0.200000X0.275000X-0.200000X0.275000X-0.200000X-0.275000X0.200000X-0.275000X0*%
%ADD21RoundRect,0.225000X-0.225000X-0.250000X0.225000X-0.250000X0.225000X0.250000X-0.225000X0.250000X0*%
%ADD22RoundRect,0.140000X0.140000X0.170000X-0.140000X0.170000X-0.140000X-0.170000X0.140000X-0.170000X0*%
%ADD23C,0.889000*%
%ADD24R,1.193800X1.397000*%
%ADD25RoundRect,0.050000X0.050000X-0.387500X0.050000X0.387500X-0.050000X0.387500X-0.050000X-0.387500X0*%
%ADD26RoundRect,0.050000X0.387500X-0.050000X0.387500X0.050000X-0.387500X0.050000X-0.387500X-0.050000X0*%
%ADD27RoundRect,0.144000X1.456000X-1.456000X1.456000X1.456000X-1.456000X1.456000X-1.456000X-1.456000X0*%
%ADD28RoundRect,0.200000X0.053033X-0.335876X0.335876X-0.053033X-0.053033X0.335876X-0.335876X0.053033X0*%
%ADD29R,0.972299X0.558000*%
%ADD30RoundRect,0.102000X-2.050000X-0.850000X2.050000X-0.850000X2.050000X0.850000X-2.050000X0.850000X0*%
%ADD31RoundRect,0.200000X-0.275000X0.200000X-0.275000X-0.200000X0.275000X-0.200000X0.275000X0.200000X0*%
%ADD32RoundRect,0.250000X-0.475000X0.250000X-0.475000X-0.250000X0.475000X-0.250000X0.475000X0.250000X0*%
%ADD33RoundRect,0.135000X0.135000X0.185000X-0.135000X0.185000X-0.135000X-0.185000X0.135000X-0.185000X0*%
%ADD34C,4.400000*%
%ADD35RoundRect,0.200000X0.275000X-0.200000X0.275000X0.200000X-0.275000X0.200000X-0.275000X-0.200000X0*%
%ADD36C,2.000000*%
%ADD37RoundRect,0.200000X0.335876X0.053033X0.053033X0.335876X-0.335876X-0.053033X-0.053033X-0.335876X0*%
%ADD38C,0.650000*%
%ADD39R,1.150000X0.600000*%
%ADD40R,1.150000X0.300000*%
%ADD41O,2.100000X1.000000*%
%ADD42O,1.800000X1.000000*%
%ADD43C,1.400000*%
%ADD44R,3.500000X3.500000*%
%ADD45C,3.500000*%
%ADD46RoundRect,0.140000X0.170000X-0.140000X0.170000X0.140000X-0.170000X0.140000X-0.170000X-0.140000X0*%
%ADD47RoundRect,0.150000X-0.512500X-0.150000X0.512500X-0.150000X0.512500X0.150000X-0.512500X0.150000X0*%
%ADD48RoundRect,0.250000X-0.325000X-0.650000X0.325000X-0.650000X0.325000X0.650000X-0.325000X0.650000X0*%
%ADD49RoundRect,0.250000X0.475000X-0.250000X0.475000X0.250000X-0.475000X0.250000X-0.475000X-0.250000X0*%
%ADD50R,0.399999X1.050000*%
%ADD51R,0.599999X0.200000*%
%ADD52R,0.475000X1.200000*%
%ADD53R,0.349999X1.200000*%
%ADD54R,2.150001X1.599999*%
%ADD55R,0.900001X0.349999*%
%ADD56R,1.500000X0.300000*%
%ADD57C,0.499999*%
%ADD58RoundRect,0.140000X-0.170000X0.140000X-0.170000X-0.140000X0.170000X-0.140000X0.170000X0.140000X0*%
%ADD59R,0.550000X0.950000*%
%ADD60RoundRect,0.225000X0.225000X0.250000X-0.225000X0.250000X-0.225000X-0.250000X0.225000X-0.250000X0*%
%ADD61R,0.900000X1.000000*%
%ADD62R,0.811200X1.406398*%
%ADD63RoundRect,0.250000X0.650000X-0.325000X0.650000X0.325000X-0.650000X0.325000X-0.650000X-0.325000X0*%
%ADD64RoundRect,0.140000X-0.140000X-0.170000X0.140000X-0.170000X0.140000X0.170000X-0.140000X0.170000X0*%
%ADD65R,1.000000X1.150000*%
%ADD66RoundRect,0.225000X-0.250000X0.225000X-0.250000X-0.225000X0.250000X-0.225000X0.250000X0.225000X0*%
%ADD67RoundRect,0.225000X0.250000X-0.225000X0.250000X0.225000X-0.250000X0.225000X-0.250000X-0.225000X0*%
%ADD68R,0.449999X0.299999*%
%ADD69R,1.000000X1.599999*%
%ADD70R,1.700000X1.700000*%
%ADD71O,1.700000X1.700000*%
%ADD72RoundRect,0.250000X-1.075000X0.375000X-1.075000X-0.375000X1.075000X-0.375000X1.075000X0.375000X0*%
%ADD73RoundRect,0.200000X-0.335876X-0.053033X-0.053033X-0.335876X0.335876X0.053033X0.053033X0.335876X0*%
%ADD74RoundRect,0.200000X-0.200000X-0.275000X0.200000X-0.275000X0.200000X0.275000X-0.200000X0.275000X0*%
%ADD75RoundRect,0.135000X-0.135000X-0.185000X0.135000X-0.185000X0.135000X0.185000X-0.135000X0.185000X0*%
%ADD76RoundRect,0.225000X-0.309574X-0.131488X0.098265X-0.321666X0.309574X0.131488X-0.098265X0.321666X0*%
%ADD77RoundRect,0.200000X-0.053033X0.335876X-0.335876X0.053033X0.053033X-0.335876X0.335876X-0.053033X0*%
%ADD78RoundRect,0.200000X-0.200000X-0.600000X0.200000X-0.600000X0.200000X0.600000X-0.200000X0.600000X0*%
%ADD79RoundRect,0.250001X-0.799999X-1.249999X0.799999X-1.249999X0.799999X1.249999X-0.799999X1.249999X0*%
%ADD80RoundRect,0.218750X0.218750X0.256250X-0.218750X0.256250X-0.218750X-0.256250X0.218750X-0.256250X0*%
%ADD81RoundRect,0.250000X1.075000X-0.375000X1.075000X0.375000X-1.075000X0.375000X-1.075000X-0.375000X0*%
%ADD82RoundRect,0.250000X-0.300000X-0.300000X0.300000X-0.300000X0.300000X0.300000X-0.300000X0.300000X0*%
%ADD83R,1.000000X1.000000*%
%ADD84R,1.050000X2.200000*%
%ADD85RoundRect,0.237500X-0.250000X-0.237500X0.250000X-0.237500X0.250000X0.237500X-0.250000X0.237500X0*%
%ADD86C,0.404000*%
%ADD87RoundRect,0.237500X0.250000X0.237500X-0.250000X0.237500X-0.250000X-0.237500X0.250000X-0.237500X0*%
%ADD88R,0.431800X0.965200*%
%ADD89R,4.343400X3.454400*%
%ADD90RoundRect,0.250000X-0.650000X0.325000X-0.650000X-0.325000X0.650000X-0.325000X0.650000X0.325000X0*%
%ADD91RoundRect,0.175000X0.175000X-0.725000X0.175000X0.725000X-0.175000X0.725000X-0.175000X-0.725000X0*%
%ADD92RoundRect,0.200000X0.200000X-0.700000X0.200000X0.700000X-0.200000X0.700000X-0.200000X-0.700000X0*%
G04 APERTURE END LIST*
D10*
X139301316Y-44599942D02*
X139201316Y-44564228D01*
X139201316Y-44564228D02*
X139167982Y-44528514D01*
X139167982Y-44528514D02*
X139134649Y-44457085D01*
X139134649Y-44457085D02*
X139134649Y-44349942D01*
X139134649Y-44349942D02*
X139167982Y-44278514D01*
X139167982Y-44278514D02*
X139201316Y-44242800D01*
X139201316Y-44242800D02*
X139267982Y-44207085D01*
X139267982Y-44207085D02*
X139534649Y-44207085D01*
X139534649Y-44207085D02*
X139534649Y-44957085D01*
X139534649Y-44957085D02*
X139301316Y-44957085D01*
X139301316Y-44957085D02*
X139234649Y-44921371D01*
X139234649Y-44921371D02*
X139201316Y-44885657D01*
X139201316Y-44885657D02*
X139167982Y-44814228D01*
X139167982Y-44814228D02*
X139167982Y-44742800D01*
X139167982Y-44742800D02*
X139201316Y-44671371D01*
X139201316Y-44671371D02*
X139234649Y-44635657D01*
X139234649Y-44635657D02*
X139301316Y-44599942D01*
X139301316Y-44599942D02*
X139534649Y-44599942D01*
X138834649Y-44207085D02*
X138834649Y-44957085D01*
X138601316Y-44957085D02*
X138201316Y-44957085D01*
X138401316Y-44207085D02*
X138401316Y-44957085D01*
X138001316Y-44242800D02*
X137901316Y-44207085D01*
X137901316Y-44207085D02*
X137734650Y-44207085D01*
X137734650Y-44207085D02*
X137667983Y-44242800D01*
X137667983Y-44242800D02*
X137634650Y-44278514D01*
X137634650Y-44278514D02*
X137601316Y-44349942D01*
X137601316Y-44349942D02*
X137601316Y-44421371D01*
X137601316Y-44421371D02*
X137634650Y-44492800D01*
X137634650Y-44492800D02*
X137667983Y-44528514D01*
X137667983Y-44528514D02*
X137734650Y-44564228D01*
X137734650Y-44564228D02*
X137867983Y-44599942D01*
X137867983Y-44599942D02*
X137934650Y-44635657D01*
X137934650Y-44635657D02*
X137967983Y-44671371D01*
X137967983Y-44671371D02*
X138001316Y-44742800D01*
X138001316Y-44742800D02*
X138001316Y-44814228D01*
X138001316Y-44814228D02*
X137967983Y-44885657D01*
X137967983Y-44885657D02*
X137934650Y-44921371D01*
X137934650Y-44921371D02*
X137867983Y-44957085D01*
X137867983Y-44957085D02*
X137701316Y-44957085D01*
X137701316Y-44957085D02*
X137601316Y-44921371D01*
X137367983Y-44707085D02*
X137201316Y-44207085D01*
X137201316Y-44207085D02*
X137034649Y-44707085D01*
X136434650Y-44957085D02*
X136767983Y-44957085D01*
X136767983Y-44957085D02*
X136801316Y-44599942D01*
X136801316Y-44599942D02*
X136767983Y-44635657D01*
X136767983Y-44635657D02*
X136701316Y-44671371D01*
X136701316Y-44671371D02*
X136534650Y-44671371D01*
X136534650Y-44671371D02*
X136467983Y-44635657D01*
X136467983Y-44635657D02*
X136434650Y-44599942D01*
X136434650Y-44599942D02*
X136401316Y-44528514D01*
X136401316Y-44528514D02*
X136401316Y-44349942D01*
X136401316Y-44349942D02*
X136434650Y-44278514D01*
X136434650Y-44278514D02*
X136467983Y-44242800D01*
X136467983Y-44242800D02*
X136534650Y-44207085D01*
X136534650Y-44207085D02*
X136701316Y-44207085D01*
X136701316Y-44207085D02*
X136767983Y-44242800D01*
X136767983Y-44242800D02*
X136801316Y-44278514D01*
X136101316Y-44278514D02*
X136067983Y-44242800D01*
X136067983Y-44242800D02*
X136101316Y-44207085D01*
X136101316Y-44207085D02*
X136134649Y-44242800D01*
X136134649Y-44242800D02*
X136101316Y-44278514D01*
X136101316Y-44278514D02*
X136101316Y-44207085D01*
X135801316Y-44885657D02*
X135767983Y-44921371D01*
X135767983Y-44921371D02*
X135701316Y-44957085D01*
X135701316Y-44957085D02*
X135534650Y-44957085D01*
X135534650Y-44957085D02*
X135467983Y-44921371D01*
X135467983Y-44921371D02*
X135434650Y-44885657D01*
X135434650Y-44885657D02*
X135401316Y-44814228D01*
X135401316Y-44814228D02*
X135401316Y-44742800D01*
X135401316Y-44742800D02*
X135434650Y-44635657D01*
X135434650Y-44635657D02*
X135834650Y-44207085D01*
X135834650Y-44207085D02*
X135401316Y-44207085D01*
X139401316Y-43749585D02*
X139334649Y-43749585D01*
X139334649Y-43749585D02*
X139267982Y-43713871D01*
X139267982Y-43713871D02*
X139234649Y-43678157D01*
X139234649Y-43678157D02*
X139201316Y-43606728D01*
X139201316Y-43606728D02*
X139167982Y-43463871D01*
X139167982Y-43463871D02*
X139167982Y-43285300D01*
X139167982Y-43285300D02*
X139201316Y-43142442D01*
X139201316Y-43142442D02*
X139234649Y-43071014D01*
X139234649Y-43071014D02*
X139267982Y-43035300D01*
X139267982Y-43035300D02*
X139334649Y-42999585D01*
X139334649Y-42999585D02*
X139401316Y-42999585D01*
X139401316Y-42999585D02*
X139467982Y-43035300D01*
X139467982Y-43035300D02*
X139501316Y-43071014D01*
X139501316Y-43071014D02*
X139534649Y-43142442D01*
X139534649Y-43142442D02*
X139567982Y-43285300D01*
X139567982Y-43285300D02*
X139567982Y-43463871D01*
X139567982Y-43463871D02*
X139534649Y-43606728D01*
X139534649Y-43606728D02*
X139501316Y-43678157D01*
X139501316Y-43678157D02*
X139467982Y-43713871D01*
X139467982Y-43713871D02*
X139401316Y-43749585D01*
X138901315Y-43678157D02*
X138867982Y-43713871D01*
X138867982Y-43713871D02*
X138801315Y-43749585D01*
X138801315Y-43749585D02*
X138634649Y-43749585D01*
X138634649Y-43749585D02*
X138567982Y-43713871D01*
X138567982Y-43713871D02*
X138534649Y-43678157D01*
X138534649Y-43678157D02*
X138501315Y-43606728D01*
X138501315Y-43606728D02*
X138501315Y-43535300D01*
X138501315Y-43535300D02*
X138534649Y-43428157D01*
X138534649Y-43428157D02*
X138934649Y-42999585D01*
X138934649Y-42999585D02*
X138501315Y-42999585D01*
X137701315Y-43785300D02*
X138301315Y-42821014D01*
X137501315Y-43678157D02*
X137467982Y-43713871D01*
X137467982Y-43713871D02*
X137401315Y-43749585D01*
X137401315Y-43749585D02*
X137234649Y-43749585D01*
X137234649Y-43749585D02*
X137167982Y-43713871D01*
X137167982Y-43713871D02*
X137134649Y-43678157D01*
X137134649Y-43678157D02*
X137101315Y-43606728D01*
X137101315Y-43606728D02*
X137101315Y-43535300D01*
X137101315Y-43535300D02*
X137134649Y-43428157D01*
X137134649Y-43428157D02*
X137534649Y-42999585D01*
X137534649Y-42999585D02*
X137101315Y-42999585D01*
X136667982Y-43749585D02*
X136601315Y-43749585D01*
X136601315Y-43749585D02*
X136534648Y-43713871D01*
X136534648Y-43713871D02*
X136501315Y-43678157D01*
X136501315Y-43678157D02*
X136467982Y-43606728D01*
X136467982Y-43606728D02*
X136434648Y-43463871D01*
X136434648Y-43463871D02*
X136434648Y-43285300D01*
X136434648Y-43285300D02*
X136467982Y-43142442D01*
X136467982Y-43142442D02*
X136501315Y-43071014D01*
X136501315Y-43071014D02*
X136534648Y-43035300D01*
X136534648Y-43035300D02*
X136601315Y-42999585D01*
X136601315Y-42999585D02*
X136667982Y-42999585D01*
X136667982Y-42999585D02*
X136734648Y-43035300D01*
X136734648Y-43035300D02*
X136767982Y-43071014D01*
X136767982Y-43071014D02*
X136801315Y-43142442D01*
X136801315Y-43142442D02*
X136834648Y-43285300D01*
X136834648Y-43285300D02*
X136834648Y-43463871D01*
X136834648Y-43463871D02*
X136801315Y-43606728D01*
X136801315Y-43606728D02*
X136767982Y-43678157D01*
X136767982Y-43678157D02*
X136734648Y-43713871D01*
X136734648Y-43713871D02*
X136667982Y-43749585D01*
X136167981Y-43678157D02*
X136134648Y-43713871D01*
X136134648Y-43713871D02*
X136067981Y-43749585D01*
X136067981Y-43749585D02*
X135901315Y-43749585D01*
X135901315Y-43749585D02*
X135834648Y-43713871D01*
X135834648Y-43713871D02*
X135801315Y-43678157D01*
X135801315Y-43678157D02*
X135767981Y-43606728D01*
X135767981Y-43606728D02*
X135767981Y-43535300D01*
X135767981Y-43535300D02*
X135801315Y-43428157D01*
X135801315Y-43428157D02*
X136201315Y-42999585D01*
X136201315Y-42999585D02*
X135767981Y-42999585D01*
X135167981Y-43499585D02*
X135167981Y-42999585D01*
X135334648Y-43785300D02*
X135501314Y-43249585D01*
X135501314Y-43249585D02*
X135067981Y-43249585D01*
D11*
X137851974Y-57828195D02*
X138387688Y-57828195D01*
X138387688Y-57828195D02*
X138494831Y-57863910D01*
X138494831Y-57863910D02*
X138566260Y-57935338D01*
X138566260Y-57935338D02*
X138601974Y-58042481D01*
X138601974Y-58042481D02*
X138601974Y-58113910D01*
X138601974Y-57113909D02*
X138601974Y-57471052D01*
X138601974Y-57471052D02*
X137851974Y-57471052D01*
X138530545Y-56435338D02*
X138566260Y-56471052D01*
X138566260Y-56471052D02*
X138601974Y-56578195D01*
X138601974Y-56578195D02*
X138601974Y-56649623D01*
X138601974Y-56649623D02*
X138566260Y-56756766D01*
X138566260Y-56756766D02*
X138494831Y-56828195D01*
X138494831Y-56828195D02*
X138423402Y-56863909D01*
X138423402Y-56863909D02*
X138280545Y-56899623D01*
X138280545Y-56899623D02*
X138173402Y-56899623D01*
X138173402Y-56899623D02*
X138030545Y-56863909D01*
X138030545Y-56863909D02*
X137959117Y-56828195D01*
X137959117Y-56828195D02*
X137887688Y-56756766D01*
X137887688Y-56756766D02*
X137851974Y-56649623D01*
X137851974Y-56649623D02*
X137851974Y-56578195D01*
X137851974Y-56578195D02*
X137887688Y-56471052D01*
X137887688Y-56471052D02*
X137923402Y-56435338D01*
X137851974Y-55899623D02*
X138387688Y-55899623D01*
X138387688Y-55899623D02*
X138494831Y-55935338D01*
X138494831Y-55935338D02*
X138566260Y-56006766D01*
X138566260Y-56006766D02*
X138601974Y-56113909D01*
X138601974Y-56113909D02*
X138601974Y-56185338D01*
X138601974Y-55185337D02*
X138601974Y-55542480D01*
X138601974Y-55542480D02*
X137851974Y-55542480D01*
X138530545Y-54506766D02*
X138566260Y-54542480D01*
X138566260Y-54542480D02*
X138601974Y-54649623D01*
X138601974Y-54649623D02*
X138601974Y-54721051D01*
X138601974Y-54721051D02*
X138566260Y-54828194D01*
X138566260Y-54828194D02*
X138494831Y-54899623D01*
X138494831Y-54899623D02*
X138423402Y-54935337D01*
X138423402Y-54935337D02*
X138280545Y-54971051D01*
X138280545Y-54971051D02*
X138173402Y-54971051D01*
X138173402Y-54971051D02*
X138030545Y-54935337D01*
X138030545Y-54935337D02*
X137959117Y-54899623D01*
X137959117Y-54899623D02*
X137887688Y-54828194D01*
X137887688Y-54828194D02*
X137851974Y-54721051D01*
X137851974Y-54721051D02*
X137851974Y-54649623D01*
X137851974Y-54649623D02*
X137887688Y-54542480D01*
X137887688Y-54542480D02*
X137923402Y-54506766D01*
X137851974Y-53971051D02*
X138387688Y-53971051D01*
X138387688Y-53971051D02*
X138494831Y-54006766D01*
X138494831Y-54006766D02*
X138566260Y-54078194D01*
X138566260Y-54078194D02*
X138601974Y-54185337D01*
X138601974Y-54185337D02*
X138601974Y-54256766D01*
X138601974Y-53256765D02*
X138601974Y-53613908D01*
X138601974Y-53613908D02*
X137851974Y-53613908D01*
X138530545Y-52578194D02*
X138566260Y-52613908D01*
X138566260Y-52613908D02*
X138601974Y-52721051D01*
X138601974Y-52721051D02*
X138601974Y-52792479D01*
X138601974Y-52792479D02*
X138566260Y-52899622D01*
X138566260Y-52899622D02*
X138494831Y-52971051D01*
X138494831Y-52971051D02*
X138423402Y-53006765D01*
X138423402Y-53006765D02*
X138280545Y-53042479D01*
X138280545Y-53042479D02*
X138173402Y-53042479D01*
X138173402Y-53042479D02*
X138030545Y-53006765D01*
X138030545Y-53006765D02*
X137959117Y-52971051D01*
X137959117Y-52971051D02*
X137887688Y-52899622D01*
X137887688Y-52899622D02*
X137851974Y-52792479D01*
X137851974Y-52792479D02*
X137851974Y-52721051D01*
X137851974Y-52721051D02*
X137887688Y-52613908D01*
X137887688Y-52613908D02*
X137923402Y-52578194D01*
X137851974Y-52042479D02*
X138387688Y-52042479D01*
X138387688Y-52042479D02*
X138494831Y-52078194D01*
X138494831Y-52078194D02*
X138566260Y-52149622D01*
X138566260Y-52149622D02*
X138601974Y-52256765D01*
X138601974Y-52256765D02*
X138601974Y-52328194D01*
X138601974Y-51328193D02*
X138601974Y-51685336D01*
X138601974Y-51685336D02*
X137851974Y-51685336D01*
X138530545Y-50649622D02*
X138566260Y-50685336D01*
X138566260Y-50685336D02*
X138601974Y-50792479D01*
X138601974Y-50792479D02*
X138601974Y-50863907D01*
X138601974Y-50863907D02*
X138566260Y-50971050D01*
X138566260Y-50971050D02*
X138494831Y-51042479D01*
X138494831Y-51042479D02*
X138423402Y-51078193D01*
X138423402Y-51078193D02*
X138280545Y-51113907D01*
X138280545Y-51113907D02*
X138173402Y-51113907D01*
X138173402Y-51113907D02*
X138030545Y-51078193D01*
X138030545Y-51078193D02*
X137959117Y-51042479D01*
X137959117Y-51042479D02*
X137887688Y-50971050D01*
X137887688Y-50971050D02*
X137851974Y-50863907D01*
X137851974Y-50863907D02*
X137851974Y-50792479D01*
X137851974Y-50792479D02*
X137887688Y-50685336D01*
X137887688Y-50685336D02*
X137923402Y-50649622D01*
D10*
X105935714Y-80889164D02*
X106078571Y-80889164D01*
X106078571Y-80889164D02*
X106150000Y-80924878D01*
X106150000Y-80924878D02*
X106221428Y-80996307D01*
X106221428Y-80996307D02*
X106257143Y-81139164D01*
X106257143Y-81139164D02*
X106257143Y-81389164D01*
X106257143Y-81389164D02*
X106221428Y-81532021D01*
X106221428Y-81532021D02*
X106150000Y-81603450D01*
X106150000Y-81603450D02*
X106078571Y-81639164D01*
X106078571Y-81639164D02*
X105935714Y-81639164D01*
X105935714Y-81639164D02*
X105864286Y-81603450D01*
X105864286Y-81603450D02*
X105792857Y-81532021D01*
X105792857Y-81532021D02*
X105757143Y-81389164D01*
X105757143Y-81389164D02*
X105757143Y-81139164D01*
X105757143Y-81139164D02*
X105792857Y-80996307D01*
X105792857Y-80996307D02*
X105864286Y-80924878D01*
X105864286Y-80924878D02*
X105935714Y-80889164D01*
X106578571Y-81639164D02*
X106578571Y-80889164D01*
X106578571Y-80889164D02*
X107007142Y-81639164D01*
X107007142Y-81639164D02*
X107007142Y-80889164D01*
X139334649Y-47957085D02*
X139334649Y-47421371D01*
X139334649Y-47421371D02*
X139367982Y-47314228D01*
X139367982Y-47314228D02*
X139434649Y-47242800D01*
X139434649Y-47242800D02*
X139534649Y-47207085D01*
X139534649Y-47207085D02*
X139601316Y-47207085D01*
X139001316Y-47278514D02*
X138967983Y-47242800D01*
X138967983Y-47242800D02*
X139001316Y-47207085D01*
X139001316Y-47207085D02*
X139034649Y-47242800D01*
X139034649Y-47242800D02*
X139001316Y-47278514D01*
X139001316Y-47278514D02*
X139001316Y-47207085D01*
X137901317Y-47599942D02*
X137801317Y-47564228D01*
X137801317Y-47564228D02*
X137767983Y-47528514D01*
X137767983Y-47528514D02*
X137734650Y-47457085D01*
X137734650Y-47457085D02*
X137734650Y-47349942D01*
X137734650Y-47349942D02*
X137767983Y-47278514D01*
X137767983Y-47278514D02*
X137801317Y-47242800D01*
X137801317Y-47242800D02*
X137867983Y-47207085D01*
X137867983Y-47207085D02*
X138134650Y-47207085D01*
X138134650Y-47207085D02*
X138134650Y-47957085D01*
X138134650Y-47957085D02*
X137901317Y-47957085D01*
X137901317Y-47957085D02*
X137834650Y-47921371D01*
X137834650Y-47921371D02*
X137801317Y-47885657D01*
X137801317Y-47885657D02*
X137767983Y-47814228D01*
X137767983Y-47814228D02*
X137767983Y-47742800D01*
X137767983Y-47742800D02*
X137801317Y-47671371D01*
X137801317Y-47671371D02*
X137834650Y-47635657D01*
X137834650Y-47635657D02*
X137901317Y-47599942D01*
X137901317Y-47599942D02*
X138134650Y-47599942D01*
X137434650Y-47207085D02*
X137434650Y-47707085D01*
X137434650Y-47957085D02*
X137467983Y-47921371D01*
X137467983Y-47921371D02*
X137434650Y-47885657D01*
X137434650Y-47885657D02*
X137401317Y-47921371D01*
X137401317Y-47921371D02*
X137434650Y-47957085D01*
X137434650Y-47957085D02*
X137434650Y-47885657D01*
X137134650Y-47242800D02*
X137067984Y-47207085D01*
X137067984Y-47207085D02*
X136934650Y-47207085D01*
X136934650Y-47207085D02*
X136867984Y-47242800D01*
X136867984Y-47242800D02*
X136834650Y-47314228D01*
X136834650Y-47314228D02*
X136834650Y-47349942D01*
X136834650Y-47349942D02*
X136867984Y-47421371D01*
X136867984Y-47421371D02*
X136934650Y-47457085D01*
X136934650Y-47457085D02*
X137034650Y-47457085D01*
X137034650Y-47457085D02*
X137101317Y-47492800D01*
X137101317Y-47492800D02*
X137134650Y-47564228D01*
X137134650Y-47564228D02*
X137134650Y-47599942D01*
X137134650Y-47599942D02*
X137101317Y-47671371D01*
X137101317Y-47671371D02*
X137034650Y-47707085D01*
X137034650Y-47707085D02*
X136934650Y-47707085D01*
X136934650Y-47707085D02*
X136867984Y-47671371D01*
X136534650Y-47207085D02*
X136534650Y-47957085D01*
X136234650Y-47207085D02*
X136234650Y-47599942D01*
X136234650Y-47599942D02*
X136267983Y-47671371D01*
X136267983Y-47671371D02*
X136334650Y-47707085D01*
X136334650Y-47707085D02*
X136434650Y-47707085D01*
X136434650Y-47707085D02*
X136501317Y-47671371D01*
X136501317Y-47671371D02*
X136534650Y-47635657D01*
X135801317Y-47207085D02*
X135867984Y-47242800D01*
X135867984Y-47242800D02*
X135901317Y-47278514D01*
X135901317Y-47278514D02*
X135934650Y-47349942D01*
X135934650Y-47349942D02*
X135934650Y-47564228D01*
X135934650Y-47564228D02*
X135901317Y-47635657D01*
X135901317Y-47635657D02*
X135867984Y-47671371D01*
X135867984Y-47671371D02*
X135801317Y-47707085D01*
X135801317Y-47707085D02*
X135701317Y-47707085D01*
X135701317Y-47707085D02*
X135634650Y-47671371D01*
X135634650Y-47671371D02*
X135601317Y-47635657D01*
X135601317Y-47635657D02*
X135567984Y-47564228D01*
X135567984Y-47564228D02*
X135567984Y-47349942D01*
X135567984Y-47349942D02*
X135601317Y-47278514D01*
X135601317Y-47278514D02*
X135634650Y-47242800D01*
X135634650Y-47242800D02*
X135701317Y-47207085D01*
X135701317Y-47207085D02*
X135801317Y-47207085D01*
X135267984Y-47707085D02*
X135267984Y-46957085D01*
X135267984Y-47671371D02*
X135201317Y-47707085D01*
X135201317Y-47707085D02*
X135067984Y-47707085D01*
X135067984Y-47707085D02*
X135001317Y-47671371D01*
X135001317Y-47671371D02*
X134967984Y-47635657D01*
X134967984Y-47635657D02*
X134934651Y-47564228D01*
X134934651Y-47564228D02*
X134934651Y-47349942D01*
X134934651Y-47349942D02*
X134967984Y-47278514D01*
X134967984Y-47278514D02*
X135001317Y-47242800D01*
X135001317Y-47242800D02*
X135067984Y-47207085D01*
X135067984Y-47207085D02*
X135201317Y-47207085D01*
X135201317Y-47207085D02*
X135267984Y-47242800D01*
X139534649Y-45999585D02*
X139534649Y-46749585D01*
X139534649Y-46749585D02*
X139301316Y-46213871D01*
X139301316Y-46213871D02*
X139067982Y-46749585D01*
X139067982Y-46749585D02*
X139067982Y-45999585D01*
X138734649Y-46071014D02*
X138701316Y-46035300D01*
X138701316Y-46035300D02*
X138734649Y-45999585D01*
X138734649Y-45999585D02*
X138767982Y-46035300D01*
X138767982Y-46035300D02*
X138734649Y-46071014D01*
X138734649Y-46071014D02*
X138734649Y-45999585D01*
X137901316Y-46035300D02*
X137801316Y-45999585D01*
X137801316Y-45999585D02*
X137634650Y-45999585D01*
X137634650Y-45999585D02*
X137567983Y-46035300D01*
X137567983Y-46035300D02*
X137534650Y-46071014D01*
X137534650Y-46071014D02*
X137501316Y-46142442D01*
X137501316Y-46142442D02*
X137501316Y-46213871D01*
X137501316Y-46213871D02*
X137534650Y-46285300D01*
X137534650Y-46285300D02*
X137567983Y-46321014D01*
X137567983Y-46321014D02*
X137634650Y-46356728D01*
X137634650Y-46356728D02*
X137767983Y-46392442D01*
X137767983Y-46392442D02*
X137834650Y-46428157D01*
X137834650Y-46428157D02*
X137867983Y-46463871D01*
X137867983Y-46463871D02*
X137901316Y-46535300D01*
X137901316Y-46535300D02*
X137901316Y-46606728D01*
X137901316Y-46606728D02*
X137867983Y-46678157D01*
X137867983Y-46678157D02*
X137834650Y-46713871D01*
X137834650Y-46713871D02*
X137767983Y-46749585D01*
X137767983Y-46749585D02*
X137601316Y-46749585D01*
X137601316Y-46749585D02*
X137501316Y-46713871D01*
X137201316Y-45999585D02*
X137201316Y-46749585D01*
X136901316Y-45999585D02*
X136901316Y-46392442D01*
X136901316Y-46392442D02*
X136934649Y-46463871D01*
X136934649Y-46463871D02*
X137001316Y-46499585D01*
X137001316Y-46499585D02*
X137101316Y-46499585D01*
X137101316Y-46499585D02*
X137167983Y-46463871D01*
X137167983Y-46463871D02*
X137201316Y-46428157D01*
X136567983Y-45999585D02*
X136567983Y-46499585D01*
X136567983Y-46749585D02*
X136601316Y-46713871D01*
X136601316Y-46713871D02*
X136567983Y-46678157D01*
X136567983Y-46678157D02*
X136534650Y-46713871D01*
X136534650Y-46713871D02*
X136567983Y-46749585D01*
X136567983Y-46749585D02*
X136567983Y-46678157D01*
X136234650Y-46499585D02*
X136234650Y-45749585D01*
X136234650Y-46463871D02*
X136167983Y-46499585D01*
X136167983Y-46499585D02*
X136034650Y-46499585D01*
X136034650Y-46499585D02*
X135967983Y-46463871D01*
X135967983Y-46463871D02*
X135934650Y-46428157D01*
X135934650Y-46428157D02*
X135901317Y-46356728D01*
X135901317Y-46356728D02*
X135901317Y-46142442D01*
X135901317Y-46142442D02*
X135934650Y-46071014D01*
X135934650Y-46071014D02*
X135967983Y-46035300D01*
X135967983Y-46035300D02*
X136034650Y-45999585D01*
X136034650Y-45999585D02*
X136167983Y-45999585D01*
X136167983Y-45999585D02*
X136234650Y-46035300D01*
X135601317Y-45999585D02*
X135601317Y-46499585D01*
X135601317Y-46428157D02*
X135567984Y-46463871D01*
X135567984Y-46463871D02*
X135501317Y-46499585D01*
X135501317Y-46499585D02*
X135401317Y-46499585D01*
X135401317Y-46499585D02*
X135334650Y-46463871D01*
X135334650Y-46463871D02*
X135301317Y-46392442D01*
X135301317Y-46392442D02*
X135301317Y-45999585D01*
X135301317Y-46392442D02*
X135267984Y-46463871D01*
X135267984Y-46463871D02*
X135201317Y-46499585D01*
X135201317Y-46499585D02*
X135101317Y-46499585D01*
X135101317Y-46499585D02*
X135034650Y-46463871D01*
X135034650Y-46463871D02*
X135001317Y-46392442D01*
X135001317Y-46392442D02*
X135001317Y-45999585D01*
X134367984Y-45999585D02*
X134367984Y-46392442D01*
X134367984Y-46392442D02*
X134401317Y-46463871D01*
X134401317Y-46463871D02*
X134467984Y-46499585D01*
X134467984Y-46499585D02*
X134601317Y-46499585D01*
X134601317Y-46499585D02*
X134667984Y-46463871D01*
X134367984Y-46035300D02*
X134434651Y-45999585D01*
X134434651Y-45999585D02*
X134601317Y-45999585D01*
X134601317Y-45999585D02*
X134667984Y-46035300D01*
X134667984Y-46035300D02*
X134701317Y-46106728D01*
X134701317Y-46106728D02*
X134701317Y-46178157D01*
X134701317Y-46178157D02*
X134667984Y-46249585D01*
X134667984Y-46249585D02*
X134601317Y-46285300D01*
X134601317Y-46285300D02*
X134434651Y-46285300D01*
X134434651Y-46285300D02*
X134367984Y-46321014D01*
X134034651Y-46499585D02*
X134034651Y-45999585D01*
X134034651Y-46428157D02*
X134001318Y-46463871D01*
X134001318Y-46463871D02*
X133934651Y-46499585D01*
X133934651Y-46499585D02*
X133834651Y-46499585D01*
X133834651Y-46499585D02*
X133767984Y-46463871D01*
X133767984Y-46463871D02*
X133734651Y-46392442D01*
X133734651Y-46392442D02*
X133734651Y-45999585D01*
D12*
%TO.C,C17*%
X117377190Y-49121428D02*
X117401000Y-49145237D01*
X117401000Y-49145237D02*
X117424809Y-49216666D01*
X117424809Y-49216666D02*
X117424809Y-49264285D01*
X117424809Y-49264285D02*
X117401000Y-49335713D01*
X117401000Y-49335713D02*
X117353380Y-49383332D01*
X117353380Y-49383332D02*
X117305761Y-49407142D01*
X117305761Y-49407142D02*
X117210523Y-49430951D01*
X117210523Y-49430951D02*
X117139095Y-49430951D01*
X117139095Y-49430951D02*
X117043857Y-49407142D01*
X117043857Y-49407142D02*
X116996238Y-49383332D01*
X116996238Y-49383332D02*
X116948619Y-49335713D01*
X116948619Y-49335713D02*
X116924809Y-49264285D01*
X116924809Y-49264285D02*
X116924809Y-49216666D01*
X116924809Y-49216666D02*
X116948619Y-49145237D01*
X116948619Y-49145237D02*
X116972428Y-49121428D01*
X117424809Y-48645237D02*
X117424809Y-48930951D01*
X117424809Y-48788094D02*
X116924809Y-48788094D01*
X116924809Y-48788094D02*
X116996238Y-48835713D01*
X116996238Y-48835713D02*
X117043857Y-48883332D01*
X117043857Y-48883332D02*
X117067666Y-48930951D01*
X116924809Y-48478571D02*
X116924809Y-48145238D01*
X116924809Y-48145238D02*
X117424809Y-48359523D01*
%TO.C,U10*%
X116780952Y-65924809D02*
X116780952Y-66329571D01*
X116780952Y-66329571D02*
X116804762Y-66377190D01*
X116804762Y-66377190D02*
X116828571Y-66401000D01*
X116828571Y-66401000D02*
X116876190Y-66424809D01*
X116876190Y-66424809D02*
X116971428Y-66424809D01*
X116971428Y-66424809D02*
X117019047Y-66401000D01*
X117019047Y-66401000D02*
X117042857Y-66377190D01*
X117042857Y-66377190D02*
X117066666Y-66329571D01*
X117066666Y-66329571D02*
X117066666Y-65924809D01*
X117566667Y-66424809D02*
X117280953Y-66424809D01*
X117423810Y-66424809D02*
X117423810Y-65924809D01*
X117423810Y-65924809D02*
X117376191Y-65996238D01*
X117376191Y-65996238D02*
X117328572Y-66043857D01*
X117328572Y-66043857D02*
X117280953Y-66067666D01*
X117876190Y-65924809D02*
X117923809Y-65924809D01*
X117923809Y-65924809D02*
X117971428Y-65948619D01*
X117971428Y-65948619D02*
X117995238Y-65972428D01*
X117995238Y-65972428D02*
X118019047Y-66020047D01*
X118019047Y-66020047D02*
X118042857Y-66115285D01*
X118042857Y-66115285D02*
X118042857Y-66234333D01*
X118042857Y-66234333D02*
X118019047Y-66329571D01*
X118019047Y-66329571D02*
X117995238Y-66377190D01*
X117995238Y-66377190D02*
X117971428Y-66401000D01*
X117971428Y-66401000D02*
X117923809Y-66424809D01*
X117923809Y-66424809D02*
X117876190Y-66424809D01*
X117876190Y-66424809D02*
X117828571Y-66401000D01*
X117828571Y-66401000D02*
X117804762Y-66377190D01*
X117804762Y-66377190D02*
X117780952Y-66329571D01*
X117780952Y-66329571D02*
X117757143Y-66234333D01*
X117757143Y-66234333D02*
X117757143Y-66115285D01*
X117757143Y-66115285D02*
X117780952Y-66020047D01*
X117780952Y-66020047D02*
X117804762Y-65972428D01*
X117804762Y-65972428D02*
X117828571Y-65948619D01*
X117828571Y-65948619D02*
X117876190Y-65924809D01*
%TO.C,BT2*%
X146509523Y-62234333D02*
X146890476Y-62234333D01*
X146699999Y-62424809D02*
X146699999Y-62043857D01*
%TO.C,R24*%
X142124809Y-47121428D02*
X141886714Y-47288094D01*
X142124809Y-47407142D02*
X141624809Y-47407142D01*
X141624809Y-47407142D02*
X141624809Y-47216666D01*
X141624809Y-47216666D02*
X141648619Y-47169047D01*
X141648619Y-47169047D02*
X141672428Y-47145237D01*
X141672428Y-47145237D02*
X141720047Y-47121428D01*
X141720047Y-47121428D02*
X141791476Y-47121428D01*
X141791476Y-47121428D02*
X141839095Y-47145237D01*
X141839095Y-47145237D02*
X141862904Y-47169047D01*
X141862904Y-47169047D02*
X141886714Y-47216666D01*
X141886714Y-47216666D02*
X141886714Y-47407142D01*
X141672428Y-46930951D02*
X141648619Y-46907142D01*
X141648619Y-46907142D02*
X141624809Y-46859523D01*
X141624809Y-46859523D02*
X141624809Y-46740475D01*
X141624809Y-46740475D02*
X141648619Y-46692856D01*
X141648619Y-46692856D02*
X141672428Y-46669047D01*
X141672428Y-46669047D02*
X141720047Y-46645237D01*
X141720047Y-46645237D02*
X141767666Y-46645237D01*
X141767666Y-46645237D02*
X141839095Y-46669047D01*
X141839095Y-46669047D02*
X142124809Y-46954761D01*
X142124809Y-46954761D02*
X142124809Y-46645237D01*
X141791476Y-46216666D02*
X142124809Y-46216666D01*
X141601000Y-46335714D02*
X141958142Y-46454761D01*
X141958142Y-46454761D02*
X141958142Y-46145238D01*
%TO.C,R33*%
X119024809Y-46921428D02*
X118786714Y-47088094D01*
X119024809Y-47207142D02*
X118524809Y-47207142D01*
X118524809Y-47207142D02*
X118524809Y-47016666D01*
X118524809Y-47016666D02*
X118548619Y-46969047D01*
X118548619Y-46969047D02*
X118572428Y-46945237D01*
X118572428Y-46945237D02*
X118620047Y-46921428D01*
X118620047Y-46921428D02*
X118691476Y-46921428D01*
X118691476Y-46921428D02*
X118739095Y-46945237D01*
X118739095Y-46945237D02*
X118762904Y-46969047D01*
X118762904Y-46969047D02*
X118786714Y-47016666D01*
X118786714Y-47016666D02*
X118786714Y-47207142D01*
X118524809Y-46754761D02*
X118524809Y-46445237D01*
X118524809Y-46445237D02*
X118715285Y-46611904D01*
X118715285Y-46611904D02*
X118715285Y-46540475D01*
X118715285Y-46540475D02*
X118739095Y-46492856D01*
X118739095Y-46492856D02*
X118762904Y-46469047D01*
X118762904Y-46469047D02*
X118810523Y-46445237D01*
X118810523Y-46445237D02*
X118929571Y-46445237D01*
X118929571Y-46445237D02*
X118977190Y-46469047D01*
X118977190Y-46469047D02*
X119001000Y-46492856D01*
X119001000Y-46492856D02*
X119024809Y-46540475D01*
X119024809Y-46540475D02*
X119024809Y-46683332D01*
X119024809Y-46683332D02*
X119001000Y-46730951D01*
X119001000Y-46730951D02*
X118977190Y-46754761D01*
X118524809Y-46278571D02*
X118524809Y-45969047D01*
X118524809Y-45969047D02*
X118715285Y-46135714D01*
X118715285Y-46135714D02*
X118715285Y-46064285D01*
X118715285Y-46064285D02*
X118739095Y-46016666D01*
X118739095Y-46016666D02*
X118762904Y-45992857D01*
X118762904Y-45992857D02*
X118810523Y-45969047D01*
X118810523Y-45969047D02*
X118929571Y-45969047D01*
X118929571Y-45969047D02*
X118977190Y-45992857D01*
X118977190Y-45992857D02*
X119001000Y-46016666D01*
X119001000Y-46016666D02*
X119024809Y-46064285D01*
X119024809Y-46064285D02*
X119024809Y-46207142D01*
X119024809Y-46207142D02*
X119001000Y-46254761D01*
X119001000Y-46254761D02*
X118977190Y-46278571D01*
%TO.C,TP1*%
X129669048Y-55124809D02*
X129954762Y-55124809D01*
X129811905Y-55624809D02*
X129811905Y-55124809D01*
X130121428Y-55624809D02*
X130121428Y-55124809D01*
X130121428Y-55124809D02*
X130311904Y-55124809D01*
X130311904Y-55124809D02*
X130359523Y-55148619D01*
X130359523Y-55148619D02*
X130383333Y-55172428D01*
X130383333Y-55172428D02*
X130407142Y-55220047D01*
X130407142Y-55220047D02*
X130407142Y-55291476D01*
X130407142Y-55291476D02*
X130383333Y-55339095D01*
X130383333Y-55339095D02*
X130359523Y-55362904D01*
X130359523Y-55362904D02*
X130311904Y-55386714D01*
X130311904Y-55386714D02*
X130121428Y-55386714D01*
X130883333Y-55624809D02*
X130597619Y-55624809D01*
X130740476Y-55624809D02*
X130740476Y-55124809D01*
X130740476Y-55124809D02*
X130692857Y-55196238D01*
X130692857Y-55196238D02*
X130645238Y-55243857D01*
X130645238Y-55243857D02*
X130597619Y-55267666D01*
%TO.C,R32*%
X111224809Y-47021428D02*
X110986714Y-47188094D01*
X111224809Y-47307142D02*
X110724809Y-47307142D01*
X110724809Y-47307142D02*
X110724809Y-47116666D01*
X110724809Y-47116666D02*
X110748619Y-47069047D01*
X110748619Y-47069047D02*
X110772428Y-47045237D01*
X110772428Y-47045237D02*
X110820047Y-47021428D01*
X110820047Y-47021428D02*
X110891476Y-47021428D01*
X110891476Y-47021428D02*
X110939095Y-47045237D01*
X110939095Y-47045237D02*
X110962904Y-47069047D01*
X110962904Y-47069047D02*
X110986714Y-47116666D01*
X110986714Y-47116666D02*
X110986714Y-47307142D01*
X110724809Y-46854761D02*
X110724809Y-46545237D01*
X110724809Y-46545237D02*
X110915285Y-46711904D01*
X110915285Y-46711904D02*
X110915285Y-46640475D01*
X110915285Y-46640475D02*
X110939095Y-46592856D01*
X110939095Y-46592856D02*
X110962904Y-46569047D01*
X110962904Y-46569047D02*
X111010523Y-46545237D01*
X111010523Y-46545237D02*
X111129571Y-46545237D01*
X111129571Y-46545237D02*
X111177190Y-46569047D01*
X111177190Y-46569047D02*
X111201000Y-46592856D01*
X111201000Y-46592856D02*
X111224809Y-46640475D01*
X111224809Y-46640475D02*
X111224809Y-46783332D01*
X111224809Y-46783332D02*
X111201000Y-46830951D01*
X111201000Y-46830951D02*
X111177190Y-46854761D01*
X110772428Y-46354761D02*
X110748619Y-46330952D01*
X110748619Y-46330952D02*
X110724809Y-46283333D01*
X110724809Y-46283333D02*
X110724809Y-46164285D01*
X110724809Y-46164285D02*
X110748619Y-46116666D01*
X110748619Y-46116666D02*
X110772428Y-46092857D01*
X110772428Y-46092857D02*
X110820047Y-46069047D01*
X110820047Y-46069047D02*
X110867666Y-46069047D01*
X110867666Y-46069047D02*
X110939095Y-46092857D01*
X110939095Y-46092857D02*
X111224809Y-46378571D01*
X111224809Y-46378571D02*
X111224809Y-46069047D01*
D10*
%TO.C,J3*%
X93254819Y-54233333D02*
X93969104Y-54233333D01*
X93969104Y-54233333D02*
X94111961Y-54280952D01*
X94111961Y-54280952D02*
X94207200Y-54376190D01*
X94207200Y-54376190D02*
X94254819Y-54519047D01*
X94254819Y-54519047D02*
X94254819Y-54614285D01*
X93254819Y-53852380D02*
X93254819Y-53233333D01*
X93254819Y-53233333D02*
X93635771Y-53566666D01*
X93635771Y-53566666D02*
X93635771Y-53423809D01*
X93635771Y-53423809D02*
X93683390Y-53328571D01*
X93683390Y-53328571D02*
X93731009Y-53280952D01*
X93731009Y-53280952D02*
X93826247Y-53233333D01*
X93826247Y-53233333D02*
X94064342Y-53233333D01*
X94064342Y-53233333D02*
X94159580Y-53280952D01*
X94159580Y-53280952D02*
X94207200Y-53328571D01*
X94207200Y-53328571D02*
X94254819Y-53423809D01*
X94254819Y-53423809D02*
X94254819Y-53709523D01*
X94254819Y-53709523D02*
X94207200Y-53804761D01*
X94207200Y-53804761D02*
X94159580Y-53852380D01*
X106214700Y-59171428D02*
X106214700Y-58028571D01*
X106786128Y-58599999D02*
X105643271Y-58599999D01*
X108414700Y-48971428D02*
X108414700Y-47828571D01*
D12*
%TO.C,C25*%
X129278571Y-42977190D02*
X129254762Y-43001000D01*
X129254762Y-43001000D02*
X129183333Y-43024809D01*
X129183333Y-43024809D02*
X129135714Y-43024809D01*
X129135714Y-43024809D02*
X129064286Y-43001000D01*
X129064286Y-43001000D02*
X129016667Y-42953380D01*
X129016667Y-42953380D02*
X128992857Y-42905761D01*
X128992857Y-42905761D02*
X128969048Y-42810523D01*
X128969048Y-42810523D02*
X128969048Y-42739095D01*
X128969048Y-42739095D02*
X128992857Y-42643857D01*
X128992857Y-42643857D02*
X129016667Y-42596238D01*
X129016667Y-42596238D02*
X129064286Y-42548619D01*
X129064286Y-42548619D02*
X129135714Y-42524809D01*
X129135714Y-42524809D02*
X129183333Y-42524809D01*
X129183333Y-42524809D02*
X129254762Y-42548619D01*
X129254762Y-42548619D02*
X129278571Y-42572428D01*
X129469048Y-42572428D02*
X129492857Y-42548619D01*
X129492857Y-42548619D02*
X129540476Y-42524809D01*
X129540476Y-42524809D02*
X129659524Y-42524809D01*
X129659524Y-42524809D02*
X129707143Y-42548619D01*
X129707143Y-42548619D02*
X129730952Y-42572428D01*
X129730952Y-42572428D02*
X129754762Y-42620047D01*
X129754762Y-42620047D02*
X129754762Y-42667666D01*
X129754762Y-42667666D02*
X129730952Y-42739095D01*
X129730952Y-42739095D02*
X129445238Y-43024809D01*
X129445238Y-43024809D02*
X129754762Y-43024809D01*
X130207142Y-42524809D02*
X129969047Y-42524809D01*
X129969047Y-42524809D02*
X129945238Y-42762904D01*
X129945238Y-42762904D02*
X129969047Y-42739095D01*
X129969047Y-42739095D02*
X130016666Y-42715285D01*
X130016666Y-42715285D02*
X130135714Y-42715285D01*
X130135714Y-42715285D02*
X130183333Y-42739095D01*
X130183333Y-42739095D02*
X130207142Y-42762904D01*
X130207142Y-42762904D02*
X130230952Y-42810523D01*
X130230952Y-42810523D02*
X130230952Y-42929571D01*
X130230952Y-42929571D02*
X130207142Y-42977190D01*
X130207142Y-42977190D02*
X130183333Y-43001000D01*
X130183333Y-43001000D02*
X130135714Y-43024809D01*
X130135714Y-43024809D02*
X130016666Y-43024809D01*
X130016666Y-43024809D02*
X129969047Y-43001000D01*
X129969047Y-43001000D02*
X129945238Y-42977190D01*
%TO.C,TP6*%
X114269048Y-42524809D02*
X114554762Y-42524809D01*
X114411905Y-43024809D02*
X114411905Y-42524809D01*
X114721428Y-43024809D02*
X114721428Y-42524809D01*
X114721428Y-42524809D02*
X114911904Y-42524809D01*
X114911904Y-42524809D02*
X114959523Y-42548619D01*
X114959523Y-42548619D02*
X114983333Y-42572428D01*
X114983333Y-42572428D02*
X115007142Y-42620047D01*
X115007142Y-42620047D02*
X115007142Y-42691476D01*
X115007142Y-42691476D02*
X114983333Y-42739095D01*
X114983333Y-42739095D02*
X114959523Y-42762904D01*
X114959523Y-42762904D02*
X114911904Y-42786714D01*
X114911904Y-42786714D02*
X114721428Y-42786714D01*
X115435714Y-42524809D02*
X115340476Y-42524809D01*
X115340476Y-42524809D02*
X115292857Y-42548619D01*
X115292857Y-42548619D02*
X115269047Y-42572428D01*
X115269047Y-42572428D02*
X115221428Y-42643857D01*
X115221428Y-42643857D02*
X115197619Y-42739095D01*
X115197619Y-42739095D02*
X115197619Y-42929571D01*
X115197619Y-42929571D02*
X115221428Y-42977190D01*
X115221428Y-42977190D02*
X115245238Y-43001000D01*
X115245238Y-43001000D02*
X115292857Y-43024809D01*
X115292857Y-43024809D02*
X115388095Y-43024809D01*
X115388095Y-43024809D02*
X115435714Y-43001000D01*
X115435714Y-43001000D02*
X115459523Y-42977190D01*
X115459523Y-42977190D02*
X115483333Y-42929571D01*
X115483333Y-42929571D02*
X115483333Y-42810523D01*
X115483333Y-42810523D02*
X115459523Y-42762904D01*
X115459523Y-42762904D02*
X115435714Y-42739095D01*
X115435714Y-42739095D02*
X115388095Y-42715285D01*
X115388095Y-42715285D02*
X115292857Y-42715285D01*
X115292857Y-42715285D02*
X115245238Y-42739095D01*
X115245238Y-42739095D02*
X115221428Y-42762904D01*
X115221428Y-42762904D02*
X115197619Y-42810523D01*
%TO.C,C16*%
X126477190Y-57421428D02*
X126501000Y-57445237D01*
X126501000Y-57445237D02*
X126524809Y-57516666D01*
X126524809Y-57516666D02*
X126524809Y-57564285D01*
X126524809Y-57564285D02*
X126501000Y-57635713D01*
X126501000Y-57635713D02*
X126453380Y-57683332D01*
X126453380Y-57683332D02*
X126405761Y-57707142D01*
X126405761Y-57707142D02*
X126310523Y-57730951D01*
X126310523Y-57730951D02*
X126239095Y-57730951D01*
X126239095Y-57730951D02*
X126143857Y-57707142D01*
X126143857Y-57707142D02*
X126096238Y-57683332D01*
X126096238Y-57683332D02*
X126048619Y-57635713D01*
X126048619Y-57635713D02*
X126024809Y-57564285D01*
X126024809Y-57564285D02*
X126024809Y-57516666D01*
X126024809Y-57516666D02*
X126048619Y-57445237D01*
X126048619Y-57445237D02*
X126072428Y-57421428D01*
X126524809Y-56945237D02*
X126524809Y-57230951D01*
X126524809Y-57088094D02*
X126024809Y-57088094D01*
X126024809Y-57088094D02*
X126096238Y-57135713D01*
X126096238Y-57135713D02*
X126143857Y-57183332D01*
X126143857Y-57183332D02*
X126167666Y-57230951D01*
X126024809Y-56516666D02*
X126024809Y-56611904D01*
X126024809Y-56611904D02*
X126048619Y-56659523D01*
X126048619Y-56659523D02*
X126072428Y-56683333D01*
X126072428Y-56683333D02*
X126143857Y-56730952D01*
X126143857Y-56730952D02*
X126239095Y-56754761D01*
X126239095Y-56754761D02*
X126429571Y-56754761D01*
X126429571Y-56754761D02*
X126477190Y-56730952D01*
X126477190Y-56730952D02*
X126501000Y-56707142D01*
X126501000Y-56707142D02*
X126524809Y-56659523D01*
X126524809Y-56659523D02*
X126524809Y-56564285D01*
X126524809Y-56564285D02*
X126501000Y-56516666D01*
X126501000Y-56516666D02*
X126477190Y-56492857D01*
X126477190Y-56492857D02*
X126429571Y-56469047D01*
X126429571Y-56469047D02*
X126310523Y-56469047D01*
X126310523Y-56469047D02*
X126262904Y-56492857D01*
X126262904Y-56492857D02*
X126239095Y-56516666D01*
X126239095Y-56516666D02*
X126215285Y-56564285D01*
X126215285Y-56564285D02*
X126215285Y-56659523D01*
X126215285Y-56659523D02*
X126239095Y-56707142D01*
X126239095Y-56707142D02*
X126262904Y-56730952D01*
X126262904Y-56730952D02*
X126310523Y-56754761D01*
%TO.C,B1*%
X134462904Y-74402380D02*
X134486714Y-74330952D01*
X134486714Y-74330952D02*
X134510523Y-74307142D01*
X134510523Y-74307142D02*
X134558142Y-74283333D01*
X134558142Y-74283333D02*
X134629571Y-74283333D01*
X134629571Y-74283333D02*
X134677190Y-74307142D01*
X134677190Y-74307142D02*
X134701000Y-74330952D01*
X134701000Y-74330952D02*
X134724809Y-74378571D01*
X134724809Y-74378571D02*
X134724809Y-74569047D01*
X134724809Y-74569047D02*
X134224809Y-74569047D01*
X134224809Y-74569047D02*
X134224809Y-74402380D01*
X134224809Y-74402380D02*
X134248619Y-74354761D01*
X134248619Y-74354761D02*
X134272428Y-74330952D01*
X134272428Y-74330952D02*
X134320047Y-74307142D01*
X134320047Y-74307142D02*
X134367666Y-74307142D01*
X134367666Y-74307142D02*
X134415285Y-74330952D01*
X134415285Y-74330952D02*
X134439095Y-74354761D01*
X134439095Y-74354761D02*
X134462904Y-74402380D01*
X134462904Y-74402380D02*
X134462904Y-74569047D01*
X134724809Y-73807142D02*
X134724809Y-74092856D01*
X134724809Y-73949999D02*
X134224809Y-73949999D01*
X134224809Y-73949999D02*
X134296238Y-73997618D01*
X134296238Y-73997618D02*
X134343857Y-74045237D01*
X134343857Y-74045237D02*
X134367666Y-74092856D01*
%TO.C,C18*%
X117477190Y-51221428D02*
X117501000Y-51245237D01*
X117501000Y-51245237D02*
X117524809Y-51316666D01*
X117524809Y-51316666D02*
X117524809Y-51364285D01*
X117524809Y-51364285D02*
X117501000Y-51435713D01*
X117501000Y-51435713D02*
X117453380Y-51483332D01*
X117453380Y-51483332D02*
X117405761Y-51507142D01*
X117405761Y-51507142D02*
X117310523Y-51530951D01*
X117310523Y-51530951D02*
X117239095Y-51530951D01*
X117239095Y-51530951D02*
X117143857Y-51507142D01*
X117143857Y-51507142D02*
X117096238Y-51483332D01*
X117096238Y-51483332D02*
X117048619Y-51435713D01*
X117048619Y-51435713D02*
X117024809Y-51364285D01*
X117024809Y-51364285D02*
X117024809Y-51316666D01*
X117024809Y-51316666D02*
X117048619Y-51245237D01*
X117048619Y-51245237D02*
X117072428Y-51221428D01*
X117524809Y-50745237D02*
X117524809Y-51030951D01*
X117524809Y-50888094D02*
X117024809Y-50888094D01*
X117024809Y-50888094D02*
X117096238Y-50935713D01*
X117096238Y-50935713D02*
X117143857Y-50983332D01*
X117143857Y-50983332D02*
X117167666Y-51030951D01*
X117239095Y-50459523D02*
X117215285Y-50507142D01*
X117215285Y-50507142D02*
X117191476Y-50530952D01*
X117191476Y-50530952D02*
X117143857Y-50554761D01*
X117143857Y-50554761D02*
X117120047Y-50554761D01*
X117120047Y-50554761D02*
X117072428Y-50530952D01*
X117072428Y-50530952D02*
X117048619Y-50507142D01*
X117048619Y-50507142D02*
X117024809Y-50459523D01*
X117024809Y-50459523D02*
X117024809Y-50364285D01*
X117024809Y-50364285D02*
X117048619Y-50316666D01*
X117048619Y-50316666D02*
X117072428Y-50292857D01*
X117072428Y-50292857D02*
X117120047Y-50269047D01*
X117120047Y-50269047D02*
X117143857Y-50269047D01*
X117143857Y-50269047D02*
X117191476Y-50292857D01*
X117191476Y-50292857D02*
X117215285Y-50316666D01*
X117215285Y-50316666D02*
X117239095Y-50364285D01*
X117239095Y-50364285D02*
X117239095Y-50459523D01*
X117239095Y-50459523D02*
X117262904Y-50507142D01*
X117262904Y-50507142D02*
X117286714Y-50530952D01*
X117286714Y-50530952D02*
X117334333Y-50554761D01*
X117334333Y-50554761D02*
X117429571Y-50554761D01*
X117429571Y-50554761D02*
X117477190Y-50530952D01*
X117477190Y-50530952D02*
X117501000Y-50507142D01*
X117501000Y-50507142D02*
X117524809Y-50459523D01*
X117524809Y-50459523D02*
X117524809Y-50364285D01*
X117524809Y-50364285D02*
X117501000Y-50316666D01*
X117501000Y-50316666D02*
X117477190Y-50292857D01*
X117477190Y-50292857D02*
X117429571Y-50269047D01*
X117429571Y-50269047D02*
X117334333Y-50269047D01*
X117334333Y-50269047D02*
X117286714Y-50292857D01*
X117286714Y-50292857D02*
X117262904Y-50316666D01*
X117262904Y-50316666D02*
X117239095Y-50364285D01*
%TO.C,R11*%
X142724809Y-74421428D02*
X142486714Y-74588094D01*
X142724809Y-74707142D02*
X142224809Y-74707142D01*
X142224809Y-74707142D02*
X142224809Y-74516666D01*
X142224809Y-74516666D02*
X142248619Y-74469047D01*
X142248619Y-74469047D02*
X142272428Y-74445237D01*
X142272428Y-74445237D02*
X142320047Y-74421428D01*
X142320047Y-74421428D02*
X142391476Y-74421428D01*
X142391476Y-74421428D02*
X142439095Y-74445237D01*
X142439095Y-74445237D02*
X142462904Y-74469047D01*
X142462904Y-74469047D02*
X142486714Y-74516666D01*
X142486714Y-74516666D02*
X142486714Y-74707142D01*
X142724809Y-73945237D02*
X142724809Y-74230951D01*
X142724809Y-74088094D02*
X142224809Y-74088094D01*
X142224809Y-74088094D02*
X142296238Y-74135713D01*
X142296238Y-74135713D02*
X142343857Y-74183332D01*
X142343857Y-74183332D02*
X142367666Y-74230951D01*
X142724809Y-73469047D02*
X142724809Y-73754761D01*
X142724809Y-73611904D02*
X142224809Y-73611904D01*
X142224809Y-73611904D02*
X142296238Y-73659523D01*
X142296238Y-73659523D02*
X142343857Y-73707142D01*
X142343857Y-73707142D02*
X142367666Y-73754761D01*
%TO.C,C23*%
X122277190Y-48821428D02*
X122301000Y-48845237D01*
X122301000Y-48845237D02*
X122324809Y-48916666D01*
X122324809Y-48916666D02*
X122324809Y-48964285D01*
X122324809Y-48964285D02*
X122301000Y-49035713D01*
X122301000Y-49035713D02*
X122253380Y-49083332D01*
X122253380Y-49083332D02*
X122205761Y-49107142D01*
X122205761Y-49107142D02*
X122110523Y-49130951D01*
X122110523Y-49130951D02*
X122039095Y-49130951D01*
X122039095Y-49130951D02*
X121943857Y-49107142D01*
X121943857Y-49107142D02*
X121896238Y-49083332D01*
X121896238Y-49083332D02*
X121848619Y-49035713D01*
X121848619Y-49035713D02*
X121824809Y-48964285D01*
X121824809Y-48964285D02*
X121824809Y-48916666D01*
X121824809Y-48916666D02*
X121848619Y-48845237D01*
X121848619Y-48845237D02*
X121872428Y-48821428D01*
X121872428Y-48630951D02*
X121848619Y-48607142D01*
X121848619Y-48607142D02*
X121824809Y-48559523D01*
X121824809Y-48559523D02*
X121824809Y-48440475D01*
X121824809Y-48440475D02*
X121848619Y-48392856D01*
X121848619Y-48392856D02*
X121872428Y-48369047D01*
X121872428Y-48369047D02*
X121920047Y-48345237D01*
X121920047Y-48345237D02*
X121967666Y-48345237D01*
X121967666Y-48345237D02*
X122039095Y-48369047D01*
X122039095Y-48369047D02*
X122324809Y-48654761D01*
X122324809Y-48654761D02*
X122324809Y-48345237D01*
X121824809Y-48178571D02*
X121824809Y-47869047D01*
X121824809Y-47869047D02*
X122015285Y-48035714D01*
X122015285Y-48035714D02*
X122015285Y-47964285D01*
X122015285Y-47964285D02*
X122039095Y-47916666D01*
X122039095Y-47916666D02*
X122062904Y-47892857D01*
X122062904Y-47892857D02*
X122110523Y-47869047D01*
X122110523Y-47869047D02*
X122229571Y-47869047D01*
X122229571Y-47869047D02*
X122277190Y-47892857D01*
X122277190Y-47892857D02*
X122301000Y-47916666D01*
X122301000Y-47916666D02*
X122324809Y-47964285D01*
X122324809Y-47964285D02*
X122324809Y-48107142D01*
X122324809Y-48107142D02*
X122301000Y-48154761D01*
X122301000Y-48154761D02*
X122277190Y-48178571D01*
%TO.C,TP2*%
X131669048Y-58524809D02*
X131954762Y-58524809D01*
X131811905Y-59024809D02*
X131811905Y-58524809D01*
X132121428Y-59024809D02*
X132121428Y-58524809D01*
X132121428Y-58524809D02*
X132311904Y-58524809D01*
X132311904Y-58524809D02*
X132359523Y-58548619D01*
X132359523Y-58548619D02*
X132383333Y-58572428D01*
X132383333Y-58572428D02*
X132407142Y-58620047D01*
X132407142Y-58620047D02*
X132407142Y-58691476D01*
X132407142Y-58691476D02*
X132383333Y-58739095D01*
X132383333Y-58739095D02*
X132359523Y-58762904D01*
X132359523Y-58762904D02*
X132311904Y-58786714D01*
X132311904Y-58786714D02*
X132121428Y-58786714D01*
X132597619Y-58572428D02*
X132621428Y-58548619D01*
X132621428Y-58548619D02*
X132669047Y-58524809D01*
X132669047Y-58524809D02*
X132788095Y-58524809D01*
X132788095Y-58524809D02*
X132835714Y-58548619D01*
X132835714Y-58548619D02*
X132859523Y-58572428D01*
X132859523Y-58572428D02*
X132883333Y-58620047D01*
X132883333Y-58620047D02*
X132883333Y-58667666D01*
X132883333Y-58667666D02*
X132859523Y-58739095D01*
X132859523Y-58739095D02*
X132573809Y-59024809D01*
X132573809Y-59024809D02*
X132883333Y-59024809D01*
%TO.C,R20*%
X120478571Y-47724809D02*
X120311905Y-47486714D01*
X120192857Y-47724809D02*
X120192857Y-47224809D01*
X120192857Y-47224809D02*
X120383333Y-47224809D01*
X120383333Y-47224809D02*
X120430952Y-47248619D01*
X120430952Y-47248619D02*
X120454762Y-47272428D01*
X120454762Y-47272428D02*
X120478571Y-47320047D01*
X120478571Y-47320047D02*
X120478571Y-47391476D01*
X120478571Y-47391476D02*
X120454762Y-47439095D01*
X120454762Y-47439095D02*
X120430952Y-47462904D01*
X120430952Y-47462904D02*
X120383333Y-47486714D01*
X120383333Y-47486714D02*
X120192857Y-47486714D01*
X120669048Y-47272428D02*
X120692857Y-47248619D01*
X120692857Y-47248619D02*
X120740476Y-47224809D01*
X120740476Y-47224809D02*
X120859524Y-47224809D01*
X120859524Y-47224809D02*
X120907143Y-47248619D01*
X120907143Y-47248619D02*
X120930952Y-47272428D01*
X120930952Y-47272428D02*
X120954762Y-47320047D01*
X120954762Y-47320047D02*
X120954762Y-47367666D01*
X120954762Y-47367666D02*
X120930952Y-47439095D01*
X120930952Y-47439095D02*
X120645238Y-47724809D01*
X120645238Y-47724809D02*
X120954762Y-47724809D01*
X121264285Y-47224809D02*
X121311904Y-47224809D01*
X121311904Y-47224809D02*
X121359523Y-47248619D01*
X121359523Y-47248619D02*
X121383333Y-47272428D01*
X121383333Y-47272428D02*
X121407142Y-47320047D01*
X121407142Y-47320047D02*
X121430952Y-47415285D01*
X121430952Y-47415285D02*
X121430952Y-47534333D01*
X121430952Y-47534333D02*
X121407142Y-47629571D01*
X121407142Y-47629571D02*
X121383333Y-47677190D01*
X121383333Y-47677190D02*
X121359523Y-47701000D01*
X121359523Y-47701000D02*
X121311904Y-47724809D01*
X121311904Y-47724809D02*
X121264285Y-47724809D01*
X121264285Y-47724809D02*
X121216666Y-47701000D01*
X121216666Y-47701000D02*
X121192857Y-47677190D01*
X121192857Y-47677190D02*
X121169047Y-47629571D01*
X121169047Y-47629571D02*
X121145238Y-47534333D01*
X121145238Y-47534333D02*
X121145238Y-47415285D01*
X121145238Y-47415285D02*
X121169047Y-47320047D01*
X121169047Y-47320047D02*
X121192857Y-47272428D01*
X121192857Y-47272428D02*
X121216666Y-47248619D01*
X121216666Y-47248619D02*
X121264285Y-47224809D01*
%TO.C,J1*%
X149733333Y-73479809D02*
X149733333Y-73836952D01*
X149733333Y-73836952D02*
X149709524Y-73908380D01*
X149709524Y-73908380D02*
X149661905Y-73956000D01*
X149661905Y-73956000D02*
X149590476Y-73979809D01*
X149590476Y-73979809D02*
X149542857Y-73979809D01*
X150233333Y-73979809D02*
X149947619Y-73979809D01*
X150090476Y-73979809D02*
X150090476Y-73479809D01*
X150090476Y-73479809D02*
X150042857Y-73551238D01*
X150042857Y-73551238D02*
X149995238Y-73598857D01*
X149995238Y-73598857D02*
X149947619Y-73622666D01*
%TO.C,R25*%
X120024914Y-54231680D02*
X120075422Y-53945470D01*
X119822884Y-54029649D02*
X120176437Y-53676096D01*
X120176437Y-53676096D02*
X120311124Y-53810783D01*
X120311124Y-53810783D02*
X120327960Y-53861291D01*
X120327960Y-53861291D02*
X120327960Y-53894962D01*
X120327960Y-53894962D02*
X120311124Y-53945470D01*
X120311124Y-53945470D02*
X120260616Y-53995978D01*
X120260616Y-53995978D02*
X120210109Y-54012813D01*
X120210109Y-54012813D02*
X120176437Y-54012813D01*
X120176437Y-54012813D02*
X120125929Y-53995978D01*
X120125929Y-53995978D02*
X119991242Y-53861291D01*
X120479483Y-54046485D02*
X120513155Y-54046485D01*
X120513155Y-54046485D02*
X120563662Y-54063321D01*
X120563662Y-54063321D02*
X120647842Y-54147500D01*
X120647842Y-54147500D02*
X120664677Y-54198008D01*
X120664677Y-54198008D02*
X120664677Y-54231680D01*
X120664677Y-54231680D02*
X120647842Y-54282187D01*
X120647842Y-54282187D02*
X120614170Y-54315859D01*
X120614170Y-54315859D02*
X120546826Y-54349531D01*
X120546826Y-54349531D02*
X120142765Y-54349531D01*
X120142765Y-54349531D02*
X120361632Y-54568397D01*
X121035066Y-54534725D02*
X120866708Y-54366367D01*
X120866708Y-54366367D02*
X120681513Y-54517889D01*
X120681513Y-54517889D02*
X120715185Y-54517889D01*
X120715185Y-54517889D02*
X120765692Y-54534725D01*
X120765692Y-54534725D02*
X120849872Y-54618905D01*
X120849872Y-54618905D02*
X120866708Y-54669412D01*
X120866708Y-54669412D02*
X120866708Y-54703084D01*
X120866708Y-54703084D02*
X120849872Y-54753592D01*
X120849872Y-54753592D02*
X120765692Y-54837771D01*
X120765692Y-54837771D02*
X120715185Y-54854607D01*
X120715185Y-54854607D02*
X120681513Y-54854607D01*
X120681513Y-54854607D02*
X120631005Y-54837771D01*
X120631005Y-54837771D02*
X120546826Y-54753592D01*
X120546826Y-54753592D02*
X120529990Y-54703084D01*
X120529990Y-54703084D02*
X120529990Y-54669412D01*
%TO.C,C30*%
X141324747Y-77866196D02*
X141336264Y-77897837D01*
X141336264Y-77897837D02*
X141327655Y-77972636D01*
X141327655Y-77972636D02*
X141307531Y-78015793D01*
X141307531Y-78015793D02*
X141255765Y-78070467D01*
X141255765Y-78070467D02*
X141192483Y-78093500D01*
X141192483Y-78093500D02*
X141139263Y-78094954D01*
X141139263Y-78094954D02*
X141042886Y-78076284D01*
X141042886Y-78076284D02*
X140978149Y-78046097D01*
X140978149Y-78046097D02*
X140901897Y-77984269D01*
X140901897Y-77984269D02*
X140868801Y-77942565D01*
X140868801Y-77942565D02*
X140845769Y-77879283D01*
X140845769Y-77879283D02*
X140854377Y-77804484D01*
X140854377Y-77804484D02*
X140874501Y-77761327D01*
X140874501Y-77761327D02*
X140926267Y-77706653D01*
X140926267Y-77706653D02*
X140957908Y-77695136D01*
X140985187Y-77523960D02*
X141115998Y-77243437D01*
X141115998Y-77243437D02*
X141218191Y-77474987D01*
X141218191Y-77474987D02*
X141248378Y-77410250D01*
X141248378Y-77410250D02*
X141290082Y-77377155D01*
X141290082Y-77377155D02*
X141321723Y-77365639D01*
X141321723Y-77365639D02*
X141374943Y-77364185D01*
X141374943Y-77364185D02*
X141482837Y-77414496D01*
X141482837Y-77414496D02*
X141515932Y-77456200D01*
X141515932Y-77456200D02*
X141527448Y-77487841D01*
X141527448Y-77487841D02*
X141528902Y-77541061D01*
X141528902Y-77541061D02*
X141468528Y-77670533D01*
X141468528Y-77670533D02*
X141426825Y-77703629D01*
X141426825Y-77703629D02*
X141395184Y-77715145D01*
X141246808Y-76962913D02*
X141266933Y-76919756D01*
X141266933Y-76919756D02*
X141308636Y-76886661D01*
X141308636Y-76886661D02*
X141340277Y-76875144D01*
X141340277Y-76875144D02*
X141393497Y-76873690D01*
X141393497Y-76873690D02*
X141489874Y-76892361D01*
X141489874Y-76892361D02*
X141597768Y-76942672D01*
X141597768Y-76942672D02*
X141674021Y-77004500D01*
X141674021Y-77004500D02*
X141707116Y-77046204D01*
X141707116Y-77046204D02*
X141718632Y-77077845D01*
X141718632Y-77077845D02*
X141720086Y-77131065D01*
X141720086Y-77131065D02*
X141699962Y-77174222D01*
X141699962Y-77174222D02*
X141658258Y-77207318D01*
X141658258Y-77207318D02*
X141626617Y-77218834D01*
X141626617Y-77218834D02*
X141573397Y-77220288D01*
X141573397Y-77220288D02*
X141477020Y-77201617D01*
X141477020Y-77201617D02*
X141369126Y-77151306D01*
X141369126Y-77151306D02*
X141292874Y-77089478D01*
X141292874Y-77089478D02*
X141259778Y-77047774D01*
X141259778Y-77047774D02*
X141248262Y-77016133D01*
X141248262Y-77016133D02*
X141246808Y-76962913D01*
%TO.C,U5*%
X110824809Y-54780952D02*
X111229571Y-54780952D01*
X111229571Y-54780952D02*
X111277190Y-54757142D01*
X111277190Y-54757142D02*
X111301000Y-54733333D01*
X111301000Y-54733333D02*
X111324809Y-54685714D01*
X111324809Y-54685714D02*
X111324809Y-54590476D01*
X111324809Y-54590476D02*
X111301000Y-54542857D01*
X111301000Y-54542857D02*
X111277190Y-54519047D01*
X111277190Y-54519047D02*
X111229571Y-54495238D01*
X111229571Y-54495238D02*
X110824809Y-54495238D01*
X110824809Y-54019047D02*
X110824809Y-54257142D01*
X110824809Y-54257142D02*
X111062904Y-54280951D01*
X111062904Y-54280951D02*
X111039095Y-54257142D01*
X111039095Y-54257142D02*
X111015285Y-54209523D01*
X111015285Y-54209523D02*
X111015285Y-54090475D01*
X111015285Y-54090475D02*
X111039095Y-54042856D01*
X111039095Y-54042856D02*
X111062904Y-54019047D01*
X111062904Y-54019047D02*
X111110523Y-53995237D01*
X111110523Y-53995237D02*
X111229571Y-53995237D01*
X111229571Y-53995237D02*
X111277190Y-54019047D01*
X111277190Y-54019047D02*
X111301000Y-54042856D01*
X111301000Y-54042856D02*
X111324809Y-54090475D01*
X111324809Y-54090475D02*
X111324809Y-54209523D01*
X111324809Y-54209523D02*
X111301000Y-54257142D01*
X111301000Y-54257142D02*
X111277190Y-54280951D01*
%TO.C,R31*%
X114424809Y-47421428D02*
X114186714Y-47588094D01*
X114424809Y-47707142D02*
X113924809Y-47707142D01*
X113924809Y-47707142D02*
X113924809Y-47516666D01*
X113924809Y-47516666D02*
X113948619Y-47469047D01*
X113948619Y-47469047D02*
X113972428Y-47445237D01*
X113972428Y-47445237D02*
X114020047Y-47421428D01*
X114020047Y-47421428D02*
X114091476Y-47421428D01*
X114091476Y-47421428D02*
X114139095Y-47445237D01*
X114139095Y-47445237D02*
X114162904Y-47469047D01*
X114162904Y-47469047D02*
X114186714Y-47516666D01*
X114186714Y-47516666D02*
X114186714Y-47707142D01*
X113924809Y-47254761D02*
X113924809Y-46945237D01*
X113924809Y-46945237D02*
X114115285Y-47111904D01*
X114115285Y-47111904D02*
X114115285Y-47040475D01*
X114115285Y-47040475D02*
X114139095Y-46992856D01*
X114139095Y-46992856D02*
X114162904Y-46969047D01*
X114162904Y-46969047D02*
X114210523Y-46945237D01*
X114210523Y-46945237D02*
X114329571Y-46945237D01*
X114329571Y-46945237D02*
X114377190Y-46969047D01*
X114377190Y-46969047D02*
X114401000Y-46992856D01*
X114401000Y-46992856D02*
X114424809Y-47040475D01*
X114424809Y-47040475D02*
X114424809Y-47183332D01*
X114424809Y-47183332D02*
X114401000Y-47230951D01*
X114401000Y-47230951D02*
X114377190Y-47254761D01*
X114424809Y-46469047D02*
X114424809Y-46754761D01*
X114424809Y-46611904D02*
X113924809Y-46611904D01*
X113924809Y-46611904D02*
X113996238Y-46659523D01*
X113996238Y-46659523D02*
X114043857Y-46707142D01*
X114043857Y-46707142D02*
X114067666Y-46754761D01*
D10*
%TO.C,J4*%
X122096666Y-78954819D02*
X122096666Y-79669104D01*
X122096666Y-79669104D02*
X122049047Y-79811961D01*
X122049047Y-79811961D02*
X121953809Y-79907200D01*
X121953809Y-79907200D02*
X121810952Y-79954819D01*
X121810952Y-79954819D02*
X121715714Y-79954819D01*
X123001428Y-79288152D02*
X123001428Y-79954819D01*
X122763333Y-78907200D02*
X122525238Y-79621485D01*
X122525238Y-79621485D02*
X123144285Y-79621485D01*
D12*
%TO.C,TP4*%
X116169048Y-44124809D02*
X116454762Y-44124809D01*
X116311905Y-44624809D02*
X116311905Y-44124809D01*
X116621428Y-44624809D02*
X116621428Y-44124809D01*
X116621428Y-44124809D02*
X116811904Y-44124809D01*
X116811904Y-44124809D02*
X116859523Y-44148619D01*
X116859523Y-44148619D02*
X116883333Y-44172428D01*
X116883333Y-44172428D02*
X116907142Y-44220047D01*
X116907142Y-44220047D02*
X116907142Y-44291476D01*
X116907142Y-44291476D02*
X116883333Y-44339095D01*
X116883333Y-44339095D02*
X116859523Y-44362904D01*
X116859523Y-44362904D02*
X116811904Y-44386714D01*
X116811904Y-44386714D02*
X116621428Y-44386714D01*
X117335714Y-44291476D02*
X117335714Y-44624809D01*
X117216666Y-44101000D02*
X117097619Y-44458142D01*
X117097619Y-44458142D02*
X117407142Y-44458142D01*
%TO.C,C31*%
X133277190Y-46221428D02*
X133301000Y-46245237D01*
X133301000Y-46245237D02*
X133324809Y-46316666D01*
X133324809Y-46316666D02*
X133324809Y-46364285D01*
X133324809Y-46364285D02*
X133301000Y-46435713D01*
X133301000Y-46435713D02*
X133253380Y-46483332D01*
X133253380Y-46483332D02*
X133205761Y-46507142D01*
X133205761Y-46507142D02*
X133110523Y-46530951D01*
X133110523Y-46530951D02*
X133039095Y-46530951D01*
X133039095Y-46530951D02*
X132943857Y-46507142D01*
X132943857Y-46507142D02*
X132896238Y-46483332D01*
X132896238Y-46483332D02*
X132848619Y-46435713D01*
X132848619Y-46435713D02*
X132824809Y-46364285D01*
X132824809Y-46364285D02*
X132824809Y-46316666D01*
X132824809Y-46316666D02*
X132848619Y-46245237D01*
X132848619Y-46245237D02*
X132872428Y-46221428D01*
X132824809Y-46054761D02*
X132824809Y-45745237D01*
X132824809Y-45745237D02*
X133015285Y-45911904D01*
X133015285Y-45911904D02*
X133015285Y-45840475D01*
X133015285Y-45840475D02*
X133039095Y-45792856D01*
X133039095Y-45792856D02*
X133062904Y-45769047D01*
X133062904Y-45769047D02*
X133110523Y-45745237D01*
X133110523Y-45745237D02*
X133229571Y-45745237D01*
X133229571Y-45745237D02*
X133277190Y-45769047D01*
X133277190Y-45769047D02*
X133301000Y-45792856D01*
X133301000Y-45792856D02*
X133324809Y-45840475D01*
X133324809Y-45840475D02*
X133324809Y-45983332D01*
X133324809Y-45983332D02*
X133301000Y-46030951D01*
X133301000Y-46030951D02*
X133277190Y-46054761D01*
X133324809Y-45269047D02*
X133324809Y-45554761D01*
X133324809Y-45411904D02*
X132824809Y-45411904D01*
X132824809Y-45411904D02*
X132896238Y-45459523D01*
X132896238Y-45459523D02*
X132943857Y-45507142D01*
X132943857Y-45507142D02*
X132967666Y-45554761D01*
%TO.C,J5*%
X148933333Y-44724809D02*
X148933333Y-45081952D01*
X148933333Y-45081952D02*
X148909524Y-45153380D01*
X148909524Y-45153380D02*
X148861905Y-45201000D01*
X148861905Y-45201000D02*
X148790476Y-45224809D01*
X148790476Y-45224809D02*
X148742857Y-45224809D01*
X149409523Y-44724809D02*
X149171428Y-44724809D01*
X149171428Y-44724809D02*
X149147619Y-44962904D01*
X149147619Y-44962904D02*
X149171428Y-44939095D01*
X149171428Y-44939095D02*
X149219047Y-44915285D01*
X149219047Y-44915285D02*
X149338095Y-44915285D01*
X149338095Y-44915285D02*
X149385714Y-44939095D01*
X149385714Y-44939095D02*
X149409523Y-44962904D01*
X149409523Y-44962904D02*
X149433333Y-45010523D01*
X149433333Y-45010523D02*
X149433333Y-45129571D01*
X149433333Y-45129571D02*
X149409523Y-45177190D01*
X149409523Y-45177190D02*
X149385714Y-45201000D01*
X149385714Y-45201000D02*
X149338095Y-45224809D01*
X149338095Y-45224809D02*
X149219047Y-45224809D01*
X149219047Y-45224809D02*
X149171428Y-45201000D01*
X149171428Y-45201000D02*
X149147619Y-45177190D01*
D10*
%TO.C,U7*%
X138212025Y-78248026D02*
X138212025Y-78766498D01*
X138212025Y-78766498D02*
X138242524Y-78827495D01*
X138242524Y-78827495D02*
X138273022Y-78857994D01*
X138273022Y-78857994D02*
X138334019Y-78888492D01*
X138334019Y-78888492D02*
X138456012Y-78888492D01*
X138456012Y-78888492D02*
X138517009Y-78857994D01*
X138517009Y-78857994D02*
X138547508Y-78827495D01*
X138547508Y-78827495D02*
X138578006Y-78766498D01*
X138578006Y-78766498D02*
X138578006Y-78248026D01*
X138821993Y-78248026D02*
X139248970Y-78248026D01*
X139248970Y-78248026D02*
X138974485Y-78888492D01*
D12*
%TO.C,TP5*%
X134569048Y-51724809D02*
X134854762Y-51724809D01*
X134711905Y-52224809D02*
X134711905Y-51724809D01*
X135021428Y-52224809D02*
X135021428Y-51724809D01*
X135021428Y-51724809D02*
X135211904Y-51724809D01*
X135211904Y-51724809D02*
X135259523Y-51748619D01*
X135259523Y-51748619D02*
X135283333Y-51772428D01*
X135283333Y-51772428D02*
X135307142Y-51820047D01*
X135307142Y-51820047D02*
X135307142Y-51891476D01*
X135307142Y-51891476D02*
X135283333Y-51939095D01*
X135283333Y-51939095D02*
X135259523Y-51962904D01*
X135259523Y-51962904D02*
X135211904Y-51986714D01*
X135211904Y-51986714D02*
X135021428Y-51986714D01*
X135759523Y-51724809D02*
X135521428Y-51724809D01*
X135521428Y-51724809D02*
X135497619Y-51962904D01*
X135497619Y-51962904D02*
X135521428Y-51939095D01*
X135521428Y-51939095D02*
X135569047Y-51915285D01*
X135569047Y-51915285D02*
X135688095Y-51915285D01*
X135688095Y-51915285D02*
X135735714Y-51939095D01*
X135735714Y-51939095D02*
X135759523Y-51962904D01*
X135759523Y-51962904D02*
X135783333Y-52010523D01*
X135783333Y-52010523D02*
X135783333Y-52129571D01*
X135783333Y-52129571D02*
X135759523Y-52177190D01*
X135759523Y-52177190D02*
X135735714Y-52201000D01*
X135735714Y-52201000D02*
X135688095Y-52224809D01*
X135688095Y-52224809D02*
X135569047Y-52224809D01*
X135569047Y-52224809D02*
X135521428Y-52201000D01*
X135521428Y-52201000D02*
X135497619Y-52177190D01*
D11*
%TO.C,R9*%
X145237258Y-69322500D02*
X144762742Y-69322500D01*
X145237258Y-68277500D02*
X144762742Y-68277500D01*
%TO.C,C17*%
X115184420Y-48390000D02*
X115465580Y-48390000D01*
X115184420Y-49410000D02*
X115465580Y-49410000D01*
%TO.C,C1*%
X124297836Y-64185600D02*
X124082164Y-64185600D01*
X124297836Y-63465600D02*
X124082164Y-63465600D01*
D13*
%TO.C,SW3*%
X114541600Y-80082002D02*
X114541600Y-74824202D01*
X114541600Y-74824202D02*
X113629740Y-74824202D01*
X111770460Y-74824202D02*
X108549740Y-74824202D01*
X111089740Y-80082002D02*
X114541600Y-80082002D01*
X106690460Y-74824202D02*
X105778600Y-74824202D01*
X105778600Y-80082002D02*
X109230460Y-80082002D01*
X105778600Y-74824202D02*
X105778600Y-80082002D01*
D11*
%TO.C,U1*%
X133990000Y-70458100D02*
X133340000Y-70458100D01*
X126770000Y-69808100D02*
X126770000Y-70458100D01*
X133990000Y-69808100D02*
X133990000Y-70458100D01*
X126770000Y-63888100D02*
X126770000Y-63238100D01*
X133990000Y-63888100D02*
X133990000Y-63238100D01*
X126770000Y-63238100D02*
X127420000Y-63238100D01*
X133990000Y-63238100D02*
X133340000Y-63238100D01*
%TO.C,R29*%
X119262770Y-62198303D02*
X119598303Y-61862770D01*
X120001697Y-62937230D02*
X120337230Y-62601697D01*
D13*
%TO.C,U10*%
X118348400Y-66897102D02*
X116341800Y-66897102D01*
X116341800Y-70199102D02*
X118348400Y-70199102D01*
D14*
%TO.C,BT2*%
X143610000Y-62200000D02*
G75*
G03*
X141800000Y-66239999I-68288J-2394863D01*
G01*
X145810000Y-65430000D02*
G75*
G03*
X145960000Y-64383000I-2893933J948849D01*
G01*
D11*
%TO.C,R24*%
X143522500Y-45662742D02*
X143522500Y-46137258D01*
X142477500Y-45662742D02*
X142477500Y-46137258D01*
%TO.C,C21*%
X112435000Y-57738748D02*
X112435000Y-58261252D01*
X110965000Y-57738748D02*
X110965000Y-58261252D01*
%TO.C,R5*%
X135653641Y-67445600D02*
X135346359Y-67445600D01*
X135653641Y-66685600D02*
X135346359Y-66685600D01*
%TO.C,R33*%
X118677500Y-44437258D02*
X118677500Y-43962742D01*
X119722500Y-44437258D02*
X119722500Y-43962742D01*
%TO.C,TP1*%
X130000000Y-56900000D02*
G75*
G03*
X130000000Y-56900000I-1200000J0D01*
G01*
%TO.C,R17*%
X124222500Y-60162742D02*
X124222500Y-60637258D01*
X123177500Y-60162742D02*
X123177500Y-60637258D01*
%TO.C,R26*%
X118498303Y-56937230D02*
X118162770Y-56601697D01*
X119237230Y-56198303D02*
X118901697Y-55862770D01*
%TO.C,J2*%
X109795100Y-63928102D02*
X111595100Y-63928102D01*
X107695100Y-63928102D02*
X106545100Y-63928102D01*
X109795100Y-73268102D02*
X111595100Y-73268102D01*
X107695100Y-73268102D02*
X106545100Y-73268102D01*
%TO.C,R32*%
X110877500Y-49237258D02*
X110877500Y-48762742D01*
X111922500Y-49237258D02*
X111922500Y-48762742D01*
%TO.C,R15*%
X112777500Y-61737258D02*
X112777500Y-61262742D01*
X113822500Y-61737258D02*
X113822500Y-61262742D01*
%TO.C,J3*%
X97190000Y-59550000D02*
X97190000Y-58960000D01*
X99410000Y-59550000D02*
X99410000Y-58960000D01*
X95090000Y-58960000D02*
X97190000Y-58960000D01*
X95090000Y-58960000D02*
X95090000Y-48840000D01*
X99410000Y-58960000D02*
X104310000Y-58960000D01*
X104310000Y-58960000D02*
X104310000Y-48840000D01*
X95090000Y-48840000D02*
X97190000Y-48840000D01*
X97190000Y-48840000D02*
X97190000Y-48250000D01*
X99410000Y-48840000D02*
X104310000Y-48840000D01*
X99410000Y-48840000D02*
X99410000Y-48250000D01*
X97190000Y-59550000D02*
G75*
G03*
X99410000Y-59550000I1110000J0D01*
G01*
X99410000Y-48250000D02*
G75*
G03*
X97190000Y-48250000I-1110000J0D01*
G01*
%TO.C,C9*%
X130770000Y-61863436D02*
X130770000Y-61647764D01*
X131490000Y-61863436D02*
X131490000Y-61647764D01*
%TO.C,Q1*%
X118100000Y-71740000D02*
X116300000Y-71740000D01*
X118100000Y-71740000D02*
X118900000Y-71740000D01*
X118100000Y-74860000D02*
X117300000Y-74860000D01*
X118100000Y-74860000D02*
X118900000Y-74860000D01*
%TO.C,C28*%
X130248748Y-51815000D02*
X131671252Y-51815000D01*
X130248748Y-53635000D02*
X131671252Y-53635000D01*
%TO.C,C25*%
X128865000Y-44961252D02*
X128865000Y-44438748D01*
X130335000Y-44961252D02*
X130335000Y-44438748D01*
D10*
%TO.C,TP6*%
X114800000Y-44600000D02*
G75*
G03*
X114800000Y-44600000I-1400000J0D01*
G01*
D11*
%TO.C,C39*%
X149934420Y-59990000D02*
X150215580Y-59990000D01*
X149934420Y-61010000D02*
X150215580Y-61010000D01*
D15*
%TO.C,U6*%
X120999998Y-55850000D02*
X121224999Y-55850000D01*
X123524999Y-58150000D02*
X123750000Y-58150000D01*
X120999998Y-58150000D02*
X121224999Y-58150000D01*
D10*
%TO.C,U8*%
X123387501Y-47212501D02*
X123387501Y-46162500D01*
X123413000Y-47212501D02*
X123387501Y-47212501D01*
X128412500Y-47212501D02*
X128262500Y-47212501D01*
X128412500Y-47212501D02*
X128412500Y-43012499D01*
X123387501Y-44062500D02*
X123387501Y-43012499D01*
X123413000Y-43012499D02*
X123387501Y-43012499D01*
X128412500Y-43012499D02*
X128262500Y-43012499D01*
D16*
X124150502Y-47612500D02*
G75*
G03*
X124150502Y-47612500I-125001J0D01*
G01*
D11*
%TO.C,C13*%
X136330000Y-68397764D02*
X136330000Y-68613436D01*
X135610000Y-68397764D02*
X135610000Y-68613436D01*
%TO.C,C33*%
X125859420Y-58890000D02*
X126140580Y-58890000D01*
X125859420Y-59910000D02*
X126140580Y-59910000D01*
%TO.C,R23*%
X117862770Y-61298303D02*
X118198303Y-60962770D01*
X118601697Y-62037230D02*
X118937230Y-61701697D01*
%TO.C,U11*%
X147775000Y-73175000D02*
X147275000Y-73175000D01*
X142575000Y-73075000D02*
X142575000Y-72125000D01*
X147775000Y-72675000D02*
X147775000Y-73175000D01*
X142575000Y-70375000D02*
X142575000Y-69875000D01*
X142575000Y-69875000D02*
X143075000Y-69875000D01*
X147275000Y-69875000D02*
X147775000Y-69875000D01*
X147775000Y-69875000D02*
X147775000Y-70375000D01*
%TO.C,C24*%
X121940580Y-43810000D02*
X121659420Y-43810000D01*
X121940580Y-42790000D02*
X121659420Y-42790000D01*
%TO.C,R14*%
X146777500Y-65437258D02*
X146777500Y-64962742D01*
X147822500Y-65437258D02*
X147822500Y-64962742D01*
%TO.C,C10*%
X131660000Y-71837764D02*
X131660000Y-72053436D01*
X130940000Y-71837764D02*
X130940000Y-72053436D01*
%TO.C,R10*%
X128787500Y-48512258D02*
X128787500Y-48037742D01*
X129832500Y-48512258D02*
X129832500Y-48037742D01*
%TO.C,C16*%
X125359420Y-55090000D02*
X125640580Y-55090000D01*
X125359420Y-56110000D02*
X125640580Y-56110000D01*
%TO.C,B1*%
X135500000Y-72650000D02*
X135500000Y-72550000D01*
X135500000Y-74150000D02*
X139900000Y-74150000D01*
X139900000Y-71050000D02*
X135500000Y-71050000D01*
X139900000Y-72650000D02*
X139900000Y-72550000D01*
%TO.C,C6*%
X123035000Y-67917164D02*
X123035000Y-68132836D01*
X122315000Y-67917164D02*
X122315000Y-68132836D01*
D13*
%TO.C,SW2*%
X136107100Y-81496600D02*
X136107100Y-78753400D01*
X136107100Y-78753400D02*
X135763341Y-78753400D01*
X134286662Y-78753400D02*
X132263338Y-78753400D01*
X134013340Y-81496600D02*
X136107100Y-81496600D01*
X130786659Y-78753400D02*
X130442900Y-78753400D01*
X130442900Y-81496600D02*
X132536660Y-81496600D01*
X130442900Y-78753400D02*
X130442900Y-81496600D01*
X135101200Y-76717501D02*
G75*
G03*
X135101200Y-76717501I-76200J0D01*
G01*
D11*
%TO.C,C18*%
X117890000Y-51611252D02*
X117890000Y-50188748D01*
X119710000Y-51611252D02*
X119710000Y-50188748D01*
%TO.C,C38*%
X124113748Y-47990000D02*
X125536252Y-47990000D01*
X124113748Y-49810000D02*
X125536252Y-49810000D01*
%TO.C,C3*%
X137322164Y-64255600D02*
X137537836Y-64255600D01*
X137322164Y-64975600D02*
X137537836Y-64975600D01*
%TO.C,C12*%
X122085000Y-67907764D02*
X122085000Y-68123436D01*
X121365000Y-67907764D02*
X121365000Y-68123436D01*
%TO.C,Y1*%
X139420000Y-67180600D02*
X136620000Y-67180600D01*
X136620000Y-67180600D02*
X136620000Y-70480600D01*
%TO.C,C29*%
X144210000Y-74859420D02*
X144210000Y-75140580D01*
X143190000Y-74859420D02*
X143190000Y-75140580D01*
%TO.C,R16*%
X115422500Y-61262742D02*
X115422500Y-61737258D01*
X114377500Y-61262742D02*
X114377500Y-61737258D01*
%TO.C,R11*%
X142022500Y-72562742D02*
X142022500Y-73037258D01*
X140977500Y-72562742D02*
X140977500Y-73037258D01*
%TO.C,C23*%
X121890000Y-46340580D02*
X121890000Y-46059420D01*
X122910000Y-46340580D02*
X122910000Y-46059420D01*
%TO.C,TP2*%
X133500000Y-56800000D02*
G75*
G03*
X133500000Y-56800000I-1200000J0D01*
G01*
%TO.C,R20*%
X120277500Y-45837258D02*
X120277500Y-45362742D01*
X121322500Y-45837258D02*
X121322500Y-45362742D01*
D15*
%TO.C,U9*%
X107650000Y-58600000D02*
X108500000Y-58600000D01*
X107650000Y-61000000D02*
X107899999Y-61000000D01*
X109500001Y-58600000D02*
X109750000Y-58600000D01*
X109500001Y-61000000D02*
X109750000Y-61000000D01*
D11*
%TO.C,C11*%
X137322164Y-65235600D02*
X137537836Y-65235600D01*
X137322164Y-65955600D02*
X137537836Y-65955600D01*
%TO.C,J1*%
X151230000Y-72755000D02*
X149900000Y-72755000D01*
X151230000Y-71425000D02*
X151230000Y-72755000D01*
X151230000Y-70155000D02*
X151230000Y-65015000D01*
X151230000Y-70155000D02*
X148570000Y-70155000D01*
X151230000Y-65015000D02*
X148570000Y-65015000D01*
X148570000Y-70155000D02*
X148570000Y-65015000D01*
%TO.C,L4*%
X126860000Y-51897936D02*
X126860000Y-53102064D01*
X124140000Y-51897936D02*
X124140000Y-53102064D01*
%TO.C,R25*%
X119601697Y-54362770D02*
X119937230Y-54698303D01*
X118862770Y-55101697D02*
X119198303Y-55437230D01*
%TO.C,R6*%
X141562742Y-68277500D02*
X142037258Y-68277500D01*
X141562742Y-69322500D02*
X142037258Y-69322500D01*
%TO.C,R22*%
X115662770Y-63498303D02*
X115998303Y-63162770D01*
X116401697Y-64237230D02*
X116737230Y-63901697D01*
%TO.C,C2*%
X124297836Y-63175600D02*
X124082164Y-63175600D01*
X124297836Y-62455600D02*
X124082164Y-62455600D01*
%TO.C,R2*%
X124036359Y-65455600D02*
X124343641Y-65455600D01*
X124036359Y-66215600D02*
X124343641Y-66215600D01*
%TO.C,C14*%
X137322164Y-66235600D02*
X137537836Y-66235600D01*
X137322164Y-66955600D02*
X137537836Y-66955600D01*
%TO.C,C30*%
X141290516Y-75305900D02*
X141545333Y-75424724D01*
X140859445Y-76230334D02*
X141114262Y-76349158D01*
%TO.C,R4*%
X131662258Y-76647500D02*
X131187742Y-76647500D01*
X131662258Y-75602500D02*
X131187742Y-75602500D01*
%TO.C,C15*%
X122710000Y-62459420D02*
X122710000Y-62740580D01*
X121690000Y-62459420D02*
X121690000Y-62740580D01*
D10*
%TO.C,U5*%
X111587501Y-54900001D02*
X111587501Y-53850000D01*
X111613000Y-54900001D02*
X111587501Y-54900001D01*
X116612500Y-54900001D02*
X116462500Y-54900001D01*
X116612500Y-54900001D02*
X116612500Y-50699999D01*
X111587501Y-51750000D02*
X111587501Y-50699999D01*
X111613000Y-50699999D02*
X111587501Y-50699999D01*
X116612500Y-50699999D02*
X116462500Y-50699999D01*
D16*
X112350502Y-55300000D02*
G75*
G03*
X112350502Y-55300000I-125001J0D01*
G01*
D11*
%TO.C,C5*%
X127340000Y-71887764D02*
X127340000Y-72103436D01*
X126620000Y-71887764D02*
X126620000Y-72103436D01*
%TO.C,R31*%
X113522500Y-47962742D02*
X113522500Y-48437258D01*
X112477500Y-47962742D02*
X112477500Y-48437258D01*
%TO.C,R21*%
X145122500Y-45662742D02*
X145122500Y-46137258D01*
X144077500Y-45662742D02*
X144077500Y-46137258D01*
%TO.C,R28*%
X117737230Y-60601697D02*
X117401697Y-60937230D01*
X116998303Y-59862770D02*
X116662770Y-60198303D01*
%TO.C,R12*%
X115395000Y-77027258D02*
X115395000Y-76552742D01*
X116440000Y-77027258D02*
X116440000Y-76552742D01*
%TO.C,C4*%
X124157836Y-68485600D02*
X123942164Y-68485600D01*
X124157836Y-67765600D02*
X123942164Y-67765600D01*
%TO.C,R1*%
X124036359Y-64455600D02*
X124343641Y-64455600D01*
X124036359Y-65215600D02*
X124343641Y-65215600D01*
%TO.C,C32*%
X126330000Y-61803436D02*
X126330000Y-61587764D01*
X127050000Y-61803436D02*
X127050000Y-61587764D01*
%TO.C,J4*%
X115195000Y-82190000D02*
X116145000Y-82190000D01*
X115195000Y-82640000D02*
X115195000Y-82190000D01*
X115195000Y-86160000D02*
X115195000Y-86610000D01*
X115195000Y-86610000D02*
X129665000Y-86610000D01*
X116145000Y-82190000D02*
X116145000Y-80700000D01*
X129665000Y-82190000D02*
X128715000Y-82190000D01*
X129665000Y-82640000D02*
X129665000Y-82190000D01*
X129665000Y-86610000D02*
X129665000Y-86160000D01*
%TO.C,D1*%
X119852500Y-76685000D02*
X119852500Y-75215000D01*
X119852500Y-75215000D02*
X117567500Y-75215000D01*
X117567500Y-76685000D02*
X119852500Y-76685000D01*
%TO.C,C34*%
X120290000Y-51140580D02*
X120290000Y-50859420D01*
X121310000Y-51140580D02*
X121310000Y-50859420D01*
%TO.C,R13*%
X123622500Y-53062742D02*
X123622500Y-53537258D01*
X122577500Y-53062742D02*
X122577500Y-53537258D01*
%TO.C,C40*%
X146615580Y-61010000D02*
X146334420Y-61010000D01*
X146615580Y-59990000D02*
X146334420Y-59990000D01*
%TO.C,R27*%
X118501697Y-57662770D02*
X118837230Y-57998303D01*
X117762770Y-58401697D02*
X118098303Y-58737230D01*
%TO.C,C7*%
X119142836Y-71395000D02*
X118927164Y-71395000D01*
X119142836Y-70675000D02*
X118927164Y-70675000D01*
D10*
%TO.C,TP4*%
X118200000Y-46400000D02*
G75*
G03*
X118200000Y-46400000I-1400000J0D01*
G01*
D11*
%TO.C,R30*%
X118137230Y-64701697D02*
X117801697Y-65037230D01*
X117398303Y-63962770D02*
X117062770Y-64298303D01*
%TO.C,C31*%
X130965000Y-44961252D02*
X130965000Y-44438748D01*
X132435000Y-44961252D02*
X132435000Y-44438748D01*
%TO.C,L3*%
X130325000Y-49727064D02*
X130325000Y-48522936D01*
X133045000Y-49727064D02*
X133045000Y-48522936D01*
%TO.C,D2*%
X147290000Y-61500000D02*
X147290000Y-63500000D01*
X147290000Y-61500000D02*
X151150000Y-61500000D01*
X147290000Y-63500000D02*
X151150000Y-63500000D01*
%TO.C,C19*%
X114010000Y-57059420D02*
X114010000Y-57340580D01*
X112990000Y-57059420D02*
X112990000Y-57340580D01*
%TO.C,J5*%
X147600000Y-43450000D02*
X148400000Y-43450000D01*
X147600000Y-43650000D02*
X147600000Y-43450000D01*
X147800000Y-46450000D02*
X147600000Y-46250000D01*
X148400000Y-46450000D02*
X147800000Y-46450000D01*
X148400000Y-46450000D02*
X148400000Y-46950000D01*
X149800000Y-43450000D02*
X150600000Y-43450000D01*
X149800000Y-46450000D02*
X149800000Y-46950000D01*
X150600000Y-43450000D02*
X150600000Y-43650000D01*
X150600000Y-46250000D02*
X150600000Y-46450000D01*
X150600000Y-46450000D02*
X149800000Y-46450000D01*
%TO.C,R8*%
X107045276Y-61877500D02*
X107554724Y-61877500D01*
X107045276Y-62922500D02*
X107554724Y-62922500D01*
%TO.C,C8*%
X125300000Y-61803436D02*
X125300000Y-61587764D01*
X126020000Y-61803436D02*
X126020000Y-61587764D01*
D14*
%TO.C,U7*%
X136960000Y-74854000D02*
X136960000Y-77946000D01*
X136960000Y-77946000D02*
X139240000Y-77946000D01*
X139240000Y-74854000D02*
X136960000Y-74854000D01*
X139240000Y-77946000D02*
X139240000Y-74854000D01*
X136700000Y-75800000D02*
G75*
G03*
X136700000Y-75800000I-100000J0D01*
G01*
X136700000Y-75800000D02*
G75*
G03*
X136700000Y-75800000I-100000J0D01*
G01*
D11*
%TO.C,R7*%
X110954724Y-62922500D02*
X110445276Y-62922500D01*
X110954724Y-61877500D02*
X110445276Y-61877500D01*
%TO.C,R3*%
X118594758Y-78112500D02*
X118120242Y-78112500D01*
X118594758Y-77067500D02*
X118120242Y-77067500D01*
D13*
%TO.C,U2*%
X120405300Y-75875800D02*
X120631360Y-75875800D01*
X121728640Y-75875800D02*
X121901360Y-75875800D01*
X122998640Y-75875800D02*
X123171360Y-75875800D01*
X124268640Y-75875800D02*
X124441360Y-75875800D01*
X125538640Y-75875800D02*
X125764700Y-75875800D01*
X125764700Y-75875800D02*
X125764700Y-69525800D01*
X120405300Y-69525800D02*
X120405300Y-75875800D01*
X120631360Y-69525800D02*
X120405300Y-69525800D01*
X121901360Y-69525800D02*
X121728640Y-69525800D01*
X123171360Y-69525800D02*
X122998640Y-69525800D01*
X124441360Y-69525800D02*
X124268640Y-69525800D01*
X125764700Y-69525800D02*
X125538640Y-69525800D01*
X121281600Y-77374400D02*
G75*
G03*
X121281600Y-77374400I-101600J0D01*
G01*
D11*
%TO.C,C20*%
X116410000Y-56688748D02*
X116410000Y-58111252D01*
X114590000Y-56688748D02*
X114590000Y-58111252D01*
%TO.C,U3*%
X141290000Y-59200000D02*
X141290000Y-58510000D01*
X141140000Y-58510000D02*
X141290000Y-58510000D01*
X141140000Y-58510000D02*
X141140000Y-48590000D01*
X151310000Y-58510000D02*
X151460000Y-58510000D01*
X151460000Y-58510000D02*
X151460000Y-48590000D01*
X141140000Y-48590000D02*
X141290000Y-48590000D01*
X151310000Y-48590000D02*
X151460000Y-48590000D01*
D10*
%TO.C,TP5*%
X136500000Y-49900000D02*
G75*
G03*
X136500000Y-49900000I-1400000J0D01*
G01*
%TD*%
%LPC*%
%TO.C,BT2*%
D17*
X146350000Y-64600000D02*
X143550000Y-61800000D01*
X146350000Y-61800000D01*
X146350000Y-64600000D01*
G36*
X146350000Y-64600000D02*
G01*
X143550000Y-61800000D01*
X146350000Y-61800000D01*
X146350000Y-64600000D01*
G37*
D18*
%TO.C,REF\u002A\u002A*%
X143936956Y-86075593D02*
X143869585Y-86126903D01*
X144007407Y-86018148D02*
X143936956Y-86075593D01*
X144047810Y-85983430D02*
X144007407Y-86018148D01*
X144090135Y-85945459D02*
X144047810Y-85983430D01*
X144133236Y-85904792D02*
X144090135Y-85945459D01*
X144175965Y-85861987D02*
X144133236Y-85904792D01*
X144217176Y-85817601D02*
X144175965Y-85861987D01*
X144255722Y-85772194D02*
X144217176Y-85817601D01*
X144290456Y-85726321D02*
X144255722Y-85772194D01*
X144306035Y-85703385D02*
X144290456Y-85726321D01*
X144320230Y-85680542D02*
X144306035Y-85703385D01*
X144332900Y-85657861D02*
X144320230Y-85680542D01*
X144343899Y-85635413D02*
X144332900Y-85657861D01*
X144353086Y-85613267D02*
X144343899Y-85635413D01*
X144360315Y-85591492D02*
X144353086Y-85613267D01*
X144360315Y-85591492D02*
X144360315Y-85591492D01*
X144369889Y-85553233D02*
X144360315Y-85591492D01*
X144378070Y-85510685D02*
X144369889Y-85553233D01*
X144385018Y-85464555D02*
X144378070Y-85510685D01*
X144390887Y-85415554D02*
X144385018Y-85464555D01*
X144400017Y-85311777D02*
X144390887Y-85415554D01*
X144406715Y-85205029D02*
X144400017Y-85311777D01*
X144417827Y-85005318D02*
X144406715Y-85205029D01*
X144424747Y-84923706D02*
X144417827Y-85005318D01*
X144429096Y-84889945D02*
X144424747Y-84923706D01*
X144434248Y-84861824D02*
X144429096Y-84889945D01*
X144434248Y-84861824D02*
X144434248Y-84861824D01*
X144438942Y-84842098D02*
X144434248Y-84861824D01*
X144444093Y-84822761D02*
X144438942Y-84842098D01*
X144449661Y-84803829D02*
X144444093Y-84822761D01*
X144455605Y-84785316D02*
X144449661Y-84803829D01*
X144461887Y-84767240D02*
X144455605Y-84785316D01*
X144468467Y-84749615D02*
X144461887Y-84767240D01*
X144475304Y-84732457D02*
X144468467Y-84749615D01*
X144482359Y-84715781D02*
X144475304Y-84732457D01*
X144489593Y-84699604D02*
X144482359Y-84715781D01*
X144496965Y-84683940D02*
X144489593Y-84699604D01*
X144504437Y-84668805D02*
X144496965Y-84683940D01*
X144511968Y-84654214D02*
X144504437Y-84668805D01*
X144527049Y-84626730D02*
X144511968Y-84654214D01*
X144541891Y-84601610D02*
X144527049Y-84626730D01*
X144556176Y-84578980D02*
X144541891Y-84601610D01*
X144569587Y-84558964D02*
X144556176Y-84578980D01*
X144581806Y-84541686D02*
X144569587Y-84558964D01*
X144592516Y-84527270D02*
X144581806Y-84541686D01*
X144608136Y-84507524D02*
X144592516Y-84527270D01*
X144613908Y-84500721D02*
X144608136Y-84507524D01*
D19*
X144826125Y-84259209D02*
X144763874Y-84631478D01*
X144428141Y-84485296D01*
X144658257Y-84186105D01*
X144826125Y-84259209D01*
G36*
X144826125Y-84259209D02*
G01*
X144763874Y-84631478D01*
X144428141Y-84485296D01*
X144658257Y-84186105D01*
X144826125Y-84259209D01*
G37*
X145366044Y-81783588D02*
X145392913Y-81784655D01*
X145419800Y-81786395D01*
X145446690Y-81788812D01*
X145473574Y-81791912D01*
X145500439Y-81795700D01*
X145527274Y-81800180D01*
X145554067Y-81805358D01*
X145580806Y-81811238D01*
X145607480Y-81817826D01*
X145634077Y-81825126D01*
X145660585Y-81833144D01*
X145686993Y-81841883D01*
X145713289Y-81851350D01*
X145739462Y-81861549D01*
X145765499Y-81872486D01*
X145816543Y-81896307D01*
X145865782Y-81922482D01*
X145913183Y-81950917D01*
X145958708Y-81981517D01*
X146002322Y-82014189D01*
X146043990Y-82048837D01*
X146083674Y-82085369D01*
X146121341Y-82123689D01*
X146156953Y-82163704D01*
X146190476Y-82205319D01*
X146221872Y-82248440D01*
X146251108Y-82292973D01*
X146278146Y-82338823D01*
X146302951Y-82385897D01*
X146325488Y-82434101D01*
X146345720Y-82483339D01*
X146363612Y-82533518D01*
X146379128Y-82584544D01*
X146392232Y-82636322D01*
X146402889Y-82688759D01*
X146411062Y-82741760D01*
X146416716Y-82795230D01*
X146419815Y-82849076D01*
X146420324Y-82903204D01*
X146418206Y-82957518D01*
X146413426Y-83011926D01*
X146405949Y-83066333D01*
X146395737Y-83120644D01*
X146382756Y-83174766D01*
X146366970Y-83228604D01*
X146348343Y-83282064D01*
X146326839Y-83335052D01*
X146275155Y-83439981D01*
X146211341Y-83546035D01*
X146136576Y-83651709D01*
X146052043Y-83755499D01*
X145958922Y-83855901D01*
X145858395Y-83951411D01*
X145751643Y-84040525D01*
X145639848Y-84121739D01*
X145524191Y-84193550D01*
X145465283Y-84225458D01*
X145405853Y-84254452D01*
X145346048Y-84280342D01*
X145286016Y-84302942D01*
X145225904Y-84322062D01*
X145165860Y-84337516D01*
X145106033Y-84349114D01*
X145046568Y-84356669D01*
X144987615Y-84359994D01*
X144929320Y-84358899D01*
X144871832Y-84353197D01*
X144815299Y-84342701D01*
X144759866Y-84327221D01*
X144705684Y-84306570D01*
X144653656Y-84280974D01*
X144604562Y-84250940D01*
X144558364Y-84216705D01*
X144515027Y-84178505D01*
X144474513Y-84136576D01*
X144436785Y-84091155D01*
X144401805Y-84042477D01*
X144369538Y-83990779D01*
X144339945Y-83936297D01*
X144312990Y-83879267D01*
X144266846Y-83758507D01*
X144230809Y-83630389D01*
X144204584Y-83496803D01*
X144187873Y-83359637D01*
X144180382Y-83220782D01*
X144181813Y-83082125D01*
X144191871Y-82945557D01*
X144210259Y-82812967D01*
X144236682Y-82686245D01*
X144270843Y-82567278D01*
X144312447Y-82457958D01*
X144349526Y-82380864D01*
X144391688Y-82307828D01*
X144438617Y-82238979D01*
X144489997Y-82174444D01*
X144545516Y-82114351D01*
X144604856Y-82058830D01*
X144667704Y-82008008D01*
X144733745Y-81962012D01*
X144802662Y-81920971D01*
X144874143Y-81885014D01*
X144947871Y-81854268D01*
X145023532Y-81828861D01*
X145100810Y-81808922D01*
X145179391Y-81794578D01*
X145258960Y-81785957D01*
X145339202Y-81783189D01*
X145366044Y-81783588D01*
G36*
X145366044Y-81783588D02*
G01*
X145392913Y-81784655D01*
X145419800Y-81786395D01*
X145446690Y-81788812D01*
X145473574Y-81791912D01*
X145500439Y-81795700D01*
X145527274Y-81800180D01*
X145554067Y-81805358D01*
X145580806Y-81811238D01*
X145607480Y-81817826D01*
X145634077Y-81825126D01*
X145660585Y-81833144D01*
X145686993Y-81841883D01*
X145713289Y-81851350D01*
X145739462Y-81861549D01*
X145765499Y-81872486D01*
X145816543Y-81896307D01*
X145865782Y-81922482D01*
X145913183Y-81950917D01*
X145958708Y-81981517D01*
X146002322Y-82014189D01*
X146043990Y-82048837D01*
X146083674Y-82085369D01*
X146121341Y-82123689D01*
X146156953Y-82163704D01*
X146190476Y-82205319D01*
X146221872Y-82248440D01*
X146251108Y-82292973D01*
X146278146Y-82338823D01*
X146302951Y-82385897D01*
X146325488Y-82434101D01*
X146345720Y-82483339D01*
X146363612Y-82533518D01*
X146379128Y-82584544D01*
X146392232Y-82636322D01*
X146402889Y-82688759D01*
X146411062Y-82741760D01*
X146416716Y-82795230D01*
X146419815Y-82849076D01*
X146420324Y-82903204D01*
X146418206Y-82957518D01*
X146413426Y-83011926D01*
X146405949Y-83066333D01*
X146395737Y-83120644D01*
X146382756Y-83174766D01*
X146366970Y-83228604D01*
X146348343Y-83282064D01*
X146326839Y-83335052D01*
X146275155Y-83439981D01*
X146211341Y-83546035D01*
X146136576Y-83651709D01*
X146052043Y-83755499D01*
X145958922Y-83855901D01*
X145858395Y-83951411D01*
X145751643Y-84040525D01*
X145639848Y-84121739D01*
X145524191Y-84193550D01*
X145465283Y-84225458D01*
X145405853Y-84254452D01*
X145346048Y-84280342D01*
X145286016Y-84302942D01*
X145225904Y-84322062D01*
X145165860Y-84337516D01*
X145106033Y-84349114D01*
X145046568Y-84356669D01*
X144987615Y-84359994D01*
X144929320Y-84358899D01*
X144871832Y-84353197D01*
X144815299Y-84342701D01*
X144759866Y-84327221D01*
X144705684Y-84306570D01*
X144653656Y-84280974D01*
X144604562Y-84250940D01*
X144558364Y-84216705D01*
X144515027Y-84178505D01*
X144474513Y-84136576D01*
X144436785Y-84091155D01*
X144401805Y-84042477D01*
X144369538Y-83990779D01*
X144339945Y-83936297D01*
X144312990Y-83879267D01*
X144266846Y-83758507D01*
X144230809Y-83630389D01*
X144204584Y-83496803D01*
X144187873Y-83359637D01*
X144180382Y-83220782D01*
X144181813Y-83082125D01*
X144191871Y-82945557D01*
X144210259Y-82812967D01*
X144236682Y-82686245D01*
X144270843Y-82567278D01*
X144312447Y-82457958D01*
X144349526Y-82380864D01*
X144391688Y-82307828D01*
X144438617Y-82238979D01*
X144489997Y-82174444D01*
X144545516Y-82114351D01*
X144604856Y-82058830D01*
X144667704Y-82008008D01*
X144733745Y-81962012D01*
X144802662Y-81920971D01*
X144874143Y-81885014D01*
X144947871Y-81854268D01*
X145023532Y-81828861D01*
X145100810Y-81808922D01*
X145179391Y-81794578D01*
X145258960Y-81785957D01*
X145339202Y-81783189D01*
X145366044Y-81783588D01*
G37*
%TD*%
D20*
%TO.C,R9*%
X145825000Y-68800000D03*
X144175000Y-68800000D03*
%TD*%
D21*
%TO.C,C17*%
X114550000Y-48900000D03*
X116100000Y-48900000D03*
%TD*%
D22*
%TO.C,C1*%
X124670000Y-63825600D03*
X123710000Y-63825600D03*
%TD*%
D23*
%TO.C,SW3*%
X113560098Y-77455002D03*
X106760102Y-77455002D03*
D24*
X112700100Y-75255001D03*
X110160100Y-79655000D03*
X107620100Y-75255001D03*
%TD*%
D25*
%TO.C,U1*%
X127780000Y-70285600D03*
X128180000Y-70285600D03*
X128580000Y-70285600D03*
X128980000Y-70285600D03*
X129380000Y-70285600D03*
X129780000Y-70285600D03*
X130180000Y-70285600D03*
X130580000Y-70285600D03*
X130980000Y-70285600D03*
X131380000Y-70285600D03*
X131780000Y-70285600D03*
X132180000Y-70285600D03*
X132580000Y-70285600D03*
X132980000Y-70285600D03*
D26*
X133817500Y-69448100D03*
X133817500Y-69048100D03*
X133817500Y-68648100D03*
X133817500Y-68248100D03*
X133817500Y-67848100D03*
X133817500Y-67448100D03*
X133817500Y-67048100D03*
X133817500Y-66648100D03*
X133817500Y-66248100D03*
X133817500Y-65848100D03*
X133817500Y-65448100D03*
X133817500Y-65048100D03*
X133817500Y-64648100D03*
X133817500Y-64248100D03*
D25*
X132980000Y-63410600D03*
X132580000Y-63410600D03*
X132180000Y-63410600D03*
X131780000Y-63410600D03*
X131380000Y-63410600D03*
X130980000Y-63410600D03*
X130580000Y-63410600D03*
X130180000Y-63410600D03*
X129780000Y-63410600D03*
X129380000Y-63410600D03*
X128980000Y-63410600D03*
X128580000Y-63410600D03*
X128180000Y-63410600D03*
X127780000Y-63410600D03*
D26*
X126942500Y-64248100D03*
X126942500Y-64648100D03*
X126942500Y-65048100D03*
X126942500Y-65448100D03*
X126942500Y-65848100D03*
X126942500Y-66248100D03*
X126942500Y-66648100D03*
X126942500Y-67048100D03*
X126942500Y-67448100D03*
X126942500Y-67848100D03*
X126942500Y-68248100D03*
X126942500Y-68648100D03*
X126942500Y-69048100D03*
X126942500Y-69448100D03*
D27*
X130380000Y-66848100D03*
%TD*%
D28*
%TO.C,R29*%
X119216637Y-62983363D03*
X120383363Y-61816637D03*
%TD*%
D29*
%TO.C,U10*%
X118707551Y-69498103D03*
X118707551Y-68548102D03*
X118707551Y-67598101D03*
X115982649Y-67598101D03*
X115982649Y-68548102D03*
X115982649Y-69498103D03*
%TD*%
D30*
%TO.C,BT2*%
X144200000Y-66450000D03*
%TD*%
D31*
%TO.C,R24*%
X143000000Y-45075000D03*
X143000000Y-46725000D03*
%TD*%
D32*
%TO.C,C21*%
X111700000Y-57050000D03*
X111700000Y-58950000D03*
%TD*%
D33*
%TO.C,R5*%
X136010000Y-67065600D03*
X134990000Y-67065600D03*
%TD*%
D34*
%TO.C,H2*%
X108300000Y-84100000D03*
%TD*%
D35*
%TO.C,R33*%
X119200000Y-45025000D03*
X119200000Y-43375000D03*
%TD*%
D36*
%TO.C,TP1*%
X128800000Y-56900000D03*
%TD*%
D31*
%TO.C,R17*%
X123700000Y-59575000D03*
X123700000Y-61225000D03*
%TD*%
D37*
%TO.C,R26*%
X119283363Y-56983363D03*
X118116637Y-55816637D03*
%TD*%
D38*
%TO.C,J2*%
X112400100Y-65708102D03*
X112400100Y-71488102D03*
D39*
X113475100Y-65398102D03*
X113475100Y-66198102D03*
D40*
X113475100Y-67348102D03*
X113475100Y-68348102D03*
X113475100Y-68848102D03*
X113475100Y-69848102D03*
D39*
X113475100Y-70998102D03*
X113475100Y-71798102D03*
X113475100Y-71798102D03*
X113475100Y-70998102D03*
D40*
X113475100Y-70348102D03*
X113475100Y-69348102D03*
X113475100Y-67848102D03*
X113475100Y-66848102D03*
D39*
X113475100Y-66198102D03*
X113475100Y-65398102D03*
D41*
X112900100Y-64278102D03*
D42*
X108720100Y-64278102D03*
D41*
X112900100Y-72918102D03*
D42*
X108720100Y-72918102D03*
%TD*%
D35*
%TO.C,R32*%
X111400000Y-49825000D03*
X111400000Y-48175000D03*
%TD*%
%TO.C,R15*%
X113300000Y-62325000D03*
X113300000Y-60675000D03*
%TD*%
D43*
%TO.C,J3*%
X98300000Y-59400000D03*
X98300000Y-48400000D03*
D44*
X108300000Y-51400000D03*
D45*
X108300000Y-56400000D03*
%TD*%
D46*
%TO.C,C9*%
X131130000Y-62235600D03*
X131130000Y-61275600D03*
%TD*%
D47*
%TO.C,Q1*%
X116962500Y-72350000D03*
X116962500Y-74250000D03*
X119237500Y-73300000D03*
%TD*%
D48*
%TO.C,C28*%
X129485000Y-52725000D03*
X132435000Y-52725000D03*
%TD*%
D49*
%TO.C,C25*%
X129600000Y-45650000D03*
X129600000Y-43750000D03*
%TD*%
D36*
%TO.C,TP6*%
X113400000Y-44600000D03*
%TD*%
D21*
%TO.C,C39*%
X149300000Y-60500000D03*
X150850000Y-60500000D03*
%TD*%
D50*
%TO.C,U6*%
X122724998Y-56325000D03*
X122024999Y-56325000D03*
D51*
X121250000Y-56249999D03*
X121250000Y-56750000D03*
X121250000Y-57250000D03*
X121250000Y-57750001D03*
D50*
X122024999Y-57675000D03*
X122724998Y-57675000D03*
D51*
X123549998Y-57750001D03*
X123549998Y-57250000D03*
X123549998Y-56750000D03*
X123549998Y-56249999D03*
%TD*%
D52*
%TO.C,U8*%
X124025501Y-46512500D03*
D53*
X124837501Y-46512500D03*
X125337500Y-46512500D03*
D54*
X126987502Y-46312500D03*
X126987502Y-43912500D03*
D53*
X125337500Y-43712500D03*
X124837501Y-43712500D03*
D52*
X124025501Y-43712500D03*
D55*
X123937503Y-44612501D03*
D56*
X124237501Y-45112500D03*
D57*
X125757501Y-45112500D03*
X126757502Y-45112500D03*
X127757500Y-45112500D03*
D55*
X123937503Y-45612499D03*
%TD*%
D58*
%TO.C,C13*%
X135970000Y-68025600D03*
X135970000Y-68985600D03*
%TD*%
D21*
%TO.C,C33*%
X125225000Y-59400000D03*
X126775000Y-59400000D03*
%TD*%
D28*
%TO.C,R23*%
X117816637Y-62083363D03*
X118983363Y-60916637D03*
%TD*%
D59*
%TO.C,U11*%
X143300000Y-72600000D03*
X144550000Y-72600000D03*
X145800000Y-72600000D03*
X147050000Y-72600000D03*
X147050000Y-70450000D03*
X145800000Y-70450000D03*
X144550000Y-70450000D03*
X143300000Y-70450000D03*
%TD*%
D60*
%TO.C,C24*%
X122575000Y-43300000D03*
X121025000Y-43300000D03*
%TD*%
D35*
%TO.C,R14*%
X147300000Y-66025000D03*
X147300000Y-64375000D03*
%TD*%
D58*
%TO.C,C10*%
X131300000Y-71465600D03*
X131300000Y-72425600D03*
%TD*%
D34*
%TO.C,H1*%
X108300000Y-45300000D03*
%TD*%
D35*
%TO.C,R10*%
X129310000Y-49100000D03*
X129310000Y-47450000D03*
%TD*%
D21*
%TO.C,C16*%
X124725000Y-55600000D03*
X126275000Y-55600000D03*
%TD*%
D61*
%TO.C,B1*%
X135650000Y-71800000D03*
X139750000Y-71800000D03*
X135650000Y-73400000D03*
X139750000Y-73400000D03*
%TD*%
D58*
%TO.C,C6*%
X122675000Y-67545000D03*
X122675000Y-68505000D03*
%TD*%
D62*
%TO.C,SW2*%
X135025002Y-78182700D03*
X131524998Y-78182700D03*
X133275000Y-82067300D03*
%TD*%
D63*
%TO.C,C18*%
X118800000Y-52375000D03*
X118800000Y-49425000D03*
%TD*%
D48*
%TO.C,C38*%
X123350000Y-48900000D03*
X126300000Y-48900000D03*
%TD*%
D64*
%TO.C,C3*%
X136950000Y-64615600D03*
X137910000Y-64615600D03*
%TD*%
D58*
%TO.C,C12*%
X121725000Y-67535600D03*
X121725000Y-68495600D03*
%TD*%
D65*
%TO.C,Y1*%
X137320000Y-67955600D03*
X137320000Y-69705600D03*
X138720000Y-69705600D03*
X138720000Y-67955600D03*
%TD*%
D66*
%TO.C,C29*%
X143700000Y-74225000D03*
X143700000Y-75775000D03*
%TD*%
D31*
%TO.C,R16*%
X114900000Y-60675000D03*
X114900000Y-62325000D03*
%TD*%
%TO.C,R11*%
X141500000Y-71975000D03*
X141500000Y-73625000D03*
%TD*%
D67*
%TO.C,C23*%
X122400000Y-46975000D03*
X122400000Y-45425000D03*
%TD*%
D36*
%TO.C,TP2*%
X132300000Y-56800000D03*
%TD*%
D35*
%TO.C,R20*%
X120800000Y-46425000D03*
X120800000Y-44775000D03*
%TD*%
D68*
%TO.C,U9*%
X107725001Y-59149999D03*
X107725001Y-59800000D03*
X107725001Y-60449999D03*
X109674999Y-60449999D03*
X109674999Y-59800000D03*
X109674999Y-59149999D03*
D69*
X108700000Y-59800000D03*
%TD*%
D64*
%TO.C,C11*%
X136950000Y-65595600D03*
X137910000Y-65595600D03*
%TD*%
D70*
%TO.C,J1*%
X149900000Y-71425000D03*
D71*
X149900000Y-68885000D03*
X149900000Y-66345000D03*
%TD*%
D72*
%TO.C,L4*%
X125500000Y-51100000D03*
X125500000Y-53900000D03*
%TD*%
D73*
%TO.C,R25*%
X118816637Y-54316637D03*
X119983363Y-55483363D03*
%TD*%
D74*
%TO.C,R6*%
X140975000Y-68800000D03*
X142625000Y-68800000D03*
%TD*%
D28*
%TO.C,R22*%
X115616637Y-64283363D03*
X116783363Y-63116637D03*
%TD*%
D22*
%TO.C,C2*%
X124670000Y-62815600D03*
X123710000Y-62815600D03*
%TD*%
D75*
%TO.C,R2*%
X123680000Y-65835600D03*
X124700000Y-65835600D03*
%TD*%
D64*
%TO.C,C14*%
X136950000Y-66595600D03*
X137910000Y-66595600D03*
%TD*%
D76*
%TO.C,C30*%
X140500000Y-75500000D03*
X141904778Y-76155058D03*
%TD*%
D20*
%TO.C,R4*%
X132250000Y-76125000D03*
X130600000Y-76125000D03*
%TD*%
D66*
%TO.C,C15*%
X122200000Y-61825000D03*
X122200000Y-63375000D03*
%TD*%
D52*
%TO.C,U5*%
X112225501Y-54200000D03*
D53*
X113037501Y-54200000D03*
X113537500Y-54200000D03*
D54*
X115187502Y-54000000D03*
X115187502Y-51600000D03*
D53*
X113537500Y-51400000D03*
X113037501Y-51400000D03*
D52*
X112225501Y-51400000D03*
D55*
X112137503Y-52300001D03*
D56*
X112437501Y-52800000D03*
D57*
X113957501Y-52800000D03*
X114957502Y-52800000D03*
X115957500Y-52800000D03*
D55*
X112137503Y-53299999D03*
%TD*%
D58*
%TO.C,C5*%
X126980000Y-71515600D03*
X126980000Y-72475600D03*
%TD*%
D31*
%TO.C,R31*%
X113000000Y-47375000D03*
X113000000Y-49025000D03*
%TD*%
%TO.C,R21*%
X144600000Y-45075000D03*
X144600000Y-46725000D03*
%TD*%
D77*
%TO.C,R28*%
X117783363Y-59816637D03*
X116616637Y-60983363D03*
%TD*%
D35*
%TO.C,R12*%
X115917500Y-77615000D03*
X115917500Y-75965000D03*
%TD*%
D22*
%TO.C,C4*%
X124530000Y-68125600D03*
X123570000Y-68125600D03*
%TD*%
D75*
%TO.C,R1*%
X123680000Y-64835600D03*
X124700000Y-64835600D03*
%TD*%
D46*
%TO.C,C32*%
X126690000Y-62175600D03*
X126690000Y-61215600D03*
%TD*%
D78*
%TO.C,J4*%
X116805000Y-81500000D03*
X118055000Y-81500000D03*
X119305000Y-81500000D03*
X120555000Y-81500000D03*
X121805000Y-81500000D03*
X123055000Y-81500000D03*
X124305000Y-81500000D03*
X125555000Y-81500000D03*
X126805000Y-81500000D03*
X128055000Y-81500000D03*
D79*
X114255000Y-84400000D03*
X130605000Y-84400000D03*
%TD*%
D80*
%TO.C,D1*%
X119155000Y-75950000D03*
X117580000Y-75950000D03*
%TD*%
D67*
%TO.C,C34*%
X120800000Y-51775000D03*
X120800000Y-50225000D03*
%TD*%
D31*
%TO.C,R13*%
X123100000Y-52475000D03*
X123100000Y-54125000D03*
%TD*%
D60*
%TO.C,C40*%
X147250000Y-60500000D03*
X145700000Y-60500000D03*
%TD*%
D73*
%TO.C,R27*%
X117716637Y-57616637D03*
X118883363Y-58783363D03*
%TD*%
D22*
%TO.C,C7*%
X119515000Y-71035000D03*
X118555000Y-71035000D03*
%TD*%
D34*
%TO.C,H3*%
X149100000Y-84100000D03*
%TD*%
D36*
%TO.C,TP4*%
X116800000Y-46400000D03*
%TD*%
D77*
%TO.C,R30*%
X118183363Y-63916637D03*
X117016637Y-65083363D03*
%TD*%
D49*
%TO.C,C31*%
X131700000Y-45650000D03*
X131700000Y-43750000D03*
%TD*%
D81*
%TO.C,L3*%
X131685000Y-50525000D03*
X131685000Y-47725000D03*
%TD*%
D82*
%TO.C,D2*%
X148100000Y-62500000D03*
X150900000Y-62500000D03*
%TD*%
D66*
%TO.C,C19*%
X113500000Y-56425000D03*
X113500000Y-57975000D03*
%TD*%
D83*
%TO.C,J5*%
X149100000Y-46450000D03*
D84*
X147625000Y-44950000D03*
D83*
X149100000Y-43450000D03*
D84*
X150575000Y-44950000D03*
%TD*%
D85*
%TO.C,R8*%
X106387500Y-62400000D03*
X108212500Y-62400000D03*
%TD*%
D46*
%TO.C,C8*%
X125660000Y-62175600D03*
X125660000Y-61215600D03*
%TD*%
D86*
%TO.C,U7*%
X137700000Y-75800000D03*
X138500000Y-75800000D03*
X138100000Y-76100000D03*
X137700000Y-76400000D03*
X138500000Y-76400000D03*
X138100000Y-76700000D03*
X137700000Y-77000000D03*
X138500000Y-77000000D03*
%TD*%
D87*
%TO.C,R7*%
X111612500Y-62400000D03*
X109787500Y-62400000D03*
%TD*%
D20*
%TO.C,R3*%
X119182500Y-77590000D03*
X117532500Y-77590000D03*
%TD*%
D88*
%TO.C,U2*%
X121180000Y-75571000D03*
X122450000Y-75571000D03*
X123720000Y-75571000D03*
X124990000Y-75571000D03*
X124990000Y-69830600D03*
X123720000Y-69830600D03*
X122450000Y-69830600D03*
X121180000Y-69830600D03*
D89*
X123085000Y-72700800D03*
%TD*%
D90*
%TO.C,C20*%
X115500000Y-55925000D03*
X115500000Y-58875000D03*
%TD*%
D91*
%TO.C,U3*%
X141900000Y-58300000D03*
D92*
X143000000Y-58300000D03*
X144100000Y-58300000D03*
X145200000Y-58300000D03*
X146300000Y-58300000D03*
X147400000Y-58300000D03*
X148500000Y-58300000D03*
X149600000Y-58300000D03*
D91*
X150700000Y-58300000D03*
X150700000Y-48800000D03*
D92*
X149600000Y-48800000D03*
X148500000Y-48800000D03*
X147400000Y-48800000D03*
X146300000Y-48800000D03*
X145200000Y-48800000D03*
X144100000Y-48800000D03*
X143000000Y-48800000D03*
D91*
X141900000Y-48800000D03*
%TD*%
D36*
%TO.C,TP5*%
X135100000Y-49900000D03*
%TD*%
%LPD*%
M02*
