%TF.GenerationSoftware,KiCad,Pcbnew,7.0.2*%
%TF.CreationDate,2023-10-17T14:13:22-04:00*%
%TF.ProjectId,BITSv5,42495453-7635-42e6-9b69-6361645f7063,rev?*%
%TF.SameCoordinates,Original*%
%TF.FileFunction,Drillmap*%
%TF.FilePolarity,Positive*%
%FSLAX45Y45*%
G04 Gerber Fmt 4.5, Leading zero omitted, Abs format (unit mm)*
G04 Created by KiCad (PCBNEW 7.0.2) date 2023-10-17 14:13:22*
%MOMM*%
%LPD*%
G01*
G04 APERTURE LIST*
%ADD10C,0.100000*%
%ADD11C,0.200000*%
%ADD12C,0.030000*%
%ADD13C,0.035000*%
%ADD14C,0.045000*%
%ADD15C,0.060000*%
%ADD16C,0.085000*%
%ADD17C,0.190000*%
%ADD18C,0.220000*%
G04 APERTURE END LIST*
D10*
X10822500Y-4220000D02*
X14922500Y-4220000D01*
X10822500Y-4220000D02*
G75*
G03*
X10522500Y-4520000I0J-300000D01*
G01*
X10522500Y-8420000D02*
X10522500Y-4520000D01*
X14922500Y-8720000D02*
G75*
G03*
X15222500Y-8420000I0J300000D01*
G01*
X15222500Y-8420000D02*
X15222500Y-4520000D01*
X14922500Y-8720000D02*
X10822500Y-8720000D01*
X10522500Y-8420000D02*
G75*
G03*
X10822500Y-8720000I300000J0D01*
G01*
X15222500Y-4520000D02*
G75*
G03*
X14922500Y-4220000I-300000J0D01*
G01*
D11*
D12*
X11110000Y-4791000D02*
X11140000Y-4821000D01*
X11140000Y-4791000D02*
X11110000Y-4821000D01*
X11199510Y-7019810D02*
X11229510Y-7049810D01*
X11229510Y-7019810D02*
X11199510Y-7049810D01*
X11209510Y-6719810D02*
X11239510Y-6749810D01*
X11239510Y-6719810D02*
X11209510Y-6749810D01*
X11406000Y-5171000D02*
X11436000Y-5201000D01*
X11436000Y-5171000D02*
X11406000Y-5201000D01*
X11415000Y-5303000D02*
X11445000Y-5333000D01*
X11445000Y-5303000D02*
X11415000Y-5333000D01*
X11425000Y-8147500D02*
X11455000Y-8177500D01*
X11455000Y-8147500D02*
X11425000Y-8177500D01*
X11458000Y-7749000D02*
X11488000Y-7779000D01*
X11488000Y-7749000D02*
X11458000Y-7779000D01*
X11539000Y-6423000D02*
X11569000Y-6453000D01*
X11569000Y-6423000D02*
X11539000Y-6453000D01*
X11597000Y-6350000D02*
X11627000Y-6380000D01*
X11627000Y-6350000D02*
X11597000Y-6380000D01*
X11667500Y-7885000D02*
X11697500Y-7915000D01*
X11697500Y-7885000D02*
X11667500Y-7915000D01*
X11730000Y-7882500D02*
X11760000Y-7912500D01*
X11760000Y-7882500D02*
X11730000Y-7912500D01*
X11748750Y-7225000D02*
X11778750Y-7255000D01*
X11778750Y-7225000D02*
X11748750Y-7255000D01*
X11763000Y-6907000D02*
X11793000Y-6937000D01*
X11793000Y-6907000D02*
X11763000Y-6937000D01*
X11763000Y-7087000D02*
X11793000Y-7117000D01*
X11793000Y-7087000D02*
X11763000Y-7117000D01*
X11764000Y-6767000D02*
X11794000Y-6797000D01*
X11794000Y-6767000D02*
X11764000Y-6797000D01*
X11767000Y-6833000D02*
X11797000Y-6863000D01*
X11797000Y-6833000D02*
X11767000Y-6863000D01*
X11792500Y-7882500D02*
X11822500Y-7912500D01*
X11822500Y-7882500D02*
X11792500Y-7912500D01*
X11818000Y-6450000D02*
X11848000Y-6480000D01*
X11848000Y-6450000D02*
X11818000Y-6480000D01*
X11820000Y-7490000D02*
X11850000Y-7520000D01*
X11850000Y-7490000D02*
X11820000Y-7520000D01*
X11888000Y-6620000D02*
X11918000Y-6650000D01*
X11918000Y-6620000D02*
X11888000Y-6650000D01*
X11918000Y-4484000D02*
X11948000Y-4514000D01*
X11948000Y-4484000D02*
X11918000Y-4514000D01*
X11918000Y-4591000D02*
X11948000Y-4621000D01*
X11948000Y-4591000D02*
X11918000Y-4621000D01*
X11922000Y-4369000D02*
X11952000Y-4399000D01*
X11952000Y-4369000D02*
X11922000Y-4399000D01*
X11923000Y-4725000D02*
X11953000Y-4755000D01*
X11953000Y-4725000D02*
X11923000Y-4755000D01*
X11925000Y-4274000D02*
X11955000Y-4304000D01*
X11955000Y-4274000D02*
X11925000Y-4304000D01*
X11937000Y-6451000D02*
X11967000Y-6481000D01*
X11967000Y-6451000D02*
X11937000Y-6481000D01*
X11965000Y-4813000D02*
X11995000Y-4843000D01*
X11995000Y-4813000D02*
X11965000Y-4843000D01*
X12012000Y-7296000D02*
X12042000Y-7326000D01*
X12042000Y-7296000D02*
X12012000Y-7326000D01*
X12019000Y-7024000D02*
X12049000Y-7054000D01*
X12049000Y-7024000D02*
X12019000Y-7054000D01*
X12091000Y-6854000D02*
X12121000Y-6884000D01*
X12121000Y-6854000D02*
X12091000Y-6884000D01*
X12100000Y-8010000D02*
X12130000Y-8040000D01*
X12130000Y-8010000D02*
X12100000Y-8040000D01*
X12102000Y-4819000D02*
X12132000Y-4849000D01*
X12132000Y-4819000D02*
X12102000Y-4849000D01*
X12168000Y-6900000D02*
X12198000Y-6930000D01*
X12198000Y-6900000D02*
X12168000Y-6930000D01*
X12215500Y-5771000D02*
X12245500Y-5801000D01*
X12245500Y-5771000D02*
X12215500Y-5801000D01*
X12220000Y-4819000D02*
X12250000Y-4849000D01*
X12250000Y-4819000D02*
X12220000Y-4849000D01*
X12263000Y-5703500D02*
X12293000Y-5733500D01*
X12293000Y-5703500D02*
X12263000Y-5733500D01*
X12350000Y-4821000D02*
X12380000Y-4851000D01*
X12380000Y-4821000D02*
X12350000Y-4851000D01*
X12415000Y-8285000D02*
X12445000Y-8315000D01*
X12445000Y-8285000D02*
X12415000Y-8315000D01*
X12421640Y-7542100D02*
X12451640Y-7572100D01*
X12451640Y-7542100D02*
X12421640Y-7572100D01*
X12483000Y-5581000D02*
X12513000Y-5611000D01*
X12513000Y-5581000D02*
X12483000Y-5611000D01*
X12485500Y-5351000D02*
X12515500Y-5381000D01*
X12515500Y-5351000D02*
X12485500Y-5381000D01*
X12491000Y-4820000D02*
X12521000Y-4850000D01*
X12521000Y-4820000D02*
X12491000Y-4850000D01*
X12534000Y-5789000D02*
X12564000Y-5819000D01*
X12564000Y-5789000D02*
X12534000Y-5819000D01*
X12608000Y-5128500D02*
X12638000Y-5158500D01*
X12638000Y-5128500D02*
X12608000Y-5158500D01*
X12613000Y-6023000D02*
X12643000Y-6053000D01*
X12643000Y-6023000D02*
X12613000Y-6053000D01*
X12622000Y-4821000D02*
X12652000Y-4851000D01*
X12652000Y-4821000D02*
X12622000Y-4851000D01*
X12651000Y-6332000D02*
X12681000Y-6362000D01*
X12681000Y-6332000D02*
X12651000Y-6362000D01*
X12683000Y-7306560D02*
X12713000Y-7336560D01*
X12713000Y-7306560D02*
X12683000Y-7336560D01*
X12685000Y-6038000D02*
X12715000Y-6068000D01*
X12715000Y-6038000D02*
X12685000Y-6068000D01*
X12686000Y-7001000D02*
X12716000Y-7031000D01*
X12716000Y-7001000D02*
X12686000Y-7031000D01*
X12692000Y-7428000D02*
X12722000Y-7458000D01*
X12722000Y-7428000D02*
X12692000Y-7458000D01*
X12695000Y-5964000D02*
X12725000Y-5994000D01*
X12725000Y-5964000D02*
X12695000Y-5994000D01*
X12735500Y-5581000D02*
X12765500Y-5611000D01*
X12765500Y-5581000D02*
X12735500Y-5611000D01*
X12738000Y-5351000D02*
X12768000Y-5381000D01*
X12768000Y-5351000D02*
X12738000Y-5381000D01*
X12755500Y-5126000D02*
X12785500Y-5156000D01*
X12785500Y-5126000D02*
X12755500Y-5156000D01*
X12770000Y-6597000D02*
X12800000Y-6627000D01*
X12800000Y-6597000D02*
X12770000Y-6627000D01*
X12777000Y-4944000D02*
X12807000Y-4974000D01*
X12807000Y-4944000D02*
X12777000Y-4974000D01*
X12778000Y-4820000D02*
X12808000Y-4850000D01*
X12808000Y-4820000D02*
X12778000Y-4850000D01*
X12783000Y-7168000D02*
X12813000Y-7198000D01*
X12813000Y-7168000D02*
X12783000Y-7198000D01*
X12788000Y-5038000D02*
X12818000Y-5068000D01*
X12818000Y-5038000D02*
X12788000Y-5068000D01*
X12789000Y-7318000D02*
X12819000Y-7348000D01*
X12819000Y-7318000D02*
X12789000Y-7348000D01*
X12793000Y-7100000D02*
X12823000Y-7130000D01*
X12823000Y-7100000D02*
X12793000Y-7130000D01*
X12796000Y-6458000D02*
X12826000Y-6488000D01*
X12826000Y-6458000D02*
X12796000Y-6488000D01*
X12825500Y-5138500D02*
X12855500Y-5168500D01*
X12855500Y-5138500D02*
X12825500Y-5168500D01*
X12847622Y-6130378D02*
X12877622Y-6160378D01*
X12877622Y-6130378D02*
X12847622Y-6160378D01*
X12852000Y-7709000D02*
X12882000Y-7739000D01*
X12882000Y-7709000D02*
X12852000Y-7739000D01*
X12855000Y-6419000D02*
X12885000Y-6449000D01*
X12885000Y-6419000D02*
X12855000Y-6449000D01*
X12869000Y-6069000D02*
X12899000Y-6099000D01*
X12899000Y-6069000D02*
X12869000Y-6099000D01*
X12912000Y-4817000D02*
X12942000Y-4847000D01*
X12942000Y-4817000D02*
X12912000Y-4847000D01*
X12917000Y-5138000D02*
X12947000Y-5168000D01*
X12947000Y-5138000D02*
X12917000Y-5168000D01*
X12929000Y-6022800D02*
X12959000Y-6052800D01*
X12959000Y-6022800D02*
X12929000Y-6052800D01*
X12963000Y-5701000D02*
X12993000Y-5731000D01*
X12993000Y-5701000D02*
X12963000Y-5731000D01*
X12976194Y-4914806D02*
X13006194Y-4944806D01*
X13006194Y-4914806D02*
X12976194Y-4944806D01*
X13003000Y-5988000D02*
X13033000Y-6018000D01*
X13033000Y-5988000D02*
X13003000Y-6018000D01*
X13013000Y-5771000D02*
X13043000Y-5801000D01*
X13043000Y-5771000D02*
X13013000Y-5801000D01*
X13054000Y-7157000D02*
X13084000Y-7187000D01*
X13084000Y-7157000D02*
X13054000Y-7187000D01*
X13061000Y-4814000D02*
X13091000Y-4844000D01*
X13091000Y-4814000D02*
X13061000Y-4844000D01*
X13065000Y-7307000D02*
X13095000Y-7337000D01*
X13095000Y-7307000D02*
X13065000Y-7337000D01*
X13097000Y-6038000D02*
X13127000Y-6068000D01*
X13127000Y-6038000D02*
X13097000Y-6068000D01*
X13104033Y-6405962D02*
X13134033Y-6435962D01*
X13134033Y-6405962D02*
X13104033Y-6435962D01*
X13108182Y-6915818D02*
X13138182Y-6945818D01*
X13138182Y-6915818D02*
X13108182Y-6945818D01*
X13133000Y-5764000D02*
X13163000Y-5794000D01*
X13163000Y-5764000D02*
X13133000Y-5794000D01*
X13183000Y-6142000D02*
X13213000Y-6172000D01*
X13213000Y-6142000D02*
X13183000Y-6172000D01*
X13192648Y-6403188D02*
X13222648Y-6433188D01*
X13222648Y-6403188D02*
X13192648Y-6433188D01*
X13213000Y-4818000D02*
X13243000Y-4848000D01*
X13243000Y-4818000D02*
X13213000Y-4848000D01*
X13231000Y-7138000D02*
X13261000Y-7168000D01*
X13261000Y-7138000D02*
X13231000Y-7168000D01*
X13236500Y-6919500D02*
X13266500Y-6949500D01*
X13266500Y-6919500D02*
X13236500Y-6949500D01*
X13251000Y-4921000D02*
X13281000Y-4951000D01*
X13281000Y-4921000D02*
X13251000Y-4951000D01*
X13251446Y-6188446D02*
X13281446Y-6218446D01*
X13281446Y-6188446D02*
X13251446Y-6218446D01*
X13271000Y-6770000D02*
X13301000Y-6800000D01*
X13301000Y-6770000D02*
X13271000Y-6800000D01*
X13282000Y-7383000D02*
X13312000Y-7413000D01*
X13312000Y-7383000D02*
X13282000Y-7413000D01*
X13301000Y-6240000D02*
X13331000Y-6270000D01*
X13331000Y-6240000D02*
X13301000Y-6270000D01*
X13312000Y-8319000D02*
X13342000Y-8349000D01*
X13342000Y-8319000D02*
X13312000Y-8349000D01*
X13332300Y-5626690D02*
X13362300Y-5656690D01*
X13362300Y-5626690D02*
X13332300Y-5656690D01*
X13338000Y-4823000D02*
X13368000Y-4853000D01*
X13368000Y-4823000D02*
X13338000Y-4853000D01*
X13341000Y-7014000D02*
X13371000Y-7044000D01*
X13371000Y-7014000D02*
X13341000Y-7044000D01*
X13343000Y-4750000D02*
X13373000Y-4780000D01*
X13373000Y-4750000D02*
X13343000Y-4780000D01*
X13349000Y-4600000D02*
X13379000Y-4630000D01*
X13379000Y-4600000D02*
X13349000Y-4630000D01*
X13366000Y-7601000D02*
X13396000Y-7631000D01*
X13396000Y-7601000D02*
X13366000Y-7631000D01*
X13384000Y-6140000D02*
X13414000Y-6170000D01*
X13414000Y-6140000D02*
X13384000Y-6170000D01*
X13427000Y-4750000D02*
X13457000Y-4780000D01*
X13457000Y-4750000D02*
X13427000Y-4780000D01*
X13431000Y-4596000D02*
X13461000Y-4626000D01*
X13461000Y-4596000D02*
X13431000Y-4626000D01*
X13442000Y-6192000D02*
X13472000Y-6222000D01*
X13472000Y-6192000D02*
X13442000Y-6222000D01*
X13443000Y-4827000D02*
X13473000Y-4857000D01*
X13473000Y-4827000D02*
X13443000Y-4857000D01*
X13474000Y-6412000D02*
X13504000Y-6442000D01*
X13504000Y-6412000D02*
X13474000Y-6442000D01*
X13483000Y-6825000D02*
X13513000Y-6855000D01*
X13513000Y-6825000D02*
X13483000Y-6855000D01*
X13497000Y-4565000D02*
X13527000Y-4595000D01*
X13527000Y-4565000D02*
X13497000Y-4595000D01*
X13520000Y-7618000D02*
X13550000Y-7648000D01*
X13550000Y-7618000D02*
X13520000Y-7648000D01*
X13530000Y-8516000D02*
X13560000Y-8546000D01*
X13560000Y-8516000D02*
X13530000Y-8546000D01*
X13531000Y-8282000D02*
X13561000Y-8312000D01*
X13561000Y-8282000D02*
X13531000Y-8312000D01*
X13531000Y-8402000D02*
X13561000Y-8432000D01*
X13561000Y-8402000D02*
X13531000Y-8432000D01*
X13532000Y-8627000D02*
X13562000Y-8657000D01*
X13562000Y-8627000D02*
X13532000Y-8657000D01*
X13533000Y-4744000D02*
X13563000Y-4774000D01*
X13563000Y-4744000D02*
X13533000Y-4774000D01*
X13544000Y-4826000D02*
X13574000Y-4856000D01*
X13574000Y-4826000D02*
X13544000Y-4856000D01*
X13559000Y-4506000D02*
X13589000Y-4536000D01*
X13589000Y-4506000D02*
X13559000Y-4536000D01*
X13570807Y-6593193D02*
X13600807Y-6623193D01*
X13600807Y-6593193D02*
X13570807Y-6623193D01*
X13594000Y-6145000D02*
X13624000Y-6175000D01*
X13624000Y-6145000D02*
X13594000Y-6175000D01*
X13596300Y-5486690D02*
X13626300Y-5516690D01*
X13626300Y-5486690D02*
X13596300Y-5516690D01*
X13609000Y-4694000D02*
X13639000Y-4724000D01*
X13639000Y-4694000D02*
X13609000Y-4724000D01*
X13611000Y-8197000D02*
X13641000Y-8227000D01*
X13641000Y-8197000D02*
X13611000Y-8227000D01*
X13640000Y-4821000D02*
X13670000Y-4851000D01*
X13670000Y-4821000D02*
X13640000Y-4851000D01*
X13663000Y-4641000D02*
X13693000Y-4671000D01*
X13693000Y-4641000D02*
X13663000Y-4671000D01*
X13671000Y-6137000D02*
X13701000Y-6167000D01*
X13701000Y-6137000D02*
X13671000Y-6167000D01*
X13679000Y-4991000D02*
X13709000Y-5021000D01*
X13709000Y-4991000D02*
X13679000Y-5021000D01*
X13698000Y-8102000D02*
X13728000Y-8132000D01*
X13728000Y-8102000D02*
X13698000Y-8132000D01*
X13716000Y-4759000D02*
X13746000Y-4789000D01*
X13746000Y-4759000D02*
X13716000Y-4789000D01*
X13720000Y-4499000D02*
X13750000Y-4529000D01*
X13750000Y-4499000D02*
X13720000Y-4529000D01*
X13721000Y-4570000D02*
X13751000Y-4600000D01*
X13751000Y-4570000D02*
X13721000Y-4600000D01*
X13735000Y-7054000D02*
X13765000Y-7084000D01*
X13765000Y-7054000D02*
X13735000Y-7084000D01*
X13752000Y-4929000D02*
X13782000Y-4959000D01*
X13782000Y-4929000D02*
X13752000Y-4959000D01*
X13754000Y-4669000D02*
X13784000Y-4699000D01*
X13784000Y-4669000D02*
X13754000Y-4699000D01*
X13792000Y-8008000D02*
X13822000Y-8038000D01*
X13822000Y-8008000D02*
X13792000Y-8038000D01*
X13811000Y-6363000D02*
X13841000Y-6393000D01*
X13841000Y-6363000D02*
X13811000Y-6393000D01*
X13816000Y-8380000D02*
X13846000Y-8410000D01*
X13846000Y-8380000D02*
X13816000Y-8410000D01*
X13816000Y-8471000D02*
X13846000Y-8501000D01*
X13846000Y-8471000D02*
X13816000Y-8501000D01*
X13817300Y-5493690D02*
X13847300Y-5523690D01*
X13847300Y-5493690D02*
X13817300Y-5523690D01*
X13818000Y-8552000D02*
X13848000Y-8582000D01*
X13848000Y-8552000D02*
X13818000Y-8582000D01*
X13824000Y-8643000D02*
X13854000Y-8673000D01*
X13854000Y-8643000D02*
X13824000Y-8673000D01*
X13825300Y-6007690D02*
X13855300Y-6037690D01*
X13855300Y-6007690D02*
X13825300Y-6037690D01*
X13827000Y-8286000D02*
X13857000Y-8316000D01*
X13857000Y-8286000D02*
X13827000Y-8316000D01*
X13845000Y-7828000D02*
X13875000Y-7858000D01*
X13875000Y-7828000D02*
X13845000Y-7858000D01*
X13847000Y-6540000D02*
X13877000Y-6570000D01*
X13877000Y-6540000D02*
X13847000Y-6570000D01*
X13862000Y-8210000D02*
X13892000Y-8240000D01*
X13892000Y-8210000D02*
X13862000Y-8240000D01*
X13866000Y-6665000D02*
X13896000Y-6695000D01*
X13896000Y-6665000D02*
X13866000Y-6695000D01*
X13876000Y-4494000D02*
X13906000Y-4524000D01*
X13906000Y-4494000D02*
X13876000Y-4524000D01*
X13877000Y-4844000D02*
X13907000Y-4874000D01*
X13907000Y-4844000D02*
X13877000Y-4874000D01*
X13878000Y-7930000D02*
X13908000Y-7960000D01*
X13908000Y-7930000D02*
X13878000Y-7960000D01*
X13904000Y-8148000D02*
X13934000Y-8178000D01*
X13934000Y-8148000D02*
X13904000Y-8178000D01*
X13910300Y-6017690D02*
X13940300Y-6047690D01*
X13940300Y-6017690D02*
X13910300Y-6047690D01*
X13948000Y-8095000D02*
X13978000Y-8125000D01*
X13978000Y-8095000D02*
X13948000Y-8125000D01*
X13956000Y-7165000D02*
X13986000Y-7195000D01*
X13986000Y-7165000D02*
X13956000Y-7195000D01*
X13956300Y-5555690D02*
X13986300Y-5585690D01*
X13986300Y-5555690D02*
X13956300Y-5585690D01*
X13962000Y-6657000D02*
X13992000Y-6687000D01*
X13992000Y-6657000D02*
X13962000Y-6687000D01*
X13962000Y-7850000D02*
X13992000Y-7880000D01*
X13992000Y-7850000D02*
X13962000Y-7880000D01*
X13977300Y-5739690D02*
X14007300Y-5769690D01*
X14007300Y-5739690D02*
X13977300Y-5769690D01*
X13995000Y-7726000D02*
X14025000Y-7756000D01*
X14025000Y-7726000D02*
X13995000Y-7756000D01*
X13998000Y-8053000D02*
X14028000Y-8083000D01*
X14028000Y-8053000D02*
X13998000Y-8083000D01*
X14032000Y-4490000D02*
X14062000Y-4520000D01*
X14062000Y-4490000D02*
X14032000Y-4520000D01*
X14034000Y-4851000D02*
X14064000Y-4881000D01*
X14064000Y-4851000D02*
X14034000Y-4881000D01*
X14034000Y-8251000D02*
X14064000Y-8281000D01*
X14064000Y-8251000D02*
X14034000Y-8281000D01*
X14039000Y-8131000D02*
X14069000Y-8161000D01*
X14069000Y-8131000D02*
X14039000Y-8161000D01*
X14043000Y-7637000D02*
X14073000Y-7667000D01*
X14073000Y-7637000D02*
X14043000Y-7667000D01*
X14051000Y-8004000D02*
X14081000Y-8034000D01*
X14081000Y-8004000D02*
X14051000Y-8034000D01*
X14058000Y-8636000D02*
X14088000Y-8666000D01*
X14088000Y-8636000D02*
X14058000Y-8666000D01*
X14061000Y-8330000D02*
X14091000Y-8360000D01*
X14091000Y-8330000D02*
X14061000Y-8360000D01*
X14064000Y-8411000D02*
X14094000Y-8441000D01*
X14094000Y-8411000D02*
X14064000Y-8441000D01*
X14067000Y-6394000D02*
X14097000Y-6424000D01*
X14097000Y-6394000D02*
X14067000Y-6424000D01*
X14068000Y-8495000D02*
X14098000Y-8525000D01*
X14098000Y-8495000D02*
X14068000Y-8525000D01*
X14068000Y-8562000D02*
X14098000Y-8592000D01*
X14098000Y-8562000D02*
X14068000Y-8592000D01*
X14089000Y-8206000D02*
X14119000Y-8236000D01*
X14119000Y-8206000D02*
X14089000Y-8236000D01*
X14103000Y-7950000D02*
X14133000Y-7980000D01*
X14133000Y-7950000D02*
X14103000Y-7980000D01*
X14116000Y-7576000D02*
X14146000Y-7606000D01*
X14146000Y-7576000D02*
X14116000Y-7606000D01*
X14134000Y-7021000D02*
X14164000Y-7051000D01*
X14164000Y-7021000D02*
X14134000Y-7051000D01*
X14139000Y-8155000D02*
X14169000Y-8185000D01*
X14169000Y-8155000D02*
X14139000Y-8185000D01*
X14165000Y-7887000D02*
X14195000Y-7917000D01*
X14195000Y-7887000D02*
X14165000Y-7917000D01*
X14187000Y-4845000D02*
X14217000Y-4875000D01*
X14217000Y-4845000D02*
X14187000Y-4875000D01*
X14194000Y-4491000D02*
X14224000Y-4521000D01*
X14224000Y-4491000D02*
X14194000Y-4521000D01*
X14195000Y-8096000D02*
X14225000Y-8126000D01*
X14225000Y-8096000D02*
X14195000Y-8126000D01*
X14218000Y-7570000D02*
X14248000Y-7600000D01*
X14248000Y-7570000D02*
X14218000Y-7600000D01*
X14232000Y-7822000D02*
X14262000Y-7852000D01*
X14262000Y-7822000D02*
X14232000Y-7852000D01*
X14249000Y-8034000D02*
X14279000Y-8064000D01*
X14279000Y-8034000D02*
X14249000Y-8064000D01*
X14299000Y-7760000D02*
X14329000Y-7790000D01*
X14329000Y-7760000D02*
X14299000Y-7790000D01*
X14300000Y-7978000D02*
X14330000Y-8008000D01*
X14330000Y-7978000D02*
X14300000Y-8008000D01*
X14305000Y-4494000D02*
X14335000Y-4524000D01*
X14335000Y-4494000D02*
X14305000Y-4524000D01*
X14310000Y-7275000D02*
X14340000Y-7305000D01*
X14340000Y-7275000D02*
X14310000Y-7305000D01*
X14333000Y-7564000D02*
X14363000Y-7594000D01*
X14363000Y-7564000D02*
X14333000Y-7594000D01*
X14336000Y-6766000D02*
X14366000Y-6796000D01*
X14366000Y-6766000D02*
X14336000Y-6796000D01*
X14342000Y-4846000D02*
X14372000Y-4876000D01*
X14372000Y-4846000D02*
X14342000Y-4876000D01*
X14361000Y-7922000D02*
X14391000Y-7952000D01*
X14391000Y-7922000D02*
X14361000Y-7952000D01*
X14366000Y-7691000D02*
X14396000Y-7721000D01*
X14396000Y-7691000D02*
X14366000Y-7721000D01*
X14417000Y-7871000D02*
X14447000Y-7901000D01*
X14447000Y-7871000D02*
X14417000Y-7901000D01*
X14429000Y-7632000D02*
X14459000Y-7662000D01*
X14459000Y-7632000D02*
X14429000Y-7662000D01*
X14472000Y-7813000D02*
X14502000Y-7843000D01*
X14502000Y-7813000D02*
X14472000Y-7843000D01*
X14481000Y-7580000D02*
X14511000Y-7610000D01*
X14511000Y-7580000D02*
X14481000Y-7610000D01*
X14496000Y-5192000D02*
X14526000Y-5222000D01*
X14526000Y-5192000D02*
X14496000Y-5222000D01*
X14523000Y-7755000D02*
X14553000Y-7785000D01*
X14553000Y-7755000D02*
X14523000Y-7785000D01*
X14530000Y-4805000D02*
X14560000Y-4835000D01*
X14560000Y-4805000D02*
X14530000Y-4835000D01*
X14531000Y-6592000D02*
X14561000Y-6622000D01*
X14561000Y-6592000D02*
X14531000Y-6622000D01*
X14532000Y-6693000D02*
X14562000Y-6723000D01*
X14562000Y-6693000D02*
X14532000Y-6723000D01*
X14533000Y-6780000D02*
X14563000Y-6810000D01*
X14563000Y-6780000D02*
X14533000Y-6810000D01*
X14538000Y-6891000D02*
X14568000Y-6921000D01*
X14568000Y-6891000D02*
X14538000Y-6921000D01*
X14541000Y-6998000D02*
X14571000Y-7028000D01*
X14571000Y-6998000D02*
X14541000Y-7028000D01*
X14544000Y-7121000D02*
X14574000Y-7151000D01*
X14574000Y-7121000D02*
X14544000Y-7151000D01*
X14547000Y-7240000D02*
X14577000Y-7270000D01*
X14577000Y-7240000D02*
X14547000Y-7270000D01*
X14548000Y-7349000D02*
X14578000Y-7379000D01*
X14578000Y-7349000D02*
X14548000Y-7379000D01*
X14549000Y-7448000D02*
X14579000Y-7478000D01*
X14579000Y-7448000D02*
X14549000Y-7478000D01*
X14554000Y-7548000D02*
X14584000Y-7578000D01*
X14584000Y-7548000D02*
X14554000Y-7578000D01*
X14554000Y-7986000D02*
X14584000Y-8016000D01*
X14584000Y-7986000D02*
X14554000Y-8016000D01*
X14557000Y-7878000D02*
X14587000Y-7908000D01*
X14587000Y-7878000D02*
X14557000Y-7908000D01*
X14567000Y-7699000D02*
X14597000Y-7729000D01*
X14597000Y-7699000D02*
X14567000Y-7729000D01*
X14627000Y-6536000D02*
X14657000Y-6566000D01*
X14657000Y-6536000D02*
X14627000Y-6566000D01*
X14631000Y-8048000D02*
X14661000Y-8078000D01*
X14661000Y-8048000D02*
X14631000Y-8078000D01*
X14730000Y-6534000D02*
X14760000Y-6564000D01*
X14760000Y-6534000D02*
X14730000Y-6564000D01*
X14735000Y-8045000D02*
X14765000Y-8075000D01*
X14765000Y-8045000D02*
X14735000Y-8075000D01*
X14823000Y-6535000D02*
X14853000Y-6565000D01*
X14853000Y-6535000D02*
X14823000Y-6565000D01*
X14849000Y-8041000D02*
X14879000Y-8071000D01*
X14879000Y-8041000D02*
X14849000Y-8071000D01*
X14923000Y-6534000D02*
X14953000Y-6564000D01*
X14953000Y-6534000D02*
X14923000Y-6564000D01*
X14925000Y-4921000D02*
X14955000Y-4951000D01*
X14955000Y-4921000D02*
X14925000Y-4951000D01*
X14961000Y-8040000D02*
X14991000Y-8070000D01*
X14991000Y-8040000D02*
X14961000Y-8070000D01*
X15029000Y-6539000D02*
X15059000Y-6569000D01*
X15059000Y-6539000D02*
X15029000Y-6569000D01*
X15077000Y-8050000D02*
X15107000Y-8080000D01*
X15107000Y-8050000D02*
X15077000Y-8080000D01*
X15083000Y-5246000D02*
X15113000Y-5276000D01*
X15113000Y-5246000D02*
X15083000Y-5276000D01*
X15097000Y-5418000D02*
X15127000Y-5448000D01*
X15127000Y-5418000D02*
X15097000Y-5448000D01*
X15120000Y-6538000D02*
X15150000Y-6568000D01*
X15150000Y-6538000D02*
X15120000Y-6568000D01*
D13*
X12928000Y-6557310D02*
G75*
G03*
X12928000Y-6557310I-17500J0D01*
G01*
X12928000Y-6684810D02*
G75*
G03*
X12928000Y-6684810I-17500J0D01*
G01*
X12928000Y-6812310D02*
G75*
G03*
X12928000Y-6812310I-17500J0D01*
G01*
X13055500Y-6557310D02*
G75*
G03*
X13055500Y-6557310I-17500J0D01*
G01*
X13055500Y-6684810D02*
G75*
G03*
X13055500Y-6684810I-17500J0D01*
G01*
X13055500Y-6812310D02*
G75*
G03*
X13055500Y-6812310I-17500J0D01*
G01*
X13183000Y-6557310D02*
G75*
G03*
X13183000Y-6557310I-17500J0D01*
G01*
X13183000Y-6684810D02*
G75*
G03*
X13183000Y-6684810I-17500J0D01*
G01*
X13183000Y-6812310D02*
G75*
G03*
X13183000Y-6812310I-17500J0D01*
G01*
D14*
X10812010Y-6712310D02*
X10812010Y-6757310D01*
X10789510Y-6734810D02*
X10834510Y-6734810D01*
X10812010Y-7012310D02*
X10812010Y-7057310D01*
X10789510Y-7034810D02*
X10834510Y-7034810D01*
X11502500Y-7630000D02*
X11502500Y-7675000D01*
X11480000Y-7652500D02*
X11525000Y-7652500D01*
X11700500Y-6760000D02*
X11700500Y-6805000D01*
X11678000Y-6782500D02*
X11723000Y-6782500D01*
X11700500Y-6833000D02*
X11700500Y-6878000D01*
X11678000Y-6855500D02*
X11723000Y-6855500D01*
X11701500Y-6907000D02*
X11701500Y-6952000D01*
X11679000Y-6929500D02*
X11724000Y-6929500D01*
X11859000Y-6174500D02*
X11859000Y-6219500D01*
X11836500Y-6197000D02*
X11881500Y-6197000D01*
X11860000Y-6256500D02*
X11860000Y-6301500D01*
X11837500Y-6279000D02*
X11882500Y-6279000D01*
X11861000Y-6341500D02*
X11861000Y-6386500D01*
X11838500Y-6364000D02*
X11883500Y-6364000D01*
X11961000Y-6173500D02*
X11961000Y-6218500D01*
X11938500Y-6196000D02*
X11983500Y-6196000D01*
X11966000Y-6258500D02*
X11966000Y-6303500D01*
X11943500Y-6281000D02*
X11988500Y-6281000D01*
X11966000Y-6341500D02*
X11966000Y-6386500D01*
X11943500Y-6364000D02*
X11988500Y-6364000D01*
X12231000Y-5621500D02*
X12231000Y-5666500D01*
X12208500Y-5644000D02*
X12253500Y-5644000D01*
X12232500Y-5113000D02*
X12232500Y-5158000D01*
X12210000Y-5135500D02*
X12255000Y-5135500D01*
X12317500Y-5113000D02*
X12317500Y-5158000D01*
X12295000Y-5135500D02*
X12340000Y-5135500D01*
X12966000Y-5605500D02*
X12966000Y-5650500D01*
X12943500Y-5628000D02*
X12988500Y-5628000D01*
X12968000Y-5513500D02*
X12968000Y-5558500D01*
X12945500Y-5536000D02*
X12990500Y-5536000D01*
X13104000Y-5432500D02*
X13104000Y-5477500D01*
X13081500Y-5455000D02*
X13126500Y-5455000D01*
X13312000Y-7253500D02*
X13312000Y-7298500D01*
X13289500Y-7276000D02*
X13334500Y-7276000D01*
X13319500Y-5455000D02*
X13319500Y-5500000D01*
X13297000Y-5477500D02*
X13342000Y-5477500D01*
X13608500Y-4920000D02*
X13608500Y-4965000D01*
X13586000Y-4942500D02*
X13631000Y-4942500D01*
X13653300Y-5760690D02*
X13653300Y-5805690D01*
X13630800Y-5783190D02*
X13675800Y-5783190D01*
X13795800Y-5758190D02*
X13795800Y-5803190D01*
X13773300Y-5780690D02*
X13818300Y-5780690D01*
X13970300Y-5460690D02*
X13970300Y-5505690D01*
X13947800Y-5483190D02*
X13992800Y-5483190D01*
X14107300Y-5027190D02*
X14107300Y-5072190D01*
X14084800Y-5049690D02*
X14129800Y-5049690D01*
X14204300Y-5042690D02*
X14204300Y-5087690D01*
X14181800Y-5065190D02*
X14226800Y-5065190D01*
X14603000Y-6111500D02*
X14603000Y-6156500D01*
X14580500Y-6134000D02*
X14625500Y-6134000D01*
X14604000Y-6202500D02*
X14604000Y-6247500D01*
X14581500Y-6225000D02*
X14626500Y-6225000D01*
X14604000Y-6295500D02*
X14604000Y-6340500D01*
X14581500Y-6318000D02*
X14626500Y-6318000D01*
X14606000Y-5715500D02*
X14606000Y-5760500D01*
X14583500Y-5738000D02*
X14628500Y-5738000D01*
X14608000Y-5514500D02*
X14608000Y-5559500D01*
X14585500Y-5537000D02*
X14630500Y-5537000D01*
X14609000Y-5617500D02*
X14609000Y-5662500D01*
X14586500Y-5640000D02*
X14631500Y-5640000D01*
X14695000Y-5814500D02*
X14695000Y-5859500D01*
X14672500Y-5837000D02*
X14717500Y-5837000D01*
X14705000Y-5987500D02*
X14705000Y-6032500D01*
X14682500Y-6010000D02*
X14727500Y-6010000D01*
X14781000Y-5814500D02*
X14781000Y-5859500D01*
X14758500Y-5837000D02*
X14803500Y-5837000D01*
X14784000Y-5989500D02*
X14784000Y-6034500D01*
X14761500Y-6012000D02*
X14806500Y-6012000D01*
X14845000Y-6379500D02*
X14845000Y-6424500D01*
X14822500Y-6402000D02*
X14867500Y-6402000D01*
X14872000Y-6111500D02*
X14872000Y-6156500D01*
X14849500Y-6134000D02*
X14894500Y-6134000D01*
X14888000Y-5693500D02*
X14888000Y-5738500D01*
X14865500Y-5716000D02*
X14910500Y-5716000D01*
X14945000Y-6179500D02*
X14945000Y-6224500D01*
X14922500Y-6202000D02*
X14967500Y-6202000D01*
X14957000Y-5637500D02*
X14957000Y-5682500D01*
X14934500Y-5660000D02*
X14979500Y-5660000D01*
X15022000Y-5697500D02*
X15022000Y-5742500D01*
X14999500Y-5720000D02*
X15044500Y-5720000D01*
X15026000Y-6108500D02*
X15026000Y-6153500D01*
X15003500Y-6131000D02*
X15048500Y-6131000D01*
D15*
X11490713Y-7463713D02*
X11490713Y-7421287D01*
X11448287Y-7421287D01*
X11448287Y-7463713D01*
X11490713Y-7463713D01*
X12576213Y-8019213D02*
X12576213Y-7976787D01*
X12533787Y-7976787D01*
X12533787Y-8019213D01*
X12576213Y-8019213D01*
X12826213Y-7979213D02*
X12826213Y-7936787D01*
X12783787Y-7936787D01*
X12783787Y-7979213D01*
X12826213Y-7979213D01*
X13414213Y-6083213D02*
X13414213Y-6040787D01*
X13371787Y-6040787D01*
X13371787Y-6083213D01*
X13414213Y-6083213D01*
X10872010Y-6457810D02*
X10902010Y-6427810D01*
X10872010Y-6397810D01*
X10842010Y-6427810D01*
X10872010Y-6457810D01*
D11*
X10912010Y-6397810D02*
X10832010Y-6397810D01*
X10832010Y-6397810D02*
G75*
G03*
X10832010Y-6457810I0J-30000D01*
G01*
X10832010Y-6457810D02*
X10912010Y-6457810D01*
X10912010Y-6457810D02*
G75*
G03*
X10912010Y-6397810I0J30000D01*
G01*
D15*
X10872010Y-7321810D02*
X10902010Y-7291810D01*
X10872010Y-7261810D01*
X10842010Y-7291810D01*
X10872010Y-7321810D01*
D11*
X10912010Y-7261810D02*
X10832010Y-7261810D01*
X10832010Y-7261810D02*
G75*
G03*
X10832010Y-7321810I0J-30000D01*
G01*
X10832010Y-7321810D02*
X10912010Y-7321810D01*
X10912010Y-7321810D02*
G75*
G03*
X10912010Y-7261810I0J30000D01*
G01*
D15*
X11290010Y-6457810D02*
X11320010Y-6427810D01*
X11290010Y-6397810D01*
X11260010Y-6427810D01*
X11290010Y-6457810D01*
D11*
X11345010Y-6397810D02*
X11235010Y-6397810D01*
X11235010Y-6397810D02*
G75*
G03*
X11235010Y-6457810I0J-30000D01*
G01*
X11235010Y-6457810D02*
X11345010Y-6457810D01*
X11345010Y-6457810D02*
G75*
G03*
X11345010Y-6397810I0J30000D01*
G01*
D15*
X11290010Y-7321810D02*
X11320010Y-7291810D01*
X11290010Y-7261810D01*
X11260010Y-7291810D01*
X11290010Y-7321810D01*
D11*
X11345010Y-7261810D02*
X11235010Y-7261810D01*
X11235010Y-7261810D02*
G75*
G03*
X11235010Y-7321810I0J-30000D01*
G01*
X11235010Y-7321810D02*
X11345010Y-7321810D01*
X11345010Y-7321810D02*
G75*
G03*
X11345010Y-7261810I0J30000D01*
G01*
D16*
X14066310Y-6472690D02*
X14151310Y-6557690D01*
X14151310Y-6472690D02*
X14066310Y-6557690D01*
X14151310Y-6515190D02*
G75*
G03*
X14151310Y-6515190I-42500J0D01*
G01*
D10*
X10870510Y-4972310D02*
X10970510Y-5072310D01*
X10970510Y-4972310D02*
X10870510Y-5072310D01*
X10920510Y-4972310D02*
X10920510Y-5072310D01*
X10870510Y-5022310D02*
X10970510Y-5022310D01*
X10870510Y-6072310D02*
X10970510Y-6172310D01*
X10970510Y-6072310D02*
X10870510Y-6172310D01*
X10920510Y-6072310D02*
X10920510Y-6172310D01*
X10870510Y-6122310D02*
X10970510Y-6122310D01*
D17*
X11825510Y-5227310D02*
X12015510Y-5417310D01*
X12015510Y-5227310D02*
X11825510Y-5417310D01*
X11987686Y-5389486D02*
X11987686Y-5255134D01*
X11853334Y-5255134D01*
X11853334Y-5389486D01*
X11987686Y-5389486D01*
X11825510Y-5727310D02*
X12015510Y-5917310D01*
X12015510Y-5727310D02*
X11825510Y-5917310D01*
X11987686Y-5889486D02*
X11987686Y-5755134D01*
X11853334Y-5755134D01*
X11853334Y-5889486D01*
X11987686Y-5889486D01*
D18*
X10712500Y-4410000D02*
X10932500Y-4630000D01*
X10932500Y-4410000D02*
X10712500Y-4630000D01*
X10822500Y-4630000D02*
X10932500Y-4520000D01*
X10822500Y-4410000D01*
X10712500Y-4520000D01*
X10822500Y-4630000D01*
X10712500Y-8310000D02*
X10932500Y-8530000D01*
X10932500Y-8310000D02*
X10712500Y-8530000D01*
X10822500Y-8530000D02*
X10932500Y-8420000D01*
X10822500Y-8310000D01*
X10712500Y-8420000D01*
X10822500Y-8530000D01*
X14812500Y-4410000D02*
X15032500Y-4630000D01*
X15032500Y-4410000D02*
X14812500Y-4630000D01*
X14922500Y-4630000D02*
X15032500Y-4520000D01*
X14922500Y-4410000D01*
X14812500Y-4520000D01*
X14922500Y-4630000D01*
X14812500Y-8310000D02*
X15032500Y-8530000D01*
X15032500Y-8310000D02*
X14812500Y-8530000D01*
X14922500Y-8530000D02*
X15032500Y-8420000D01*
X14922500Y-8310000D01*
X14812500Y-8420000D01*
X14922500Y-8530000D01*
D11*
X10765119Y-9037524D02*
X10765119Y-8837524D01*
X10765119Y-8837524D02*
X10812738Y-8837524D01*
X10812738Y-8837524D02*
X10841310Y-8847048D01*
X10841310Y-8847048D02*
X10860357Y-8866095D01*
X10860357Y-8866095D02*
X10869881Y-8885143D01*
X10869881Y-8885143D02*
X10879405Y-8923238D01*
X10879405Y-8923238D02*
X10879405Y-8951810D01*
X10879405Y-8951810D02*
X10869881Y-8989905D01*
X10869881Y-8989905D02*
X10860357Y-9008952D01*
X10860357Y-9008952D02*
X10841310Y-9028000D01*
X10841310Y-9028000D02*
X10812738Y-9037524D01*
X10812738Y-9037524D02*
X10765119Y-9037524D01*
X10965119Y-9037524D02*
X10965119Y-8904190D01*
X10965119Y-8942286D02*
X10974643Y-8923238D01*
X10974643Y-8923238D02*
X10984167Y-8913714D01*
X10984167Y-8913714D02*
X11003214Y-8904190D01*
X11003214Y-8904190D02*
X11022262Y-8904190D01*
X11088929Y-9037524D02*
X11088929Y-8904190D01*
X11088929Y-8837524D02*
X11079405Y-8847048D01*
X11079405Y-8847048D02*
X11088929Y-8856571D01*
X11088929Y-8856571D02*
X11098452Y-8847048D01*
X11098452Y-8847048D02*
X11088929Y-8837524D01*
X11088929Y-8837524D02*
X11088929Y-8856571D01*
X11212738Y-9037524D02*
X11193690Y-9028000D01*
X11193690Y-9028000D02*
X11184167Y-9008952D01*
X11184167Y-9008952D02*
X11184167Y-8837524D01*
X11317500Y-9037524D02*
X11298452Y-9028000D01*
X11298452Y-9028000D02*
X11288928Y-9008952D01*
X11288928Y-9008952D02*
X11288928Y-8837524D01*
X11546071Y-9037524D02*
X11546071Y-8837524D01*
X11546071Y-8837524D02*
X11612738Y-8980381D01*
X11612738Y-8980381D02*
X11679405Y-8837524D01*
X11679405Y-8837524D02*
X11679405Y-9037524D01*
X11860357Y-9037524D02*
X11860357Y-8932762D01*
X11860357Y-8932762D02*
X11850833Y-8913714D01*
X11850833Y-8913714D02*
X11831786Y-8904190D01*
X11831786Y-8904190D02*
X11793690Y-8904190D01*
X11793690Y-8904190D02*
X11774643Y-8913714D01*
X11860357Y-9028000D02*
X11841309Y-9037524D01*
X11841309Y-9037524D02*
X11793690Y-9037524D01*
X11793690Y-9037524D02*
X11774643Y-9028000D01*
X11774643Y-9028000D02*
X11765119Y-9008952D01*
X11765119Y-9008952D02*
X11765119Y-8989905D01*
X11765119Y-8989905D02*
X11774643Y-8970857D01*
X11774643Y-8970857D02*
X11793690Y-8961333D01*
X11793690Y-8961333D02*
X11841309Y-8961333D01*
X11841309Y-8961333D02*
X11860357Y-8951810D01*
X11955595Y-8904190D02*
X11955595Y-9104190D01*
X11955595Y-8913714D02*
X11974643Y-8904190D01*
X11974643Y-8904190D02*
X12012738Y-8904190D01*
X12012738Y-8904190D02*
X12031786Y-8913714D01*
X12031786Y-8913714D02*
X12041309Y-8923238D01*
X12041309Y-8923238D02*
X12050833Y-8942286D01*
X12050833Y-8942286D02*
X12050833Y-8999429D01*
X12050833Y-8999429D02*
X12041309Y-9018476D01*
X12041309Y-9018476D02*
X12031786Y-9028000D01*
X12031786Y-9028000D02*
X12012738Y-9037524D01*
X12012738Y-9037524D02*
X11974643Y-9037524D01*
X11974643Y-9037524D02*
X11955595Y-9028000D01*
X12136548Y-9018476D02*
X12146071Y-9028000D01*
X12146071Y-9028000D02*
X12136548Y-9037524D01*
X12136548Y-9037524D02*
X12127024Y-9028000D01*
X12127024Y-9028000D02*
X12136548Y-9018476D01*
X12136548Y-9018476D02*
X12136548Y-9037524D01*
X12136548Y-8913714D02*
X12146071Y-8923238D01*
X12146071Y-8923238D02*
X12136548Y-8932762D01*
X12136548Y-8932762D02*
X12127024Y-8923238D01*
X12127024Y-8923238D02*
X12136548Y-8913714D01*
X12136548Y-8913714D02*
X12136548Y-8932762D01*
D12*
X10487500Y-9350000D02*
X10517500Y-9380000D01*
X10517500Y-9350000D02*
X10487500Y-9380000D01*
D11*
X10803214Y-9257524D02*
X10822262Y-9257524D01*
X10822262Y-9257524D02*
X10841310Y-9267048D01*
X10841310Y-9267048D02*
X10850833Y-9276571D01*
X10850833Y-9276571D02*
X10860357Y-9295619D01*
X10860357Y-9295619D02*
X10869881Y-9333714D01*
X10869881Y-9333714D02*
X10869881Y-9381333D01*
X10869881Y-9381333D02*
X10860357Y-9419429D01*
X10860357Y-9419429D02*
X10850833Y-9438476D01*
X10850833Y-9438476D02*
X10841310Y-9448000D01*
X10841310Y-9448000D02*
X10822262Y-9457524D01*
X10822262Y-9457524D02*
X10803214Y-9457524D01*
X10803214Y-9457524D02*
X10784167Y-9448000D01*
X10784167Y-9448000D02*
X10774643Y-9438476D01*
X10774643Y-9438476D02*
X10765119Y-9419429D01*
X10765119Y-9419429D02*
X10755595Y-9381333D01*
X10755595Y-9381333D02*
X10755595Y-9333714D01*
X10755595Y-9333714D02*
X10765119Y-9295619D01*
X10765119Y-9295619D02*
X10774643Y-9276571D01*
X10774643Y-9276571D02*
X10784167Y-9267048D01*
X10784167Y-9267048D02*
X10803214Y-9257524D01*
X10955595Y-9438476D02*
X10965119Y-9448000D01*
X10965119Y-9448000D02*
X10955595Y-9457524D01*
X10955595Y-9457524D02*
X10946071Y-9448000D01*
X10946071Y-9448000D02*
X10955595Y-9438476D01*
X10955595Y-9438476D02*
X10955595Y-9457524D01*
X11031786Y-9257524D02*
X11155595Y-9257524D01*
X11155595Y-9257524D02*
X11088929Y-9333714D01*
X11088929Y-9333714D02*
X11117500Y-9333714D01*
X11117500Y-9333714D02*
X11136548Y-9343238D01*
X11136548Y-9343238D02*
X11146071Y-9352762D01*
X11146071Y-9352762D02*
X11155595Y-9371810D01*
X11155595Y-9371810D02*
X11155595Y-9419429D01*
X11155595Y-9419429D02*
X11146071Y-9438476D01*
X11146071Y-9438476D02*
X11136548Y-9448000D01*
X11136548Y-9448000D02*
X11117500Y-9457524D01*
X11117500Y-9457524D02*
X11060357Y-9457524D01*
X11060357Y-9457524D02*
X11041310Y-9448000D01*
X11041310Y-9448000D02*
X11031786Y-9438476D01*
X11279405Y-9257524D02*
X11298452Y-9257524D01*
X11298452Y-9257524D02*
X11317500Y-9267048D01*
X11317500Y-9267048D02*
X11327024Y-9276571D01*
X11327024Y-9276571D02*
X11336548Y-9295619D01*
X11336548Y-9295619D02*
X11346071Y-9333714D01*
X11346071Y-9333714D02*
X11346071Y-9381333D01*
X11346071Y-9381333D02*
X11336548Y-9419429D01*
X11336548Y-9419429D02*
X11327024Y-9438476D01*
X11327024Y-9438476D02*
X11317500Y-9448000D01*
X11317500Y-9448000D02*
X11298452Y-9457524D01*
X11298452Y-9457524D02*
X11279405Y-9457524D01*
X11279405Y-9457524D02*
X11260357Y-9448000D01*
X11260357Y-9448000D02*
X11250833Y-9438476D01*
X11250833Y-9438476D02*
X11241309Y-9419429D01*
X11241309Y-9419429D02*
X11231786Y-9381333D01*
X11231786Y-9381333D02*
X11231786Y-9333714D01*
X11231786Y-9333714D02*
X11241309Y-9295619D01*
X11241309Y-9295619D02*
X11250833Y-9276571D01*
X11250833Y-9276571D02*
X11260357Y-9267048D01*
X11260357Y-9267048D02*
X11279405Y-9257524D01*
X11469881Y-9257524D02*
X11488929Y-9257524D01*
X11488929Y-9257524D02*
X11507976Y-9267048D01*
X11507976Y-9267048D02*
X11517500Y-9276571D01*
X11517500Y-9276571D02*
X11527024Y-9295619D01*
X11527024Y-9295619D02*
X11536548Y-9333714D01*
X11536548Y-9333714D02*
X11536548Y-9381333D01*
X11536548Y-9381333D02*
X11527024Y-9419429D01*
X11527024Y-9419429D02*
X11517500Y-9438476D01*
X11517500Y-9438476D02*
X11507976Y-9448000D01*
X11507976Y-9448000D02*
X11488929Y-9457524D01*
X11488929Y-9457524D02*
X11469881Y-9457524D01*
X11469881Y-9457524D02*
X11450833Y-9448000D01*
X11450833Y-9448000D02*
X11441309Y-9438476D01*
X11441309Y-9438476D02*
X11431786Y-9419429D01*
X11431786Y-9419429D02*
X11422262Y-9381333D01*
X11422262Y-9381333D02*
X11422262Y-9333714D01*
X11422262Y-9333714D02*
X11431786Y-9295619D01*
X11431786Y-9295619D02*
X11441309Y-9276571D01*
X11441309Y-9276571D02*
X11450833Y-9267048D01*
X11450833Y-9267048D02*
X11469881Y-9257524D01*
X11622262Y-9457524D02*
X11622262Y-9324190D01*
X11622262Y-9343238D02*
X11631786Y-9333714D01*
X11631786Y-9333714D02*
X11650833Y-9324190D01*
X11650833Y-9324190D02*
X11679405Y-9324190D01*
X11679405Y-9324190D02*
X11698452Y-9333714D01*
X11698452Y-9333714D02*
X11707976Y-9352762D01*
X11707976Y-9352762D02*
X11707976Y-9457524D01*
X11707976Y-9352762D02*
X11717500Y-9333714D01*
X11717500Y-9333714D02*
X11736548Y-9324190D01*
X11736548Y-9324190D02*
X11765119Y-9324190D01*
X11765119Y-9324190D02*
X11784167Y-9333714D01*
X11784167Y-9333714D02*
X11793690Y-9352762D01*
X11793690Y-9352762D02*
X11793690Y-9457524D01*
X11888929Y-9457524D02*
X11888929Y-9324190D01*
X11888929Y-9343238D02*
X11898452Y-9333714D01*
X11898452Y-9333714D02*
X11917500Y-9324190D01*
X11917500Y-9324190D02*
X11946071Y-9324190D01*
X11946071Y-9324190D02*
X11965119Y-9333714D01*
X11965119Y-9333714D02*
X11974643Y-9352762D01*
X11974643Y-9352762D02*
X11974643Y-9457524D01*
X11974643Y-9352762D02*
X11984167Y-9333714D01*
X11984167Y-9333714D02*
X12003214Y-9324190D01*
X12003214Y-9324190D02*
X12031786Y-9324190D01*
X12031786Y-9324190D02*
X12050833Y-9333714D01*
X12050833Y-9333714D02*
X12060357Y-9352762D01*
X12060357Y-9352762D02*
X12060357Y-9457524D01*
X12450833Y-9248000D02*
X12279405Y-9505143D01*
X12707976Y-9257524D02*
X12727024Y-9257524D01*
X12727024Y-9257524D02*
X12746072Y-9267048D01*
X12746072Y-9267048D02*
X12755595Y-9276571D01*
X12755595Y-9276571D02*
X12765119Y-9295619D01*
X12765119Y-9295619D02*
X12774643Y-9333714D01*
X12774643Y-9333714D02*
X12774643Y-9381333D01*
X12774643Y-9381333D02*
X12765119Y-9419429D01*
X12765119Y-9419429D02*
X12755595Y-9438476D01*
X12755595Y-9438476D02*
X12746072Y-9448000D01*
X12746072Y-9448000D02*
X12727024Y-9457524D01*
X12727024Y-9457524D02*
X12707976Y-9457524D01*
X12707976Y-9457524D02*
X12688929Y-9448000D01*
X12688929Y-9448000D02*
X12679405Y-9438476D01*
X12679405Y-9438476D02*
X12669881Y-9419429D01*
X12669881Y-9419429D02*
X12660357Y-9381333D01*
X12660357Y-9381333D02*
X12660357Y-9333714D01*
X12660357Y-9333714D02*
X12669881Y-9295619D01*
X12669881Y-9295619D02*
X12679405Y-9276571D01*
X12679405Y-9276571D02*
X12688929Y-9267048D01*
X12688929Y-9267048D02*
X12707976Y-9257524D01*
X12860357Y-9438476D02*
X12869881Y-9448000D01*
X12869881Y-9448000D02*
X12860357Y-9457524D01*
X12860357Y-9457524D02*
X12850833Y-9448000D01*
X12850833Y-9448000D02*
X12860357Y-9438476D01*
X12860357Y-9438476D02*
X12860357Y-9457524D01*
X12993691Y-9257524D02*
X13012738Y-9257524D01*
X13012738Y-9257524D02*
X13031786Y-9267048D01*
X13031786Y-9267048D02*
X13041310Y-9276571D01*
X13041310Y-9276571D02*
X13050833Y-9295619D01*
X13050833Y-9295619D02*
X13060357Y-9333714D01*
X13060357Y-9333714D02*
X13060357Y-9381333D01*
X13060357Y-9381333D02*
X13050833Y-9419429D01*
X13050833Y-9419429D02*
X13041310Y-9438476D01*
X13041310Y-9438476D02*
X13031786Y-9448000D01*
X13031786Y-9448000D02*
X13012738Y-9457524D01*
X13012738Y-9457524D02*
X12993691Y-9457524D01*
X12993691Y-9457524D02*
X12974643Y-9448000D01*
X12974643Y-9448000D02*
X12965119Y-9438476D01*
X12965119Y-9438476D02*
X12955595Y-9419429D01*
X12955595Y-9419429D02*
X12946072Y-9381333D01*
X12946072Y-9381333D02*
X12946072Y-9333714D01*
X12946072Y-9333714D02*
X12955595Y-9295619D01*
X12955595Y-9295619D02*
X12965119Y-9276571D01*
X12965119Y-9276571D02*
X12974643Y-9267048D01*
X12974643Y-9267048D02*
X12993691Y-9257524D01*
X13250833Y-9457524D02*
X13136548Y-9457524D01*
X13193691Y-9457524D02*
X13193691Y-9257524D01*
X13193691Y-9257524D02*
X13174643Y-9286095D01*
X13174643Y-9286095D02*
X13155595Y-9305143D01*
X13155595Y-9305143D02*
X13136548Y-9314667D01*
X13441310Y-9457524D02*
X13327024Y-9457524D01*
X13384167Y-9457524D02*
X13384167Y-9257524D01*
X13384167Y-9257524D02*
X13365119Y-9286095D01*
X13365119Y-9286095D02*
X13346072Y-9305143D01*
X13346072Y-9305143D02*
X13327024Y-9314667D01*
X13555595Y-9343238D02*
X13536548Y-9333714D01*
X13536548Y-9333714D02*
X13527024Y-9324190D01*
X13527024Y-9324190D02*
X13517500Y-9305143D01*
X13517500Y-9305143D02*
X13517500Y-9295619D01*
X13517500Y-9295619D02*
X13527024Y-9276571D01*
X13527024Y-9276571D02*
X13536548Y-9267048D01*
X13536548Y-9267048D02*
X13555595Y-9257524D01*
X13555595Y-9257524D02*
X13593691Y-9257524D01*
X13593691Y-9257524D02*
X13612738Y-9267048D01*
X13612738Y-9267048D02*
X13622262Y-9276571D01*
X13622262Y-9276571D02*
X13631786Y-9295619D01*
X13631786Y-9295619D02*
X13631786Y-9305143D01*
X13631786Y-9305143D02*
X13622262Y-9324190D01*
X13622262Y-9324190D02*
X13612738Y-9333714D01*
X13612738Y-9333714D02*
X13593691Y-9343238D01*
X13593691Y-9343238D02*
X13555595Y-9343238D01*
X13555595Y-9343238D02*
X13536548Y-9352762D01*
X13536548Y-9352762D02*
X13527024Y-9362286D01*
X13527024Y-9362286D02*
X13517500Y-9381333D01*
X13517500Y-9381333D02*
X13517500Y-9419429D01*
X13517500Y-9419429D02*
X13527024Y-9438476D01*
X13527024Y-9438476D02*
X13536548Y-9448000D01*
X13536548Y-9448000D02*
X13555595Y-9457524D01*
X13555595Y-9457524D02*
X13593691Y-9457524D01*
X13593691Y-9457524D02*
X13612738Y-9448000D01*
X13612738Y-9448000D02*
X13622262Y-9438476D01*
X13622262Y-9438476D02*
X13631786Y-9419429D01*
X13631786Y-9419429D02*
X13631786Y-9381333D01*
X13631786Y-9381333D02*
X13622262Y-9362286D01*
X13622262Y-9362286D02*
X13612738Y-9352762D01*
X13612738Y-9352762D02*
X13593691Y-9343238D01*
X13707976Y-9257524D02*
X13707976Y-9295619D01*
X13784167Y-9257524D02*
X13784167Y-9295619D01*
X14079405Y-9533714D02*
X14069881Y-9524190D01*
X14069881Y-9524190D02*
X14050834Y-9495619D01*
X14050834Y-9495619D02*
X14041310Y-9476571D01*
X14041310Y-9476571D02*
X14031786Y-9448000D01*
X14031786Y-9448000D02*
X14022262Y-9400381D01*
X14022262Y-9400381D02*
X14022262Y-9362286D01*
X14022262Y-9362286D02*
X14031786Y-9314667D01*
X14031786Y-9314667D02*
X14041310Y-9286095D01*
X14041310Y-9286095D02*
X14050834Y-9267048D01*
X14050834Y-9267048D02*
X14069881Y-9238476D01*
X14069881Y-9238476D02*
X14079405Y-9228952D01*
X14146072Y-9276571D02*
X14155595Y-9267048D01*
X14155595Y-9267048D02*
X14174643Y-9257524D01*
X14174643Y-9257524D02*
X14222262Y-9257524D01*
X14222262Y-9257524D02*
X14241310Y-9267048D01*
X14241310Y-9267048D02*
X14250834Y-9276571D01*
X14250834Y-9276571D02*
X14260357Y-9295619D01*
X14260357Y-9295619D02*
X14260357Y-9314667D01*
X14260357Y-9314667D02*
X14250834Y-9343238D01*
X14250834Y-9343238D02*
X14136548Y-9457524D01*
X14136548Y-9457524D02*
X14260357Y-9457524D01*
X14336548Y-9276571D02*
X14346072Y-9267048D01*
X14346072Y-9267048D02*
X14365119Y-9257524D01*
X14365119Y-9257524D02*
X14412738Y-9257524D01*
X14412738Y-9257524D02*
X14431786Y-9267048D01*
X14431786Y-9267048D02*
X14441310Y-9276571D01*
X14441310Y-9276571D02*
X14450834Y-9295619D01*
X14450834Y-9295619D02*
X14450834Y-9314667D01*
X14450834Y-9314667D02*
X14441310Y-9343238D01*
X14441310Y-9343238D02*
X14327024Y-9457524D01*
X14327024Y-9457524D02*
X14450834Y-9457524D01*
X14622262Y-9324190D02*
X14622262Y-9457524D01*
X14574643Y-9248000D02*
X14527024Y-9390857D01*
X14527024Y-9390857D02*
X14650834Y-9390857D01*
X14879405Y-9457524D02*
X14879405Y-9257524D01*
X14965119Y-9457524D02*
X14965119Y-9352762D01*
X14965119Y-9352762D02*
X14955596Y-9333714D01*
X14955596Y-9333714D02*
X14936548Y-9324190D01*
X14936548Y-9324190D02*
X14907976Y-9324190D01*
X14907976Y-9324190D02*
X14888929Y-9333714D01*
X14888929Y-9333714D02*
X14879405Y-9343238D01*
X15088929Y-9457524D02*
X15069881Y-9448000D01*
X15069881Y-9448000D02*
X15060357Y-9438476D01*
X15060357Y-9438476D02*
X15050834Y-9419429D01*
X15050834Y-9419429D02*
X15050834Y-9362286D01*
X15050834Y-9362286D02*
X15060357Y-9343238D01*
X15060357Y-9343238D02*
X15069881Y-9333714D01*
X15069881Y-9333714D02*
X15088929Y-9324190D01*
X15088929Y-9324190D02*
X15117500Y-9324190D01*
X15117500Y-9324190D02*
X15136548Y-9333714D01*
X15136548Y-9333714D02*
X15146072Y-9343238D01*
X15146072Y-9343238D02*
X15155596Y-9362286D01*
X15155596Y-9362286D02*
X15155596Y-9419429D01*
X15155596Y-9419429D02*
X15146072Y-9438476D01*
X15146072Y-9438476D02*
X15136548Y-9448000D01*
X15136548Y-9448000D02*
X15117500Y-9457524D01*
X15117500Y-9457524D02*
X15088929Y-9457524D01*
X15269881Y-9457524D02*
X15250834Y-9448000D01*
X15250834Y-9448000D02*
X15241310Y-9428952D01*
X15241310Y-9428952D02*
X15241310Y-9257524D01*
X15422262Y-9448000D02*
X15403215Y-9457524D01*
X15403215Y-9457524D02*
X15365119Y-9457524D01*
X15365119Y-9457524D02*
X15346072Y-9448000D01*
X15346072Y-9448000D02*
X15336548Y-9428952D01*
X15336548Y-9428952D02*
X15336548Y-9352762D01*
X15336548Y-9352762D02*
X15346072Y-9333714D01*
X15346072Y-9333714D02*
X15365119Y-9324190D01*
X15365119Y-9324190D02*
X15403215Y-9324190D01*
X15403215Y-9324190D02*
X15422262Y-9333714D01*
X15422262Y-9333714D02*
X15431786Y-9352762D01*
X15431786Y-9352762D02*
X15431786Y-9371810D01*
X15431786Y-9371810D02*
X15336548Y-9390857D01*
X15507977Y-9448000D02*
X15527024Y-9457524D01*
X15527024Y-9457524D02*
X15565119Y-9457524D01*
X15565119Y-9457524D02*
X15584167Y-9448000D01*
X15584167Y-9448000D02*
X15593691Y-9428952D01*
X15593691Y-9428952D02*
X15593691Y-9419429D01*
X15593691Y-9419429D02*
X15584167Y-9400381D01*
X15584167Y-9400381D02*
X15565119Y-9390857D01*
X15565119Y-9390857D02*
X15536548Y-9390857D01*
X15536548Y-9390857D02*
X15517500Y-9381333D01*
X15517500Y-9381333D02*
X15507977Y-9362286D01*
X15507977Y-9362286D02*
X15507977Y-9352762D01*
X15507977Y-9352762D02*
X15517500Y-9333714D01*
X15517500Y-9333714D02*
X15536548Y-9324190D01*
X15536548Y-9324190D02*
X15565119Y-9324190D01*
X15565119Y-9324190D02*
X15584167Y-9333714D01*
X15660358Y-9533714D02*
X15669881Y-9524190D01*
X15669881Y-9524190D02*
X15688929Y-9495619D01*
X15688929Y-9495619D02*
X15698453Y-9476571D01*
X15698453Y-9476571D02*
X15707977Y-9448000D01*
X15707977Y-9448000D02*
X15717500Y-9400381D01*
X15717500Y-9400381D02*
X15717500Y-9362286D01*
X15717500Y-9362286D02*
X15707977Y-9314667D01*
X15707977Y-9314667D02*
X15698453Y-9286095D01*
X15698453Y-9286095D02*
X15688929Y-9267048D01*
X15688929Y-9267048D02*
X15669881Y-9238476D01*
X15669881Y-9238476D02*
X15660358Y-9228952D01*
D13*
X10517500Y-9629000D02*
G75*
G03*
X10517500Y-9629000I-17500J0D01*
G01*
D11*
X10803214Y-9521524D02*
X10822262Y-9521524D01*
X10822262Y-9521524D02*
X10841310Y-9531048D01*
X10841310Y-9531048D02*
X10850833Y-9540571D01*
X10850833Y-9540571D02*
X10860357Y-9559619D01*
X10860357Y-9559619D02*
X10869881Y-9597714D01*
X10869881Y-9597714D02*
X10869881Y-9645333D01*
X10869881Y-9645333D02*
X10860357Y-9683429D01*
X10860357Y-9683429D02*
X10850833Y-9702476D01*
X10850833Y-9702476D02*
X10841310Y-9712000D01*
X10841310Y-9712000D02*
X10822262Y-9721524D01*
X10822262Y-9721524D02*
X10803214Y-9721524D01*
X10803214Y-9721524D02*
X10784167Y-9712000D01*
X10784167Y-9712000D02*
X10774643Y-9702476D01*
X10774643Y-9702476D02*
X10765119Y-9683429D01*
X10765119Y-9683429D02*
X10755595Y-9645333D01*
X10755595Y-9645333D02*
X10755595Y-9597714D01*
X10755595Y-9597714D02*
X10765119Y-9559619D01*
X10765119Y-9559619D02*
X10774643Y-9540571D01*
X10774643Y-9540571D02*
X10784167Y-9531048D01*
X10784167Y-9531048D02*
X10803214Y-9521524D01*
X10955595Y-9702476D02*
X10965119Y-9712000D01*
X10965119Y-9712000D02*
X10955595Y-9721524D01*
X10955595Y-9721524D02*
X10946071Y-9712000D01*
X10946071Y-9712000D02*
X10955595Y-9702476D01*
X10955595Y-9702476D02*
X10955595Y-9721524D01*
X11031786Y-9521524D02*
X11155595Y-9521524D01*
X11155595Y-9521524D02*
X11088929Y-9597714D01*
X11088929Y-9597714D02*
X11117500Y-9597714D01*
X11117500Y-9597714D02*
X11136548Y-9607238D01*
X11136548Y-9607238D02*
X11146071Y-9616762D01*
X11146071Y-9616762D02*
X11155595Y-9635810D01*
X11155595Y-9635810D02*
X11155595Y-9683429D01*
X11155595Y-9683429D02*
X11146071Y-9702476D01*
X11146071Y-9702476D02*
X11136548Y-9712000D01*
X11136548Y-9712000D02*
X11117500Y-9721524D01*
X11117500Y-9721524D02*
X11060357Y-9721524D01*
X11060357Y-9721524D02*
X11041310Y-9712000D01*
X11041310Y-9712000D02*
X11031786Y-9702476D01*
X11336548Y-9521524D02*
X11241309Y-9521524D01*
X11241309Y-9521524D02*
X11231786Y-9616762D01*
X11231786Y-9616762D02*
X11241309Y-9607238D01*
X11241309Y-9607238D02*
X11260357Y-9597714D01*
X11260357Y-9597714D02*
X11307976Y-9597714D01*
X11307976Y-9597714D02*
X11327024Y-9607238D01*
X11327024Y-9607238D02*
X11336548Y-9616762D01*
X11336548Y-9616762D02*
X11346071Y-9635810D01*
X11346071Y-9635810D02*
X11346071Y-9683429D01*
X11346071Y-9683429D02*
X11336548Y-9702476D01*
X11336548Y-9702476D02*
X11327024Y-9712000D01*
X11327024Y-9712000D02*
X11307976Y-9721524D01*
X11307976Y-9721524D02*
X11260357Y-9721524D01*
X11260357Y-9721524D02*
X11241309Y-9712000D01*
X11241309Y-9712000D02*
X11231786Y-9702476D01*
X11469881Y-9521524D02*
X11488929Y-9521524D01*
X11488929Y-9521524D02*
X11507976Y-9531048D01*
X11507976Y-9531048D02*
X11517500Y-9540571D01*
X11517500Y-9540571D02*
X11527024Y-9559619D01*
X11527024Y-9559619D02*
X11536548Y-9597714D01*
X11536548Y-9597714D02*
X11536548Y-9645333D01*
X11536548Y-9645333D02*
X11527024Y-9683429D01*
X11527024Y-9683429D02*
X11517500Y-9702476D01*
X11517500Y-9702476D02*
X11507976Y-9712000D01*
X11507976Y-9712000D02*
X11488929Y-9721524D01*
X11488929Y-9721524D02*
X11469881Y-9721524D01*
X11469881Y-9721524D02*
X11450833Y-9712000D01*
X11450833Y-9712000D02*
X11441309Y-9702476D01*
X11441309Y-9702476D02*
X11431786Y-9683429D01*
X11431786Y-9683429D02*
X11422262Y-9645333D01*
X11422262Y-9645333D02*
X11422262Y-9597714D01*
X11422262Y-9597714D02*
X11431786Y-9559619D01*
X11431786Y-9559619D02*
X11441309Y-9540571D01*
X11441309Y-9540571D02*
X11450833Y-9531048D01*
X11450833Y-9531048D02*
X11469881Y-9521524D01*
X11622262Y-9721524D02*
X11622262Y-9588190D01*
X11622262Y-9607238D02*
X11631786Y-9597714D01*
X11631786Y-9597714D02*
X11650833Y-9588190D01*
X11650833Y-9588190D02*
X11679405Y-9588190D01*
X11679405Y-9588190D02*
X11698452Y-9597714D01*
X11698452Y-9597714D02*
X11707976Y-9616762D01*
X11707976Y-9616762D02*
X11707976Y-9721524D01*
X11707976Y-9616762D02*
X11717500Y-9597714D01*
X11717500Y-9597714D02*
X11736548Y-9588190D01*
X11736548Y-9588190D02*
X11765119Y-9588190D01*
X11765119Y-9588190D02*
X11784167Y-9597714D01*
X11784167Y-9597714D02*
X11793690Y-9616762D01*
X11793690Y-9616762D02*
X11793690Y-9721524D01*
X11888929Y-9721524D02*
X11888929Y-9588190D01*
X11888929Y-9607238D02*
X11898452Y-9597714D01*
X11898452Y-9597714D02*
X11917500Y-9588190D01*
X11917500Y-9588190D02*
X11946071Y-9588190D01*
X11946071Y-9588190D02*
X11965119Y-9597714D01*
X11965119Y-9597714D02*
X11974643Y-9616762D01*
X11974643Y-9616762D02*
X11974643Y-9721524D01*
X11974643Y-9616762D02*
X11984167Y-9597714D01*
X11984167Y-9597714D02*
X12003214Y-9588190D01*
X12003214Y-9588190D02*
X12031786Y-9588190D01*
X12031786Y-9588190D02*
X12050833Y-9597714D01*
X12050833Y-9597714D02*
X12060357Y-9616762D01*
X12060357Y-9616762D02*
X12060357Y-9721524D01*
X12450833Y-9512000D02*
X12279405Y-9769143D01*
X12707976Y-9521524D02*
X12727024Y-9521524D01*
X12727024Y-9521524D02*
X12746072Y-9531048D01*
X12746072Y-9531048D02*
X12755595Y-9540571D01*
X12755595Y-9540571D02*
X12765119Y-9559619D01*
X12765119Y-9559619D02*
X12774643Y-9597714D01*
X12774643Y-9597714D02*
X12774643Y-9645333D01*
X12774643Y-9645333D02*
X12765119Y-9683429D01*
X12765119Y-9683429D02*
X12755595Y-9702476D01*
X12755595Y-9702476D02*
X12746072Y-9712000D01*
X12746072Y-9712000D02*
X12727024Y-9721524D01*
X12727024Y-9721524D02*
X12707976Y-9721524D01*
X12707976Y-9721524D02*
X12688929Y-9712000D01*
X12688929Y-9712000D02*
X12679405Y-9702476D01*
X12679405Y-9702476D02*
X12669881Y-9683429D01*
X12669881Y-9683429D02*
X12660357Y-9645333D01*
X12660357Y-9645333D02*
X12660357Y-9597714D01*
X12660357Y-9597714D02*
X12669881Y-9559619D01*
X12669881Y-9559619D02*
X12679405Y-9540571D01*
X12679405Y-9540571D02*
X12688929Y-9531048D01*
X12688929Y-9531048D02*
X12707976Y-9521524D01*
X12860357Y-9702476D02*
X12869881Y-9712000D01*
X12869881Y-9712000D02*
X12860357Y-9721524D01*
X12860357Y-9721524D02*
X12850833Y-9712000D01*
X12850833Y-9712000D02*
X12860357Y-9702476D01*
X12860357Y-9702476D02*
X12860357Y-9721524D01*
X12993691Y-9521524D02*
X13012738Y-9521524D01*
X13012738Y-9521524D02*
X13031786Y-9531048D01*
X13031786Y-9531048D02*
X13041310Y-9540571D01*
X13041310Y-9540571D02*
X13050833Y-9559619D01*
X13050833Y-9559619D02*
X13060357Y-9597714D01*
X13060357Y-9597714D02*
X13060357Y-9645333D01*
X13060357Y-9645333D02*
X13050833Y-9683429D01*
X13050833Y-9683429D02*
X13041310Y-9702476D01*
X13041310Y-9702476D02*
X13031786Y-9712000D01*
X13031786Y-9712000D02*
X13012738Y-9721524D01*
X13012738Y-9721524D02*
X12993691Y-9721524D01*
X12993691Y-9721524D02*
X12974643Y-9712000D01*
X12974643Y-9712000D02*
X12965119Y-9702476D01*
X12965119Y-9702476D02*
X12955595Y-9683429D01*
X12955595Y-9683429D02*
X12946072Y-9645333D01*
X12946072Y-9645333D02*
X12946072Y-9597714D01*
X12946072Y-9597714D02*
X12955595Y-9559619D01*
X12955595Y-9559619D02*
X12965119Y-9540571D01*
X12965119Y-9540571D02*
X12974643Y-9531048D01*
X12974643Y-9531048D02*
X12993691Y-9521524D01*
X13250833Y-9721524D02*
X13136548Y-9721524D01*
X13193691Y-9721524D02*
X13193691Y-9521524D01*
X13193691Y-9521524D02*
X13174643Y-9550095D01*
X13174643Y-9550095D02*
X13155595Y-9569143D01*
X13155595Y-9569143D02*
X13136548Y-9578667D01*
X13317500Y-9521524D02*
X13441310Y-9521524D01*
X13441310Y-9521524D02*
X13374643Y-9597714D01*
X13374643Y-9597714D02*
X13403214Y-9597714D01*
X13403214Y-9597714D02*
X13422262Y-9607238D01*
X13422262Y-9607238D02*
X13431786Y-9616762D01*
X13431786Y-9616762D02*
X13441310Y-9635810D01*
X13441310Y-9635810D02*
X13441310Y-9683429D01*
X13441310Y-9683429D02*
X13431786Y-9702476D01*
X13431786Y-9702476D02*
X13422262Y-9712000D01*
X13422262Y-9712000D02*
X13403214Y-9721524D01*
X13403214Y-9721524D02*
X13346072Y-9721524D01*
X13346072Y-9721524D02*
X13327024Y-9712000D01*
X13327024Y-9712000D02*
X13317500Y-9702476D01*
X13555595Y-9607238D02*
X13536548Y-9597714D01*
X13536548Y-9597714D02*
X13527024Y-9588190D01*
X13527024Y-9588190D02*
X13517500Y-9569143D01*
X13517500Y-9569143D02*
X13517500Y-9559619D01*
X13517500Y-9559619D02*
X13527024Y-9540571D01*
X13527024Y-9540571D02*
X13536548Y-9531048D01*
X13536548Y-9531048D02*
X13555595Y-9521524D01*
X13555595Y-9521524D02*
X13593691Y-9521524D01*
X13593691Y-9521524D02*
X13612738Y-9531048D01*
X13612738Y-9531048D02*
X13622262Y-9540571D01*
X13622262Y-9540571D02*
X13631786Y-9559619D01*
X13631786Y-9559619D02*
X13631786Y-9569143D01*
X13631786Y-9569143D02*
X13622262Y-9588190D01*
X13622262Y-9588190D02*
X13612738Y-9597714D01*
X13612738Y-9597714D02*
X13593691Y-9607238D01*
X13593691Y-9607238D02*
X13555595Y-9607238D01*
X13555595Y-9607238D02*
X13536548Y-9616762D01*
X13536548Y-9616762D02*
X13527024Y-9626286D01*
X13527024Y-9626286D02*
X13517500Y-9645333D01*
X13517500Y-9645333D02*
X13517500Y-9683429D01*
X13517500Y-9683429D02*
X13527024Y-9702476D01*
X13527024Y-9702476D02*
X13536548Y-9712000D01*
X13536548Y-9712000D02*
X13555595Y-9721524D01*
X13555595Y-9721524D02*
X13593691Y-9721524D01*
X13593691Y-9721524D02*
X13612738Y-9712000D01*
X13612738Y-9712000D02*
X13622262Y-9702476D01*
X13622262Y-9702476D02*
X13631786Y-9683429D01*
X13631786Y-9683429D02*
X13631786Y-9645333D01*
X13631786Y-9645333D02*
X13622262Y-9626286D01*
X13622262Y-9626286D02*
X13612738Y-9616762D01*
X13612738Y-9616762D02*
X13593691Y-9607238D01*
X13707976Y-9521524D02*
X13707976Y-9559619D01*
X13784167Y-9521524D02*
X13784167Y-9559619D01*
X14079405Y-9797714D02*
X14069881Y-9788190D01*
X14069881Y-9788190D02*
X14050834Y-9759619D01*
X14050834Y-9759619D02*
X14041310Y-9740571D01*
X14041310Y-9740571D02*
X14031786Y-9712000D01*
X14031786Y-9712000D02*
X14022262Y-9664381D01*
X14022262Y-9664381D02*
X14022262Y-9626286D01*
X14022262Y-9626286D02*
X14031786Y-9578667D01*
X14031786Y-9578667D02*
X14041310Y-9550095D01*
X14041310Y-9550095D02*
X14050834Y-9531048D01*
X14050834Y-9531048D02*
X14069881Y-9502476D01*
X14069881Y-9502476D02*
X14079405Y-9492952D01*
X14165119Y-9721524D02*
X14203214Y-9721524D01*
X14203214Y-9721524D02*
X14222262Y-9712000D01*
X14222262Y-9712000D02*
X14231786Y-9702476D01*
X14231786Y-9702476D02*
X14250834Y-9673905D01*
X14250834Y-9673905D02*
X14260357Y-9635810D01*
X14260357Y-9635810D02*
X14260357Y-9559619D01*
X14260357Y-9559619D02*
X14250834Y-9540571D01*
X14250834Y-9540571D02*
X14241310Y-9531048D01*
X14241310Y-9531048D02*
X14222262Y-9521524D01*
X14222262Y-9521524D02*
X14184167Y-9521524D01*
X14184167Y-9521524D02*
X14165119Y-9531048D01*
X14165119Y-9531048D02*
X14155595Y-9540571D01*
X14155595Y-9540571D02*
X14146072Y-9559619D01*
X14146072Y-9559619D02*
X14146072Y-9607238D01*
X14146072Y-9607238D02*
X14155595Y-9626286D01*
X14155595Y-9626286D02*
X14165119Y-9635810D01*
X14165119Y-9635810D02*
X14184167Y-9645333D01*
X14184167Y-9645333D02*
X14222262Y-9645333D01*
X14222262Y-9645333D02*
X14241310Y-9635810D01*
X14241310Y-9635810D02*
X14250834Y-9626286D01*
X14250834Y-9626286D02*
X14260357Y-9607238D01*
X14498453Y-9721524D02*
X14498453Y-9521524D01*
X14584167Y-9721524D02*
X14584167Y-9616762D01*
X14584167Y-9616762D02*
X14574643Y-9597714D01*
X14574643Y-9597714D02*
X14555596Y-9588190D01*
X14555596Y-9588190D02*
X14527024Y-9588190D01*
X14527024Y-9588190D02*
X14507976Y-9597714D01*
X14507976Y-9597714D02*
X14498453Y-9607238D01*
X14707976Y-9721524D02*
X14688929Y-9712000D01*
X14688929Y-9712000D02*
X14679405Y-9702476D01*
X14679405Y-9702476D02*
X14669881Y-9683429D01*
X14669881Y-9683429D02*
X14669881Y-9626286D01*
X14669881Y-9626286D02*
X14679405Y-9607238D01*
X14679405Y-9607238D02*
X14688929Y-9597714D01*
X14688929Y-9597714D02*
X14707976Y-9588190D01*
X14707976Y-9588190D02*
X14736548Y-9588190D01*
X14736548Y-9588190D02*
X14755596Y-9597714D01*
X14755596Y-9597714D02*
X14765119Y-9607238D01*
X14765119Y-9607238D02*
X14774643Y-9626286D01*
X14774643Y-9626286D02*
X14774643Y-9683429D01*
X14774643Y-9683429D02*
X14765119Y-9702476D01*
X14765119Y-9702476D02*
X14755596Y-9712000D01*
X14755596Y-9712000D02*
X14736548Y-9721524D01*
X14736548Y-9721524D02*
X14707976Y-9721524D01*
X14888929Y-9721524D02*
X14869881Y-9712000D01*
X14869881Y-9712000D02*
X14860357Y-9692952D01*
X14860357Y-9692952D02*
X14860357Y-9521524D01*
X15041310Y-9712000D02*
X15022262Y-9721524D01*
X15022262Y-9721524D02*
X14984167Y-9721524D01*
X14984167Y-9721524D02*
X14965119Y-9712000D01*
X14965119Y-9712000D02*
X14955596Y-9692952D01*
X14955596Y-9692952D02*
X14955596Y-9616762D01*
X14955596Y-9616762D02*
X14965119Y-9597714D01*
X14965119Y-9597714D02*
X14984167Y-9588190D01*
X14984167Y-9588190D02*
X15022262Y-9588190D01*
X15022262Y-9588190D02*
X15041310Y-9597714D01*
X15041310Y-9597714D02*
X15050834Y-9616762D01*
X15050834Y-9616762D02*
X15050834Y-9635810D01*
X15050834Y-9635810D02*
X14955596Y-9654857D01*
X15127024Y-9712000D02*
X15146072Y-9721524D01*
X15146072Y-9721524D02*
X15184167Y-9721524D01*
X15184167Y-9721524D02*
X15203215Y-9712000D01*
X15203215Y-9712000D02*
X15212738Y-9692952D01*
X15212738Y-9692952D02*
X15212738Y-9683429D01*
X15212738Y-9683429D02*
X15203215Y-9664381D01*
X15203215Y-9664381D02*
X15184167Y-9654857D01*
X15184167Y-9654857D02*
X15155596Y-9654857D01*
X15155596Y-9654857D02*
X15136548Y-9645333D01*
X15136548Y-9645333D02*
X15127024Y-9626286D01*
X15127024Y-9626286D02*
X15127024Y-9616762D01*
X15127024Y-9616762D02*
X15136548Y-9597714D01*
X15136548Y-9597714D02*
X15155596Y-9588190D01*
X15155596Y-9588190D02*
X15184167Y-9588190D01*
X15184167Y-9588190D02*
X15203215Y-9597714D01*
X15279405Y-9797714D02*
X15288929Y-9788190D01*
X15288929Y-9788190D02*
X15307977Y-9759619D01*
X15307977Y-9759619D02*
X15317500Y-9740571D01*
X15317500Y-9740571D02*
X15327024Y-9712000D01*
X15327024Y-9712000D02*
X15336548Y-9664381D01*
X15336548Y-9664381D02*
X15336548Y-9626286D01*
X15336548Y-9626286D02*
X15327024Y-9578667D01*
X15327024Y-9578667D02*
X15317500Y-9550095D01*
X15317500Y-9550095D02*
X15307977Y-9531048D01*
X15307977Y-9531048D02*
X15288929Y-9502476D01*
X15288929Y-9502476D02*
X15279405Y-9492952D01*
D14*
X10495000Y-9870500D02*
X10495000Y-9915500D01*
X10472500Y-9893000D02*
X10517500Y-9893000D01*
D11*
X10803214Y-9785524D02*
X10822262Y-9785524D01*
X10822262Y-9785524D02*
X10841310Y-9795048D01*
X10841310Y-9795048D02*
X10850833Y-9804571D01*
X10850833Y-9804571D02*
X10860357Y-9823619D01*
X10860357Y-9823619D02*
X10869881Y-9861714D01*
X10869881Y-9861714D02*
X10869881Y-9909333D01*
X10869881Y-9909333D02*
X10860357Y-9947429D01*
X10860357Y-9947429D02*
X10850833Y-9966476D01*
X10850833Y-9966476D02*
X10841310Y-9976000D01*
X10841310Y-9976000D02*
X10822262Y-9985524D01*
X10822262Y-9985524D02*
X10803214Y-9985524D01*
X10803214Y-9985524D02*
X10784167Y-9976000D01*
X10784167Y-9976000D02*
X10774643Y-9966476D01*
X10774643Y-9966476D02*
X10765119Y-9947429D01*
X10765119Y-9947429D02*
X10755595Y-9909333D01*
X10755595Y-9909333D02*
X10755595Y-9861714D01*
X10755595Y-9861714D02*
X10765119Y-9823619D01*
X10765119Y-9823619D02*
X10774643Y-9804571D01*
X10774643Y-9804571D02*
X10784167Y-9795048D01*
X10784167Y-9795048D02*
X10803214Y-9785524D01*
X10955595Y-9966476D02*
X10965119Y-9976000D01*
X10965119Y-9976000D02*
X10955595Y-9985524D01*
X10955595Y-9985524D02*
X10946071Y-9976000D01*
X10946071Y-9976000D02*
X10955595Y-9966476D01*
X10955595Y-9966476D02*
X10955595Y-9985524D01*
X11136548Y-9852190D02*
X11136548Y-9985524D01*
X11088929Y-9776000D02*
X11041310Y-9918857D01*
X11041310Y-9918857D02*
X11165119Y-9918857D01*
X11336548Y-9785524D02*
X11241309Y-9785524D01*
X11241309Y-9785524D02*
X11231786Y-9880762D01*
X11231786Y-9880762D02*
X11241309Y-9871238D01*
X11241309Y-9871238D02*
X11260357Y-9861714D01*
X11260357Y-9861714D02*
X11307976Y-9861714D01*
X11307976Y-9861714D02*
X11327024Y-9871238D01*
X11327024Y-9871238D02*
X11336548Y-9880762D01*
X11336548Y-9880762D02*
X11346071Y-9899810D01*
X11346071Y-9899810D02*
X11346071Y-9947429D01*
X11346071Y-9947429D02*
X11336548Y-9966476D01*
X11336548Y-9966476D02*
X11327024Y-9976000D01*
X11327024Y-9976000D02*
X11307976Y-9985524D01*
X11307976Y-9985524D02*
X11260357Y-9985524D01*
X11260357Y-9985524D02*
X11241309Y-9976000D01*
X11241309Y-9976000D02*
X11231786Y-9966476D01*
X11469881Y-9785524D02*
X11488929Y-9785524D01*
X11488929Y-9785524D02*
X11507976Y-9795048D01*
X11507976Y-9795048D02*
X11517500Y-9804571D01*
X11517500Y-9804571D02*
X11527024Y-9823619D01*
X11527024Y-9823619D02*
X11536548Y-9861714D01*
X11536548Y-9861714D02*
X11536548Y-9909333D01*
X11536548Y-9909333D02*
X11527024Y-9947429D01*
X11527024Y-9947429D02*
X11517500Y-9966476D01*
X11517500Y-9966476D02*
X11507976Y-9976000D01*
X11507976Y-9976000D02*
X11488929Y-9985524D01*
X11488929Y-9985524D02*
X11469881Y-9985524D01*
X11469881Y-9985524D02*
X11450833Y-9976000D01*
X11450833Y-9976000D02*
X11441309Y-9966476D01*
X11441309Y-9966476D02*
X11431786Y-9947429D01*
X11431786Y-9947429D02*
X11422262Y-9909333D01*
X11422262Y-9909333D02*
X11422262Y-9861714D01*
X11422262Y-9861714D02*
X11431786Y-9823619D01*
X11431786Y-9823619D02*
X11441309Y-9804571D01*
X11441309Y-9804571D02*
X11450833Y-9795048D01*
X11450833Y-9795048D02*
X11469881Y-9785524D01*
X11622262Y-9985524D02*
X11622262Y-9852190D01*
X11622262Y-9871238D02*
X11631786Y-9861714D01*
X11631786Y-9861714D02*
X11650833Y-9852190D01*
X11650833Y-9852190D02*
X11679405Y-9852190D01*
X11679405Y-9852190D02*
X11698452Y-9861714D01*
X11698452Y-9861714D02*
X11707976Y-9880762D01*
X11707976Y-9880762D02*
X11707976Y-9985524D01*
X11707976Y-9880762D02*
X11717500Y-9861714D01*
X11717500Y-9861714D02*
X11736548Y-9852190D01*
X11736548Y-9852190D02*
X11765119Y-9852190D01*
X11765119Y-9852190D02*
X11784167Y-9861714D01*
X11784167Y-9861714D02*
X11793690Y-9880762D01*
X11793690Y-9880762D02*
X11793690Y-9985524D01*
X11888929Y-9985524D02*
X11888929Y-9852190D01*
X11888929Y-9871238D02*
X11898452Y-9861714D01*
X11898452Y-9861714D02*
X11917500Y-9852190D01*
X11917500Y-9852190D02*
X11946071Y-9852190D01*
X11946071Y-9852190D02*
X11965119Y-9861714D01*
X11965119Y-9861714D02*
X11974643Y-9880762D01*
X11974643Y-9880762D02*
X11974643Y-9985524D01*
X11974643Y-9880762D02*
X11984167Y-9861714D01*
X11984167Y-9861714D02*
X12003214Y-9852190D01*
X12003214Y-9852190D02*
X12031786Y-9852190D01*
X12031786Y-9852190D02*
X12050833Y-9861714D01*
X12050833Y-9861714D02*
X12060357Y-9880762D01*
X12060357Y-9880762D02*
X12060357Y-9985524D01*
X12450833Y-9776000D02*
X12279405Y-10033143D01*
X12707976Y-9785524D02*
X12727024Y-9785524D01*
X12727024Y-9785524D02*
X12746072Y-9795048D01*
X12746072Y-9795048D02*
X12755595Y-9804571D01*
X12755595Y-9804571D02*
X12765119Y-9823619D01*
X12765119Y-9823619D02*
X12774643Y-9861714D01*
X12774643Y-9861714D02*
X12774643Y-9909333D01*
X12774643Y-9909333D02*
X12765119Y-9947429D01*
X12765119Y-9947429D02*
X12755595Y-9966476D01*
X12755595Y-9966476D02*
X12746072Y-9976000D01*
X12746072Y-9976000D02*
X12727024Y-9985524D01*
X12727024Y-9985524D02*
X12707976Y-9985524D01*
X12707976Y-9985524D02*
X12688929Y-9976000D01*
X12688929Y-9976000D02*
X12679405Y-9966476D01*
X12679405Y-9966476D02*
X12669881Y-9947429D01*
X12669881Y-9947429D02*
X12660357Y-9909333D01*
X12660357Y-9909333D02*
X12660357Y-9861714D01*
X12660357Y-9861714D02*
X12669881Y-9823619D01*
X12669881Y-9823619D02*
X12679405Y-9804571D01*
X12679405Y-9804571D02*
X12688929Y-9795048D01*
X12688929Y-9795048D02*
X12707976Y-9785524D01*
X12860357Y-9966476D02*
X12869881Y-9976000D01*
X12869881Y-9976000D02*
X12860357Y-9985524D01*
X12860357Y-9985524D02*
X12850833Y-9976000D01*
X12850833Y-9976000D02*
X12860357Y-9966476D01*
X12860357Y-9966476D02*
X12860357Y-9985524D01*
X12993691Y-9785524D02*
X13012738Y-9785524D01*
X13012738Y-9785524D02*
X13031786Y-9795048D01*
X13031786Y-9795048D02*
X13041310Y-9804571D01*
X13041310Y-9804571D02*
X13050833Y-9823619D01*
X13050833Y-9823619D02*
X13060357Y-9861714D01*
X13060357Y-9861714D02*
X13060357Y-9909333D01*
X13060357Y-9909333D02*
X13050833Y-9947429D01*
X13050833Y-9947429D02*
X13041310Y-9966476D01*
X13041310Y-9966476D02*
X13031786Y-9976000D01*
X13031786Y-9976000D02*
X13012738Y-9985524D01*
X13012738Y-9985524D02*
X12993691Y-9985524D01*
X12993691Y-9985524D02*
X12974643Y-9976000D01*
X12974643Y-9976000D02*
X12965119Y-9966476D01*
X12965119Y-9966476D02*
X12955595Y-9947429D01*
X12955595Y-9947429D02*
X12946072Y-9909333D01*
X12946072Y-9909333D02*
X12946072Y-9861714D01*
X12946072Y-9861714D02*
X12955595Y-9823619D01*
X12955595Y-9823619D02*
X12965119Y-9804571D01*
X12965119Y-9804571D02*
X12974643Y-9795048D01*
X12974643Y-9795048D02*
X12993691Y-9785524D01*
X13250833Y-9985524D02*
X13136548Y-9985524D01*
X13193691Y-9985524D02*
X13193691Y-9785524D01*
X13193691Y-9785524D02*
X13174643Y-9814095D01*
X13174643Y-9814095D02*
X13155595Y-9833143D01*
X13155595Y-9833143D02*
X13136548Y-9842667D01*
X13317500Y-9785524D02*
X13450833Y-9785524D01*
X13450833Y-9785524D02*
X13365119Y-9985524D01*
X13507976Y-9785524D02*
X13641310Y-9785524D01*
X13641310Y-9785524D02*
X13555595Y-9985524D01*
X13707976Y-9785524D02*
X13707976Y-9823619D01*
X13784167Y-9785524D02*
X13784167Y-9823619D01*
X14079405Y-10061714D02*
X14069881Y-10052190D01*
X14069881Y-10052190D02*
X14050834Y-10023619D01*
X14050834Y-10023619D02*
X14041310Y-10004571D01*
X14041310Y-10004571D02*
X14031786Y-9976000D01*
X14031786Y-9976000D02*
X14022262Y-9928381D01*
X14022262Y-9928381D02*
X14022262Y-9890286D01*
X14022262Y-9890286D02*
X14031786Y-9842667D01*
X14031786Y-9842667D02*
X14041310Y-9814095D01*
X14041310Y-9814095D02*
X14050834Y-9795048D01*
X14050834Y-9795048D02*
X14069881Y-9766476D01*
X14069881Y-9766476D02*
X14079405Y-9756952D01*
X14241310Y-9852190D02*
X14241310Y-9985524D01*
X14193691Y-9776000D02*
X14146072Y-9918857D01*
X14146072Y-9918857D02*
X14269881Y-9918857D01*
X14327024Y-9785524D02*
X14450834Y-9785524D01*
X14450834Y-9785524D02*
X14384167Y-9861714D01*
X14384167Y-9861714D02*
X14412738Y-9861714D01*
X14412738Y-9861714D02*
X14431786Y-9871238D01*
X14431786Y-9871238D02*
X14441310Y-9880762D01*
X14441310Y-9880762D02*
X14450834Y-9899810D01*
X14450834Y-9899810D02*
X14450834Y-9947429D01*
X14450834Y-9947429D02*
X14441310Y-9966476D01*
X14441310Y-9966476D02*
X14431786Y-9976000D01*
X14431786Y-9976000D02*
X14412738Y-9985524D01*
X14412738Y-9985524D02*
X14355595Y-9985524D01*
X14355595Y-9985524D02*
X14336548Y-9976000D01*
X14336548Y-9976000D02*
X14327024Y-9966476D01*
X14688929Y-9985524D02*
X14688929Y-9785524D01*
X14774643Y-9985524D02*
X14774643Y-9880762D01*
X14774643Y-9880762D02*
X14765119Y-9861714D01*
X14765119Y-9861714D02*
X14746072Y-9852190D01*
X14746072Y-9852190D02*
X14717500Y-9852190D01*
X14717500Y-9852190D02*
X14698453Y-9861714D01*
X14698453Y-9861714D02*
X14688929Y-9871238D01*
X14898453Y-9985524D02*
X14879405Y-9976000D01*
X14879405Y-9976000D02*
X14869881Y-9966476D01*
X14869881Y-9966476D02*
X14860357Y-9947429D01*
X14860357Y-9947429D02*
X14860357Y-9890286D01*
X14860357Y-9890286D02*
X14869881Y-9871238D01*
X14869881Y-9871238D02*
X14879405Y-9861714D01*
X14879405Y-9861714D02*
X14898453Y-9852190D01*
X14898453Y-9852190D02*
X14927024Y-9852190D01*
X14927024Y-9852190D02*
X14946072Y-9861714D01*
X14946072Y-9861714D02*
X14955596Y-9871238D01*
X14955596Y-9871238D02*
X14965119Y-9890286D01*
X14965119Y-9890286D02*
X14965119Y-9947429D01*
X14965119Y-9947429D02*
X14955596Y-9966476D01*
X14955596Y-9966476D02*
X14946072Y-9976000D01*
X14946072Y-9976000D02*
X14927024Y-9985524D01*
X14927024Y-9985524D02*
X14898453Y-9985524D01*
X15079405Y-9985524D02*
X15060357Y-9976000D01*
X15060357Y-9976000D02*
X15050834Y-9956952D01*
X15050834Y-9956952D02*
X15050834Y-9785524D01*
X15231786Y-9976000D02*
X15212738Y-9985524D01*
X15212738Y-9985524D02*
X15174643Y-9985524D01*
X15174643Y-9985524D02*
X15155596Y-9976000D01*
X15155596Y-9976000D02*
X15146072Y-9956952D01*
X15146072Y-9956952D02*
X15146072Y-9880762D01*
X15146072Y-9880762D02*
X15155596Y-9861714D01*
X15155596Y-9861714D02*
X15174643Y-9852190D01*
X15174643Y-9852190D02*
X15212738Y-9852190D01*
X15212738Y-9852190D02*
X15231786Y-9861714D01*
X15231786Y-9861714D02*
X15241310Y-9880762D01*
X15241310Y-9880762D02*
X15241310Y-9899810D01*
X15241310Y-9899810D02*
X15146072Y-9918857D01*
X15317500Y-9976000D02*
X15336548Y-9985524D01*
X15336548Y-9985524D02*
X15374643Y-9985524D01*
X15374643Y-9985524D02*
X15393691Y-9976000D01*
X15393691Y-9976000D02*
X15403215Y-9956952D01*
X15403215Y-9956952D02*
X15403215Y-9947429D01*
X15403215Y-9947429D02*
X15393691Y-9928381D01*
X15393691Y-9928381D02*
X15374643Y-9918857D01*
X15374643Y-9918857D02*
X15346072Y-9918857D01*
X15346072Y-9918857D02*
X15327024Y-9909333D01*
X15327024Y-9909333D02*
X15317500Y-9890286D01*
X15317500Y-9890286D02*
X15317500Y-9880762D01*
X15317500Y-9880762D02*
X15327024Y-9861714D01*
X15327024Y-9861714D02*
X15346072Y-9852190D01*
X15346072Y-9852190D02*
X15374643Y-9852190D01*
X15374643Y-9852190D02*
X15393691Y-9861714D01*
X15469881Y-10061714D02*
X15479405Y-10052190D01*
X15479405Y-10052190D02*
X15498453Y-10023619D01*
X15498453Y-10023619D02*
X15507977Y-10004571D01*
X15507977Y-10004571D02*
X15517500Y-9976000D01*
X15517500Y-9976000D02*
X15527024Y-9928381D01*
X15527024Y-9928381D02*
X15527024Y-9890286D01*
X15527024Y-9890286D02*
X15517500Y-9842667D01*
X15517500Y-9842667D02*
X15507977Y-9814095D01*
X15507977Y-9814095D02*
X15498453Y-9795048D01*
X15498453Y-9795048D02*
X15479405Y-9766476D01*
X15479405Y-9766476D02*
X15469881Y-9756952D01*
D15*
X10508713Y-10178213D02*
X10508713Y-10135787D01*
X10466287Y-10135787D01*
X10466287Y-10178213D01*
X10508713Y-10178213D01*
D11*
X10803214Y-10049524D02*
X10822262Y-10049524D01*
X10822262Y-10049524D02*
X10841310Y-10059048D01*
X10841310Y-10059048D02*
X10850833Y-10068571D01*
X10850833Y-10068571D02*
X10860357Y-10087619D01*
X10860357Y-10087619D02*
X10869881Y-10125714D01*
X10869881Y-10125714D02*
X10869881Y-10173333D01*
X10869881Y-10173333D02*
X10860357Y-10211429D01*
X10860357Y-10211429D02*
X10850833Y-10230476D01*
X10850833Y-10230476D02*
X10841310Y-10240000D01*
X10841310Y-10240000D02*
X10822262Y-10249524D01*
X10822262Y-10249524D02*
X10803214Y-10249524D01*
X10803214Y-10249524D02*
X10784167Y-10240000D01*
X10784167Y-10240000D02*
X10774643Y-10230476D01*
X10774643Y-10230476D02*
X10765119Y-10211429D01*
X10765119Y-10211429D02*
X10755595Y-10173333D01*
X10755595Y-10173333D02*
X10755595Y-10125714D01*
X10755595Y-10125714D02*
X10765119Y-10087619D01*
X10765119Y-10087619D02*
X10774643Y-10068571D01*
X10774643Y-10068571D02*
X10784167Y-10059048D01*
X10784167Y-10059048D02*
X10803214Y-10049524D01*
X10955595Y-10230476D02*
X10965119Y-10240000D01*
X10965119Y-10240000D02*
X10955595Y-10249524D01*
X10955595Y-10249524D02*
X10946071Y-10240000D01*
X10946071Y-10240000D02*
X10955595Y-10230476D01*
X10955595Y-10230476D02*
X10955595Y-10249524D01*
X11136548Y-10049524D02*
X11098452Y-10049524D01*
X11098452Y-10049524D02*
X11079405Y-10059048D01*
X11079405Y-10059048D02*
X11069881Y-10068571D01*
X11069881Y-10068571D02*
X11050833Y-10097143D01*
X11050833Y-10097143D02*
X11041310Y-10135238D01*
X11041310Y-10135238D02*
X11041310Y-10211429D01*
X11041310Y-10211429D02*
X11050833Y-10230476D01*
X11050833Y-10230476D02*
X11060357Y-10240000D01*
X11060357Y-10240000D02*
X11079405Y-10249524D01*
X11079405Y-10249524D02*
X11117500Y-10249524D01*
X11117500Y-10249524D02*
X11136548Y-10240000D01*
X11136548Y-10240000D02*
X11146071Y-10230476D01*
X11146071Y-10230476D02*
X11155595Y-10211429D01*
X11155595Y-10211429D02*
X11155595Y-10163810D01*
X11155595Y-10163810D02*
X11146071Y-10144762D01*
X11146071Y-10144762D02*
X11136548Y-10135238D01*
X11136548Y-10135238D02*
X11117500Y-10125714D01*
X11117500Y-10125714D02*
X11079405Y-10125714D01*
X11079405Y-10125714D02*
X11060357Y-10135238D01*
X11060357Y-10135238D02*
X11050833Y-10144762D01*
X11050833Y-10144762D02*
X11041310Y-10163810D01*
X11279405Y-10049524D02*
X11298452Y-10049524D01*
X11298452Y-10049524D02*
X11317500Y-10059048D01*
X11317500Y-10059048D02*
X11327024Y-10068571D01*
X11327024Y-10068571D02*
X11336548Y-10087619D01*
X11336548Y-10087619D02*
X11346071Y-10125714D01*
X11346071Y-10125714D02*
X11346071Y-10173333D01*
X11346071Y-10173333D02*
X11336548Y-10211429D01*
X11336548Y-10211429D02*
X11327024Y-10230476D01*
X11327024Y-10230476D02*
X11317500Y-10240000D01*
X11317500Y-10240000D02*
X11298452Y-10249524D01*
X11298452Y-10249524D02*
X11279405Y-10249524D01*
X11279405Y-10249524D02*
X11260357Y-10240000D01*
X11260357Y-10240000D02*
X11250833Y-10230476D01*
X11250833Y-10230476D02*
X11241309Y-10211429D01*
X11241309Y-10211429D02*
X11231786Y-10173333D01*
X11231786Y-10173333D02*
X11231786Y-10125714D01*
X11231786Y-10125714D02*
X11241309Y-10087619D01*
X11241309Y-10087619D02*
X11250833Y-10068571D01*
X11250833Y-10068571D02*
X11260357Y-10059048D01*
X11260357Y-10059048D02*
X11279405Y-10049524D01*
X11469881Y-10049524D02*
X11488929Y-10049524D01*
X11488929Y-10049524D02*
X11507976Y-10059048D01*
X11507976Y-10059048D02*
X11517500Y-10068571D01*
X11517500Y-10068571D02*
X11527024Y-10087619D01*
X11527024Y-10087619D02*
X11536548Y-10125714D01*
X11536548Y-10125714D02*
X11536548Y-10173333D01*
X11536548Y-10173333D02*
X11527024Y-10211429D01*
X11527024Y-10211429D02*
X11517500Y-10230476D01*
X11517500Y-10230476D02*
X11507976Y-10240000D01*
X11507976Y-10240000D02*
X11488929Y-10249524D01*
X11488929Y-10249524D02*
X11469881Y-10249524D01*
X11469881Y-10249524D02*
X11450833Y-10240000D01*
X11450833Y-10240000D02*
X11441309Y-10230476D01*
X11441309Y-10230476D02*
X11431786Y-10211429D01*
X11431786Y-10211429D02*
X11422262Y-10173333D01*
X11422262Y-10173333D02*
X11422262Y-10125714D01*
X11422262Y-10125714D02*
X11431786Y-10087619D01*
X11431786Y-10087619D02*
X11441309Y-10068571D01*
X11441309Y-10068571D02*
X11450833Y-10059048D01*
X11450833Y-10059048D02*
X11469881Y-10049524D01*
X11622262Y-10249524D02*
X11622262Y-10116190D01*
X11622262Y-10135238D02*
X11631786Y-10125714D01*
X11631786Y-10125714D02*
X11650833Y-10116190D01*
X11650833Y-10116190D02*
X11679405Y-10116190D01*
X11679405Y-10116190D02*
X11698452Y-10125714D01*
X11698452Y-10125714D02*
X11707976Y-10144762D01*
X11707976Y-10144762D02*
X11707976Y-10249524D01*
X11707976Y-10144762D02*
X11717500Y-10125714D01*
X11717500Y-10125714D02*
X11736548Y-10116190D01*
X11736548Y-10116190D02*
X11765119Y-10116190D01*
X11765119Y-10116190D02*
X11784167Y-10125714D01*
X11784167Y-10125714D02*
X11793690Y-10144762D01*
X11793690Y-10144762D02*
X11793690Y-10249524D01*
X11888929Y-10249524D02*
X11888929Y-10116190D01*
X11888929Y-10135238D02*
X11898452Y-10125714D01*
X11898452Y-10125714D02*
X11917500Y-10116190D01*
X11917500Y-10116190D02*
X11946071Y-10116190D01*
X11946071Y-10116190D02*
X11965119Y-10125714D01*
X11965119Y-10125714D02*
X11974643Y-10144762D01*
X11974643Y-10144762D02*
X11974643Y-10249524D01*
X11974643Y-10144762D02*
X11984167Y-10125714D01*
X11984167Y-10125714D02*
X12003214Y-10116190D01*
X12003214Y-10116190D02*
X12031786Y-10116190D01*
X12031786Y-10116190D02*
X12050833Y-10125714D01*
X12050833Y-10125714D02*
X12060357Y-10144762D01*
X12060357Y-10144762D02*
X12060357Y-10249524D01*
X12450833Y-10040000D02*
X12279405Y-10297143D01*
X12707976Y-10049524D02*
X12727024Y-10049524D01*
X12727024Y-10049524D02*
X12746072Y-10059048D01*
X12746072Y-10059048D02*
X12755595Y-10068571D01*
X12755595Y-10068571D02*
X12765119Y-10087619D01*
X12765119Y-10087619D02*
X12774643Y-10125714D01*
X12774643Y-10125714D02*
X12774643Y-10173333D01*
X12774643Y-10173333D02*
X12765119Y-10211429D01*
X12765119Y-10211429D02*
X12755595Y-10230476D01*
X12755595Y-10230476D02*
X12746072Y-10240000D01*
X12746072Y-10240000D02*
X12727024Y-10249524D01*
X12727024Y-10249524D02*
X12707976Y-10249524D01*
X12707976Y-10249524D02*
X12688929Y-10240000D01*
X12688929Y-10240000D02*
X12679405Y-10230476D01*
X12679405Y-10230476D02*
X12669881Y-10211429D01*
X12669881Y-10211429D02*
X12660357Y-10173333D01*
X12660357Y-10173333D02*
X12660357Y-10125714D01*
X12660357Y-10125714D02*
X12669881Y-10087619D01*
X12669881Y-10087619D02*
X12679405Y-10068571D01*
X12679405Y-10068571D02*
X12688929Y-10059048D01*
X12688929Y-10059048D02*
X12707976Y-10049524D01*
X12860357Y-10230476D02*
X12869881Y-10240000D01*
X12869881Y-10240000D02*
X12860357Y-10249524D01*
X12860357Y-10249524D02*
X12850833Y-10240000D01*
X12850833Y-10240000D02*
X12860357Y-10230476D01*
X12860357Y-10230476D02*
X12860357Y-10249524D01*
X12993691Y-10049524D02*
X13012738Y-10049524D01*
X13012738Y-10049524D02*
X13031786Y-10059048D01*
X13031786Y-10059048D02*
X13041310Y-10068571D01*
X13041310Y-10068571D02*
X13050833Y-10087619D01*
X13050833Y-10087619D02*
X13060357Y-10125714D01*
X13060357Y-10125714D02*
X13060357Y-10173333D01*
X13060357Y-10173333D02*
X13050833Y-10211429D01*
X13050833Y-10211429D02*
X13041310Y-10230476D01*
X13041310Y-10230476D02*
X13031786Y-10240000D01*
X13031786Y-10240000D02*
X13012738Y-10249524D01*
X13012738Y-10249524D02*
X12993691Y-10249524D01*
X12993691Y-10249524D02*
X12974643Y-10240000D01*
X12974643Y-10240000D02*
X12965119Y-10230476D01*
X12965119Y-10230476D02*
X12955595Y-10211429D01*
X12955595Y-10211429D02*
X12946072Y-10173333D01*
X12946072Y-10173333D02*
X12946072Y-10125714D01*
X12946072Y-10125714D02*
X12955595Y-10087619D01*
X12955595Y-10087619D02*
X12965119Y-10068571D01*
X12965119Y-10068571D02*
X12974643Y-10059048D01*
X12974643Y-10059048D02*
X12993691Y-10049524D01*
X13136548Y-10068571D02*
X13146072Y-10059048D01*
X13146072Y-10059048D02*
X13165119Y-10049524D01*
X13165119Y-10049524D02*
X13212738Y-10049524D01*
X13212738Y-10049524D02*
X13231786Y-10059048D01*
X13231786Y-10059048D02*
X13241310Y-10068571D01*
X13241310Y-10068571D02*
X13250833Y-10087619D01*
X13250833Y-10087619D02*
X13250833Y-10106667D01*
X13250833Y-10106667D02*
X13241310Y-10135238D01*
X13241310Y-10135238D02*
X13127024Y-10249524D01*
X13127024Y-10249524D02*
X13250833Y-10249524D01*
X13317500Y-10049524D02*
X13441310Y-10049524D01*
X13441310Y-10049524D02*
X13374643Y-10125714D01*
X13374643Y-10125714D02*
X13403214Y-10125714D01*
X13403214Y-10125714D02*
X13422262Y-10135238D01*
X13422262Y-10135238D02*
X13431786Y-10144762D01*
X13431786Y-10144762D02*
X13441310Y-10163810D01*
X13441310Y-10163810D02*
X13441310Y-10211429D01*
X13441310Y-10211429D02*
X13431786Y-10230476D01*
X13431786Y-10230476D02*
X13422262Y-10240000D01*
X13422262Y-10240000D02*
X13403214Y-10249524D01*
X13403214Y-10249524D02*
X13346072Y-10249524D01*
X13346072Y-10249524D02*
X13327024Y-10240000D01*
X13327024Y-10240000D02*
X13317500Y-10230476D01*
X13612738Y-10049524D02*
X13574643Y-10049524D01*
X13574643Y-10049524D02*
X13555595Y-10059048D01*
X13555595Y-10059048D02*
X13546072Y-10068571D01*
X13546072Y-10068571D02*
X13527024Y-10097143D01*
X13527024Y-10097143D02*
X13517500Y-10135238D01*
X13517500Y-10135238D02*
X13517500Y-10211429D01*
X13517500Y-10211429D02*
X13527024Y-10230476D01*
X13527024Y-10230476D02*
X13536548Y-10240000D01*
X13536548Y-10240000D02*
X13555595Y-10249524D01*
X13555595Y-10249524D02*
X13593691Y-10249524D01*
X13593691Y-10249524D02*
X13612738Y-10240000D01*
X13612738Y-10240000D02*
X13622262Y-10230476D01*
X13622262Y-10230476D02*
X13631786Y-10211429D01*
X13631786Y-10211429D02*
X13631786Y-10163810D01*
X13631786Y-10163810D02*
X13622262Y-10144762D01*
X13622262Y-10144762D02*
X13612738Y-10135238D01*
X13612738Y-10135238D02*
X13593691Y-10125714D01*
X13593691Y-10125714D02*
X13555595Y-10125714D01*
X13555595Y-10125714D02*
X13536548Y-10135238D01*
X13536548Y-10135238D02*
X13527024Y-10144762D01*
X13527024Y-10144762D02*
X13517500Y-10163810D01*
X13707976Y-10049524D02*
X13707976Y-10087619D01*
X13784167Y-10049524D02*
X13784167Y-10087619D01*
X14079405Y-10325714D02*
X14069881Y-10316190D01*
X14069881Y-10316190D02*
X14050834Y-10287619D01*
X14050834Y-10287619D02*
X14041310Y-10268571D01*
X14041310Y-10268571D02*
X14031786Y-10240000D01*
X14031786Y-10240000D02*
X14022262Y-10192381D01*
X14022262Y-10192381D02*
X14022262Y-10154286D01*
X14022262Y-10154286D02*
X14031786Y-10106667D01*
X14031786Y-10106667D02*
X14041310Y-10078095D01*
X14041310Y-10078095D02*
X14050834Y-10059048D01*
X14050834Y-10059048D02*
X14069881Y-10030476D01*
X14069881Y-10030476D02*
X14079405Y-10020952D01*
X14241310Y-10116190D02*
X14241310Y-10249524D01*
X14193691Y-10040000D02*
X14146072Y-10182857D01*
X14146072Y-10182857D02*
X14269881Y-10182857D01*
X14498453Y-10249524D02*
X14498453Y-10049524D01*
X14584167Y-10249524D02*
X14584167Y-10144762D01*
X14584167Y-10144762D02*
X14574643Y-10125714D01*
X14574643Y-10125714D02*
X14555596Y-10116190D01*
X14555596Y-10116190D02*
X14527024Y-10116190D01*
X14527024Y-10116190D02*
X14507976Y-10125714D01*
X14507976Y-10125714D02*
X14498453Y-10135238D01*
X14707976Y-10249524D02*
X14688929Y-10240000D01*
X14688929Y-10240000D02*
X14679405Y-10230476D01*
X14679405Y-10230476D02*
X14669881Y-10211429D01*
X14669881Y-10211429D02*
X14669881Y-10154286D01*
X14669881Y-10154286D02*
X14679405Y-10135238D01*
X14679405Y-10135238D02*
X14688929Y-10125714D01*
X14688929Y-10125714D02*
X14707976Y-10116190D01*
X14707976Y-10116190D02*
X14736548Y-10116190D01*
X14736548Y-10116190D02*
X14755596Y-10125714D01*
X14755596Y-10125714D02*
X14765119Y-10135238D01*
X14765119Y-10135238D02*
X14774643Y-10154286D01*
X14774643Y-10154286D02*
X14774643Y-10211429D01*
X14774643Y-10211429D02*
X14765119Y-10230476D01*
X14765119Y-10230476D02*
X14755596Y-10240000D01*
X14755596Y-10240000D02*
X14736548Y-10249524D01*
X14736548Y-10249524D02*
X14707976Y-10249524D01*
X14888929Y-10249524D02*
X14869881Y-10240000D01*
X14869881Y-10240000D02*
X14860357Y-10220952D01*
X14860357Y-10220952D02*
X14860357Y-10049524D01*
X15041310Y-10240000D02*
X15022262Y-10249524D01*
X15022262Y-10249524D02*
X14984167Y-10249524D01*
X14984167Y-10249524D02*
X14965119Y-10240000D01*
X14965119Y-10240000D02*
X14955596Y-10220952D01*
X14955596Y-10220952D02*
X14955596Y-10144762D01*
X14955596Y-10144762D02*
X14965119Y-10125714D01*
X14965119Y-10125714D02*
X14984167Y-10116190D01*
X14984167Y-10116190D02*
X15022262Y-10116190D01*
X15022262Y-10116190D02*
X15041310Y-10125714D01*
X15041310Y-10125714D02*
X15050834Y-10144762D01*
X15050834Y-10144762D02*
X15050834Y-10163810D01*
X15050834Y-10163810D02*
X14955596Y-10182857D01*
X15127024Y-10240000D02*
X15146072Y-10249524D01*
X15146072Y-10249524D02*
X15184167Y-10249524D01*
X15184167Y-10249524D02*
X15203215Y-10240000D01*
X15203215Y-10240000D02*
X15212738Y-10220952D01*
X15212738Y-10220952D02*
X15212738Y-10211429D01*
X15212738Y-10211429D02*
X15203215Y-10192381D01*
X15203215Y-10192381D02*
X15184167Y-10182857D01*
X15184167Y-10182857D02*
X15155596Y-10182857D01*
X15155596Y-10182857D02*
X15136548Y-10173333D01*
X15136548Y-10173333D02*
X15127024Y-10154286D01*
X15127024Y-10154286D02*
X15127024Y-10144762D01*
X15127024Y-10144762D02*
X15136548Y-10125714D01*
X15136548Y-10125714D02*
X15155596Y-10116190D01*
X15155596Y-10116190D02*
X15184167Y-10116190D01*
X15184167Y-10116190D02*
X15203215Y-10125714D01*
X15279405Y-10325714D02*
X15288929Y-10316190D01*
X15288929Y-10316190D02*
X15307977Y-10287619D01*
X15307977Y-10287619D02*
X15317500Y-10268571D01*
X15317500Y-10268571D02*
X15327024Y-10240000D01*
X15327024Y-10240000D02*
X15336548Y-10192381D01*
X15336548Y-10192381D02*
X15336548Y-10154286D01*
X15336548Y-10154286D02*
X15327024Y-10106667D01*
X15327024Y-10106667D02*
X15317500Y-10078095D01*
X15317500Y-10078095D02*
X15307977Y-10059048D01*
X15307977Y-10059048D02*
X15288929Y-10030476D01*
X15288929Y-10030476D02*
X15279405Y-10020952D01*
D15*
X10487500Y-10451000D02*
X10517500Y-10421000D01*
X10487500Y-10391000D01*
X10457500Y-10421000D01*
X10487500Y-10451000D01*
D11*
X10803214Y-10313524D02*
X10822262Y-10313524D01*
X10822262Y-10313524D02*
X10841310Y-10323048D01*
X10841310Y-10323048D02*
X10850833Y-10332571D01*
X10850833Y-10332571D02*
X10860357Y-10351619D01*
X10860357Y-10351619D02*
X10869881Y-10389714D01*
X10869881Y-10389714D02*
X10869881Y-10437333D01*
X10869881Y-10437333D02*
X10860357Y-10475429D01*
X10860357Y-10475429D02*
X10850833Y-10494476D01*
X10850833Y-10494476D02*
X10841310Y-10504000D01*
X10841310Y-10504000D02*
X10822262Y-10513524D01*
X10822262Y-10513524D02*
X10803214Y-10513524D01*
X10803214Y-10513524D02*
X10784167Y-10504000D01*
X10784167Y-10504000D02*
X10774643Y-10494476D01*
X10774643Y-10494476D02*
X10765119Y-10475429D01*
X10765119Y-10475429D02*
X10755595Y-10437333D01*
X10755595Y-10437333D02*
X10755595Y-10389714D01*
X10755595Y-10389714D02*
X10765119Y-10351619D01*
X10765119Y-10351619D02*
X10774643Y-10332571D01*
X10774643Y-10332571D02*
X10784167Y-10323048D01*
X10784167Y-10323048D02*
X10803214Y-10313524D01*
X10955595Y-10494476D02*
X10965119Y-10504000D01*
X10965119Y-10504000D02*
X10955595Y-10513524D01*
X10955595Y-10513524D02*
X10946071Y-10504000D01*
X10946071Y-10504000D02*
X10955595Y-10494476D01*
X10955595Y-10494476D02*
X10955595Y-10513524D01*
X11136548Y-10313524D02*
X11098452Y-10313524D01*
X11098452Y-10313524D02*
X11079405Y-10323048D01*
X11079405Y-10323048D02*
X11069881Y-10332571D01*
X11069881Y-10332571D02*
X11050833Y-10361143D01*
X11050833Y-10361143D02*
X11041310Y-10399238D01*
X11041310Y-10399238D02*
X11041310Y-10475429D01*
X11041310Y-10475429D02*
X11050833Y-10494476D01*
X11050833Y-10494476D02*
X11060357Y-10504000D01*
X11060357Y-10504000D02*
X11079405Y-10513524D01*
X11079405Y-10513524D02*
X11117500Y-10513524D01*
X11117500Y-10513524D02*
X11136548Y-10504000D01*
X11136548Y-10504000D02*
X11146071Y-10494476D01*
X11146071Y-10494476D02*
X11155595Y-10475429D01*
X11155595Y-10475429D02*
X11155595Y-10427810D01*
X11155595Y-10427810D02*
X11146071Y-10408762D01*
X11146071Y-10408762D02*
X11136548Y-10399238D01*
X11136548Y-10399238D02*
X11117500Y-10389714D01*
X11117500Y-10389714D02*
X11079405Y-10389714D01*
X11079405Y-10389714D02*
X11060357Y-10399238D01*
X11060357Y-10399238D02*
X11050833Y-10408762D01*
X11050833Y-10408762D02*
X11041310Y-10427810D01*
X11279405Y-10313524D02*
X11298452Y-10313524D01*
X11298452Y-10313524D02*
X11317500Y-10323048D01*
X11317500Y-10323048D02*
X11327024Y-10332571D01*
X11327024Y-10332571D02*
X11336548Y-10351619D01*
X11336548Y-10351619D02*
X11346071Y-10389714D01*
X11346071Y-10389714D02*
X11346071Y-10437333D01*
X11346071Y-10437333D02*
X11336548Y-10475429D01*
X11336548Y-10475429D02*
X11327024Y-10494476D01*
X11327024Y-10494476D02*
X11317500Y-10504000D01*
X11317500Y-10504000D02*
X11298452Y-10513524D01*
X11298452Y-10513524D02*
X11279405Y-10513524D01*
X11279405Y-10513524D02*
X11260357Y-10504000D01*
X11260357Y-10504000D02*
X11250833Y-10494476D01*
X11250833Y-10494476D02*
X11241309Y-10475429D01*
X11241309Y-10475429D02*
X11231786Y-10437333D01*
X11231786Y-10437333D02*
X11231786Y-10389714D01*
X11231786Y-10389714D02*
X11241309Y-10351619D01*
X11241309Y-10351619D02*
X11250833Y-10332571D01*
X11250833Y-10332571D02*
X11260357Y-10323048D01*
X11260357Y-10323048D02*
X11279405Y-10313524D01*
X11469881Y-10313524D02*
X11488929Y-10313524D01*
X11488929Y-10313524D02*
X11507976Y-10323048D01*
X11507976Y-10323048D02*
X11517500Y-10332571D01*
X11517500Y-10332571D02*
X11527024Y-10351619D01*
X11527024Y-10351619D02*
X11536548Y-10389714D01*
X11536548Y-10389714D02*
X11536548Y-10437333D01*
X11536548Y-10437333D02*
X11527024Y-10475429D01*
X11527024Y-10475429D02*
X11517500Y-10494476D01*
X11517500Y-10494476D02*
X11507976Y-10504000D01*
X11507976Y-10504000D02*
X11488929Y-10513524D01*
X11488929Y-10513524D02*
X11469881Y-10513524D01*
X11469881Y-10513524D02*
X11450833Y-10504000D01*
X11450833Y-10504000D02*
X11441309Y-10494476D01*
X11441309Y-10494476D02*
X11431786Y-10475429D01*
X11431786Y-10475429D02*
X11422262Y-10437333D01*
X11422262Y-10437333D02*
X11422262Y-10389714D01*
X11422262Y-10389714D02*
X11431786Y-10351619D01*
X11431786Y-10351619D02*
X11441309Y-10332571D01*
X11441309Y-10332571D02*
X11450833Y-10323048D01*
X11450833Y-10323048D02*
X11469881Y-10313524D01*
X11622262Y-10513524D02*
X11622262Y-10380190D01*
X11622262Y-10399238D02*
X11631786Y-10389714D01*
X11631786Y-10389714D02*
X11650833Y-10380190D01*
X11650833Y-10380190D02*
X11679405Y-10380190D01*
X11679405Y-10380190D02*
X11698452Y-10389714D01*
X11698452Y-10389714D02*
X11707976Y-10408762D01*
X11707976Y-10408762D02*
X11707976Y-10513524D01*
X11707976Y-10408762D02*
X11717500Y-10389714D01*
X11717500Y-10389714D02*
X11736548Y-10380190D01*
X11736548Y-10380190D02*
X11765119Y-10380190D01*
X11765119Y-10380190D02*
X11784167Y-10389714D01*
X11784167Y-10389714D02*
X11793690Y-10408762D01*
X11793690Y-10408762D02*
X11793690Y-10513524D01*
X11888929Y-10513524D02*
X11888929Y-10380190D01*
X11888929Y-10399238D02*
X11898452Y-10389714D01*
X11898452Y-10389714D02*
X11917500Y-10380190D01*
X11917500Y-10380190D02*
X11946071Y-10380190D01*
X11946071Y-10380190D02*
X11965119Y-10389714D01*
X11965119Y-10389714D02*
X11974643Y-10408762D01*
X11974643Y-10408762D02*
X11974643Y-10513524D01*
X11974643Y-10408762D02*
X11984167Y-10389714D01*
X11984167Y-10389714D02*
X12003214Y-10380190D01*
X12003214Y-10380190D02*
X12031786Y-10380190D01*
X12031786Y-10380190D02*
X12050833Y-10389714D01*
X12050833Y-10389714D02*
X12060357Y-10408762D01*
X12060357Y-10408762D02*
X12060357Y-10513524D01*
X12450833Y-10304000D02*
X12279405Y-10561143D01*
X12707976Y-10313524D02*
X12727024Y-10313524D01*
X12727024Y-10313524D02*
X12746072Y-10323048D01*
X12746072Y-10323048D02*
X12755595Y-10332571D01*
X12755595Y-10332571D02*
X12765119Y-10351619D01*
X12765119Y-10351619D02*
X12774643Y-10389714D01*
X12774643Y-10389714D02*
X12774643Y-10437333D01*
X12774643Y-10437333D02*
X12765119Y-10475429D01*
X12765119Y-10475429D02*
X12755595Y-10494476D01*
X12755595Y-10494476D02*
X12746072Y-10504000D01*
X12746072Y-10504000D02*
X12727024Y-10513524D01*
X12727024Y-10513524D02*
X12707976Y-10513524D01*
X12707976Y-10513524D02*
X12688929Y-10504000D01*
X12688929Y-10504000D02*
X12679405Y-10494476D01*
X12679405Y-10494476D02*
X12669881Y-10475429D01*
X12669881Y-10475429D02*
X12660357Y-10437333D01*
X12660357Y-10437333D02*
X12660357Y-10389714D01*
X12660357Y-10389714D02*
X12669881Y-10351619D01*
X12669881Y-10351619D02*
X12679405Y-10332571D01*
X12679405Y-10332571D02*
X12688929Y-10323048D01*
X12688929Y-10323048D02*
X12707976Y-10313524D01*
X12860357Y-10494476D02*
X12869881Y-10504000D01*
X12869881Y-10504000D02*
X12860357Y-10513524D01*
X12860357Y-10513524D02*
X12850833Y-10504000D01*
X12850833Y-10504000D02*
X12860357Y-10494476D01*
X12860357Y-10494476D02*
X12860357Y-10513524D01*
X12993691Y-10313524D02*
X13012738Y-10313524D01*
X13012738Y-10313524D02*
X13031786Y-10323048D01*
X13031786Y-10323048D02*
X13041310Y-10332571D01*
X13041310Y-10332571D02*
X13050833Y-10351619D01*
X13050833Y-10351619D02*
X13060357Y-10389714D01*
X13060357Y-10389714D02*
X13060357Y-10437333D01*
X13060357Y-10437333D02*
X13050833Y-10475429D01*
X13050833Y-10475429D02*
X13041310Y-10494476D01*
X13041310Y-10494476D02*
X13031786Y-10504000D01*
X13031786Y-10504000D02*
X13012738Y-10513524D01*
X13012738Y-10513524D02*
X12993691Y-10513524D01*
X12993691Y-10513524D02*
X12974643Y-10504000D01*
X12974643Y-10504000D02*
X12965119Y-10494476D01*
X12965119Y-10494476D02*
X12955595Y-10475429D01*
X12955595Y-10475429D02*
X12946072Y-10437333D01*
X12946072Y-10437333D02*
X12946072Y-10389714D01*
X12946072Y-10389714D02*
X12955595Y-10351619D01*
X12955595Y-10351619D02*
X12965119Y-10332571D01*
X12965119Y-10332571D02*
X12974643Y-10323048D01*
X12974643Y-10323048D02*
X12993691Y-10313524D01*
X13136548Y-10332571D02*
X13146072Y-10323048D01*
X13146072Y-10323048D02*
X13165119Y-10313524D01*
X13165119Y-10313524D02*
X13212738Y-10313524D01*
X13212738Y-10313524D02*
X13231786Y-10323048D01*
X13231786Y-10323048D02*
X13241310Y-10332571D01*
X13241310Y-10332571D02*
X13250833Y-10351619D01*
X13250833Y-10351619D02*
X13250833Y-10370667D01*
X13250833Y-10370667D02*
X13241310Y-10399238D01*
X13241310Y-10399238D02*
X13127024Y-10513524D01*
X13127024Y-10513524D02*
X13250833Y-10513524D01*
X13317500Y-10313524D02*
X13441310Y-10313524D01*
X13441310Y-10313524D02*
X13374643Y-10389714D01*
X13374643Y-10389714D02*
X13403214Y-10389714D01*
X13403214Y-10389714D02*
X13422262Y-10399238D01*
X13422262Y-10399238D02*
X13431786Y-10408762D01*
X13431786Y-10408762D02*
X13441310Y-10427810D01*
X13441310Y-10427810D02*
X13441310Y-10475429D01*
X13441310Y-10475429D02*
X13431786Y-10494476D01*
X13431786Y-10494476D02*
X13422262Y-10504000D01*
X13422262Y-10504000D02*
X13403214Y-10513524D01*
X13403214Y-10513524D02*
X13346072Y-10513524D01*
X13346072Y-10513524D02*
X13327024Y-10504000D01*
X13327024Y-10504000D02*
X13317500Y-10494476D01*
X13612738Y-10313524D02*
X13574643Y-10313524D01*
X13574643Y-10313524D02*
X13555595Y-10323048D01*
X13555595Y-10323048D02*
X13546072Y-10332571D01*
X13546072Y-10332571D02*
X13527024Y-10361143D01*
X13527024Y-10361143D02*
X13517500Y-10399238D01*
X13517500Y-10399238D02*
X13517500Y-10475429D01*
X13517500Y-10475429D02*
X13527024Y-10494476D01*
X13527024Y-10494476D02*
X13536548Y-10504000D01*
X13536548Y-10504000D02*
X13555595Y-10513524D01*
X13555595Y-10513524D02*
X13593691Y-10513524D01*
X13593691Y-10513524D02*
X13612738Y-10504000D01*
X13612738Y-10504000D02*
X13622262Y-10494476D01*
X13622262Y-10494476D02*
X13631786Y-10475429D01*
X13631786Y-10475429D02*
X13631786Y-10427810D01*
X13631786Y-10427810D02*
X13622262Y-10408762D01*
X13622262Y-10408762D02*
X13612738Y-10399238D01*
X13612738Y-10399238D02*
X13593691Y-10389714D01*
X13593691Y-10389714D02*
X13555595Y-10389714D01*
X13555595Y-10389714D02*
X13536548Y-10399238D01*
X13536548Y-10399238D02*
X13527024Y-10408762D01*
X13527024Y-10408762D02*
X13517500Y-10427810D01*
X13707976Y-10313524D02*
X13707976Y-10351619D01*
X13784167Y-10313524D02*
X13784167Y-10351619D01*
X14079405Y-10589714D02*
X14069881Y-10580190D01*
X14069881Y-10580190D02*
X14050834Y-10551619D01*
X14050834Y-10551619D02*
X14041310Y-10532571D01*
X14041310Y-10532571D02*
X14031786Y-10504000D01*
X14031786Y-10504000D02*
X14022262Y-10456381D01*
X14022262Y-10456381D02*
X14022262Y-10418286D01*
X14022262Y-10418286D02*
X14031786Y-10370667D01*
X14031786Y-10370667D02*
X14041310Y-10342095D01*
X14041310Y-10342095D02*
X14050834Y-10323048D01*
X14050834Y-10323048D02*
X14069881Y-10294476D01*
X14069881Y-10294476D02*
X14079405Y-10284952D01*
X14193691Y-10313524D02*
X14212738Y-10313524D01*
X14212738Y-10313524D02*
X14231786Y-10323048D01*
X14231786Y-10323048D02*
X14241310Y-10332571D01*
X14241310Y-10332571D02*
X14250834Y-10351619D01*
X14250834Y-10351619D02*
X14260357Y-10389714D01*
X14260357Y-10389714D02*
X14260357Y-10437333D01*
X14260357Y-10437333D02*
X14250834Y-10475429D01*
X14250834Y-10475429D02*
X14241310Y-10494476D01*
X14241310Y-10494476D02*
X14231786Y-10504000D01*
X14231786Y-10504000D02*
X14212738Y-10513524D01*
X14212738Y-10513524D02*
X14193691Y-10513524D01*
X14193691Y-10513524D02*
X14174643Y-10504000D01*
X14174643Y-10504000D02*
X14165119Y-10494476D01*
X14165119Y-10494476D02*
X14155595Y-10475429D01*
X14155595Y-10475429D02*
X14146072Y-10437333D01*
X14146072Y-10437333D02*
X14146072Y-10389714D01*
X14146072Y-10389714D02*
X14155595Y-10351619D01*
X14155595Y-10351619D02*
X14165119Y-10332571D01*
X14165119Y-10332571D02*
X14174643Y-10323048D01*
X14174643Y-10323048D02*
X14193691Y-10313524D01*
X14498453Y-10513524D02*
X14498453Y-10313524D01*
X14584167Y-10513524D02*
X14584167Y-10408762D01*
X14584167Y-10408762D02*
X14574643Y-10389714D01*
X14574643Y-10389714D02*
X14555596Y-10380190D01*
X14555596Y-10380190D02*
X14527024Y-10380190D01*
X14527024Y-10380190D02*
X14507976Y-10389714D01*
X14507976Y-10389714D02*
X14498453Y-10399238D01*
X14707976Y-10513524D02*
X14688929Y-10504000D01*
X14688929Y-10504000D02*
X14679405Y-10494476D01*
X14679405Y-10494476D02*
X14669881Y-10475429D01*
X14669881Y-10475429D02*
X14669881Y-10418286D01*
X14669881Y-10418286D02*
X14679405Y-10399238D01*
X14679405Y-10399238D02*
X14688929Y-10389714D01*
X14688929Y-10389714D02*
X14707976Y-10380190D01*
X14707976Y-10380190D02*
X14736548Y-10380190D01*
X14736548Y-10380190D02*
X14755596Y-10389714D01*
X14755596Y-10389714D02*
X14765119Y-10399238D01*
X14765119Y-10399238D02*
X14774643Y-10418286D01*
X14774643Y-10418286D02*
X14774643Y-10475429D01*
X14774643Y-10475429D02*
X14765119Y-10494476D01*
X14765119Y-10494476D02*
X14755596Y-10504000D01*
X14755596Y-10504000D02*
X14736548Y-10513524D01*
X14736548Y-10513524D02*
X14707976Y-10513524D01*
X14888929Y-10513524D02*
X14869881Y-10504000D01*
X14869881Y-10504000D02*
X14860357Y-10484952D01*
X14860357Y-10484952D02*
X14860357Y-10313524D01*
X15041310Y-10504000D02*
X15022262Y-10513524D01*
X15022262Y-10513524D02*
X14984167Y-10513524D01*
X14984167Y-10513524D02*
X14965119Y-10504000D01*
X14965119Y-10504000D02*
X14955596Y-10484952D01*
X14955596Y-10484952D02*
X14955596Y-10408762D01*
X14955596Y-10408762D02*
X14965119Y-10389714D01*
X14965119Y-10389714D02*
X14984167Y-10380190D01*
X14984167Y-10380190D02*
X15022262Y-10380190D01*
X15022262Y-10380190D02*
X15041310Y-10389714D01*
X15041310Y-10389714D02*
X15050834Y-10408762D01*
X15050834Y-10408762D02*
X15050834Y-10427810D01*
X15050834Y-10427810D02*
X14955596Y-10446857D01*
X15127024Y-10504000D02*
X15146072Y-10513524D01*
X15146072Y-10513524D02*
X15184167Y-10513524D01*
X15184167Y-10513524D02*
X15203215Y-10504000D01*
X15203215Y-10504000D02*
X15212738Y-10484952D01*
X15212738Y-10484952D02*
X15212738Y-10475429D01*
X15212738Y-10475429D02*
X15203215Y-10456381D01*
X15203215Y-10456381D02*
X15184167Y-10446857D01*
X15184167Y-10446857D02*
X15155596Y-10446857D01*
X15155596Y-10446857D02*
X15136548Y-10437333D01*
X15136548Y-10437333D02*
X15127024Y-10418286D01*
X15127024Y-10418286D02*
X15127024Y-10408762D01*
X15127024Y-10408762D02*
X15136548Y-10389714D01*
X15136548Y-10389714D02*
X15155596Y-10380190D01*
X15155596Y-10380190D02*
X15184167Y-10380190D01*
X15184167Y-10380190D02*
X15203215Y-10389714D01*
X15450834Y-10437333D02*
X15603215Y-10437333D01*
X15527024Y-10513524D02*
X15527024Y-10361143D01*
X15936548Y-10380190D02*
X15936548Y-10513524D01*
X15888929Y-10304000D02*
X15841310Y-10446857D01*
X15841310Y-10446857D02*
X15965119Y-10446857D01*
X16184167Y-10504000D02*
X16203215Y-10513524D01*
X16203215Y-10513524D02*
X16241310Y-10513524D01*
X16241310Y-10513524D02*
X16260358Y-10504000D01*
X16260358Y-10504000D02*
X16269881Y-10484952D01*
X16269881Y-10484952D02*
X16269881Y-10475429D01*
X16269881Y-10475429D02*
X16260358Y-10456381D01*
X16260358Y-10456381D02*
X16241310Y-10446857D01*
X16241310Y-10446857D02*
X16212739Y-10446857D01*
X16212739Y-10446857D02*
X16193691Y-10437333D01*
X16193691Y-10437333D02*
X16184167Y-10418286D01*
X16184167Y-10418286D02*
X16184167Y-10408762D01*
X16184167Y-10408762D02*
X16193691Y-10389714D01*
X16193691Y-10389714D02*
X16212739Y-10380190D01*
X16212739Y-10380190D02*
X16241310Y-10380190D01*
X16241310Y-10380190D02*
X16260358Y-10389714D01*
X16384167Y-10513524D02*
X16365120Y-10504000D01*
X16365120Y-10504000D02*
X16355596Y-10484952D01*
X16355596Y-10484952D02*
X16355596Y-10313524D01*
X16488929Y-10513524D02*
X16469881Y-10504000D01*
X16469881Y-10504000D02*
X16460358Y-10494476D01*
X16460358Y-10494476D02*
X16450834Y-10475429D01*
X16450834Y-10475429D02*
X16450834Y-10418286D01*
X16450834Y-10418286D02*
X16460358Y-10399238D01*
X16460358Y-10399238D02*
X16469881Y-10389714D01*
X16469881Y-10389714D02*
X16488929Y-10380190D01*
X16488929Y-10380190D02*
X16517501Y-10380190D01*
X16517501Y-10380190D02*
X16536548Y-10389714D01*
X16536548Y-10389714D02*
X16546072Y-10399238D01*
X16546072Y-10399238D02*
X16555596Y-10418286D01*
X16555596Y-10418286D02*
X16555596Y-10475429D01*
X16555596Y-10475429D02*
X16546072Y-10494476D01*
X16546072Y-10494476D02*
X16536548Y-10504000D01*
X16536548Y-10504000D02*
X16517501Y-10513524D01*
X16517501Y-10513524D02*
X16488929Y-10513524D01*
X16612739Y-10380190D02*
X16688929Y-10380190D01*
X16641310Y-10313524D02*
X16641310Y-10484952D01*
X16641310Y-10484952D02*
X16650834Y-10504000D01*
X16650834Y-10504000D02*
X16669881Y-10513524D01*
X16669881Y-10513524D02*
X16688929Y-10513524D01*
X16746072Y-10504000D02*
X16765120Y-10513524D01*
X16765120Y-10513524D02*
X16803215Y-10513524D01*
X16803215Y-10513524D02*
X16822263Y-10504000D01*
X16822263Y-10504000D02*
X16831786Y-10484952D01*
X16831786Y-10484952D02*
X16831786Y-10475429D01*
X16831786Y-10475429D02*
X16822263Y-10456381D01*
X16822263Y-10456381D02*
X16803215Y-10446857D01*
X16803215Y-10446857D02*
X16774643Y-10446857D01*
X16774643Y-10446857D02*
X16755596Y-10437333D01*
X16755596Y-10437333D02*
X16746072Y-10418286D01*
X16746072Y-10418286D02*
X16746072Y-10408762D01*
X16746072Y-10408762D02*
X16755596Y-10389714D01*
X16755596Y-10389714D02*
X16774643Y-10380190D01*
X16774643Y-10380190D02*
X16803215Y-10380190D01*
X16803215Y-10380190D02*
X16822263Y-10389714D01*
X16898453Y-10589714D02*
X16907977Y-10580190D01*
X16907977Y-10580190D02*
X16927024Y-10551619D01*
X16927024Y-10551619D02*
X16936548Y-10532571D01*
X16936548Y-10532571D02*
X16946072Y-10504000D01*
X16946072Y-10504000D02*
X16955596Y-10456381D01*
X16955596Y-10456381D02*
X16955596Y-10418286D01*
X16955596Y-10418286D02*
X16946072Y-10370667D01*
X16946072Y-10370667D02*
X16936548Y-10342095D01*
X16936548Y-10342095D02*
X16927024Y-10323048D01*
X16927024Y-10323048D02*
X16907977Y-10294476D01*
X16907977Y-10294476D02*
X16898453Y-10284952D01*
D16*
X10432500Y-10642500D02*
X10517500Y-10727500D01*
X10517500Y-10642500D02*
X10432500Y-10727500D01*
X10517500Y-10685000D02*
G75*
G03*
X10517500Y-10685000I-42500J0D01*
G01*
D11*
X10803214Y-10577524D02*
X10822262Y-10577524D01*
X10822262Y-10577524D02*
X10841310Y-10587048D01*
X10841310Y-10587048D02*
X10850833Y-10596571D01*
X10850833Y-10596571D02*
X10860357Y-10615619D01*
X10860357Y-10615619D02*
X10869881Y-10653714D01*
X10869881Y-10653714D02*
X10869881Y-10701333D01*
X10869881Y-10701333D02*
X10860357Y-10739429D01*
X10860357Y-10739429D02*
X10850833Y-10758476D01*
X10850833Y-10758476D02*
X10841310Y-10768000D01*
X10841310Y-10768000D02*
X10822262Y-10777524D01*
X10822262Y-10777524D02*
X10803214Y-10777524D01*
X10803214Y-10777524D02*
X10784167Y-10768000D01*
X10784167Y-10768000D02*
X10774643Y-10758476D01*
X10774643Y-10758476D02*
X10765119Y-10739429D01*
X10765119Y-10739429D02*
X10755595Y-10701333D01*
X10755595Y-10701333D02*
X10755595Y-10653714D01*
X10755595Y-10653714D02*
X10765119Y-10615619D01*
X10765119Y-10615619D02*
X10774643Y-10596571D01*
X10774643Y-10596571D02*
X10784167Y-10587048D01*
X10784167Y-10587048D02*
X10803214Y-10577524D01*
X10955595Y-10758476D02*
X10965119Y-10768000D01*
X10965119Y-10768000D02*
X10955595Y-10777524D01*
X10955595Y-10777524D02*
X10946071Y-10768000D01*
X10946071Y-10768000D02*
X10955595Y-10758476D01*
X10955595Y-10758476D02*
X10955595Y-10777524D01*
X11079405Y-10663238D02*
X11060357Y-10653714D01*
X11060357Y-10653714D02*
X11050833Y-10644190D01*
X11050833Y-10644190D02*
X11041310Y-10625143D01*
X11041310Y-10625143D02*
X11041310Y-10615619D01*
X11041310Y-10615619D02*
X11050833Y-10596571D01*
X11050833Y-10596571D02*
X11060357Y-10587048D01*
X11060357Y-10587048D02*
X11079405Y-10577524D01*
X11079405Y-10577524D02*
X11117500Y-10577524D01*
X11117500Y-10577524D02*
X11136548Y-10587048D01*
X11136548Y-10587048D02*
X11146071Y-10596571D01*
X11146071Y-10596571D02*
X11155595Y-10615619D01*
X11155595Y-10615619D02*
X11155595Y-10625143D01*
X11155595Y-10625143D02*
X11146071Y-10644190D01*
X11146071Y-10644190D02*
X11136548Y-10653714D01*
X11136548Y-10653714D02*
X11117500Y-10663238D01*
X11117500Y-10663238D02*
X11079405Y-10663238D01*
X11079405Y-10663238D02*
X11060357Y-10672762D01*
X11060357Y-10672762D02*
X11050833Y-10682286D01*
X11050833Y-10682286D02*
X11041310Y-10701333D01*
X11041310Y-10701333D02*
X11041310Y-10739429D01*
X11041310Y-10739429D02*
X11050833Y-10758476D01*
X11050833Y-10758476D02*
X11060357Y-10768000D01*
X11060357Y-10768000D02*
X11079405Y-10777524D01*
X11079405Y-10777524D02*
X11117500Y-10777524D01*
X11117500Y-10777524D02*
X11136548Y-10768000D01*
X11136548Y-10768000D02*
X11146071Y-10758476D01*
X11146071Y-10758476D02*
X11155595Y-10739429D01*
X11155595Y-10739429D02*
X11155595Y-10701333D01*
X11155595Y-10701333D02*
X11146071Y-10682286D01*
X11146071Y-10682286D02*
X11136548Y-10672762D01*
X11136548Y-10672762D02*
X11117500Y-10663238D01*
X11336548Y-10577524D02*
X11241309Y-10577524D01*
X11241309Y-10577524D02*
X11231786Y-10672762D01*
X11231786Y-10672762D02*
X11241309Y-10663238D01*
X11241309Y-10663238D02*
X11260357Y-10653714D01*
X11260357Y-10653714D02*
X11307976Y-10653714D01*
X11307976Y-10653714D02*
X11327024Y-10663238D01*
X11327024Y-10663238D02*
X11336548Y-10672762D01*
X11336548Y-10672762D02*
X11346071Y-10691810D01*
X11346071Y-10691810D02*
X11346071Y-10739429D01*
X11346071Y-10739429D02*
X11336548Y-10758476D01*
X11336548Y-10758476D02*
X11327024Y-10768000D01*
X11327024Y-10768000D02*
X11307976Y-10777524D01*
X11307976Y-10777524D02*
X11260357Y-10777524D01*
X11260357Y-10777524D02*
X11241309Y-10768000D01*
X11241309Y-10768000D02*
X11231786Y-10758476D01*
X11469881Y-10577524D02*
X11488929Y-10577524D01*
X11488929Y-10577524D02*
X11507976Y-10587048D01*
X11507976Y-10587048D02*
X11517500Y-10596571D01*
X11517500Y-10596571D02*
X11527024Y-10615619D01*
X11527024Y-10615619D02*
X11536548Y-10653714D01*
X11536548Y-10653714D02*
X11536548Y-10701333D01*
X11536548Y-10701333D02*
X11527024Y-10739429D01*
X11527024Y-10739429D02*
X11517500Y-10758476D01*
X11517500Y-10758476D02*
X11507976Y-10768000D01*
X11507976Y-10768000D02*
X11488929Y-10777524D01*
X11488929Y-10777524D02*
X11469881Y-10777524D01*
X11469881Y-10777524D02*
X11450833Y-10768000D01*
X11450833Y-10768000D02*
X11441309Y-10758476D01*
X11441309Y-10758476D02*
X11431786Y-10739429D01*
X11431786Y-10739429D02*
X11422262Y-10701333D01*
X11422262Y-10701333D02*
X11422262Y-10653714D01*
X11422262Y-10653714D02*
X11431786Y-10615619D01*
X11431786Y-10615619D02*
X11441309Y-10596571D01*
X11441309Y-10596571D02*
X11450833Y-10587048D01*
X11450833Y-10587048D02*
X11469881Y-10577524D01*
X11622262Y-10777524D02*
X11622262Y-10644190D01*
X11622262Y-10663238D02*
X11631786Y-10653714D01*
X11631786Y-10653714D02*
X11650833Y-10644190D01*
X11650833Y-10644190D02*
X11679405Y-10644190D01*
X11679405Y-10644190D02*
X11698452Y-10653714D01*
X11698452Y-10653714D02*
X11707976Y-10672762D01*
X11707976Y-10672762D02*
X11707976Y-10777524D01*
X11707976Y-10672762D02*
X11717500Y-10653714D01*
X11717500Y-10653714D02*
X11736548Y-10644190D01*
X11736548Y-10644190D02*
X11765119Y-10644190D01*
X11765119Y-10644190D02*
X11784167Y-10653714D01*
X11784167Y-10653714D02*
X11793690Y-10672762D01*
X11793690Y-10672762D02*
X11793690Y-10777524D01*
X11888929Y-10777524D02*
X11888929Y-10644190D01*
X11888929Y-10663238D02*
X11898452Y-10653714D01*
X11898452Y-10653714D02*
X11917500Y-10644190D01*
X11917500Y-10644190D02*
X11946071Y-10644190D01*
X11946071Y-10644190D02*
X11965119Y-10653714D01*
X11965119Y-10653714D02*
X11974643Y-10672762D01*
X11974643Y-10672762D02*
X11974643Y-10777524D01*
X11974643Y-10672762D02*
X11984167Y-10653714D01*
X11984167Y-10653714D02*
X12003214Y-10644190D01*
X12003214Y-10644190D02*
X12031786Y-10644190D01*
X12031786Y-10644190D02*
X12050833Y-10653714D01*
X12050833Y-10653714D02*
X12060357Y-10672762D01*
X12060357Y-10672762D02*
X12060357Y-10777524D01*
X12450833Y-10568000D02*
X12279405Y-10825143D01*
X12707976Y-10577524D02*
X12727024Y-10577524D01*
X12727024Y-10577524D02*
X12746072Y-10587048D01*
X12746072Y-10587048D02*
X12755595Y-10596571D01*
X12755595Y-10596571D02*
X12765119Y-10615619D01*
X12765119Y-10615619D02*
X12774643Y-10653714D01*
X12774643Y-10653714D02*
X12774643Y-10701333D01*
X12774643Y-10701333D02*
X12765119Y-10739429D01*
X12765119Y-10739429D02*
X12755595Y-10758476D01*
X12755595Y-10758476D02*
X12746072Y-10768000D01*
X12746072Y-10768000D02*
X12727024Y-10777524D01*
X12727024Y-10777524D02*
X12707976Y-10777524D01*
X12707976Y-10777524D02*
X12688929Y-10768000D01*
X12688929Y-10768000D02*
X12679405Y-10758476D01*
X12679405Y-10758476D02*
X12669881Y-10739429D01*
X12669881Y-10739429D02*
X12660357Y-10701333D01*
X12660357Y-10701333D02*
X12660357Y-10653714D01*
X12660357Y-10653714D02*
X12669881Y-10615619D01*
X12669881Y-10615619D02*
X12679405Y-10596571D01*
X12679405Y-10596571D02*
X12688929Y-10587048D01*
X12688929Y-10587048D02*
X12707976Y-10577524D01*
X12860357Y-10758476D02*
X12869881Y-10768000D01*
X12869881Y-10768000D02*
X12860357Y-10777524D01*
X12860357Y-10777524D02*
X12850833Y-10768000D01*
X12850833Y-10768000D02*
X12860357Y-10758476D01*
X12860357Y-10758476D02*
X12860357Y-10777524D01*
X12993691Y-10577524D02*
X13012738Y-10577524D01*
X13012738Y-10577524D02*
X13031786Y-10587048D01*
X13031786Y-10587048D02*
X13041310Y-10596571D01*
X13041310Y-10596571D02*
X13050833Y-10615619D01*
X13050833Y-10615619D02*
X13060357Y-10653714D01*
X13060357Y-10653714D02*
X13060357Y-10701333D01*
X13060357Y-10701333D02*
X13050833Y-10739429D01*
X13050833Y-10739429D02*
X13041310Y-10758476D01*
X13041310Y-10758476D02*
X13031786Y-10768000D01*
X13031786Y-10768000D02*
X13012738Y-10777524D01*
X13012738Y-10777524D02*
X12993691Y-10777524D01*
X12993691Y-10777524D02*
X12974643Y-10768000D01*
X12974643Y-10768000D02*
X12965119Y-10758476D01*
X12965119Y-10758476D02*
X12955595Y-10739429D01*
X12955595Y-10739429D02*
X12946072Y-10701333D01*
X12946072Y-10701333D02*
X12946072Y-10653714D01*
X12946072Y-10653714D02*
X12955595Y-10615619D01*
X12955595Y-10615619D02*
X12965119Y-10596571D01*
X12965119Y-10596571D02*
X12974643Y-10587048D01*
X12974643Y-10587048D02*
X12993691Y-10577524D01*
X13127024Y-10577524D02*
X13250833Y-10577524D01*
X13250833Y-10577524D02*
X13184167Y-10653714D01*
X13184167Y-10653714D02*
X13212738Y-10653714D01*
X13212738Y-10653714D02*
X13231786Y-10663238D01*
X13231786Y-10663238D02*
X13241310Y-10672762D01*
X13241310Y-10672762D02*
X13250833Y-10691810D01*
X13250833Y-10691810D02*
X13250833Y-10739429D01*
X13250833Y-10739429D02*
X13241310Y-10758476D01*
X13241310Y-10758476D02*
X13231786Y-10768000D01*
X13231786Y-10768000D02*
X13212738Y-10777524D01*
X13212738Y-10777524D02*
X13155595Y-10777524D01*
X13155595Y-10777524D02*
X13136548Y-10768000D01*
X13136548Y-10768000D02*
X13127024Y-10758476D01*
X13317500Y-10577524D02*
X13441310Y-10577524D01*
X13441310Y-10577524D02*
X13374643Y-10653714D01*
X13374643Y-10653714D02*
X13403214Y-10653714D01*
X13403214Y-10653714D02*
X13422262Y-10663238D01*
X13422262Y-10663238D02*
X13431786Y-10672762D01*
X13431786Y-10672762D02*
X13441310Y-10691810D01*
X13441310Y-10691810D02*
X13441310Y-10739429D01*
X13441310Y-10739429D02*
X13431786Y-10758476D01*
X13431786Y-10758476D02*
X13422262Y-10768000D01*
X13422262Y-10768000D02*
X13403214Y-10777524D01*
X13403214Y-10777524D02*
X13346072Y-10777524D01*
X13346072Y-10777524D02*
X13327024Y-10768000D01*
X13327024Y-10768000D02*
X13317500Y-10758476D01*
X13622262Y-10577524D02*
X13527024Y-10577524D01*
X13527024Y-10577524D02*
X13517500Y-10672762D01*
X13517500Y-10672762D02*
X13527024Y-10663238D01*
X13527024Y-10663238D02*
X13546072Y-10653714D01*
X13546072Y-10653714D02*
X13593691Y-10653714D01*
X13593691Y-10653714D02*
X13612738Y-10663238D01*
X13612738Y-10663238D02*
X13622262Y-10672762D01*
X13622262Y-10672762D02*
X13631786Y-10691810D01*
X13631786Y-10691810D02*
X13631786Y-10739429D01*
X13631786Y-10739429D02*
X13622262Y-10758476D01*
X13622262Y-10758476D02*
X13612738Y-10768000D01*
X13612738Y-10768000D02*
X13593691Y-10777524D01*
X13593691Y-10777524D02*
X13546072Y-10777524D01*
X13546072Y-10777524D02*
X13527024Y-10768000D01*
X13527024Y-10768000D02*
X13517500Y-10758476D01*
X13707976Y-10577524D02*
X13707976Y-10615619D01*
X13784167Y-10577524D02*
X13784167Y-10615619D01*
X14079405Y-10853714D02*
X14069881Y-10844190D01*
X14069881Y-10844190D02*
X14050834Y-10815619D01*
X14050834Y-10815619D02*
X14041310Y-10796571D01*
X14041310Y-10796571D02*
X14031786Y-10768000D01*
X14031786Y-10768000D02*
X14022262Y-10720381D01*
X14022262Y-10720381D02*
X14022262Y-10682286D01*
X14022262Y-10682286D02*
X14031786Y-10634667D01*
X14031786Y-10634667D02*
X14041310Y-10606095D01*
X14041310Y-10606095D02*
X14050834Y-10587048D01*
X14050834Y-10587048D02*
X14069881Y-10558476D01*
X14069881Y-10558476D02*
X14079405Y-10548952D01*
X14260357Y-10777524D02*
X14146072Y-10777524D01*
X14203214Y-10777524D02*
X14203214Y-10577524D01*
X14203214Y-10577524D02*
X14184167Y-10606095D01*
X14184167Y-10606095D02*
X14165119Y-10625143D01*
X14165119Y-10625143D02*
X14146072Y-10634667D01*
X14498453Y-10777524D02*
X14498453Y-10577524D01*
X14584167Y-10777524D02*
X14584167Y-10672762D01*
X14584167Y-10672762D02*
X14574643Y-10653714D01*
X14574643Y-10653714D02*
X14555596Y-10644190D01*
X14555596Y-10644190D02*
X14527024Y-10644190D01*
X14527024Y-10644190D02*
X14507976Y-10653714D01*
X14507976Y-10653714D02*
X14498453Y-10663238D01*
X14707976Y-10777524D02*
X14688929Y-10768000D01*
X14688929Y-10768000D02*
X14679405Y-10758476D01*
X14679405Y-10758476D02*
X14669881Y-10739429D01*
X14669881Y-10739429D02*
X14669881Y-10682286D01*
X14669881Y-10682286D02*
X14679405Y-10663238D01*
X14679405Y-10663238D02*
X14688929Y-10653714D01*
X14688929Y-10653714D02*
X14707976Y-10644190D01*
X14707976Y-10644190D02*
X14736548Y-10644190D01*
X14736548Y-10644190D02*
X14755596Y-10653714D01*
X14755596Y-10653714D02*
X14765119Y-10663238D01*
X14765119Y-10663238D02*
X14774643Y-10682286D01*
X14774643Y-10682286D02*
X14774643Y-10739429D01*
X14774643Y-10739429D02*
X14765119Y-10758476D01*
X14765119Y-10758476D02*
X14755596Y-10768000D01*
X14755596Y-10768000D02*
X14736548Y-10777524D01*
X14736548Y-10777524D02*
X14707976Y-10777524D01*
X14888929Y-10777524D02*
X14869881Y-10768000D01*
X14869881Y-10768000D02*
X14860357Y-10748952D01*
X14860357Y-10748952D02*
X14860357Y-10577524D01*
X15041310Y-10768000D02*
X15022262Y-10777524D01*
X15022262Y-10777524D02*
X14984167Y-10777524D01*
X14984167Y-10777524D02*
X14965119Y-10768000D01*
X14965119Y-10768000D02*
X14955596Y-10748952D01*
X14955596Y-10748952D02*
X14955596Y-10672762D01*
X14955596Y-10672762D02*
X14965119Y-10653714D01*
X14965119Y-10653714D02*
X14984167Y-10644190D01*
X14984167Y-10644190D02*
X15022262Y-10644190D01*
X15022262Y-10644190D02*
X15041310Y-10653714D01*
X15041310Y-10653714D02*
X15050834Y-10672762D01*
X15050834Y-10672762D02*
X15050834Y-10691810D01*
X15050834Y-10691810D02*
X14955596Y-10710857D01*
X15117500Y-10853714D02*
X15127024Y-10844190D01*
X15127024Y-10844190D02*
X15146072Y-10815619D01*
X15146072Y-10815619D02*
X15155596Y-10796571D01*
X15155596Y-10796571D02*
X15165119Y-10768000D01*
X15165119Y-10768000D02*
X15174643Y-10720381D01*
X15174643Y-10720381D02*
X15174643Y-10682286D01*
X15174643Y-10682286D02*
X15165119Y-10634667D01*
X15165119Y-10634667D02*
X15155596Y-10606095D01*
X15155596Y-10606095D02*
X15146072Y-10587048D01*
X15146072Y-10587048D02*
X15127024Y-10558476D01*
X15127024Y-10558476D02*
X15117500Y-10548952D01*
D10*
X10417500Y-10899000D02*
X10517500Y-10999000D01*
X10517500Y-10899000D02*
X10417500Y-10999000D01*
X10467500Y-10899000D02*
X10467500Y-10999000D01*
X10417500Y-10949000D02*
X10517500Y-10949000D01*
D11*
X10869881Y-11041524D02*
X10755595Y-11041524D01*
X10812738Y-11041524D02*
X10812738Y-10841524D01*
X10812738Y-10841524D02*
X10793690Y-10870095D01*
X10793690Y-10870095D02*
X10774643Y-10889143D01*
X10774643Y-10889143D02*
X10755595Y-10898667D01*
X10955595Y-11022476D02*
X10965119Y-11032000D01*
X10965119Y-11032000D02*
X10955595Y-11041524D01*
X10955595Y-11041524D02*
X10946071Y-11032000D01*
X10946071Y-11032000D02*
X10955595Y-11022476D01*
X10955595Y-11022476D02*
X10955595Y-11041524D01*
X11088929Y-10841524D02*
X11107976Y-10841524D01*
X11107976Y-10841524D02*
X11127024Y-10851048D01*
X11127024Y-10851048D02*
X11136548Y-10860571D01*
X11136548Y-10860571D02*
X11146071Y-10879619D01*
X11146071Y-10879619D02*
X11155595Y-10917714D01*
X11155595Y-10917714D02*
X11155595Y-10965333D01*
X11155595Y-10965333D02*
X11146071Y-11003429D01*
X11146071Y-11003429D02*
X11136548Y-11022476D01*
X11136548Y-11022476D02*
X11127024Y-11032000D01*
X11127024Y-11032000D02*
X11107976Y-11041524D01*
X11107976Y-11041524D02*
X11088929Y-11041524D01*
X11088929Y-11041524D02*
X11069881Y-11032000D01*
X11069881Y-11032000D02*
X11060357Y-11022476D01*
X11060357Y-11022476D02*
X11050833Y-11003429D01*
X11050833Y-11003429D02*
X11041310Y-10965333D01*
X11041310Y-10965333D02*
X11041310Y-10917714D01*
X11041310Y-10917714D02*
X11050833Y-10879619D01*
X11050833Y-10879619D02*
X11060357Y-10860571D01*
X11060357Y-10860571D02*
X11069881Y-10851048D01*
X11069881Y-10851048D02*
X11088929Y-10841524D01*
X11279405Y-10841524D02*
X11298452Y-10841524D01*
X11298452Y-10841524D02*
X11317500Y-10851048D01*
X11317500Y-10851048D02*
X11327024Y-10860571D01*
X11327024Y-10860571D02*
X11336548Y-10879619D01*
X11336548Y-10879619D02*
X11346071Y-10917714D01*
X11346071Y-10917714D02*
X11346071Y-10965333D01*
X11346071Y-10965333D02*
X11336548Y-11003429D01*
X11336548Y-11003429D02*
X11327024Y-11022476D01*
X11327024Y-11022476D02*
X11317500Y-11032000D01*
X11317500Y-11032000D02*
X11298452Y-11041524D01*
X11298452Y-11041524D02*
X11279405Y-11041524D01*
X11279405Y-11041524D02*
X11260357Y-11032000D01*
X11260357Y-11032000D02*
X11250833Y-11022476D01*
X11250833Y-11022476D02*
X11241309Y-11003429D01*
X11241309Y-11003429D02*
X11231786Y-10965333D01*
X11231786Y-10965333D02*
X11231786Y-10917714D01*
X11231786Y-10917714D02*
X11241309Y-10879619D01*
X11241309Y-10879619D02*
X11250833Y-10860571D01*
X11250833Y-10860571D02*
X11260357Y-10851048D01*
X11260357Y-10851048D02*
X11279405Y-10841524D01*
X11469881Y-10841524D02*
X11488929Y-10841524D01*
X11488929Y-10841524D02*
X11507976Y-10851048D01*
X11507976Y-10851048D02*
X11517500Y-10860571D01*
X11517500Y-10860571D02*
X11527024Y-10879619D01*
X11527024Y-10879619D02*
X11536548Y-10917714D01*
X11536548Y-10917714D02*
X11536548Y-10965333D01*
X11536548Y-10965333D02*
X11527024Y-11003429D01*
X11527024Y-11003429D02*
X11517500Y-11022476D01*
X11517500Y-11022476D02*
X11507976Y-11032000D01*
X11507976Y-11032000D02*
X11488929Y-11041524D01*
X11488929Y-11041524D02*
X11469881Y-11041524D01*
X11469881Y-11041524D02*
X11450833Y-11032000D01*
X11450833Y-11032000D02*
X11441309Y-11022476D01*
X11441309Y-11022476D02*
X11431786Y-11003429D01*
X11431786Y-11003429D02*
X11422262Y-10965333D01*
X11422262Y-10965333D02*
X11422262Y-10917714D01*
X11422262Y-10917714D02*
X11431786Y-10879619D01*
X11431786Y-10879619D02*
X11441309Y-10860571D01*
X11441309Y-10860571D02*
X11450833Y-10851048D01*
X11450833Y-10851048D02*
X11469881Y-10841524D01*
X11622262Y-11041524D02*
X11622262Y-10908190D01*
X11622262Y-10927238D02*
X11631786Y-10917714D01*
X11631786Y-10917714D02*
X11650833Y-10908190D01*
X11650833Y-10908190D02*
X11679405Y-10908190D01*
X11679405Y-10908190D02*
X11698452Y-10917714D01*
X11698452Y-10917714D02*
X11707976Y-10936762D01*
X11707976Y-10936762D02*
X11707976Y-11041524D01*
X11707976Y-10936762D02*
X11717500Y-10917714D01*
X11717500Y-10917714D02*
X11736548Y-10908190D01*
X11736548Y-10908190D02*
X11765119Y-10908190D01*
X11765119Y-10908190D02*
X11784167Y-10917714D01*
X11784167Y-10917714D02*
X11793690Y-10936762D01*
X11793690Y-10936762D02*
X11793690Y-11041524D01*
X11888929Y-11041524D02*
X11888929Y-10908190D01*
X11888929Y-10927238D02*
X11898452Y-10917714D01*
X11898452Y-10917714D02*
X11917500Y-10908190D01*
X11917500Y-10908190D02*
X11946071Y-10908190D01*
X11946071Y-10908190D02*
X11965119Y-10917714D01*
X11965119Y-10917714D02*
X11974643Y-10936762D01*
X11974643Y-10936762D02*
X11974643Y-11041524D01*
X11974643Y-10936762D02*
X11984167Y-10917714D01*
X11984167Y-10917714D02*
X12003214Y-10908190D01*
X12003214Y-10908190D02*
X12031786Y-10908190D01*
X12031786Y-10908190D02*
X12050833Y-10917714D01*
X12050833Y-10917714D02*
X12060357Y-10936762D01*
X12060357Y-10936762D02*
X12060357Y-11041524D01*
X12450833Y-10832000D02*
X12279405Y-11089143D01*
X12707976Y-10841524D02*
X12727024Y-10841524D01*
X12727024Y-10841524D02*
X12746072Y-10851048D01*
X12746072Y-10851048D02*
X12755595Y-10860571D01*
X12755595Y-10860571D02*
X12765119Y-10879619D01*
X12765119Y-10879619D02*
X12774643Y-10917714D01*
X12774643Y-10917714D02*
X12774643Y-10965333D01*
X12774643Y-10965333D02*
X12765119Y-11003429D01*
X12765119Y-11003429D02*
X12755595Y-11022476D01*
X12755595Y-11022476D02*
X12746072Y-11032000D01*
X12746072Y-11032000D02*
X12727024Y-11041524D01*
X12727024Y-11041524D02*
X12707976Y-11041524D01*
X12707976Y-11041524D02*
X12688929Y-11032000D01*
X12688929Y-11032000D02*
X12679405Y-11022476D01*
X12679405Y-11022476D02*
X12669881Y-11003429D01*
X12669881Y-11003429D02*
X12660357Y-10965333D01*
X12660357Y-10965333D02*
X12660357Y-10917714D01*
X12660357Y-10917714D02*
X12669881Y-10879619D01*
X12669881Y-10879619D02*
X12679405Y-10860571D01*
X12679405Y-10860571D02*
X12688929Y-10851048D01*
X12688929Y-10851048D02*
X12707976Y-10841524D01*
X12860357Y-11022476D02*
X12869881Y-11032000D01*
X12869881Y-11032000D02*
X12860357Y-11041524D01*
X12860357Y-11041524D02*
X12850833Y-11032000D01*
X12850833Y-11032000D02*
X12860357Y-11022476D01*
X12860357Y-11022476D02*
X12860357Y-11041524D01*
X12993691Y-10841524D02*
X13012738Y-10841524D01*
X13012738Y-10841524D02*
X13031786Y-10851048D01*
X13031786Y-10851048D02*
X13041310Y-10860571D01*
X13041310Y-10860571D02*
X13050833Y-10879619D01*
X13050833Y-10879619D02*
X13060357Y-10917714D01*
X13060357Y-10917714D02*
X13060357Y-10965333D01*
X13060357Y-10965333D02*
X13050833Y-11003429D01*
X13050833Y-11003429D02*
X13041310Y-11022476D01*
X13041310Y-11022476D02*
X13031786Y-11032000D01*
X13031786Y-11032000D02*
X13012738Y-11041524D01*
X13012738Y-11041524D02*
X12993691Y-11041524D01*
X12993691Y-11041524D02*
X12974643Y-11032000D01*
X12974643Y-11032000D02*
X12965119Y-11022476D01*
X12965119Y-11022476D02*
X12955595Y-11003429D01*
X12955595Y-11003429D02*
X12946072Y-10965333D01*
X12946072Y-10965333D02*
X12946072Y-10917714D01*
X12946072Y-10917714D02*
X12955595Y-10879619D01*
X12955595Y-10879619D02*
X12965119Y-10860571D01*
X12965119Y-10860571D02*
X12974643Y-10851048D01*
X12974643Y-10851048D02*
X12993691Y-10841524D01*
X13127024Y-10841524D02*
X13250833Y-10841524D01*
X13250833Y-10841524D02*
X13184167Y-10917714D01*
X13184167Y-10917714D02*
X13212738Y-10917714D01*
X13212738Y-10917714D02*
X13231786Y-10927238D01*
X13231786Y-10927238D02*
X13241310Y-10936762D01*
X13241310Y-10936762D02*
X13250833Y-10955810D01*
X13250833Y-10955810D02*
X13250833Y-11003429D01*
X13250833Y-11003429D02*
X13241310Y-11022476D01*
X13241310Y-11022476D02*
X13231786Y-11032000D01*
X13231786Y-11032000D02*
X13212738Y-11041524D01*
X13212738Y-11041524D02*
X13155595Y-11041524D01*
X13155595Y-11041524D02*
X13136548Y-11032000D01*
X13136548Y-11032000D02*
X13127024Y-11022476D01*
X13346072Y-11041524D02*
X13384167Y-11041524D01*
X13384167Y-11041524D02*
X13403214Y-11032000D01*
X13403214Y-11032000D02*
X13412738Y-11022476D01*
X13412738Y-11022476D02*
X13431786Y-10993905D01*
X13431786Y-10993905D02*
X13441310Y-10955810D01*
X13441310Y-10955810D02*
X13441310Y-10879619D01*
X13441310Y-10879619D02*
X13431786Y-10860571D01*
X13431786Y-10860571D02*
X13422262Y-10851048D01*
X13422262Y-10851048D02*
X13403214Y-10841524D01*
X13403214Y-10841524D02*
X13365119Y-10841524D01*
X13365119Y-10841524D02*
X13346072Y-10851048D01*
X13346072Y-10851048D02*
X13336548Y-10860571D01*
X13336548Y-10860571D02*
X13327024Y-10879619D01*
X13327024Y-10879619D02*
X13327024Y-10927238D01*
X13327024Y-10927238D02*
X13336548Y-10946286D01*
X13336548Y-10946286D02*
X13346072Y-10955810D01*
X13346072Y-10955810D02*
X13365119Y-10965333D01*
X13365119Y-10965333D02*
X13403214Y-10965333D01*
X13403214Y-10965333D02*
X13422262Y-10955810D01*
X13422262Y-10955810D02*
X13431786Y-10946286D01*
X13431786Y-10946286D02*
X13441310Y-10927238D01*
X13612738Y-10908190D02*
X13612738Y-11041524D01*
X13565119Y-10832000D02*
X13517500Y-10974857D01*
X13517500Y-10974857D02*
X13641310Y-10974857D01*
X13707976Y-10841524D02*
X13707976Y-10879619D01*
X13784167Y-10841524D02*
X13784167Y-10879619D01*
X14079405Y-11117714D02*
X14069881Y-11108190D01*
X14069881Y-11108190D02*
X14050834Y-11079619D01*
X14050834Y-11079619D02*
X14041310Y-11060571D01*
X14041310Y-11060571D02*
X14031786Y-11032000D01*
X14031786Y-11032000D02*
X14022262Y-10984381D01*
X14022262Y-10984381D02*
X14022262Y-10946286D01*
X14022262Y-10946286D02*
X14031786Y-10898667D01*
X14031786Y-10898667D02*
X14041310Y-10870095D01*
X14041310Y-10870095D02*
X14050834Y-10851048D01*
X14050834Y-10851048D02*
X14069881Y-10822476D01*
X14069881Y-10822476D02*
X14079405Y-10812952D01*
X14146072Y-10860571D02*
X14155595Y-10851048D01*
X14155595Y-10851048D02*
X14174643Y-10841524D01*
X14174643Y-10841524D02*
X14222262Y-10841524D01*
X14222262Y-10841524D02*
X14241310Y-10851048D01*
X14241310Y-10851048D02*
X14250834Y-10860571D01*
X14250834Y-10860571D02*
X14260357Y-10879619D01*
X14260357Y-10879619D02*
X14260357Y-10898667D01*
X14260357Y-10898667D02*
X14250834Y-10927238D01*
X14250834Y-10927238D02*
X14136548Y-11041524D01*
X14136548Y-11041524D02*
X14260357Y-11041524D01*
X14498453Y-11041524D02*
X14498453Y-10841524D01*
X14584167Y-11041524D02*
X14584167Y-10936762D01*
X14584167Y-10936762D02*
X14574643Y-10917714D01*
X14574643Y-10917714D02*
X14555596Y-10908190D01*
X14555596Y-10908190D02*
X14527024Y-10908190D01*
X14527024Y-10908190D02*
X14507976Y-10917714D01*
X14507976Y-10917714D02*
X14498453Y-10927238D01*
X14707976Y-11041524D02*
X14688929Y-11032000D01*
X14688929Y-11032000D02*
X14679405Y-11022476D01*
X14679405Y-11022476D02*
X14669881Y-11003429D01*
X14669881Y-11003429D02*
X14669881Y-10946286D01*
X14669881Y-10946286D02*
X14679405Y-10927238D01*
X14679405Y-10927238D02*
X14688929Y-10917714D01*
X14688929Y-10917714D02*
X14707976Y-10908190D01*
X14707976Y-10908190D02*
X14736548Y-10908190D01*
X14736548Y-10908190D02*
X14755596Y-10917714D01*
X14755596Y-10917714D02*
X14765119Y-10927238D01*
X14765119Y-10927238D02*
X14774643Y-10946286D01*
X14774643Y-10946286D02*
X14774643Y-11003429D01*
X14774643Y-11003429D02*
X14765119Y-11022476D01*
X14765119Y-11022476D02*
X14755596Y-11032000D01*
X14755596Y-11032000D02*
X14736548Y-11041524D01*
X14736548Y-11041524D02*
X14707976Y-11041524D01*
X14888929Y-11041524D02*
X14869881Y-11032000D01*
X14869881Y-11032000D02*
X14860357Y-11012952D01*
X14860357Y-11012952D02*
X14860357Y-10841524D01*
X15041310Y-11032000D02*
X15022262Y-11041524D01*
X15022262Y-11041524D02*
X14984167Y-11041524D01*
X14984167Y-11041524D02*
X14965119Y-11032000D01*
X14965119Y-11032000D02*
X14955596Y-11012952D01*
X14955596Y-11012952D02*
X14955596Y-10936762D01*
X14955596Y-10936762D02*
X14965119Y-10917714D01*
X14965119Y-10917714D02*
X14984167Y-10908190D01*
X14984167Y-10908190D02*
X15022262Y-10908190D01*
X15022262Y-10908190D02*
X15041310Y-10917714D01*
X15041310Y-10917714D02*
X15050834Y-10936762D01*
X15050834Y-10936762D02*
X15050834Y-10955810D01*
X15050834Y-10955810D02*
X14955596Y-10974857D01*
X15127024Y-11032000D02*
X15146072Y-11041524D01*
X15146072Y-11041524D02*
X15184167Y-11041524D01*
X15184167Y-11041524D02*
X15203215Y-11032000D01*
X15203215Y-11032000D02*
X15212738Y-11012952D01*
X15212738Y-11012952D02*
X15212738Y-11003429D01*
X15212738Y-11003429D02*
X15203215Y-10984381D01*
X15203215Y-10984381D02*
X15184167Y-10974857D01*
X15184167Y-10974857D02*
X15155596Y-10974857D01*
X15155596Y-10974857D02*
X15136548Y-10965333D01*
X15136548Y-10965333D02*
X15127024Y-10946286D01*
X15127024Y-10946286D02*
X15127024Y-10936762D01*
X15127024Y-10936762D02*
X15136548Y-10917714D01*
X15136548Y-10917714D02*
X15155596Y-10908190D01*
X15155596Y-10908190D02*
X15184167Y-10908190D01*
X15184167Y-10908190D02*
X15203215Y-10917714D01*
X15279405Y-11117714D02*
X15288929Y-11108190D01*
X15288929Y-11108190D02*
X15307977Y-11079619D01*
X15307977Y-11079619D02*
X15317500Y-11060571D01*
X15317500Y-11060571D02*
X15327024Y-11032000D01*
X15327024Y-11032000D02*
X15336548Y-10984381D01*
X15336548Y-10984381D02*
X15336548Y-10946286D01*
X15336548Y-10946286D02*
X15327024Y-10898667D01*
X15327024Y-10898667D02*
X15317500Y-10870095D01*
X15317500Y-10870095D02*
X15307977Y-10851048D01*
X15307977Y-10851048D02*
X15288929Y-10822476D01*
X15288929Y-10822476D02*
X15279405Y-10812952D01*
D17*
X10327500Y-11118000D02*
X10517500Y-11308000D01*
X10517500Y-11118000D02*
X10327500Y-11308000D01*
X10489676Y-11280176D02*
X10489676Y-11145824D01*
X10355324Y-11145824D01*
X10355324Y-11280176D01*
X10489676Y-11280176D01*
D11*
X10869881Y-11305524D02*
X10755595Y-11305524D01*
X10812738Y-11305524D02*
X10812738Y-11105524D01*
X10812738Y-11105524D02*
X10793690Y-11134095D01*
X10793690Y-11134095D02*
X10774643Y-11153143D01*
X10774643Y-11153143D02*
X10755595Y-11162667D01*
X10955595Y-11286476D02*
X10965119Y-11296000D01*
X10965119Y-11296000D02*
X10955595Y-11305524D01*
X10955595Y-11305524D02*
X10946071Y-11296000D01*
X10946071Y-11296000D02*
X10955595Y-11286476D01*
X10955595Y-11286476D02*
X10955595Y-11305524D01*
X11060357Y-11305524D02*
X11098452Y-11305524D01*
X11098452Y-11305524D02*
X11117500Y-11296000D01*
X11117500Y-11296000D02*
X11127024Y-11286476D01*
X11127024Y-11286476D02*
X11146071Y-11257905D01*
X11146071Y-11257905D02*
X11155595Y-11219809D01*
X11155595Y-11219809D02*
X11155595Y-11143619D01*
X11155595Y-11143619D02*
X11146071Y-11124571D01*
X11146071Y-11124571D02*
X11136548Y-11115048D01*
X11136548Y-11115048D02*
X11117500Y-11105524D01*
X11117500Y-11105524D02*
X11079405Y-11105524D01*
X11079405Y-11105524D02*
X11060357Y-11115048D01*
X11060357Y-11115048D02*
X11050833Y-11124571D01*
X11050833Y-11124571D02*
X11041310Y-11143619D01*
X11041310Y-11143619D02*
X11041310Y-11191238D01*
X11041310Y-11191238D02*
X11050833Y-11210286D01*
X11050833Y-11210286D02*
X11060357Y-11219809D01*
X11060357Y-11219809D02*
X11079405Y-11229333D01*
X11079405Y-11229333D02*
X11117500Y-11229333D01*
X11117500Y-11229333D02*
X11136548Y-11219809D01*
X11136548Y-11219809D02*
X11146071Y-11210286D01*
X11146071Y-11210286D02*
X11155595Y-11191238D01*
X11279405Y-11105524D02*
X11298452Y-11105524D01*
X11298452Y-11105524D02*
X11317500Y-11115048D01*
X11317500Y-11115048D02*
X11327024Y-11124571D01*
X11327024Y-11124571D02*
X11336548Y-11143619D01*
X11336548Y-11143619D02*
X11346071Y-11181714D01*
X11346071Y-11181714D02*
X11346071Y-11229333D01*
X11346071Y-11229333D02*
X11336548Y-11267428D01*
X11336548Y-11267428D02*
X11327024Y-11286476D01*
X11327024Y-11286476D02*
X11317500Y-11296000D01*
X11317500Y-11296000D02*
X11298452Y-11305524D01*
X11298452Y-11305524D02*
X11279405Y-11305524D01*
X11279405Y-11305524D02*
X11260357Y-11296000D01*
X11260357Y-11296000D02*
X11250833Y-11286476D01*
X11250833Y-11286476D02*
X11241309Y-11267428D01*
X11241309Y-11267428D02*
X11231786Y-11229333D01*
X11231786Y-11229333D02*
X11231786Y-11181714D01*
X11231786Y-11181714D02*
X11241309Y-11143619D01*
X11241309Y-11143619D02*
X11250833Y-11124571D01*
X11250833Y-11124571D02*
X11260357Y-11115048D01*
X11260357Y-11115048D02*
X11279405Y-11105524D01*
X11469881Y-11105524D02*
X11488929Y-11105524D01*
X11488929Y-11105524D02*
X11507976Y-11115048D01*
X11507976Y-11115048D02*
X11517500Y-11124571D01*
X11517500Y-11124571D02*
X11527024Y-11143619D01*
X11527024Y-11143619D02*
X11536548Y-11181714D01*
X11536548Y-11181714D02*
X11536548Y-11229333D01*
X11536548Y-11229333D02*
X11527024Y-11267428D01*
X11527024Y-11267428D02*
X11517500Y-11286476D01*
X11517500Y-11286476D02*
X11507976Y-11296000D01*
X11507976Y-11296000D02*
X11488929Y-11305524D01*
X11488929Y-11305524D02*
X11469881Y-11305524D01*
X11469881Y-11305524D02*
X11450833Y-11296000D01*
X11450833Y-11296000D02*
X11441309Y-11286476D01*
X11441309Y-11286476D02*
X11431786Y-11267428D01*
X11431786Y-11267428D02*
X11422262Y-11229333D01*
X11422262Y-11229333D02*
X11422262Y-11181714D01*
X11422262Y-11181714D02*
X11431786Y-11143619D01*
X11431786Y-11143619D02*
X11441309Y-11124571D01*
X11441309Y-11124571D02*
X11450833Y-11115048D01*
X11450833Y-11115048D02*
X11469881Y-11105524D01*
X11622262Y-11305524D02*
X11622262Y-11172190D01*
X11622262Y-11191238D02*
X11631786Y-11181714D01*
X11631786Y-11181714D02*
X11650833Y-11172190D01*
X11650833Y-11172190D02*
X11679405Y-11172190D01*
X11679405Y-11172190D02*
X11698452Y-11181714D01*
X11698452Y-11181714D02*
X11707976Y-11200762D01*
X11707976Y-11200762D02*
X11707976Y-11305524D01*
X11707976Y-11200762D02*
X11717500Y-11181714D01*
X11717500Y-11181714D02*
X11736548Y-11172190D01*
X11736548Y-11172190D02*
X11765119Y-11172190D01*
X11765119Y-11172190D02*
X11784167Y-11181714D01*
X11784167Y-11181714D02*
X11793690Y-11200762D01*
X11793690Y-11200762D02*
X11793690Y-11305524D01*
X11888929Y-11305524D02*
X11888929Y-11172190D01*
X11888929Y-11191238D02*
X11898452Y-11181714D01*
X11898452Y-11181714D02*
X11917500Y-11172190D01*
X11917500Y-11172190D02*
X11946071Y-11172190D01*
X11946071Y-11172190D02*
X11965119Y-11181714D01*
X11965119Y-11181714D02*
X11974643Y-11200762D01*
X11974643Y-11200762D02*
X11974643Y-11305524D01*
X11974643Y-11200762D02*
X11984167Y-11181714D01*
X11984167Y-11181714D02*
X12003214Y-11172190D01*
X12003214Y-11172190D02*
X12031786Y-11172190D01*
X12031786Y-11172190D02*
X12050833Y-11181714D01*
X12050833Y-11181714D02*
X12060357Y-11200762D01*
X12060357Y-11200762D02*
X12060357Y-11305524D01*
X12450833Y-11096000D02*
X12279405Y-11353143D01*
X12707976Y-11105524D02*
X12727024Y-11105524D01*
X12727024Y-11105524D02*
X12746072Y-11115048D01*
X12746072Y-11115048D02*
X12755595Y-11124571D01*
X12755595Y-11124571D02*
X12765119Y-11143619D01*
X12765119Y-11143619D02*
X12774643Y-11181714D01*
X12774643Y-11181714D02*
X12774643Y-11229333D01*
X12774643Y-11229333D02*
X12765119Y-11267428D01*
X12765119Y-11267428D02*
X12755595Y-11286476D01*
X12755595Y-11286476D02*
X12746072Y-11296000D01*
X12746072Y-11296000D02*
X12727024Y-11305524D01*
X12727024Y-11305524D02*
X12707976Y-11305524D01*
X12707976Y-11305524D02*
X12688929Y-11296000D01*
X12688929Y-11296000D02*
X12679405Y-11286476D01*
X12679405Y-11286476D02*
X12669881Y-11267428D01*
X12669881Y-11267428D02*
X12660357Y-11229333D01*
X12660357Y-11229333D02*
X12660357Y-11181714D01*
X12660357Y-11181714D02*
X12669881Y-11143619D01*
X12669881Y-11143619D02*
X12679405Y-11124571D01*
X12679405Y-11124571D02*
X12688929Y-11115048D01*
X12688929Y-11115048D02*
X12707976Y-11105524D01*
X12860357Y-11286476D02*
X12869881Y-11296000D01*
X12869881Y-11296000D02*
X12860357Y-11305524D01*
X12860357Y-11305524D02*
X12850833Y-11296000D01*
X12850833Y-11296000D02*
X12860357Y-11286476D01*
X12860357Y-11286476D02*
X12860357Y-11305524D01*
X12993691Y-11105524D02*
X13012738Y-11105524D01*
X13012738Y-11105524D02*
X13031786Y-11115048D01*
X13031786Y-11115048D02*
X13041310Y-11124571D01*
X13041310Y-11124571D02*
X13050833Y-11143619D01*
X13050833Y-11143619D02*
X13060357Y-11181714D01*
X13060357Y-11181714D02*
X13060357Y-11229333D01*
X13060357Y-11229333D02*
X13050833Y-11267428D01*
X13050833Y-11267428D02*
X13041310Y-11286476D01*
X13041310Y-11286476D02*
X13031786Y-11296000D01*
X13031786Y-11296000D02*
X13012738Y-11305524D01*
X13012738Y-11305524D02*
X12993691Y-11305524D01*
X12993691Y-11305524D02*
X12974643Y-11296000D01*
X12974643Y-11296000D02*
X12965119Y-11286476D01*
X12965119Y-11286476D02*
X12955595Y-11267428D01*
X12955595Y-11267428D02*
X12946072Y-11229333D01*
X12946072Y-11229333D02*
X12946072Y-11181714D01*
X12946072Y-11181714D02*
X12955595Y-11143619D01*
X12955595Y-11143619D02*
X12965119Y-11124571D01*
X12965119Y-11124571D02*
X12974643Y-11115048D01*
X12974643Y-11115048D02*
X12993691Y-11105524D01*
X13127024Y-11105524D02*
X13260357Y-11105524D01*
X13260357Y-11105524D02*
X13174643Y-11305524D01*
X13422262Y-11172190D02*
X13422262Y-11305524D01*
X13374643Y-11096000D02*
X13327024Y-11238857D01*
X13327024Y-11238857D02*
X13450833Y-11238857D01*
X13555595Y-11191238D02*
X13536548Y-11181714D01*
X13536548Y-11181714D02*
X13527024Y-11172190D01*
X13527024Y-11172190D02*
X13517500Y-11153143D01*
X13517500Y-11153143D02*
X13517500Y-11143619D01*
X13517500Y-11143619D02*
X13527024Y-11124571D01*
X13527024Y-11124571D02*
X13536548Y-11115048D01*
X13536548Y-11115048D02*
X13555595Y-11105524D01*
X13555595Y-11105524D02*
X13593691Y-11105524D01*
X13593691Y-11105524D02*
X13612738Y-11115048D01*
X13612738Y-11115048D02*
X13622262Y-11124571D01*
X13622262Y-11124571D02*
X13631786Y-11143619D01*
X13631786Y-11143619D02*
X13631786Y-11153143D01*
X13631786Y-11153143D02*
X13622262Y-11172190D01*
X13622262Y-11172190D02*
X13612738Y-11181714D01*
X13612738Y-11181714D02*
X13593691Y-11191238D01*
X13593691Y-11191238D02*
X13555595Y-11191238D01*
X13555595Y-11191238D02*
X13536548Y-11200762D01*
X13536548Y-11200762D02*
X13527024Y-11210286D01*
X13527024Y-11210286D02*
X13517500Y-11229333D01*
X13517500Y-11229333D02*
X13517500Y-11267428D01*
X13517500Y-11267428D02*
X13527024Y-11286476D01*
X13527024Y-11286476D02*
X13536548Y-11296000D01*
X13536548Y-11296000D02*
X13555595Y-11305524D01*
X13555595Y-11305524D02*
X13593691Y-11305524D01*
X13593691Y-11305524D02*
X13612738Y-11296000D01*
X13612738Y-11296000D02*
X13622262Y-11286476D01*
X13622262Y-11286476D02*
X13631786Y-11267428D01*
X13631786Y-11267428D02*
X13631786Y-11229333D01*
X13631786Y-11229333D02*
X13622262Y-11210286D01*
X13622262Y-11210286D02*
X13612738Y-11200762D01*
X13612738Y-11200762D02*
X13593691Y-11191238D01*
X13707976Y-11105524D02*
X13707976Y-11143619D01*
X13784167Y-11105524D02*
X13784167Y-11143619D01*
X14079405Y-11381714D02*
X14069881Y-11372190D01*
X14069881Y-11372190D02*
X14050834Y-11343619D01*
X14050834Y-11343619D02*
X14041310Y-11324571D01*
X14041310Y-11324571D02*
X14031786Y-11296000D01*
X14031786Y-11296000D02*
X14022262Y-11248381D01*
X14022262Y-11248381D02*
X14022262Y-11210286D01*
X14022262Y-11210286D02*
X14031786Y-11162667D01*
X14031786Y-11162667D02*
X14041310Y-11134095D01*
X14041310Y-11134095D02*
X14050834Y-11115048D01*
X14050834Y-11115048D02*
X14069881Y-11086476D01*
X14069881Y-11086476D02*
X14079405Y-11076952D01*
X14146072Y-11124571D02*
X14155595Y-11115048D01*
X14155595Y-11115048D02*
X14174643Y-11105524D01*
X14174643Y-11105524D02*
X14222262Y-11105524D01*
X14222262Y-11105524D02*
X14241310Y-11115048D01*
X14241310Y-11115048D02*
X14250834Y-11124571D01*
X14250834Y-11124571D02*
X14260357Y-11143619D01*
X14260357Y-11143619D02*
X14260357Y-11162667D01*
X14260357Y-11162667D02*
X14250834Y-11191238D01*
X14250834Y-11191238D02*
X14136548Y-11305524D01*
X14136548Y-11305524D02*
X14260357Y-11305524D01*
X14498453Y-11305524D02*
X14498453Y-11105524D01*
X14584167Y-11305524D02*
X14584167Y-11200762D01*
X14584167Y-11200762D02*
X14574643Y-11181714D01*
X14574643Y-11181714D02*
X14555596Y-11172190D01*
X14555596Y-11172190D02*
X14527024Y-11172190D01*
X14527024Y-11172190D02*
X14507976Y-11181714D01*
X14507976Y-11181714D02*
X14498453Y-11191238D01*
X14707976Y-11305524D02*
X14688929Y-11296000D01*
X14688929Y-11296000D02*
X14679405Y-11286476D01*
X14679405Y-11286476D02*
X14669881Y-11267428D01*
X14669881Y-11267428D02*
X14669881Y-11210286D01*
X14669881Y-11210286D02*
X14679405Y-11191238D01*
X14679405Y-11191238D02*
X14688929Y-11181714D01*
X14688929Y-11181714D02*
X14707976Y-11172190D01*
X14707976Y-11172190D02*
X14736548Y-11172190D01*
X14736548Y-11172190D02*
X14755596Y-11181714D01*
X14755596Y-11181714D02*
X14765119Y-11191238D01*
X14765119Y-11191238D02*
X14774643Y-11210286D01*
X14774643Y-11210286D02*
X14774643Y-11267428D01*
X14774643Y-11267428D02*
X14765119Y-11286476D01*
X14765119Y-11286476D02*
X14755596Y-11296000D01*
X14755596Y-11296000D02*
X14736548Y-11305524D01*
X14736548Y-11305524D02*
X14707976Y-11305524D01*
X14888929Y-11305524D02*
X14869881Y-11296000D01*
X14869881Y-11296000D02*
X14860357Y-11276952D01*
X14860357Y-11276952D02*
X14860357Y-11105524D01*
X15041310Y-11296000D02*
X15022262Y-11305524D01*
X15022262Y-11305524D02*
X14984167Y-11305524D01*
X14984167Y-11305524D02*
X14965119Y-11296000D01*
X14965119Y-11296000D02*
X14955596Y-11276952D01*
X14955596Y-11276952D02*
X14955596Y-11200762D01*
X14955596Y-11200762D02*
X14965119Y-11181714D01*
X14965119Y-11181714D02*
X14984167Y-11172190D01*
X14984167Y-11172190D02*
X15022262Y-11172190D01*
X15022262Y-11172190D02*
X15041310Y-11181714D01*
X15041310Y-11181714D02*
X15050834Y-11200762D01*
X15050834Y-11200762D02*
X15050834Y-11219809D01*
X15050834Y-11219809D02*
X14955596Y-11238857D01*
X15127024Y-11296000D02*
X15146072Y-11305524D01*
X15146072Y-11305524D02*
X15184167Y-11305524D01*
X15184167Y-11305524D02*
X15203215Y-11296000D01*
X15203215Y-11296000D02*
X15212738Y-11276952D01*
X15212738Y-11276952D02*
X15212738Y-11267428D01*
X15212738Y-11267428D02*
X15203215Y-11248381D01*
X15203215Y-11248381D02*
X15184167Y-11238857D01*
X15184167Y-11238857D02*
X15155596Y-11238857D01*
X15155596Y-11238857D02*
X15136548Y-11229333D01*
X15136548Y-11229333D02*
X15127024Y-11210286D01*
X15127024Y-11210286D02*
X15127024Y-11200762D01*
X15127024Y-11200762D02*
X15136548Y-11181714D01*
X15136548Y-11181714D02*
X15155596Y-11172190D01*
X15155596Y-11172190D02*
X15184167Y-11172190D01*
X15184167Y-11172190D02*
X15203215Y-11181714D01*
X15279405Y-11381714D02*
X15288929Y-11372190D01*
X15288929Y-11372190D02*
X15307977Y-11343619D01*
X15307977Y-11343619D02*
X15317500Y-11324571D01*
X15317500Y-11324571D02*
X15327024Y-11296000D01*
X15327024Y-11296000D02*
X15336548Y-11248381D01*
X15336548Y-11248381D02*
X15336548Y-11210286D01*
X15336548Y-11210286D02*
X15327024Y-11162667D01*
X15327024Y-11162667D02*
X15317500Y-11134095D01*
X15317500Y-11134095D02*
X15307977Y-11115048D01*
X15307977Y-11115048D02*
X15288929Y-11086476D01*
X15288929Y-11086476D02*
X15279405Y-11076952D01*
X10317500Y-11423000D02*
X10517500Y-11623000D01*
X10517500Y-11423000D02*
X10317500Y-11623000D01*
X10417500Y-11623000D02*
X10517500Y-11523000D01*
X10417500Y-11423000D01*
X10317500Y-11523000D01*
X10417500Y-11623000D01*
X10755595Y-11434571D02*
X10765119Y-11425048D01*
X10765119Y-11425048D02*
X10784167Y-11415524D01*
X10784167Y-11415524D02*
X10831786Y-11415524D01*
X10831786Y-11415524D02*
X10850833Y-11425048D01*
X10850833Y-11425048D02*
X10860357Y-11434571D01*
X10860357Y-11434571D02*
X10869881Y-11453619D01*
X10869881Y-11453619D02*
X10869881Y-11472667D01*
X10869881Y-11472667D02*
X10860357Y-11501238D01*
X10860357Y-11501238D02*
X10746071Y-11615524D01*
X10746071Y-11615524D02*
X10869881Y-11615524D01*
X10955595Y-11596476D02*
X10965119Y-11606000D01*
X10965119Y-11606000D02*
X10955595Y-11615524D01*
X10955595Y-11615524D02*
X10946071Y-11606000D01*
X10946071Y-11606000D02*
X10955595Y-11596476D01*
X10955595Y-11596476D02*
X10955595Y-11615524D01*
X11041310Y-11434571D02*
X11050833Y-11425048D01*
X11050833Y-11425048D02*
X11069881Y-11415524D01*
X11069881Y-11415524D02*
X11117500Y-11415524D01*
X11117500Y-11415524D02*
X11136548Y-11425048D01*
X11136548Y-11425048D02*
X11146071Y-11434571D01*
X11146071Y-11434571D02*
X11155595Y-11453619D01*
X11155595Y-11453619D02*
X11155595Y-11472667D01*
X11155595Y-11472667D02*
X11146071Y-11501238D01*
X11146071Y-11501238D02*
X11031786Y-11615524D01*
X11031786Y-11615524D02*
X11155595Y-11615524D01*
X11279405Y-11415524D02*
X11298452Y-11415524D01*
X11298452Y-11415524D02*
X11317500Y-11425048D01*
X11317500Y-11425048D02*
X11327024Y-11434571D01*
X11327024Y-11434571D02*
X11336548Y-11453619D01*
X11336548Y-11453619D02*
X11346071Y-11491714D01*
X11346071Y-11491714D02*
X11346071Y-11539333D01*
X11346071Y-11539333D02*
X11336548Y-11577428D01*
X11336548Y-11577428D02*
X11327024Y-11596476D01*
X11327024Y-11596476D02*
X11317500Y-11606000D01*
X11317500Y-11606000D02*
X11298452Y-11615524D01*
X11298452Y-11615524D02*
X11279405Y-11615524D01*
X11279405Y-11615524D02*
X11260357Y-11606000D01*
X11260357Y-11606000D02*
X11250833Y-11596476D01*
X11250833Y-11596476D02*
X11241309Y-11577428D01*
X11241309Y-11577428D02*
X11231786Y-11539333D01*
X11231786Y-11539333D02*
X11231786Y-11491714D01*
X11231786Y-11491714D02*
X11241309Y-11453619D01*
X11241309Y-11453619D02*
X11250833Y-11434571D01*
X11250833Y-11434571D02*
X11260357Y-11425048D01*
X11260357Y-11425048D02*
X11279405Y-11415524D01*
X11469881Y-11415524D02*
X11488929Y-11415524D01*
X11488929Y-11415524D02*
X11507976Y-11425048D01*
X11507976Y-11425048D02*
X11517500Y-11434571D01*
X11517500Y-11434571D02*
X11527024Y-11453619D01*
X11527024Y-11453619D02*
X11536548Y-11491714D01*
X11536548Y-11491714D02*
X11536548Y-11539333D01*
X11536548Y-11539333D02*
X11527024Y-11577428D01*
X11527024Y-11577428D02*
X11517500Y-11596476D01*
X11517500Y-11596476D02*
X11507976Y-11606000D01*
X11507976Y-11606000D02*
X11488929Y-11615524D01*
X11488929Y-11615524D02*
X11469881Y-11615524D01*
X11469881Y-11615524D02*
X11450833Y-11606000D01*
X11450833Y-11606000D02*
X11441309Y-11596476D01*
X11441309Y-11596476D02*
X11431786Y-11577428D01*
X11431786Y-11577428D02*
X11422262Y-11539333D01*
X11422262Y-11539333D02*
X11422262Y-11491714D01*
X11422262Y-11491714D02*
X11431786Y-11453619D01*
X11431786Y-11453619D02*
X11441309Y-11434571D01*
X11441309Y-11434571D02*
X11450833Y-11425048D01*
X11450833Y-11425048D02*
X11469881Y-11415524D01*
X11622262Y-11615524D02*
X11622262Y-11482190D01*
X11622262Y-11501238D02*
X11631786Y-11491714D01*
X11631786Y-11491714D02*
X11650833Y-11482190D01*
X11650833Y-11482190D02*
X11679405Y-11482190D01*
X11679405Y-11482190D02*
X11698452Y-11491714D01*
X11698452Y-11491714D02*
X11707976Y-11510762D01*
X11707976Y-11510762D02*
X11707976Y-11615524D01*
X11707976Y-11510762D02*
X11717500Y-11491714D01*
X11717500Y-11491714D02*
X11736548Y-11482190D01*
X11736548Y-11482190D02*
X11765119Y-11482190D01*
X11765119Y-11482190D02*
X11784167Y-11491714D01*
X11784167Y-11491714D02*
X11793690Y-11510762D01*
X11793690Y-11510762D02*
X11793690Y-11615524D01*
X11888929Y-11615524D02*
X11888929Y-11482190D01*
X11888929Y-11501238D02*
X11898452Y-11491714D01*
X11898452Y-11491714D02*
X11917500Y-11482190D01*
X11917500Y-11482190D02*
X11946071Y-11482190D01*
X11946071Y-11482190D02*
X11965119Y-11491714D01*
X11965119Y-11491714D02*
X11974643Y-11510762D01*
X11974643Y-11510762D02*
X11974643Y-11615524D01*
X11974643Y-11510762D02*
X11984167Y-11491714D01*
X11984167Y-11491714D02*
X12003214Y-11482190D01*
X12003214Y-11482190D02*
X12031786Y-11482190D01*
X12031786Y-11482190D02*
X12050833Y-11491714D01*
X12050833Y-11491714D02*
X12060357Y-11510762D01*
X12060357Y-11510762D02*
X12060357Y-11615524D01*
X12450833Y-11406000D02*
X12279405Y-11663143D01*
X12707976Y-11415524D02*
X12727024Y-11415524D01*
X12727024Y-11415524D02*
X12746072Y-11425048D01*
X12746072Y-11425048D02*
X12755595Y-11434571D01*
X12755595Y-11434571D02*
X12765119Y-11453619D01*
X12765119Y-11453619D02*
X12774643Y-11491714D01*
X12774643Y-11491714D02*
X12774643Y-11539333D01*
X12774643Y-11539333D02*
X12765119Y-11577428D01*
X12765119Y-11577428D02*
X12755595Y-11596476D01*
X12755595Y-11596476D02*
X12746072Y-11606000D01*
X12746072Y-11606000D02*
X12727024Y-11615524D01*
X12727024Y-11615524D02*
X12707976Y-11615524D01*
X12707976Y-11615524D02*
X12688929Y-11606000D01*
X12688929Y-11606000D02*
X12679405Y-11596476D01*
X12679405Y-11596476D02*
X12669881Y-11577428D01*
X12669881Y-11577428D02*
X12660357Y-11539333D01*
X12660357Y-11539333D02*
X12660357Y-11491714D01*
X12660357Y-11491714D02*
X12669881Y-11453619D01*
X12669881Y-11453619D02*
X12679405Y-11434571D01*
X12679405Y-11434571D02*
X12688929Y-11425048D01*
X12688929Y-11425048D02*
X12707976Y-11415524D01*
X12860357Y-11596476D02*
X12869881Y-11606000D01*
X12869881Y-11606000D02*
X12860357Y-11615524D01*
X12860357Y-11615524D02*
X12850833Y-11606000D01*
X12850833Y-11606000D02*
X12860357Y-11596476D01*
X12860357Y-11596476D02*
X12860357Y-11615524D01*
X12993691Y-11415524D02*
X13012738Y-11415524D01*
X13012738Y-11415524D02*
X13031786Y-11425048D01*
X13031786Y-11425048D02*
X13041310Y-11434571D01*
X13041310Y-11434571D02*
X13050833Y-11453619D01*
X13050833Y-11453619D02*
X13060357Y-11491714D01*
X13060357Y-11491714D02*
X13060357Y-11539333D01*
X13060357Y-11539333D02*
X13050833Y-11577428D01*
X13050833Y-11577428D02*
X13041310Y-11596476D01*
X13041310Y-11596476D02*
X13031786Y-11606000D01*
X13031786Y-11606000D02*
X13012738Y-11615524D01*
X13012738Y-11615524D02*
X12993691Y-11615524D01*
X12993691Y-11615524D02*
X12974643Y-11606000D01*
X12974643Y-11606000D02*
X12965119Y-11596476D01*
X12965119Y-11596476D02*
X12955595Y-11577428D01*
X12955595Y-11577428D02*
X12946072Y-11539333D01*
X12946072Y-11539333D02*
X12946072Y-11491714D01*
X12946072Y-11491714D02*
X12955595Y-11453619D01*
X12955595Y-11453619D02*
X12965119Y-11434571D01*
X12965119Y-11434571D02*
X12974643Y-11425048D01*
X12974643Y-11425048D02*
X12993691Y-11415524D01*
X13174643Y-11501238D02*
X13155595Y-11491714D01*
X13155595Y-11491714D02*
X13146072Y-11482190D01*
X13146072Y-11482190D02*
X13136548Y-11463143D01*
X13136548Y-11463143D02*
X13136548Y-11453619D01*
X13136548Y-11453619D02*
X13146072Y-11434571D01*
X13146072Y-11434571D02*
X13155595Y-11425048D01*
X13155595Y-11425048D02*
X13174643Y-11415524D01*
X13174643Y-11415524D02*
X13212738Y-11415524D01*
X13212738Y-11415524D02*
X13231786Y-11425048D01*
X13231786Y-11425048D02*
X13241310Y-11434571D01*
X13241310Y-11434571D02*
X13250833Y-11453619D01*
X13250833Y-11453619D02*
X13250833Y-11463143D01*
X13250833Y-11463143D02*
X13241310Y-11482190D01*
X13241310Y-11482190D02*
X13231786Y-11491714D01*
X13231786Y-11491714D02*
X13212738Y-11501238D01*
X13212738Y-11501238D02*
X13174643Y-11501238D01*
X13174643Y-11501238D02*
X13155595Y-11510762D01*
X13155595Y-11510762D02*
X13146072Y-11520286D01*
X13146072Y-11520286D02*
X13136548Y-11539333D01*
X13136548Y-11539333D02*
X13136548Y-11577428D01*
X13136548Y-11577428D02*
X13146072Y-11596476D01*
X13146072Y-11596476D02*
X13155595Y-11606000D01*
X13155595Y-11606000D02*
X13174643Y-11615524D01*
X13174643Y-11615524D02*
X13212738Y-11615524D01*
X13212738Y-11615524D02*
X13231786Y-11606000D01*
X13231786Y-11606000D02*
X13241310Y-11596476D01*
X13241310Y-11596476D02*
X13250833Y-11577428D01*
X13250833Y-11577428D02*
X13250833Y-11539333D01*
X13250833Y-11539333D02*
X13241310Y-11520286D01*
X13241310Y-11520286D02*
X13231786Y-11510762D01*
X13231786Y-11510762D02*
X13212738Y-11501238D01*
X13422262Y-11415524D02*
X13384167Y-11415524D01*
X13384167Y-11415524D02*
X13365119Y-11425048D01*
X13365119Y-11425048D02*
X13355595Y-11434571D01*
X13355595Y-11434571D02*
X13336548Y-11463143D01*
X13336548Y-11463143D02*
X13327024Y-11501238D01*
X13327024Y-11501238D02*
X13327024Y-11577428D01*
X13327024Y-11577428D02*
X13336548Y-11596476D01*
X13336548Y-11596476D02*
X13346072Y-11606000D01*
X13346072Y-11606000D02*
X13365119Y-11615524D01*
X13365119Y-11615524D02*
X13403214Y-11615524D01*
X13403214Y-11615524D02*
X13422262Y-11606000D01*
X13422262Y-11606000D02*
X13431786Y-11596476D01*
X13431786Y-11596476D02*
X13441310Y-11577428D01*
X13441310Y-11577428D02*
X13441310Y-11529809D01*
X13441310Y-11529809D02*
X13431786Y-11510762D01*
X13431786Y-11510762D02*
X13422262Y-11501238D01*
X13422262Y-11501238D02*
X13403214Y-11491714D01*
X13403214Y-11491714D02*
X13365119Y-11491714D01*
X13365119Y-11491714D02*
X13346072Y-11501238D01*
X13346072Y-11501238D02*
X13336548Y-11510762D01*
X13336548Y-11510762D02*
X13327024Y-11529809D01*
X13612738Y-11415524D02*
X13574643Y-11415524D01*
X13574643Y-11415524D02*
X13555595Y-11425048D01*
X13555595Y-11425048D02*
X13546072Y-11434571D01*
X13546072Y-11434571D02*
X13527024Y-11463143D01*
X13527024Y-11463143D02*
X13517500Y-11501238D01*
X13517500Y-11501238D02*
X13517500Y-11577428D01*
X13517500Y-11577428D02*
X13527024Y-11596476D01*
X13527024Y-11596476D02*
X13536548Y-11606000D01*
X13536548Y-11606000D02*
X13555595Y-11615524D01*
X13555595Y-11615524D02*
X13593691Y-11615524D01*
X13593691Y-11615524D02*
X13612738Y-11606000D01*
X13612738Y-11606000D02*
X13622262Y-11596476D01*
X13622262Y-11596476D02*
X13631786Y-11577428D01*
X13631786Y-11577428D02*
X13631786Y-11529809D01*
X13631786Y-11529809D02*
X13622262Y-11510762D01*
X13622262Y-11510762D02*
X13612738Y-11501238D01*
X13612738Y-11501238D02*
X13593691Y-11491714D01*
X13593691Y-11491714D02*
X13555595Y-11491714D01*
X13555595Y-11491714D02*
X13536548Y-11501238D01*
X13536548Y-11501238D02*
X13527024Y-11510762D01*
X13527024Y-11510762D02*
X13517500Y-11529809D01*
X13707976Y-11415524D02*
X13707976Y-11453619D01*
X13784167Y-11415524D02*
X13784167Y-11453619D01*
X14079405Y-11691714D02*
X14069881Y-11682190D01*
X14069881Y-11682190D02*
X14050834Y-11653619D01*
X14050834Y-11653619D02*
X14041310Y-11634571D01*
X14041310Y-11634571D02*
X14031786Y-11606000D01*
X14031786Y-11606000D02*
X14022262Y-11558381D01*
X14022262Y-11558381D02*
X14022262Y-11520286D01*
X14022262Y-11520286D02*
X14031786Y-11472667D01*
X14031786Y-11472667D02*
X14041310Y-11444095D01*
X14041310Y-11444095D02*
X14050834Y-11425048D01*
X14050834Y-11425048D02*
X14069881Y-11396476D01*
X14069881Y-11396476D02*
X14079405Y-11386952D01*
X14241310Y-11482190D02*
X14241310Y-11615524D01*
X14193691Y-11406000D02*
X14146072Y-11548857D01*
X14146072Y-11548857D02*
X14269881Y-11548857D01*
X14498453Y-11615524D02*
X14498453Y-11415524D01*
X14584167Y-11615524D02*
X14584167Y-11510762D01*
X14584167Y-11510762D02*
X14574643Y-11491714D01*
X14574643Y-11491714D02*
X14555596Y-11482190D01*
X14555596Y-11482190D02*
X14527024Y-11482190D01*
X14527024Y-11482190D02*
X14507976Y-11491714D01*
X14507976Y-11491714D02*
X14498453Y-11501238D01*
X14707976Y-11615524D02*
X14688929Y-11606000D01*
X14688929Y-11606000D02*
X14679405Y-11596476D01*
X14679405Y-11596476D02*
X14669881Y-11577428D01*
X14669881Y-11577428D02*
X14669881Y-11520286D01*
X14669881Y-11520286D02*
X14679405Y-11501238D01*
X14679405Y-11501238D02*
X14688929Y-11491714D01*
X14688929Y-11491714D02*
X14707976Y-11482190D01*
X14707976Y-11482190D02*
X14736548Y-11482190D01*
X14736548Y-11482190D02*
X14755596Y-11491714D01*
X14755596Y-11491714D02*
X14765119Y-11501238D01*
X14765119Y-11501238D02*
X14774643Y-11520286D01*
X14774643Y-11520286D02*
X14774643Y-11577428D01*
X14774643Y-11577428D02*
X14765119Y-11596476D01*
X14765119Y-11596476D02*
X14755596Y-11606000D01*
X14755596Y-11606000D02*
X14736548Y-11615524D01*
X14736548Y-11615524D02*
X14707976Y-11615524D01*
X14888929Y-11615524D02*
X14869881Y-11606000D01*
X14869881Y-11606000D02*
X14860357Y-11586952D01*
X14860357Y-11586952D02*
X14860357Y-11415524D01*
X15041310Y-11606000D02*
X15022262Y-11615524D01*
X15022262Y-11615524D02*
X14984167Y-11615524D01*
X14984167Y-11615524D02*
X14965119Y-11606000D01*
X14965119Y-11606000D02*
X14955596Y-11586952D01*
X14955596Y-11586952D02*
X14955596Y-11510762D01*
X14955596Y-11510762D02*
X14965119Y-11491714D01*
X14965119Y-11491714D02*
X14984167Y-11482190D01*
X14984167Y-11482190D02*
X15022262Y-11482190D01*
X15022262Y-11482190D02*
X15041310Y-11491714D01*
X15041310Y-11491714D02*
X15050834Y-11510762D01*
X15050834Y-11510762D02*
X15050834Y-11529809D01*
X15050834Y-11529809D02*
X14955596Y-11548857D01*
X15127024Y-11606000D02*
X15146072Y-11615524D01*
X15146072Y-11615524D02*
X15184167Y-11615524D01*
X15184167Y-11615524D02*
X15203215Y-11606000D01*
X15203215Y-11606000D02*
X15212738Y-11586952D01*
X15212738Y-11586952D02*
X15212738Y-11577428D01*
X15212738Y-11577428D02*
X15203215Y-11558381D01*
X15203215Y-11558381D02*
X15184167Y-11548857D01*
X15184167Y-11548857D02*
X15155596Y-11548857D01*
X15155596Y-11548857D02*
X15136548Y-11539333D01*
X15136548Y-11539333D02*
X15127024Y-11520286D01*
X15127024Y-11520286D02*
X15127024Y-11510762D01*
X15127024Y-11510762D02*
X15136548Y-11491714D01*
X15136548Y-11491714D02*
X15155596Y-11482190D01*
X15155596Y-11482190D02*
X15184167Y-11482190D01*
X15184167Y-11482190D02*
X15203215Y-11491714D01*
X15279405Y-11691714D02*
X15288929Y-11682190D01*
X15288929Y-11682190D02*
X15307977Y-11653619D01*
X15307977Y-11653619D02*
X15317500Y-11634571D01*
X15317500Y-11634571D02*
X15327024Y-11606000D01*
X15327024Y-11606000D02*
X15336548Y-11558381D01*
X15336548Y-11558381D02*
X15336548Y-11520286D01*
X15336548Y-11520286D02*
X15327024Y-11472667D01*
X15327024Y-11472667D02*
X15317500Y-11444095D01*
X15317500Y-11444095D02*
X15307977Y-11425048D01*
X15307977Y-11425048D02*
X15288929Y-11396476D01*
X15288929Y-11396476D02*
X15279405Y-11386952D01*
M02*
