%TF.GenerationSoftware,KiCad,Pcbnew,7.0.5-0*%
%TF.CreationDate,2024-02-02T13:19:59-05:00*%
%TF.ProjectId,BITSv5,42495453-7635-42e6-9b69-6361645f7063,rev?*%
%TF.SameCoordinates,Original*%
%TF.FileFunction,Copper,L4,Bot*%
%TF.FilePolarity,Positive*%
%FSLAX46Y46*%
G04 Gerber Fmt 4.6, Leading zero omitted, Abs format (unit mm)*
G04 Created by KiCad (PCBNEW 7.0.5-0) date 2024-02-02 13:19:59*
%MOMM*%
%LPD*%
G01*
G04 APERTURE LIST*
G04 Aperture macros list*
%AMRoundRect*
0 Rectangle with rounded corners*
0 $1 Rounding radius*
0 $2 $3 $4 $5 $6 $7 $8 $9 X,Y pos of 4 corners*
0 Add a 4 corners polygon primitive as box body*
4,1,4,$2,$3,$4,$5,$6,$7,$8,$9,$2,$3,0*
0 Add four circle primitives for the rounded corners*
1,1,$1+$1,$2,$3*
1,1,$1+$1,$4,$5*
1,1,$1+$1,$6,$7*
1,1,$1+$1,$8,$9*
0 Add four rect primitives between the rounded corners*
20,1,$1+$1,$2,$3,$4,$5,0*
20,1,$1+$1,$4,$5,$6,$7,0*
20,1,$1+$1,$6,$7,$8,$9,0*
20,1,$1+$1,$8,$9,$2,$3,0*%
%AMFreePoly0*
4,1,12,0.600036,1.800036,0.600050,1.800000,0.600050,-0.600000,0.600035,-0.600035,0.600000,-0.600050,-1.800000,-0.600050,-1.800035,-0.600035,-1.800050,-0.600000,-1.800035,-0.599965,0.599965,1.800036,0.600000,1.800050,0.600036,1.800036,0.600036,1.800036,$1*%
G04 Aperture macros list end*
%TA.AperFunction,ComponentPad*%
%ADD10C,0.600000*%
%TD*%
%TA.AperFunction,ComponentPad*%
%ADD11C,4.400000*%
%TD*%
%TA.AperFunction,ComponentPad*%
%ADD12O,2.100000X1.000000*%
%TD*%
%TA.AperFunction,ComponentPad*%
%ADD13O,1.800000X1.000000*%
%TD*%
%TA.AperFunction,ComponentPad*%
%ADD14R,1.700000X1.700000*%
%TD*%
%TA.AperFunction,ComponentPad*%
%ADD15O,1.700000X1.700000*%
%TD*%
%TA.AperFunction,ComponentPad*%
%ADD16C,1.400000*%
%TD*%
%TA.AperFunction,ComponentPad*%
%ADD17R,3.500000X3.500000*%
%TD*%
%TA.AperFunction,ComponentPad*%
%ADD18C,3.500000*%
%TD*%
%TA.AperFunction,SMDPad,CuDef*%
%ADD19RoundRect,0.200000X0.200000X0.275000X-0.200000X0.275000X-0.200000X-0.275000X0.200000X-0.275000X0*%
%TD*%
%TA.AperFunction,SMDPad,CuDef*%
%ADD20FreePoly0,180.000000*%
%TD*%
%TA.AperFunction,SMDPad,CuDef*%
%ADD21R,4.100000X1.700000*%
%TD*%
%TA.AperFunction,SMDPad,CuDef*%
%ADD22C,2.000000*%
%TD*%
%TA.AperFunction,SMDPad,CuDef*%
%ADD23R,0.550000X0.950000*%
%TD*%
%TA.AperFunction,SMDPad,CuDef*%
%ADD24RoundRect,0.225000X-0.225000X-0.250000X0.225000X-0.250000X0.225000X0.250000X-0.225000X0.250000X0*%
%TD*%
%TA.AperFunction,SMDPad,CuDef*%
%ADD25RoundRect,0.322500X-1.177500X-0.322500X1.177500X-0.322500X1.177500X0.322500X-1.177500X0.322500X0*%
%TD*%
%TA.AperFunction,SMDPad,CuDef*%
%ADD26RoundRect,0.325000X-1.175000X-0.325000X1.175000X-0.325000X1.175000X0.325000X-1.175000X0.325000X0*%
%TD*%
%TA.AperFunction,SMDPad,CuDef*%
%ADD27RoundRect,0.325000X-0.325000X1.425000X-0.325000X-1.425000X0.325000X-1.425000X0.325000X1.425000X0*%
%TD*%
%TA.AperFunction,SMDPad,CuDef*%
%ADD28RoundRect,0.200000X-0.200000X-0.275000X0.200000X-0.275000X0.200000X0.275000X-0.200000X0.275000X0*%
%TD*%
%TA.AperFunction,SMDPad,CuDef*%
%ADD29R,1.000000X1.000000*%
%TD*%
%TA.AperFunction,SMDPad,CuDef*%
%ADD30R,2.200000X1.050000*%
%TD*%
%TA.AperFunction,SMDPad,CuDef*%
%ADD31R,1.362800X2.259800*%
%TD*%
%TA.AperFunction,SMDPad,CuDef*%
%ADD32RoundRect,0.237500X0.250000X0.237500X-0.250000X0.237500X-0.250000X-0.237500X0.250000X-0.237500X0*%
%TD*%
%TA.AperFunction,SMDPad,CuDef*%
%ADD33RoundRect,0.237500X-0.250000X-0.237500X0.250000X-0.237500X0.250000X0.237500X-0.250000X0.237500X0*%
%TD*%
%TA.AperFunction,SMDPad,CuDef*%
%ADD34RoundRect,0.175000X0.175000X-0.725000X0.175000X0.725000X-0.175000X0.725000X-0.175000X-0.725000X0*%
%TD*%
%TA.AperFunction,SMDPad,CuDef*%
%ADD35RoundRect,0.200000X0.200000X-0.700000X0.200000X0.700000X-0.200000X0.700000X-0.200000X-0.700000X0*%
%TD*%
%TA.AperFunction,ViaPad*%
%ADD36C,0.450000*%
%TD*%
%TA.AperFunction,ViaPad*%
%ADD37C,0.600000*%
%TD*%
%TA.AperFunction,ViaPad*%
%ADD38C,0.750000*%
%TD*%
%TA.AperFunction,ViaPad*%
%ADD39C,1.000000*%
%TD*%
%TA.AperFunction,ViaPad*%
%ADD40C,0.800000*%
%TD*%
%TA.AperFunction,Conductor*%
%ADD41C,0.250000*%
%TD*%
%TA.AperFunction,Conductor*%
%ADD42C,0.450000*%
%TD*%
%TA.AperFunction,Conductor*%
%ADD43C,0.600000*%
%TD*%
%TA.AperFunction,Conductor*%
%ADD44C,0.500000*%
%TD*%
%TA.AperFunction,Conductor*%
%ADD45C,0.800000*%
%TD*%
%TA.AperFunction,Conductor*%
%ADD46C,0.200000*%
%TD*%
G04 APERTURE END LIST*
D10*
%TO.P,U1,57,GND*%
%TO.N,GND*%
X129105000Y-68123100D03*
X130380000Y-68123100D03*
X131655000Y-68123100D03*
X129105000Y-66848100D03*
X130380000Y-66848100D03*
X131655000Y-66848100D03*
X129105000Y-65573100D03*
X130380000Y-65573100D03*
X131655000Y-65573100D03*
%TD*%
D11*
%TO.P,H2,1*%
%TO.N,N/C*%
X108225000Y-84200000D03*
%TD*%
D12*
%TO.P,J2,S1,SHIELD*%
%TO.N,GND*%
X112900100Y-64278102D03*
D13*
X108720100Y-64278102D03*
D12*
X112900100Y-72918102D03*
D13*
X108720100Y-72918102D03*
%TD*%
D14*
%TO.P,J1,1,Pin_1*%
%TO.N,Net-(J1-Pin_1)*%
X149200000Y-72240000D03*
D15*
%TO.P,J1,2,Pin_2*%
%TO.N,Net-(J1-Pin_2)*%
X149200000Y-69700000D03*
%TO.P,J1,3,Pin_3*%
%TO.N,GND*%
X149200000Y-67160000D03*
%TD*%
D16*
%TO.P,BT1,*%
%TO.N,*%
X109205100Y-61223102D03*
X109205100Y-50223102D03*
D17*
%TO.P,BT1,1,-*%
%TO.N,GND*%
X119205100Y-53223102D03*
D18*
%TO.P,BT1,2,+*%
%TO.N,+BATT*%
X119205100Y-58223102D03*
%TD*%
D11*
%TO.P,H3,1,1*%
%TO.N,GND*%
X149225000Y-84200000D03*
%TD*%
%TO.P,H4,1*%
%TO.N,N/C*%
X149225000Y-45200000D03*
%TD*%
D19*
%TO.P,R9,1*%
%TO.N,+3V3*%
X120025000Y-81675000D03*
%TO.P,R9,2*%
%TO.N,/SDA*%
X118375000Y-81675000D03*
%TD*%
D20*
%TO.P,BT2,1,+*%
%TO.N,Net-(BT2-+)*%
X146550000Y-49325000D03*
D21*
%TO.P,BT2,2,-*%
%TO.N,GND*%
X148000000Y-53275000D03*
%TD*%
D22*
%TO.P,TP1,1,1*%
%TO.N,/RP_SWCLK*%
X108200000Y-56700000D03*
%TD*%
D23*
%TO.P,U11,1,VDD*%
%TO.N,+3V3*%
X115800000Y-77925000D03*
%TO.P,U11,2,PS*%
X117050000Y-77925000D03*
%TO.P,U11,3,GND*%
%TO.N,GND*%
X118300000Y-77925000D03*
%TO.P,U11,4,CSB*%
X119550000Y-77925000D03*
%TO.P,U11,5,CSB*%
X119550000Y-80075000D03*
%TO.P,U11,6,SDO*%
%TO.N,unconnected-(U11-SDO-Pad6)*%
X118300000Y-80075000D03*
%TO.P,U11,7,SDI/SDA*%
%TO.N,/SDA*%
X117050000Y-80075000D03*
%TO.P,U11,8,SCLK*%
%TO.N,/SCL*%
X115800000Y-80075000D03*
%TD*%
D24*
%TO.P,C29,1*%
%TO.N,+3V3*%
X116350000Y-76375000D03*
%TO.P,C29,2*%
%TO.N,GND*%
X117900000Y-76375000D03*
%TD*%
D22*
%TO.P,TP2,1,1*%
%TO.N,/RP_SWD*%
X111600000Y-57100000D03*
%TD*%
D25*
%TO.P,U4,1,SW*%
%TO.N,/DRF_SW*%
X123965000Y-74210000D03*
D26*
%TO.P,U4,2,GND*%
%TO.N,GND*%
X123965000Y-71665000D03*
%TO.P,U4,3,TXEN*%
%TO.N,/DRF_TXEN*%
X123965000Y-69125000D03*
%TO.P,U4,4,GND*%
%TO.N,GND*%
X123965000Y-66585000D03*
%TO.P,U4,5,GND*%
X123965000Y-64045000D03*
%TO.P,U4,6,VDD*%
%TO.N,+5V*%
X123965000Y-61505000D03*
%TO.P,U4,7,VDD*%
X123965000Y-58965000D03*
%TO.P,U4,8,DIO1*%
%TO.N,/DRF_DIO1*%
X142965000Y-58965000D03*
%TO.P,U4,9,BUSY*%
%TO.N,/DRF_BUSY*%
X142965000Y-61505000D03*
%TO.P,U4,10,RST*%
%TO.N,/RDIO_RST*%
X142965000Y-64045000D03*
%TO.P,U4,11,MISO*%
%TO.N,/MISO*%
X142965000Y-66585000D03*
%TO.P,U4,12,MOSI*%
%TO.N,/MOSI*%
X142965000Y-69125000D03*
%TO.P,U4,13,SCK*%
%TO.N,/SCK*%
X142965000Y-71665000D03*
D25*
%TO.P,U4,14,NSS*%
%TO.N,/DRF_CS*%
X142965000Y-74210000D03*
D27*
%TO.P,U4,15,GND*%
%TO.N,GND*%
X142135000Y-84815000D03*
%TO.P,U4,16,ANT*%
%TO.N,Net-(J6-In)*%
X139595000Y-84815000D03*
%TO.P,U4,17,GND*%
%TO.N,GND*%
X137055000Y-84815000D03*
%TD*%
D28*
%TO.P,R6,1*%
%TO.N,+3V3*%
X115275000Y-81675000D03*
%TO.P,R6,2*%
%TO.N,/SCL*%
X116925000Y-81675000D03*
%TD*%
D29*
%TO.P,J6,1,In*%
%TO.N,Net-(J6-In)*%
X147000000Y-78900000D03*
D30*
%TO.P,J6,2,Ext*%
%TO.N,GND*%
X148500000Y-80375000D03*
D29*
X150000000Y-78900000D03*
D30*
X148500000Y-77425000D03*
%TD*%
D31*
%TO.P,AE1,1,A*%
%TO.N,Net-(AE1-A)*%
X114662701Y-44100000D03*
%TO.P,AE1,2*%
%TO.N,N/C*%
X107737299Y-44100000D03*
%TD*%
D22*
%TO.P,TP3,1,1*%
%TO.N,GND*%
X112700000Y-61600000D03*
%TD*%
D32*
%TO.P,R8,1*%
%TO.N,Net-(J2-CC2)*%
X110932600Y-70348102D03*
%TO.P,R8,2*%
%TO.N,GND*%
X109107600Y-70348102D03*
%TD*%
D33*
%TO.P,R7,1*%
%TO.N,GND*%
X109107600Y-67348102D03*
%TO.P,R7,2*%
%TO.N,Net-(J2-CC1)*%
X110932600Y-67348102D03*
%TD*%
D34*
%TO.P,U3,1,GND*%
%TO.N,GND*%
X144300000Y-53200000D03*
D35*
%TO.P,U3,2,TXD*%
%TO.N,Net-(J1-Pin_2)*%
X143200000Y-53200000D03*
%TO.P,U3,3,RXD*%
%TO.N,Net-(J1-Pin_1)*%
X142100000Y-53200000D03*
%TO.P,U3,4,TIMEPULSE*%
%TO.N,/TIMEPULSE*%
X141000000Y-53200000D03*
%TO.P,U3,5,EXTINT*%
%TO.N,/EXTINT*%
X139900000Y-53200000D03*
%TO.P,U3,6,V_BCKP*%
%TO.N,Net-(BT2-+)*%
X138800000Y-53200000D03*
%TO.P,U3,7,VCC_IO*%
%TO.N,+3V3*%
X137700000Y-53200000D03*
%TO.P,U3,8,VCC*%
X136600000Y-53200000D03*
D34*
%TO.P,U3,9,~{RESET}*%
%TO.N,unconnected-(U3-~{RESET}-Pad9)*%
X135500000Y-53200000D03*
%TO.P,U3,10,GND*%
%TO.N,GND*%
X135500000Y-43700000D03*
D35*
%TO.P,U3,11,RF_IN*%
%TO.N,Net-(AE1-A)*%
X136600000Y-43700000D03*
%TO.P,U3,12,GND*%
%TO.N,GND*%
X137700000Y-43700000D03*
%TO.P,U3,13,LNA_EN*%
%TO.N,unconnected-(U3-LNA_EN-Pad13)*%
X138800000Y-43700000D03*
%TO.P,U3,14,VCC_RF*%
%TO.N,unconnected-(U3-VCC_RF-Pad14)*%
X139900000Y-43700000D03*
%TO.P,U3,15,VIO_SEL*%
%TO.N,unconnected-(U3-VIO_SEL-Pad15)*%
X141000000Y-43700000D03*
%TO.P,U3,16,SDA*%
%TO.N,/SDA*%
X142100000Y-43700000D03*
%TO.P,U3,17,SCL*%
%TO.N,/SCL*%
X143200000Y-43700000D03*
D34*
%TO.P,U3,18,~{SAFEBOOT}*%
%TO.N,unconnected-(U3-~{SAFEBOOT}-Pad18)*%
X144300000Y-43700000D03*
%TD*%
D36*
%TO.N,/QSPI_SS*%
X128670000Y-77240000D03*
X127070000Y-74430000D03*
%TO.N,GND*%
X138770000Y-82250000D03*
D37*
X141073000Y-50496899D03*
D36*
X117500000Y-43100000D03*
X139770000Y-78650000D03*
X124900000Y-44300000D03*
X124900000Y-56200000D03*
X143400000Y-78100000D03*
X106300000Y-53600000D03*
X119030000Y-66350000D03*
X145500000Y-79900000D03*
X140830000Y-85100000D03*
X140790000Y-84260000D03*
X136260000Y-82120000D03*
X141800000Y-79020000D03*
X123700000Y-46500000D03*
D37*
X139703000Y-54831899D03*
D36*
X129780000Y-57160000D03*
X138810000Y-66800000D03*
X117820000Y-68480000D03*
X120270000Y-73110000D03*
X118075000Y-78975000D03*
X121900000Y-44300000D03*
X138310000Y-84860000D03*
D37*
X148450000Y-64020000D03*
D36*
X140580000Y-76520000D03*
X126280000Y-60380000D03*
D37*
X122325000Y-51355000D03*
D38*
X133930000Y-60620000D03*
D37*
X108120100Y-67348102D03*
D36*
X109466666Y-53600000D03*
X137100000Y-48024481D03*
X127530000Y-53660000D03*
X117450000Y-78975000D03*
X128405000Y-51535000D03*
X143800000Y-79900000D03*
X131120000Y-60530000D03*
X139190000Y-81630000D03*
X135460000Y-82970000D03*
D37*
X133195000Y-54775000D03*
D36*
X130280000Y-57860000D03*
X151500000Y-75800000D03*
X112633332Y-53600000D03*
X118900000Y-44300000D03*
X146300000Y-75800000D03*
D37*
X136085000Y-49425000D03*
D36*
X147400000Y-75800000D03*
X116300000Y-51900000D03*
X141180000Y-79650000D03*
X150980000Y-52610000D03*
X135470000Y-86420000D03*
X120700000Y-46500000D03*
X118350000Y-75050000D03*
X140130000Y-80680000D03*
X140760000Y-83450000D03*
X144400000Y-76250000D03*
X141040000Y-82210000D03*
X141500000Y-76250000D03*
X140830000Y-85770000D03*
X138930000Y-79450000D03*
X132860000Y-67850000D03*
X137200000Y-75500000D03*
X132700000Y-46500000D03*
X132500000Y-43100000D03*
X139770000Y-66720000D03*
X116825000Y-79000000D03*
X129500000Y-43100000D03*
X135460000Y-84170000D03*
X124366402Y-75571000D03*
D38*
X114695000Y-74425000D03*
D36*
X132660000Y-49360000D03*
X145300000Y-75800000D03*
X142100000Y-81110000D03*
X140470000Y-45050000D03*
D37*
X137958000Y-57806899D03*
D36*
X116500000Y-50000000D03*
X137130000Y-81170000D03*
D39*
X128050000Y-79580000D03*
D36*
X138310000Y-83950000D03*
X138420000Y-83010000D03*
X126700000Y-46500000D03*
X115800000Y-53600000D03*
X126980000Y-73215600D03*
X126230000Y-51435000D03*
X117300000Y-48700000D03*
D37*
X108120100Y-70348102D03*
D36*
X138910000Y-45090000D03*
X138260000Y-63780000D03*
X144700000Y-79900000D03*
X117780000Y-71020000D03*
X138330000Y-85670000D03*
X133900000Y-44300000D03*
X129320000Y-51530000D03*
X135450000Y-85310000D03*
X117700000Y-46500000D03*
X149500000Y-75800000D03*
X142640000Y-80490000D03*
D37*
X142043000Y-50651899D03*
D36*
X122305000Y-57860000D03*
X119520000Y-64660000D03*
X143150000Y-79930000D03*
X139630000Y-81100000D03*
X143400000Y-76240000D03*
D40*
X137680000Y-71800000D03*
D36*
X125005000Y-53660000D03*
X145110000Y-52070000D03*
D39*
X141088101Y-65151899D03*
D36*
X140490000Y-82660000D03*
X133270000Y-83340000D03*
X138390000Y-86580000D03*
X120500000Y-43100000D03*
X151120000Y-54330000D03*
X127705000Y-51410000D03*
X140660000Y-80190000D03*
X127000000Y-60530000D03*
X129700000Y-46500000D03*
X122100000Y-48024481D03*
X121830000Y-69150000D03*
X148500000Y-75800000D03*
X122780000Y-57185000D03*
D37*
X136533000Y-57831899D03*
D36*
X127900000Y-44300000D03*
X140100000Y-77410000D03*
X119100000Y-48024481D03*
X130900000Y-44300000D03*
X131100000Y-48024481D03*
X123500000Y-43100000D03*
X142470000Y-78370000D03*
X117790000Y-67820000D03*
X145200000Y-78100000D03*
X141540000Y-81700000D03*
X117780000Y-69220000D03*
X136200000Y-69900000D03*
X138620000Y-65550000D03*
X140730000Y-86510000D03*
X135700000Y-46500000D03*
X118330000Y-64650000D03*
X127505000Y-56200000D03*
X134100000Y-48024481D03*
X138070000Y-80230000D03*
D37*
X123175000Y-51355000D03*
D36*
X150500000Y-75800000D03*
X126500000Y-43100000D03*
X142330000Y-76300000D03*
X144300000Y-78100000D03*
X125100000Y-48024481D03*
X130800000Y-73220000D03*
X128100000Y-48024481D03*
X129911937Y-49298063D03*
%TO.N,+3V3*%
X136300000Y-77500000D03*
X141060000Y-70950000D03*
D37*
X146080000Y-55370000D03*
D36*
X135858068Y-66081932D03*
X127850000Y-66120000D03*
X136940000Y-50060000D03*
X127600000Y-72100000D03*
X126660000Y-63470000D03*
X140750000Y-48500000D03*
X142020000Y-48600000D03*
D37*
X150220000Y-57200000D03*
D36*
X143570000Y-48610000D03*
D37*
X146950000Y-58370000D03*
D36*
X114400000Y-81625000D03*
X130690000Y-71720000D03*
D37*
X149570000Y-56600000D03*
X115025000Y-76525000D03*
X147810000Y-58370000D03*
D36*
X131980000Y-61570000D03*
D37*
X146090000Y-56400000D03*
D36*
X121060000Y-68690000D03*
X137670000Y-49440000D03*
D37*
X146060000Y-57380000D03*
D36*
X114730000Y-77640000D03*
D37*
X148880000Y-57160000D03*
D36*
X121150000Y-80250000D03*
X120340000Y-70390000D03*
%TO.N,+BATT*%
X125490000Y-58040000D03*
D37*
X122310000Y-56440000D03*
D36*
%TO.N,Net-(U1-RUN)*%
X134800000Y-72840000D03*
X134800000Y-65280000D03*
D37*
%TO.N,VCC*%
X131040000Y-54550000D03*
D36*
X131480000Y-57790000D03*
X138403000Y-60226899D03*
X127920000Y-49590000D03*
D38*
%TO.N,+5V*%
X125550000Y-79980000D03*
D37*
X118610000Y-63640000D03*
X119660000Y-63640000D03*
X147050000Y-60100000D03*
X146040000Y-62250000D03*
X119660000Y-62810000D03*
X147840000Y-60120000D03*
X146030000Y-61340000D03*
X148720000Y-61340000D03*
X146040000Y-63180000D03*
X118600000Y-62790000D03*
X150260000Y-61310000D03*
X118590000Y-61970000D03*
X149450000Y-62020000D03*
X119610000Y-61960000D03*
D36*
%TO.N,Net-(BT2-+)*%
X145450000Y-48200000D03*
X138920000Y-48590000D03*
X149400000Y-49360000D03*
%TO.N,Net-(U5-FB1)*%
X136860000Y-61520000D03*
X138323000Y-55086899D03*
%TO.N,Net-(U5-BIAS)*%
X136090000Y-61600000D03*
X136113000Y-55016899D03*
X139713000Y-55706899D03*
%TO.N,Net-(U5-VCC)*%
X139923000Y-57546899D03*
X139253000Y-60326899D03*
D37*
%TO.N,VBUS*%
X129660000Y-56280000D03*
D36*
X127100000Y-59790000D03*
D37*
X117005000Y-67825000D03*
X117005000Y-68555000D03*
X129680000Y-55360000D03*
X117015000Y-69295000D03*
D36*
%TO.N,Net-(J2-CC1)*%
X112245100Y-67348102D03*
%TO.N,/LED*%
X117637500Y-72400000D03*
X127900000Y-71500000D03*
D40*
%TO.N,/TIMEPULSE*%
X142500000Y-57000000D03*
D36*
X136500000Y-63750000D03*
D40*
%TO.N,/EXTINT*%
X141250000Y-56750000D03*
D36*
X134800000Y-64200000D03*
%TO.N,/RDIO_RST*%
X135500000Y-70000000D03*
%TO.N,/MISO*%
X140600000Y-67800000D03*
X135800000Y-75200000D03*
X130180000Y-60030000D03*
%TO.N,Net-(SW3-C)*%
X128030000Y-50530000D03*
X114300000Y-54500000D03*
X117700000Y-50000000D03*
%TO.N,/DRF_SW*%
X128040000Y-73330000D03*
X132460000Y-71530000D03*
%TO.N,/DRF_TXEN*%
X126800000Y-70800000D03*
X131231819Y-69308181D03*
%TO.N,/LVC_CUTOFF*%
X133473000Y-56416899D03*
X112900000Y-55500000D03*
%TO.N,/DRF_DIO1*%
X132515000Y-69345000D03*
X133990000Y-61550000D03*
%TO.N,/RP_SWCLK*%
X128110000Y-64730000D03*
X115540000Y-64380000D03*
%TO.N,/RP_SWD*%
X116120000Y-63650000D03*
X128700000Y-64340000D03*
%TO.N,/DRF_BUSY*%
X133560000Y-70290000D03*
X134570000Y-62070000D03*
%TO.N,/SCK*%
X138800000Y-75100000D03*
X140300000Y-70500000D03*
X129400000Y-61000000D03*
%TO.N,/DRF_CS*%
X129700000Y-61527000D03*
%TO.N,/MOSI*%
X129440000Y-60378000D03*
X139900000Y-69800000D03*
X137800000Y-75000000D03*
%TO.N,/FRAM_CS*%
X127300000Y-70300000D03*
X132000000Y-75100000D03*
D40*
X128000000Y-61900000D03*
D36*
%TO.N,Net-(J2-CC2)*%
X112145100Y-70348102D03*
%TO.N,/SCL*%
X131190327Y-64209620D03*
X143750000Y-45090000D03*
X132664458Y-62034458D03*
%TO.N,/SDA*%
X141750000Y-45000000D03*
X132076477Y-64181879D03*
X133160000Y-62550000D03*
%TD*%
D41*
%TO.N,/QSPI_SS*%
X128670000Y-76030000D02*
X127070000Y-74430000D01*
X128670000Y-77240000D02*
X128670000Y-76030000D01*
D42*
%TO.N,GND*%
X123395000Y-64045000D02*
X121780000Y-65660000D01*
X123965000Y-64045000D02*
X123395000Y-64045000D01*
D43*
X109107600Y-67348102D02*
X108120100Y-67348102D01*
D42*
X123965000Y-71665000D02*
X121715000Y-71665000D01*
X119340000Y-65660000D02*
X118330000Y-64650000D01*
D41*
X117900000Y-76375000D02*
X117900000Y-75500000D01*
D43*
X109107600Y-70348102D02*
X108120100Y-70348102D01*
D41*
X112700000Y-61600000D02*
X112700000Y-64078002D01*
D42*
X121715000Y-71665000D02*
X120270000Y-73110000D01*
D41*
X144300000Y-52880000D02*
X145110000Y-52070000D01*
X117900000Y-75500000D02*
X118350000Y-75050000D01*
D42*
X148000000Y-53275000D02*
X150315000Y-53275000D01*
D41*
X144300000Y-53200000D02*
X144300000Y-52880000D01*
D42*
X121780000Y-65660000D02*
X119340000Y-65660000D01*
X119265000Y-66585000D02*
X119030000Y-66350000D01*
X150315000Y-53275000D02*
X150980000Y-52610000D01*
X123965000Y-66585000D02*
X119265000Y-66585000D01*
D41*
X112700000Y-64078002D02*
X112900100Y-64278102D01*
D42*
%TO.N,+3V3*%
X136600000Y-50400000D02*
X136940000Y-50060000D01*
X137700000Y-49470000D02*
X137670000Y-49440000D01*
D41*
X114450000Y-81675000D02*
X114400000Y-81625000D01*
X120025000Y-81375000D02*
X121150000Y-80250000D01*
X115275000Y-81675000D02*
X114450000Y-81675000D01*
X120025000Y-81675000D02*
X120025000Y-81375000D01*
D42*
X136600000Y-53200000D02*
X136600000Y-50400000D01*
X137700000Y-53200000D02*
X137700000Y-49470000D01*
D41*
%TO.N,Net-(J1-Pin_1)*%
X145250000Y-58650000D02*
X142100000Y-55500000D01*
X149200000Y-72240000D02*
X145250000Y-68290000D01*
X142100000Y-55500000D02*
X142100000Y-53200000D01*
X145250000Y-68290000D02*
X145250000Y-58650000D01*
%TO.N,Net-(J1-Pin_2)*%
X143200000Y-55700000D02*
X146300000Y-58800000D01*
X146300000Y-60500000D02*
X147100000Y-61300000D01*
X143200000Y-53200000D02*
X143200000Y-55700000D01*
X147100000Y-61300000D02*
X147100000Y-67600000D01*
X146300000Y-58800000D02*
X146300000Y-60500000D01*
X147100000Y-67600000D02*
X149200000Y-69700000D01*
%TO.N,VCC*%
X129530000Y-49590000D02*
X131040000Y-51100000D01*
X131040000Y-51100000D02*
X131040000Y-54550000D01*
X127920000Y-49590000D02*
X129530000Y-49590000D01*
X131480000Y-57790000D02*
X132930000Y-59240000D01*
X132930000Y-59240000D02*
X137416101Y-59240000D01*
X137416101Y-59240000D02*
X138403000Y-60226899D01*
D44*
%TO.N,Net-(AE1-A)*%
X115762701Y-45200000D02*
X114662701Y-44100000D01*
X136600000Y-43700000D02*
X136600000Y-44500000D01*
X135900000Y-45200000D02*
X115762701Y-45200000D01*
X136600000Y-44500000D02*
X135900000Y-45200000D01*
D41*
%TO.N,Net-(BT2-+)*%
X138800000Y-53200000D02*
X138920000Y-53080000D01*
D42*
X146550000Y-49300000D02*
X145450000Y-48200000D01*
X146550000Y-49325000D02*
X149365000Y-49325000D01*
X146550000Y-49325000D02*
X146550000Y-49300000D01*
X149365000Y-49325000D02*
X149400000Y-49360000D01*
D41*
X138920000Y-53080000D02*
X138920000Y-48590000D01*
%TO.N,Net-(U5-FB1)*%
X136860000Y-61520000D02*
X139876842Y-61520000D01*
X139876842Y-61520000D02*
X141213000Y-60183842D01*
X141213000Y-60183842D02*
X141213000Y-57976899D01*
X141213000Y-57976899D02*
X138323000Y-55086899D01*
%TO.N,Net-(U5-BIAS)*%
X136647000Y-61043000D02*
X139667000Y-61043000D01*
X140170000Y-59073899D02*
X136113000Y-55016899D01*
X140170000Y-60540000D02*
X140170000Y-59073899D01*
X139713000Y-55653000D02*
X138669899Y-54609899D01*
X139713000Y-55706899D02*
X139713000Y-55653000D01*
X136520000Y-54609899D02*
X136113000Y-55016899D01*
X138669899Y-54609899D02*
X136520000Y-54609899D01*
X139667000Y-61043000D02*
X140170000Y-60540000D01*
X136090000Y-61600000D02*
X136647000Y-61043000D01*
D45*
%TO.N,VBUS*%
X117015000Y-61056643D02*
X116450000Y-60491643D01*
X116450000Y-60491643D02*
X116450000Y-57120000D01*
D43*
X129680000Y-56260000D02*
X129660000Y-56280000D01*
D45*
X121790000Y-55210000D02*
X129530000Y-55210000D01*
D42*
X127100000Y-59790000D02*
X127100000Y-58840000D01*
D45*
X117015000Y-69295000D02*
X117015000Y-61056643D01*
D42*
X127100000Y-58840000D02*
X129660000Y-56280000D01*
D45*
X121280000Y-55720000D02*
X121790000Y-55210000D01*
X129530000Y-55210000D02*
X129680000Y-55360000D01*
X117850000Y-55720000D02*
X121280000Y-55720000D01*
X116450000Y-57120000D02*
X117850000Y-55720000D01*
D43*
X129680000Y-55360000D02*
X129680000Y-56260000D01*
D41*
%TO.N,Net-(J2-CC1)*%
X110932600Y-67348102D02*
X112245100Y-67348102D01*
D46*
%TO.N,/LED*%
X125730000Y-70480000D02*
X121750000Y-70480000D01*
X121750000Y-70480000D02*
X119830000Y-72400000D01*
X127900000Y-71500000D02*
X126750000Y-71500000D01*
X126750000Y-71500000D02*
X125730000Y-70480000D01*
X119830000Y-72400000D02*
X117637500Y-72400000D01*
D44*
%TO.N,Net-(J6-In)*%
X143100000Y-78900000D02*
X147000000Y-78900000D01*
X139595000Y-82405000D02*
X143100000Y-78900000D01*
X139595000Y-84815000D02*
X139595000Y-82405000D01*
D41*
%TO.N,/TIMEPULSE*%
X141000000Y-55500000D02*
X141000000Y-53200000D01*
X142500000Y-57000000D02*
X141000000Y-55500000D01*
%TO.N,/EXTINT*%
X139900000Y-53900000D02*
X140500000Y-54500000D01*
X140500000Y-56000000D02*
X141250000Y-56750000D01*
X140500000Y-54500000D02*
X140500000Y-56000000D01*
X139900000Y-53200000D02*
X139900000Y-53900000D01*
%TO.N,/RDIO_RST*%
X140250000Y-75500000D02*
X135500000Y-70750000D01*
X143295000Y-64045000D02*
X144750000Y-65500000D01*
X142965000Y-64045000D02*
X143295000Y-64045000D01*
X144750000Y-75000000D02*
X144250000Y-75500000D01*
X144750000Y-65500000D02*
X144750000Y-75000000D01*
X144250000Y-75500000D02*
X140250000Y-75500000D01*
X135500000Y-70750000D02*
X135500000Y-70000000D01*
%TO.N,/MISO*%
X130180000Y-60030000D02*
X131780000Y-60030000D01*
X131780000Y-60030000D02*
X137900000Y-66150000D01*
X142530000Y-66150000D02*
X140900000Y-66150000D01*
X140900000Y-66150000D02*
X139250000Y-66150000D01*
X140900000Y-66150000D02*
X140900000Y-67500000D01*
X140900000Y-67500000D02*
X140600000Y-67800000D01*
X142965000Y-66585000D02*
X142530000Y-66150000D01*
X137900000Y-66150000D02*
X139250000Y-66150000D01*
D42*
%TO.N,Net-(SW3-C)*%
X117700000Y-50000000D02*
X126660000Y-50000000D01*
X126660000Y-50000000D02*
X127190000Y-50530000D01*
X127190000Y-50530000D02*
X128030000Y-50530000D01*
D41*
%TO.N,/DRF_SW*%
X127417000Y-73953000D02*
X128040000Y-73330000D01*
X124222000Y-73953000D02*
X127417000Y-73953000D01*
X123965000Y-74210000D02*
X124222000Y-73953000D01*
%TO.N,/DRF_TXEN*%
X126800000Y-70800000D02*
X125125000Y-69125000D01*
X125125000Y-69125000D02*
X123965000Y-69125000D01*
%TO.N,/LVC_CUTOFF*%
X123770000Y-50800000D02*
X125290000Y-52320000D01*
X125290000Y-52320000D02*
X127770000Y-52320000D01*
X115600000Y-55500000D02*
X117100000Y-54000000D01*
X117100000Y-54000000D02*
X117100000Y-51400000D01*
X117700000Y-50800000D02*
X123770000Y-50800000D01*
X127770000Y-52320000D02*
X131866899Y-56416899D01*
X117100000Y-51400000D02*
X117700000Y-50800000D01*
X131866899Y-56416899D02*
X133473000Y-56416899D01*
X112900000Y-55500000D02*
X115600000Y-55500000D01*
%TO.N,/DRF_DIO1*%
X137320582Y-62213000D02*
X135387580Y-62213000D01*
X137557581Y-61976000D02*
X137320582Y-62213000D01*
X135387580Y-62213000D02*
X134724580Y-61550000D01*
X134724580Y-61550000D02*
X133990000Y-61550000D01*
X142965000Y-58965000D02*
X139954000Y-61976000D01*
X139954000Y-61976000D02*
X137557581Y-61976000D01*
%TO.N,/RP_SWCLK*%
X112900000Y-59100000D02*
X110600000Y-59100000D01*
X115540000Y-61740000D02*
X112900000Y-59100000D01*
X110600000Y-59100000D02*
X108200000Y-56700000D01*
X115540000Y-64380000D02*
X115540000Y-61740000D01*
%TO.N,/RP_SWD*%
X111600000Y-57100000D02*
X111800000Y-57100000D01*
X111800000Y-57100000D02*
X116120000Y-61420000D01*
X116120000Y-61420000D02*
X116120000Y-63650000D01*
%TO.N,/DRF_BUSY*%
X142965000Y-61505000D02*
X142117000Y-62353000D01*
X135090000Y-62590000D02*
X134570000Y-62070000D01*
X137713740Y-62353000D02*
X137476741Y-62590000D01*
X137476741Y-62590000D02*
X135090000Y-62590000D01*
X142117000Y-62353000D02*
X137713740Y-62353000D01*
%TO.N,/SCK*%
X133300000Y-65500000D02*
X139465000Y-71665000D01*
X139465000Y-71335000D02*
X140300000Y-70500000D01*
X139465000Y-71665000D02*
X142965000Y-71665000D01*
X129400000Y-61000000D02*
X130102262Y-61000000D01*
X133300000Y-64197738D02*
X133300000Y-65500000D01*
X139465000Y-71665000D02*
X139465000Y-71335000D01*
X130102262Y-61000000D02*
X133300000Y-64197738D01*
%TO.N,/DRF_CS*%
X132800000Y-65710580D02*
X141299420Y-74210000D01*
X130096104Y-61527000D02*
X132800000Y-64230896D01*
X141299420Y-74210000D02*
X142965000Y-74210000D01*
X132800000Y-64230896D02*
X132800000Y-65710580D01*
X129700000Y-61527000D02*
X130096104Y-61527000D01*
%TO.N,/MOSI*%
X140185000Y-69125000D02*
X135807000Y-64747000D01*
X129575000Y-60513000D02*
X129440000Y-60378000D01*
X140185000Y-69125000D02*
X140185000Y-69515000D01*
X135807000Y-64747000D02*
X134382420Y-64747000D01*
X134382420Y-64747000D02*
X130148421Y-60513000D01*
X130148421Y-60513000D02*
X129575000Y-60513000D01*
X142965000Y-69125000D02*
X140185000Y-69125000D01*
X140185000Y-69515000D02*
X139900000Y-69800000D01*
%TO.N,/FRAM_CS*%
X127200000Y-62700000D02*
X126300000Y-62700000D01*
X126300000Y-62700000D02*
X126000000Y-63000000D01*
X128000000Y-61900000D02*
X127200000Y-62700000D01*
X127300000Y-70100000D02*
X127300000Y-70300000D01*
X126000000Y-63000000D02*
X126000000Y-63300000D01*
X126000000Y-68800000D02*
X127300000Y-70100000D01*
X126000000Y-63300000D02*
X126000000Y-68800000D01*
%TO.N,Net-(J2-CC2)*%
X110932600Y-70348102D02*
X112145100Y-70348102D01*
%TO.N,/SCL*%
X127297000Y-68843842D02*
X129807000Y-71353842D01*
X124510000Y-78330000D02*
X122000421Y-80839579D01*
X131190327Y-64209620D02*
X130357707Y-63377000D01*
X116980000Y-81730000D02*
X116925000Y-81675000D01*
X128923158Y-78330000D02*
X124510000Y-78330000D01*
X117510000Y-83540000D02*
X117510000Y-83530000D01*
X129807000Y-77446158D02*
X128923158Y-78330000D01*
X128066158Y-63377000D02*
X127297000Y-64146158D01*
X116925000Y-81675000D02*
X116925000Y-81200000D01*
X129807000Y-71353842D02*
X129807000Y-77446158D01*
X127297000Y-64146158D02*
X127297000Y-68843842D01*
X117510000Y-83530000D02*
X116980000Y-83000000D01*
X120670000Y-83540000D02*
X117510000Y-83540000D01*
X122000421Y-80839579D02*
X122000421Y-82209579D01*
X116925000Y-81200000D02*
X115800000Y-80075000D01*
X122000421Y-82209579D02*
X120670000Y-83540000D01*
X130357707Y-63377000D02*
X128066158Y-63377000D01*
X143200000Y-44540000D02*
X143750000Y-45090000D01*
X116980000Y-83000000D02*
X116980000Y-81730000D01*
X143200000Y-43700000D02*
X143200000Y-44540000D01*
%TO.N,/SDA*%
X118375000Y-81675000D02*
X118375000Y-81400000D01*
X130654580Y-63000000D02*
X127910000Y-63000000D01*
X129430000Y-71510000D02*
X129430000Y-77290000D01*
X126920000Y-63990000D02*
X126920000Y-69000000D01*
X141750000Y-45000000D02*
X142100000Y-44650000D01*
X132076477Y-64181879D02*
X131836459Y-64181879D01*
X121623421Y-82053421D02*
X120536842Y-83140000D01*
X126920000Y-69000000D02*
X129430000Y-71510000D01*
X128780000Y-77940000D02*
X124366842Y-77940000D01*
X127910000Y-63000000D02*
X126920000Y-63990000D01*
X120536842Y-83140000D02*
X118960000Y-83140000D01*
X118960000Y-83140000D02*
X118375000Y-82555000D01*
X118375000Y-81400000D02*
X117050000Y-80075000D01*
X118375000Y-82555000D02*
X118375000Y-81675000D01*
X124366842Y-77940000D02*
X121623421Y-80683421D01*
X129430000Y-77290000D02*
X128780000Y-77940000D01*
X142100000Y-44650000D02*
X142100000Y-43700000D01*
X131836459Y-64181879D02*
X130654580Y-63000000D01*
X121623421Y-80683421D02*
X121623421Y-82053421D01*
%TD*%
%TA.AperFunction,Conductor*%
%TO.N,GND*%
G36*
X138053039Y-42520185D02*
G01*
X138098794Y-42572989D01*
X138110000Y-42624500D01*
X138110000Y-42770000D01*
X138105490Y-45580139D01*
X138100199Y-48876199D01*
X138080407Y-48943207D01*
X138027529Y-48988877D01*
X137976199Y-49000000D01*
X124999999Y-49000000D01*
X124018092Y-49627964D01*
X123951284Y-49647500D01*
X117737500Y-49647500D01*
X117718101Y-49645973D01*
X117700001Y-49643106D01*
X117700000Y-49643106D01*
X117696499Y-49643660D01*
X117676154Y-49646882D01*
X117671586Y-49647433D01*
X117670806Y-49647497D01*
X117643403Y-49652069D01*
X117586688Y-49661053D01*
X117583961Y-49661989D01*
X117536760Y-49687532D01*
X117535402Y-49688246D01*
X117490225Y-49711265D01*
X117485715Y-49714542D01*
X117481523Y-49717182D01*
X117480497Y-49717981D01*
X117480496Y-49717981D01*
X117480496Y-49717982D01*
X117474381Y-49724625D01*
X117446471Y-49754942D01*
X117444698Y-49756789D01*
X117411267Y-49790221D01*
X117405535Y-49798111D01*
X117405181Y-49797854D01*
X117400819Y-49804532D01*
X117382005Y-49847423D01*
X117380470Y-49850663D01*
X117360574Y-49889713D01*
X117357558Y-49898996D01*
X117357151Y-49898863D01*
X117355730Y-49903707D01*
X117353561Y-49912275D01*
X117349979Y-49955498D01*
X117349428Y-49960075D01*
X117343106Y-49999996D01*
X117343106Y-50004996D01*
X117343965Y-50028086D01*
X117343846Y-50029512D01*
X117353656Y-50068250D01*
X117354790Y-50073773D01*
X117360573Y-50110283D01*
X117360573Y-50110284D01*
X117361674Y-50112445D01*
X117371393Y-50138295D01*
X117372725Y-50143554D01*
X117392707Y-50174140D01*
X117396046Y-50179906D01*
X117401898Y-50191390D01*
X117411267Y-50209777D01*
X117411269Y-50209780D01*
X117415795Y-50214305D01*
X117431921Y-50234161D01*
X117433757Y-50236970D01*
X117437072Y-50242044D01*
X117463183Y-50262367D01*
X117468949Y-50267459D01*
X117490223Y-50288733D01*
X117499487Y-50293453D01*
X117519344Y-50306078D01*
X117529909Y-50314301D01*
X117529910Y-50314301D01*
X117529911Y-50314302D01*
X117529910Y-50314302D01*
X117557947Y-50323927D01*
X117565975Y-50327330D01*
X117597001Y-50343139D01*
X117647797Y-50391114D01*
X117664591Y-50458935D01*
X117642053Y-50525070D01*
X117609596Y-50556725D01*
X117517958Y-50617956D01*
X117510651Y-50628891D01*
X117495233Y-50647676D01*
X116947676Y-51195233D01*
X116928891Y-51210651D01*
X116917956Y-51217958D01*
X116868933Y-51291326D01*
X116853512Y-51310116D01*
X116852525Y-51311102D01*
X116855223Y-51336199D01*
X116854810Y-51338372D01*
X116842552Y-51399997D01*
X116842552Y-51399998D01*
X116845117Y-51412892D01*
X116847500Y-51437086D01*
X116847500Y-53844048D01*
X116827815Y-53911087D01*
X116811181Y-53931729D01*
X116280251Y-54462658D01*
X116218928Y-54496143D01*
X116191960Y-54498976D01*
X114760913Y-54491940D01*
X114693971Y-54471926D01*
X114648477Y-54418897D01*
X114642525Y-54398973D01*
X114642444Y-54399000D01*
X114639428Y-54389720D01*
X114639426Y-54389716D01*
X114639426Y-54389714D01*
X114588733Y-54290223D01*
X114588731Y-54290221D01*
X114588728Y-54290217D01*
X114509782Y-54211271D01*
X114509778Y-54211268D01*
X114509777Y-54211267D01*
X114410286Y-54160574D01*
X114410284Y-54160573D01*
X114410281Y-54160572D01*
X114300002Y-54143106D01*
X114299998Y-54143106D01*
X114189718Y-54160572D01*
X114189714Y-54160573D01*
X114189714Y-54160574D01*
X114147579Y-54182043D01*
X114090221Y-54211268D01*
X114090217Y-54211271D01*
X114011271Y-54290217D01*
X114011269Y-54290221D01*
X114011267Y-54290223D01*
X113997879Y-54316499D01*
X113960572Y-54389716D01*
X113957559Y-54398993D01*
X113954473Y-54397990D01*
X113931721Y-54445959D01*
X113872401Y-54482877D01*
X113838585Y-54487405D01*
X105623890Y-54447015D01*
X105556948Y-54427001D01*
X105511454Y-54373972D01*
X105500500Y-54323016D01*
X105500500Y-52924000D01*
X105520185Y-52856961D01*
X105572989Y-52811206D01*
X105624500Y-52800000D01*
X116000000Y-52800000D01*
X116000000Y-45701500D01*
X116019685Y-45634461D01*
X116072489Y-45588706D01*
X116124000Y-45577500D01*
X135847989Y-45577500D01*
X135873434Y-45580139D01*
X135884184Y-45582393D01*
X135903864Y-45579939D01*
X135919617Y-45577977D01*
X135927293Y-45577500D01*
X135931278Y-45577500D01*
X135931281Y-45577500D01*
X135953223Y-45573837D01*
X135955663Y-45573483D01*
X136009203Y-45566810D01*
X136009210Y-45566806D01*
X136016780Y-45564553D01*
X136024263Y-45561983D01*
X136024269Y-45561983D01*
X136071714Y-45536305D01*
X136073929Y-45535165D01*
X136122389Y-45511476D01*
X136122391Y-45511473D01*
X136122393Y-45511473D01*
X136128823Y-45506882D01*
X136135065Y-45502023D01*
X136135071Y-45502020D01*
X136171623Y-45462312D01*
X136173324Y-45460539D01*
X136830154Y-44803709D01*
X136850012Y-44787584D01*
X136859209Y-44781576D01*
X136881151Y-44753382D01*
X136886228Y-44747636D01*
X136889051Y-44744814D01*
X136889059Y-44744803D01*
X136896839Y-44733907D01*
X136945352Y-44693578D01*
X136974981Y-44679761D01*
X136990744Y-44672411D01*
X137072411Y-44590744D01*
X137121221Y-44486071D01*
X137127500Y-44438375D01*
X137127499Y-42961626D01*
X137121221Y-42913929D01*
X137072411Y-42809256D01*
X136990744Y-42727589D01*
X136988579Y-42726073D01*
X136985994Y-42722839D01*
X136983073Y-42719918D01*
X136983398Y-42719592D01*
X136944955Y-42671495D01*
X136937764Y-42601997D01*
X136969288Y-42539643D01*
X137029519Y-42504230D01*
X137059705Y-42500500D01*
X137986000Y-42500500D01*
X138053039Y-42520185D01*
G37*
%TD.AperFunction*%
%TA.AperFunction,Conductor*%
G36*
X121433632Y-51072185D02*
G01*
X121479387Y-51124989D01*
X121489331Y-51194147D01*
X121460306Y-51257703D01*
X121433401Y-51280964D01*
X117543307Y-53768814D01*
X117476224Y-53788350D01*
X117409229Y-53768517D01*
X117363591Y-53715611D01*
X117352499Y-53664350D01*
X117352499Y-52800000D01*
X117352499Y-51555947D01*
X117372184Y-51488912D01*
X117388813Y-51468275D01*
X117768270Y-51088819D01*
X117829593Y-51055334D01*
X117855951Y-51052500D01*
X121366593Y-51052500D01*
X121433632Y-51072185D01*
G37*
%TD.AperFunction*%
%TA.AperFunction,Conductor*%
G36*
X136207334Y-42520185D02*
G01*
X136253089Y-42572989D01*
X136263033Y-42642147D01*
X136234008Y-42705703D01*
X136211421Y-42726073D01*
X136209255Y-42727589D01*
X136127590Y-42809254D01*
X136078779Y-42913927D01*
X136078778Y-42913931D01*
X136072500Y-42961623D01*
X136072500Y-44442270D01*
X136052815Y-44509309D01*
X136036181Y-44529951D01*
X135779951Y-44786182D01*
X135718631Y-44819666D01*
X135692272Y-44822500D01*
X116124000Y-44822500D01*
X116056961Y-44802815D01*
X116011206Y-44750011D01*
X116000000Y-44698500D01*
X116000000Y-42624500D01*
X116019685Y-42557461D01*
X116072489Y-42511706D01*
X116124000Y-42500500D01*
X136140295Y-42500500D01*
X136207334Y-42520185D01*
G37*
%TD.AperFunction*%
%TD*%
%TA.AperFunction,Conductor*%
%TO.N,GND*%
G36*
X151842539Y-75419685D02*
G01*
X151888294Y-75472489D01*
X151899500Y-75524000D01*
X151899500Y-84198258D01*
X151899402Y-84201735D01*
X151882721Y-84498770D01*
X151881942Y-84505684D01*
X151832401Y-84797257D01*
X151830853Y-84804041D01*
X151748976Y-85088242D01*
X151746677Y-85094809D01*
X151633499Y-85368048D01*
X151630480Y-85374317D01*
X151487417Y-85633170D01*
X151483715Y-85639062D01*
X151312570Y-85880268D01*
X151308232Y-85885708D01*
X151111156Y-86106236D01*
X151106236Y-86111156D01*
X150885708Y-86308232D01*
X150880268Y-86312570D01*
X150639062Y-86483715D01*
X150633170Y-86487417D01*
X150374317Y-86630480D01*
X150368048Y-86633499D01*
X150094809Y-86746677D01*
X150088242Y-86748976D01*
X149804041Y-86830853D01*
X149797257Y-86832401D01*
X149505684Y-86881942D01*
X149498770Y-86882721D01*
X149201735Y-86899402D01*
X149198258Y-86899500D01*
X140135123Y-86899500D01*
X140068084Y-86879815D01*
X140022329Y-86827011D01*
X140012385Y-86757853D01*
X140041410Y-86694297D01*
X140094167Y-86658458D01*
X140133827Y-86644581D01*
X140243580Y-86563580D01*
X140324581Y-86453827D01*
X140369633Y-86325075D01*
X140370995Y-86310554D01*
X140372500Y-86294506D01*
X140372500Y-83335493D01*
X140369633Y-83304927D01*
X140369633Y-83304925D01*
X140324581Y-83176173D01*
X140243580Y-83066420D01*
X140133827Y-82985419D01*
X140133826Y-82985418D01*
X140133822Y-82985416D01*
X140055545Y-82958026D01*
X139998769Y-82917305D01*
X139973022Y-82852352D01*
X139972500Y-82840985D01*
X139972500Y-82612727D01*
X139992185Y-82545688D01*
X140008819Y-82525046D01*
X143220046Y-79313819D01*
X143281369Y-79280334D01*
X143307727Y-79277500D01*
X146248500Y-79277500D01*
X146315539Y-79297185D01*
X146361294Y-79349989D01*
X146372500Y-79401500D01*
X146372500Y-79412558D01*
X146379898Y-79449749D01*
X146408077Y-79491922D01*
X146450250Y-79520101D01*
X146450252Y-79520102D01*
X146478205Y-79525662D01*
X146487441Y-79527500D01*
X146487442Y-79527500D01*
X147512559Y-79527500D01*
X147519957Y-79526028D01*
X147549748Y-79520102D01*
X147591922Y-79491922D01*
X147620102Y-79449748D01*
X147627500Y-79412558D01*
X147627500Y-78387442D01*
X147620102Y-78350252D01*
X147620101Y-78350250D01*
X147591922Y-78308077D01*
X147549749Y-78279898D01*
X147512559Y-78272500D01*
X147512558Y-78272500D01*
X146487442Y-78272500D01*
X146487441Y-78272500D01*
X146450250Y-78279898D01*
X146408077Y-78308077D01*
X146379898Y-78350250D01*
X146372500Y-78387441D01*
X146372500Y-78398500D01*
X146352815Y-78465539D01*
X146300011Y-78511294D01*
X146248500Y-78522500D01*
X143152011Y-78522500D01*
X143126566Y-78519861D01*
X143115816Y-78517607D01*
X143115813Y-78517607D01*
X143080383Y-78522023D01*
X143072707Y-78522500D01*
X143068719Y-78522500D01*
X143059355Y-78524062D01*
X143046851Y-78526148D01*
X143044319Y-78526517D01*
X142990797Y-78533189D01*
X142983254Y-78535434D01*
X142975727Y-78538018D01*
X142928335Y-78563666D01*
X142926057Y-78564838D01*
X142877613Y-78588521D01*
X142871169Y-78593121D01*
X142864930Y-78597978D01*
X142828412Y-78637646D01*
X142826639Y-78639494D01*
X139364841Y-82101291D01*
X139344988Y-82117414D01*
X139335791Y-82123423D01*
X139313860Y-82151598D01*
X139308783Y-82157349D01*
X139305956Y-82160177D01*
X139305943Y-82160192D01*
X139293052Y-82178245D01*
X139291524Y-82180294D01*
X139258407Y-82222846D01*
X139254647Y-82229793D01*
X139251168Y-82236909D01*
X139235785Y-82288578D01*
X139235004Y-82291016D01*
X139217499Y-82342005D01*
X139216198Y-82349805D01*
X139215218Y-82357662D01*
X139217447Y-82411520D01*
X139217500Y-82414083D01*
X139217500Y-82840985D01*
X139197815Y-82908024D01*
X139145011Y-82953779D01*
X139134455Y-82958026D01*
X139056177Y-82985416D01*
X139056173Y-82985418D01*
X138946420Y-83066420D01*
X138865419Y-83176173D01*
X138820366Y-83304927D01*
X138817500Y-83335493D01*
X138817500Y-86294506D01*
X138820366Y-86325072D01*
X138820366Y-86325074D01*
X138820367Y-86325075D01*
X138865419Y-86453827D01*
X138946420Y-86563580D01*
X139056173Y-86644581D01*
X139095832Y-86658458D01*
X139152608Y-86699180D01*
X139178355Y-86764133D01*
X139164899Y-86832694D01*
X139116512Y-86883097D01*
X139054877Y-86899500D01*
X135184000Y-86899500D01*
X135116961Y-86879815D01*
X135071206Y-86827011D01*
X135060000Y-86775500D01*
X135060000Y-82831362D01*
X135079685Y-82764323D01*
X135096319Y-82743681D01*
X136600012Y-81239988D01*
X139669999Y-78150001D01*
X139670000Y-78150000D01*
X139670000Y-76911361D01*
X139689685Y-76844322D01*
X139706314Y-76823685D01*
X140741181Y-75788818D01*
X140802504Y-75755334D01*
X140828862Y-75752500D01*
X144212913Y-75752500D01*
X144237105Y-75754883D01*
X144239043Y-75755268D01*
X144250000Y-75757448D01*
X144333209Y-75740895D01*
X144333211Y-75740895D01*
X144338361Y-75739870D01*
X144348521Y-75737850D01*
X144432043Y-75682043D01*
X144439348Y-75671108D01*
X144454765Y-75652322D01*
X144670769Y-75436318D01*
X144732092Y-75402834D01*
X144758450Y-75400000D01*
X151775500Y-75400000D01*
X151842539Y-75419685D01*
G37*
%TD.AperFunction*%
%TD*%
%TA.AperFunction,Conductor*%
%TO.N,+5V*%
G36*
X125237166Y-58289685D02*
G01*
X125257808Y-58306319D01*
X125280217Y-58328728D01*
X125280221Y-58328731D01*
X125280223Y-58328733D01*
X125379714Y-58379426D01*
X125379716Y-58379426D01*
X125379718Y-58379427D01*
X125495398Y-58397749D01*
X125558532Y-58427678D01*
X125595464Y-58486989D01*
X125600000Y-58520222D01*
X125600000Y-62166000D01*
X125580315Y-62233039D01*
X125527511Y-62278794D01*
X125476000Y-62290000D01*
X123049999Y-62290000D01*
X121286319Y-64053681D01*
X121224996Y-64087166D01*
X121198638Y-64090000D01*
X118264000Y-64090000D01*
X118196961Y-64070315D01*
X118151206Y-64017511D01*
X118140000Y-63966000D01*
X118140000Y-61704000D01*
X118159685Y-61636961D01*
X118212489Y-61591206D01*
X118264000Y-61580000D01*
X120419999Y-61580000D01*
X120420000Y-61580000D01*
X120420000Y-60371361D01*
X120439685Y-60304322D01*
X120456314Y-60283685D01*
X122433680Y-58306318D01*
X122495004Y-58272834D01*
X122521362Y-58270000D01*
X125170127Y-58270000D01*
X125237166Y-58289685D01*
G37*
%TD.AperFunction*%
%TD*%
%TA.AperFunction,Conductor*%
%TO.N,+3V3*%
G36*
X117268039Y-75894685D02*
G01*
X117313794Y-75947489D01*
X117325000Y-75999000D01*
X117325000Y-76065405D01*
X117323705Y-76083270D01*
X117322500Y-76091547D01*
X117322500Y-76091551D01*
X117322500Y-76091552D01*
X117322500Y-76658451D01*
X117323705Y-76666716D01*
X117325000Y-76684593D01*
X117325000Y-78276000D01*
X117305315Y-78343039D01*
X117252511Y-78388794D01*
X117201000Y-78400000D01*
X115649000Y-78400000D01*
X115581961Y-78380315D01*
X115536206Y-78327511D01*
X115525000Y-78276000D01*
X115525000Y-77175000D01*
X114524000Y-77175000D01*
X114456961Y-77155315D01*
X114411206Y-77102511D01*
X114400000Y-77051000D01*
X114400000Y-75999000D01*
X114419685Y-75931961D01*
X114472489Y-75886206D01*
X114524000Y-75875000D01*
X117201000Y-75875000D01*
X117268039Y-75894685D01*
G37*
%TD.AperFunction*%
%TD*%
%TA.AperFunction,Conductor*%
%TO.N,GND*%
G36*
X119793039Y-77444685D02*
G01*
X119838794Y-77497489D01*
X119850000Y-77549000D01*
X119850000Y-80451000D01*
X119830315Y-80518039D01*
X119777511Y-80563794D01*
X119726000Y-80575000D01*
X118849000Y-80575000D01*
X118781961Y-80555315D01*
X118736206Y-80502511D01*
X118725000Y-80451000D01*
X118725000Y-79450000D01*
X116624000Y-79450000D01*
X116556961Y-79430315D01*
X116511206Y-79377511D01*
X116500000Y-79326000D01*
X116500000Y-78656500D01*
X116519685Y-78589461D01*
X116572489Y-78543706D01*
X116624000Y-78532500D01*
X117201000Y-78532500D01*
X117229166Y-78529472D01*
X117229168Y-78529471D01*
X117229173Y-78529471D01*
X117231475Y-78529098D01*
X117251317Y-78527500D01*
X117337559Y-78527500D01*
X117344957Y-78526028D01*
X117374748Y-78520102D01*
X117410971Y-78495898D01*
X117477649Y-78475020D01*
X117479863Y-78475000D01*
X118000000Y-78475000D01*
X118000000Y-77549000D01*
X118019685Y-77481961D01*
X118072489Y-77436206D01*
X118124000Y-77425000D01*
X119726000Y-77425000D01*
X119793039Y-77444685D01*
G37*
%TD.AperFunction*%
%TD*%
M02*
