%TF.GenerationSoftware,KiCad,Pcbnew,7.0.5-0*%
%TF.CreationDate,2024-02-02T13:19:59-05:00*%
%TF.ProjectId,BITSv5,42495453-7635-42e6-9b69-6361645f7063,rev?*%
%TF.SameCoordinates,Original*%
%TF.FileFunction,Paste,Bot*%
%TF.FilePolarity,Positive*%
%FSLAX46Y46*%
G04 Gerber Fmt 4.6, Leading zero omitted, Abs format (unit mm)*
G04 Created by KiCad (PCBNEW 7.0.5-0) date 2024-02-02 13:19:59*
%MOMM*%
%LPD*%
G01*
G04 APERTURE LIST*
G04 Aperture macros list*
%AMRoundRect*
0 Rectangle with rounded corners*
0 $1 Rounding radius*
0 $2 $3 $4 $5 $6 $7 $8 $9 X,Y pos of 4 corners*
0 Add a 4 corners polygon primitive as box body*
4,1,4,$2,$3,$4,$5,$6,$7,$8,$9,$2,$3,0*
0 Add four circle primitives for the rounded corners*
1,1,$1+$1,$2,$3*
1,1,$1+$1,$4,$5*
1,1,$1+$1,$6,$7*
1,1,$1+$1,$8,$9*
0 Add four rect primitives between the rounded corners*
20,1,$1+$1,$2,$3,$4,$5,0*
20,1,$1+$1,$4,$5,$6,$7,0*
20,1,$1+$1,$6,$7,$8,$9,0*
20,1,$1+$1,$8,$9,$2,$3,0*%
G04 Aperture macros list end*
%ADD10C,0.000100*%
%ADD11RoundRect,0.200000X0.200000X0.275000X-0.200000X0.275000X-0.200000X-0.275000X0.200000X-0.275000X0*%
%ADD12R,4.100000X1.700000*%
%ADD13R,0.550000X0.950000*%
%ADD14RoundRect,0.225000X-0.225000X-0.250000X0.225000X-0.250000X0.225000X0.250000X-0.225000X0.250000X0*%
%ADD15RoundRect,0.322500X-1.177500X-0.322500X1.177500X-0.322500X1.177500X0.322500X-1.177500X0.322500X0*%
%ADD16RoundRect,0.325000X-1.175000X-0.325000X1.175000X-0.325000X1.175000X0.325000X-1.175000X0.325000X0*%
%ADD17RoundRect,0.325000X-0.325000X1.425000X-0.325000X-1.425000X0.325000X-1.425000X0.325000X1.425000X0*%
%ADD18RoundRect,0.200000X-0.200000X-0.275000X0.200000X-0.275000X0.200000X0.275000X-0.200000X0.275000X0*%
%ADD19R,1.000000X1.000000*%
%ADD20R,2.200000X1.050000*%
%ADD21R,1.362800X2.259800*%
%ADD22RoundRect,0.237500X0.250000X0.237500X-0.250000X0.237500X-0.250000X-0.237500X0.250000X-0.237500X0*%
%ADD23RoundRect,0.237500X-0.250000X-0.237500X0.250000X-0.237500X0.250000X0.237500X-0.250000X0.237500X0*%
%ADD24RoundRect,0.175000X0.175000X-0.725000X0.175000X0.725000X-0.175000X0.725000X-0.175000X-0.725000X0*%
%ADD25RoundRect,0.200000X0.200000X-0.700000X0.200000X0.700000X-0.200000X0.700000X-0.200000X-0.700000X0*%
G04 APERTURE END LIST*
%TO.C,BT2*%
D10*
X145950000Y-51125000D02*
X145950000Y-48725000D01*
X148350000Y-48725000D01*
X145950000Y-51125000D01*
G36*
X145950000Y-51125000D02*
G01*
X145950000Y-48725000D01*
X148350000Y-48725000D01*
X145950000Y-51125000D01*
G37*
%TD*%
D11*
%TO.C,R9*%
X120025000Y-81675000D03*
X118375000Y-81675000D03*
%TD*%
D12*
%TO.C,BT2*%
X148000000Y-53275000D03*
%TD*%
D13*
%TO.C,U11*%
X115800000Y-77925000D03*
X117050000Y-77925000D03*
X118300000Y-77925000D03*
X119550000Y-77925000D03*
X119550000Y-80075000D03*
X118300000Y-80075000D03*
X117050000Y-80075000D03*
X115800000Y-80075000D03*
%TD*%
D14*
%TO.C,C29*%
X116350000Y-76375000D03*
X117900000Y-76375000D03*
%TD*%
D15*
%TO.C,U4*%
X123965000Y-74210000D03*
D16*
X123965000Y-71665000D03*
X123965000Y-69125000D03*
X123965000Y-66585000D03*
X123965000Y-64045000D03*
X123965000Y-61505000D03*
X123965000Y-58965000D03*
X142965000Y-58965000D03*
X142965000Y-61505000D03*
X142965000Y-64045000D03*
X142965000Y-66585000D03*
X142965000Y-69125000D03*
X142965000Y-71665000D03*
D15*
X142965000Y-74210000D03*
D17*
X142135000Y-84815000D03*
X139595000Y-84815000D03*
X137055000Y-84815000D03*
%TD*%
D18*
%TO.C,R6*%
X115275000Y-81675000D03*
X116925000Y-81675000D03*
%TD*%
D19*
%TO.C,J6*%
X147000000Y-78900000D03*
D20*
X148500000Y-80375000D03*
D19*
X150000000Y-78900000D03*
D20*
X148500000Y-77425000D03*
%TD*%
D21*
%TO.C,AE1*%
X114662701Y-44100000D03*
X107737299Y-44100000D03*
%TD*%
D22*
%TO.C,R8*%
X110932600Y-70348102D03*
X109107600Y-70348102D03*
%TD*%
D23*
%TO.C,R7*%
X109107600Y-67348102D03*
X110932600Y-67348102D03*
%TD*%
D24*
%TO.C,U3*%
X144300000Y-53200000D03*
D25*
X143200000Y-53200000D03*
X142100000Y-53200000D03*
X141000000Y-53200000D03*
X139900000Y-53200000D03*
X138800000Y-53200000D03*
X137700000Y-53200000D03*
X136600000Y-53200000D03*
D24*
X135500000Y-53200000D03*
X135500000Y-43700000D03*
D25*
X136600000Y-43700000D03*
X137700000Y-43700000D03*
X138800000Y-43700000D03*
X139900000Y-43700000D03*
X141000000Y-43700000D03*
X142100000Y-43700000D03*
X143200000Y-43700000D03*
D24*
X144300000Y-43700000D03*
%TD*%
M02*
