%TF.GenerationSoftware,KiCad,Pcbnew,7.0.5-0*%
%TF.CreationDate,2024-02-18T18:21:39-05:00*%
%TF.ProjectId,BITSv5,42495453-7635-42e6-9b69-6361645f7063,2*%
%TF.SameCoordinates,Original*%
%TF.FileFunction,Copper,L2,Inr*%
%TF.FilePolarity,Positive*%
%FSLAX46Y46*%
G04 Gerber Fmt 4.6, Leading zero omitted, Abs format (unit mm)*
G04 Created by KiCad (PCBNEW 7.0.5-0) date 2024-02-18 18:21:39*
%MOMM*%
%LPD*%
G01*
G04 APERTURE LIST*
%TA.AperFunction,ComponentPad*%
%ADD10C,0.600000*%
%TD*%
%TA.AperFunction,ComponentPad*%
%ADD11C,4.400000*%
%TD*%
%TA.AperFunction,ComponentPad*%
%ADD12O,2.100000X1.000000*%
%TD*%
%TA.AperFunction,ComponentPad*%
%ADD13O,1.800000X1.000000*%
%TD*%
%TA.AperFunction,ComponentPad*%
%ADD14C,1.400000*%
%TD*%
%TA.AperFunction,ComponentPad*%
%ADD15R,3.500000X3.500000*%
%TD*%
%TA.AperFunction,ComponentPad*%
%ADD16C,3.500000*%
%TD*%
%TA.AperFunction,ComponentPad*%
%ADD17C,2.000000*%
%TD*%
%TA.AperFunction,ComponentPad*%
%ADD18C,0.499999*%
%TD*%
%TA.AperFunction,ComponentPad*%
%ADD19R,1.700000X1.700000*%
%TD*%
%TA.AperFunction,ComponentPad*%
%ADD20O,1.700000X1.700000*%
%TD*%
%TA.AperFunction,ViaPad*%
%ADD21C,0.450000*%
%TD*%
%TA.AperFunction,ViaPad*%
%ADD22C,0.800000*%
%TD*%
%TA.AperFunction,ViaPad*%
%ADD23C,0.600000*%
%TD*%
%TA.AperFunction,ViaPad*%
%ADD24C,1.000000*%
%TD*%
%TA.AperFunction,Conductor*%
%ADD25C,0.200000*%
%TD*%
G04 APERTURE END LIST*
D10*
%TO.N,GND*%
%TO.C,U1*%
X129105000Y-68123100D03*
X130380000Y-68123100D03*
X131655000Y-68123100D03*
X129105000Y-66848100D03*
X130380000Y-66848100D03*
X131655000Y-66848100D03*
X129105000Y-65573100D03*
X130380000Y-65573100D03*
X131655000Y-65573100D03*
%TD*%
D11*
%TO.N,N/C*%
%TO.C,H2*%
X108300000Y-84100000D03*
%TD*%
D12*
%TO.N,GND*%
%TO.C,J2*%
X112900100Y-64278102D03*
D13*
X108720100Y-64278102D03*
D12*
X112900100Y-72918102D03*
D13*
X108720100Y-72918102D03*
%TD*%
D14*
%TO.N,*%
%TO.C,J3*%
X98300000Y-59400000D03*
X98300000Y-48400000D03*
D15*
%TO.N,GND*%
X108300000Y-51400000D03*
D16*
%TO.N,+BATT*%
X108300000Y-56400000D03*
%TD*%
D17*
%TO.N,/BATT_REG*%
%TO.C,TP6*%
X113400000Y-44600000D03*
%TD*%
D18*
%TO.N,GND*%
%TO.C,U8*%
X125757501Y-45112500D03*
X126757502Y-45112500D03*
X127757500Y-45112500D03*
%TD*%
D11*
%TO.N,N/C*%
%TO.C,H1*%
X108300000Y-45300000D03*
%TD*%
D19*
%TO.N,Net-(J1-Pin_1)*%
%TO.C,J1*%
X149900000Y-71425000D03*
D20*
%TO.N,Net-(J1-Pin_2)*%
X149900000Y-68885000D03*
%TO.N,GND*%
X149900000Y-66345000D03*
%TD*%
D18*
%TO.N,GND*%
%TO.C,U5*%
X113957501Y-52800000D03*
X114957502Y-52800000D03*
X115957500Y-52800000D03*
%TD*%
D11*
%TO.N,GND*%
%TO.C,H3*%
X149100000Y-84100000D03*
%TD*%
D17*
%TO.N,+5V*%
%TO.C,TP4*%
X116800000Y-46400000D03*
%TD*%
%TO.N,+3V3*%
%TO.C,TP5*%
X135100000Y-49900000D03*
%TD*%
D21*
%TO.N,/QSPI_SS*%
X128670000Y-77240000D03*
X127070000Y-74430000D03*
D22*
%TO.N,GND*%
X123200000Y-46100000D03*
X150266668Y-53800000D03*
X138940000Y-82100000D03*
X141599998Y-50700000D03*
X117900000Y-43300000D03*
X137940000Y-80800000D03*
X146000000Y-46900000D03*
X150000000Y-79300000D03*
D21*
X127500000Y-48700000D03*
D22*
X142400000Y-80700000D03*
X134700000Y-76600000D03*
X147666664Y-55500000D03*
X149433330Y-55500000D03*
X146780000Y-77400000D03*
D21*
X125700000Y-60500000D03*
D23*
X107025000Y-60225000D03*
D21*
X139000000Y-65000000D03*
D22*
X133400000Y-77800000D03*
X136580000Y-85600000D03*
X134420000Y-85600000D03*
D21*
X131800000Y-60900000D03*
X119700000Y-59900000D03*
D22*
X140600000Y-60100000D03*
D21*
X116000000Y-65400000D03*
D22*
X143200000Y-53800000D03*
X146733332Y-53800000D03*
X140700000Y-52300000D03*
X140600000Y-63400000D03*
D21*
X133000000Y-67500000D03*
X137200000Y-75500000D03*
X144000000Y-60300000D03*
D22*
X140600000Y-61750000D03*
D21*
X119100000Y-66600000D03*
X118500000Y-66400000D03*
D22*
X115000000Y-47600000D03*
D21*
X124366402Y-75571000D03*
D22*
X146000000Y-43500000D03*
X148940000Y-77400000D03*
X115200000Y-74400000D03*
X117300000Y-56300000D03*
X145300000Y-65000000D03*
D21*
X144700000Y-60300000D03*
D22*
X137500000Y-78500000D03*
D24*
X128050000Y-79580000D03*
D22*
X147840000Y-79300000D03*
X150900000Y-46900000D03*
D21*
X126980000Y-73215600D03*
D22*
X141599998Y-45700000D03*
X127500000Y-60400000D03*
X150300000Y-50800000D03*
X144966666Y-53800000D03*
D21*
X138260000Y-63780000D03*
D22*
X140100000Y-80800000D03*
D21*
X117780000Y-71400000D03*
D22*
X133700000Y-53300000D03*
X147633330Y-52200000D03*
X140600000Y-55500000D03*
X145899998Y-55500000D03*
D21*
X144700000Y-61000000D03*
D22*
X133300000Y-84600000D03*
X151100000Y-77400000D03*
X141900000Y-60900000D03*
X132500000Y-78800000D03*
X133200000Y-43700000D03*
D21*
X135100000Y-80900000D03*
D22*
X133700000Y-52300000D03*
X149400000Y-52200000D03*
X148499998Y-53800000D03*
D21*
X126700000Y-60500000D03*
D22*
X132400000Y-83000000D03*
X142366666Y-55500000D03*
D21*
X115600000Y-57500000D03*
X121830000Y-69150000D03*
D22*
X139200000Y-79300000D03*
X120600000Y-48900000D03*
X144099998Y-52200000D03*
X148533330Y-50800000D03*
D21*
X116000000Y-60000000D03*
D22*
X134000000Y-72500000D03*
X140900000Y-85600000D03*
X132400000Y-80300000D03*
X138740000Y-85600000D03*
X145866664Y-52200000D03*
D21*
X144000000Y-61000000D03*
D22*
X125400000Y-56700000D03*
X146766664Y-50800000D03*
X141360000Y-79300000D03*
X144560000Y-80700000D03*
D21*
X127500000Y-49300000D03*
D22*
X146720000Y-80700000D03*
D21*
X118100000Y-66800000D03*
D22*
X140700000Y-47300000D03*
D21*
X147100000Y-73700000D03*
X117900000Y-69000000D03*
X135400000Y-69000000D03*
D22*
X140300000Y-77400000D03*
X123500000Y-58500000D03*
D23*
X107025000Y-59375000D03*
D22*
X145680000Y-79300000D03*
X144133332Y-55500000D03*
D21*
X127500000Y-49900000D03*
D22*
X144620000Y-77400000D03*
X142460000Y-77400000D03*
D21*
X116000000Y-62100000D03*
D22*
X143520000Y-79300000D03*
X141100000Y-82100000D03*
X146000000Y-45200000D03*
D21*
X130800000Y-73220000D03*
D22*
X151200000Y-55500000D03*
D21*
X111000000Y-60400000D03*
D22*
X147700000Y-46900000D03*
X124600000Y-60900000D03*
D21*
%TO.N,+3V3*%
X141060000Y-70950000D03*
D22*
X129500000Y-50200000D03*
D21*
X149600000Y-56800000D03*
X127850000Y-66120000D03*
X123900000Y-66700000D03*
X148500000Y-56800000D03*
X124600000Y-66700000D03*
X127700000Y-72500000D03*
X144800000Y-74100000D03*
X126660000Y-63470000D03*
X141000000Y-69800000D03*
X136000000Y-66300000D03*
D22*
X131000000Y-53300000D03*
D21*
X145100000Y-68800000D03*
X130690000Y-71720000D03*
X131980000Y-61570000D03*
D22*
X129500000Y-51200000D03*
X143000000Y-43900000D03*
X131000000Y-52300000D03*
D21*
%TO.N,Net-(U1-RUN)*%
X134800000Y-73300000D03*
X134800000Y-65280000D03*
D24*
%TO.N,+5V*%
X126300000Y-52400000D03*
X124500000Y-52400000D03*
X124800000Y-80000000D03*
X123200000Y-51000000D03*
X124800000Y-48900000D03*
X126200000Y-80000000D03*
D21*
%TO.N,/LED*%
X115900000Y-72300000D03*
X127600000Y-73800000D03*
%TO.N,/RDIO_RST*%
X132900000Y-69100000D03*
%TO.N,/MISO*%
X139950000Y-69050000D03*
X135800000Y-75200000D03*
X131100000Y-60400000D03*
D22*
%TO.N,Net-(SW3-C)*%
X111400000Y-75300000D03*
X113500000Y-59300000D03*
D21*
%TO.N,/DRF_SW*%
X132500000Y-72800000D03*
%TO.N,/DRF_TXEN*%
X132000000Y-72300000D03*
%TO.N,/DRF_DIO1*%
X133000000Y-71600000D03*
%TO.N,/RP_SWCLK*%
X128500000Y-59100000D03*
X128110000Y-64730000D03*
%TO.N,/RP_SWD*%
X130200000Y-58900000D03*
X128700000Y-64340000D03*
%TO.N,/DRF_BUSY*%
X133500000Y-70900000D03*
%TO.N,/SCK*%
X138800000Y-75100000D03*
X140300000Y-70500000D03*
X130000000Y-60700000D03*
%TO.N,/DRF_CS*%
X129700000Y-62100000D03*
%TO.N,/MOSI*%
X130500000Y-60200000D03*
X139900000Y-69800000D03*
X137800000Y-75000000D03*
%TO.N,/FRAM_CS*%
X128000000Y-69000000D03*
X130600000Y-75100000D03*
D22*
X127600000Y-61700000D03*
D21*
%TO.N,/SCL*%
X139200000Y-60100000D03*
X134200000Y-59400000D03*
%TO.N,/SDA*%
X144200000Y-71400000D03*
X132076477Y-64181879D03*
D24*
%TO.N,/BATT_REG*%
X117200000Y-53000000D03*
D22*
%TO.N,Net-(U8-VOUT)*%
X119700000Y-46300000D03*
D21*
X127700000Y-47700000D03*
D22*
%TO.N,Net-(SW3-B)*%
X110200000Y-78200000D03*
D21*
X111700000Y-55200000D03*
D22*
X112100000Y-60100000D03*
%TD*%
D25*
%TO.N,+3V3*%
X126660000Y-64930000D02*
X126660000Y-63470000D01*
X127850000Y-66120000D02*
X126660000Y-64930000D01*
%TD*%
%TA.AperFunction,Conductor*%
%TO.N,GND*%
G36*
X150702426Y-42500691D02*
G01*
X150728818Y-42502768D01*
X150877919Y-42514502D01*
X150897128Y-42517545D01*
X151061183Y-42556931D01*
X151079675Y-42562940D01*
X151205347Y-42614994D01*
X151235547Y-42627504D01*
X151252884Y-42636338D01*
X151396725Y-42724484D01*
X151412466Y-42735920D01*
X151540753Y-42845486D01*
X151554513Y-42859246D01*
X151664079Y-42987533D01*
X151675515Y-43003274D01*
X151763661Y-43147115D01*
X151772495Y-43164452D01*
X151837057Y-43320317D01*
X151843070Y-43338823D01*
X151882453Y-43502866D01*
X151885497Y-43522084D01*
X151899309Y-43697572D01*
X151899500Y-43702439D01*
X151899500Y-64200000D01*
X140000000Y-64200000D01*
X140000000Y-56800002D01*
X148143106Y-56800002D01*
X148160572Y-56910281D01*
X148160573Y-56910284D01*
X148160574Y-56910286D01*
X148211267Y-57009777D01*
X148211268Y-57009778D01*
X148211271Y-57009782D01*
X148290217Y-57088728D01*
X148290221Y-57088731D01*
X148290223Y-57088733D01*
X148389714Y-57139426D01*
X148389716Y-57139426D01*
X148389718Y-57139427D01*
X148499998Y-57156894D01*
X148500000Y-57156894D01*
X148500002Y-57156894D01*
X148610281Y-57139427D01*
X148610281Y-57139426D01*
X148610286Y-57139426D01*
X148709777Y-57088733D01*
X148788733Y-57009777D01*
X148839426Y-56910286D01*
X148856894Y-56800002D01*
X149243106Y-56800002D01*
X149260572Y-56910281D01*
X149260573Y-56910284D01*
X149260574Y-56910286D01*
X149311267Y-57009777D01*
X149311268Y-57009778D01*
X149311271Y-57009782D01*
X149390217Y-57088728D01*
X149390221Y-57088731D01*
X149390223Y-57088733D01*
X149489714Y-57139426D01*
X149489716Y-57139426D01*
X149489718Y-57139427D01*
X149599998Y-57156894D01*
X149600000Y-57156894D01*
X149600002Y-57156894D01*
X149710281Y-57139427D01*
X149710281Y-57139426D01*
X149710286Y-57139426D01*
X149809777Y-57088733D01*
X149888733Y-57009777D01*
X149939426Y-56910286D01*
X149956894Y-56800000D01*
X149939426Y-56689714D01*
X149888733Y-56590223D01*
X149888731Y-56590221D01*
X149888728Y-56590217D01*
X149809782Y-56511271D01*
X149809778Y-56511268D01*
X149809777Y-56511267D01*
X149710286Y-56460574D01*
X149710284Y-56460573D01*
X149710281Y-56460572D01*
X149600002Y-56443106D01*
X149599998Y-56443106D01*
X149489718Y-56460572D01*
X149390221Y-56511268D01*
X149390217Y-56511271D01*
X149311271Y-56590217D01*
X149311268Y-56590221D01*
X149260572Y-56689718D01*
X149243106Y-56799997D01*
X149243106Y-56800002D01*
X148856894Y-56800002D01*
X148856894Y-56800000D01*
X148839426Y-56689714D01*
X148788733Y-56590223D01*
X148788731Y-56590221D01*
X148788728Y-56590217D01*
X148709782Y-56511271D01*
X148709778Y-56511268D01*
X148709777Y-56511267D01*
X148610286Y-56460574D01*
X148610284Y-56460573D01*
X148610281Y-56460572D01*
X148500002Y-56443106D01*
X148499998Y-56443106D01*
X148389718Y-56460572D01*
X148290221Y-56511268D01*
X148290217Y-56511271D01*
X148211271Y-56590217D01*
X148211268Y-56590221D01*
X148160572Y-56689718D01*
X148143106Y-56799997D01*
X148143106Y-56800002D01*
X140000000Y-56800002D01*
X140000000Y-43900001D01*
X142467948Y-43900001D01*
X142486076Y-44037703D01*
X142486078Y-44037708D01*
X142539227Y-44166023D01*
X142539228Y-44166025D01*
X142539229Y-44166026D01*
X142623782Y-44276218D01*
X142733974Y-44360771D01*
X142862295Y-44413923D01*
X142931147Y-44422987D01*
X142999999Y-44432052D01*
X143000000Y-44432052D01*
X143000001Y-44432052D01*
X143045901Y-44426009D01*
X143137705Y-44413923D01*
X143266026Y-44360771D01*
X143376218Y-44276218D01*
X143460771Y-44166026D01*
X143513923Y-44037705D01*
X143532052Y-43900000D01*
X143513923Y-43762295D01*
X143460771Y-43633974D01*
X143376218Y-43523782D01*
X143266026Y-43439229D01*
X143266025Y-43439228D01*
X143266023Y-43439227D01*
X143137708Y-43386078D01*
X143137703Y-43386076D01*
X143000001Y-43367948D01*
X142999999Y-43367948D01*
X142862296Y-43386076D01*
X142862291Y-43386078D01*
X142733976Y-43439227D01*
X142623782Y-43523782D01*
X142539227Y-43633976D01*
X142486078Y-43762291D01*
X142486076Y-43762296D01*
X142467948Y-43899998D01*
X142467948Y-43900001D01*
X140000000Y-43900001D01*
X140000000Y-42500500D01*
X150652405Y-42500500D01*
X150697560Y-42500500D01*
X150702426Y-42500691D01*
G37*
%TD.AperFunction*%
%TD*%
%TA.AperFunction,Conductor*%
%TO.N,GND*%
G36*
X140000000Y-64200000D02*
G01*
X151899500Y-64200000D01*
X151899500Y-84198258D01*
X151899402Y-84201735D01*
X151882721Y-84498770D01*
X151881942Y-84505684D01*
X151832401Y-84797257D01*
X151830853Y-84804041D01*
X151748976Y-85088242D01*
X151746677Y-85094809D01*
X151633499Y-85368048D01*
X151630480Y-85374317D01*
X151487417Y-85633170D01*
X151483715Y-85639062D01*
X151312570Y-85880268D01*
X151308232Y-85885708D01*
X151111156Y-86106236D01*
X151106236Y-86111156D01*
X150885708Y-86308232D01*
X150880268Y-86312570D01*
X150639062Y-86483715D01*
X150633170Y-86487417D01*
X150374317Y-86630480D01*
X150368048Y-86633499D01*
X150094809Y-86746677D01*
X150088242Y-86748976D01*
X149804041Y-86830853D01*
X149797257Y-86832401D01*
X149505684Y-86881942D01*
X149498770Y-86882721D01*
X149201735Y-86899402D01*
X149198258Y-86899500D01*
X108201742Y-86899500D01*
X108198265Y-86899402D01*
X107901229Y-86882721D01*
X107894315Y-86881942D01*
X107602742Y-86832401D01*
X107595958Y-86830853D01*
X107311757Y-86748976D01*
X107305190Y-86746677D01*
X107070282Y-86649376D01*
X107031947Y-86633497D01*
X107025682Y-86630480D01*
X106766829Y-86487417D01*
X106760937Y-86483715D01*
X106519731Y-86312570D01*
X106514291Y-86308232D01*
X106293763Y-86111156D01*
X106288843Y-86106236D01*
X106091767Y-85885708D01*
X106087429Y-85880268D01*
X105916284Y-85639062D01*
X105912582Y-85633170D01*
X105849998Y-85519932D01*
X105769515Y-85374309D01*
X105766505Y-85368060D01*
X105709910Y-85231428D01*
X105653322Y-85094809D01*
X105651023Y-85088242D01*
X105569146Y-84804041D01*
X105567598Y-84797257D01*
X105551701Y-84703694D01*
X105518055Y-84505670D01*
X105517279Y-84498782D01*
X105500596Y-84201719D01*
X105500500Y-84198291D01*
X105500500Y-84152405D01*
X105500500Y-84099999D01*
X105967506Y-84099999D01*
X105987461Y-84404450D01*
X105987463Y-84404462D01*
X106046982Y-84703686D01*
X106046986Y-84703701D01*
X106145055Y-84992602D01*
X106145064Y-84992623D01*
X106279998Y-85266242D01*
X106280002Y-85266249D01*
X106449506Y-85519930D01*
X106650677Y-85749322D01*
X106880069Y-85950493D01*
X107133750Y-86119997D01*
X107133757Y-86120001D01*
X107407376Y-86254935D01*
X107407381Y-86254937D01*
X107407393Y-86254943D01*
X107696306Y-86353016D01*
X107995548Y-86412539D01*
X108300000Y-86432494D01*
X108604452Y-86412539D01*
X108903694Y-86353016D01*
X109192607Y-86254943D01*
X109466247Y-86119999D01*
X109719932Y-85950492D01*
X109949322Y-85749322D01*
X110150492Y-85519932D01*
X110319999Y-85266247D01*
X110454943Y-84992607D01*
X110553016Y-84703694D01*
X110612539Y-84404452D01*
X110632494Y-84100000D01*
X110612539Y-83795548D01*
X110553016Y-83496306D01*
X110454943Y-83207393D01*
X110319999Y-82933753D01*
X110150492Y-82680068D01*
X109949322Y-82450677D01*
X109719930Y-82249506D01*
X109466249Y-82080002D01*
X109466242Y-82079998D01*
X109192623Y-81945064D01*
X109192602Y-81945055D01*
X108903701Y-81846986D01*
X108903695Y-81846984D01*
X108903694Y-81846984D01*
X108903692Y-81846983D01*
X108903686Y-81846982D01*
X108604462Y-81787463D01*
X108604452Y-81787461D01*
X108300000Y-81767506D01*
X108299999Y-81767506D01*
X108147773Y-81777483D01*
X107995548Y-81787461D01*
X107995542Y-81787462D01*
X107995537Y-81787463D01*
X107696313Y-81846982D01*
X107696298Y-81846986D01*
X107407397Y-81945055D01*
X107407376Y-81945064D01*
X107133757Y-82079998D01*
X107133750Y-82080002D01*
X106880069Y-82249506D01*
X106650677Y-82450677D01*
X106449506Y-82680069D01*
X106280002Y-82933750D01*
X106279998Y-82933757D01*
X106145064Y-83207376D01*
X106145055Y-83207397D01*
X106046986Y-83496298D01*
X106046982Y-83496313D01*
X105987463Y-83795537D01*
X105987461Y-83795549D01*
X105967506Y-84099999D01*
X105500500Y-84099999D01*
X105500500Y-80000000D01*
X124167891Y-80000000D01*
X124186258Y-80151274D01*
X124240295Y-80293756D01*
X124240295Y-80293757D01*
X124318808Y-80407501D01*
X124326860Y-80419166D01*
X124440921Y-80520216D01*
X124575851Y-80591032D01*
X124723808Y-80627500D01*
X124876192Y-80627500D01*
X125024149Y-80591032D01*
X125159079Y-80520216D01*
X125273140Y-80419166D01*
X125359705Y-80293756D01*
X125384058Y-80229539D01*
X125426236Y-80173838D01*
X125491833Y-80149781D01*
X125560023Y-80165008D01*
X125609157Y-80214683D01*
X125615942Y-80229541D01*
X125640295Y-80293757D01*
X125718808Y-80407501D01*
X125726860Y-80419166D01*
X125840921Y-80520216D01*
X125975851Y-80591032D01*
X126123808Y-80627500D01*
X126276192Y-80627500D01*
X126424149Y-80591032D01*
X126559079Y-80520216D01*
X126673140Y-80419166D01*
X126759705Y-80293756D01*
X126813741Y-80151274D01*
X126832109Y-80000000D01*
X126813741Y-79848726D01*
X126759705Y-79706244D01*
X126673140Y-79580834D01*
X126559079Y-79479784D01*
X126424149Y-79408968D01*
X126424148Y-79408967D01*
X126424147Y-79408967D01*
X126276192Y-79372500D01*
X126123808Y-79372500D01*
X125975852Y-79408967D01*
X125840922Y-79479783D01*
X125726860Y-79580833D01*
X125726858Y-79580836D01*
X125640295Y-79706242D01*
X125640295Y-79706243D01*
X125615942Y-79770458D01*
X125573764Y-79826161D01*
X125508166Y-79850218D01*
X125439976Y-79834991D01*
X125390843Y-79785315D01*
X125384058Y-79770458D01*
X125359705Y-79706244D01*
X125273140Y-79580834D01*
X125159079Y-79479784D01*
X125024149Y-79408968D01*
X125024148Y-79408967D01*
X125024147Y-79408967D01*
X124876192Y-79372500D01*
X124723808Y-79372500D01*
X124575852Y-79408967D01*
X124440922Y-79479783D01*
X124326860Y-79580833D01*
X124326858Y-79580836D01*
X124240295Y-79706242D01*
X124240295Y-79706243D01*
X124186258Y-79848725D01*
X124167891Y-79999999D01*
X124167891Y-80000000D01*
X105500500Y-80000000D01*
X105500500Y-78200001D01*
X109667948Y-78200001D01*
X109686076Y-78337703D01*
X109686078Y-78337708D01*
X109739227Y-78466023D01*
X109739228Y-78466025D01*
X109739229Y-78466026D01*
X109823782Y-78576218D01*
X109933974Y-78660771D01*
X110062295Y-78713923D01*
X110131147Y-78722987D01*
X110199999Y-78732052D01*
X110200000Y-78732052D01*
X110200001Y-78732052D01*
X110245901Y-78726009D01*
X110337705Y-78713923D01*
X110466026Y-78660771D01*
X110576218Y-78576218D01*
X110660771Y-78466026D01*
X110713923Y-78337705D01*
X110732052Y-78200000D01*
X110713923Y-78062295D01*
X110660771Y-77933974D01*
X110576218Y-77823782D01*
X110466026Y-77739229D01*
X110466025Y-77739228D01*
X110466023Y-77739227D01*
X110337708Y-77686078D01*
X110337703Y-77686076D01*
X110200001Y-77667948D01*
X110199999Y-77667948D01*
X110062296Y-77686076D01*
X110062291Y-77686078D01*
X109933976Y-77739227D01*
X109823782Y-77823782D01*
X109739227Y-77933976D01*
X109686078Y-78062291D01*
X109686076Y-78062296D01*
X109667948Y-78199998D01*
X109667948Y-78200001D01*
X105500500Y-78200001D01*
X105500500Y-77414180D01*
X106111259Y-77414180D01*
X106121492Y-77576823D01*
X106156990Y-77686078D01*
X106171850Y-77731811D01*
X106171851Y-77731814D01*
X106259171Y-77869409D01*
X106377964Y-77980962D01*
X106377972Y-77980968D01*
X106520771Y-78059472D01*
X106520775Y-78059474D01*
X106678620Y-78100002D01*
X106678624Y-78100002D01*
X106800676Y-78100002D01*
X106800678Y-78100002D01*
X106800683Y-78100001D01*
X106800687Y-78100001D01*
X106813815Y-78098342D01*
X106921782Y-78084703D01*
X107073303Y-78024712D01*
X107205144Y-77928923D01*
X107309022Y-77803357D01*
X107378409Y-77655902D01*
X107408945Y-77495824D01*
X107403808Y-77414180D01*
X112911255Y-77414180D01*
X112921488Y-77576823D01*
X112956986Y-77686078D01*
X112971846Y-77731811D01*
X112971847Y-77731814D01*
X113059167Y-77869409D01*
X113177960Y-77980962D01*
X113177968Y-77980968D01*
X113320767Y-78059472D01*
X113320771Y-78059474D01*
X113478616Y-78100002D01*
X113478620Y-78100002D01*
X113600672Y-78100002D01*
X113600674Y-78100002D01*
X113600679Y-78100001D01*
X113600683Y-78100001D01*
X113613811Y-78098342D01*
X113721778Y-78084703D01*
X113873299Y-78024712D01*
X114005140Y-77928923D01*
X114109018Y-77803357D01*
X114178405Y-77655902D01*
X114208941Y-77495824D01*
X114198708Y-77333181D01*
X114168433Y-77240002D01*
X128313106Y-77240002D01*
X128330572Y-77350281D01*
X128330573Y-77350284D01*
X128330574Y-77350286D01*
X128381267Y-77449777D01*
X128381268Y-77449778D01*
X128381271Y-77449782D01*
X128460217Y-77528728D01*
X128460221Y-77528731D01*
X128460223Y-77528733D01*
X128559714Y-77579426D01*
X128559716Y-77579426D01*
X128559718Y-77579427D01*
X128669998Y-77596894D01*
X128670000Y-77596894D01*
X128670002Y-77596894D01*
X128780281Y-77579427D01*
X128780281Y-77579426D01*
X128780286Y-77579426D01*
X128879777Y-77528733D01*
X128958733Y-77449777D01*
X129009426Y-77350286D01*
X129026894Y-77240000D01*
X129009426Y-77129714D01*
X128958733Y-77030223D01*
X128958731Y-77030221D01*
X128958728Y-77030217D01*
X128879782Y-76951271D01*
X128879778Y-76951268D01*
X128879777Y-76951267D01*
X128780286Y-76900574D01*
X128780284Y-76900573D01*
X128780281Y-76900572D01*
X128670002Y-76883106D01*
X128669998Y-76883106D01*
X128559718Y-76900572D01*
X128460221Y-76951268D01*
X128460217Y-76951271D01*
X128381271Y-77030217D01*
X128381268Y-77030221D01*
X128330572Y-77129718D01*
X128313106Y-77239997D01*
X128313106Y-77240002D01*
X114168433Y-77240002D01*
X114148350Y-77178192D01*
X114125371Y-77141983D01*
X114061028Y-77040594D01*
X113942235Y-76929041D01*
X113942227Y-76929035D01*
X113799428Y-76850531D01*
X113799420Y-76850528D01*
X113641581Y-76810002D01*
X113641580Y-76810002D01*
X113519522Y-76810002D01*
X113519512Y-76810002D01*
X113398418Y-76825301D01*
X113398412Y-76825302D01*
X113246900Y-76885290D01*
X113246897Y-76885291D01*
X113246897Y-76885292D01*
X113186683Y-76929041D01*
X113115055Y-76981082D01*
X113011176Y-77106649D01*
X112941791Y-77254101D01*
X112941791Y-77254102D01*
X112911255Y-77414177D01*
X112911255Y-77414180D01*
X107403808Y-77414180D01*
X107398712Y-77333181D01*
X107348354Y-77178192D01*
X107325375Y-77141983D01*
X107261032Y-77040594D01*
X107142239Y-76929041D01*
X107142231Y-76929035D01*
X106999432Y-76850531D01*
X106999424Y-76850528D01*
X106841585Y-76810002D01*
X106841584Y-76810002D01*
X106719526Y-76810002D01*
X106719516Y-76810002D01*
X106598422Y-76825301D01*
X106598416Y-76825302D01*
X106446904Y-76885290D01*
X106446901Y-76885291D01*
X106446901Y-76885292D01*
X106386687Y-76929041D01*
X106315059Y-76981082D01*
X106211180Y-77106649D01*
X106141795Y-77254101D01*
X106141795Y-77254102D01*
X106111259Y-77414177D01*
X106111259Y-77414180D01*
X105500500Y-77414180D01*
X105500500Y-75300001D01*
X110867948Y-75300001D01*
X110886076Y-75437703D01*
X110886078Y-75437708D01*
X110939227Y-75566023D01*
X110939228Y-75566025D01*
X110939229Y-75566026D01*
X111023782Y-75676218D01*
X111133974Y-75760771D01*
X111262295Y-75813923D01*
X111331147Y-75822987D01*
X111399999Y-75832052D01*
X111400000Y-75832052D01*
X111400001Y-75832052D01*
X111445901Y-75826009D01*
X111537705Y-75813923D01*
X111666026Y-75760771D01*
X111776218Y-75676218D01*
X111860771Y-75566026D01*
X111913923Y-75437705D01*
X111930698Y-75310286D01*
X111932052Y-75300001D01*
X111932052Y-75299998D01*
X111918887Y-75200000D01*
X111913923Y-75162295D01*
X111888121Y-75100002D01*
X130243106Y-75100002D01*
X130260572Y-75210281D01*
X130260573Y-75210284D01*
X130260574Y-75210286D01*
X130306286Y-75300001D01*
X130311268Y-75309778D01*
X130311271Y-75309782D01*
X130390217Y-75388728D01*
X130390221Y-75388731D01*
X130390223Y-75388733D01*
X130489714Y-75439426D01*
X130489716Y-75439426D01*
X130489718Y-75439427D01*
X130599998Y-75456894D01*
X130600000Y-75456894D01*
X130600002Y-75456894D01*
X130710281Y-75439427D01*
X130710281Y-75439426D01*
X130710286Y-75439426D01*
X130809777Y-75388733D01*
X130888733Y-75309777D01*
X130939426Y-75210286D01*
X130939507Y-75209778D01*
X130941055Y-75200002D01*
X135443106Y-75200002D01*
X135460572Y-75310281D01*
X135460573Y-75310284D01*
X135460574Y-75310286D01*
X135500544Y-75388731D01*
X135511268Y-75409778D01*
X135511271Y-75409782D01*
X135590217Y-75488728D01*
X135590221Y-75488731D01*
X135590223Y-75488733D01*
X135689714Y-75539426D01*
X135689716Y-75539426D01*
X135689718Y-75539427D01*
X135799998Y-75556894D01*
X135800000Y-75556894D01*
X135800002Y-75556894D01*
X135910281Y-75539427D01*
X135910281Y-75539426D01*
X135910286Y-75539426D01*
X136009777Y-75488733D01*
X136088733Y-75409777D01*
X136139426Y-75310286D01*
X136139506Y-75309782D01*
X136156894Y-75200002D01*
X136156894Y-75199997D01*
X136139427Y-75089718D01*
X136139426Y-75089716D01*
X136139426Y-75089714D01*
X136093716Y-75000002D01*
X137443106Y-75000002D01*
X137460572Y-75110281D01*
X137460573Y-75110284D01*
X137460574Y-75110286D01*
X137511267Y-75209777D01*
X137511268Y-75209778D01*
X137511271Y-75209782D01*
X137590217Y-75288728D01*
X137590221Y-75288731D01*
X137590223Y-75288733D01*
X137689714Y-75339426D01*
X137689716Y-75339426D01*
X137689718Y-75339427D01*
X137799998Y-75356894D01*
X137800000Y-75356894D01*
X137800002Y-75356894D01*
X137910281Y-75339427D01*
X137910281Y-75339426D01*
X137910286Y-75339426D01*
X138009777Y-75288733D01*
X138088733Y-75209777D01*
X138139426Y-75110286D01*
X138141055Y-75100002D01*
X138443106Y-75100002D01*
X138460572Y-75210281D01*
X138460573Y-75210284D01*
X138460574Y-75210286D01*
X138506286Y-75300001D01*
X138511268Y-75309778D01*
X138511271Y-75309782D01*
X138590217Y-75388728D01*
X138590221Y-75388731D01*
X138590223Y-75388733D01*
X138689714Y-75439426D01*
X138689716Y-75439426D01*
X138689718Y-75439427D01*
X138799998Y-75456894D01*
X138800000Y-75456894D01*
X138800002Y-75456894D01*
X138910281Y-75439427D01*
X138910281Y-75439426D01*
X138910286Y-75439426D01*
X139009777Y-75388733D01*
X139088733Y-75309777D01*
X139139426Y-75210286D01*
X139139506Y-75209782D01*
X139156894Y-75100002D01*
X139156894Y-75099997D01*
X139139427Y-74989718D01*
X139139426Y-74989716D01*
X139139426Y-74989714D01*
X139088733Y-74890223D01*
X139088731Y-74890221D01*
X139088728Y-74890217D01*
X139009782Y-74811271D01*
X139009778Y-74811268D01*
X139009777Y-74811267D01*
X138910286Y-74760574D01*
X138910284Y-74760573D01*
X138910281Y-74760572D01*
X138800002Y-74743106D01*
X138799998Y-74743106D01*
X138689718Y-74760572D01*
X138590221Y-74811268D01*
X138590217Y-74811271D01*
X138511271Y-74890217D01*
X138511268Y-74890221D01*
X138460572Y-74989718D01*
X138443106Y-75099997D01*
X138443106Y-75100002D01*
X138141055Y-75100002D01*
X138142684Y-75089718D01*
X138156894Y-75000002D01*
X138156894Y-74999997D01*
X138139427Y-74889718D01*
X138139426Y-74889716D01*
X138139426Y-74889714D01*
X138088733Y-74790223D01*
X138088731Y-74790221D01*
X138088728Y-74790217D01*
X138009782Y-74711271D01*
X138009778Y-74711268D01*
X138009777Y-74711267D01*
X137910286Y-74660574D01*
X137910284Y-74660573D01*
X137910281Y-74660572D01*
X137800002Y-74643106D01*
X137799998Y-74643106D01*
X137689718Y-74660572D01*
X137590221Y-74711268D01*
X137590217Y-74711271D01*
X137511271Y-74790217D01*
X137511268Y-74790221D01*
X137460572Y-74889718D01*
X137443106Y-74999997D01*
X137443106Y-75000002D01*
X136093716Y-75000002D01*
X136088733Y-74990223D01*
X136088731Y-74990221D01*
X136088728Y-74990217D01*
X136009782Y-74911271D01*
X136009778Y-74911268D01*
X136009777Y-74911267D01*
X135910286Y-74860574D01*
X135910284Y-74860573D01*
X135910281Y-74860572D01*
X135800002Y-74843106D01*
X135799998Y-74843106D01*
X135689718Y-74860572D01*
X135590221Y-74911268D01*
X135590217Y-74911271D01*
X135511271Y-74990217D01*
X135511268Y-74990221D01*
X135460572Y-75089718D01*
X135443106Y-75199997D01*
X135443106Y-75200002D01*
X130941055Y-75200002D01*
X130947028Y-75162291D01*
X130956894Y-75100000D01*
X130946436Y-75033974D01*
X130939427Y-74989718D01*
X130939426Y-74989716D01*
X130939426Y-74989714D01*
X130888733Y-74890223D01*
X130888731Y-74890221D01*
X130888728Y-74890217D01*
X130809782Y-74811271D01*
X130809778Y-74811268D01*
X130809777Y-74811267D01*
X130710286Y-74760574D01*
X130710284Y-74760573D01*
X130710281Y-74760572D01*
X130600002Y-74743106D01*
X130599998Y-74743106D01*
X130489718Y-74760572D01*
X130390221Y-74811268D01*
X130390217Y-74811271D01*
X130311271Y-74890217D01*
X130311268Y-74890221D01*
X130260572Y-74989718D01*
X130243106Y-75099997D01*
X130243106Y-75100002D01*
X111888121Y-75100002D01*
X111860771Y-75033974D01*
X111776218Y-74923782D01*
X111666026Y-74839229D01*
X111666025Y-74839228D01*
X111666023Y-74839227D01*
X111537708Y-74786078D01*
X111537703Y-74786076D01*
X111400001Y-74767948D01*
X111399999Y-74767948D01*
X111262296Y-74786076D01*
X111262291Y-74786078D01*
X111133976Y-74839227D01*
X111023782Y-74923782D01*
X110939227Y-75033976D01*
X110886078Y-75162291D01*
X110886076Y-75162296D01*
X110867948Y-75299998D01*
X110867948Y-75300001D01*
X105500500Y-75300001D01*
X105500500Y-74430002D01*
X126713106Y-74430002D01*
X126730572Y-74540281D01*
X126730573Y-74540284D01*
X126730574Y-74540286D01*
X126781267Y-74639777D01*
X126781268Y-74639778D01*
X126781271Y-74639782D01*
X126860217Y-74718728D01*
X126860221Y-74718731D01*
X126860223Y-74718733D01*
X126959714Y-74769426D01*
X126959716Y-74769426D01*
X126959718Y-74769427D01*
X127069998Y-74786894D01*
X127070000Y-74786894D01*
X127070002Y-74786894D01*
X127180281Y-74769427D01*
X127180281Y-74769426D01*
X127180286Y-74769426D01*
X127279777Y-74718733D01*
X127358733Y-74639777D01*
X127409426Y-74540286D01*
X127426894Y-74430000D01*
X127409426Y-74319714D01*
X127409425Y-74319712D01*
X127406412Y-74310438D01*
X127409701Y-74309368D01*
X127400038Y-74257952D01*
X127426306Y-74193208D01*
X127483407Y-74152944D01*
X127542818Y-74147837D01*
X127600000Y-74156894D01*
X127600002Y-74156894D01*
X127710281Y-74139427D01*
X127710281Y-74139426D01*
X127710286Y-74139426D01*
X127787660Y-74100002D01*
X144443106Y-74100002D01*
X144460572Y-74210281D01*
X144460573Y-74210284D01*
X144460574Y-74210286D01*
X144484861Y-74257952D01*
X144511268Y-74309778D01*
X144511271Y-74309782D01*
X144590217Y-74388728D01*
X144590221Y-74388731D01*
X144590223Y-74388733D01*
X144689714Y-74439426D01*
X144689716Y-74439426D01*
X144689718Y-74439427D01*
X144799998Y-74456894D01*
X144800000Y-74456894D01*
X144800002Y-74456894D01*
X144910281Y-74439427D01*
X144910281Y-74439426D01*
X144910286Y-74439426D01*
X145009777Y-74388733D01*
X145088733Y-74309777D01*
X145139426Y-74210286D01*
X145147883Y-74156894D01*
X145156894Y-74100002D01*
X145156894Y-74099997D01*
X145139427Y-73989718D01*
X145139426Y-73989716D01*
X145139426Y-73989714D01*
X145088733Y-73890223D01*
X145088731Y-73890221D01*
X145088728Y-73890217D01*
X145009782Y-73811271D01*
X145009778Y-73811268D01*
X145009777Y-73811267D01*
X144910286Y-73760574D01*
X144910284Y-73760573D01*
X144910281Y-73760572D01*
X144800002Y-73743106D01*
X144799998Y-73743106D01*
X144689718Y-73760572D01*
X144590221Y-73811268D01*
X144590217Y-73811271D01*
X144511271Y-73890217D01*
X144511268Y-73890221D01*
X144460572Y-73989718D01*
X144443106Y-74099997D01*
X144443106Y-74100002D01*
X127787660Y-74100002D01*
X127809777Y-74088733D01*
X127888733Y-74009777D01*
X127939426Y-73910286D01*
X127956894Y-73800000D01*
X127939426Y-73689714D01*
X127888733Y-73590223D01*
X127888731Y-73590221D01*
X127888728Y-73590217D01*
X127809782Y-73511271D01*
X127809778Y-73511268D01*
X127809777Y-73511267D01*
X127710286Y-73460574D01*
X127710284Y-73460573D01*
X127710281Y-73460572D01*
X127600002Y-73443106D01*
X127599998Y-73443106D01*
X127489718Y-73460572D01*
X127390221Y-73511268D01*
X127390217Y-73511271D01*
X127311271Y-73590217D01*
X127311268Y-73590221D01*
X127260572Y-73689718D01*
X127243106Y-73799997D01*
X127243106Y-73800002D01*
X127260573Y-73910284D01*
X127263588Y-73919562D01*
X127260300Y-73920630D01*
X127269958Y-73972073D01*
X127243676Y-74036812D01*
X127186567Y-74077064D01*
X127127180Y-74082162D01*
X127070002Y-74073106D01*
X127069998Y-74073106D01*
X126959718Y-74090572D01*
X126860221Y-74141268D01*
X126860217Y-74141271D01*
X126781271Y-74220217D01*
X126781268Y-74220221D01*
X126730572Y-74319718D01*
X126713106Y-74429997D01*
X126713106Y-74430002D01*
X105500500Y-74430002D01*
X105500500Y-73300002D01*
X134443106Y-73300002D01*
X134460572Y-73410281D01*
X134460573Y-73410284D01*
X134460574Y-73410286D01*
X134477297Y-73443106D01*
X134511268Y-73509778D01*
X134511271Y-73509782D01*
X134590217Y-73588728D01*
X134590221Y-73588731D01*
X134590223Y-73588733D01*
X134689714Y-73639426D01*
X134689716Y-73639426D01*
X134689718Y-73639427D01*
X134799998Y-73656894D01*
X134800000Y-73656894D01*
X134800002Y-73656894D01*
X134910281Y-73639427D01*
X134910281Y-73639426D01*
X134910286Y-73639426D01*
X135009777Y-73588733D01*
X135088733Y-73509777D01*
X135139426Y-73410286D01*
X135156894Y-73300000D01*
X135139426Y-73189714D01*
X135088733Y-73090223D01*
X135088731Y-73090221D01*
X135088728Y-73090217D01*
X135009782Y-73011271D01*
X135009778Y-73011268D01*
X135009777Y-73011267D01*
X134910286Y-72960574D01*
X134910284Y-72960573D01*
X134910281Y-72960572D01*
X134800002Y-72943106D01*
X134799998Y-72943106D01*
X134689718Y-72960572D01*
X134590221Y-73011268D01*
X134590217Y-73011271D01*
X134511271Y-73090217D01*
X134511268Y-73090221D01*
X134460572Y-73189718D01*
X134443106Y-73299997D01*
X134443106Y-73300002D01*
X105500500Y-73300002D01*
X105500500Y-72300002D01*
X115543106Y-72300002D01*
X115560572Y-72410281D01*
X115560573Y-72410284D01*
X115560574Y-72410286D01*
X115611267Y-72509777D01*
X115611268Y-72509778D01*
X115611271Y-72509782D01*
X115690217Y-72588728D01*
X115690221Y-72588731D01*
X115690223Y-72588733D01*
X115789714Y-72639426D01*
X115789716Y-72639426D01*
X115789718Y-72639427D01*
X115899998Y-72656894D01*
X115900000Y-72656894D01*
X115900002Y-72656894D01*
X116010281Y-72639427D01*
X116010281Y-72639426D01*
X116010286Y-72639426D01*
X116109777Y-72588733D01*
X116188733Y-72509777D01*
X116193714Y-72500002D01*
X127343106Y-72500002D01*
X127360572Y-72610281D01*
X127360573Y-72610284D01*
X127360574Y-72610286D01*
X127411267Y-72709777D01*
X127411268Y-72709778D01*
X127411271Y-72709782D01*
X127490217Y-72788728D01*
X127490221Y-72788731D01*
X127490223Y-72788733D01*
X127589714Y-72839426D01*
X127589716Y-72839426D01*
X127589718Y-72839427D01*
X127699998Y-72856894D01*
X127700000Y-72856894D01*
X127700002Y-72856894D01*
X127810281Y-72839427D01*
X127810281Y-72839426D01*
X127810286Y-72839426D01*
X127909777Y-72788733D01*
X127988733Y-72709777D01*
X128039426Y-72610286D01*
X128056894Y-72500000D01*
X128046501Y-72434383D01*
X128039427Y-72389718D01*
X128039426Y-72389716D01*
X128039426Y-72389714D01*
X127993716Y-72300002D01*
X131643106Y-72300002D01*
X131660572Y-72410281D01*
X131660573Y-72410284D01*
X131660574Y-72410286D01*
X131711267Y-72509777D01*
X131711268Y-72509778D01*
X131711271Y-72509782D01*
X131790217Y-72588728D01*
X131790221Y-72588731D01*
X131790223Y-72588733D01*
X131889714Y-72639426D01*
X131889716Y-72639426D01*
X131889718Y-72639427D01*
X131960057Y-72650567D01*
X132000000Y-72656894D01*
X132001461Y-72656662D01*
X132003253Y-72656894D01*
X132009759Y-72656894D01*
X132009759Y-72657734D01*
X132070751Y-72665611D01*
X132124207Y-72710603D01*
X132144852Y-72777353D01*
X132143339Y-72798528D01*
X132143106Y-72800000D01*
X132143106Y-72800001D01*
X132143106Y-72800002D01*
X132160572Y-72910281D01*
X132160573Y-72910284D01*
X132160574Y-72910286D01*
X132177297Y-72943106D01*
X132211268Y-73009778D01*
X132211271Y-73009782D01*
X132290217Y-73088728D01*
X132290221Y-73088731D01*
X132290223Y-73088733D01*
X132389714Y-73139426D01*
X132389716Y-73139426D01*
X132389718Y-73139427D01*
X132499998Y-73156894D01*
X132500000Y-73156894D01*
X132500002Y-73156894D01*
X132610281Y-73139427D01*
X132610281Y-73139426D01*
X132610286Y-73139426D01*
X132709777Y-73088733D01*
X132788733Y-73009777D01*
X132839426Y-72910286D01*
X132856894Y-72800000D01*
X132839426Y-72689714D01*
X132788733Y-72590223D01*
X132788731Y-72590221D01*
X132788728Y-72590217D01*
X132709782Y-72511271D01*
X132709778Y-72511268D01*
X132709777Y-72511267D01*
X132610286Y-72460574D01*
X132610284Y-72460573D01*
X132610281Y-72460572D01*
X132500002Y-72443106D01*
X132500001Y-72443106D01*
X132500000Y-72443106D01*
X132498529Y-72443338D01*
X132496727Y-72443106D01*
X132490241Y-72443106D01*
X132490241Y-72442267D01*
X132429237Y-72434383D01*
X132375785Y-72389386D01*
X132355147Y-72322634D01*
X132356660Y-72301471D01*
X132356894Y-72300000D01*
X132354923Y-72287558D01*
X148922500Y-72287558D01*
X148929898Y-72324749D01*
X148958077Y-72366922D01*
X149000250Y-72395101D01*
X149000252Y-72395102D01*
X149028205Y-72400662D01*
X149037441Y-72402500D01*
X149037442Y-72402500D01*
X150762559Y-72402500D01*
X150769957Y-72401028D01*
X150799748Y-72395102D01*
X150841922Y-72366922D01*
X150870102Y-72324748D01*
X150877500Y-72287558D01*
X150877500Y-70562442D01*
X150877128Y-70560574D01*
X150874087Y-70545286D01*
X150870102Y-70525252D01*
X150870101Y-70525250D01*
X150841922Y-70483077D01*
X150799749Y-70454898D01*
X150762559Y-70447500D01*
X150762558Y-70447500D01*
X149037442Y-70447500D01*
X149037441Y-70447500D01*
X149000250Y-70454898D01*
X148958077Y-70483077D01*
X148929898Y-70525250D01*
X148922500Y-70562441D01*
X148922500Y-72287558D01*
X132354923Y-72287558D01*
X132350567Y-72260057D01*
X132339427Y-72189718D01*
X132339426Y-72189716D01*
X132339426Y-72189714D01*
X132288733Y-72090223D01*
X132288731Y-72090221D01*
X132288728Y-72090217D01*
X132209782Y-72011271D01*
X132209778Y-72011268D01*
X132209777Y-72011267D01*
X132110286Y-71960574D01*
X132110284Y-71960573D01*
X132110281Y-71960572D01*
X132000002Y-71943106D01*
X131999998Y-71943106D01*
X131889718Y-71960572D01*
X131790221Y-72011268D01*
X131790217Y-72011271D01*
X131711271Y-72090217D01*
X131711268Y-72090221D01*
X131660572Y-72189718D01*
X131643106Y-72299997D01*
X131643106Y-72300002D01*
X127993716Y-72300002D01*
X127988733Y-72290223D01*
X127988731Y-72290221D01*
X127988728Y-72290217D01*
X127909782Y-72211271D01*
X127909778Y-72211268D01*
X127909777Y-72211267D01*
X127810286Y-72160574D01*
X127810284Y-72160573D01*
X127810281Y-72160572D01*
X127700002Y-72143106D01*
X127699998Y-72143106D01*
X127589718Y-72160572D01*
X127490221Y-72211268D01*
X127490217Y-72211271D01*
X127411271Y-72290217D01*
X127411268Y-72290221D01*
X127360572Y-72389718D01*
X127343106Y-72499997D01*
X127343106Y-72500002D01*
X116193714Y-72500002D01*
X116239426Y-72410286D01*
X116256894Y-72300000D01*
X116246608Y-72235058D01*
X116239427Y-72189718D01*
X116239426Y-72189716D01*
X116239426Y-72189714D01*
X116188733Y-72090223D01*
X116188731Y-72090221D01*
X116188728Y-72090217D01*
X116109782Y-72011271D01*
X116109778Y-72011268D01*
X116109777Y-72011267D01*
X116010286Y-71960574D01*
X116010284Y-71960573D01*
X116010281Y-71960572D01*
X115900002Y-71943106D01*
X115899998Y-71943106D01*
X115789718Y-71960572D01*
X115690221Y-72011268D01*
X115690217Y-72011271D01*
X115611271Y-72090217D01*
X115611268Y-72090221D01*
X115560572Y-72189718D01*
X115543106Y-72299997D01*
X115543106Y-72300002D01*
X105500500Y-72300002D01*
X105500500Y-71524301D01*
X111870896Y-71524301D01*
X111885800Y-71596023D01*
X111900286Y-71665736D01*
X111900287Y-71665738D01*
X111966745Y-71793995D01*
X111966749Y-71794001D01*
X112055218Y-71888728D01*
X112065345Y-71899571D01*
X112188772Y-71974628D01*
X112327872Y-72013602D01*
X112327873Y-72013602D01*
X112436050Y-72013602D01*
X112453037Y-72011267D01*
X112543211Y-71998873D01*
X112675709Y-71941321D01*
X112787765Y-71850156D01*
X112871071Y-71732139D01*
X112875384Y-71720002D01*
X130333106Y-71720002D01*
X130350572Y-71830281D01*
X130350573Y-71830284D01*
X130350574Y-71830286D01*
X130401267Y-71929777D01*
X130401268Y-71929778D01*
X130401271Y-71929782D01*
X130480217Y-72008728D01*
X130480221Y-72008731D01*
X130480223Y-72008733D01*
X130579714Y-72059426D01*
X130579716Y-72059426D01*
X130579718Y-72059427D01*
X130689998Y-72076894D01*
X130690000Y-72076894D01*
X130690002Y-72076894D01*
X130800281Y-72059427D01*
X130800281Y-72059426D01*
X130800286Y-72059426D01*
X130899777Y-72008733D01*
X130978733Y-71929777D01*
X131029426Y-71830286D01*
X131046894Y-71720000D01*
X131029437Y-71609782D01*
X131029427Y-71609718D01*
X131029426Y-71609716D01*
X131029426Y-71609714D01*
X131024478Y-71600002D01*
X132643106Y-71600002D01*
X132660572Y-71710281D01*
X132660573Y-71710284D01*
X132660574Y-71710286D01*
X132684322Y-71756894D01*
X132711268Y-71809778D01*
X132711271Y-71809782D01*
X132790217Y-71888728D01*
X132790221Y-71888731D01*
X132790223Y-71888733D01*
X132889714Y-71939426D01*
X132889716Y-71939426D01*
X132889718Y-71939427D01*
X132999998Y-71956894D01*
X133000000Y-71956894D01*
X133000002Y-71956894D01*
X133110281Y-71939427D01*
X133110281Y-71939426D01*
X133110286Y-71939426D01*
X133209777Y-71888733D01*
X133288733Y-71809777D01*
X133339426Y-71710286D01*
X133356894Y-71600000D01*
X133344904Y-71524298D01*
X133339427Y-71489718D01*
X133339426Y-71489716D01*
X133339426Y-71489714D01*
X133306771Y-71425625D01*
X133301959Y-71400002D01*
X143843106Y-71400002D01*
X143860572Y-71510281D01*
X143860573Y-71510284D01*
X143860574Y-71510286D01*
X143911235Y-71609714D01*
X143911268Y-71609778D01*
X143911271Y-71609782D01*
X143990217Y-71688728D01*
X143990221Y-71688731D01*
X143990223Y-71688733D01*
X144089714Y-71739426D01*
X144089716Y-71739426D01*
X144089718Y-71739427D01*
X144199998Y-71756894D01*
X144200000Y-71756894D01*
X144200002Y-71756894D01*
X144310281Y-71739427D01*
X144310281Y-71739426D01*
X144310286Y-71739426D01*
X144409777Y-71688733D01*
X144488733Y-71609777D01*
X144539426Y-71510286D01*
X144539436Y-71510223D01*
X144556894Y-71400002D01*
X144556894Y-71399997D01*
X144539427Y-71289718D01*
X144539426Y-71289716D01*
X144539426Y-71289714D01*
X144488733Y-71190223D01*
X144488731Y-71190221D01*
X144488728Y-71190217D01*
X144409782Y-71111271D01*
X144409778Y-71111268D01*
X144409777Y-71111267D01*
X144310286Y-71060574D01*
X144310284Y-71060573D01*
X144310281Y-71060572D01*
X144200002Y-71043106D01*
X144199998Y-71043106D01*
X144089718Y-71060572D01*
X143990221Y-71111268D01*
X143990217Y-71111271D01*
X143911271Y-71190217D01*
X143911268Y-71190221D01*
X143860572Y-71289718D01*
X143843106Y-71399997D01*
X143843106Y-71400002D01*
X133301959Y-71400002D01*
X133293876Y-71356960D01*
X133320152Y-71292219D01*
X133377259Y-71251962D01*
X133436656Y-71246861D01*
X133453730Y-71249565D01*
X133499999Y-71256894D01*
X133500000Y-71256894D01*
X133500002Y-71256894D01*
X133610281Y-71239427D01*
X133610281Y-71239426D01*
X133610286Y-71239426D01*
X133709777Y-71188733D01*
X133788733Y-71109777D01*
X133839426Y-71010286D01*
X133840806Y-71001577D01*
X133844646Y-70977331D01*
X133856894Y-70900000D01*
X133839426Y-70789714D01*
X133788733Y-70690223D01*
X133788731Y-70690221D01*
X133788728Y-70690217D01*
X133709782Y-70611271D01*
X133709778Y-70611268D01*
X133709777Y-70611267D01*
X133610286Y-70560574D01*
X133610284Y-70560573D01*
X133610281Y-70560572D01*
X133500002Y-70543106D01*
X133499998Y-70543106D01*
X133389718Y-70560572D01*
X133290221Y-70611268D01*
X133290217Y-70611271D01*
X133211271Y-70690217D01*
X133211268Y-70690221D01*
X133160572Y-70789718D01*
X133143106Y-70899997D01*
X133143106Y-70900002D01*
X133160572Y-71010281D01*
X133160573Y-71010284D01*
X133160574Y-71010286D01*
X133193227Y-71074372D01*
X133206123Y-71143040D01*
X133179846Y-71207780D01*
X133122740Y-71248037D01*
X133063345Y-71253138D01*
X133000003Y-71243106D01*
X132999998Y-71243106D01*
X132889718Y-71260572D01*
X132790221Y-71311268D01*
X132790217Y-71311271D01*
X132711271Y-71390217D01*
X132711268Y-71390221D01*
X132660572Y-71489718D01*
X132643106Y-71599997D01*
X132643106Y-71600002D01*
X131024478Y-71600002D01*
X130978733Y-71510223D01*
X130978731Y-71510221D01*
X130978728Y-71510217D01*
X130899782Y-71431271D01*
X130899778Y-71431268D01*
X130899777Y-71431267D01*
X130800286Y-71380574D01*
X130800284Y-71380573D01*
X130800281Y-71380572D01*
X130690002Y-71363106D01*
X130689998Y-71363106D01*
X130579718Y-71380572D01*
X130579714Y-71380573D01*
X130579714Y-71380574D01*
X130560781Y-71390221D01*
X130480221Y-71431268D01*
X130480217Y-71431271D01*
X130401271Y-71510217D01*
X130401268Y-71510221D01*
X130401266Y-71510223D01*
X130401267Y-71510223D01*
X130355523Y-71600002D01*
X130350572Y-71609718D01*
X130333106Y-71719997D01*
X130333106Y-71720002D01*
X112875384Y-71720002D01*
X112914579Y-71609718D01*
X112919445Y-71596027D01*
X112919445Y-71596025D01*
X112919446Y-71596023D01*
X112929304Y-71451903D01*
X112899914Y-71310468D01*
X112833454Y-71182207D01*
X112833451Y-71182204D01*
X112833450Y-71182202D01*
X112734854Y-71076632D01*
X112611430Y-71001577D01*
X112611429Y-71001576D01*
X112611428Y-71001576D01*
X112472328Y-70962602D01*
X112364151Y-70962602D01*
X112364150Y-70962602D01*
X112256989Y-70977331D01*
X112124489Y-71034883D01*
X112124489Y-71034884D01*
X112012438Y-71126045D01*
X112012433Y-71126050D01*
X111929128Y-71244065D01*
X111880754Y-71380176D01*
X111880754Y-71380179D01*
X111871855Y-71510286D01*
X111870896Y-71524301D01*
X105500500Y-71524301D01*
X105500499Y-69800002D01*
X139543106Y-69800002D01*
X139560572Y-69910281D01*
X139560573Y-69910282D01*
X139560574Y-69910286D01*
X139611267Y-70009777D01*
X139611268Y-70009778D01*
X139611271Y-70009782D01*
X139690217Y-70088728D01*
X139690221Y-70088731D01*
X139690223Y-70088733D01*
X139789714Y-70139426D01*
X139789716Y-70139426D01*
X139789718Y-70139427D01*
X139851236Y-70149170D01*
X139897249Y-70156458D01*
X139960384Y-70186387D01*
X139997316Y-70245698D01*
X139996318Y-70315561D01*
X139988337Y-70335225D01*
X139960572Y-70389716D01*
X139943106Y-70499997D01*
X139943106Y-70500002D01*
X139960572Y-70610281D01*
X139960573Y-70610284D01*
X139960574Y-70610286D01*
X140001301Y-70690217D01*
X140011268Y-70709778D01*
X140011271Y-70709782D01*
X140090217Y-70788728D01*
X140090221Y-70788731D01*
X140090223Y-70788733D01*
X140189714Y-70839426D01*
X140189716Y-70839426D01*
X140189718Y-70839427D01*
X140299998Y-70856894D01*
X140300000Y-70856894D01*
X140300002Y-70856894D01*
X140410281Y-70839427D01*
X140410281Y-70839426D01*
X140410286Y-70839426D01*
X140509777Y-70788733D01*
X140509783Y-70788726D01*
X140514918Y-70784997D01*
X140580724Y-70761516D01*
X140648778Y-70777340D01*
X140697474Y-70827445D01*
X140711350Y-70895923D01*
X140710279Y-70904711D01*
X140703107Y-70949997D01*
X140703106Y-70950002D01*
X140720572Y-71060281D01*
X140720573Y-71060284D01*
X140720574Y-71060286D01*
X140771267Y-71159777D01*
X140771268Y-71159778D01*
X140771271Y-71159782D01*
X140850217Y-71238728D01*
X140850221Y-71238731D01*
X140850223Y-71238733D01*
X140949714Y-71289426D01*
X140949716Y-71289426D01*
X140949718Y-71289427D01*
X141059998Y-71306894D01*
X141060000Y-71306894D01*
X141060002Y-71306894D01*
X141170281Y-71289427D01*
X141170281Y-71289426D01*
X141170286Y-71289426D01*
X141269777Y-71238733D01*
X141348733Y-71159777D01*
X141399426Y-71060286D01*
X141402147Y-71043106D01*
X141416894Y-70950002D01*
X141416894Y-70949997D01*
X141399427Y-70839718D01*
X141399426Y-70839716D01*
X141399426Y-70839714D01*
X141348733Y-70740223D01*
X141348731Y-70740221D01*
X141348728Y-70740217D01*
X141269782Y-70661271D01*
X141269778Y-70661268D01*
X141269777Y-70661267D01*
X141170286Y-70610574D01*
X141170284Y-70610573D01*
X141170281Y-70610572D01*
X141060002Y-70593106D01*
X141059998Y-70593106D01*
X140949718Y-70610572D01*
X140850215Y-70661271D01*
X140845072Y-70665008D01*
X140779264Y-70688483D01*
X140711212Y-70672653D01*
X140662520Y-70622544D01*
X140648650Y-70554065D01*
X140649721Y-70545286D01*
X140650067Y-70543106D01*
X140656894Y-70500000D01*
X140649750Y-70454898D01*
X140639427Y-70389718D01*
X140639426Y-70389716D01*
X140639426Y-70389714D01*
X140588733Y-70290223D01*
X140588731Y-70290221D01*
X140588728Y-70290217D01*
X140509782Y-70211271D01*
X140509778Y-70211268D01*
X140509777Y-70211267D01*
X140410286Y-70160574D01*
X140410284Y-70160573D01*
X140410281Y-70160572D01*
X140302749Y-70143541D01*
X140239614Y-70113612D01*
X140202683Y-70054300D01*
X140203681Y-69984438D01*
X140211658Y-69964782D01*
X140239426Y-69910286D01*
X140256894Y-69800002D01*
X140643106Y-69800002D01*
X140660572Y-69910281D01*
X140660573Y-69910282D01*
X140660574Y-69910286D01*
X140711267Y-70009777D01*
X140711268Y-70009778D01*
X140711271Y-70009782D01*
X140790217Y-70088728D01*
X140790221Y-70088731D01*
X140790223Y-70088733D01*
X140889714Y-70139426D01*
X140889716Y-70139426D01*
X140889718Y-70139427D01*
X140999998Y-70156894D01*
X141000000Y-70156894D01*
X141000002Y-70156894D01*
X141110281Y-70139427D01*
X141110281Y-70139426D01*
X141110286Y-70139426D01*
X141209777Y-70088733D01*
X141288733Y-70009777D01*
X141339426Y-69910286D01*
X141356894Y-69800000D01*
X141355700Y-69792462D01*
X141339427Y-69689718D01*
X141339426Y-69689716D01*
X141339426Y-69689714D01*
X141288733Y-69590223D01*
X141288731Y-69590221D01*
X141288728Y-69590217D01*
X141209782Y-69511271D01*
X141209778Y-69511268D01*
X141209777Y-69511267D01*
X141110286Y-69460574D01*
X141110284Y-69460573D01*
X141110281Y-69460572D01*
X141000002Y-69443106D01*
X140999998Y-69443106D01*
X140889718Y-69460572D01*
X140790221Y-69511268D01*
X140790217Y-69511271D01*
X140711271Y-69590217D01*
X140711268Y-69590221D01*
X140660572Y-69689718D01*
X140643106Y-69799997D01*
X140643106Y-69800002D01*
X140256894Y-69800002D01*
X140256894Y-69800000D01*
X140255700Y-69792462D01*
X140239427Y-69689718D01*
X140239426Y-69689716D01*
X140239426Y-69689714D01*
X140188733Y-69590223D01*
X140188731Y-69590221D01*
X140188728Y-69590217D01*
X140133040Y-69534529D01*
X140099555Y-69473206D01*
X140104539Y-69403514D01*
X140146411Y-69347581D01*
X140154708Y-69342415D01*
X140159770Y-69338736D01*
X140159777Y-69338733D01*
X140238733Y-69259777D01*
X140289426Y-69160286D01*
X140292730Y-69139426D01*
X140306894Y-69050002D01*
X140306894Y-69049997D01*
X140289427Y-68939718D01*
X140289426Y-68939716D01*
X140289426Y-68939714D01*
X140238733Y-68840223D01*
X140238731Y-68840221D01*
X140238728Y-68840217D01*
X140198513Y-68800002D01*
X144743106Y-68800002D01*
X144760572Y-68910281D01*
X144760573Y-68910284D01*
X144760574Y-68910286D01*
X144811267Y-69009777D01*
X144811268Y-69009778D01*
X144811271Y-69009782D01*
X144890217Y-69088728D01*
X144890221Y-69088731D01*
X144890223Y-69088733D01*
X144989714Y-69139426D01*
X144989716Y-69139426D01*
X144989718Y-69139427D01*
X145099998Y-69156894D01*
X145100000Y-69156894D01*
X145100002Y-69156894D01*
X145210281Y-69139427D01*
X145210281Y-69139426D01*
X145210286Y-69139426D01*
X145309777Y-69088733D01*
X145388733Y-69009777D01*
X145439426Y-68910286D01*
X145442684Y-68889718D01*
X145443431Y-68885000D01*
X148917770Y-68885000D01*
X148936643Y-69076626D01*
X148992538Y-69260884D01*
X149083302Y-69430692D01*
X149083306Y-69430699D01*
X149205458Y-69579541D01*
X149354300Y-69701693D01*
X149354307Y-69701697D01*
X149524115Y-69792461D01*
X149524117Y-69792462D01*
X149708376Y-69848357D01*
X149900000Y-69867230D01*
X150091624Y-69848357D01*
X150275883Y-69792462D01*
X150445698Y-69701694D01*
X150594541Y-69579541D01*
X150716694Y-69430698D01*
X150807462Y-69260883D01*
X150863357Y-69076624D01*
X150882230Y-68885000D01*
X150863357Y-68693376D01*
X150807462Y-68509117D01*
X150781514Y-68460572D01*
X150716697Y-68339307D01*
X150716693Y-68339300D01*
X150594541Y-68190458D01*
X150445699Y-68068306D01*
X150445692Y-68068302D01*
X150275884Y-67977538D01*
X150091626Y-67921643D01*
X149900000Y-67902770D01*
X149708373Y-67921643D01*
X149524115Y-67977538D01*
X149354307Y-68068302D01*
X149354300Y-68068306D01*
X149205458Y-68190458D01*
X149083306Y-68339300D01*
X149083302Y-68339307D01*
X148992538Y-68509115D01*
X148936643Y-68693373D01*
X148917770Y-68885000D01*
X145443431Y-68885000D01*
X145456894Y-68800002D01*
X145456894Y-68799997D01*
X145439427Y-68689718D01*
X145439426Y-68689716D01*
X145439426Y-68689714D01*
X145388733Y-68590223D01*
X145388731Y-68590221D01*
X145388728Y-68590217D01*
X145309782Y-68511271D01*
X145309778Y-68511268D01*
X145309777Y-68511267D01*
X145210286Y-68460574D01*
X145210284Y-68460573D01*
X145210281Y-68460572D01*
X145100002Y-68443106D01*
X145099998Y-68443106D01*
X144989718Y-68460572D01*
X144890221Y-68511268D01*
X144890217Y-68511271D01*
X144811271Y-68590217D01*
X144811268Y-68590221D01*
X144760572Y-68689718D01*
X144743106Y-68799997D01*
X144743106Y-68800002D01*
X140198513Y-68800002D01*
X140159782Y-68761271D01*
X140159778Y-68761268D01*
X140159777Y-68761267D01*
X140060286Y-68710574D01*
X140060284Y-68710573D01*
X140060281Y-68710572D01*
X139950002Y-68693106D01*
X139949998Y-68693106D01*
X139839718Y-68710572D01*
X139740221Y-68761268D01*
X139740217Y-68761271D01*
X139661271Y-68840217D01*
X139661268Y-68840221D01*
X139610572Y-68939718D01*
X139593106Y-69049997D01*
X139593106Y-69050002D01*
X139610572Y-69160281D01*
X139610573Y-69160284D01*
X139610574Y-69160286D01*
X139661267Y-69259777D01*
X139661268Y-69259778D01*
X139661271Y-69259782D01*
X139716959Y-69315470D01*
X139750444Y-69376793D01*
X139745460Y-69446485D01*
X139703588Y-69502418D01*
X139695291Y-69507585D01*
X139690217Y-69511271D01*
X139611271Y-69590217D01*
X139611268Y-69590221D01*
X139560572Y-69689718D01*
X139543106Y-69799997D01*
X139543106Y-69800002D01*
X105500499Y-69800002D01*
X105500499Y-69000002D01*
X127643106Y-69000002D01*
X127660572Y-69110281D01*
X127660573Y-69110284D01*
X127660574Y-69110286D01*
X127711267Y-69209777D01*
X127711268Y-69209778D01*
X127711271Y-69209782D01*
X127790217Y-69288728D01*
X127790221Y-69288731D01*
X127790223Y-69288733D01*
X127889714Y-69339426D01*
X127889716Y-69339426D01*
X127889718Y-69339427D01*
X127999998Y-69356894D01*
X128000000Y-69356894D01*
X128000002Y-69356894D01*
X128110281Y-69339427D01*
X128110281Y-69339426D01*
X128110286Y-69339426D01*
X128209777Y-69288733D01*
X128288733Y-69209777D01*
X128339426Y-69110286D01*
X128341055Y-69100002D01*
X132543106Y-69100002D01*
X132560572Y-69210281D01*
X132560573Y-69210284D01*
X132560574Y-69210286D01*
X132600544Y-69288731D01*
X132611268Y-69309778D01*
X132611271Y-69309782D01*
X132690217Y-69388728D01*
X132690221Y-69388731D01*
X132690223Y-69388733D01*
X132789714Y-69439426D01*
X132789716Y-69439426D01*
X132789718Y-69439427D01*
X132899998Y-69456894D01*
X132900000Y-69456894D01*
X132900002Y-69456894D01*
X133010281Y-69439427D01*
X133010281Y-69439426D01*
X133010286Y-69439426D01*
X133109777Y-69388733D01*
X133188733Y-69309777D01*
X133239426Y-69210286D01*
X133239507Y-69209778D01*
X133247346Y-69160281D01*
X133256894Y-69100000D01*
X133242604Y-69009777D01*
X133239427Y-68989718D01*
X133239426Y-68989716D01*
X133239426Y-68989714D01*
X133188733Y-68890223D01*
X133188731Y-68890221D01*
X133188728Y-68890217D01*
X133109782Y-68811271D01*
X133109778Y-68811268D01*
X133109777Y-68811267D01*
X133010286Y-68760574D01*
X133010284Y-68760573D01*
X133010281Y-68760572D01*
X132900002Y-68743106D01*
X132899998Y-68743106D01*
X132789718Y-68760572D01*
X132690221Y-68811268D01*
X132690217Y-68811271D01*
X132611271Y-68890217D01*
X132611268Y-68890221D01*
X132560572Y-68989718D01*
X132543106Y-69099997D01*
X132543106Y-69100002D01*
X128341055Y-69100002D01*
X128356894Y-69000000D01*
X128346608Y-68935058D01*
X128339427Y-68889718D01*
X128339426Y-68889716D01*
X128339426Y-68889714D01*
X128288733Y-68790223D01*
X128288731Y-68790221D01*
X128288728Y-68790217D01*
X128209782Y-68711271D01*
X128209778Y-68711268D01*
X128209777Y-68711267D01*
X128110286Y-68660574D01*
X128110284Y-68660573D01*
X128110281Y-68660572D01*
X128000002Y-68643106D01*
X127999998Y-68643106D01*
X127889718Y-68660572D01*
X127790221Y-68711268D01*
X127790217Y-68711271D01*
X127711271Y-68790217D01*
X127711268Y-68790221D01*
X127660572Y-68889718D01*
X127643106Y-68999997D01*
X127643106Y-69000002D01*
X105500499Y-69000002D01*
X105500499Y-66700002D01*
X123543106Y-66700002D01*
X123560572Y-66810281D01*
X123560573Y-66810284D01*
X123560574Y-66810286D01*
X123610204Y-66907690D01*
X123611268Y-66909778D01*
X123611271Y-66909782D01*
X123690217Y-66988728D01*
X123690221Y-66988731D01*
X123690223Y-66988733D01*
X123789714Y-67039426D01*
X123789716Y-67039426D01*
X123789718Y-67039427D01*
X123899998Y-67056894D01*
X123900000Y-67056894D01*
X123900002Y-67056894D01*
X124010281Y-67039427D01*
X124010281Y-67039426D01*
X124010286Y-67039426D01*
X124109777Y-66988733D01*
X124162320Y-66936189D01*
X124223641Y-66902706D01*
X124293333Y-66907690D01*
X124337679Y-66936189D01*
X124390223Y-66988733D01*
X124489714Y-67039426D01*
X124489716Y-67039426D01*
X124489718Y-67039427D01*
X124599998Y-67056894D01*
X124600000Y-67056894D01*
X124600002Y-67056894D01*
X124710281Y-67039427D01*
X124710281Y-67039426D01*
X124710286Y-67039426D01*
X124809777Y-66988733D01*
X124888733Y-66909777D01*
X124939426Y-66810286D01*
X124956894Y-66700000D01*
X124939426Y-66589714D01*
X124888733Y-66490223D01*
X124888731Y-66490221D01*
X124888728Y-66490217D01*
X124809782Y-66411271D01*
X124809778Y-66411268D01*
X124809777Y-66411267D01*
X124710286Y-66360574D01*
X124710284Y-66360573D01*
X124710281Y-66360572D01*
X124600002Y-66343106D01*
X124599998Y-66343106D01*
X124489718Y-66360572D01*
X124390221Y-66411268D01*
X124390217Y-66411271D01*
X124337681Y-66463808D01*
X124276358Y-66497293D01*
X124206666Y-66492309D01*
X124162319Y-66463808D01*
X124109782Y-66411271D01*
X124109778Y-66411268D01*
X124109777Y-66411267D01*
X124010286Y-66360574D01*
X124010284Y-66360573D01*
X124010281Y-66360572D01*
X123900002Y-66343106D01*
X123899998Y-66343106D01*
X123789718Y-66360572D01*
X123690221Y-66411268D01*
X123690217Y-66411271D01*
X123611271Y-66490217D01*
X123611268Y-66490221D01*
X123560572Y-66589718D01*
X123543106Y-66699997D01*
X123543106Y-66700002D01*
X105500499Y-66700002D01*
X105500499Y-65744301D01*
X111870896Y-65744301D01*
X111900286Y-65885736D01*
X111965333Y-66011271D01*
X111966745Y-66013995D01*
X111966749Y-66014001D01*
X112037398Y-66089647D01*
X112065345Y-66119571D01*
X112188772Y-66194628D01*
X112327872Y-66233602D01*
X112327873Y-66233602D01*
X112436050Y-66233602D01*
X112447602Y-66232013D01*
X112543211Y-66218873D01*
X112675709Y-66161321D01*
X112787765Y-66070156D01*
X112871071Y-65952139D01*
X112914028Y-65831268D01*
X112919445Y-65816027D01*
X112919445Y-65816025D01*
X112919446Y-65816023D01*
X112929304Y-65671903D01*
X112899914Y-65530468D01*
X112833454Y-65402207D01*
X112833451Y-65402204D01*
X112833450Y-65402202D01*
X112734854Y-65296632D01*
X112611430Y-65221577D01*
X112611429Y-65221576D01*
X112611428Y-65221576D01*
X112472328Y-65182602D01*
X112364151Y-65182602D01*
X112364150Y-65182602D01*
X112256989Y-65197331D01*
X112124489Y-65254883D01*
X112124489Y-65254884D01*
X112012438Y-65346045D01*
X112012433Y-65346050D01*
X111929128Y-65464065D01*
X111880754Y-65600176D01*
X111880754Y-65600179D01*
X111879438Y-65619427D01*
X111870896Y-65744301D01*
X105500499Y-65744301D01*
X105500499Y-63470002D01*
X126303106Y-63470002D01*
X126320572Y-63580281D01*
X126320573Y-63580284D01*
X126320574Y-63580286D01*
X126371267Y-63679777D01*
X126396181Y-63704691D01*
X126429666Y-63766012D01*
X126432500Y-63792372D01*
X126432500Y-64922435D01*
X126432415Y-64925680D01*
X126430282Y-64966382D01*
X126430283Y-64966389D01*
X126437698Y-64985707D01*
X126443223Y-65004357D01*
X126447526Y-65024601D01*
X126448750Y-65026285D01*
X126464192Y-65054726D01*
X126464938Y-65056669D01*
X126464940Y-65056673D01*
X126464942Y-65056675D01*
X126479568Y-65071301D01*
X126492206Y-65086097D01*
X126504372Y-65102842D01*
X126506172Y-65103881D01*
X126531856Y-65123589D01*
X127457999Y-66049733D01*
X127491484Y-66111056D01*
X127492791Y-66118016D01*
X127510572Y-66230281D01*
X127510573Y-66230284D01*
X127510574Y-66230286D01*
X127546095Y-66300000D01*
X127561268Y-66329778D01*
X127561271Y-66329782D01*
X127640217Y-66408728D01*
X127640221Y-66408731D01*
X127640223Y-66408733D01*
X127739714Y-66459426D01*
X127739716Y-66459426D01*
X127739718Y-66459427D01*
X127849998Y-66476894D01*
X127850000Y-66476894D01*
X127850002Y-66476894D01*
X127960281Y-66459427D01*
X127960281Y-66459426D01*
X127960286Y-66459426D01*
X128059777Y-66408733D01*
X128138733Y-66329777D01*
X128153904Y-66300002D01*
X135643106Y-66300002D01*
X135660572Y-66410281D01*
X135660573Y-66410284D01*
X135660574Y-66410286D01*
X135711267Y-66509777D01*
X135711268Y-66509778D01*
X135711271Y-66509782D01*
X135790217Y-66588728D01*
X135790221Y-66588731D01*
X135790223Y-66588733D01*
X135889714Y-66639426D01*
X135889716Y-66639426D01*
X135889718Y-66639427D01*
X135999998Y-66656894D01*
X136000000Y-66656894D01*
X136000002Y-66656894D01*
X136110281Y-66639427D01*
X136110281Y-66639426D01*
X136110286Y-66639426D01*
X136209777Y-66588733D01*
X136288733Y-66509777D01*
X136339426Y-66410286D01*
X136339672Y-66408733D01*
X136356894Y-66300002D01*
X136356894Y-66299997D01*
X136339427Y-66189718D01*
X136339426Y-66189716D01*
X136339426Y-66189714D01*
X136288733Y-66090223D01*
X136288731Y-66090221D01*
X136288728Y-66090217D01*
X136209782Y-66011271D01*
X136209778Y-66011268D01*
X136209777Y-66011267D01*
X136110286Y-65960574D01*
X136110284Y-65960573D01*
X136110281Y-65960572D01*
X136000002Y-65943106D01*
X135999998Y-65943106D01*
X135889718Y-65960572D01*
X135790221Y-66011268D01*
X135790217Y-66011271D01*
X135711271Y-66090217D01*
X135711268Y-66090221D01*
X135660572Y-66189718D01*
X135643106Y-66299997D01*
X135643106Y-66300002D01*
X128153904Y-66300002D01*
X128189426Y-66230286D01*
X128206894Y-66120000D01*
X128190105Y-66014001D01*
X128189427Y-66009718D01*
X128189426Y-66009716D01*
X128189426Y-66009714D01*
X128138733Y-65910223D01*
X128138731Y-65910221D01*
X128138728Y-65910217D01*
X128059782Y-65831271D01*
X128059778Y-65831268D01*
X128059777Y-65831267D01*
X127960286Y-65780574D01*
X127960284Y-65780573D01*
X127960281Y-65780572D01*
X127848015Y-65762791D01*
X127784880Y-65732862D01*
X127779732Y-65727999D01*
X127331736Y-65280002D01*
X134443106Y-65280002D01*
X134460572Y-65390281D01*
X134460573Y-65390284D01*
X134460574Y-65390286D01*
X134511267Y-65489777D01*
X134511268Y-65489778D01*
X134511271Y-65489782D01*
X134590217Y-65568728D01*
X134590221Y-65568731D01*
X134590223Y-65568733D01*
X134689714Y-65619426D01*
X134689716Y-65619426D01*
X134689718Y-65619427D01*
X134799998Y-65636894D01*
X134800000Y-65636894D01*
X134800002Y-65636894D01*
X134910281Y-65619427D01*
X134910281Y-65619426D01*
X134910286Y-65619426D01*
X135009777Y-65568733D01*
X135088733Y-65489777D01*
X135139426Y-65390286D01*
X135139427Y-65390281D01*
X135156894Y-65280002D01*
X135156894Y-65279997D01*
X135139427Y-65169718D01*
X135139426Y-65169716D01*
X135139426Y-65169714D01*
X135088733Y-65070223D01*
X135088731Y-65070221D01*
X135088728Y-65070217D01*
X135009782Y-64991271D01*
X135009778Y-64991268D01*
X135009777Y-64991267D01*
X134910286Y-64940574D01*
X134910284Y-64940573D01*
X134910281Y-64940572D01*
X134800002Y-64923106D01*
X134799998Y-64923106D01*
X134689718Y-64940572D01*
X134590221Y-64991268D01*
X134590217Y-64991271D01*
X134511271Y-65070217D01*
X134511268Y-65070221D01*
X134460572Y-65169718D01*
X134443106Y-65279997D01*
X134443106Y-65280002D01*
X127331736Y-65280002D01*
X126923819Y-64872085D01*
X126890334Y-64810762D01*
X126887500Y-64784404D01*
X126887500Y-64730002D01*
X127753106Y-64730002D01*
X127770572Y-64840281D01*
X127770573Y-64840284D01*
X127770574Y-64840286D01*
X127821267Y-64939777D01*
X127821268Y-64939778D01*
X127821271Y-64939782D01*
X127900217Y-65018728D01*
X127900221Y-65018731D01*
X127900223Y-65018733D01*
X127999714Y-65069426D01*
X127999716Y-65069426D01*
X127999718Y-65069427D01*
X128109998Y-65086894D01*
X128110000Y-65086894D01*
X128110002Y-65086894D01*
X128220281Y-65069427D01*
X128220281Y-65069426D01*
X128220286Y-65069426D01*
X128319777Y-65018733D01*
X128398733Y-64939777D01*
X128449426Y-64840286D01*
X128450142Y-64835766D01*
X128458316Y-64784160D01*
X128488245Y-64721026D01*
X128547556Y-64684094D01*
X128600187Y-64681085D01*
X128699998Y-64696894D01*
X128700000Y-64696894D01*
X128700002Y-64696894D01*
X128810281Y-64679427D01*
X128810281Y-64679426D01*
X128810286Y-64679426D01*
X128909777Y-64628733D01*
X128988733Y-64549777D01*
X129039426Y-64450286D01*
X129056894Y-64340000D01*
X129039426Y-64229714D01*
X129015054Y-64181881D01*
X131719583Y-64181881D01*
X131737049Y-64292160D01*
X131737050Y-64292163D01*
X131737051Y-64292165D01*
X131784814Y-64385905D01*
X131787745Y-64391657D01*
X131787748Y-64391661D01*
X131866694Y-64470607D01*
X131866698Y-64470610D01*
X131866700Y-64470612D01*
X131966191Y-64521305D01*
X131966193Y-64521305D01*
X131966195Y-64521306D01*
X132076475Y-64538773D01*
X132076477Y-64538773D01*
X132076479Y-64538773D01*
X132186758Y-64521306D01*
X132186758Y-64521305D01*
X132186763Y-64521305D01*
X132286254Y-64470612D01*
X132365210Y-64391656D01*
X132415903Y-64292165D01*
X132433371Y-64181879D01*
X132425189Y-64130223D01*
X132415904Y-64071597D01*
X132415903Y-64071595D01*
X132415903Y-64071593D01*
X132365210Y-63972102D01*
X132365208Y-63972100D01*
X132365205Y-63972096D01*
X132286259Y-63893150D01*
X132286255Y-63893147D01*
X132286254Y-63893146D01*
X132186763Y-63842453D01*
X132186761Y-63842452D01*
X132186758Y-63842451D01*
X132076479Y-63824985D01*
X132076475Y-63824985D01*
X131966195Y-63842451D01*
X131866698Y-63893147D01*
X131866694Y-63893150D01*
X131787748Y-63972096D01*
X131787745Y-63972100D01*
X131737049Y-64071597D01*
X131719583Y-64181876D01*
X131719583Y-64181881D01*
X129015054Y-64181881D01*
X128988733Y-64130223D01*
X128988731Y-64130221D01*
X128988728Y-64130217D01*
X128909782Y-64051271D01*
X128909778Y-64051268D01*
X128909777Y-64051267D01*
X128810286Y-64000574D01*
X128810284Y-64000573D01*
X128810281Y-64000572D01*
X128700002Y-63983106D01*
X128699998Y-63983106D01*
X128589718Y-64000572D01*
X128490221Y-64051268D01*
X128490217Y-64051271D01*
X128411271Y-64130217D01*
X128411268Y-64130221D01*
X128360572Y-64229717D01*
X128351683Y-64285841D01*
X128321753Y-64348975D01*
X128262441Y-64385905D01*
X128209812Y-64388914D01*
X128110002Y-64373106D01*
X128109998Y-64373106D01*
X127999718Y-64390572D01*
X127999714Y-64390573D01*
X127999714Y-64390574D01*
X127997581Y-64391661D01*
X127900221Y-64441268D01*
X127900217Y-64441271D01*
X127821271Y-64520217D01*
X127821268Y-64520221D01*
X127770572Y-64619718D01*
X127753106Y-64729997D01*
X127753106Y-64730002D01*
X126887500Y-64730002D01*
X126887500Y-63792372D01*
X126907185Y-63725333D01*
X126923819Y-63704691D01*
X126931023Y-63697486D01*
X126948733Y-63679777D01*
X126999426Y-63580286D01*
X127016894Y-63470000D01*
X126999426Y-63359714D01*
X126948733Y-63260223D01*
X126948731Y-63260221D01*
X126948728Y-63260217D01*
X126869782Y-63181271D01*
X126869778Y-63181268D01*
X126869777Y-63181267D01*
X126770286Y-63130574D01*
X126770284Y-63130573D01*
X126770281Y-63130572D01*
X126660002Y-63113106D01*
X126659998Y-63113106D01*
X126549718Y-63130572D01*
X126450221Y-63181268D01*
X126450217Y-63181271D01*
X126371271Y-63260217D01*
X126371268Y-63260221D01*
X126320572Y-63359718D01*
X126303106Y-63469997D01*
X126303106Y-63470002D01*
X105500499Y-63470002D01*
X105500499Y-61700001D01*
X127067948Y-61700001D01*
X127086076Y-61837703D01*
X127086078Y-61837708D01*
X127139227Y-61966023D01*
X127139228Y-61966025D01*
X127139229Y-61966026D01*
X127223782Y-62076218D01*
X127333974Y-62160771D01*
X127462295Y-62213923D01*
X127531147Y-62222987D01*
X127599999Y-62232052D01*
X127600000Y-62232052D01*
X127600001Y-62232052D01*
X127645901Y-62226009D01*
X127737705Y-62213923D01*
X127866026Y-62160771D01*
X127945222Y-62100002D01*
X129343106Y-62100002D01*
X129360572Y-62210281D01*
X129360573Y-62210284D01*
X129360574Y-62210286D01*
X129411267Y-62309777D01*
X129411268Y-62309778D01*
X129411271Y-62309782D01*
X129490217Y-62388728D01*
X129490221Y-62388731D01*
X129490223Y-62388733D01*
X129589714Y-62439426D01*
X129589716Y-62439426D01*
X129589718Y-62439427D01*
X129699998Y-62456894D01*
X129700000Y-62456894D01*
X129700002Y-62456894D01*
X129810281Y-62439427D01*
X129810281Y-62439426D01*
X129810286Y-62439426D01*
X129909777Y-62388733D01*
X129988733Y-62309777D01*
X130039426Y-62210286D01*
X130056894Y-62100000D01*
X130039426Y-61989714D01*
X129988733Y-61890223D01*
X129988731Y-61890221D01*
X129988728Y-61890217D01*
X129909782Y-61811271D01*
X129909778Y-61811268D01*
X129909777Y-61811267D01*
X129810286Y-61760574D01*
X129810284Y-61760573D01*
X129810281Y-61760572D01*
X129700002Y-61743106D01*
X129699998Y-61743106D01*
X129589718Y-61760572D01*
X129490221Y-61811268D01*
X129490217Y-61811271D01*
X129411271Y-61890217D01*
X129411268Y-61890221D01*
X129360572Y-61989718D01*
X129343106Y-62099997D01*
X129343106Y-62100002D01*
X127945222Y-62100002D01*
X127976218Y-62076218D01*
X128060771Y-61966026D01*
X128113923Y-61837705D01*
X128132052Y-61700000D01*
X128114938Y-61570002D01*
X131623106Y-61570002D01*
X131640572Y-61680281D01*
X131640573Y-61680284D01*
X131640574Y-61680286D01*
X131681482Y-61760572D01*
X131691268Y-61779778D01*
X131691271Y-61779782D01*
X131770217Y-61858728D01*
X131770221Y-61858731D01*
X131770223Y-61858733D01*
X131869714Y-61909426D01*
X131869716Y-61909426D01*
X131869718Y-61909427D01*
X131979998Y-61926894D01*
X131980000Y-61926894D01*
X131980002Y-61926894D01*
X132090281Y-61909427D01*
X132090281Y-61909426D01*
X132090286Y-61909426D01*
X132189777Y-61858733D01*
X132268733Y-61779777D01*
X132319426Y-61680286D01*
X132336894Y-61570000D01*
X132319426Y-61459714D01*
X132268733Y-61360223D01*
X132268731Y-61360221D01*
X132268728Y-61360217D01*
X132189782Y-61281271D01*
X132189778Y-61281268D01*
X132189777Y-61281267D01*
X132090286Y-61230574D01*
X132090284Y-61230573D01*
X132090281Y-61230572D01*
X131980002Y-61213106D01*
X131979998Y-61213106D01*
X131869718Y-61230572D01*
X131869714Y-61230573D01*
X131869714Y-61230574D01*
X131852728Y-61239229D01*
X131770221Y-61281268D01*
X131770217Y-61281271D01*
X131691271Y-61360217D01*
X131691268Y-61360221D01*
X131640572Y-61459718D01*
X131623106Y-61569997D01*
X131623106Y-61570002D01*
X128114938Y-61570002D01*
X128113923Y-61562295D01*
X128078488Y-61476747D01*
X128060772Y-61433976D01*
X128060771Y-61433975D01*
X128060771Y-61433974D01*
X127976218Y-61323782D01*
X127866026Y-61239229D01*
X127866025Y-61239228D01*
X127866023Y-61239227D01*
X127737708Y-61186078D01*
X127737703Y-61186076D01*
X127600001Y-61167948D01*
X127599999Y-61167948D01*
X127462296Y-61186076D01*
X127462291Y-61186078D01*
X127333976Y-61239227D01*
X127223782Y-61323782D01*
X127139227Y-61433976D01*
X127086078Y-61562291D01*
X127086076Y-61562296D01*
X127067948Y-61699998D01*
X127067948Y-61700001D01*
X105500499Y-61700001D01*
X105500499Y-60700002D01*
X129643106Y-60700002D01*
X129660572Y-60810281D01*
X129660573Y-60810284D01*
X129660574Y-60810286D01*
X129711267Y-60909777D01*
X129711268Y-60909778D01*
X129711271Y-60909782D01*
X129790217Y-60988728D01*
X129790221Y-60988731D01*
X129790223Y-60988733D01*
X129889714Y-61039426D01*
X129889716Y-61039426D01*
X129889718Y-61039427D01*
X129999998Y-61056894D01*
X130000000Y-61056894D01*
X130000002Y-61056894D01*
X130110281Y-61039427D01*
X130110281Y-61039426D01*
X130110286Y-61039426D01*
X130209777Y-60988733D01*
X130288733Y-60909777D01*
X130339426Y-60810286D01*
X130356894Y-60700000D01*
X130356662Y-60698537D01*
X130356894Y-60696744D01*
X130356894Y-60690241D01*
X130357734Y-60690241D01*
X130365612Y-60629247D01*
X130410604Y-60575791D01*
X130477354Y-60555147D01*
X130498530Y-60556661D01*
X130500000Y-60556894D01*
X130610286Y-60539426D01*
X130630903Y-60528921D01*
X130699567Y-60516025D01*
X130764308Y-60542300D01*
X130797679Y-60583110D01*
X130811265Y-60609774D01*
X130811271Y-60609782D01*
X130890217Y-60688728D01*
X130890221Y-60688731D01*
X130890223Y-60688733D01*
X130989714Y-60739426D01*
X130989716Y-60739426D01*
X130989718Y-60739427D01*
X131099998Y-60756894D01*
X131100000Y-60756894D01*
X131100002Y-60756894D01*
X131210281Y-60739427D01*
X131210281Y-60739426D01*
X131210286Y-60739426D01*
X131309777Y-60688733D01*
X131388733Y-60609777D01*
X131439426Y-60510286D01*
X131456894Y-60400000D01*
X131444890Y-60324213D01*
X131439427Y-60289718D01*
X131439426Y-60289716D01*
X131439426Y-60289714D01*
X131388733Y-60190223D01*
X131388731Y-60190221D01*
X131388728Y-60190217D01*
X131309782Y-60111271D01*
X131309778Y-60111268D01*
X131309777Y-60111267D01*
X131287668Y-60100002D01*
X138843106Y-60100002D01*
X138860572Y-60210281D01*
X138860573Y-60210284D01*
X138860574Y-60210286D01*
X138911267Y-60309777D01*
X138911268Y-60309778D01*
X138911271Y-60309782D01*
X138990217Y-60388728D01*
X138990221Y-60388731D01*
X138990223Y-60388733D01*
X139089714Y-60439426D01*
X139089716Y-60439426D01*
X139089718Y-60439427D01*
X139199998Y-60456894D01*
X139200000Y-60456894D01*
X139200002Y-60456894D01*
X139310281Y-60439427D01*
X139310281Y-60439426D01*
X139310286Y-60439426D01*
X139409777Y-60388733D01*
X139488733Y-60309777D01*
X139539426Y-60210286D01*
X139539427Y-60210281D01*
X139556894Y-60100002D01*
X139556894Y-60099997D01*
X139539427Y-59989718D01*
X139539426Y-59989716D01*
X139539426Y-59989714D01*
X139488733Y-59890223D01*
X139488731Y-59890221D01*
X139488728Y-59890217D01*
X139409782Y-59811271D01*
X139409778Y-59811268D01*
X139409777Y-59811267D01*
X139310286Y-59760574D01*
X139310284Y-59760573D01*
X139310281Y-59760572D01*
X139200002Y-59743106D01*
X139199998Y-59743106D01*
X139089718Y-59760572D01*
X138990221Y-59811268D01*
X138990217Y-59811271D01*
X138911271Y-59890217D01*
X138911268Y-59890221D01*
X138860572Y-59989718D01*
X138843106Y-60099997D01*
X138843106Y-60100002D01*
X131287668Y-60100002D01*
X131210286Y-60060574D01*
X131210284Y-60060573D01*
X131210281Y-60060572D01*
X131100002Y-60043106D01*
X131099998Y-60043106D01*
X130989717Y-60060572D01*
X130969094Y-60071080D01*
X130900425Y-60083974D01*
X130835685Y-60057695D01*
X130802320Y-60016890D01*
X130788733Y-59990223D01*
X130788731Y-59990221D01*
X130788728Y-59990217D01*
X130709782Y-59911271D01*
X130709778Y-59911268D01*
X130709777Y-59911267D01*
X130610286Y-59860574D01*
X130610284Y-59860573D01*
X130610281Y-59860572D01*
X130500002Y-59843106D01*
X130499998Y-59843106D01*
X130389718Y-59860572D01*
X130290221Y-59911268D01*
X130290217Y-59911271D01*
X130211271Y-59990217D01*
X130211268Y-59990221D01*
X130160572Y-60089718D01*
X130143106Y-60199997D01*
X130143106Y-60200002D01*
X130143338Y-60201467D01*
X130143106Y-60203262D01*
X130143106Y-60209759D01*
X130142266Y-60209759D01*
X130134383Y-60270761D01*
X130089387Y-60324213D01*
X130022635Y-60344852D01*
X130001467Y-60343338D01*
X130000002Y-60343106D01*
X129999998Y-60343106D01*
X129889718Y-60360572D01*
X129790221Y-60411268D01*
X129790217Y-60411271D01*
X129711271Y-60490217D01*
X129711268Y-60490221D01*
X129660572Y-60589718D01*
X129643106Y-60699997D01*
X129643106Y-60700002D01*
X105500499Y-60700002D01*
X105500499Y-60100001D01*
X111567948Y-60100001D01*
X111586076Y-60237703D01*
X111586078Y-60237708D01*
X111639227Y-60366023D01*
X111639228Y-60366025D01*
X111639229Y-60366026D01*
X111723782Y-60476218D01*
X111833974Y-60560771D01*
X111962295Y-60613923D01*
X112031147Y-60622987D01*
X112099999Y-60632052D01*
X112100000Y-60632052D01*
X112100001Y-60632052D01*
X112145901Y-60626009D01*
X112237705Y-60613923D01*
X112366026Y-60560771D01*
X112476218Y-60476218D01*
X112560771Y-60366026D01*
X112613923Y-60237705D01*
X112632052Y-60100000D01*
X112630698Y-60089718D01*
X112613923Y-59962296D01*
X112613921Y-59962291D01*
X112592786Y-59911267D01*
X112560771Y-59833974D01*
X112476218Y-59723782D01*
X112366026Y-59639229D01*
X112366025Y-59639228D01*
X112366023Y-59639227D01*
X112237708Y-59586078D01*
X112237703Y-59586076D01*
X112100001Y-59567948D01*
X112099999Y-59567948D01*
X111962296Y-59586076D01*
X111962291Y-59586078D01*
X111833976Y-59639227D01*
X111723782Y-59723782D01*
X111639227Y-59833976D01*
X111586078Y-59962291D01*
X111586076Y-59962296D01*
X111567948Y-60099998D01*
X111567948Y-60100001D01*
X105500499Y-60100001D01*
X105500499Y-59300001D01*
X112967948Y-59300001D01*
X112986076Y-59437703D01*
X112986078Y-59437708D01*
X113039227Y-59566023D01*
X113039228Y-59566025D01*
X113039229Y-59566026D01*
X113123782Y-59676218D01*
X113233974Y-59760771D01*
X113362295Y-59813923D01*
X113431147Y-59822987D01*
X113499999Y-59832052D01*
X113500000Y-59832052D01*
X113500001Y-59832052D01*
X113545901Y-59826009D01*
X113637705Y-59813923D01*
X113766026Y-59760771D01*
X113876218Y-59676218D01*
X113960771Y-59566026D01*
X114013923Y-59437705D01*
X114032052Y-59300000D01*
X114030698Y-59289718D01*
X114013923Y-59162296D01*
X114013921Y-59162291D01*
X113992786Y-59111267D01*
X113988120Y-59100002D01*
X128143106Y-59100002D01*
X128160572Y-59210281D01*
X128160573Y-59210284D01*
X128160574Y-59210286D01*
X128206286Y-59300001D01*
X128211268Y-59309778D01*
X128211271Y-59309782D01*
X128290217Y-59388728D01*
X128290221Y-59388731D01*
X128290223Y-59388733D01*
X128389714Y-59439426D01*
X128389716Y-59439426D01*
X128389718Y-59439427D01*
X128499998Y-59456894D01*
X128500000Y-59456894D01*
X128500002Y-59456894D01*
X128610281Y-59439427D01*
X128610281Y-59439426D01*
X128610286Y-59439426D01*
X128687660Y-59400002D01*
X133843106Y-59400002D01*
X133860572Y-59510281D01*
X133860573Y-59510284D01*
X133860574Y-59510286D01*
X133899192Y-59586078D01*
X133911268Y-59609778D01*
X133911271Y-59609782D01*
X133990217Y-59688728D01*
X133990221Y-59688731D01*
X133990223Y-59688733D01*
X134089714Y-59739426D01*
X134089716Y-59739426D01*
X134089718Y-59739427D01*
X134199998Y-59756894D01*
X134200000Y-59756894D01*
X134200002Y-59756894D01*
X134310281Y-59739427D01*
X134310281Y-59739426D01*
X134310286Y-59739426D01*
X134409777Y-59688733D01*
X134488733Y-59609777D01*
X134539426Y-59510286D01*
X134547883Y-59456894D01*
X134556894Y-59400002D01*
X134556894Y-59399997D01*
X134539427Y-59289718D01*
X134539426Y-59289716D01*
X134539426Y-59289714D01*
X134488733Y-59190223D01*
X134488731Y-59190221D01*
X134488728Y-59190217D01*
X134409782Y-59111271D01*
X134409778Y-59111268D01*
X134409777Y-59111267D01*
X134310286Y-59060574D01*
X134310284Y-59060573D01*
X134310281Y-59060572D01*
X134200002Y-59043106D01*
X134199998Y-59043106D01*
X134089718Y-59060572D01*
X133990221Y-59111268D01*
X133990217Y-59111271D01*
X133911271Y-59190217D01*
X133911268Y-59190221D01*
X133860572Y-59289718D01*
X133843106Y-59399997D01*
X133843106Y-59400002D01*
X128687660Y-59400002D01*
X128709777Y-59388733D01*
X128788733Y-59309777D01*
X128839426Y-59210286D01*
X128856894Y-59100000D01*
X128846436Y-59033974D01*
X128839427Y-58989718D01*
X128839426Y-58989716D01*
X128839426Y-58989714D01*
X128793716Y-58900002D01*
X129843106Y-58900002D01*
X129860572Y-59010281D01*
X129860573Y-59010284D01*
X129860574Y-59010286D01*
X129911267Y-59109777D01*
X129911268Y-59109778D01*
X129911271Y-59109782D01*
X129990217Y-59188728D01*
X129990221Y-59188731D01*
X129990223Y-59188733D01*
X130089714Y-59239426D01*
X130089716Y-59239426D01*
X130089718Y-59239427D01*
X130199998Y-59256894D01*
X130200000Y-59256894D01*
X130200002Y-59256894D01*
X130310281Y-59239427D01*
X130310281Y-59239426D01*
X130310286Y-59239426D01*
X130409777Y-59188733D01*
X130488733Y-59109777D01*
X130539426Y-59010286D01*
X130556894Y-58900000D01*
X130546608Y-58835058D01*
X130539427Y-58789718D01*
X130539426Y-58789716D01*
X130539426Y-58789714D01*
X130488733Y-58690223D01*
X130488731Y-58690221D01*
X130488728Y-58690217D01*
X130409782Y-58611271D01*
X130409778Y-58611268D01*
X130409777Y-58611267D01*
X130310286Y-58560574D01*
X130310284Y-58560573D01*
X130310281Y-58560572D01*
X130200002Y-58543106D01*
X130199998Y-58543106D01*
X130089718Y-58560572D01*
X129990221Y-58611268D01*
X129990217Y-58611271D01*
X129911271Y-58690217D01*
X129911268Y-58690221D01*
X129860572Y-58789718D01*
X129843106Y-58899997D01*
X129843106Y-58900002D01*
X128793716Y-58900002D01*
X128788733Y-58890223D01*
X128788731Y-58890221D01*
X128788728Y-58890217D01*
X128709782Y-58811271D01*
X128709778Y-58811268D01*
X128709777Y-58811267D01*
X128610286Y-58760574D01*
X128610284Y-58760573D01*
X128610281Y-58760572D01*
X128500002Y-58743106D01*
X128499998Y-58743106D01*
X128389718Y-58760572D01*
X128290221Y-58811268D01*
X128290217Y-58811271D01*
X128211271Y-58890217D01*
X128211268Y-58890221D01*
X128160572Y-58989718D01*
X128143106Y-59099997D01*
X128143106Y-59100002D01*
X113988120Y-59100002D01*
X113960771Y-59033974D01*
X113876218Y-58923782D01*
X113766026Y-58839229D01*
X113766025Y-58839228D01*
X113766023Y-58839227D01*
X113637708Y-58786078D01*
X113637703Y-58786076D01*
X113500001Y-58767948D01*
X113499999Y-58767948D01*
X113362296Y-58786076D01*
X113362291Y-58786078D01*
X113233976Y-58839227D01*
X113123782Y-58923782D01*
X113039227Y-59033976D01*
X112986078Y-59162291D01*
X112986076Y-59162296D01*
X112967948Y-59299998D01*
X112967948Y-59300001D01*
X105500499Y-59300001D01*
X105500499Y-56400001D01*
X106417704Y-56400001D01*
X106436863Y-56667884D01*
X106489594Y-56910281D01*
X106493950Y-56930304D01*
X106523594Y-57009782D01*
X106587803Y-57181935D01*
X106587805Y-57181939D01*
X106716508Y-57417640D01*
X106716513Y-57417648D01*
X106877449Y-57632634D01*
X106877465Y-57632652D01*
X107067347Y-57822534D01*
X107067365Y-57822550D01*
X107282351Y-57983486D01*
X107282359Y-57983491D01*
X107518060Y-58112194D01*
X107518064Y-58112196D01*
X107518066Y-58112197D01*
X107769696Y-58206050D01*
X107900908Y-58234593D01*
X108032115Y-58263136D01*
X108032117Y-58263136D01*
X108032121Y-58263137D01*
X108270174Y-58280162D01*
X108299999Y-58282296D01*
X108300000Y-58282296D01*
X108300001Y-58282296D01*
X108326837Y-58280376D01*
X108567879Y-58263137D01*
X108830304Y-58206050D01*
X109081934Y-58112197D01*
X109317646Y-57983488D01*
X109532642Y-57822544D01*
X109722544Y-57632642D01*
X109883488Y-57417646D01*
X110012197Y-57181934D01*
X110106050Y-56930304D01*
X110163137Y-56667879D01*
X110182296Y-56400000D01*
X110163137Y-56132121D01*
X110106050Y-55869696D01*
X110012197Y-55618066D01*
X109978794Y-55556894D01*
X109883491Y-55382359D01*
X109883486Y-55382351D01*
X109746982Y-55200002D01*
X111343106Y-55200002D01*
X111360572Y-55310281D01*
X111360573Y-55310284D01*
X111360574Y-55310286D01*
X111397297Y-55382359D01*
X111411268Y-55409778D01*
X111411271Y-55409782D01*
X111490217Y-55488728D01*
X111490221Y-55488731D01*
X111490223Y-55488733D01*
X111589714Y-55539426D01*
X111589716Y-55539426D01*
X111589718Y-55539427D01*
X111699998Y-55556894D01*
X111700000Y-55556894D01*
X111700002Y-55556894D01*
X111810281Y-55539427D01*
X111810281Y-55539426D01*
X111810286Y-55539426D01*
X111909777Y-55488733D01*
X111988733Y-55409777D01*
X112039426Y-55310286D01*
X112056894Y-55200000D01*
X112039426Y-55089714D01*
X111988733Y-54990223D01*
X111988731Y-54990221D01*
X111988728Y-54990217D01*
X111909782Y-54911271D01*
X111909778Y-54911268D01*
X111909777Y-54911267D01*
X111810286Y-54860574D01*
X111810284Y-54860573D01*
X111810281Y-54860572D01*
X111700002Y-54843106D01*
X111699998Y-54843106D01*
X111589718Y-54860572D01*
X111490221Y-54911268D01*
X111490217Y-54911271D01*
X111411271Y-54990217D01*
X111411268Y-54990221D01*
X111360572Y-55089718D01*
X111343106Y-55199997D01*
X111343106Y-55200002D01*
X109746982Y-55200002D01*
X109722550Y-55167365D01*
X109722534Y-55167347D01*
X109532652Y-54977465D01*
X109532634Y-54977449D01*
X109317648Y-54816513D01*
X109317640Y-54816508D01*
X109081939Y-54687805D01*
X109081935Y-54687803D01*
X108986537Y-54652222D01*
X108830304Y-54593950D01*
X108830300Y-54593949D01*
X108830297Y-54593948D01*
X108567884Y-54536863D01*
X108300001Y-54517704D01*
X108299999Y-54517704D01*
X108032115Y-54536863D01*
X107769702Y-54593948D01*
X107769697Y-54593949D01*
X107769696Y-54593950D01*
X107708858Y-54616641D01*
X107518064Y-54687803D01*
X107518060Y-54687805D01*
X107282359Y-54816508D01*
X107282351Y-54816513D01*
X107067365Y-54977449D01*
X107067347Y-54977465D01*
X106877465Y-55167347D01*
X106877449Y-55167365D01*
X106716513Y-55382351D01*
X106716508Y-55382359D01*
X106587805Y-55618060D01*
X106587803Y-55618064D01*
X106493948Y-55869702D01*
X106436863Y-56132115D01*
X106417704Y-56399998D01*
X106417704Y-56400001D01*
X105500499Y-56400001D01*
X105500499Y-53000000D01*
X116567891Y-53000000D01*
X116586258Y-53151274D01*
X116640295Y-53293756D01*
X116640295Y-53293757D01*
X116718808Y-53407501D01*
X116726860Y-53419166D01*
X116840921Y-53520216D01*
X116975851Y-53591032D01*
X117123808Y-53627500D01*
X117276192Y-53627500D01*
X117424149Y-53591032D01*
X117559079Y-53520216D01*
X117673140Y-53419166D01*
X117755394Y-53300001D01*
X130467948Y-53300001D01*
X130486076Y-53437703D01*
X130486078Y-53437708D01*
X130539227Y-53566023D01*
X130539228Y-53566025D01*
X130539229Y-53566026D01*
X130623782Y-53676218D01*
X130733974Y-53760771D01*
X130862295Y-53813923D01*
X130931147Y-53822987D01*
X130999999Y-53832052D01*
X131000000Y-53832052D01*
X131000001Y-53832052D01*
X131045901Y-53826009D01*
X131137705Y-53813923D01*
X131266026Y-53760771D01*
X131376218Y-53676218D01*
X131460771Y-53566026D01*
X131513923Y-53437705D01*
X131532052Y-53300000D01*
X131513923Y-53162295D01*
X131460771Y-53033974D01*
X131376218Y-52923782D01*
X131343105Y-52898374D01*
X131301905Y-52841948D01*
X131297750Y-52772202D01*
X131331962Y-52711281D01*
X131343098Y-52701631D01*
X131376218Y-52676218D01*
X131460771Y-52566026D01*
X131513923Y-52437705D01*
X131532052Y-52300000D01*
X131513923Y-52162295D01*
X131460771Y-52033974D01*
X131376218Y-51923782D01*
X131266026Y-51839229D01*
X131266025Y-51839228D01*
X131266023Y-51839227D01*
X131137708Y-51786078D01*
X131137703Y-51786076D01*
X131000001Y-51767948D01*
X130999999Y-51767948D01*
X130862296Y-51786076D01*
X130862291Y-51786078D01*
X130733976Y-51839227D01*
X130623782Y-51923782D01*
X130539227Y-52033976D01*
X130486078Y-52162291D01*
X130486076Y-52162296D01*
X130467948Y-52299998D01*
X130467948Y-52300001D01*
X130486076Y-52437703D01*
X130486078Y-52437708D01*
X130539227Y-52566023D01*
X130539228Y-52566025D01*
X130539229Y-52566026D01*
X130623782Y-52676218D01*
X130652258Y-52698068D01*
X130656893Y-52701625D01*
X130698095Y-52758054D01*
X130702249Y-52827800D01*
X130668035Y-52888720D01*
X130656893Y-52898375D01*
X130623783Y-52923781D01*
X130539227Y-53033976D01*
X130486078Y-53162291D01*
X130486076Y-53162296D01*
X130467948Y-53299998D01*
X130467948Y-53300001D01*
X117755394Y-53300001D01*
X117759705Y-53293756D01*
X117813741Y-53151274D01*
X117832109Y-53000000D01*
X117822855Y-52923782D01*
X117813741Y-52848725D01*
X117761615Y-52711281D01*
X117759705Y-52706244D01*
X117738979Y-52676218D01*
X117673141Y-52580836D01*
X117673139Y-52580833D01*
X117639774Y-52551274D01*
X117559079Y-52479784D01*
X117424149Y-52408968D01*
X117424148Y-52408967D01*
X117424147Y-52408967D01*
X117387766Y-52400000D01*
X123867891Y-52400000D01*
X123886258Y-52551274D01*
X123940295Y-52693756D01*
X123940295Y-52693757D01*
X123994443Y-52772202D01*
X124026860Y-52819166D01*
X124140921Y-52920216D01*
X124275851Y-52991032D01*
X124423808Y-53027500D01*
X124576192Y-53027500D01*
X124724149Y-52991032D01*
X124859079Y-52920216D01*
X124973140Y-52819166D01*
X125059705Y-52693756D01*
X125113741Y-52551274D01*
X125132109Y-52400000D01*
X125667891Y-52400000D01*
X125686258Y-52551274D01*
X125740295Y-52693756D01*
X125740295Y-52693757D01*
X125794443Y-52772202D01*
X125826860Y-52819166D01*
X125940921Y-52920216D01*
X126075851Y-52991032D01*
X126223808Y-53027500D01*
X126376192Y-53027500D01*
X126524149Y-52991032D01*
X126659079Y-52920216D01*
X126773140Y-52819166D01*
X126859705Y-52693756D01*
X126913741Y-52551274D01*
X126932109Y-52400000D01*
X126913741Y-52248726D01*
X126859705Y-52106244D01*
X126773140Y-51980834D01*
X126659079Y-51879784D01*
X126524149Y-51808968D01*
X126524148Y-51808967D01*
X126524147Y-51808967D01*
X126376192Y-51772500D01*
X126223808Y-51772500D01*
X126075852Y-51808967D01*
X125940922Y-51879783D01*
X125826860Y-51980833D01*
X125826858Y-51980836D01*
X125740295Y-52106242D01*
X125740295Y-52106243D01*
X125686258Y-52248725D01*
X125667891Y-52399999D01*
X125667891Y-52400000D01*
X125132109Y-52400000D01*
X125113741Y-52248726D01*
X125059705Y-52106244D01*
X124973140Y-51980834D01*
X124859079Y-51879784D01*
X124724149Y-51808968D01*
X124724148Y-51808967D01*
X124724147Y-51808967D01*
X124576192Y-51772500D01*
X124423808Y-51772500D01*
X124275852Y-51808967D01*
X124140922Y-51879783D01*
X124026860Y-51980833D01*
X124026858Y-51980836D01*
X123940295Y-52106242D01*
X123940295Y-52106243D01*
X123886258Y-52248725D01*
X123867891Y-52399999D01*
X123867891Y-52400000D01*
X117387766Y-52400000D01*
X117276192Y-52372500D01*
X117123808Y-52372500D01*
X116975852Y-52408967D01*
X116840922Y-52479783D01*
X116726860Y-52580833D01*
X116726858Y-52580836D01*
X116640295Y-52706242D01*
X116640295Y-52706243D01*
X116586258Y-52848725D01*
X116567891Y-52999999D01*
X116567891Y-53000000D01*
X105500499Y-53000000D01*
X105500499Y-51000000D01*
X122567891Y-51000000D01*
X122586258Y-51151274D01*
X122640295Y-51293756D01*
X122640295Y-51293757D01*
X122670631Y-51337705D01*
X122726860Y-51419166D01*
X122840921Y-51520216D01*
X122975851Y-51591032D01*
X123123808Y-51627500D01*
X123276192Y-51627500D01*
X123424149Y-51591032D01*
X123559079Y-51520216D01*
X123673140Y-51419166D01*
X123759705Y-51293756D01*
X123795261Y-51200001D01*
X128967948Y-51200001D01*
X128986076Y-51337703D01*
X128986078Y-51337708D01*
X129039227Y-51466023D01*
X129039228Y-51466025D01*
X129039229Y-51466026D01*
X129123782Y-51576218D01*
X129233974Y-51660771D01*
X129362295Y-51713923D01*
X129431147Y-51722987D01*
X129499999Y-51732052D01*
X129500000Y-51732052D01*
X129500001Y-51732052D01*
X129545901Y-51726009D01*
X129637705Y-51713923D01*
X129766026Y-51660771D01*
X129876218Y-51576218D01*
X129960771Y-51466026D01*
X130013923Y-51337705D01*
X130032052Y-51200000D01*
X130013923Y-51062295D01*
X129960771Y-50933974D01*
X129876218Y-50823782D01*
X129843105Y-50798374D01*
X129801905Y-50741948D01*
X129797750Y-50672202D01*
X129831962Y-50611281D01*
X129843098Y-50601631D01*
X129876218Y-50576218D01*
X129960771Y-50466026D01*
X130013923Y-50337705D01*
X130032052Y-50200000D01*
X130013923Y-50062295D01*
X129960771Y-49933974D01*
X129934702Y-49900000D01*
X133967670Y-49900000D01*
X133986949Y-50108064D01*
X133986950Y-50108066D01*
X134044132Y-50309040D01*
X134044138Y-50309055D01*
X134137274Y-50496095D01*
X134263199Y-50662848D01*
X134417618Y-50803618D01*
X134417620Y-50803620D01*
X134595273Y-50913618D01*
X134595274Y-50913618D01*
X134595277Y-50913620D01*
X134790123Y-50989104D01*
X134995522Y-51027500D01*
X134995524Y-51027500D01*
X135204476Y-51027500D01*
X135204478Y-51027500D01*
X135409877Y-50989104D01*
X135604723Y-50913620D01*
X135782381Y-50803619D01*
X135936802Y-50662846D01*
X136062726Y-50496095D01*
X136155866Y-50309045D01*
X136213050Y-50108065D01*
X136232330Y-49900000D01*
X136213050Y-49691935D01*
X136155866Y-49490955D01*
X136062726Y-49303905D01*
X136002309Y-49223900D01*
X135936800Y-49137151D01*
X135782381Y-48996381D01*
X135782379Y-48996379D01*
X135604726Y-48886381D01*
X135604720Y-48886379D01*
X135409877Y-48810896D01*
X135204478Y-48772500D01*
X134995522Y-48772500D01*
X134790123Y-48810896D01*
X134666904Y-48858631D01*
X134595279Y-48886379D01*
X134595273Y-48886381D01*
X134417620Y-48996379D01*
X134417618Y-48996381D01*
X134263199Y-49137151D01*
X134137274Y-49303904D01*
X134044138Y-49490944D01*
X134044132Y-49490959D01*
X133986950Y-49691933D01*
X133986949Y-49691935D01*
X133967670Y-49899999D01*
X133967670Y-49900000D01*
X129934702Y-49900000D01*
X129876218Y-49823782D01*
X129766026Y-49739229D01*
X129766025Y-49739228D01*
X129766023Y-49739227D01*
X129637708Y-49686078D01*
X129637703Y-49686076D01*
X129500001Y-49667948D01*
X129499999Y-49667948D01*
X129362296Y-49686076D01*
X129362291Y-49686078D01*
X129233976Y-49739227D01*
X129123782Y-49823782D01*
X129039227Y-49933976D01*
X128986078Y-50062291D01*
X128986076Y-50062296D01*
X128967948Y-50199998D01*
X128967948Y-50200001D01*
X128986076Y-50337703D01*
X128986078Y-50337708D01*
X129039227Y-50466023D01*
X129039228Y-50466025D01*
X129039229Y-50466026D01*
X129123782Y-50576218D01*
X129152258Y-50598068D01*
X129156893Y-50601625D01*
X129198095Y-50658054D01*
X129202249Y-50727800D01*
X129168035Y-50788720D01*
X129156893Y-50798375D01*
X129123783Y-50823781D01*
X129039227Y-50933976D01*
X128986078Y-51062291D01*
X128986076Y-51062296D01*
X128967948Y-51199998D01*
X128967948Y-51200001D01*
X123795261Y-51200001D01*
X123813741Y-51151274D01*
X123832109Y-51000000D01*
X123813741Y-50848726D01*
X123794645Y-50798375D01*
X123790984Y-50788720D01*
X123759705Y-50706244D01*
X123673140Y-50580834D01*
X123559079Y-50479784D01*
X123424149Y-50408968D01*
X123424148Y-50408967D01*
X123424147Y-50408967D01*
X123276192Y-50372500D01*
X123123808Y-50372500D01*
X122975852Y-50408967D01*
X122840922Y-50479783D01*
X122726860Y-50580833D01*
X122726858Y-50580836D01*
X122640295Y-50706242D01*
X122640295Y-50706243D01*
X122586258Y-50848725D01*
X122567891Y-50999999D01*
X122567891Y-51000000D01*
X105500499Y-51000000D01*
X105500499Y-48900000D01*
X124167891Y-48900000D01*
X124186258Y-49051274D01*
X124240295Y-49193756D01*
X124240295Y-49193757D01*
X124316325Y-49303904D01*
X124326860Y-49319166D01*
X124440921Y-49420216D01*
X124575851Y-49491032D01*
X124723808Y-49527500D01*
X124876192Y-49527500D01*
X125024149Y-49491032D01*
X125159079Y-49420216D01*
X125273140Y-49319166D01*
X125359705Y-49193756D01*
X125413741Y-49051274D01*
X125432109Y-48900000D01*
X125413741Y-48748726D01*
X125359705Y-48606244D01*
X125273140Y-48480834D01*
X125159079Y-48379784D01*
X125024149Y-48308968D01*
X125024148Y-48308967D01*
X125024147Y-48308967D01*
X124876192Y-48272500D01*
X124723808Y-48272500D01*
X124575852Y-48308967D01*
X124440922Y-48379783D01*
X124326860Y-48480833D01*
X124326858Y-48480836D01*
X124240295Y-48606242D01*
X124240295Y-48606243D01*
X124186258Y-48748725D01*
X124167891Y-48899999D01*
X124167891Y-48900000D01*
X105500499Y-48900000D01*
X105500499Y-47700002D01*
X127343106Y-47700002D01*
X127360572Y-47810281D01*
X127360573Y-47810284D01*
X127360574Y-47810286D01*
X127411267Y-47909777D01*
X127411268Y-47909778D01*
X127411271Y-47909782D01*
X127490217Y-47988728D01*
X127490221Y-47988731D01*
X127490223Y-47988733D01*
X127589714Y-48039426D01*
X127589716Y-48039426D01*
X127589718Y-48039427D01*
X127699998Y-48056894D01*
X127700000Y-48056894D01*
X127700002Y-48056894D01*
X127810281Y-48039427D01*
X127810281Y-48039426D01*
X127810286Y-48039426D01*
X127909777Y-47988733D01*
X127988733Y-47909777D01*
X128039426Y-47810286D01*
X128056894Y-47700000D01*
X128039426Y-47589714D01*
X127988733Y-47490223D01*
X127988731Y-47490221D01*
X127988728Y-47490217D01*
X127909782Y-47411271D01*
X127909778Y-47411268D01*
X127909777Y-47411267D01*
X127810286Y-47360574D01*
X127810284Y-47360573D01*
X127810281Y-47360572D01*
X127700002Y-47343106D01*
X127699998Y-47343106D01*
X127589718Y-47360572D01*
X127490221Y-47411268D01*
X127490217Y-47411271D01*
X127411271Y-47490217D01*
X127411268Y-47490221D01*
X127411266Y-47490223D01*
X127411267Y-47490223D01*
X127379273Y-47553016D01*
X127360572Y-47589718D01*
X127343106Y-47699997D01*
X127343106Y-47700002D01*
X105500499Y-47700002D01*
X105500499Y-45300000D01*
X105967506Y-45300000D01*
X105980377Y-45496379D01*
X105987461Y-45604450D01*
X105987463Y-45604462D01*
X106046982Y-45903686D01*
X106046986Y-45903701D01*
X106145055Y-46192602D01*
X106145064Y-46192623D01*
X106279998Y-46466242D01*
X106280002Y-46466249D01*
X106449506Y-46719930D01*
X106650677Y-46949322D01*
X106880069Y-47150493D01*
X107133750Y-47319997D01*
X107133757Y-47320001D01*
X107407376Y-47454935D01*
X107407381Y-47454937D01*
X107407393Y-47454943D01*
X107696306Y-47553016D01*
X107995548Y-47612539D01*
X108300000Y-47632494D01*
X108604452Y-47612539D01*
X108903694Y-47553016D01*
X109192607Y-47454943D01*
X109466247Y-47319999D01*
X109719932Y-47150492D01*
X109949322Y-46949322D01*
X110150492Y-46719932D01*
X110319999Y-46466247D01*
X110352668Y-46400000D01*
X115667670Y-46400000D01*
X115686949Y-46608064D01*
X115686950Y-46608066D01*
X115744132Y-46809040D01*
X115744138Y-46809055D01*
X115837274Y-46996095D01*
X115963199Y-47162848D01*
X116117618Y-47303618D01*
X116117620Y-47303620D01*
X116295273Y-47413618D01*
X116295274Y-47413618D01*
X116295277Y-47413620D01*
X116490123Y-47489104D01*
X116695522Y-47527500D01*
X116695524Y-47527500D01*
X116904476Y-47527500D01*
X116904478Y-47527500D01*
X117109877Y-47489104D01*
X117304723Y-47413620D01*
X117482381Y-47303619D01*
X117636802Y-47162846D01*
X117762726Y-46996095D01*
X117855866Y-46809045D01*
X117913050Y-46608065D01*
X117932330Y-46400000D01*
X117923063Y-46300001D01*
X119167948Y-46300001D01*
X119186076Y-46437703D01*
X119186078Y-46437708D01*
X119239227Y-46566023D01*
X119239228Y-46566025D01*
X119239229Y-46566026D01*
X119323782Y-46676218D01*
X119433974Y-46760771D01*
X119562295Y-46813923D01*
X119631147Y-46822987D01*
X119699999Y-46832052D01*
X119700000Y-46832052D01*
X119700001Y-46832052D01*
X119745901Y-46826009D01*
X119837705Y-46813923D01*
X119966026Y-46760771D01*
X120076218Y-46676218D01*
X120160771Y-46566026D01*
X120213923Y-46437705D01*
X120232052Y-46300000D01*
X120213923Y-46162295D01*
X120160771Y-46033974D01*
X120076218Y-45923782D01*
X119966026Y-45839229D01*
X119966025Y-45839228D01*
X119966023Y-45839227D01*
X119837708Y-45786078D01*
X119837703Y-45786076D01*
X119700001Y-45767948D01*
X119699999Y-45767948D01*
X119562296Y-45786076D01*
X119562291Y-45786078D01*
X119433976Y-45839227D01*
X119323782Y-45923782D01*
X119239227Y-46033976D01*
X119186078Y-46162291D01*
X119186076Y-46162296D01*
X119167948Y-46299998D01*
X119167948Y-46300001D01*
X117923063Y-46300001D01*
X117923063Y-46299998D01*
X117913050Y-46191935D01*
X117913049Y-46191933D01*
X117904616Y-46162295D01*
X117855866Y-45990955D01*
X117762726Y-45803905D01*
X117636802Y-45637154D01*
X117636800Y-45637151D01*
X117482381Y-45496381D01*
X117482379Y-45496379D01*
X117304726Y-45386381D01*
X117304720Y-45386379D01*
X117109877Y-45310896D01*
X116904478Y-45272500D01*
X116695522Y-45272500D01*
X116490123Y-45310896D01*
X116366904Y-45358631D01*
X116295279Y-45386379D01*
X116295273Y-45386381D01*
X116117620Y-45496379D01*
X116117618Y-45496381D01*
X115963199Y-45637151D01*
X115837274Y-45803904D01*
X115744138Y-45990944D01*
X115744132Y-45990959D01*
X115686950Y-46191933D01*
X115686949Y-46191935D01*
X115667670Y-46399999D01*
X115667670Y-46400000D01*
X110352668Y-46400000D01*
X110454943Y-46192607D01*
X110553016Y-45903694D01*
X110612539Y-45604452D01*
X110632494Y-45300000D01*
X110612539Y-44995548D01*
X110553016Y-44696306D01*
X110520324Y-44600000D01*
X112267670Y-44600000D01*
X112286949Y-44808064D01*
X112286950Y-44808066D01*
X112344132Y-45009040D01*
X112344138Y-45009055D01*
X112437274Y-45196095D01*
X112563199Y-45362848D01*
X112717618Y-45503618D01*
X112717620Y-45503620D01*
X112895273Y-45613618D01*
X112895274Y-45613618D01*
X112895277Y-45613620D01*
X113090123Y-45689104D01*
X113295522Y-45727500D01*
X113295524Y-45727500D01*
X113504476Y-45727500D01*
X113504478Y-45727500D01*
X113709877Y-45689104D01*
X113904723Y-45613620D01*
X114082381Y-45503619D01*
X114236802Y-45362846D01*
X114362726Y-45196095D01*
X114455866Y-45009045D01*
X114513050Y-44808065D01*
X114532330Y-44600000D01*
X114513050Y-44391935D01*
X114455866Y-44190955D01*
X114443451Y-44166023D01*
X114379555Y-44037703D01*
X114362726Y-44003905D01*
X114236802Y-43837154D01*
X114236800Y-43837151D01*
X114082381Y-43696381D01*
X114082379Y-43696379D01*
X113904726Y-43586381D01*
X113904720Y-43586379D01*
X113904289Y-43586212D01*
X113709877Y-43510896D01*
X113504478Y-43472500D01*
X113295522Y-43472500D01*
X113090123Y-43510896D01*
X113061244Y-43522084D01*
X112895279Y-43586379D01*
X112895273Y-43586381D01*
X112717620Y-43696379D01*
X112717618Y-43696381D01*
X112563199Y-43837151D01*
X112437274Y-44003904D01*
X112344138Y-44190944D01*
X112344132Y-44190959D01*
X112286950Y-44391933D01*
X112286949Y-44391935D01*
X112267670Y-44599999D01*
X112267670Y-44600000D01*
X110520324Y-44600000D01*
X110454943Y-44407393D01*
X110390254Y-44276217D01*
X110320001Y-44133757D01*
X110319997Y-44133750D01*
X110150493Y-43880069D01*
X109949322Y-43650677D01*
X109719930Y-43449506D01*
X109466249Y-43280002D01*
X109466242Y-43279998D01*
X109192623Y-43145064D01*
X109192602Y-43145055D01*
X108903701Y-43046986D01*
X108903695Y-43046984D01*
X108903694Y-43046984D01*
X108903692Y-43046983D01*
X108903686Y-43046982D01*
X108604462Y-42987463D01*
X108604452Y-42987461D01*
X108300000Y-42967506D01*
X108299999Y-42967506D01*
X108147773Y-42977483D01*
X107995548Y-42987461D01*
X107995542Y-42987462D01*
X107995537Y-42987463D01*
X107696313Y-43046982D01*
X107696298Y-43046986D01*
X107407397Y-43145055D01*
X107407376Y-43145064D01*
X107133757Y-43279998D01*
X107133750Y-43280002D01*
X106880069Y-43449506D01*
X106650677Y-43650677D01*
X106449506Y-43880069D01*
X106280002Y-44133750D01*
X106279998Y-44133757D01*
X106145064Y-44407376D01*
X106145055Y-44407397D01*
X106046986Y-44696298D01*
X106046982Y-44696313D01*
X105987463Y-44995537D01*
X105987461Y-44995548D01*
X105967506Y-45300000D01*
X105500499Y-45300000D01*
X105500499Y-44002213D01*
X105500658Y-43997789D01*
X105515130Y-43795436D01*
X105517646Y-43777938D01*
X105559356Y-43586199D01*
X105564333Y-43569248D01*
X105632911Y-43385385D01*
X105640259Y-43369298D01*
X105651896Y-43347986D01*
X105734291Y-43197089D01*
X105743845Y-43182221D01*
X105861448Y-43025123D01*
X105873020Y-43011769D01*
X106011769Y-42873020D01*
X106025123Y-42861448D01*
X106182221Y-42743845D01*
X106197089Y-42734291D01*
X106369298Y-42640258D01*
X106385385Y-42632911D01*
X106569248Y-42564333D01*
X106586199Y-42559356D01*
X106777938Y-42517646D01*
X106795436Y-42515130D01*
X106997791Y-42500657D01*
X107002214Y-42500500D01*
X107047595Y-42500500D01*
X140000000Y-42500500D01*
X140000000Y-64200000D01*
G37*
%TD.AperFunction*%
%TD*%
M02*
