%TF.GenerationSoftware,KiCad,Pcbnew,7.0.2*%
%TF.CreationDate,2023-10-17T14:13:15-04:00*%
%TF.ProjectId,BITSv5,42495453-7635-42e6-9b69-6361645f7063,rev?*%
%TF.SameCoordinates,Original*%
%TF.FileFunction,Copper,L4,Bot*%
%TF.FilePolarity,Positive*%
%FSLAX46Y46*%
G04 Gerber Fmt 4.6, Leading zero omitted, Abs format (unit mm)*
G04 Created by KiCad (PCBNEW 7.0.2) date 2023-10-17 14:13:15*
%MOMM*%
%LPD*%
G01*
G04 APERTURE LIST*
G04 Aperture macros list*
%AMRoundRect*
0 Rectangle with rounded corners*
0 $1 Rounding radius*
0 $2 $3 $4 $5 $6 $7 $8 $9 X,Y pos of 4 corners*
0 Add a 4 corners polygon primitive as box body*
4,1,4,$2,$3,$4,$5,$6,$7,$8,$9,$2,$3,0*
0 Add four circle primitives for the rounded corners*
1,1,$1+$1,$2,$3*
1,1,$1+$1,$4,$5*
1,1,$1+$1,$6,$7*
1,1,$1+$1,$8,$9*
0 Add four rect primitives between the rounded corners*
20,1,$1+$1,$2,$3,$4,$5,0*
20,1,$1+$1,$4,$5,$6,$7,0*
20,1,$1+$1,$6,$7,$8,$9,0*
20,1,$1+$1,$8,$9,$2,$3,0*%
%AMFreePoly0*
4,1,12,0.600036,1.800036,0.600050,1.800000,0.600050,-0.600000,0.600035,-0.600035,0.600000,-0.600050,-1.800000,-0.600050,-1.800035,-0.600035,-1.800050,-0.600000,-1.800035,-0.599965,0.599965,1.800036,0.600000,1.800050,0.600036,1.800036,0.600036,1.800036,$1*%
G04 Aperture macros list end*
%TA.AperFunction,ComponentPad*%
%ADD10C,0.600000*%
%TD*%
%TA.AperFunction,ComponentPad*%
%ADD11C,4.400000*%
%TD*%
%TA.AperFunction,ComponentPad*%
%ADD12O,2.100000X1.000000*%
%TD*%
%TA.AperFunction,ComponentPad*%
%ADD13O,1.800000X1.000000*%
%TD*%
%TA.AperFunction,SMDPad,CuDef*%
%ADD14O,0.800000X1.500000*%
%TD*%
%TA.AperFunction,ComponentPad*%
%ADD15C,1.400000*%
%TD*%
%TA.AperFunction,ComponentPad*%
%ADD16R,3.500000X3.500000*%
%TD*%
%TA.AperFunction,ComponentPad*%
%ADD17C,3.500000*%
%TD*%
%TA.AperFunction,SMDPad,CuDef*%
%ADD18RoundRect,0.200000X0.200000X0.275000X-0.200000X0.275000X-0.200000X-0.275000X0.200000X-0.275000X0*%
%TD*%
%TA.AperFunction,SMDPad,CuDef*%
%ADD19FreePoly0,180.000000*%
%TD*%
%TA.AperFunction,SMDPad,CuDef*%
%ADD20R,4.100000X1.700000*%
%TD*%
%TA.AperFunction,SMDPad,CuDef*%
%ADD21R,0.550000X0.950000*%
%TD*%
%TA.AperFunction,SMDPad,CuDef*%
%ADD22RoundRect,0.225000X-0.225000X-0.250000X0.225000X-0.250000X0.225000X0.250000X-0.225000X0.250000X0*%
%TD*%
%TA.AperFunction,SMDPad,CuDef*%
%ADD23RoundRect,0.322500X-1.177500X-0.322500X1.177500X-0.322500X1.177500X0.322500X-1.177500X0.322500X0*%
%TD*%
%TA.AperFunction,SMDPad,CuDef*%
%ADD24RoundRect,0.325000X-1.175000X-0.325000X1.175000X-0.325000X1.175000X0.325000X-1.175000X0.325000X0*%
%TD*%
%TA.AperFunction,SMDPad,CuDef*%
%ADD25RoundRect,0.325000X-0.325000X1.425000X-0.325000X-1.425000X0.325000X-1.425000X0.325000X1.425000X0*%
%TD*%
%TA.AperFunction,SMDPad,CuDef*%
%ADD26RoundRect,0.200000X-0.200000X-0.275000X0.200000X-0.275000X0.200000X0.275000X-0.200000X0.275000X0*%
%TD*%
%TA.AperFunction,SMDPad,CuDef*%
%ADD27R,1.362800X2.259800*%
%TD*%
%TA.AperFunction,SMDPad,CuDef*%
%ADD28RoundRect,0.237500X0.250000X0.237500X-0.250000X0.237500X-0.250000X-0.237500X0.250000X-0.237500X0*%
%TD*%
%TA.AperFunction,SMDPad,CuDef*%
%ADD29RoundRect,0.237500X-0.250000X-0.237500X0.250000X-0.237500X0.250000X0.237500X-0.250000X0.237500X0*%
%TD*%
%TA.AperFunction,SMDPad,CuDef*%
%ADD30RoundRect,0.175000X0.175000X-0.725000X0.175000X0.725000X-0.175000X0.725000X-0.175000X-0.725000X0*%
%TD*%
%TA.AperFunction,SMDPad,CuDef*%
%ADD31RoundRect,0.200000X0.200000X-0.700000X0.200000X0.700000X-0.200000X0.700000X-0.200000X-0.700000X0*%
%TD*%
%TA.AperFunction,ViaPad*%
%ADD32C,0.450000*%
%TD*%
%TA.AperFunction,ViaPad*%
%ADD33C,0.750000*%
%TD*%
%TA.AperFunction,ViaPad*%
%ADD34C,0.600000*%
%TD*%
%TA.AperFunction,ViaPad*%
%ADD35C,1.000000*%
%TD*%
%TA.AperFunction,Conductor*%
%ADD36C,0.450000*%
%TD*%
%TA.AperFunction,Conductor*%
%ADD37C,0.250000*%
%TD*%
%TA.AperFunction,Conductor*%
%ADD38C,0.200000*%
%TD*%
%TA.AperFunction,Conductor*%
%ADD39C,0.800000*%
%TD*%
%TA.AperFunction,Conductor*%
%ADD40C,0.600000*%
%TD*%
%TA.AperFunction,Conductor*%
%ADD41C,0.420000*%
%TD*%
G04 APERTURE END LIST*
D10*
%TO.P,U1,57,GND*%
%TO.N,GND*%
X129105000Y-68123100D03*
X130380000Y-68123100D03*
X131655000Y-68123100D03*
X129105000Y-66848100D03*
X130380000Y-66848100D03*
X131655000Y-66848100D03*
X129105000Y-65573100D03*
X130380000Y-65573100D03*
X131655000Y-65573100D03*
%TD*%
D11*
%TO.P,H2,1*%
%TO.N,N/C*%
X108225000Y-84200000D03*
%TD*%
D12*
%TO.P,J2,S1,SHIELD*%
%TO.N,GND*%
X112900100Y-64278102D03*
D13*
X108720100Y-64278102D03*
D12*
X112900100Y-72918102D03*
D13*
X108720100Y-72918102D03*
%TD*%
D14*
%TO.P,J3,5,Pin_5*%
%TO.N,unconnected-(J3-Pin_5-Pad5)*%
X116870000Y-44060000D03*
%TO.P,J3,6,Pin_6*%
%TO.N,unconnected-(J3-Pin_6-Pad6)*%
X115600000Y-44060000D03*
%TO.P,J3,7,Pin_7*%
%TO.N,unconnected-(J3-Pin_7-Pad7)*%
X114330000Y-44060000D03*
%TO.P,J3,8,Pin_8*%
%TO.N,GND*%
X113060000Y-44060000D03*
%TD*%
D15*
%TO.P,BT1,*%
%TO.N,*%
X109205100Y-61223102D03*
X109205100Y-50223102D03*
D16*
%TO.P,BT1,1,+*%
%TO.N,+BATT*%
X119205100Y-53223102D03*
D17*
%TO.P,BT1,2,-*%
%TO.N,GND*%
X119205100Y-58223102D03*
%TD*%
D11*
%TO.P,H3,1,1*%
%TO.N,GND*%
X149225000Y-84200000D03*
%TD*%
%TO.P,H1,1*%
%TO.N,N/C*%
X108225000Y-45200000D03*
%TD*%
%TO.P,H4,1*%
%TO.N,N/C*%
X149225000Y-45200000D03*
%TD*%
D18*
%TO.P,R9,2*%
%TO.N,/SDA*%
X118375000Y-81675000D03*
%TO.P,R9,1*%
%TO.N,+3V3*%
X120025000Y-81675000D03*
%TD*%
D19*
%TO.P,BT2,1,+*%
%TO.N,Net-(BT2-+)*%
X146550000Y-49325000D03*
D20*
%TO.P,BT2,2,-*%
%TO.N,GND*%
X148000000Y-53275000D03*
%TD*%
D21*
%TO.P,U11,1,VDD*%
%TO.N,+3V3*%
X115800000Y-77925000D03*
%TO.P,U11,2,PS*%
X117050000Y-77925000D03*
%TO.P,U11,3,GND*%
%TO.N,GND*%
X118300000Y-77925000D03*
%TO.P,U11,4,CSB*%
X119550000Y-77925000D03*
%TO.P,U11,5,CSB*%
X119550000Y-80075000D03*
%TO.P,U11,6,SDO*%
%TO.N,unconnected-(U11-SDO-Pad6)*%
X118300000Y-80075000D03*
%TO.P,U11,7,SDI/SDA*%
%TO.N,/SDA*%
X117050000Y-80075000D03*
%TO.P,U11,8,SCLK*%
%TO.N,/SCL*%
X115800000Y-80075000D03*
%TD*%
D22*
%TO.P,C29,1*%
%TO.N,+3V3*%
X116350000Y-76375000D03*
%TO.P,C29,2*%
%TO.N,GND*%
X117900000Y-76375000D03*
%TD*%
D23*
%TO.P,U4,1,SW*%
%TO.N,/DRF_SW*%
X123965000Y-74210000D03*
D24*
%TO.P,U4,2,GND*%
%TO.N,GND*%
X123965000Y-71665000D03*
%TO.P,U4,3,TXEN*%
%TO.N,/DRF_TXEN*%
X123965000Y-69125000D03*
%TO.P,U4,4,GND*%
%TO.N,GND*%
X123965000Y-66585000D03*
%TO.P,U4,5,GND*%
X123965000Y-64045000D03*
%TO.P,U4,6,VDD*%
%TO.N,+5V*%
X123965000Y-61505000D03*
%TO.P,U4,7,VDD*%
X123965000Y-58965000D03*
%TO.P,U4,8,DIO1*%
%TO.N,/DRF_DIO1*%
X142965000Y-58965000D03*
%TO.P,U4,9,BUSY*%
%TO.N,/DRF_BUSY*%
X142965000Y-61505000D03*
%TO.P,U4,10,RST*%
%TO.N,/RESET*%
X142965000Y-64045000D03*
%TO.P,U4,11,MISO*%
%TO.N,/DRF_MISO*%
X142965000Y-66585000D03*
%TO.P,U4,12,MOSI*%
%TO.N,/DRF_MOSI*%
X142965000Y-69125000D03*
%TO.P,U4,13,SCK*%
%TO.N,/DRF_CLK*%
X142965000Y-71665000D03*
D23*
%TO.P,U4,14,NSS*%
%TO.N,/DRF_CS*%
X142965000Y-74210000D03*
D25*
%TO.P,U4,15,GND*%
%TO.N,GND*%
X142135000Y-84815000D03*
%TO.P,U4,16,ANT*%
%TO.N,Net-(AE2-A)*%
X139595000Y-84815000D03*
%TO.P,U4,17,GND*%
%TO.N,GND*%
X137055000Y-84815000D03*
%TD*%
D26*
%TO.P,R6,1*%
%TO.N,+3V3*%
X115275000Y-81675000D03*
%TO.P,R6,2*%
%TO.N,/SCL*%
X116925000Y-81675000D03*
%TD*%
D27*
%TO.P,AE1,1,A*%
%TO.N,Net-(AE1-A)*%
X130101301Y-44155000D03*
%TO.P,AE1,2*%
%TO.N,N/C*%
X123175899Y-44155000D03*
%TD*%
D28*
%TO.P,R8,1*%
%TO.N,Net-(J2-CC2)*%
X110932600Y-70348102D03*
%TO.P,R8,2*%
%TO.N,GND*%
X109107600Y-70348102D03*
%TD*%
D29*
%TO.P,R7,1*%
%TO.N,GND*%
X109107600Y-67348102D03*
%TO.P,R7,2*%
%TO.N,Net-(J2-CC1)*%
X110932600Y-67348102D03*
%TD*%
D30*
%TO.P,U3,1,GND*%
%TO.N,GND*%
X144300000Y-53200000D03*
D31*
%TO.P,U3,2,TXD*%
%TO.N,unconnected-(U3-TXD-Pad2)*%
X143200000Y-53200000D03*
%TO.P,U3,3,RXD*%
%TO.N,unconnected-(U3-RXD-Pad3)*%
X142100000Y-53200000D03*
%TO.P,U3,4,TIMEPULSE*%
%TO.N,unconnected-(U3-TIMEPULSE-Pad4)*%
X141000000Y-53200000D03*
%TO.P,U3,5,EXTINT*%
%TO.N,unconnected-(U3-EXTINT-Pad5)*%
X139900000Y-53200000D03*
%TO.P,U3,6,V_BCKP*%
%TO.N,Net-(BT2-+)*%
X138800000Y-53200000D03*
%TO.P,U3,7,VCC_IO*%
%TO.N,+3V3*%
X137700000Y-53200000D03*
%TO.P,U3,8,VCC*%
X136600000Y-53200000D03*
D30*
%TO.P,U3,9,~{RESET}*%
%TO.N,unconnected-(U3-~{RESET}-Pad9)*%
X135500000Y-53200000D03*
%TO.P,U3,10,GND*%
%TO.N,GND*%
X135500000Y-43700000D03*
D31*
%TO.P,U3,11,RF_IN*%
%TO.N,Net-(AE1-A)*%
X136600000Y-43700000D03*
%TO.P,U3,12,GND*%
%TO.N,GND*%
X137700000Y-43700000D03*
%TO.P,U3,13,LNA_EN*%
%TO.N,unconnected-(U3-LNA_EN-Pad13)*%
X138800000Y-43700000D03*
%TO.P,U3,14,VCC_RF*%
%TO.N,unconnected-(U3-VCC_RF-Pad14)*%
X139900000Y-43700000D03*
%TO.P,U3,15,VIO_SEL*%
%TO.N,unconnected-(U3-VIO_SEL-Pad15)*%
X141000000Y-43700000D03*
%TO.P,U3,16,SDA*%
%TO.N,/SDA*%
X142100000Y-43700000D03*
%TO.P,U3,17,SCL*%
%TO.N,/SCL*%
X143200000Y-43700000D03*
D30*
%TO.P,U3,18,~{SAFEBOOT}*%
%TO.N,unconnected-(U3-~{SAFEBOOT}-Pad18)*%
X144300000Y-43700000D03*
%TD*%
D32*
%TO.N,+3V3*%
X131980000Y-61570000D03*
X127850000Y-66120000D03*
X137670000Y-49440000D03*
X136940000Y-50060000D03*
%TO.N,GND*%
X124366402Y-75571000D03*
X145110000Y-52070000D03*
X129320000Y-51530000D03*
%TO.N,/LVC_CUTOFF*%
X114300000Y-53180000D03*
%TO.N,GND*%
X118330000Y-64650000D03*
X119030000Y-66350000D03*
X120270000Y-73110000D03*
%TO.N,Net-(SW3-C)*%
X128030000Y-50530000D03*
X114210000Y-51860000D03*
%TO.N,/LED*%
X128080000Y-71150000D03*
%TO.N,GND*%
X111250000Y-48060000D03*
%TO.N,/RP_SWD*%
X116120000Y-63650000D03*
%TO.N,/RP_SWCLK*%
X115540000Y-64380000D03*
%TO.N,/RP_SWD*%
X128700000Y-64340000D03*
%TO.N,/RP_SWCLK*%
X128110000Y-64730000D03*
%TO.N,GND*%
X129911937Y-49298063D03*
X132660000Y-49360000D03*
%TO.N,+3V3*%
X135858068Y-66081932D03*
%TO.N,/DRF_SW*%
X128040000Y-73330000D03*
%TO.N,/DRF_TXEN*%
X127010000Y-70160000D03*
%TO.N,/DRF_BUSY*%
X134570000Y-62070000D03*
%TO.N,/DRF_DIO1*%
X133990000Y-61550000D03*
D33*
%TO.N,GND*%
X133930000Y-60620000D03*
D32*
%TO.N,/DRF_TXEN*%
X131231819Y-69308181D03*
%TO.N,GND*%
X140470000Y-45050000D03*
X138910000Y-45090000D03*
X137690000Y-46840000D03*
X137310000Y-47740000D03*
X136550000Y-48360000D03*
X135590000Y-48410000D03*
X134580000Y-48420000D03*
X133530000Y-48380000D03*
X132280000Y-48330000D03*
X130760000Y-48290000D03*
X129270000Y-48320000D03*
X127930000Y-48350000D03*
X126370000Y-48360000D03*
X125060000Y-48350000D03*
X123650000Y-48360000D03*
X122350000Y-48340000D03*
X121170000Y-48340000D03*
X119800000Y-48280000D03*
X119380000Y-47400000D03*
X119330000Y-46060000D03*
X119330000Y-44990000D03*
X119370000Y-43840000D03*
X119400000Y-42890000D03*
X135740000Y-45210000D03*
X135120000Y-45800000D03*
X134460000Y-46110000D03*
X133640000Y-46150000D03*
X133580000Y-47650000D03*
X134420000Y-47650000D03*
X135480000Y-47590000D03*
X136240000Y-47090000D03*
X136780000Y-46560000D03*
X137360000Y-45850000D03*
X137350000Y-45140000D03*
%TO.N,/RESET*%
X140820000Y-64090000D03*
%TO.N,/DRF_BUSY*%
X133560000Y-70290000D03*
%TO.N,+3V3*%
X121150000Y-80250000D03*
%TO.N,/SDA*%
X132076477Y-64181879D03*
%TO.N,/SCL*%
X131190327Y-64209620D03*
%TO.N,GND*%
X137500000Y-70690000D03*
%TO.N,/RESET*%
X132970000Y-73980000D03*
%TO.N,GND*%
X143510000Y-67810000D03*
X141490000Y-70360000D03*
X143250000Y-72900000D03*
X139710000Y-71800000D03*
%TO.N,+3V3*%
X135350000Y-76330000D03*
%TO.N,VCC*%
X127920000Y-49590000D03*
X131480000Y-57790000D03*
D34*
X131040000Y-54550000D03*
%TO.N,+BATT*%
X122310000Y-56440000D03*
%TO.N,VBUS*%
X129660000Y-56280000D03*
X129680000Y-55360000D03*
D32*
%TO.N,GND*%
X119520000Y-64660000D03*
X121830000Y-69150000D03*
%TO.N,+3V3*%
X121060000Y-68690000D03*
X126660000Y-63470000D03*
%TO.N,/DRF_DIO1*%
X132515000Y-69345000D03*
%TO.N,/DRF_SW*%
X132460000Y-71530000D03*
%TO.N,GND*%
X130800000Y-73220000D03*
X133810000Y-76160000D03*
X138600000Y-78430000D03*
X133270000Y-83340000D03*
%TO.N,+3V3*%
X114730000Y-77640000D03*
%TO.N,GND*%
X117780000Y-71020000D03*
X117780000Y-69220000D03*
X117820000Y-68480000D03*
X117790000Y-67820000D03*
%TO.N,+3V3*%
X120340000Y-70390000D03*
X127980000Y-71830000D03*
X130690000Y-71720000D03*
D34*
X133120000Y-72760000D03*
%TO.N,+5V*%
X119610000Y-61960000D03*
X118590000Y-61970000D03*
X118600000Y-62790000D03*
X119660000Y-62810000D03*
X119660000Y-63640000D03*
X118610000Y-63640000D03*
%TO.N,GND*%
X148450000Y-64020000D03*
%TO.N,+5V*%
X149450000Y-62020000D03*
X150260000Y-61310000D03*
X148720000Y-61340000D03*
X147840000Y-60120000D03*
X147050000Y-60100000D03*
X146030000Y-61340000D03*
X146040000Y-62250000D03*
X146040000Y-63180000D03*
%TO.N,+3V3*%
X149570000Y-56600000D03*
X150220000Y-57200000D03*
X148880000Y-57160000D03*
X147810000Y-58370000D03*
X146950000Y-58370000D03*
X146060000Y-57380000D03*
X146090000Y-56400000D03*
X146080000Y-55370000D03*
D32*
%TO.N,GND*%
X150980000Y-52610000D03*
X151120000Y-54330000D03*
%TO.N,Net-(BT2-+)*%
X149400000Y-49360000D03*
%TO.N,GND*%
X126280000Y-60380000D03*
X127000000Y-60530000D03*
%TO.N,+BATT*%
X125490000Y-58040000D03*
%TO.N,VBUS*%
X127100000Y-59790000D03*
%TO.N,Net-(BT2-+)*%
X138920000Y-48590000D03*
X145450000Y-48200000D03*
%TO.N,+3V3*%
X140490000Y-48660000D03*
X142020000Y-48600000D03*
X143570000Y-48610000D03*
%TO.N,/SCL*%
X143200000Y-45090000D03*
%TO.N,/SDA*%
X142090000Y-45060000D03*
%TO.N,GND*%
X143480000Y-75790000D03*
X142330000Y-75850000D03*
X141310000Y-75910000D03*
X140580000Y-76520000D03*
X140100000Y-77410000D03*
X139770000Y-78650000D03*
X138930000Y-79450000D03*
X138070000Y-80230000D03*
X137130000Y-81170000D03*
X136260000Y-82120000D03*
X135460000Y-82970000D03*
X135460000Y-84170000D03*
X135450000Y-85310000D03*
X135470000Y-86420000D03*
X151350000Y-65530000D03*
X150440000Y-65540000D03*
X149380000Y-65490000D03*
X148380000Y-65500000D03*
X147450000Y-65490000D03*
X146420000Y-65510000D03*
X145460000Y-66070000D03*
X145470000Y-67080000D03*
X145480000Y-67950000D03*
X145530000Y-69060000D03*
X145560000Y-70130000D03*
X145590000Y-71360000D03*
X145620000Y-72550000D03*
X145630000Y-73640000D03*
X145640000Y-74630000D03*
X150920000Y-80650000D03*
X149760000Y-80550000D03*
X148640000Y-80560000D03*
X147500000Y-80600000D03*
X146460000Y-80630000D03*
X145690000Y-80010000D03*
X145720000Y-78930000D03*
X145690000Y-75630000D03*
X144960000Y-75950000D03*
X144440000Y-76470000D03*
X143810000Y-77060000D03*
X143140000Y-77750000D03*
X142470000Y-78370000D03*
X141800000Y-79020000D03*
X141180000Y-79650000D03*
X145820000Y-77140000D03*
X145380000Y-77700000D03*
X144870000Y-78280000D03*
X144320000Y-78860000D03*
X143760000Y-79370000D03*
X143150000Y-79930000D03*
X142640000Y-80490000D03*
X142100000Y-81110000D03*
X141540000Y-81700000D03*
X141040000Y-82210000D03*
X140660000Y-80190000D03*
X140130000Y-80680000D03*
X139630000Y-81100000D03*
X139190000Y-81630000D03*
X138770000Y-82250000D03*
X138420000Y-83010000D03*
X138310000Y-83950000D03*
X138310000Y-84860000D03*
X138330000Y-85670000D03*
X138390000Y-86580000D03*
X140730000Y-86510000D03*
X140830000Y-85770000D03*
X140830000Y-85100000D03*
X140790000Y-84260000D03*
X140760000Y-83450000D03*
X140490000Y-82660000D03*
%TO.N,Net-(AE2-A)*%
X140540000Y-81460000D03*
%TO.N,/QSPI_SS*%
X127070000Y-74430000D03*
X128670000Y-77240000D03*
D33*
%TO.N,GND*%
X128050000Y-79580000D03*
%TO.N,+5V*%
X125550000Y-79980000D03*
D32*
%TO.N,/RESET*%
X124300000Y-83000000D03*
%TO.N,GND*%
X138620000Y-65550000D03*
X138810000Y-66800000D03*
X139770000Y-66720000D03*
X138260000Y-63780000D03*
X134980000Y-68400000D03*
X132860000Y-67850000D03*
%TO.N,/RESET*%
X134890000Y-64270000D03*
%TO.N,GND*%
X131120000Y-60530000D03*
%TO.N,/SDA*%
X133160000Y-62550000D03*
%TO.N,/SCL*%
X132664458Y-62034458D03*
%TO.N,/DRF_CS*%
X128626224Y-61453776D03*
%TO.N,/DRF_MISO*%
X130180000Y-60030000D03*
%TO.N,/DRF_CLK*%
X128840000Y-60840000D03*
%TO.N,/DRF_MOSI*%
X129440000Y-60378000D03*
D34*
%TO.N,GND*%
X141073000Y-50496899D03*
D32*
X124980000Y-55960000D03*
D34*
X139703000Y-54831899D03*
D32*
X129780000Y-57160000D03*
X118075000Y-78975000D03*
D34*
X122325000Y-51355000D03*
X108120100Y-67348102D03*
D32*
X127530000Y-53660000D03*
X117450000Y-78975000D03*
X128405000Y-51535000D03*
D34*
X133195000Y-54775000D03*
D32*
X130280000Y-57860000D03*
D34*
X136085000Y-49425000D03*
D32*
X118350000Y-75050000D03*
X116825000Y-79000000D03*
D33*
X114695000Y-74425000D03*
D34*
X137958000Y-57806899D03*
D32*
X126980000Y-73215600D03*
X126230000Y-51435000D03*
D34*
X108120100Y-70348102D03*
X142043000Y-50651899D03*
D32*
X122305000Y-57860000D03*
X125005000Y-53660000D03*
D35*
X141088101Y-65151899D03*
D32*
X127705000Y-51410000D03*
X122780000Y-57185000D03*
D34*
X136533000Y-57831899D03*
D32*
X127505000Y-55960000D03*
D34*
X123175000Y-51355000D03*
D32*
%TO.N,+3V3*%
X114400000Y-81625000D03*
D34*
X115025000Y-76525000D03*
D32*
%TO.N,VCC*%
X138403000Y-60226899D03*
%TO.N,Net-(U5-FB1)*%
X136860000Y-61520000D03*
X138323000Y-55086899D03*
%TO.N,Net-(U5-BIAS)*%
X136090000Y-61600000D03*
X136113000Y-55016899D03*
X139713000Y-55706899D03*
%TO.N,Net-(U5-VCC)*%
X139923000Y-57546899D03*
X139253000Y-60326899D03*
D34*
%TO.N,VBUS*%
X117005000Y-67825000D03*
X117005000Y-68555000D03*
X117015000Y-69295000D03*
D32*
%TO.N,Net-(J2-CC1)*%
X112245100Y-67348102D03*
%TO.N,/LED*%
X117637500Y-72400000D03*
%TO.N,/LVC_CUTOFF*%
X133473000Y-56416899D03*
%TO.N,Net-(J2-CC2)*%
X112145100Y-70348102D03*
%TD*%
D36*
%TO.N,+3V3*%
X137700000Y-49470000D02*
X137670000Y-49440000D01*
X137700000Y-53200000D02*
X137700000Y-49470000D01*
X136600000Y-50400000D02*
X136940000Y-50060000D01*
X136600000Y-53200000D02*
X136600000Y-50400000D01*
D37*
%TO.N,Net-(BT2-+)*%
X138920000Y-53080000D02*
X138920000Y-48590000D01*
X138800000Y-53200000D02*
X138920000Y-53080000D01*
%TO.N,Net-(U5-BIAS)*%
X138669899Y-54609899D02*
X136520000Y-54609899D01*
X136520000Y-54609899D02*
X136113000Y-55016899D01*
X139713000Y-55653000D02*
X138669899Y-54609899D01*
X139713000Y-55706899D02*
X139713000Y-55653000D01*
X140170000Y-59073899D02*
X136113000Y-55016899D01*
X140170000Y-60540000D02*
X140170000Y-59073899D01*
X139667000Y-61043000D02*
X140170000Y-60540000D01*
X136647000Y-61043000D02*
X139667000Y-61043000D01*
X136090000Y-61600000D02*
X136647000Y-61043000D01*
%TO.N,Net-(U5-FB1)*%
X141213000Y-57976899D02*
X138323000Y-55086899D01*
X141213000Y-60183842D02*
X141213000Y-57976899D01*
X139876842Y-61520000D02*
X141213000Y-60183842D01*
X136860000Y-61520000D02*
X139876842Y-61520000D01*
%TO.N,/DRF_DIO1*%
X137320582Y-62213000D02*
X135387580Y-62213000D01*
X137557581Y-61976000D02*
X137320582Y-62213000D01*
X135387580Y-62213000D02*
X134724580Y-61550000D01*
X134724580Y-61550000D02*
X133990000Y-61550000D01*
X142965000Y-58965000D02*
X139954000Y-61976000D01*
X139954000Y-61976000D02*
X137557581Y-61976000D01*
%TO.N,/DRF_BUSY*%
X135090000Y-62590000D02*
X134570000Y-62070000D01*
X137713740Y-62353000D02*
X137476741Y-62590000D01*
X142117000Y-62353000D02*
X137713740Y-62353000D01*
X137476741Y-62590000D02*
X135090000Y-62590000D01*
X142965000Y-61505000D02*
X142117000Y-62353000D01*
%TO.N,GND*%
X144300000Y-52880000D02*
X145110000Y-52070000D01*
X144300000Y-53200000D02*
X144300000Y-52880000D01*
%TO.N,/LVC_CUTOFF*%
X123580000Y-50610000D02*
X116870000Y-50610000D01*
X127770000Y-52320000D02*
X125290000Y-52320000D01*
X131866899Y-56416899D02*
X127770000Y-52320000D01*
X116870000Y-50610000D02*
X114300000Y-53180000D01*
X133473000Y-56416899D02*
X131866899Y-56416899D01*
X125290000Y-52320000D02*
X123580000Y-50610000D01*
D36*
%TO.N,Net-(SW3-C)*%
X126660000Y-50000000D02*
X127190000Y-50530000D01*
X116070000Y-50000000D02*
X126660000Y-50000000D01*
X127190000Y-50530000D02*
X128030000Y-50530000D01*
X114210000Y-51860000D02*
X116070000Y-50000000D01*
%TO.N,GND*%
X119340000Y-65660000D02*
X118330000Y-64650000D01*
X121780000Y-65660000D02*
X119340000Y-65660000D01*
X123395000Y-64045000D02*
X121780000Y-65660000D01*
X123965000Y-64045000D02*
X123395000Y-64045000D01*
X119265000Y-66585000D02*
X119030000Y-66350000D01*
X123965000Y-66585000D02*
X119265000Y-66585000D01*
X121715000Y-71665000D02*
X120270000Y-73110000D01*
X123965000Y-71665000D02*
X121715000Y-71665000D01*
D38*
%TO.N,/LED*%
X119830000Y-72400000D02*
X117637500Y-72400000D01*
X125730000Y-70480000D02*
X121750000Y-70480000D01*
X126400000Y-71150000D02*
X125730000Y-70480000D01*
X121750000Y-70480000D02*
X119830000Y-72400000D01*
X128080000Y-71150000D02*
X126400000Y-71150000D01*
D37*
%TO.N,VCC*%
X132930000Y-59240000D02*
X137416101Y-59240000D01*
X131480000Y-57790000D02*
X132930000Y-59240000D01*
X137416101Y-59240000D02*
X138403000Y-60226899D01*
D36*
%TO.N,GND*%
X111250000Y-44560000D02*
X111250000Y-48060000D01*
X111750000Y-44060000D02*
X111250000Y-44560000D01*
X113060000Y-44060000D02*
X111750000Y-44060000D01*
D37*
%TO.N,/SDA*%
X118375000Y-82555000D02*
X118375000Y-81675000D01*
X118960000Y-83140000D02*
X118375000Y-82555000D01*
X120536842Y-83140000D02*
X118960000Y-83140000D01*
X121623421Y-82053421D02*
X120536842Y-83140000D01*
X121623421Y-80683421D02*
X121623421Y-82053421D01*
X124366842Y-77940000D02*
X121623421Y-80683421D01*
X128780000Y-77940000D02*
X124366842Y-77940000D01*
X129430000Y-71510000D02*
X129430000Y-77290000D01*
X126920000Y-69000000D02*
X129430000Y-71510000D01*
X130654580Y-63000000D02*
X127910000Y-63000000D01*
X131836459Y-64181879D02*
X130654580Y-63000000D01*
X129430000Y-77290000D02*
X128780000Y-77940000D01*
X127910000Y-63000000D02*
X126920000Y-63990000D01*
X126920000Y-63990000D02*
X126920000Y-69000000D01*
X132076477Y-64181879D02*
X131836459Y-64181879D01*
%TO.N,/SCL*%
X116980000Y-81730000D02*
X116925000Y-81675000D01*
X116980000Y-83000000D02*
X116980000Y-81730000D01*
X117510000Y-83530000D02*
X116980000Y-83000000D01*
X117510000Y-83540000D02*
X117510000Y-83530000D01*
X120670000Y-83540000D02*
X117510000Y-83540000D01*
X122000421Y-82209579D02*
X120670000Y-83540000D01*
X122000421Y-80839579D02*
X122000421Y-82209579D01*
X124510000Y-78330000D02*
X122000421Y-80839579D01*
X128923158Y-78330000D02*
X124510000Y-78330000D01*
X127297000Y-68843842D02*
X129807000Y-71353842D01*
X129807000Y-71353842D02*
X129807000Y-77446158D01*
X127297000Y-64146158D02*
X127297000Y-68843842D01*
X128066158Y-63377000D02*
X127297000Y-64146158D01*
X131190327Y-64209620D02*
X130357707Y-63377000D01*
X129807000Y-77446158D02*
X128923158Y-78330000D01*
X130357707Y-63377000D02*
X128066158Y-63377000D01*
%TO.N,/DRF_SW*%
X127417000Y-73953000D02*
X128040000Y-73330000D01*
X124222000Y-73953000D02*
X127417000Y-73953000D01*
X123965000Y-74210000D02*
X124222000Y-73953000D01*
%TO.N,/DRF_TXEN*%
X125975000Y-69125000D02*
X127010000Y-70160000D01*
X123965000Y-69125000D02*
X125975000Y-69125000D01*
%TO.N,/DRF_MISO*%
X133637000Y-62357000D02*
X133637000Y-62332420D01*
X131334580Y-60030000D02*
X130180000Y-60030000D01*
X135073000Y-63793000D02*
X133637000Y-62357000D01*
X137810000Y-66150000D02*
X135453000Y-63793000D01*
X142530000Y-66150000D02*
X137810000Y-66150000D01*
X133637000Y-62332420D02*
X131334580Y-60030000D01*
X142965000Y-66585000D02*
X142530000Y-66150000D01*
X135453000Y-63793000D02*
X135073000Y-63793000D01*
%TO.N,/DRF_MOSI*%
X130148421Y-60513000D02*
X129575000Y-60513000D01*
X134382420Y-64747000D02*
X130148421Y-60513000D01*
X135807000Y-64747000D02*
X134382420Y-64747000D01*
X140185000Y-69125000D02*
X135807000Y-64747000D01*
X129575000Y-60513000D02*
X129440000Y-60378000D01*
X142965000Y-69125000D02*
X140185000Y-69125000D01*
%TO.N,/DRF_CLK*%
X128890000Y-60890000D02*
X128840000Y-60840000D01*
X129992262Y-60890000D02*
X128890000Y-60890000D01*
X140767262Y-71665000D02*
X129992262Y-60890000D01*
X142965000Y-71665000D02*
X140767262Y-71665000D01*
%TO.N,/DRF_CS*%
X128699448Y-61527000D02*
X128626224Y-61453776D01*
X138620000Y-70050896D02*
X130096104Y-61527000D01*
X130096104Y-61527000D02*
X128699448Y-61527000D01*
X141299420Y-74210000D02*
X138620000Y-71530580D01*
X142965000Y-74210000D02*
X141299420Y-74210000D01*
X138620000Y-71530580D02*
X138620000Y-70050896D01*
%TO.N,VCC*%
X131040000Y-51100000D02*
X131040000Y-54550000D01*
X129530000Y-49590000D02*
X131040000Y-51100000D01*
X127920000Y-49590000D02*
X129530000Y-49590000D01*
D38*
%TO.N,/RESET*%
X140865000Y-64045000D02*
X140820000Y-64090000D01*
X142965000Y-64045000D02*
X140865000Y-64045000D01*
D37*
%TO.N,/QSPI_SS*%
X128670000Y-77240000D02*
X128670000Y-76030000D01*
X128670000Y-76030000D02*
X127070000Y-74430000D01*
%TO.N,+3V3*%
X120025000Y-81375000D02*
X121150000Y-80250000D01*
X120025000Y-81675000D02*
X120025000Y-81375000D01*
%TO.N,/SDA*%
X118375000Y-81675000D02*
X118375000Y-81400000D01*
X118375000Y-81400000D02*
X117050000Y-80075000D01*
D38*
%TO.N,/RESET*%
X134440000Y-82200000D02*
X125100000Y-82200000D01*
X125100000Y-82200000D02*
X124300000Y-83000000D01*
X137420000Y-79220000D02*
X134440000Y-82200000D01*
X137420000Y-77760775D02*
X137420000Y-79220000D01*
X133639225Y-73980000D02*
X137420000Y-77760775D01*
X132970000Y-73980000D02*
X133639225Y-73980000D01*
D36*
%TO.N,VBUS*%
X127100000Y-58840000D02*
X129660000Y-56280000D01*
X127100000Y-59790000D02*
X127100000Y-58840000D01*
D39*
X116450000Y-57120000D02*
X117850000Y-55720000D01*
X116450000Y-60491643D02*
X116450000Y-57120000D01*
X117850000Y-55720000D02*
X122001866Y-55720000D01*
X122001866Y-55720000D02*
X122511866Y-55210000D01*
X129530000Y-55210000D02*
X129680000Y-55360000D01*
X117015000Y-61056643D02*
X116450000Y-60491643D01*
X117015000Y-69295000D02*
X117015000Y-61056643D01*
X122511866Y-55210000D02*
X129530000Y-55210000D01*
D40*
X129680000Y-55360000D02*
X129680000Y-56260000D01*
X129680000Y-56260000D02*
X129660000Y-56280000D01*
D36*
%TO.N,GND*%
X150315000Y-53275000D02*
X150980000Y-52610000D01*
X148000000Y-53275000D02*
X150315000Y-53275000D01*
%TO.N,Net-(BT2-+)*%
X149365000Y-49325000D02*
X149400000Y-49360000D01*
X146550000Y-49325000D02*
X149365000Y-49325000D01*
X146550000Y-49300000D02*
X145450000Y-48200000D01*
X146550000Y-49325000D02*
X146550000Y-49300000D01*
D37*
%TO.N,/SCL*%
X143200000Y-43700000D02*
X143200000Y-45090000D01*
%TO.N,/SDA*%
X142100000Y-45050000D02*
X142090000Y-45060000D01*
X142100000Y-43700000D02*
X142100000Y-45050000D01*
D41*
%TO.N,Net-(AE1-A)*%
X130101301Y-45631301D02*
X130101301Y-44155000D01*
X135230000Y-46920000D02*
X131390000Y-46920000D01*
X136600000Y-45550000D02*
X135230000Y-46920000D01*
X136600000Y-43700000D02*
X136600000Y-45550000D01*
X131390000Y-46920000D02*
X130101301Y-45631301D01*
%TO.N,Net-(AE2-A)*%
X139595000Y-82405000D02*
X140540000Y-81460000D01*
X139595000Y-84815000D02*
X139595000Y-82405000D01*
D40*
%TO.N,GND*%
X109107600Y-67348102D02*
X108120100Y-67348102D01*
D37*
X117900000Y-76375000D02*
X117900000Y-75500000D01*
D40*
X109107600Y-70348102D02*
X108120100Y-70348102D01*
D37*
X117900000Y-75500000D02*
X118350000Y-75050000D01*
%TO.N,+3V3*%
X114450000Y-81675000D02*
X114400000Y-81625000D01*
X115275000Y-81675000D02*
X114450000Y-81675000D01*
%TO.N,Net-(J2-CC1)*%
X110932600Y-67348102D02*
X112245100Y-67348102D01*
%TO.N,Net-(J2-CC2)*%
X110932600Y-70348102D02*
X112145100Y-70348102D01*
%TO.N,/SCL*%
X116925000Y-81675000D02*
X116925000Y-81200000D01*
X116925000Y-81200000D02*
X115800000Y-80075000D01*
%TD*%
%TA.AperFunction,Conductor*%
%TO.N,+3V3*%
G36*
X117268039Y-75894685D02*
G01*
X117313794Y-75947489D01*
X117325000Y-75999000D01*
X117325000Y-76065404D01*
X117323704Y-76083284D01*
X117322500Y-76091546D01*
X117322500Y-76658451D01*
X117323705Y-76666717D01*
X117325000Y-76684592D01*
X117325000Y-78276000D01*
X117305315Y-78343039D01*
X117252511Y-78388794D01*
X117201000Y-78400000D01*
X115649000Y-78400000D01*
X115581961Y-78380315D01*
X115536206Y-78327511D01*
X115525000Y-78276000D01*
X115525000Y-77175000D01*
X114524000Y-77175000D01*
X114456961Y-77155315D01*
X114411206Y-77102511D01*
X114400000Y-77051000D01*
X114400000Y-75999000D01*
X114419685Y-75931961D01*
X114472489Y-75886206D01*
X114524000Y-75875000D01*
X117201000Y-75875000D01*
X117268039Y-75894685D01*
G37*
%TD.AperFunction*%
%TD*%
%TA.AperFunction,Conductor*%
%TO.N,GND*%
G36*
X119793039Y-77444685D02*
G01*
X119838794Y-77497489D01*
X119850000Y-77549000D01*
X119850000Y-80451000D01*
X119830315Y-80518039D01*
X119777511Y-80563794D01*
X119726000Y-80575000D01*
X118849000Y-80575000D01*
X118781961Y-80555315D01*
X118736206Y-80502511D01*
X118725000Y-80451000D01*
X118725000Y-79450000D01*
X116624000Y-79450000D01*
X116556961Y-79430315D01*
X116511206Y-79377511D01*
X116500000Y-79326000D01*
X116500000Y-78656500D01*
X116519685Y-78589461D01*
X116572489Y-78543706D01*
X116624000Y-78532500D01*
X117197690Y-78532500D01*
X117201000Y-78532500D01*
X117229166Y-78529472D01*
X117231197Y-78529030D01*
X117250206Y-78527500D01*
X117337558Y-78527500D01*
X117374748Y-78520102D01*
X117410972Y-78495898D01*
X117477650Y-78475020D01*
X117479863Y-78475000D01*
X118000000Y-78475000D01*
X118000000Y-77549000D01*
X118019685Y-77481961D01*
X118072489Y-77436206D01*
X118124000Y-77425000D01*
X119726000Y-77425000D01*
X119793039Y-77444685D01*
G37*
%TD.AperFunction*%
%TD*%
%TA.AperFunction,Conductor*%
%TO.N,GND*%
G36*
X151867539Y-64689685D02*
G01*
X151913294Y-64742489D01*
X151924500Y-64794000D01*
X151924500Y-65956000D01*
X151904815Y-66023039D01*
X151852011Y-66068794D01*
X151800500Y-66080000D01*
X146090000Y-66080000D01*
X146090000Y-80030000D01*
X151800500Y-80030000D01*
X151867539Y-80049685D01*
X151913294Y-80102489D01*
X151924500Y-80154000D01*
X151924500Y-84196519D01*
X151924305Y-84203472D01*
X151907916Y-84495296D01*
X151906359Y-84509114D01*
X151857984Y-84793827D01*
X151854890Y-84807384D01*
X151774939Y-85084899D01*
X151770346Y-85098024D01*
X151659830Y-85364834D01*
X151653797Y-85377362D01*
X151514100Y-85630125D01*
X151506702Y-85641899D01*
X151339584Y-85877430D01*
X151330914Y-85888302D01*
X151138475Y-86103642D01*
X151128642Y-86113475D01*
X150913302Y-86305914D01*
X150902430Y-86314584D01*
X150666899Y-86481702D01*
X150655125Y-86489100D01*
X150402362Y-86628797D01*
X150389834Y-86634830D01*
X150123024Y-86745346D01*
X150109899Y-86749939D01*
X149832384Y-86829890D01*
X149818827Y-86832984D01*
X149534114Y-86881359D01*
X149520296Y-86882916D01*
X149228472Y-86899305D01*
X149221519Y-86899500D01*
X140135123Y-86899500D01*
X140068084Y-86879815D01*
X140022329Y-86827011D01*
X140012385Y-86757853D01*
X140041410Y-86694297D01*
X140094169Y-86658458D01*
X140107372Y-86653837D01*
X140133827Y-86644581D01*
X140133827Y-86644580D01*
X140133829Y-86644580D01*
X140243580Y-86563580D01*
X140324580Y-86453829D01*
X140324581Y-86453827D01*
X140369633Y-86325075D01*
X140372500Y-86294502D01*
X140372500Y-83335498D01*
X140369633Y-83304925D01*
X140324581Y-83176173D01*
X140324580Y-83176170D01*
X140243580Y-83066419D01*
X140133829Y-82985419D01*
X140015546Y-82944031D01*
X139958770Y-82903309D01*
X139933022Y-82838357D01*
X139932500Y-82826989D01*
X139932500Y-82596158D01*
X139952185Y-82529119D01*
X139968815Y-82508481D01*
X140603353Y-81873942D01*
X140646607Y-81850324D01*
X140646106Y-81849340D01*
X140663605Y-81840423D01*
X140663607Y-81840423D01*
X140775114Y-81783607D01*
X140863607Y-81695114D01*
X140920423Y-81583607D01*
X140940000Y-81460000D01*
X140920423Y-81336393D01*
X140863607Y-81224886D01*
X140775114Y-81136393D01*
X140663607Y-81079577D01*
X140663606Y-81079576D01*
X140663605Y-81079576D01*
X140539999Y-81059999D01*
X140416394Y-81079576D01*
X140304884Y-81136394D01*
X140216394Y-81224884D01*
X140150661Y-81353892D01*
X140149118Y-81353106D01*
X140130914Y-81391502D01*
X140126056Y-81396645D01*
X139370594Y-82152107D01*
X139362621Y-82159414D01*
X139332469Y-82184714D01*
X139312789Y-82218801D01*
X139306982Y-82227918D01*
X139283973Y-82260780D01*
X139273092Y-82287047D01*
X139266126Y-82326552D01*
X139263785Y-82337108D01*
X139253597Y-82375130D01*
X139257028Y-82414336D01*
X139257500Y-82425144D01*
X139257500Y-82826989D01*
X139237815Y-82894028D01*
X139185011Y-82939783D01*
X139174454Y-82944031D01*
X139056170Y-82985419D01*
X138946419Y-83066419D01*
X138865419Y-83176170D01*
X138820366Y-83304926D01*
X138817770Y-83332612D01*
X138817769Y-83332625D01*
X138817500Y-83335498D01*
X138817500Y-86294502D01*
X138817769Y-86297375D01*
X138817770Y-86297387D01*
X138820366Y-86325073D01*
X138865419Y-86453829D01*
X138946419Y-86563580D01*
X139056170Y-86644580D01*
X139095831Y-86658458D01*
X139152607Y-86699180D01*
X139178355Y-86764133D01*
X139164899Y-86832694D01*
X139116512Y-86883097D01*
X139054877Y-86899500D01*
X135184000Y-86899500D01*
X135116961Y-86879815D01*
X135071206Y-86827011D01*
X135060000Y-86775500D01*
X135060000Y-82831361D01*
X135079685Y-82764322D01*
X135096314Y-82743685D01*
X136600000Y-81240000D01*
X139670000Y-78150000D01*
X139670000Y-76911361D01*
X139689685Y-76844323D01*
X139706319Y-76823681D01*
X141093681Y-75436319D01*
X141155004Y-75402834D01*
X141181362Y-75400000D01*
X143930000Y-75400000D01*
X144470000Y-74860000D01*
X144470000Y-74859996D01*
X144476891Y-74843361D01*
X144491680Y-74817182D01*
X144544846Y-74745146D01*
X144589649Y-74617105D01*
X144592500Y-74586703D01*
X144592499Y-73833298D01*
X144589649Y-73802895D01*
X144544846Y-73674854D01*
X144494230Y-73606272D01*
X144470259Y-73540643D01*
X144470000Y-73532638D01*
X144470000Y-72345684D01*
X144489685Y-72278645D01*
X144494230Y-72272050D01*
X144544581Y-72203827D01*
X144589633Y-72075075D01*
X144592500Y-72044502D01*
X144592500Y-71285498D01*
X144589633Y-71254925D01*
X144544581Y-71126173D01*
X144544580Y-71126171D01*
X144494229Y-71057946D01*
X144470259Y-70992317D01*
X144470000Y-70984314D01*
X144470000Y-69805684D01*
X144489685Y-69738645D01*
X144494230Y-69732050D01*
X144544581Y-69663827D01*
X144589633Y-69535075D01*
X144592500Y-69504502D01*
X144592500Y-68745498D01*
X144589633Y-68714925D01*
X144544581Y-68586173D01*
X144544580Y-68586171D01*
X144494229Y-68517946D01*
X144470259Y-68452317D01*
X144470000Y-68444314D01*
X144470000Y-67265684D01*
X144489685Y-67198645D01*
X144494230Y-67192050D01*
X144544581Y-67123827D01*
X144589633Y-66995075D01*
X144592500Y-66964502D01*
X144592500Y-66205498D01*
X144589633Y-66174925D01*
X144544581Y-66046173D01*
X144544580Y-66046171D01*
X144494229Y-65977946D01*
X144470259Y-65912317D01*
X144470000Y-65904314D01*
X144470000Y-64794000D01*
X144489685Y-64726961D01*
X144542489Y-64681206D01*
X144594000Y-64670000D01*
X151800500Y-64670000D01*
X151867539Y-64689685D01*
G37*
%TD.AperFunction*%
%TD*%
%TA.AperFunction,Conductor*%
%TO.N,+5V*%
G36*
X125237166Y-58289685D02*
G01*
X125257808Y-58306319D01*
X125280222Y-58328733D01*
X125379713Y-58379426D01*
X125495398Y-58397749D01*
X125558533Y-58427678D01*
X125595464Y-58486990D01*
X125600000Y-58520222D01*
X125600000Y-62166000D01*
X125580315Y-62233039D01*
X125527511Y-62278794D01*
X125476000Y-62290000D01*
X123049999Y-62290000D01*
X121286319Y-64053681D01*
X121224996Y-64087166D01*
X121198638Y-64090000D01*
X118264000Y-64090000D01*
X118196961Y-64070315D01*
X118151206Y-64017511D01*
X118140000Y-63966000D01*
X118140000Y-61704000D01*
X118159685Y-61636961D01*
X118212489Y-61591206D01*
X118264000Y-61580000D01*
X120419999Y-61580000D01*
X120420000Y-61580000D01*
X120420000Y-60371361D01*
X120439685Y-60304322D01*
X120456314Y-60283685D01*
X122433680Y-58306318D01*
X122495004Y-58272834D01*
X122521362Y-58270000D01*
X125170127Y-58270000D01*
X125237166Y-58289685D01*
G37*
%TD.AperFunction*%
%TD*%
%TA.AperFunction,Conductor*%
%TO.N,GND*%
G36*
X119956639Y-42520185D02*
G01*
X120002394Y-42572989D01*
X120013600Y-42624500D01*
X120013599Y-47804999D01*
X120013600Y-47805000D01*
X133263600Y-47805000D01*
X133263600Y-47381500D01*
X133283285Y-47314461D01*
X133336089Y-47268706D01*
X133387600Y-47257500D01*
X135209855Y-47257500D01*
X135220661Y-47257971D01*
X135259869Y-47261402D01*
X135297919Y-47251205D01*
X135308426Y-47248876D01*
X135347212Y-47242038D01*
X135347215Y-47242035D01*
X135347958Y-47241905D01*
X135374215Y-47231029D01*
X135374830Y-47230597D01*
X135374834Y-47230597D01*
X135407100Y-47208002D01*
X135416193Y-47202211D01*
X135450287Y-47182528D01*
X135475596Y-47152364D01*
X135482884Y-47144411D01*
X136824411Y-45802884D01*
X136832364Y-45795596D01*
X136862528Y-45770287D01*
X136882211Y-45736193D01*
X136888002Y-45727100D01*
X136910597Y-45694834D01*
X136910597Y-45694830D01*
X136911029Y-45694215D01*
X136921905Y-45667958D01*
X136922035Y-45667215D01*
X136922038Y-45667212D01*
X136928876Y-45628426D01*
X136931205Y-45617919D01*
X136941402Y-45579869D01*
X136937972Y-45540661D01*
X136937500Y-45529854D01*
X136937500Y-44776236D01*
X136957185Y-44709197D01*
X136978228Y-44690816D01*
X136975284Y-44687872D01*
X137072411Y-44590744D01*
X137121221Y-44486071D01*
X137121220Y-44486071D01*
X137127500Y-44438375D01*
X137127499Y-42961626D01*
X137121221Y-42913929D01*
X137072411Y-42809256D01*
X137072410Y-42809255D01*
X137072410Y-42809254D01*
X136975337Y-42712181D01*
X136941852Y-42650858D01*
X136946836Y-42581166D01*
X136988708Y-42525233D01*
X137054172Y-42500816D01*
X137063018Y-42500500D01*
X137986000Y-42500500D01*
X138053039Y-42520185D01*
X138098794Y-42572989D01*
X138110000Y-42624500D01*
X138110000Y-47818638D01*
X138090315Y-47885677D01*
X138073681Y-47906319D01*
X137176319Y-48803681D01*
X137114996Y-48837166D01*
X137088638Y-48840000D01*
X119481362Y-48840000D01*
X119414323Y-48820315D01*
X119393681Y-48803681D01*
X118866319Y-48276319D01*
X118832834Y-48214996D01*
X118830000Y-48188638D01*
X118830000Y-42624500D01*
X118849685Y-42557461D01*
X118902489Y-42511706D01*
X118954000Y-42500500D01*
X119889600Y-42500500D01*
X119956639Y-42520185D01*
G37*
%TD.AperFunction*%
%TA.AperFunction,Conductor*%
G36*
X136204021Y-42520185D02*
G01*
X136249776Y-42572989D01*
X136259720Y-42642147D01*
X136230695Y-42705703D01*
X136224663Y-42712181D01*
X136127588Y-42809255D01*
X136078778Y-42913928D01*
X136073029Y-42957602D01*
X136073029Y-42957604D01*
X136072500Y-42961625D01*
X136072500Y-42965678D01*
X136072500Y-42965679D01*
X136072500Y-44434314D01*
X136072500Y-44434329D01*
X136072501Y-44438374D01*
X136073029Y-44442391D01*
X136073030Y-44442395D01*
X136078779Y-44486072D01*
X136127589Y-44590745D01*
X136224716Y-44687872D01*
X136221657Y-44690930D01*
X136243339Y-44710018D01*
X136262500Y-44776236D01*
X136262500Y-45358841D01*
X136242815Y-45425880D01*
X136226181Y-45446522D01*
X135126522Y-46546181D01*
X135065199Y-46579666D01*
X135038841Y-46582500D01*
X133387600Y-46582500D01*
X133320561Y-46562815D01*
X133274806Y-46510011D01*
X133263600Y-46458500D01*
X133263600Y-42624500D01*
X133283285Y-42557461D01*
X133336089Y-42511706D01*
X133387600Y-42500500D01*
X136136982Y-42500500D01*
X136204021Y-42520185D01*
G37*
%TD.AperFunction*%
%TD*%
M02*
