%TF.GenerationSoftware,KiCad,Pcbnew,7.0.5-0*%
%TF.CreationDate,2024-02-02T13:19:59-05:00*%
%TF.ProjectId,BITSv5,42495453-7635-42e6-9b69-6361645f7063,rev?*%
%TF.SameCoordinates,Original*%
%TF.FileFunction,Legend,Bot*%
%TF.FilePolarity,Positive*%
%FSLAX46Y46*%
G04 Gerber Fmt 4.6, Leading zero omitted, Abs format (unit mm)*
G04 Created by KiCad (PCBNEW 7.0.5-0) date 2024-02-02 13:19:59*
%MOMM*%
%LPD*%
G01*
G04 APERTURE LIST*
G04 Aperture macros list*
%AMRoundRect*
0 Rectangle with rounded corners*
0 $1 Rounding radius*
0 $2 $3 $4 $5 $6 $7 $8 $9 X,Y pos of 4 corners*
0 Add a 4 corners polygon primitive as box body*
4,1,4,$2,$3,$4,$5,$6,$7,$8,$9,$2,$3,0*
0 Add four circle primitives for the rounded corners*
1,1,$1+$1,$2,$3*
1,1,$1+$1,$4,$5*
1,1,$1+$1,$6,$7*
1,1,$1+$1,$8,$9*
0 Add four rect primitives between the rounded corners*
20,1,$1+$1,$2,$3,$4,$5,0*
20,1,$1+$1,$4,$5,$6,$7,0*
20,1,$1+$1,$6,$7,$8,$9,0*
20,1,$1+$1,$8,$9,$2,$3,0*%
G04 Aperture macros list end*
%ADD10C,0.150000*%
%ADD11C,0.125000*%
%ADD12C,0.508000*%
%ADD13C,0.120000*%
%ADD14C,0.127000*%
%ADD15C,0.000100*%
%ADD16C,0.889000*%
%ADD17C,4.400000*%
%ADD18C,0.650000*%
%ADD19O,2.100000X1.000000*%
%ADD20O,1.800000X1.000000*%
%ADD21R,1.700000X1.700000*%
%ADD22O,1.700000X1.700000*%
%ADD23C,1.400000*%
%ADD24R,3.500000X3.500000*%
%ADD25C,3.500000*%
%ADD26RoundRect,0.200000X0.200000X0.275000X-0.200000X0.275000X-0.200000X-0.275000X0.200000X-0.275000X0*%
%ADD27RoundRect,0.102000X2.050000X0.850000X-2.050000X0.850000X-2.050000X-0.850000X2.050000X-0.850000X0*%
%ADD28C,2.000000*%
%ADD29R,0.550000X0.950000*%
%ADD30RoundRect,0.225000X-0.225000X-0.250000X0.225000X-0.250000X0.225000X0.250000X-0.225000X0.250000X0*%
%ADD31RoundRect,0.322500X-1.177500X-0.322500X1.177500X-0.322500X1.177500X0.322500X-1.177500X0.322500X0*%
%ADD32RoundRect,0.325000X-1.175000X-0.325000X1.175000X-0.325000X1.175000X0.325000X-1.175000X0.325000X0*%
%ADD33RoundRect,0.325000X-0.325000X1.425000X-0.325000X-1.425000X0.325000X-1.425000X0.325000X1.425000X0*%
%ADD34RoundRect,0.200000X-0.200000X-0.275000X0.200000X-0.275000X0.200000X0.275000X-0.200000X0.275000X0*%
%ADD35R,1.000000X1.000000*%
%ADD36R,2.200000X1.050000*%
%ADD37R,1.362800X2.259800*%
%ADD38RoundRect,0.237500X0.250000X0.237500X-0.250000X0.237500X-0.250000X-0.237500X0.250000X-0.237500X0*%
%ADD39RoundRect,0.237500X-0.250000X-0.237500X0.250000X-0.237500X0.250000X0.237500X-0.250000X0.237500X0*%
%ADD40RoundRect,0.175000X0.175000X-0.725000X0.175000X0.725000X-0.175000X0.725000X-0.175000X-0.725000X0*%
%ADD41RoundRect,0.200000X0.200000X-0.700000X0.200000X0.700000X-0.200000X0.700000X-0.200000X-0.700000X0*%
G04 APERTURE END LIST*
D10*
%TO.C,BT2*%
X147233825Y-47706639D02*
X146166175Y-47706639D01*
X146700000Y-48240464D02*
X146700000Y-47172813D01*
%TO.C,TP1*%
X109461904Y-54156819D02*
X108890476Y-54156819D01*
X109176190Y-55156819D02*
X109176190Y-54156819D01*
X108557142Y-55156819D02*
X108557142Y-54156819D01*
X108557142Y-54156819D02*
X108176190Y-54156819D01*
X108176190Y-54156819D02*
X108080952Y-54204438D01*
X108080952Y-54204438D02*
X108033333Y-54252057D01*
X108033333Y-54252057D02*
X107985714Y-54347295D01*
X107985714Y-54347295D02*
X107985714Y-54490152D01*
X107985714Y-54490152D02*
X108033333Y-54585390D01*
X108033333Y-54585390D02*
X108080952Y-54633009D01*
X108080952Y-54633009D02*
X108176190Y-54680628D01*
X108176190Y-54680628D02*
X108557142Y-54680628D01*
X107033333Y-55156819D02*
X107604761Y-55156819D01*
X107319047Y-55156819D02*
X107319047Y-54156819D01*
X107319047Y-54156819D02*
X107414285Y-54299676D01*
X107414285Y-54299676D02*
X107509523Y-54394914D01*
X107509523Y-54394914D02*
X107604761Y-54442533D01*
%TO.C,TP2*%
X112861904Y-54556819D02*
X112290476Y-54556819D01*
X112576190Y-55556819D02*
X112576190Y-54556819D01*
X111957142Y-55556819D02*
X111957142Y-54556819D01*
X111957142Y-54556819D02*
X111576190Y-54556819D01*
X111576190Y-54556819D02*
X111480952Y-54604438D01*
X111480952Y-54604438D02*
X111433333Y-54652057D01*
X111433333Y-54652057D02*
X111385714Y-54747295D01*
X111385714Y-54747295D02*
X111385714Y-54890152D01*
X111385714Y-54890152D02*
X111433333Y-54985390D01*
X111433333Y-54985390D02*
X111480952Y-55033009D01*
X111480952Y-55033009D02*
X111576190Y-55080628D01*
X111576190Y-55080628D02*
X111957142Y-55080628D01*
X111004761Y-54652057D02*
X110957142Y-54604438D01*
X110957142Y-54604438D02*
X110861904Y-54556819D01*
X110861904Y-54556819D02*
X110623809Y-54556819D01*
X110623809Y-54556819D02*
X110528571Y-54604438D01*
X110528571Y-54604438D02*
X110480952Y-54652057D01*
X110480952Y-54652057D02*
X110433333Y-54747295D01*
X110433333Y-54747295D02*
X110433333Y-54842533D01*
X110433333Y-54842533D02*
X110480952Y-54985390D01*
X110480952Y-54985390D02*
X111052380Y-55556819D01*
X111052380Y-55556819D02*
X110433333Y-55556819D01*
%TO.C,J6*%
X144454819Y-78566666D02*
X145169104Y-78566666D01*
X145169104Y-78566666D02*
X145311961Y-78519047D01*
X145311961Y-78519047D02*
X145407200Y-78423809D01*
X145407200Y-78423809D02*
X145454819Y-78280952D01*
X145454819Y-78280952D02*
X145454819Y-78185714D01*
X144454819Y-79471428D02*
X144454819Y-79280952D01*
X144454819Y-79280952D02*
X144502438Y-79185714D01*
X144502438Y-79185714D02*
X144550057Y-79138095D01*
X144550057Y-79138095D02*
X144692914Y-79042857D01*
X144692914Y-79042857D02*
X144883390Y-78995238D01*
X144883390Y-78995238D02*
X145264342Y-78995238D01*
X145264342Y-78995238D02*
X145359580Y-79042857D01*
X145359580Y-79042857D02*
X145407200Y-79090476D01*
X145407200Y-79090476D02*
X145454819Y-79185714D01*
X145454819Y-79185714D02*
X145454819Y-79376190D01*
X145454819Y-79376190D02*
X145407200Y-79471428D01*
X145407200Y-79471428D02*
X145359580Y-79519047D01*
X145359580Y-79519047D02*
X145264342Y-79566666D01*
X145264342Y-79566666D02*
X145026247Y-79566666D01*
X145026247Y-79566666D02*
X144931009Y-79519047D01*
X144931009Y-79519047D02*
X144883390Y-79471428D01*
X144883390Y-79471428D02*
X144835771Y-79376190D01*
X144835771Y-79376190D02*
X144835771Y-79185714D01*
X144835771Y-79185714D02*
X144883390Y-79090476D01*
X144883390Y-79090476D02*
X144931009Y-79042857D01*
X144931009Y-79042857D02*
X145026247Y-78995238D01*
D11*
%TO.C,AE1*%
X112077599Y-44336178D02*
X111720457Y-44336178D01*
X112149028Y-44550464D02*
X111899028Y-43800464D01*
X111899028Y-43800464D02*
X111649028Y-44550464D01*
X111399028Y-44157607D02*
X111149028Y-44157607D01*
X111041885Y-44550464D02*
X111399028Y-44550464D01*
X111399028Y-44550464D02*
X111399028Y-43800464D01*
X111399028Y-43800464D02*
X111041885Y-43800464D01*
X110327600Y-44550464D02*
X110756171Y-44550464D01*
X110541886Y-44550464D02*
X110541886Y-43800464D01*
X110541886Y-43800464D02*
X110613314Y-43907607D01*
X110613314Y-43907607D02*
X110684743Y-43979035D01*
X110684743Y-43979035D02*
X110756171Y-44014750D01*
D10*
%TO.C,TP3*%
X113961904Y-59056819D02*
X113390476Y-59056819D01*
X113676190Y-60056819D02*
X113676190Y-59056819D01*
X113057142Y-60056819D02*
X113057142Y-59056819D01*
X113057142Y-59056819D02*
X112676190Y-59056819D01*
X112676190Y-59056819D02*
X112580952Y-59104438D01*
X112580952Y-59104438D02*
X112533333Y-59152057D01*
X112533333Y-59152057D02*
X112485714Y-59247295D01*
X112485714Y-59247295D02*
X112485714Y-59390152D01*
X112485714Y-59390152D02*
X112533333Y-59485390D01*
X112533333Y-59485390D02*
X112580952Y-59533009D01*
X112580952Y-59533009D02*
X112676190Y-59580628D01*
X112676190Y-59580628D02*
X113057142Y-59580628D01*
X112152380Y-59056819D02*
X111533333Y-59056819D01*
X111533333Y-59056819D02*
X111866666Y-59437771D01*
X111866666Y-59437771D02*
X111723809Y-59437771D01*
X111723809Y-59437771D02*
X111628571Y-59485390D01*
X111628571Y-59485390D02*
X111580952Y-59533009D01*
X111580952Y-59533009D02*
X111533333Y-59628247D01*
X111533333Y-59628247D02*
X111533333Y-59866342D01*
X111533333Y-59866342D02*
X111580952Y-59961580D01*
X111580952Y-59961580D02*
X111628571Y-60009200D01*
X111628571Y-60009200D02*
X111723809Y-60056819D01*
X111723809Y-60056819D02*
X112009523Y-60056819D01*
X112009523Y-60056819D02*
X112104761Y-60009200D01*
X112104761Y-60009200D02*
X112152380Y-59961580D01*
D12*
%TO.C,SW3*%
X116700600Y-75255001D02*
G75*
G03*
X116700600Y-75255001I-381000J0D01*
G01*
D13*
%TO.C,R9*%
X119437258Y-82197500D02*
X118962742Y-82197500D01*
X119437258Y-81152500D02*
X118962742Y-81152500D01*
D14*
%TO.C,BT2*%
X150400000Y-53064999D02*
G75*
G03*
X148590000Y-49025000I-1741712J1645136D01*
G01*
X146240000Y-51208000D02*
G75*
G03*
X146390000Y-52255000I3043933J-98151D01*
G01*
D13*
%TO.C,TP1*%
X109400000Y-56700000D02*
G75*
G03*
X109400000Y-56700000I-1200000J0D01*
G01*
%TO.C,U11*%
X120275000Y-77350000D02*
X119775000Y-77350000D01*
X115075000Y-77450000D02*
X115075000Y-78400000D01*
X120275000Y-77850000D02*
X120275000Y-77350000D01*
X115075000Y-80150000D02*
X115075000Y-80650000D01*
X120275000Y-80650000D02*
X120275000Y-80150000D01*
X119775000Y-80650000D02*
X120275000Y-80650000D01*
X115075000Y-80650000D02*
X115575000Y-80650000D01*
%TO.C,C29*%
X116984420Y-75865000D02*
X117265580Y-75865000D01*
X116984420Y-76885000D02*
X117265580Y-76885000D01*
%TO.C,TP2*%
X112800000Y-57100000D02*
G75*
G03*
X112800000Y-57100000I-1200000J0D01*
G01*
%TO.C,U4*%
X143465000Y-85365000D02*
X123465000Y-85365000D01*
X123465000Y-85365000D02*
X123465000Y-56765000D01*
X123465000Y-56765000D02*
X143465000Y-56765000D01*
X143465000Y-56765000D02*
X143465000Y-85365000D01*
%TO.C,R6*%
X115862742Y-81152500D02*
X116337258Y-81152500D01*
X115862742Y-82197500D02*
X116337258Y-82197500D01*
%TO.C,J6*%
X149800000Y-80400000D02*
X150000000Y-80400000D01*
X150000000Y-80400000D02*
X150000000Y-79600000D01*
X147000000Y-80200000D02*
X147200000Y-80400000D01*
X147000000Y-79600000D02*
X147000000Y-80200000D01*
X147000000Y-79600000D02*
X146500000Y-79600000D01*
X147000000Y-78200000D02*
X146500000Y-78200000D01*
X150000000Y-78200000D02*
X150000000Y-77400000D01*
X147000000Y-77400000D02*
X147000000Y-78200000D01*
X147200000Y-77400000D02*
X147000000Y-77400000D01*
X150000000Y-77400000D02*
X149800000Y-77400000D01*
D10*
%TO.C,AE1*%
X113664580Y-45331900D02*
X108735420Y-45331900D01*
X108735420Y-42868100D02*
X113664580Y-42868100D01*
X116258499Y-44100000D02*
G75*
G03*
X116258499Y-44100000I-76200J0D01*
G01*
D13*
%TO.C,TP3*%
X113900000Y-61600000D02*
G75*
G03*
X113900000Y-61600000I-1200000J0D01*
G01*
%TO.C,R8*%
X110274824Y-70870602D02*
X109765376Y-70870602D01*
X110274824Y-69825602D02*
X109765376Y-69825602D01*
%TO.C,R7*%
X109765376Y-66825602D02*
X110274824Y-66825602D01*
X109765376Y-67870602D02*
X110274824Y-67870602D01*
%TO.C,U3*%
X144910000Y-54100000D02*
X144910000Y-53410000D01*
X134740000Y-53410000D02*
X134740000Y-43490000D01*
X134890000Y-53410000D02*
X134740000Y-53410000D01*
X145060000Y-53410000D02*
X144910000Y-53410000D01*
X145060000Y-53410000D02*
X145060000Y-43490000D01*
X134890000Y-43490000D02*
X134740000Y-43490000D01*
X145060000Y-43490000D02*
X144910000Y-43490000D01*
%TD*%
%LPC*%
%TO.C,BT2*%
D15*
X145850000Y-51425000D02*
X145850000Y-48625000D01*
X148650000Y-48625000D01*
X145850000Y-51425000D01*
G36*
X145850000Y-51425000D02*
G01*
X145850000Y-48625000D01*
X148650000Y-48625000D01*
X145850000Y-51425000D01*
G37*
%TD*%
D16*
%TO.C,SW3*%
X113560098Y-77455002D03*
X106760102Y-77455002D03*
%TD*%
D17*
%TO.C,H2*%
X108225000Y-84200000D03*
%TD*%
D18*
%TO.C,J2*%
X112400100Y-65708102D03*
X112400100Y-71488102D03*
D19*
X112900100Y-64278102D03*
D20*
X108720100Y-64278102D03*
D19*
X112900100Y-72918102D03*
D20*
X108720100Y-72918102D03*
%TD*%
D21*
%TO.C,J1*%
X149200000Y-72240000D03*
D22*
X149200000Y-69700000D03*
X149200000Y-67160000D03*
%TD*%
D23*
%TO.C,BT1*%
X109205100Y-61223102D03*
X109205100Y-50223102D03*
D24*
X119205100Y-53223102D03*
D25*
X119205100Y-58223102D03*
%TD*%
D17*
%TO.C,H3*%
X149225000Y-84200000D03*
%TD*%
%TO.C,H4*%
X149225000Y-45200000D03*
%TD*%
D26*
%TO.C,R9*%
X120025000Y-81675000D03*
X118375000Y-81675000D03*
%TD*%
D27*
%TO.C,BT2*%
X148000000Y-53275000D03*
%TD*%
D28*
%TO.C,TP1*%
X108200000Y-56700000D03*
%TD*%
D29*
%TO.C,U11*%
X115800000Y-77925000D03*
X117050000Y-77925000D03*
X118300000Y-77925000D03*
X119550000Y-77925000D03*
X119550000Y-80075000D03*
X118300000Y-80075000D03*
X117050000Y-80075000D03*
X115800000Y-80075000D03*
%TD*%
D30*
%TO.C,C29*%
X116350000Y-76375000D03*
X117900000Y-76375000D03*
%TD*%
D28*
%TO.C,TP2*%
X111600000Y-57100000D03*
%TD*%
D31*
%TO.C,U4*%
X123965000Y-74210000D03*
D32*
X123965000Y-71665000D03*
X123965000Y-69125000D03*
X123965000Y-66585000D03*
X123965000Y-64045000D03*
X123965000Y-61505000D03*
X123965000Y-58965000D03*
X142965000Y-58965000D03*
X142965000Y-61505000D03*
X142965000Y-64045000D03*
X142965000Y-66585000D03*
X142965000Y-69125000D03*
X142965000Y-71665000D03*
D31*
X142965000Y-74210000D03*
D33*
X142135000Y-84815000D03*
X139595000Y-84815000D03*
X137055000Y-84815000D03*
%TD*%
D34*
%TO.C,R6*%
X115275000Y-81675000D03*
X116925000Y-81675000D03*
%TD*%
D35*
%TO.C,J6*%
X147000000Y-78900000D03*
D36*
X148500000Y-80375000D03*
D35*
X150000000Y-78900000D03*
D36*
X148500000Y-77425000D03*
%TD*%
D37*
%TO.C,AE1*%
X114662701Y-44100000D03*
X107737299Y-44100000D03*
%TD*%
D28*
%TO.C,TP3*%
X112700000Y-61600000D03*
%TD*%
D38*
%TO.C,R8*%
X110932600Y-70348102D03*
X109107600Y-70348102D03*
%TD*%
D39*
%TO.C,R7*%
X109107600Y-67348102D03*
X110932600Y-67348102D03*
%TD*%
D40*
%TO.C,U3*%
X144300000Y-53200000D03*
D41*
X143200000Y-53200000D03*
X142100000Y-53200000D03*
X141000000Y-53200000D03*
X139900000Y-53200000D03*
X138800000Y-53200000D03*
X137700000Y-53200000D03*
X136600000Y-53200000D03*
D40*
X135500000Y-53200000D03*
X135500000Y-43700000D03*
D41*
X136600000Y-43700000D03*
X137700000Y-43700000D03*
X138800000Y-43700000D03*
X139900000Y-43700000D03*
X141000000Y-43700000D03*
X142100000Y-43700000D03*
X143200000Y-43700000D03*
D40*
X144300000Y-43700000D03*
%TD*%
%LPD*%
M02*
