%TF.GenerationSoftware,KiCad,Pcbnew,7.0.5-0*%
%TF.CreationDate,2024-02-18T18:21:39-05:00*%
%TF.ProjectId,BITSv5,42495453-7635-42e6-9b69-6361645f7063,2*%
%TF.SameCoordinates,Original*%
%TF.FileFunction,Legend,Bot*%
%TF.FilePolarity,Positive*%
%FSLAX46Y46*%
G04 Gerber Fmt 4.6, Leading zero omitted, Abs format (unit mm)*
G04 Created by KiCad (PCBNEW 7.0.5-0) date 2024-02-18 18:21:39*
%MOMM*%
%LPD*%
G01*
G04 APERTURE LIST*
G04 Aperture macros list*
%AMRoundRect*
0 Rectangle with rounded corners*
0 $1 Rounding radius*
0 $2 $3 $4 $5 $6 $7 $8 $9 X,Y pos of 4 corners*
0 Add a 4 corners polygon primitive as box body*
4,1,4,$2,$3,$4,$5,$6,$7,$8,$9,$2,$3,0*
0 Add four circle primitives for the rounded corners*
1,1,$1+$1,$2,$3*
1,1,$1+$1,$4,$5*
1,1,$1+$1,$6,$7*
1,1,$1+$1,$8,$9*
0 Add four rect primitives between the rounded corners*
20,1,$1+$1,$2,$3,$4,$5,0*
20,1,$1+$1,$4,$5,$6,$7,0*
20,1,$1+$1,$6,$7,$8,$9,0*
20,1,$1+$1,$8,$9,$2,$3,0*%
%AMFreePoly0*
4,1,19,0.500000,-0.750000,0.000000,-0.750000,0.000000,-0.744911,-0.071157,-0.744911,-0.207708,-0.704816,-0.327430,-0.627875,-0.420627,-0.520320,-0.479746,-0.390866,-0.500000,-0.250000,-0.500000,0.250000,-0.479746,0.390866,-0.420627,0.520320,-0.327430,0.627875,-0.207708,0.704816,-0.071157,0.744911,0.000000,0.744911,0.000000,0.750000,0.500000,0.750000,0.500000,-0.750000,0.500000,-0.750000,
$1*%
%AMFreePoly1*
4,1,19,0.000000,0.744911,0.071157,0.744911,0.207708,0.704816,0.327430,0.627875,0.420627,0.520320,0.479746,0.390866,0.500000,0.250000,0.500000,-0.250000,0.479746,-0.390866,0.420627,-0.520320,0.327430,-0.627875,0.207708,-0.704816,0.071157,-0.744911,0.000000,-0.744911,0.000000,-0.750000,-0.500000,-0.750000,-0.500000,0.750000,0.000000,0.750000,0.000000,0.744911,0.000000,0.744911,
$1*%
G04 Aperture macros list end*
%ADD10C,0.125000*%
%ADD11C,0.150000*%
%ADD12C,0.120000*%
%ADD13C,0.889000*%
%ADD14C,4.400000*%
%ADD15C,0.650000*%
%ADD16O,2.100000X1.000000*%
%ADD17O,1.800000X1.000000*%
%ADD18C,1.400000*%
%ADD19R,3.500000X3.500000*%
%ADD20C,3.500000*%
%ADD21C,2.000000*%
%ADD22C,0.499999*%
%ADD23R,1.700000X1.700000*%
%ADD24O,1.700000X1.700000*%
%ADD25FreePoly0,0.000000*%
%ADD26FreePoly1,0.000000*%
%ADD27RoundRect,0.225000X-0.250000X0.225000X-0.250000X-0.225000X0.250000X-0.225000X0.250000X0.225000X0*%
%ADD28RoundRect,0.322500X-1.177500X-0.322500X1.177500X-0.322500X1.177500X0.322500X-1.177500X0.322500X0*%
%ADD29RoundRect,0.325000X-1.175000X-0.325000X1.175000X-0.325000X1.175000X0.325000X-1.175000X0.325000X0*%
%ADD30RoundRect,0.325000X-0.325000X1.425000X-0.325000X-1.425000X0.325000X-1.425000X0.325000X1.425000X0*%
%ADD31R,1.000000X1.000000*%
%ADD32R,2.200000X1.050000*%
G04 APERTURE END LIST*
D10*
X116929855Y-85098976D02*
X117120331Y-85098976D01*
X117001283Y-84932309D02*
X117001283Y-85360880D01*
X117001283Y-85360880D02*
X117025093Y-85408500D01*
X117025093Y-85408500D02*
X117072712Y-85432309D01*
X117072712Y-85432309D02*
X117120331Y-85432309D01*
X117286997Y-85432309D02*
X117286997Y-84932309D01*
X117501283Y-85432309D02*
X117501283Y-85170404D01*
X117501283Y-85170404D02*
X117477473Y-85122785D01*
X117477473Y-85122785D02*
X117429854Y-85098976D01*
X117429854Y-85098976D02*
X117358426Y-85098976D01*
X117358426Y-85098976D02*
X117310807Y-85122785D01*
X117310807Y-85122785D02*
X117286997Y-85146595D01*
X117739378Y-85432309D02*
X117739378Y-85098976D01*
X117739378Y-84932309D02*
X117715569Y-84956119D01*
X117715569Y-84956119D02*
X117739378Y-84979928D01*
X117739378Y-84979928D02*
X117763188Y-84956119D01*
X117763188Y-84956119D02*
X117739378Y-84932309D01*
X117739378Y-84932309D02*
X117739378Y-84979928D01*
X117977473Y-85432309D02*
X117977473Y-85098976D01*
X117977473Y-85194214D02*
X118001283Y-85146595D01*
X118001283Y-85146595D02*
X118025092Y-85122785D01*
X118025092Y-85122785D02*
X118072711Y-85098976D01*
X118072711Y-85098976D02*
X118120330Y-85098976D01*
X118501283Y-85432309D02*
X118501283Y-84932309D01*
X118501283Y-85408500D02*
X118453664Y-85432309D01*
X118453664Y-85432309D02*
X118358426Y-85432309D01*
X118358426Y-85432309D02*
X118310807Y-85408500D01*
X118310807Y-85408500D02*
X118286997Y-85384690D01*
X118286997Y-85384690D02*
X118263188Y-85337071D01*
X118263188Y-85337071D02*
X118263188Y-85194214D01*
X118263188Y-85194214D02*
X118286997Y-85146595D01*
X118286997Y-85146595D02*
X118310807Y-85122785D01*
X118310807Y-85122785D02*
X118358426Y-85098976D01*
X118358426Y-85098976D02*
X118453664Y-85098976D01*
X118453664Y-85098976D02*
X118501283Y-85122785D01*
X119048902Y-85098976D02*
X119239378Y-85098976D01*
X119120330Y-84932309D02*
X119120330Y-85360880D01*
X119120330Y-85360880D02*
X119144140Y-85408500D01*
X119144140Y-85408500D02*
X119191759Y-85432309D01*
X119191759Y-85432309D02*
X119239378Y-85432309D01*
X119406044Y-85432309D02*
X119406044Y-85098976D01*
X119406044Y-84932309D02*
X119382235Y-84956119D01*
X119382235Y-84956119D02*
X119406044Y-84979928D01*
X119406044Y-84979928D02*
X119429854Y-84956119D01*
X119429854Y-84956119D02*
X119406044Y-84932309D01*
X119406044Y-84932309D02*
X119406044Y-84979928D01*
X119644139Y-85432309D02*
X119644139Y-85098976D01*
X119644139Y-85146595D02*
X119667949Y-85122785D01*
X119667949Y-85122785D02*
X119715568Y-85098976D01*
X119715568Y-85098976D02*
X119786996Y-85098976D01*
X119786996Y-85098976D02*
X119834615Y-85122785D01*
X119834615Y-85122785D02*
X119858425Y-85170404D01*
X119858425Y-85170404D02*
X119858425Y-85432309D01*
X119858425Y-85170404D02*
X119882234Y-85122785D01*
X119882234Y-85122785D02*
X119929853Y-85098976D01*
X119929853Y-85098976D02*
X120001282Y-85098976D01*
X120001282Y-85098976D02*
X120048901Y-85122785D01*
X120048901Y-85122785D02*
X120072711Y-85170404D01*
X120072711Y-85170404D02*
X120072711Y-85432309D01*
X120501282Y-85408500D02*
X120453663Y-85432309D01*
X120453663Y-85432309D02*
X120358425Y-85432309D01*
X120358425Y-85432309D02*
X120310806Y-85408500D01*
X120310806Y-85408500D02*
X120286997Y-85360880D01*
X120286997Y-85360880D02*
X120286997Y-85170404D01*
X120286997Y-85170404D02*
X120310806Y-85122785D01*
X120310806Y-85122785D02*
X120358425Y-85098976D01*
X120358425Y-85098976D02*
X120453663Y-85098976D01*
X120453663Y-85098976D02*
X120501282Y-85122785D01*
X120501282Y-85122785D02*
X120525092Y-85170404D01*
X120525092Y-85170404D02*
X120525092Y-85218023D01*
X120525092Y-85218023D02*
X120286997Y-85265642D01*
X120763187Y-84932309D02*
X120715568Y-85027547D01*
X120953663Y-85408500D02*
X121001282Y-85432309D01*
X121001282Y-85432309D02*
X121096520Y-85432309D01*
X121096520Y-85432309D02*
X121144139Y-85408500D01*
X121144139Y-85408500D02*
X121167948Y-85360880D01*
X121167948Y-85360880D02*
X121167948Y-85337071D01*
X121167948Y-85337071D02*
X121144139Y-85289452D01*
X121144139Y-85289452D02*
X121096520Y-85265642D01*
X121096520Y-85265642D02*
X121025091Y-85265642D01*
X121025091Y-85265642D02*
X120977472Y-85241833D01*
X120977472Y-85241833D02*
X120953663Y-85194214D01*
X120953663Y-85194214D02*
X120953663Y-85170404D01*
X120953663Y-85170404D02*
X120977472Y-85122785D01*
X120977472Y-85122785D02*
X121025091Y-85098976D01*
X121025091Y-85098976D02*
X121096520Y-85098976D01*
X121096520Y-85098976D02*
X121144139Y-85122785D01*
X121691758Y-85098976D02*
X121882234Y-85098976D01*
X121763186Y-84932309D02*
X121763186Y-85360880D01*
X121763186Y-85360880D02*
X121786996Y-85408500D01*
X121786996Y-85408500D02*
X121834615Y-85432309D01*
X121834615Y-85432309D02*
X121882234Y-85432309D01*
X122048900Y-85432309D02*
X122048900Y-84932309D01*
X122263186Y-85432309D02*
X122263186Y-85170404D01*
X122263186Y-85170404D02*
X122239376Y-85122785D01*
X122239376Y-85122785D02*
X122191757Y-85098976D01*
X122191757Y-85098976D02*
X122120329Y-85098976D01*
X122120329Y-85098976D02*
X122072710Y-85122785D01*
X122072710Y-85122785D02*
X122048900Y-85146595D01*
X122691757Y-85408500D02*
X122644138Y-85432309D01*
X122644138Y-85432309D02*
X122548900Y-85432309D01*
X122548900Y-85432309D02*
X122501281Y-85408500D01*
X122501281Y-85408500D02*
X122477472Y-85360880D01*
X122477472Y-85360880D02*
X122477472Y-85170404D01*
X122477472Y-85170404D02*
X122501281Y-85122785D01*
X122501281Y-85122785D02*
X122548900Y-85098976D01*
X122548900Y-85098976D02*
X122644138Y-85098976D01*
X122644138Y-85098976D02*
X122691757Y-85122785D01*
X122691757Y-85122785D02*
X122715567Y-85170404D01*
X122715567Y-85170404D02*
X122715567Y-85218023D01*
X122715567Y-85218023D02*
X122477472Y-85265642D01*
X123525090Y-85408500D02*
X123477471Y-85432309D01*
X123477471Y-85432309D02*
X123382233Y-85432309D01*
X123382233Y-85432309D02*
X123334614Y-85408500D01*
X123334614Y-85408500D02*
X123310804Y-85384690D01*
X123310804Y-85384690D02*
X123286995Y-85337071D01*
X123286995Y-85337071D02*
X123286995Y-85194214D01*
X123286995Y-85194214D02*
X123310804Y-85146595D01*
X123310804Y-85146595D02*
X123334614Y-85122785D01*
X123334614Y-85122785D02*
X123382233Y-85098976D01*
X123382233Y-85098976D02*
X123477471Y-85098976D01*
X123477471Y-85098976D02*
X123525090Y-85122785D01*
X123739375Y-85432309D02*
X123739375Y-84932309D01*
X123953661Y-85432309D02*
X123953661Y-85170404D01*
X123953661Y-85170404D02*
X123929851Y-85122785D01*
X123929851Y-85122785D02*
X123882232Y-85098976D01*
X123882232Y-85098976D02*
X123810804Y-85098976D01*
X123810804Y-85098976D02*
X123763185Y-85122785D01*
X123763185Y-85122785D02*
X123739375Y-85146595D01*
X124406042Y-85432309D02*
X124406042Y-85170404D01*
X124406042Y-85170404D02*
X124382232Y-85122785D01*
X124382232Y-85122785D02*
X124334613Y-85098976D01*
X124334613Y-85098976D02*
X124239375Y-85098976D01*
X124239375Y-85098976D02*
X124191756Y-85122785D01*
X124406042Y-85408500D02*
X124358423Y-85432309D01*
X124358423Y-85432309D02*
X124239375Y-85432309D01*
X124239375Y-85432309D02*
X124191756Y-85408500D01*
X124191756Y-85408500D02*
X124167947Y-85360880D01*
X124167947Y-85360880D02*
X124167947Y-85313261D01*
X124167947Y-85313261D02*
X124191756Y-85265642D01*
X124191756Y-85265642D02*
X124239375Y-85241833D01*
X124239375Y-85241833D02*
X124358423Y-85241833D01*
X124358423Y-85241833D02*
X124406042Y-85218023D01*
X124644137Y-85432309D02*
X124644137Y-85098976D01*
X124644137Y-85194214D02*
X124667947Y-85146595D01*
X124667947Y-85146595D02*
X124691756Y-85122785D01*
X124691756Y-85122785D02*
X124739375Y-85098976D01*
X124739375Y-85098976D02*
X124786994Y-85098976D01*
X124953661Y-85432309D02*
X124953661Y-85098976D01*
X124953661Y-85146595D02*
X124977471Y-85122785D01*
X124977471Y-85122785D02*
X125025090Y-85098976D01*
X125025090Y-85098976D02*
X125096518Y-85098976D01*
X125096518Y-85098976D02*
X125144137Y-85122785D01*
X125144137Y-85122785D02*
X125167947Y-85170404D01*
X125167947Y-85170404D02*
X125167947Y-85432309D01*
X125167947Y-85170404D02*
X125191756Y-85122785D01*
X125191756Y-85122785D02*
X125239375Y-85098976D01*
X125239375Y-85098976D02*
X125310804Y-85098976D01*
X125310804Y-85098976D02*
X125358423Y-85122785D01*
X125358423Y-85122785D02*
X125382233Y-85170404D01*
X125382233Y-85170404D02*
X125382233Y-85432309D01*
X125691757Y-85384690D02*
X125715566Y-85408500D01*
X125715566Y-85408500D02*
X125691757Y-85432309D01*
X125691757Y-85432309D02*
X125667947Y-85408500D01*
X125667947Y-85408500D02*
X125691757Y-85384690D01*
X125691757Y-85384690D02*
X125691757Y-85432309D01*
X125596519Y-84956119D02*
X125644138Y-84932309D01*
X125644138Y-84932309D02*
X125763185Y-84932309D01*
X125763185Y-84932309D02*
X125810804Y-84956119D01*
X125810804Y-84956119D02*
X125834614Y-85003738D01*
X125834614Y-85003738D02*
X125834614Y-85051357D01*
X125834614Y-85051357D02*
X125810804Y-85098976D01*
X125810804Y-85098976D02*
X125786995Y-85122785D01*
X125786995Y-85122785D02*
X125739376Y-85146595D01*
X125739376Y-85146595D02*
X125715566Y-85170404D01*
X125715566Y-85170404D02*
X125691757Y-85218023D01*
X125691757Y-85218023D02*
X125691757Y-85241833D01*
D11*
%TO.C,JP1*%
X119683333Y-51654819D02*
X119683333Y-52369104D01*
X119683333Y-52369104D02*
X119730952Y-52511961D01*
X119730952Y-52511961D02*
X119826190Y-52607200D01*
X119826190Y-52607200D02*
X119969047Y-52654819D01*
X119969047Y-52654819D02*
X120064285Y-52654819D01*
X119207142Y-52654819D02*
X119207142Y-51654819D01*
X119207142Y-51654819D02*
X118826190Y-51654819D01*
X118826190Y-51654819D02*
X118730952Y-51702438D01*
X118730952Y-51702438D02*
X118683333Y-51750057D01*
X118683333Y-51750057D02*
X118635714Y-51845295D01*
X118635714Y-51845295D02*
X118635714Y-51988152D01*
X118635714Y-51988152D02*
X118683333Y-52083390D01*
X118683333Y-52083390D02*
X118730952Y-52131009D01*
X118730952Y-52131009D02*
X118826190Y-52178628D01*
X118826190Y-52178628D02*
X119207142Y-52178628D01*
X117683333Y-52654819D02*
X118254761Y-52654819D01*
X117969047Y-52654819D02*
X117969047Y-51654819D01*
X117969047Y-51654819D02*
X118064285Y-51797676D01*
X118064285Y-51797676D02*
X118159523Y-51892914D01*
X118159523Y-51892914D02*
X118254761Y-51940533D01*
%TO.C,J6*%
X139154819Y-83666666D02*
X139869104Y-83666666D01*
X139869104Y-83666666D02*
X140011961Y-83619047D01*
X140011961Y-83619047D02*
X140107200Y-83523809D01*
X140107200Y-83523809D02*
X140154819Y-83380952D01*
X140154819Y-83380952D02*
X140154819Y-83285714D01*
X139154819Y-84571428D02*
X139154819Y-84380952D01*
X139154819Y-84380952D02*
X139202438Y-84285714D01*
X139202438Y-84285714D02*
X139250057Y-84238095D01*
X139250057Y-84238095D02*
X139392914Y-84142857D01*
X139392914Y-84142857D02*
X139583390Y-84095238D01*
X139583390Y-84095238D02*
X139964342Y-84095238D01*
X139964342Y-84095238D02*
X140059580Y-84142857D01*
X140059580Y-84142857D02*
X140107200Y-84190476D01*
X140107200Y-84190476D02*
X140154819Y-84285714D01*
X140154819Y-84285714D02*
X140154819Y-84476190D01*
X140154819Y-84476190D02*
X140107200Y-84571428D01*
X140107200Y-84571428D02*
X140059580Y-84619047D01*
X140059580Y-84619047D02*
X139964342Y-84666666D01*
X139964342Y-84666666D02*
X139726247Y-84666666D01*
X139726247Y-84666666D02*
X139631009Y-84619047D01*
X139631009Y-84619047D02*
X139583390Y-84571428D01*
X139583390Y-84571428D02*
X139535771Y-84476190D01*
X139535771Y-84476190D02*
X139535771Y-84285714D01*
X139535771Y-84285714D02*
X139583390Y-84190476D01*
X139583390Y-84190476D02*
X139631009Y-84142857D01*
X139631009Y-84142857D02*
X139726247Y-84095238D01*
D12*
%TO.C,JP1*%
X117450000Y-50100000D02*
X117450000Y-50700000D01*
X118150000Y-51400000D02*
X119550000Y-51400000D01*
X119550000Y-49400000D02*
X118150000Y-49400000D01*
X120250000Y-50700000D02*
X120250000Y-50100000D01*
X118150000Y-49400000D02*
G75*
G03*
X117450000Y-50100000I-1J-699999D01*
G01*
X117450000Y-50700000D02*
G75*
G03*
X118150000Y-51400000I699999J-1D01*
G01*
X120250000Y-50100000D02*
G75*
G03*
X119550000Y-49400000I-700000J0D01*
G01*
X119550000Y-51400000D02*
G75*
G03*
X120250000Y-50700000I0J700000D01*
G01*
%TO.C,C26*%
X115135000Y-56884420D02*
X115135000Y-57165580D01*
X114115000Y-56884420D02*
X114115000Y-57165580D01*
%TO.C,U4*%
X137600000Y-81500000D02*
X117600000Y-81500000D01*
X117600000Y-81500000D02*
X117600000Y-52900000D01*
X117600000Y-52900000D02*
X137600000Y-52900000D01*
X137600000Y-52900000D02*
X137600000Y-81500000D01*
%TO.C,J6*%
X144500000Y-85500000D02*
X144700000Y-85500000D01*
X144700000Y-85500000D02*
X144700000Y-84700000D01*
X141700000Y-85300000D02*
X141900000Y-85500000D01*
X141700000Y-84700000D02*
X141700000Y-85300000D01*
X141700000Y-84700000D02*
X141200000Y-84700000D01*
X141700000Y-83300000D02*
X141200000Y-83300000D01*
X144700000Y-83300000D02*
X144700000Y-82500000D01*
X141700000Y-82500000D02*
X141700000Y-83300000D01*
X141900000Y-82500000D02*
X141700000Y-82500000D01*
X144700000Y-82500000D02*
X144500000Y-82500000D01*
%TO.C,C27*%
X113610000Y-56884420D02*
X113610000Y-57165580D01*
X112590000Y-56884420D02*
X112590000Y-57165580D01*
%TD*%
%LPC*%
D13*
%TO.C,SW3*%
X113560098Y-77455002D03*
X106760102Y-77455002D03*
%TD*%
D14*
%TO.C,H2*%
X108300000Y-84100000D03*
%TD*%
D15*
%TO.C,J2*%
X112400100Y-65708102D03*
X112400100Y-71488102D03*
D16*
X112900100Y-64278102D03*
D17*
X108720100Y-64278102D03*
D16*
X112900100Y-72918102D03*
D17*
X108720100Y-72918102D03*
%TD*%
D18*
%TO.C,J3*%
X98300000Y-59400000D03*
X98300000Y-48400000D03*
D19*
X108300000Y-51400000D03*
D20*
X108300000Y-56400000D03*
%TD*%
D21*
%TO.C,TP6*%
X113400000Y-44600000D03*
%TD*%
D22*
%TO.C,U8*%
X125757501Y-45112500D03*
X126757502Y-45112500D03*
X127757500Y-45112500D03*
%TD*%
D14*
%TO.C,H1*%
X108300000Y-45300000D03*
%TD*%
D23*
%TO.C,J1*%
X149900000Y-71425000D03*
D24*
X149900000Y-68885000D03*
X149900000Y-66345000D03*
%TD*%
D22*
%TO.C,U5*%
X113957501Y-52800000D03*
X114957502Y-52800000D03*
X115957500Y-52800000D03*
%TD*%
D14*
%TO.C,H3*%
X149100000Y-84100000D03*
%TD*%
D21*
%TO.C,TP4*%
X116800000Y-46400000D03*
%TD*%
%TO.C,TP5*%
X135100000Y-49900000D03*
%TD*%
D25*
%TO.C,JP1*%
X118200000Y-50400000D03*
D26*
X119500000Y-50400000D03*
%TD*%
D27*
%TO.C,C26*%
X114625000Y-56250000D03*
X114625000Y-57800000D03*
%TD*%
D28*
%TO.C,U4*%
X118100000Y-70345000D03*
D29*
X118100000Y-67800000D03*
X118100000Y-65260000D03*
X118100000Y-62720000D03*
X118100000Y-60180000D03*
X118100000Y-57640000D03*
X118100000Y-55100000D03*
X137100000Y-55100000D03*
X137100000Y-57640000D03*
X137100000Y-60180000D03*
X137100000Y-62720000D03*
X137100000Y-65260000D03*
X137100000Y-67800000D03*
D28*
X137100000Y-70345000D03*
D30*
X136270000Y-80950000D03*
X133730000Y-80950000D03*
X131190000Y-80950000D03*
%TD*%
D31*
%TO.C,J6*%
X141700000Y-84000000D03*
D32*
X143200000Y-85475000D03*
D31*
X144700000Y-84000000D03*
D32*
X143200000Y-82525000D03*
%TD*%
D27*
%TO.C,C27*%
X113100000Y-56250000D03*
X113100000Y-57800000D03*
%TD*%
%LPD*%
M02*
