M48
; DRILL file {KiCad 7.0.5-0} date 2024 February 18, Sunday 18:21:40
; FORMAT={-:-/ absolute / metric / decimal}
; #@! TF.CreationDate,2024-02-18T18:21:40-05:00
; #@! TF.GenerationSoftware,Kicad,Pcbnew,7.0.5-0
; #@! TF.FileFunction,Plated,1,4,PTH
FMAT,2
METRIC
; #@! TA.AperFunction,Plated,PTH,ComponentDrill
T1C0.203
; #@! TA.AperFunction,Plated,PTH,ViaDrill
T2C0.300
; #@! TA.AperFunction,Plated,PTH,ComponentDrill
T3C0.350
; #@! TA.AperFunction,Plated,PTH,ViaDrill
T4C0.400
; #@! TA.AperFunction,Plated,PTH,ViaDrill
T5C0.450
; #@! TA.AperFunction,Plated,PTH,ViaDrill
T6C0.500
; #@! TA.AperFunction,Plated,PTH,ViaDrill
T7C0.600
; #@! TA.AperFunction,Plated,PTH,ComponentDrill
T8C0.600
; #@! TA.AperFunction,Plated,PTH,ViaDrill
T9C0.700
; #@! TA.AperFunction,Plated,PTH,ViaDrill
T10C0.800
; #@! TA.AperFunction,Plated,PTH,ComponentDrill
T11C1.000
; #@! TA.AperFunction,Plated,PTH,ComponentDrill
T12C1.900
; #@! TA.AperFunction,Plated,PTH,ComponentDrill
T13C2.200
%
G90
G05
T1
X113.958Y-52.8
X114.958Y-52.8
X115.957Y-52.8
X125.758Y-45.112
X126.758Y-45.112
X127.757Y-45.112
T2
X111.0Y-60.4
X111.7Y-55.2
X115.6Y-57.5
X115.9Y-72.3
X116.0Y-60.0
X116.0Y-62.1
X116.0Y-65.4
X117.78Y-71.4
X117.9Y-69.0
X118.1Y-66.8
X118.5Y-66.4
X119.1Y-66.6
X119.7Y-59.9
X121.83Y-69.15
X123.9Y-66.7
X124.366Y-75.571
X124.6Y-66.7
X125.7Y-60.5
X126.66Y-63.47
X126.7Y-60.5
X126.98Y-73.216
X127.07Y-74.43
X127.5Y-48.7
X127.5Y-49.3
X127.5Y-49.9
X127.6Y-73.8
X127.7Y-47.7
X127.7Y-72.5
X127.85Y-66.12
X128.0Y-69.0
X128.11Y-64.73
X128.5Y-59.1
X128.67Y-77.24
X128.7Y-64.34
X129.7Y-62.1
X130.0Y-60.7
X130.2Y-58.9
X130.5Y-60.2
X130.6Y-75.1
X130.69Y-71.72
X130.8Y-73.22
X131.1Y-60.4
X131.8Y-60.9
X131.98Y-61.57
X132.0Y-72.3
X132.076Y-64.182
X132.5Y-72.8
X132.9Y-69.1
X133.0Y-67.5
X133.0Y-71.6
X133.5Y-70.9
X134.2Y-59.4
X134.8Y-65.28
X134.8Y-73.3
X135.1Y-80.9
X135.4Y-69.0
X135.8Y-75.2
X136.0Y-66.3
X137.2Y-75.5
X137.8Y-75.0
X138.26Y-63.78
X138.8Y-75.1
X139.0Y-65.0
X139.2Y-60.1
X139.9Y-69.8
X139.95Y-69.05
X140.3Y-70.5
X141.0Y-69.8
X141.06Y-70.95
X144.0Y-60.3
X144.0Y-61.0
X144.2Y-71.4
X144.7Y-60.3
X144.7Y-61.0
X144.8Y-74.1
X145.1Y-68.8
X147.1Y-73.7
X148.5Y-56.8
X149.6Y-56.8
T3
X129.105Y-65.573
X129.105Y-66.848
X129.105Y-68.123
X130.38Y-65.573
X130.38Y-66.848
X130.38Y-68.123
X131.655Y-65.573
X131.655Y-66.848
X131.655Y-68.123
T4
X110.2Y-78.2
X111.4Y-75.3
X112.1Y-60.1
X113.5Y-59.3
X115.0Y-47.6
X117.3Y-56.3
X117.9Y-43.3
X119.7Y-46.3
X120.6Y-48.9
X123.2Y-46.1
X123.5Y-58.5
X124.6Y-60.9
X125.4Y-56.7
X127.5Y-60.4
X127.6Y-61.7
X129.5Y-50.2
X129.5Y-51.2
X131.0Y-52.3
X131.0Y-53.3
X133.7Y-52.3
X133.7Y-53.3
X143.0Y-43.9
T5
X107.025Y-59.375
X107.025Y-60.225
T6
X132.4Y-80.3
X132.4Y-83.0
X132.5Y-78.8
X133.2Y-43.7
X133.3Y-84.6
X133.4Y-77.8
X134.42Y-85.6
X134.7Y-76.6
X136.58Y-85.6
X137.5Y-78.5
X137.94Y-80.8
X138.74Y-85.6
X138.94Y-82.1
X139.2Y-79.3
X140.1Y-80.8
X140.3Y-77.4
X140.6Y-55.5
X140.6Y-60.1
X140.6Y-61.75
X140.6Y-63.4
X140.7Y-47.3
X140.7Y-52.3
X140.9Y-85.6
X141.1Y-82.1
X141.36Y-79.3
X141.6Y-45.7
X141.6Y-50.7
X141.9Y-60.9
X142.367Y-55.5
X142.4Y-80.7
X142.46Y-77.4
X143.2Y-53.8
X143.52Y-79.3
X144.1Y-52.2
X144.133Y-55.5
X144.56Y-80.7
X144.62Y-77.4
X144.967Y-53.8
X145.3Y-65.0
X145.68Y-79.3
X145.867Y-52.2
X145.9Y-55.5
X146.0Y-43.5
X146.0Y-45.2
X146.0Y-46.9
X146.72Y-80.7
X146.733Y-53.8
X146.767Y-50.8
X146.78Y-77.4
X147.633Y-52.2
X147.667Y-55.5
X147.7Y-46.9
X147.84Y-79.3
X148.5Y-53.8
X148.533Y-50.8
X148.94Y-77.4
X149.4Y-52.2
X149.433Y-55.5
X150.0Y-79.3
X150.267Y-53.8
X150.3Y-50.8
X150.9Y-46.9
X151.1Y-77.4
X151.2Y-55.5
T7
X115.2Y-74.4
X128.05Y-79.58
X134.0Y-72.5
T9
X124.8Y-80.0
X126.2Y-80.0
T10
X117.2Y-53.0
X123.2Y-51.0
X124.5Y-52.4
X124.8Y-48.9
X126.3Y-52.4
T11
X98.3Y-48.4
X98.3Y-59.4
X113.4Y-44.6
X116.8Y-46.4
X135.1Y-49.9
X149.9Y-66.345
X149.9Y-68.885
X149.9Y-71.425
T12
X108.3Y-51.4
X108.3Y-56.4
T13
X108.3Y-45.3
X108.3Y-84.1
X149.1Y-84.1
T8
X109.12Y-64.278G85X108.32Y-64.278
G05
X109.12Y-72.918G85X108.32Y-72.918
G05
X113.45Y-64.278G85X112.35Y-64.278
G05
X113.45Y-72.918G85X112.35Y-72.918
G05
T0
M30
