%TF.GenerationSoftware,KiCad,Pcbnew,7.0.2*%
%TF.CreationDate,2023-10-17T14:13:16-04:00*%
%TF.ProjectId,BITSv5,42495453-7635-42e6-9b69-6361645f7063,rev?*%
%TF.SameCoordinates,Original*%
%TF.FileFunction,Soldermask,Bot*%
%TF.FilePolarity,Negative*%
%FSLAX46Y46*%
G04 Gerber Fmt 4.6, Leading zero omitted, Abs format (unit mm)*
G04 Created by KiCad (PCBNEW 7.0.2) date 2023-10-17 14:13:16*
%MOMM*%
%LPD*%
G01*
G04 APERTURE LIST*
G04 Aperture macros list*
%AMRoundRect*
0 Rectangle with rounded corners*
0 $1 Rounding radius*
0 $2 $3 $4 $5 $6 $7 $8 $9 X,Y pos of 4 corners*
0 Add a 4 corners polygon primitive as box body*
4,1,4,$2,$3,$4,$5,$6,$7,$8,$9,$2,$3,0*
0 Add four circle primitives for the rounded corners*
1,1,$1+$1,$2,$3*
1,1,$1+$1,$4,$5*
1,1,$1+$1,$6,$7*
1,1,$1+$1,$8,$9*
0 Add four rect primitives between the rounded corners*
20,1,$1+$1,$2,$3,$4,$5,0*
20,1,$1+$1,$4,$5,$6,$7,0*
20,1,$1+$1,$6,$7,$8,$9,0*
20,1,$1+$1,$8,$9,$2,$3,0*%
G04 Aperture macros list end*
%ADD10C,0.000100*%
%ADD11C,0.889000*%
%ADD12C,4.400000*%
%ADD13C,0.650000*%
%ADD14O,2.100000X1.000000*%
%ADD15O,1.800000X1.000000*%
%ADD16C,0.700000*%
%ADD17O,0.800000X1.500000*%
%ADD18C,1.400000*%
%ADD19R,3.500000X3.500000*%
%ADD20C,3.500000*%
%ADD21RoundRect,0.200000X0.200000X0.275000X-0.200000X0.275000X-0.200000X-0.275000X0.200000X-0.275000X0*%
%ADD22RoundRect,0.102000X2.050000X0.850000X-2.050000X0.850000X-2.050000X-0.850000X2.050000X-0.850000X0*%
%ADD23R,0.550000X0.950000*%
%ADD24RoundRect,0.225000X-0.225000X-0.250000X0.225000X-0.250000X0.225000X0.250000X-0.225000X0.250000X0*%
%ADD25RoundRect,0.322500X-1.177500X-0.322500X1.177500X-0.322500X1.177500X0.322500X-1.177500X0.322500X0*%
%ADD26RoundRect,0.325000X-1.175000X-0.325000X1.175000X-0.325000X1.175000X0.325000X-1.175000X0.325000X0*%
%ADD27RoundRect,0.325000X-0.325000X1.425000X-0.325000X-1.425000X0.325000X-1.425000X0.325000X1.425000X0*%
%ADD28RoundRect,0.200000X-0.200000X-0.275000X0.200000X-0.275000X0.200000X0.275000X-0.200000X0.275000X0*%
%ADD29R,1.362800X2.259800*%
%ADD30RoundRect,0.237500X0.250000X0.237500X-0.250000X0.237500X-0.250000X-0.237500X0.250000X-0.237500X0*%
%ADD31RoundRect,0.237500X-0.250000X-0.237500X0.250000X-0.237500X0.250000X0.237500X-0.250000X0.237500X0*%
%ADD32RoundRect,0.175000X0.175000X-0.725000X0.175000X0.725000X-0.175000X0.725000X-0.175000X-0.725000X0*%
%ADD33RoundRect,0.200000X0.200000X-0.700000X0.200000X0.700000X-0.200000X0.700000X-0.200000X-0.700000X0*%
G04 APERTURE END LIST*
%TO.C,BT2*%
D10*
X145850000Y-51425000D02*
X145850000Y-48625000D01*
X148650000Y-48625000D01*
X145850000Y-51425000D01*
G36*
X145850000Y-51425000D02*
G01*
X145850000Y-48625000D01*
X148650000Y-48625000D01*
X145850000Y-51425000D01*
G37*
%TD*%
D11*
%TO.C,SW3*%
X113560098Y-77455002D03*
X106760102Y-77455002D03*
%TD*%
D12*
%TO.C,H2*%
X108225000Y-84200000D03*
%TD*%
D13*
%TO.C,J2*%
X112400100Y-65708102D03*
X112400100Y-71488102D03*
D14*
X112900100Y-64278102D03*
D15*
X108720100Y-64278102D03*
D14*
X112900100Y-72918102D03*
D15*
X108720100Y-72918102D03*
%TD*%
D16*
%TO.C,J3*%
X117505000Y-45215000D03*
X116235000Y-45215000D03*
X114965000Y-45215000D03*
X113695000Y-45215000D03*
X112425000Y-45215000D03*
D17*
X116870000Y-44060000D03*
X115600000Y-44060000D03*
X114330000Y-44060000D03*
X113060000Y-44060000D03*
%TD*%
D18*
%TO.C,BT1*%
X109205100Y-61223102D03*
X109205100Y-50223102D03*
D19*
X119205100Y-53223102D03*
D20*
X119205100Y-58223102D03*
%TD*%
D12*
%TO.C,H3*%
X149225000Y-84200000D03*
%TD*%
%TO.C,H1*%
X108225000Y-45200000D03*
%TD*%
%TO.C,H4*%
X149225000Y-45200000D03*
%TD*%
D21*
%TO.C,R9*%
X118375000Y-81675000D03*
X120025000Y-81675000D03*
%TD*%
D22*
%TO.C,BT2*%
X148000000Y-53275000D03*
%TD*%
D23*
%TO.C,U11*%
X115800000Y-77925000D03*
X117050000Y-77925000D03*
X118300000Y-77925000D03*
X119550000Y-77925000D03*
X119550000Y-80075000D03*
X118300000Y-80075000D03*
X117050000Y-80075000D03*
X115800000Y-80075000D03*
%TD*%
D24*
%TO.C,C29*%
X116350000Y-76375000D03*
X117900000Y-76375000D03*
%TD*%
D25*
%TO.C,U4*%
X123965000Y-74210000D03*
D26*
X123965000Y-71665000D03*
X123965000Y-69125000D03*
X123965000Y-66585000D03*
X123965000Y-64045000D03*
X123965000Y-61505000D03*
X123965000Y-58965000D03*
X142965000Y-58965000D03*
X142965000Y-61505000D03*
X142965000Y-64045000D03*
X142965000Y-66585000D03*
X142965000Y-69125000D03*
X142965000Y-71665000D03*
D25*
X142965000Y-74210000D03*
D27*
X142135000Y-84815000D03*
X139595000Y-84815000D03*
X137055000Y-84815000D03*
%TD*%
D28*
%TO.C,R6*%
X115275000Y-81675000D03*
X116925000Y-81675000D03*
%TD*%
D29*
%TO.C,AE1*%
X130101301Y-44155000D03*
X123175899Y-44155000D03*
%TD*%
D30*
%TO.C,R8*%
X110932600Y-70348102D03*
X109107600Y-70348102D03*
%TD*%
D31*
%TO.C,R7*%
X109107600Y-67348102D03*
X110932600Y-67348102D03*
%TD*%
D32*
%TO.C,U3*%
X144300000Y-53200000D03*
D33*
X143200000Y-53200000D03*
X142100000Y-53200000D03*
X141000000Y-53200000D03*
X139900000Y-53200000D03*
X138800000Y-53200000D03*
X137700000Y-53200000D03*
X136600000Y-53200000D03*
D32*
X135500000Y-53200000D03*
X135500000Y-43700000D03*
D33*
X136600000Y-43700000D03*
X137700000Y-43700000D03*
X138800000Y-43700000D03*
X139900000Y-43700000D03*
X141000000Y-43700000D03*
X142100000Y-43700000D03*
X143200000Y-43700000D03*
D32*
X144300000Y-43700000D03*
%TD*%
M02*
