M48
; DRILL file {KiCad 7.0.2} date Tue Oct 17 14:13:21 2023
; FORMAT={-:-/ absolute / metric / decimal}
; #@! TF.CreationDate,2023-10-17T14:13:21-04:00
; #@! TF.GenerationSoftware,Kicad,Pcbnew,7.0.2
; #@! TF.FileFunction,Plated,1,4,PTH
FMAT,2
METRIC
; #@! TA.AperFunction,Plated,PTH,ViaDrill
T1C0.300
; #@! TA.AperFunction,Plated,PTH,ComponentDrill
T2C0.350
; #@! TA.AperFunction,Plated,PTH,ViaDrill
T3C0.450
; #@! TA.AperFunction,Plated,PTH,ViaDrill
T4C0.600
; #@! TA.AperFunction,Plated,PTH,ComponentDrill
T5C0.600
; #@! TA.AperFunction,Plated,PTH,ViaDrill
T6C0.850
; #@! TA.AperFunction,Plated,PTH,ComponentDrill
T7C1.000
; #@! TA.AperFunction,Plated,PTH,ComponentDrill
T8C1.900
; #@! TA.AperFunction,Plated,PTH,ComponentDrill
T9C2.200
%
G90
G05
T1
X111.25Y-48.06
X112.145Y-70.348
X112.245Y-67.348
X114.21Y-51.86
X114.3Y-53.18
X114.4Y-81.625
X114.73Y-77.64
X115.54Y-64.38
X116.12Y-63.65
X116.825Y-79.0
X117.45Y-78.975
X117.637Y-72.4
X117.78Y-69.22
X117.78Y-71.02
X117.79Y-67.82
X117.82Y-68.48
X118.075Y-78.975
X118.33Y-64.65
X118.35Y-75.05
X119.03Y-66.35
X119.33Y-44.99
X119.33Y-46.06
X119.37Y-43.84
X119.38Y-47.4
X119.4Y-42.89
X119.52Y-64.66
X119.8Y-48.28
X120.27Y-73.11
X120.34Y-70.39
X121.06Y-68.69
X121.15Y-80.25
X121.17Y-48.34
X121.83Y-69.15
X122.305Y-57.86
X122.35Y-48.34
X122.78Y-57.185
X123.65Y-48.36
X124.3Y-83.0
X124.366Y-75.571
X124.98Y-55.96
X125.005Y-53.66
X125.06Y-48.35
X125.49Y-58.04
X126.23Y-51.435
X126.28Y-60.38
X126.37Y-48.36
X126.66Y-63.47
X126.98Y-73.216
X127.0Y-60.53
X127.01Y-70.16
X127.07Y-74.43
X127.1Y-59.79
X127.505Y-55.96
X127.53Y-53.66
X127.705Y-51.41
X127.85Y-66.12
X127.92Y-49.59
X127.93Y-48.35
X127.98Y-71.83
X128.03Y-50.53
X128.04Y-73.33
X128.08Y-71.15
X128.11Y-64.73
X128.405Y-51.535
X128.626Y-61.454
X128.67Y-77.24
X128.7Y-64.34
X128.84Y-60.84
X129.27Y-48.32
X129.32Y-51.53
X129.44Y-60.378
X129.78Y-57.16
X129.912Y-49.298
X130.18Y-60.03
X130.28Y-57.86
X130.69Y-71.72
X130.76Y-48.29
X130.8Y-73.22
X131.12Y-60.53
X131.19Y-64.21
X131.232Y-69.308
X131.48Y-57.79
X131.98Y-61.57
X132.076Y-64.182
X132.28Y-48.33
X132.46Y-71.53
X132.515Y-69.345
X132.66Y-49.36
X132.664Y-62.034
X132.86Y-67.85
X132.97Y-73.98
X133.16Y-62.55
X133.27Y-83.34
X133.473Y-56.417
X133.53Y-48.38
X133.56Y-70.29
X133.58Y-47.65
X133.64Y-46.15
X133.81Y-76.16
X133.99Y-61.55
X134.42Y-47.65
X134.46Y-46.11
X134.57Y-62.07
X134.58Y-48.42
X134.89Y-64.27
X134.98Y-68.4
X135.12Y-45.8
X135.35Y-76.33
X135.45Y-85.31
X135.46Y-82.97
X135.46Y-84.17
X135.47Y-86.42
X135.48Y-47.59
X135.59Y-48.41
X135.74Y-45.21
X135.858Y-66.082
X136.09Y-61.6
X136.113Y-55.017
X136.24Y-47.09
X136.26Y-82.12
X136.55Y-48.36
X136.78Y-46.56
X136.86Y-61.52
X136.94Y-50.06
X137.13Y-81.17
X137.31Y-47.74
X137.35Y-45.14
X137.36Y-45.85
X137.5Y-70.69
X137.67Y-49.44
X137.69Y-46.84
X138.07Y-80.23
X138.26Y-63.78
X138.31Y-83.95
X138.31Y-84.86
X138.323Y-55.087
X138.33Y-85.67
X138.39Y-86.58
X138.403Y-60.227
X138.42Y-83.01
X138.6Y-78.43
X138.62Y-65.55
X138.77Y-82.25
X138.81Y-66.8
X138.91Y-45.09
X138.92Y-48.59
X138.93Y-79.45
X139.19Y-81.63
X139.253Y-60.327
X139.63Y-81.1
X139.71Y-71.8
X139.713Y-55.707
X139.77Y-66.72
X139.77Y-78.65
X139.923Y-57.547
X140.1Y-77.41
X140.13Y-80.68
X140.47Y-45.05
X140.49Y-48.66
X140.49Y-82.66
X140.54Y-81.46
X140.58Y-76.52
X140.66Y-80.19
X140.73Y-86.51
X140.76Y-83.45
X140.79Y-84.26
X140.82Y-64.09
X140.83Y-85.1
X140.83Y-85.77
X141.04Y-82.21
X141.18Y-79.65
X141.31Y-75.91
X141.49Y-70.36
X141.54Y-81.7
X141.8Y-79.02
X142.02Y-48.6
X142.09Y-45.06
X142.1Y-81.11
X142.33Y-75.85
X142.47Y-78.37
X142.64Y-80.49
X143.14Y-77.75
X143.15Y-79.93
X143.2Y-45.09
X143.25Y-72.9
X143.48Y-75.79
X143.51Y-67.81
X143.57Y-48.61
X143.76Y-79.37
X143.81Y-77.06
X144.32Y-78.86
X144.44Y-76.47
X144.87Y-78.28
X144.96Y-75.95
X145.11Y-52.07
X145.38Y-77.7
X145.45Y-48.2
X145.46Y-66.07
X145.47Y-67.08
X145.48Y-67.95
X145.53Y-69.06
X145.56Y-70.13
X145.59Y-71.36
X145.62Y-72.55
X145.63Y-73.64
X145.64Y-74.63
X145.69Y-75.63
X145.69Y-80.01
X145.72Y-78.93
X145.82Y-77.14
X146.42Y-65.51
X146.46Y-80.63
X147.45Y-65.49
X147.5Y-80.6
X148.38Y-65.5
X148.64Y-80.56
X149.38Y-65.49
X149.4Y-49.36
X149.76Y-80.55
X150.44Y-65.54
X150.92Y-80.65
X150.98Y-52.61
X151.12Y-54.33
X151.35Y-65.53
T2
X129.105Y-65.573
X129.105Y-66.848
X129.105Y-68.123
X130.38Y-65.573
X130.38Y-66.848
X130.38Y-68.123
X131.655Y-65.573
X131.655Y-66.848
X131.655Y-68.123
T3
X108.12Y-67.348
X108.12Y-70.348
X115.025Y-76.525
X117.005Y-67.825
X117.005Y-68.555
X117.015Y-69.295
X118.59Y-61.97
X118.6Y-62.79
X118.61Y-63.64
X119.61Y-61.96
X119.66Y-62.81
X119.66Y-63.64
X122.31Y-56.44
X122.325Y-51.355
X123.175Y-51.355
X129.66Y-56.28
X129.68Y-55.36
X131.04Y-54.55
X133.12Y-72.76
X133.195Y-54.775
X136.085Y-49.425
X136.533Y-57.832
X137.958Y-57.807
X139.703Y-54.832
X141.073Y-50.497
X142.043Y-50.652
X146.03Y-61.34
X146.04Y-62.25
X146.04Y-63.18
X146.06Y-57.38
X146.08Y-55.37
X146.09Y-56.4
X146.95Y-58.37
X147.05Y-60.1
X147.81Y-58.37
X147.84Y-60.12
X148.45Y-64.02
X148.72Y-61.34
X148.88Y-57.16
X149.45Y-62.02
X149.57Y-56.6
X150.22Y-57.2
X150.26Y-61.31
T4
X114.695Y-74.425
X125.55Y-79.98
X128.05Y-79.58
X133.93Y-60.62
T6
X141.088Y-65.152
T7
X109.205Y-50.223
X109.205Y-61.223
T8
X119.205Y-53.223
X119.205Y-58.223
T9
X108.225Y-45.2
X108.225Y-84.2
X149.225Y-45.2
X149.225Y-84.2
T5
G00X109.12Y-64.278
M15
G01X108.32Y-64.278
M16
G05
G00X109.12Y-72.918
M15
G01X108.32Y-72.918
M16
G05
G00X113.45Y-64.278
M15
G01X112.35Y-64.278
M16
G05
G00X113.45Y-72.918
M15
G01X112.35Y-72.918
M16
G05
T0
M30
