G04 EAGLE Gerber RS-274X export*
G75*
%MOMM*%
%FSLAX34Y34*%
%LPD*%
%INBottom Copper*%
%IPPOS*%
%AMOC8*
5,1,8,0,0,1.08239X$1,22.5*%
G01*
%ADD10C,1.389888*%
%ADD11C,1.270000*%
%ADD12C,1.152000*%
%ADD13R,0.800000X2.000000*%
%ADD14R,2.100000X3.000000*%
%ADD15C,0.754000*%
%ADD16C,0.604000*%
%ADD17C,0.406400*%

G36*
X607096Y-38984D02*
X607096Y-38984D01*
X607160Y-38985D01*
X610392Y-38773D01*
X610419Y-38768D01*
X610446Y-38769D01*
X610687Y-38724D01*
X616931Y-37051D01*
X617003Y-37023D01*
X617078Y-37004D01*
X617212Y-36940D01*
X617255Y-36923D01*
X617271Y-36912D01*
X617299Y-36899D01*
X622898Y-33667D01*
X622960Y-33621D01*
X623027Y-33583D01*
X623139Y-33487D01*
X623178Y-33459D01*
X623190Y-33444D01*
X623213Y-33424D01*
X627784Y-28853D01*
X627832Y-28793D01*
X627888Y-28739D01*
X627972Y-28617D01*
X628001Y-28580D01*
X628009Y-28562D01*
X628027Y-28538D01*
X631259Y-22939D01*
X631286Y-22876D01*
X631296Y-22860D01*
X631298Y-22855D01*
X631329Y-22802D01*
X631379Y-22663D01*
X631398Y-22619D01*
X631401Y-22600D01*
X631411Y-22571D01*
X633084Y-16327D01*
X633088Y-16300D01*
X633098Y-16274D01*
X633133Y-16032D01*
X633345Y-12800D01*
X633343Y-12763D01*
X633348Y-12700D01*
X633348Y122400D01*
X633345Y122426D01*
X633347Y122452D01*
X633325Y122599D01*
X633308Y122746D01*
X633300Y122771D01*
X633296Y122797D01*
X633241Y122935D01*
X633191Y123074D01*
X633177Y123096D01*
X633167Y123121D01*
X633082Y123242D01*
X633002Y123367D01*
X632983Y123385D01*
X632968Y123407D01*
X632858Y123506D01*
X632751Y123609D01*
X632729Y123623D01*
X632709Y123640D01*
X632579Y123712D01*
X632452Y123788D01*
X632427Y123796D01*
X632404Y123809D01*
X632261Y123849D01*
X632120Y123894D01*
X632094Y123896D01*
X632069Y123904D01*
X631825Y123923D01*
X589780Y123923D01*
X590298Y370396D01*
X590298Y370399D01*
X590298Y370403D01*
X590278Y370573D01*
X590259Y370742D01*
X590258Y370745D01*
X590258Y370749D01*
X590182Y370982D01*
X589729Y372076D01*
X589729Y378564D01*
X590203Y379709D01*
X590204Y379709D01*
X590245Y379853D01*
X590299Y380044D01*
X590299Y380045D01*
X590319Y380288D01*
X590357Y398142D01*
X590354Y398170D01*
X590356Y398197D01*
X590334Y398342D01*
X590318Y398488D01*
X590308Y398514D01*
X590304Y398542D01*
X590250Y398678D01*
X590201Y398816D01*
X590186Y398840D01*
X590175Y398866D01*
X590092Y398986D01*
X590012Y399110D01*
X589992Y399129D01*
X589977Y399152D01*
X589868Y399250D01*
X589762Y399352D01*
X589738Y399367D01*
X589718Y399385D01*
X589589Y399456D01*
X589464Y399532D01*
X589437Y399540D01*
X589413Y399554D01*
X589271Y399594D01*
X589132Y399639D01*
X589104Y399641D01*
X589077Y399649D01*
X588834Y399668D01*
X472506Y399668D01*
X472406Y399657D01*
X472306Y399655D01*
X472233Y399637D01*
X472160Y399628D01*
X472065Y399595D01*
X471968Y399570D01*
X471902Y399536D01*
X471831Y399511D01*
X471747Y399456D01*
X471658Y399410D01*
X471601Y399362D01*
X471539Y399322D01*
X471469Y399250D01*
X471392Y399185D01*
X471348Y399125D01*
X471296Y399071D01*
X471245Y398985D01*
X471185Y398904D01*
X471156Y398836D01*
X471118Y398772D01*
X471087Y398677D01*
X471047Y398584D01*
X471034Y398511D01*
X471011Y398440D01*
X471003Y398340D01*
X470986Y398241D01*
X470989Y398167D01*
X470983Y398093D01*
X470998Y397994D01*
X471003Y397893D01*
X471024Y397822D01*
X471035Y397748D01*
X471072Y397655D01*
X471100Y397558D01*
X471136Y397493D01*
X471164Y397424D01*
X471221Y397342D01*
X471270Y397254D01*
X471335Y397178D01*
X471363Y397138D01*
X471389Y397114D01*
X471429Y397068D01*
X471966Y396531D01*
X473165Y393636D01*
X473165Y390504D01*
X471966Y387609D01*
X469751Y385394D01*
X466856Y384195D01*
X463724Y384195D01*
X460829Y385394D01*
X458614Y387609D01*
X457415Y390504D01*
X457415Y393636D01*
X458614Y396531D01*
X459151Y397068D01*
X459214Y397146D01*
X459284Y397219D01*
X459322Y397283D01*
X459368Y397341D01*
X459411Y397432D01*
X459462Y397518D01*
X459485Y397589D01*
X459517Y397656D01*
X459538Y397754D01*
X459569Y397850D01*
X459575Y397924D01*
X459590Y397997D01*
X459589Y398097D01*
X459597Y398197D01*
X459586Y398271D01*
X459584Y398345D01*
X459560Y398442D01*
X459545Y398542D01*
X459517Y398611D01*
X459499Y398683D01*
X459453Y398772D01*
X459416Y398866D01*
X459374Y398927D01*
X459340Y398993D01*
X459274Y399070D01*
X459217Y399152D01*
X459162Y399202D01*
X459114Y399258D01*
X459033Y399318D01*
X458958Y399385D01*
X458893Y399421D01*
X458834Y399466D01*
X458741Y399505D01*
X458653Y399554D01*
X458582Y399574D01*
X458514Y399604D01*
X458415Y399621D01*
X458318Y399649D01*
X458218Y399657D01*
X458171Y399665D01*
X458135Y399663D01*
X458074Y399668D01*
X452506Y399668D01*
X452406Y399657D01*
X452306Y399655D01*
X452233Y399637D01*
X452160Y399628D01*
X452065Y399595D01*
X451968Y399570D01*
X451902Y399536D01*
X451831Y399511D01*
X451747Y399456D01*
X451658Y399410D01*
X451601Y399362D01*
X451539Y399322D01*
X451469Y399250D01*
X451392Y399185D01*
X451348Y399125D01*
X451296Y399071D01*
X451245Y398985D01*
X451185Y398904D01*
X451156Y398836D01*
X451118Y398772D01*
X451087Y398677D01*
X451047Y398584D01*
X451034Y398511D01*
X451011Y398440D01*
X451003Y398340D01*
X450986Y398241D01*
X450989Y398167D01*
X450983Y398093D01*
X450998Y397994D01*
X451003Y397893D01*
X451024Y397822D01*
X451035Y397748D01*
X451072Y397655D01*
X451100Y397558D01*
X451136Y397493D01*
X451164Y397424D01*
X451221Y397342D01*
X451270Y397254D01*
X451335Y397178D01*
X451363Y397138D01*
X451389Y397114D01*
X451429Y397068D01*
X451966Y396531D01*
X453165Y393636D01*
X453165Y390504D01*
X451966Y387609D01*
X449751Y385394D01*
X446856Y384195D01*
X443724Y384195D01*
X440829Y385394D01*
X438614Y387609D01*
X437415Y390504D01*
X437415Y393636D01*
X438614Y396531D01*
X439151Y397068D01*
X439214Y397146D01*
X439284Y397219D01*
X439322Y397283D01*
X439368Y397341D01*
X439411Y397432D01*
X439462Y397518D01*
X439485Y397589D01*
X439517Y397656D01*
X439538Y397754D01*
X439569Y397850D01*
X439575Y397924D01*
X439590Y397997D01*
X439589Y398097D01*
X439597Y398197D01*
X439586Y398271D01*
X439584Y398345D01*
X439560Y398442D01*
X439545Y398542D01*
X439517Y398611D01*
X439499Y398683D01*
X439453Y398772D01*
X439416Y398866D01*
X439374Y398927D01*
X439340Y398993D01*
X439274Y399070D01*
X439217Y399152D01*
X439162Y399202D01*
X439114Y399258D01*
X439033Y399318D01*
X438958Y399385D01*
X438893Y399421D01*
X438834Y399466D01*
X438741Y399505D01*
X438653Y399554D01*
X438582Y399574D01*
X438514Y399604D01*
X438415Y399621D01*
X438318Y399649D01*
X438218Y399657D01*
X438171Y399665D01*
X438135Y399663D01*
X438074Y399668D01*
X432506Y399668D01*
X432406Y399657D01*
X432306Y399655D01*
X432233Y399637D01*
X432160Y399628D01*
X432065Y399595D01*
X431968Y399570D01*
X431902Y399536D01*
X431831Y399511D01*
X431747Y399456D01*
X431658Y399410D01*
X431601Y399362D01*
X431539Y399322D01*
X431469Y399250D01*
X431392Y399185D01*
X431348Y399125D01*
X431296Y399071D01*
X431245Y398985D01*
X431185Y398904D01*
X431156Y398836D01*
X431118Y398772D01*
X431087Y398677D01*
X431047Y398584D01*
X431034Y398511D01*
X431011Y398440D01*
X431003Y398340D01*
X430986Y398241D01*
X430989Y398167D01*
X430983Y398093D01*
X430998Y397994D01*
X431003Y397893D01*
X431024Y397822D01*
X431035Y397748D01*
X431072Y397655D01*
X431100Y397558D01*
X431136Y397493D01*
X431164Y397424D01*
X431221Y397342D01*
X431270Y397254D01*
X431335Y397178D01*
X431363Y397138D01*
X431389Y397114D01*
X431429Y397068D01*
X431966Y396531D01*
X433165Y393636D01*
X433165Y390504D01*
X431966Y387609D01*
X429751Y385394D01*
X426856Y384195D01*
X423724Y384195D01*
X420829Y385394D01*
X418614Y387609D01*
X417415Y390504D01*
X417415Y393636D01*
X418614Y396531D01*
X419151Y397068D01*
X419214Y397146D01*
X419284Y397219D01*
X419322Y397283D01*
X419368Y397341D01*
X419411Y397432D01*
X419462Y397518D01*
X419485Y397589D01*
X419517Y397656D01*
X419538Y397754D01*
X419569Y397850D01*
X419575Y397924D01*
X419590Y397997D01*
X419589Y398097D01*
X419597Y398197D01*
X419586Y398271D01*
X419584Y398345D01*
X419560Y398442D01*
X419545Y398542D01*
X419517Y398611D01*
X419499Y398683D01*
X419453Y398772D01*
X419416Y398866D01*
X419374Y398927D01*
X419340Y398993D01*
X419274Y399070D01*
X419217Y399152D01*
X419162Y399202D01*
X419114Y399258D01*
X419033Y399318D01*
X418958Y399385D01*
X418893Y399421D01*
X418834Y399466D01*
X418741Y399505D01*
X418653Y399554D01*
X418582Y399574D01*
X418514Y399604D01*
X418415Y399621D01*
X418318Y399649D01*
X418218Y399657D01*
X418171Y399665D01*
X418135Y399663D01*
X418074Y399668D01*
X412506Y399668D01*
X412406Y399657D01*
X412306Y399655D01*
X412233Y399637D01*
X412160Y399628D01*
X412065Y399595D01*
X411968Y399570D01*
X411902Y399536D01*
X411831Y399511D01*
X411747Y399456D01*
X411658Y399410D01*
X411601Y399362D01*
X411539Y399322D01*
X411469Y399250D01*
X411392Y399185D01*
X411348Y399125D01*
X411296Y399071D01*
X411245Y398985D01*
X411185Y398904D01*
X411156Y398836D01*
X411118Y398772D01*
X411087Y398677D01*
X411047Y398584D01*
X411034Y398511D01*
X411011Y398440D01*
X411003Y398340D01*
X410986Y398241D01*
X410989Y398167D01*
X410983Y398093D01*
X410998Y397994D01*
X411003Y397893D01*
X411024Y397822D01*
X411035Y397748D01*
X411072Y397655D01*
X411100Y397558D01*
X411136Y397493D01*
X411164Y397424D01*
X411221Y397342D01*
X411270Y397254D01*
X411335Y397178D01*
X411363Y397138D01*
X411389Y397114D01*
X411429Y397068D01*
X411966Y396531D01*
X413165Y393636D01*
X413165Y390504D01*
X411966Y387609D01*
X409751Y385394D01*
X406856Y384195D01*
X403724Y384195D01*
X400829Y385394D01*
X398614Y387609D01*
X397415Y390504D01*
X397415Y393636D01*
X398614Y396531D01*
X399151Y397068D01*
X399214Y397146D01*
X399284Y397219D01*
X399322Y397283D01*
X399368Y397341D01*
X399411Y397432D01*
X399462Y397518D01*
X399485Y397589D01*
X399517Y397656D01*
X399538Y397754D01*
X399569Y397850D01*
X399575Y397924D01*
X399590Y397997D01*
X399589Y398097D01*
X399597Y398197D01*
X399586Y398271D01*
X399584Y398345D01*
X399560Y398442D01*
X399545Y398542D01*
X399517Y398611D01*
X399499Y398683D01*
X399453Y398772D01*
X399416Y398866D01*
X399374Y398927D01*
X399340Y398993D01*
X399274Y399070D01*
X399217Y399152D01*
X399162Y399202D01*
X399114Y399258D01*
X399033Y399318D01*
X398958Y399385D01*
X398893Y399421D01*
X398834Y399466D01*
X398741Y399505D01*
X398653Y399554D01*
X398582Y399574D01*
X398514Y399604D01*
X398415Y399621D01*
X398318Y399649D01*
X398218Y399657D01*
X398171Y399665D01*
X398135Y399663D01*
X398074Y399668D01*
X392506Y399668D01*
X392406Y399657D01*
X392306Y399655D01*
X392233Y399637D01*
X392160Y399628D01*
X392065Y399595D01*
X391968Y399570D01*
X391902Y399536D01*
X391831Y399511D01*
X391747Y399456D01*
X391658Y399410D01*
X391601Y399362D01*
X391539Y399322D01*
X391469Y399250D01*
X391392Y399185D01*
X391348Y399125D01*
X391296Y399071D01*
X391245Y398985D01*
X391185Y398904D01*
X391156Y398836D01*
X391118Y398772D01*
X391087Y398677D01*
X391047Y398584D01*
X391034Y398511D01*
X391011Y398440D01*
X391003Y398340D01*
X390986Y398241D01*
X390989Y398167D01*
X390983Y398093D01*
X390998Y397994D01*
X391003Y397893D01*
X391024Y397822D01*
X391035Y397748D01*
X391072Y397655D01*
X391100Y397558D01*
X391136Y397493D01*
X391164Y397424D01*
X391221Y397342D01*
X391270Y397254D01*
X391335Y397178D01*
X391363Y397138D01*
X391389Y397114D01*
X391429Y397068D01*
X391966Y396531D01*
X393165Y393636D01*
X393165Y390504D01*
X391966Y387609D01*
X389751Y385394D01*
X386856Y384195D01*
X383724Y384195D01*
X380829Y385394D01*
X378614Y387609D01*
X377415Y390504D01*
X377415Y393636D01*
X378614Y396531D01*
X379151Y397068D01*
X379214Y397146D01*
X379284Y397219D01*
X379322Y397283D01*
X379368Y397341D01*
X379411Y397432D01*
X379462Y397518D01*
X379485Y397589D01*
X379517Y397656D01*
X379538Y397754D01*
X379569Y397850D01*
X379575Y397924D01*
X379590Y397997D01*
X379589Y398097D01*
X379597Y398197D01*
X379586Y398271D01*
X379584Y398345D01*
X379560Y398442D01*
X379545Y398542D01*
X379517Y398611D01*
X379499Y398683D01*
X379453Y398772D01*
X379416Y398866D01*
X379374Y398927D01*
X379340Y398993D01*
X379274Y399070D01*
X379217Y399152D01*
X379162Y399202D01*
X379114Y399258D01*
X379033Y399318D01*
X378958Y399385D01*
X378893Y399421D01*
X378834Y399466D01*
X378741Y399505D01*
X378653Y399554D01*
X378582Y399574D01*
X378514Y399604D01*
X378415Y399621D01*
X378318Y399649D01*
X378218Y399657D01*
X378171Y399665D01*
X378135Y399663D01*
X378074Y399668D01*
X372506Y399668D01*
X372406Y399657D01*
X372306Y399655D01*
X372233Y399637D01*
X372160Y399628D01*
X372065Y399595D01*
X371968Y399570D01*
X371902Y399536D01*
X371831Y399511D01*
X371747Y399456D01*
X371658Y399410D01*
X371601Y399362D01*
X371539Y399322D01*
X371469Y399250D01*
X371392Y399185D01*
X371348Y399125D01*
X371296Y399071D01*
X371245Y398985D01*
X371185Y398904D01*
X371156Y398836D01*
X371118Y398772D01*
X371087Y398677D01*
X371047Y398584D01*
X371034Y398511D01*
X371011Y398440D01*
X371003Y398340D01*
X370986Y398241D01*
X370989Y398167D01*
X370983Y398093D01*
X370998Y397994D01*
X371003Y397893D01*
X371024Y397822D01*
X371035Y397748D01*
X371072Y397655D01*
X371100Y397558D01*
X371136Y397493D01*
X371164Y397424D01*
X371221Y397342D01*
X371270Y397254D01*
X371335Y397178D01*
X371363Y397138D01*
X371389Y397114D01*
X371429Y397068D01*
X371966Y396531D01*
X373165Y393636D01*
X373165Y390504D01*
X371966Y387609D01*
X369751Y385394D01*
X366856Y384195D01*
X363724Y384195D01*
X360829Y385394D01*
X358614Y387609D01*
X357415Y390504D01*
X357415Y393636D01*
X358614Y396531D01*
X359151Y397068D01*
X359214Y397146D01*
X359284Y397219D01*
X359322Y397283D01*
X359368Y397341D01*
X359411Y397432D01*
X359462Y397518D01*
X359485Y397589D01*
X359517Y397656D01*
X359538Y397754D01*
X359569Y397850D01*
X359575Y397924D01*
X359590Y397997D01*
X359589Y398097D01*
X359597Y398197D01*
X359586Y398271D01*
X359584Y398345D01*
X359560Y398442D01*
X359545Y398542D01*
X359517Y398611D01*
X359499Y398683D01*
X359453Y398772D01*
X359416Y398866D01*
X359374Y398927D01*
X359340Y398993D01*
X359274Y399070D01*
X359217Y399152D01*
X359162Y399202D01*
X359114Y399258D01*
X359033Y399318D01*
X358958Y399385D01*
X358893Y399421D01*
X358834Y399466D01*
X358741Y399505D01*
X358653Y399554D01*
X358582Y399574D01*
X358514Y399604D01*
X358415Y399621D01*
X358318Y399649D01*
X358218Y399657D01*
X358171Y399665D01*
X358135Y399663D01*
X358074Y399668D01*
X352506Y399668D01*
X352406Y399657D01*
X352306Y399655D01*
X352233Y399637D01*
X352160Y399628D01*
X352065Y399595D01*
X351968Y399570D01*
X351902Y399536D01*
X351831Y399511D01*
X351747Y399456D01*
X351658Y399410D01*
X351601Y399362D01*
X351539Y399322D01*
X351469Y399250D01*
X351392Y399185D01*
X351348Y399125D01*
X351296Y399071D01*
X351245Y398985D01*
X351185Y398904D01*
X351156Y398836D01*
X351118Y398772D01*
X351087Y398677D01*
X351047Y398584D01*
X351034Y398511D01*
X351011Y398440D01*
X351003Y398340D01*
X350986Y398241D01*
X350989Y398167D01*
X350983Y398093D01*
X350998Y397994D01*
X351003Y397893D01*
X351024Y397822D01*
X351035Y397748D01*
X351072Y397655D01*
X351100Y397558D01*
X351136Y397493D01*
X351164Y397424D01*
X351221Y397342D01*
X351270Y397254D01*
X351335Y397178D01*
X351363Y397138D01*
X351389Y397114D01*
X351429Y397068D01*
X351966Y396531D01*
X353165Y393636D01*
X353165Y390504D01*
X351966Y387609D01*
X349751Y385394D01*
X346856Y384195D01*
X343724Y384195D01*
X340829Y385394D01*
X338614Y387609D01*
X337415Y390504D01*
X337415Y393636D01*
X338614Y396531D01*
X339151Y397068D01*
X339214Y397146D01*
X339284Y397219D01*
X339322Y397283D01*
X339368Y397341D01*
X339411Y397432D01*
X339462Y397518D01*
X339485Y397589D01*
X339517Y397656D01*
X339538Y397754D01*
X339569Y397850D01*
X339575Y397924D01*
X339590Y397997D01*
X339589Y398097D01*
X339597Y398197D01*
X339586Y398271D01*
X339584Y398345D01*
X339560Y398442D01*
X339545Y398542D01*
X339517Y398611D01*
X339499Y398683D01*
X339453Y398772D01*
X339416Y398866D01*
X339374Y398927D01*
X339340Y398993D01*
X339274Y399070D01*
X339217Y399152D01*
X339162Y399202D01*
X339114Y399258D01*
X339033Y399318D01*
X338958Y399385D01*
X338893Y399421D01*
X338834Y399466D01*
X338741Y399505D01*
X338653Y399554D01*
X338582Y399574D01*
X338514Y399604D01*
X338415Y399621D01*
X338318Y399649D01*
X338218Y399657D01*
X338171Y399665D01*
X338135Y399663D01*
X338074Y399668D01*
X332506Y399668D01*
X332406Y399657D01*
X332306Y399655D01*
X332233Y399637D01*
X332160Y399628D01*
X332065Y399595D01*
X331968Y399570D01*
X331902Y399536D01*
X331831Y399511D01*
X331747Y399456D01*
X331658Y399410D01*
X331601Y399362D01*
X331539Y399322D01*
X331469Y399250D01*
X331392Y399185D01*
X331348Y399125D01*
X331296Y399071D01*
X331245Y398985D01*
X331185Y398904D01*
X331156Y398836D01*
X331118Y398772D01*
X331087Y398677D01*
X331047Y398584D01*
X331034Y398511D01*
X331011Y398440D01*
X331003Y398340D01*
X330986Y398241D01*
X330989Y398167D01*
X330983Y398093D01*
X330998Y397994D01*
X331003Y397893D01*
X331024Y397822D01*
X331035Y397748D01*
X331072Y397655D01*
X331100Y397558D01*
X331136Y397493D01*
X331164Y397424D01*
X331221Y397342D01*
X331270Y397254D01*
X331335Y397178D01*
X331363Y397138D01*
X331389Y397114D01*
X331429Y397068D01*
X331966Y396531D01*
X333165Y393636D01*
X333165Y390504D01*
X331966Y387609D01*
X329751Y385394D01*
X326856Y384195D01*
X323724Y384195D01*
X320829Y385394D01*
X318614Y387609D01*
X317415Y390504D01*
X317415Y393636D01*
X318614Y396531D01*
X319151Y397068D01*
X319214Y397146D01*
X319284Y397219D01*
X319322Y397283D01*
X319368Y397341D01*
X319411Y397432D01*
X319462Y397518D01*
X319485Y397589D01*
X319517Y397656D01*
X319538Y397754D01*
X319569Y397850D01*
X319575Y397924D01*
X319590Y397997D01*
X319589Y398097D01*
X319597Y398197D01*
X319586Y398271D01*
X319584Y398345D01*
X319560Y398442D01*
X319545Y398542D01*
X319517Y398611D01*
X319499Y398683D01*
X319453Y398772D01*
X319416Y398866D01*
X319374Y398927D01*
X319340Y398993D01*
X319274Y399070D01*
X319217Y399152D01*
X319162Y399202D01*
X319114Y399258D01*
X319033Y399318D01*
X318958Y399385D01*
X318893Y399421D01*
X318834Y399466D01*
X318741Y399505D01*
X318653Y399554D01*
X318582Y399574D01*
X318514Y399604D01*
X318415Y399621D01*
X318318Y399649D01*
X318218Y399657D01*
X318171Y399665D01*
X318135Y399663D01*
X318074Y399668D01*
X312506Y399668D01*
X312406Y399657D01*
X312306Y399655D01*
X312233Y399637D01*
X312160Y399628D01*
X312065Y399595D01*
X311968Y399570D01*
X311902Y399536D01*
X311831Y399511D01*
X311747Y399456D01*
X311658Y399410D01*
X311601Y399362D01*
X311539Y399322D01*
X311469Y399250D01*
X311392Y399185D01*
X311348Y399125D01*
X311296Y399071D01*
X311245Y398985D01*
X311185Y398904D01*
X311156Y398836D01*
X311118Y398772D01*
X311087Y398677D01*
X311047Y398584D01*
X311034Y398511D01*
X311011Y398440D01*
X311003Y398340D01*
X310986Y398241D01*
X310989Y398167D01*
X310983Y398093D01*
X310998Y397994D01*
X311003Y397893D01*
X311024Y397822D01*
X311035Y397748D01*
X311072Y397655D01*
X311100Y397558D01*
X311136Y397493D01*
X311164Y397424D01*
X311221Y397342D01*
X311270Y397254D01*
X311335Y397178D01*
X311363Y397138D01*
X311389Y397114D01*
X311429Y397068D01*
X311966Y396531D01*
X313165Y393636D01*
X313165Y390504D01*
X311966Y387609D01*
X309751Y385394D01*
X306856Y384195D01*
X303724Y384195D01*
X300829Y385394D01*
X298614Y387609D01*
X297415Y390504D01*
X297415Y393636D01*
X298614Y396531D01*
X299151Y397068D01*
X299214Y397146D01*
X299284Y397219D01*
X299322Y397283D01*
X299368Y397341D01*
X299411Y397432D01*
X299462Y397518D01*
X299485Y397589D01*
X299517Y397656D01*
X299538Y397754D01*
X299569Y397850D01*
X299575Y397924D01*
X299590Y397997D01*
X299589Y398097D01*
X299597Y398197D01*
X299586Y398271D01*
X299584Y398345D01*
X299560Y398442D01*
X299545Y398542D01*
X299517Y398611D01*
X299499Y398683D01*
X299453Y398772D01*
X299416Y398866D01*
X299374Y398927D01*
X299340Y398993D01*
X299274Y399070D01*
X299217Y399152D01*
X299162Y399202D01*
X299114Y399258D01*
X299033Y399318D01*
X298958Y399385D01*
X298893Y399421D01*
X298834Y399466D01*
X298741Y399505D01*
X298653Y399554D01*
X298582Y399574D01*
X298514Y399604D01*
X298415Y399621D01*
X298318Y399649D01*
X298218Y399657D01*
X298171Y399665D01*
X298135Y399663D01*
X298074Y399668D01*
X292506Y399668D01*
X292406Y399657D01*
X292306Y399655D01*
X292233Y399637D01*
X292160Y399628D01*
X292065Y399595D01*
X291968Y399570D01*
X291902Y399536D01*
X291831Y399511D01*
X291747Y399456D01*
X291658Y399410D01*
X291601Y399362D01*
X291539Y399322D01*
X291469Y399250D01*
X291392Y399185D01*
X291348Y399125D01*
X291296Y399071D01*
X291245Y398985D01*
X291185Y398904D01*
X291156Y398836D01*
X291118Y398772D01*
X291087Y398677D01*
X291047Y398584D01*
X291034Y398511D01*
X291011Y398440D01*
X291003Y398340D01*
X290986Y398241D01*
X290989Y398167D01*
X290983Y398093D01*
X290998Y397994D01*
X291003Y397893D01*
X291024Y397822D01*
X291035Y397748D01*
X291072Y397655D01*
X291100Y397558D01*
X291136Y397493D01*
X291164Y397424D01*
X291221Y397342D01*
X291270Y397254D01*
X291335Y397178D01*
X291363Y397138D01*
X291389Y397114D01*
X291429Y397068D01*
X291966Y396531D01*
X293165Y393636D01*
X293165Y390504D01*
X291966Y387609D01*
X289751Y385394D01*
X286856Y384195D01*
X283724Y384195D01*
X280829Y385394D01*
X278614Y387609D01*
X277415Y390504D01*
X277415Y393636D01*
X278614Y396531D01*
X279151Y397068D01*
X279214Y397146D01*
X279284Y397219D01*
X279322Y397283D01*
X279368Y397341D01*
X279411Y397432D01*
X279462Y397518D01*
X279485Y397589D01*
X279517Y397656D01*
X279538Y397754D01*
X279569Y397850D01*
X279575Y397924D01*
X279590Y397997D01*
X279589Y398097D01*
X279597Y398197D01*
X279586Y398271D01*
X279584Y398345D01*
X279560Y398442D01*
X279545Y398542D01*
X279517Y398611D01*
X279499Y398683D01*
X279453Y398772D01*
X279416Y398866D01*
X279374Y398927D01*
X279340Y398993D01*
X279274Y399070D01*
X279217Y399152D01*
X279162Y399202D01*
X279114Y399258D01*
X279033Y399318D01*
X278958Y399385D01*
X278893Y399421D01*
X278834Y399466D01*
X278741Y399505D01*
X278653Y399554D01*
X278582Y399574D01*
X278514Y399604D01*
X278415Y399621D01*
X278318Y399649D01*
X278218Y399657D01*
X278171Y399665D01*
X278135Y399663D01*
X278074Y399668D01*
X213360Y399668D01*
X213318Y399663D01*
X213240Y399664D01*
X209764Y399390D01*
X209708Y399379D01*
X209650Y399377D01*
X209440Y399327D01*
X209422Y399323D01*
X209418Y399321D01*
X209413Y399320D01*
X202799Y397171D01*
X202693Y397123D01*
X202584Y397082D01*
X202520Y397044D01*
X202482Y397026D01*
X202447Y396999D01*
X202375Y396955D01*
X196749Y392868D01*
X196663Y392789D01*
X196571Y392716D01*
X196523Y392660D01*
X196493Y392632D01*
X196468Y392595D01*
X196412Y392531D01*
X192325Y386905D01*
X192268Y386803D01*
X192203Y386706D01*
X192177Y386645D01*
X192165Y386626D01*
X192163Y386618D01*
X192154Y386602D01*
X192141Y386559D01*
X192109Y386481D01*
X189960Y379867D01*
X189949Y379811D01*
X189929Y379758D01*
X189895Y379544D01*
X189891Y379526D01*
X189891Y379522D01*
X189890Y379516D01*
X189616Y376040D01*
X189618Y375997D01*
X189612Y375920D01*
X189612Y-12700D01*
X189616Y-12736D01*
X189615Y-12800D01*
X189827Y-16032D01*
X189832Y-16059D01*
X189831Y-16086D01*
X189876Y-16327D01*
X191549Y-22571D01*
X191577Y-22643D01*
X191596Y-22718D01*
X191660Y-22852D01*
X191677Y-22896D01*
X191688Y-22912D01*
X191701Y-22939D01*
X194933Y-28538D01*
X194980Y-28600D01*
X195017Y-28667D01*
X195082Y-28743D01*
X195110Y-28783D01*
X195127Y-28799D01*
X195141Y-28818D01*
X195156Y-28830D01*
X195176Y-28853D01*
X199747Y-33424D01*
X199807Y-33472D01*
X199861Y-33528D01*
X199983Y-33612D01*
X200020Y-33641D01*
X200038Y-33649D01*
X200062Y-33667D01*
X205661Y-36899D01*
X205732Y-36930D01*
X205798Y-36969D01*
X205937Y-37019D01*
X205981Y-37038D01*
X206000Y-37041D01*
X206029Y-37051D01*
X212273Y-38724D01*
X212300Y-38728D01*
X212326Y-38738D01*
X212568Y-38773D01*
X215800Y-38985D01*
X215837Y-38983D01*
X215900Y-38988D01*
X607060Y-38988D01*
X607096Y-38984D01*
G37*
%LPC*%
G36*
X293129Y-241D02*
X293129Y-241D01*
X293129Y11824D01*
X293126Y11850D01*
X293128Y11876D01*
X293106Y12023D01*
X293089Y12170D01*
X293081Y12195D01*
X293077Y12221D01*
X293044Y12302D01*
X293055Y12340D01*
X293100Y12481D01*
X293102Y12507D01*
X293110Y12532D01*
X293129Y12776D01*
X293129Y24841D01*
X295465Y24841D01*
X296111Y24668D01*
X296690Y24333D01*
X297021Y24002D01*
X297042Y23986D01*
X297059Y23965D01*
X297179Y23877D01*
X297294Y23785D01*
X297318Y23774D01*
X297339Y23758D01*
X297475Y23700D01*
X297609Y23636D01*
X297635Y23631D01*
X297659Y23620D01*
X297805Y23594D01*
X297950Y23563D01*
X297976Y23563D01*
X298002Y23559D01*
X298150Y23566D01*
X298299Y23569D01*
X298324Y23575D01*
X298350Y23577D01*
X298493Y23618D01*
X298637Y23654D01*
X298660Y23666D01*
X298685Y23673D01*
X298815Y23746D01*
X298946Y23813D01*
X298960Y23825D01*
X301344Y23825D01*
X301370Y23828D01*
X301396Y23826D01*
X301543Y23848D01*
X301690Y23865D01*
X301715Y23873D01*
X301741Y23877D01*
X301879Y23932D01*
X302018Y23982D01*
X302040Y23996D01*
X302065Y24006D01*
X302186Y24091D01*
X302311Y24171D01*
X302329Y24190D01*
X302351Y24205D01*
X302450Y24315D01*
X302553Y24422D01*
X302567Y24444D01*
X302584Y24464D01*
X302656Y24594D01*
X302732Y24721D01*
X302740Y24746D01*
X302753Y24769D01*
X302793Y24912D01*
X302838Y25053D01*
X302840Y25079D01*
X302848Y25104D01*
X302867Y25348D01*
X302867Y154823D01*
X302853Y154948D01*
X302846Y155074D01*
X302833Y155121D01*
X302827Y155169D01*
X302785Y155288D01*
X302750Y155409D01*
X302726Y155451D01*
X302710Y155497D01*
X302641Y155603D01*
X302580Y155713D01*
X302540Y155760D01*
X302521Y155790D01*
X302486Y155823D01*
X302421Y155900D01*
X292416Y165905D01*
X292395Y165921D01*
X292378Y165941D01*
X292259Y166030D01*
X292143Y166122D01*
X292119Y166133D01*
X292098Y166148D01*
X291962Y166207D01*
X291828Y166271D01*
X291802Y166276D01*
X291778Y166286D01*
X291631Y166313D01*
X291487Y166344D01*
X291461Y166343D01*
X291435Y166348D01*
X291286Y166340D01*
X291139Y166338D01*
X291113Y166332D01*
X291087Y166330D01*
X290945Y166289D01*
X290801Y166253D01*
X290777Y166241D01*
X290752Y166234D01*
X290623Y166161D01*
X290491Y166093D01*
X290471Y166076D01*
X290448Y166064D01*
X290262Y165905D01*
X289739Y165383D01*
X289720Y165372D01*
X289649Y165344D01*
X289568Y165288D01*
X289483Y165240D01*
X289426Y165189D01*
X289363Y165145D01*
X289297Y165072D01*
X289224Y165006D01*
X289181Y164943D01*
X289130Y164886D01*
X289082Y164800D01*
X289026Y164719D01*
X288998Y164648D01*
X288961Y164581D01*
X288934Y164486D01*
X288898Y164395D01*
X288887Y164319D01*
X288866Y164246D01*
X288854Y164097D01*
X288847Y164050D01*
X288849Y164031D01*
X288847Y164002D01*
X288847Y111097D01*
X263093Y85343D01*
X239721Y85343D01*
X239596Y85329D01*
X239470Y85322D01*
X239423Y85309D01*
X239375Y85303D01*
X239256Y85261D01*
X239135Y85226D01*
X239093Y85202D01*
X239047Y85186D01*
X238941Y85117D01*
X238831Y85056D01*
X238784Y85016D01*
X238754Y84997D01*
X238721Y84962D01*
X238644Y84897D01*
X238103Y84355D01*
X234337Y84355D01*
X231675Y87017D01*
X231675Y90783D01*
X234337Y93445D01*
X238103Y93445D01*
X238644Y92903D01*
X238743Y92824D01*
X238837Y92740D01*
X238880Y92716D01*
X238917Y92686D01*
X239032Y92632D01*
X239142Y92571D01*
X239189Y92558D01*
X239232Y92537D01*
X239356Y92511D01*
X239478Y92476D01*
X239538Y92471D01*
X239573Y92464D01*
X239621Y92465D01*
X239721Y92457D01*
X259516Y92457D01*
X259641Y92471D01*
X259768Y92478D01*
X259814Y92491D01*
X259862Y92497D01*
X259981Y92539D01*
X260102Y92574D01*
X260145Y92598D01*
X260190Y92614D01*
X260296Y92683D01*
X260407Y92744D01*
X260453Y92784D01*
X260483Y92803D01*
X260516Y92838D01*
X260593Y92903D01*
X281287Y113597D01*
X281366Y113696D01*
X281450Y113790D01*
X281474Y113832D01*
X281504Y113870D01*
X281558Y113984D01*
X281619Y114095D01*
X281632Y114142D01*
X281653Y114185D01*
X281679Y114309D01*
X281714Y114430D01*
X281719Y114491D01*
X281726Y114526D01*
X281725Y114574D01*
X281733Y114674D01*
X281733Y164002D01*
X281725Y164078D01*
X281726Y164154D01*
X281705Y164250D01*
X281693Y164348D01*
X281668Y164420D01*
X281651Y164495D01*
X281609Y164584D01*
X281576Y164676D01*
X281534Y164741D01*
X281502Y164809D01*
X281440Y164886D01*
X281387Y164969D01*
X281332Y165022D01*
X281284Y165082D01*
X281207Y165143D01*
X281136Y165211D01*
X281071Y165250D01*
X281011Y165298D01*
X280878Y165366D01*
X280837Y165390D01*
X280832Y165392D01*
X278614Y167609D01*
X277415Y170504D01*
X277415Y173636D01*
X278614Y176531D01*
X280829Y178746D01*
X283724Y179945D01*
X286856Y179945D01*
X289751Y178746D01*
X290262Y178235D01*
X290282Y178219D01*
X290299Y178199D01*
X290418Y178111D01*
X290535Y178018D01*
X290558Y178007D01*
X290579Y177992D01*
X290715Y177933D01*
X290850Y177869D01*
X290875Y177864D01*
X290899Y177854D01*
X291045Y177827D01*
X291190Y177796D01*
X291216Y177797D01*
X291242Y177792D01*
X291391Y177800D01*
X291539Y177802D01*
X291564Y177808D01*
X291590Y177810D01*
X291733Y177851D01*
X291877Y177887D01*
X291900Y177899D01*
X291925Y177906D01*
X292055Y177979D01*
X292187Y178047D01*
X292207Y178064D01*
X292230Y178076D01*
X292416Y178235D01*
X299627Y185446D01*
X299706Y185545D01*
X299790Y185639D01*
X299814Y185682D01*
X299844Y185719D01*
X299898Y185834D01*
X299959Y185944D01*
X299972Y185991D01*
X299993Y186034D01*
X300019Y186158D01*
X300054Y186280D01*
X300059Y186340D01*
X300066Y186375D01*
X300065Y186423D01*
X300073Y186523D01*
X300073Y188925D01*
X300068Y188975D01*
X300070Y189026D01*
X300048Y189148D01*
X300033Y189272D01*
X300016Y189319D01*
X300007Y189369D01*
X299958Y189482D01*
X299916Y189600D01*
X299889Y189642D01*
X299868Y189688D01*
X299794Y189788D01*
X299727Y189892D01*
X299691Y189927D01*
X299661Y189968D01*
X299566Y190048D01*
X299476Y190135D01*
X299433Y190161D01*
X299395Y190193D01*
X299284Y190250D01*
X299177Y190313D01*
X299129Y190329D01*
X299084Y190352D01*
X298964Y190382D01*
X298845Y190420D01*
X298795Y190424D01*
X298746Y190436D01*
X298622Y190438D01*
X298498Y190448D01*
X298448Y190440D01*
X298398Y190441D01*
X298276Y190414D01*
X298153Y190396D01*
X298106Y190377D01*
X298057Y190367D01*
X297945Y190313D01*
X297829Y190267D01*
X297788Y190238D01*
X297742Y190217D01*
X297645Y190139D01*
X297543Y190068D01*
X297509Y190031D01*
X297470Y189999D01*
X297393Y189902D01*
X297310Y189810D01*
X297285Y189765D01*
X297254Y189726D01*
X297174Y189570D01*
X294780Y187176D01*
X291666Y185886D01*
X288294Y185886D01*
X285180Y187176D01*
X282796Y189560D01*
X281506Y192674D01*
X281506Y196046D01*
X282796Y199160D01*
X285180Y201544D01*
X288294Y202834D01*
X291666Y202834D01*
X294780Y201544D01*
X297173Y199151D01*
X297184Y199120D01*
X297252Y199016D01*
X297312Y198907D01*
X297346Y198870D01*
X297373Y198828D01*
X297463Y198741D01*
X297546Y198649D01*
X297588Y198620D01*
X297624Y198585D01*
X297731Y198522D01*
X297833Y198451D01*
X297880Y198432D01*
X297923Y198407D01*
X298041Y198369D01*
X298157Y198323D01*
X298207Y198316D01*
X298255Y198300D01*
X298378Y198290D01*
X298502Y198272D01*
X298552Y198276D01*
X298602Y198272D01*
X298725Y198291D01*
X298849Y198301D01*
X298897Y198317D01*
X298947Y198324D01*
X299063Y198370D01*
X299181Y198408D01*
X299224Y198434D01*
X299271Y198453D01*
X299373Y198524D01*
X299479Y198588D01*
X299516Y198623D01*
X299557Y198652D01*
X299640Y198744D01*
X299729Y198831D01*
X299757Y198873D01*
X299790Y198910D01*
X299850Y199019D01*
X299918Y199124D01*
X299935Y199171D01*
X299959Y199215D01*
X299993Y199335D01*
X300034Y199452D01*
X300040Y199502D01*
X300054Y199551D01*
X300073Y199795D01*
X300073Y331006D01*
X300059Y331131D01*
X300052Y331258D01*
X300039Y331304D01*
X300033Y331352D01*
X299991Y331471D01*
X299956Y331592D01*
X299932Y331635D01*
X299916Y331680D01*
X299847Y331786D01*
X299786Y331897D01*
X299746Y331943D01*
X299727Y331973D01*
X299692Y332006D01*
X299627Y332083D01*
X293629Y338081D01*
X293569Y338129D01*
X293516Y338184D01*
X293433Y338237D01*
X293356Y338298D01*
X293287Y338330D01*
X293222Y338372D01*
X293130Y338405D01*
X293041Y338447D01*
X292966Y338463D01*
X292894Y338488D01*
X292796Y338499D01*
X292700Y338520D01*
X292624Y338519D01*
X292548Y338527D01*
X292450Y338516D01*
X292352Y338514D01*
X292277Y338495D01*
X292202Y338487D01*
X292060Y338441D01*
X292014Y338429D01*
X291996Y338420D01*
X291969Y338411D01*
X291666Y338286D01*
X288294Y338286D01*
X285180Y339576D01*
X282796Y341960D01*
X281488Y345117D01*
X281415Y345248D01*
X281346Y345382D01*
X281331Y345400D01*
X281319Y345421D01*
X281218Y345533D01*
X281121Y345647D01*
X281101Y345662D01*
X281085Y345679D01*
X280961Y345765D01*
X280840Y345854D01*
X280818Y345864D01*
X280798Y345878D01*
X280658Y345933D01*
X280520Y345992D01*
X280496Y345997D01*
X280474Y346005D01*
X280325Y346027D01*
X280177Y346054D01*
X280153Y346053D01*
X280129Y346056D01*
X279979Y346044D01*
X279829Y346036D01*
X279806Y346029D01*
X279782Y346027D01*
X279639Y345981D01*
X279494Y345940D01*
X279473Y345928D01*
X279450Y345920D01*
X279321Y345843D01*
X279190Y345769D01*
X279168Y345750D01*
X279152Y345741D01*
X279118Y345708D01*
X279004Y345611D01*
X276596Y343203D01*
X273297Y343203D01*
X273221Y343195D01*
X273145Y343196D01*
X273048Y343175D01*
X272951Y343163D01*
X272879Y343138D01*
X272804Y343121D01*
X272715Y343079D01*
X272623Y343046D01*
X272558Y343004D01*
X272489Y342972D01*
X272412Y342910D01*
X272330Y342857D01*
X272277Y342802D01*
X272217Y342754D01*
X272156Y342677D01*
X272088Y342606D01*
X272048Y342541D01*
X272001Y342481D01*
X271933Y342348D01*
X271909Y342307D01*
X271903Y342289D01*
X271890Y342263D01*
X271764Y341960D01*
X269380Y339576D01*
X266266Y338286D01*
X262894Y338286D01*
X259780Y339576D01*
X257396Y341960D01*
X256106Y345074D01*
X256106Y348446D01*
X257396Y351560D01*
X259780Y353944D01*
X262894Y355234D01*
X266266Y355234D01*
X269380Y353944D01*
X271764Y351560D01*
X271808Y351454D01*
X271881Y351323D01*
X271950Y351189D01*
X271966Y351170D01*
X271977Y351149D01*
X272078Y351038D01*
X272176Y350923D01*
X272195Y350909D01*
X272212Y350891D01*
X272335Y350805D01*
X272456Y350716D01*
X272478Y350707D01*
X272498Y350693D01*
X272639Y350637D01*
X272776Y350578D01*
X272800Y350574D01*
X272822Y350565D01*
X272971Y350543D01*
X273119Y350516D01*
X273143Y350518D01*
X273167Y350514D01*
X273317Y350527D01*
X273467Y350534D01*
X273490Y350541D01*
X273515Y350543D01*
X273658Y350589D01*
X273802Y350631D01*
X273823Y350643D01*
X273846Y350650D01*
X273975Y350728D01*
X274106Y350801D01*
X274128Y350820D01*
X274145Y350830D01*
X274179Y350863D01*
X274293Y350960D01*
X284155Y360822D01*
X295805Y360822D01*
X304042Y352585D01*
X304042Y349190D01*
X304048Y349140D01*
X304045Y349090D01*
X304068Y348967D01*
X304082Y348844D01*
X304099Y348796D01*
X304108Y348747D01*
X304158Y348633D01*
X304200Y348516D01*
X304227Y348473D01*
X304247Y348427D01*
X304321Y348327D01*
X304389Y348223D01*
X304425Y348188D01*
X304455Y348147D01*
X304550Y348067D01*
X304639Y347981D01*
X304682Y347955D01*
X304721Y347922D01*
X304832Y347866D01*
X304938Y347802D01*
X304986Y347786D01*
X305031Y347763D01*
X305152Y347733D01*
X305270Y347696D01*
X305320Y347692D01*
X305369Y347679D01*
X305494Y347678D01*
X305618Y347668D01*
X305667Y347675D01*
X305718Y347674D01*
X305839Y347701D01*
X305962Y347719D01*
X306009Y347738D01*
X306058Y347749D01*
X306171Y347802D01*
X306286Y347848D01*
X306327Y347877D01*
X306373Y347898D01*
X306470Y347976D01*
X306572Y348047D01*
X306606Y348084D01*
X306645Y348116D01*
X306722Y348213D01*
X306806Y348306D01*
X306830Y348350D01*
X306861Y348389D01*
X306973Y348607D01*
X308196Y351560D01*
X310580Y353944D01*
X313694Y355234D01*
X317066Y355234D01*
X320180Y353944D01*
X322564Y351560D01*
X323854Y348446D01*
X323854Y345074D01*
X322564Y341960D01*
X320180Y339576D01*
X317066Y338286D01*
X315064Y338286D01*
X314964Y338274D01*
X314864Y338273D01*
X314792Y338254D01*
X314718Y338246D01*
X314624Y338212D01*
X314526Y338188D01*
X314460Y338154D01*
X314390Y338128D01*
X314306Y338074D01*
X314216Y338028D01*
X314160Y337980D01*
X314097Y337939D01*
X314027Y337867D01*
X313951Y337802D01*
X313907Y337742D01*
X313855Y337689D01*
X313803Y337603D01*
X313744Y337522D01*
X313714Y337454D01*
X313676Y337390D01*
X313645Y337294D01*
X313606Y337202D01*
X313593Y337129D01*
X313570Y337058D01*
X313562Y336958D01*
X313544Y336859D01*
X313548Y336784D01*
X313542Y336710D01*
X313557Y336611D01*
X313562Y336511D01*
X313583Y336439D01*
X313594Y336366D01*
X313631Y336272D01*
X313659Y336176D01*
X313695Y336111D01*
X313722Y336042D01*
X313780Y335959D01*
X313829Y335872D01*
X313894Y335795D01*
X313921Y335756D01*
X313948Y335732D01*
X313987Y335685D01*
X326913Y322760D01*
X329442Y320231D01*
X329442Y196790D01*
X329448Y196740D01*
X329445Y196690D01*
X329468Y196567D01*
X329482Y196444D01*
X329499Y196396D01*
X329508Y196347D01*
X329558Y196233D01*
X329600Y196116D01*
X329627Y196073D01*
X329647Y196027D01*
X329721Y195927D01*
X329789Y195823D01*
X329825Y195788D01*
X329855Y195747D01*
X329950Y195667D01*
X330039Y195581D01*
X330083Y195555D01*
X330121Y195522D01*
X330232Y195466D01*
X330338Y195402D01*
X330386Y195387D01*
X330431Y195364D01*
X330552Y195333D01*
X330670Y195296D01*
X330720Y195292D01*
X330769Y195279D01*
X330894Y195278D01*
X331018Y195268D01*
X331067Y195275D01*
X331118Y195274D01*
X331239Y195301D01*
X331362Y195319D01*
X331409Y195338D01*
X331458Y195349D01*
X331571Y195402D01*
X331686Y195448D01*
X331727Y195477D01*
X331773Y195498D01*
X331870Y195576D01*
X331972Y195647D01*
X332006Y195684D01*
X332045Y195716D01*
X332122Y195813D01*
X332206Y195906D01*
X332230Y195950D01*
X332261Y195989D01*
X332373Y196207D01*
X333596Y199160D01*
X335980Y201544D01*
X339094Y202834D01*
X342466Y202834D01*
X345580Y201544D01*
X347964Y199160D01*
X349254Y196046D01*
X349254Y192674D01*
X347964Y189560D01*
X345580Y187176D01*
X342466Y185886D01*
X339094Y185886D01*
X335980Y187176D01*
X333596Y189560D01*
X332373Y192513D01*
X332348Y192557D01*
X332331Y192604D01*
X332264Y192709D01*
X332203Y192818D01*
X332170Y192855D01*
X332142Y192897D01*
X332053Y192984D01*
X331969Y193076D01*
X331928Y193104D01*
X331892Y193139D01*
X331785Y193203D01*
X331683Y193274D01*
X331636Y193292D01*
X331593Y193318D01*
X331474Y193356D01*
X331358Y193402D01*
X331309Y193409D01*
X331261Y193424D01*
X331137Y193434D01*
X331014Y193453D01*
X330963Y193448D01*
X330913Y193452D01*
X330790Y193434D01*
X330666Y193424D01*
X330618Y193408D01*
X330569Y193401D01*
X330453Y193355D01*
X330335Y193317D01*
X330291Y193291D01*
X330245Y193272D01*
X330143Y193201D01*
X330036Y193137D01*
X330000Y193102D01*
X329959Y193073D01*
X329875Y192981D01*
X329786Y192894D01*
X329759Y192852D01*
X329725Y192814D01*
X329665Y192705D01*
X329598Y192601D01*
X329581Y192553D01*
X329557Y192509D01*
X329523Y192389D01*
X329481Y192272D01*
X329476Y192222D01*
X329462Y192174D01*
X329442Y191930D01*
X329442Y188535D01*
X323452Y182545D01*
X323390Y182467D01*
X323320Y182394D01*
X323282Y182330D01*
X323235Y182272D01*
X323192Y182181D01*
X323141Y182095D01*
X323118Y182024D01*
X323086Y181957D01*
X323065Y181859D01*
X323035Y181763D01*
X323029Y181689D01*
X323013Y181616D01*
X323015Y181516D01*
X323007Y181416D01*
X323018Y181342D01*
X323019Y181268D01*
X323044Y181171D01*
X323058Y181071D01*
X323086Y181002D01*
X323104Y180930D01*
X323150Y180840D01*
X323187Y180747D01*
X323230Y180686D01*
X323264Y180620D01*
X323329Y180543D01*
X323386Y180461D01*
X323441Y180411D01*
X323490Y180355D01*
X323570Y180295D01*
X323645Y180228D01*
X323710Y180192D01*
X323770Y180147D01*
X323862Y180108D01*
X323950Y180059D01*
X324022Y180039D01*
X324090Y180009D01*
X324189Y179992D01*
X324285Y179964D01*
X324385Y179956D01*
X324433Y179948D01*
X324469Y179950D01*
X324529Y179945D01*
X326856Y179945D01*
X329751Y178746D01*
X331966Y176531D01*
X333165Y173636D01*
X333165Y170504D01*
X331966Y167609D01*
X329751Y165394D01*
X326856Y164195D01*
X323724Y164195D01*
X321047Y165304D01*
X320902Y165345D01*
X320759Y165391D01*
X320735Y165393D01*
X320712Y165400D01*
X320561Y165407D01*
X320412Y165419D01*
X320388Y165415D01*
X320364Y165417D01*
X320216Y165390D01*
X320067Y165367D01*
X320045Y165358D01*
X320021Y165354D01*
X319883Y165294D01*
X319743Y165239D01*
X319723Y165225D01*
X319701Y165215D01*
X319580Y165125D01*
X319457Y165040D01*
X319441Y165022D01*
X319421Y165007D01*
X319324Y164892D01*
X319224Y164781D01*
X319212Y164760D01*
X319196Y164741D01*
X319128Y164608D01*
X319055Y164476D01*
X319049Y164453D01*
X319038Y164431D01*
X319001Y164286D01*
X318960Y164140D01*
X318958Y164111D01*
X318953Y164093D01*
X318953Y164046D01*
X318941Y163897D01*
X318941Y120765D01*
X318952Y120666D01*
X318954Y120565D01*
X318972Y120493D01*
X318981Y120419D01*
X319014Y120325D01*
X319039Y120227D01*
X319073Y120161D01*
X319098Y120091D01*
X319153Y120007D01*
X319199Y119917D01*
X319247Y119861D01*
X319287Y119798D01*
X319359Y119728D01*
X319424Y119652D01*
X319484Y119608D01*
X319538Y119556D01*
X319624Y119505D01*
X319705Y119445D01*
X319773Y119415D01*
X319837Y119377D01*
X319933Y119347D01*
X320025Y119307D01*
X320098Y119294D01*
X320169Y119271D01*
X320269Y119263D01*
X320368Y119245D01*
X320442Y119249D01*
X320516Y119243D01*
X320616Y119258D01*
X320716Y119263D01*
X320787Y119284D01*
X320861Y119295D01*
X320954Y119332D01*
X321051Y119360D01*
X321116Y119396D01*
X321185Y119423D01*
X321267Y119481D01*
X321355Y119530D01*
X321431Y119595D01*
X321471Y119622D01*
X321495Y119649D01*
X321541Y119688D01*
X323275Y121422D01*
X323299Y121425D01*
X323418Y121467D01*
X323540Y121502D01*
X323582Y121526D01*
X323627Y121542D01*
X323734Y121611D01*
X323844Y121672D01*
X323890Y121712D01*
X323920Y121731D01*
X323954Y121766D01*
X324030Y121831D01*
X324093Y121893D01*
X324093Y121894D01*
X364000Y161801D01*
X364094Y161919D01*
X364191Y162034D01*
X364202Y162055D01*
X364217Y162074D01*
X364281Y162210D01*
X364350Y162344D01*
X364355Y162367D01*
X364366Y162389D01*
X364397Y162536D01*
X364434Y162682D01*
X364434Y162706D01*
X364439Y162730D01*
X364437Y162880D01*
X364439Y163030D01*
X364434Y163054D01*
X364433Y163078D01*
X364397Y163224D01*
X364364Y163371D01*
X364354Y163393D01*
X364348Y163416D01*
X364279Y163550D01*
X364215Y163686D01*
X364200Y163704D01*
X364189Y163726D01*
X364091Y163841D01*
X363997Y163958D01*
X363978Y163973D01*
X363963Y163991D01*
X363842Y164081D01*
X363724Y164174D01*
X363698Y164187D01*
X363682Y164199D01*
X363639Y164217D01*
X363506Y164285D01*
X360829Y165394D01*
X358614Y167609D01*
X357415Y170504D01*
X357415Y173636D01*
X358614Y176531D01*
X360829Y178746D01*
X363724Y179945D01*
X366856Y179945D01*
X369648Y178788D01*
X369722Y178767D01*
X369792Y178737D01*
X369889Y178720D01*
X369984Y178693D01*
X370060Y178689D01*
X370135Y178675D01*
X370233Y178680D01*
X370332Y178676D01*
X370407Y178689D01*
X370483Y178693D01*
X370578Y178720D01*
X370674Y178738D01*
X370745Y178769D01*
X370818Y178790D01*
X370904Y178838D01*
X370994Y178877D01*
X371055Y178923D01*
X371122Y178960D01*
X371236Y179057D01*
X371274Y179085D01*
X371286Y179100D01*
X371308Y179118D01*
X374169Y181979D01*
X382901Y190711D01*
X382949Y190771D01*
X383004Y190824D01*
X383057Y190907D01*
X383118Y190984D01*
X383150Y191053D01*
X383192Y191118D01*
X383225Y191210D01*
X383267Y191299D01*
X383283Y191374D01*
X383308Y191446D01*
X383319Y191544D01*
X383340Y191640D01*
X383339Y191716D01*
X383347Y191792D01*
X383336Y191890D01*
X383334Y191988D01*
X383316Y192062D01*
X383307Y192138D01*
X383261Y192281D01*
X383249Y192326D01*
X383240Y192343D01*
X383231Y192371D01*
X383106Y192674D01*
X383106Y196046D01*
X384396Y199160D01*
X386780Y201544D01*
X389894Y202834D01*
X393266Y202834D01*
X396380Y201544D01*
X398764Y199160D01*
X400054Y196046D01*
X400054Y192674D01*
X398764Y189560D01*
X396380Y187176D01*
X393266Y185886D01*
X389894Y185886D01*
X389591Y186011D01*
X389518Y186032D01*
X389448Y186063D01*
X389351Y186080D01*
X389256Y186107D01*
X389180Y186111D01*
X389105Y186124D01*
X389006Y186119D01*
X388908Y186124D01*
X388833Y186110D01*
X388756Y186106D01*
X388662Y186079D01*
X388565Y186061D01*
X388495Y186031D01*
X388422Y186010D01*
X388336Y185962D01*
X388245Y185923D01*
X388184Y185877D01*
X388117Y185840D01*
X388004Y185743D01*
X387966Y185715D01*
X387953Y185700D01*
X387931Y185681D01*
X384795Y182545D01*
X384733Y182467D01*
X384663Y182394D01*
X384625Y182330D01*
X384578Y182272D01*
X384536Y182181D01*
X384484Y182095D01*
X384461Y182024D01*
X384430Y181957D01*
X384408Y181859D01*
X384378Y181763D01*
X384372Y181689D01*
X384356Y181616D01*
X384358Y181516D01*
X384350Y181416D01*
X384361Y181342D01*
X384362Y181268D01*
X384387Y181171D01*
X384401Y181071D01*
X384429Y181002D01*
X384447Y180930D01*
X384493Y180840D01*
X384530Y180747D01*
X384573Y180686D01*
X384607Y180620D01*
X384672Y180543D01*
X384729Y180461D01*
X384784Y180411D01*
X384833Y180355D01*
X384913Y180295D01*
X384988Y180228D01*
X385053Y180192D01*
X385113Y180147D01*
X385205Y180108D01*
X385293Y180059D01*
X385365Y180039D01*
X385433Y180009D01*
X385532Y179992D01*
X385628Y179964D01*
X385728Y179956D01*
X385776Y179948D01*
X385812Y179950D01*
X385872Y179945D01*
X386856Y179945D01*
X389751Y178746D01*
X391966Y176531D01*
X393165Y173636D01*
X393165Y170504D01*
X391966Y167609D01*
X389751Y165394D01*
X386856Y164195D01*
X383724Y164195D01*
X380829Y165394D01*
X380318Y165905D01*
X380298Y165921D01*
X380281Y165941D01*
X380162Y166029D01*
X380045Y166122D01*
X380022Y166133D01*
X380001Y166148D01*
X379865Y166207D01*
X379730Y166271D01*
X379705Y166276D01*
X379681Y166286D01*
X379535Y166313D01*
X379390Y166344D01*
X379364Y166343D01*
X379338Y166348D01*
X379189Y166340D01*
X379041Y166338D01*
X379016Y166332D01*
X378990Y166330D01*
X378847Y166289D01*
X378703Y166253D01*
X378680Y166241D01*
X378655Y166234D01*
X378525Y166161D01*
X378393Y166093D01*
X378373Y166076D01*
X378350Y166064D01*
X378164Y165905D01*
X330111Y117852D01*
X330032Y117753D01*
X329948Y117659D01*
X329924Y117616D01*
X329894Y117579D01*
X329840Y117464D01*
X329779Y117354D01*
X329766Y117307D01*
X329745Y117264D01*
X329719Y117140D01*
X329684Y117018D01*
X329679Y116958D01*
X329672Y116923D01*
X329673Y116875D01*
X329665Y116775D01*
X329665Y114957D01*
X327003Y112295D01*
X323237Y112295D01*
X321541Y113992D01*
X321463Y114054D01*
X321390Y114124D01*
X321326Y114162D01*
X321268Y114208D01*
X321177Y114251D01*
X321091Y114303D01*
X321020Y114325D01*
X320953Y114357D01*
X320855Y114378D01*
X320759Y114409D01*
X320685Y114415D01*
X320612Y114431D01*
X320512Y114429D01*
X320412Y114437D01*
X320338Y114426D01*
X320264Y114425D01*
X320167Y114400D01*
X320067Y114385D01*
X319998Y114358D01*
X319926Y114340D01*
X319837Y114294D01*
X319743Y114257D01*
X319682Y114214D01*
X319616Y114180D01*
X319540Y114115D01*
X319457Y114058D01*
X319407Y114002D01*
X319351Y113954D01*
X319291Y113873D01*
X319224Y113799D01*
X319188Y113734D01*
X319143Y113674D01*
X319104Y113582D01*
X319055Y113494D01*
X319035Y113422D01*
X319005Y113354D01*
X318988Y113255D01*
X318960Y113158D01*
X318952Y113058D01*
X318944Y113011D01*
X318946Y112975D01*
X318941Y112915D01*
X318941Y25348D01*
X318944Y25322D01*
X318942Y25296D01*
X318964Y25149D01*
X318981Y25002D01*
X318989Y24977D01*
X318993Y24951D01*
X319048Y24813D01*
X319098Y24674D01*
X319112Y24652D01*
X319122Y24627D01*
X319207Y24506D01*
X319287Y24381D01*
X319306Y24363D01*
X319321Y24341D01*
X319431Y24242D01*
X319538Y24139D01*
X319560Y24125D01*
X319580Y24108D01*
X319710Y24036D01*
X319837Y23960D01*
X319862Y23952D01*
X319885Y23939D01*
X320028Y23899D01*
X320169Y23854D01*
X320195Y23852D01*
X320220Y23844D01*
X320464Y23825D01*
X320762Y23825D01*
X321303Y23283D01*
X321323Y23267D01*
X321340Y23247D01*
X321460Y23159D01*
X321576Y23067D01*
X321600Y23056D01*
X321621Y23040D01*
X321757Y22981D01*
X321891Y22918D01*
X321917Y22912D01*
X321941Y22902D01*
X322087Y22876D01*
X322232Y22844D01*
X322258Y22845D01*
X322284Y22840D01*
X322432Y22848D01*
X322580Y22850D01*
X322606Y22857D01*
X322632Y22858D01*
X322774Y22899D01*
X322918Y22935D01*
X322942Y22948D01*
X322967Y22955D01*
X323096Y23027D01*
X323228Y23095D01*
X323248Y23112D01*
X323271Y23125D01*
X323457Y23283D01*
X323998Y23825D01*
X333262Y23825D01*
X334155Y22932D01*
X334155Y17742D01*
X334166Y17642D01*
X334168Y17542D01*
X334186Y17470D01*
X334195Y17396D01*
X334228Y17301D01*
X334253Y17204D01*
X334287Y17138D01*
X334312Y17068D01*
X334367Y16983D01*
X334413Y16894D01*
X334461Y16837D01*
X334501Y16775D01*
X334573Y16705D01*
X334638Y16629D01*
X334698Y16585D01*
X334752Y16533D01*
X334838Y16481D01*
X334919Y16422D01*
X334987Y16392D01*
X335051Y16354D01*
X335147Y16323D01*
X335239Y16284D01*
X335312Y16270D01*
X335383Y16248D01*
X335483Y16240D01*
X335582Y16222D01*
X335656Y16226D01*
X335730Y16220D01*
X335830Y16235D01*
X335930Y16240D01*
X336001Y16260D01*
X336075Y16271D01*
X336168Y16309D01*
X336265Y16336D01*
X336330Y16373D01*
X336399Y16400D01*
X336481Y16457D01*
X336569Y16507D01*
X336645Y16572D01*
X336685Y16599D01*
X336709Y16626D01*
X336755Y16665D01*
X370929Y50839D01*
X371008Y50938D01*
X371092Y51032D01*
X371116Y51074D01*
X371146Y51112D01*
X371200Y51226D01*
X371261Y51337D01*
X371274Y51384D01*
X371295Y51427D01*
X371321Y51551D01*
X371356Y51672D01*
X371361Y51733D01*
X371368Y51768D01*
X371367Y51816D01*
X371375Y51916D01*
X371375Y52683D01*
X374037Y55345D01*
X377803Y55345D01*
X380465Y52683D01*
X380465Y48917D01*
X377803Y46255D01*
X377036Y46255D01*
X376911Y46241D01*
X376784Y46234D01*
X376738Y46221D01*
X376690Y46215D01*
X376571Y46173D01*
X376450Y46138D01*
X376407Y46114D01*
X376362Y46098D01*
X376256Y46029D01*
X376145Y45968D01*
X376099Y45928D01*
X376069Y45909D01*
X376036Y45874D01*
X375959Y45809D01*
X338893Y8743D01*
X335678Y8743D01*
X335652Y8740D01*
X335626Y8742D01*
X335479Y8720D01*
X335332Y8703D01*
X335307Y8695D01*
X335281Y8691D01*
X335143Y8636D01*
X335004Y8586D01*
X334982Y8572D01*
X334957Y8562D01*
X334836Y8477D01*
X334711Y8397D01*
X334693Y8378D01*
X334671Y8363D01*
X334572Y8253D01*
X334469Y8146D01*
X334455Y8124D01*
X334438Y8104D01*
X334366Y7974D01*
X334290Y7847D01*
X334282Y7822D01*
X334269Y7799D01*
X334229Y7656D01*
X334184Y7515D01*
X334182Y7489D01*
X334174Y7464D01*
X334155Y7220D01*
X334155Y1668D01*
X333262Y775D01*
X323998Y775D01*
X323457Y1317D01*
X323437Y1333D01*
X323420Y1353D01*
X323300Y1441D01*
X323184Y1533D01*
X323160Y1544D01*
X323139Y1560D01*
X323003Y1619D01*
X322869Y1682D01*
X322843Y1688D01*
X322819Y1698D01*
X322673Y1724D01*
X322528Y1756D01*
X322502Y1755D01*
X322476Y1760D01*
X322327Y1752D01*
X322180Y1750D01*
X322155Y1743D01*
X322128Y1742D01*
X321985Y1701D01*
X321842Y1665D01*
X321819Y1653D01*
X321793Y1645D01*
X321664Y1573D01*
X321532Y1505D01*
X321512Y1488D01*
X321489Y1475D01*
X321303Y1317D01*
X320762Y775D01*
X311498Y775D01*
X310957Y1317D01*
X310937Y1333D01*
X310920Y1353D01*
X310800Y1441D01*
X310684Y1533D01*
X310660Y1544D01*
X310639Y1560D01*
X310503Y1619D01*
X310369Y1682D01*
X310343Y1688D01*
X310319Y1698D01*
X310173Y1724D01*
X310028Y1756D01*
X310002Y1755D01*
X309976Y1760D01*
X309827Y1752D01*
X309680Y1750D01*
X309655Y1743D01*
X309628Y1742D01*
X309485Y1701D01*
X309342Y1665D01*
X309319Y1653D01*
X309293Y1645D01*
X309164Y1573D01*
X309032Y1505D01*
X309012Y1488D01*
X308989Y1475D01*
X308803Y1317D01*
X308262Y775D01*
X298952Y775D01*
X298903Y815D01*
X298879Y826D01*
X298858Y842D01*
X298721Y901D01*
X298587Y964D01*
X298562Y969D01*
X298538Y980D01*
X298391Y1006D01*
X298247Y1037D01*
X298221Y1037D01*
X298195Y1041D01*
X298047Y1034D01*
X297898Y1031D01*
X297873Y1025D01*
X297847Y1023D01*
X297704Y982D01*
X297560Y946D01*
X297537Y934D01*
X297512Y927D01*
X297383Y855D01*
X297251Y787D01*
X297230Y770D01*
X297208Y757D01*
X297021Y598D01*
X296690Y267D01*
X296111Y-68D01*
X295465Y-241D01*
X293129Y-241D01*
G37*
%LPD*%
%LPC*%
G36*
X407057Y312955D02*
X407057Y312955D01*
X404395Y315617D01*
X404395Y319383D01*
X407057Y322045D01*
X407824Y322045D01*
X407949Y322059D01*
X408076Y322066D01*
X408122Y322079D01*
X408170Y322085D01*
X408289Y322127D01*
X408410Y322162D01*
X408453Y322186D01*
X408498Y322202D01*
X408604Y322271D01*
X408715Y322332D01*
X408761Y322372D01*
X408791Y322391D01*
X408825Y322426D01*
X408901Y322491D01*
X423545Y337135D01*
X423576Y337174D01*
X423614Y337208D01*
X423684Y337311D01*
X423762Y337408D01*
X423783Y337453D01*
X423812Y337495D01*
X423857Y337611D01*
X423910Y337723D01*
X423921Y337772D01*
X423940Y337819D01*
X423958Y337942D01*
X423984Y338064D01*
X423983Y338114D01*
X423990Y338164D01*
X423980Y338288D01*
X423978Y338412D01*
X423966Y338461D01*
X423961Y338511D01*
X423923Y338630D01*
X423893Y338750D01*
X423870Y338795D01*
X423854Y338843D01*
X423790Y338949D01*
X423733Y339060D01*
X423701Y339098D01*
X423675Y339141D01*
X423588Y339231D01*
X423507Y339325D01*
X423467Y339355D01*
X423432Y339391D01*
X423327Y339459D01*
X423227Y339533D01*
X423181Y339552D01*
X423139Y339580D01*
X423021Y339621D01*
X422907Y339671D01*
X422858Y339679D01*
X422810Y339696D01*
X422686Y339710D01*
X422564Y339732D01*
X422514Y339730D01*
X422464Y339735D01*
X422340Y339721D01*
X422216Y339714D01*
X422168Y339700D01*
X422118Y339694D01*
X421885Y339619D01*
X418666Y338286D01*
X415294Y338286D01*
X412180Y339576D01*
X409796Y341960D01*
X408506Y345074D01*
X408506Y348446D01*
X409796Y351560D01*
X412180Y353944D01*
X415294Y355234D01*
X418666Y355234D01*
X421780Y353944D01*
X424164Y351560D01*
X425454Y348446D01*
X425454Y345074D01*
X424121Y341855D01*
X424107Y341806D01*
X424085Y341761D01*
X424059Y341640D01*
X424025Y341520D01*
X424023Y341469D01*
X424012Y341420D01*
X424014Y341296D01*
X424008Y341172D01*
X424017Y341122D01*
X424018Y341072D01*
X424048Y340951D01*
X424071Y340829D01*
X424091Y340783D01*
X424103Y340734D01*
X424160Y340623D01*
X424209Y340509D01*
X424240Y340469D01*
X424263Y340424D01*
X424343Y340329D01*
X424417Y340230D01*
X424456Y340197D01*
X424489Y340158D01*
X424589Y340085D01*
X424683Y340004D01*
X424728Y339981D01*
X424769Y339951D01*
X424883Y339902D01*
X424994Y339846D01*
X425043Y339834D01*
X425089Y339813D01*
X425211Y339792D01*
X425332Y339762D01*
X425382Y339761D01*
X425432Y339752D01*
X425556Y339758D01*
X425680Y339757D01*
X425730Y339767D01*
X425780Y339770D01*
X425899Y339804D01*
X425931Y339811D01*
X433806Y339811D01*
X433955Y339828D01*
X434105Y339841D01*
X434128Y339848D01*
X434152Y339851D01*
X434294Y339902D01*
X434437Y339948D01*
X434458Y339961D01*
X434480Y339969D01*
X434607Y340050D01*
X434736Y340128D01*
X434753Y340145D01*
X434773Y340158D01*
X434878Y340266D01*
X434986Y340371D01*
X434999Y340391D01*
X435015Y340408D01*
X435093Y340538D01*
X435174Y340664D01*
X435182Y340687D01*
X435194Y340707D01*
X435240Y340850D01*
X435290Y340992D01*
X435293Y341016D01*
X435301Y341039D01*
X435313Y341189D01*
X435329Y341339D01*
X435327Y341363D01*
X435329Y341387D01*
X435306Y341535D01*
X435289Y341685D01*
X435280Y341713D01*
X435277Y341731D01*
X435259Y341775D01*
X435213Y341917D01*
X433906Y345074D01*
X433906Y348446D01*
X435196Y351560D01*
X437580Y353944D01*
X440694Y355234D01*
X444066Y355234D01*
X447180Y353944D01*
X449564Y351560D01*
X450787Y348607D01*
X450812Y348563D01*
X450829Y348516D01*
X450896Y348411D01*
X450957Y348302D01*
X450990Y348265D01*
X451018Y348223D01*
X451107Y348136D01*
X451191Y348044D01*
X451232Y348016D01*
X451268Y347981D01*
X451375Y347917D01*
X451477Y347846D01*
X451524Y347828D01*
X451567Y347802D01*
X451686Y347764D01*
X451802Y347718D01*
X451851Y347711D01*
X451899Y347696D01*
X452023Y347686D01*
X452146Y347667D01*
X452197Y347672D01*
X452247Y347668D01*
X452370Y347686D01*
X452494Y347696D01*
X452542Y347712D01*
X452591Y347719D01*
X452707Y347765D01*
X452825Y347803D01*
X452869Y347829D01*
X452915Y347848D01*
X453017Y347919D01*
X453124Y347983D01*
X453160Y348018D01*
X453201Y348047D01*
X453285Y348139D01*
X453374Y348226D01*
X453401Y348268D01*
X453435Y348306D01*
X453495Y348415D01*
X453562Y348519D01*
X453579Y348567D01*
X453603Y348611D01*
X453637Y348731D01*
X453679Y348848D01*
X453684Y348898D01*
X453698Y348946D01*
X453718Y349190D01*
X453718Y352585D01*
X461955Y360822D01*
X499005Y360822D01*
X508867Y350960D01*
X508985Y350866D01*
X509100Y350769D01*
X509121Y350758D01*
X509140Y350743D01*
X509277Y350679D01*
X509410Y350610D01*
X509434Y350604D01*
X509456Y350594D01*
X509603Y350562D01*
X509748Y350526D01*
X509773Y350526D01*
X509796Y350521D01*
X509947Y350523D01*
X510097Y350521D01*
X510121Y350526D01*
X510145Y350527D01*
X510290Y350563D01*
X510437Y350595D01*
X510459Y350606D01*
X510483Y350612D01*
X510616Y350680D01*
X510752Y350745D01*
X510771Y350760D01*
X510792Y350771D01*
X510907Y350869D01*
X511025Y350962D01*
X511039Y350981D01*
X511058Y350997D01*
X511147Y351118D01*
X511240Y351236D01*
X511254Y351262D01*
X511265Y351277D01*
X511284Y351321D01*
X511352Y351454D01*
X511396Y351560D01*
X513780Y353944D01*
X516894Y355234D01*
X520266Y355234D01*
X523380Y353944D01*
X525764Y351560D01*
X527054Y348446D01*
X527054Y345074D01*
X525764Y341960D01*
X523380Y339576D01*
X520266Y338286D01*
X516894Y338286D01*
X513780Y339576D01*
X511396Y341960D01*
X511270Y342263D01*
X511233Y342330D01*
X511205Y342401D01*
X511149Y342481D01*
X511101Y342568D01*
X511050Y342624D01*
X511006Y342687D01*
X510933Y342753D01*
X510867Y342826D01*
X510804Y342869D01*
X510747Y342920D01*
X510661Y342968D01*
X510580Y343024D01*
X510509Y343052D01*
X510442Y343089D01*
X510348Y343116D01*
X510256Y343152D01*
X510180Y343163D01*
X510107Y343184D01*
X509958Y343196D01*
X509911Y343203D01*
X509892Y343201D01*
X509863Y343203D01*
X506564Y343203D01*
X504156Y345611D01*
X504038Y345704D01*
X503924Y345801D01*
X503902Y345812D01*
X503883Y345828D01*
X503747Y345892D01*
X503613Y345960D01*
X503590Y345966D01*
X503568Y345976D01*
X503421Y346008D01*
X503275Y346044D01*
X503251Y346045D01*
X503227Y346050D01*
X503077Y346047D01*
X502927Y346049D01*
X502903Y346044D01*
X502879Y346044D01*
X502733Y346007D01*
X502586Y345975D01*
X502564Y345965D01*
X502541Y345959D01*
X502407Y345890D01*
X502271Y345825D01*
X502252Y345810D01*
X502231Y345799D01*
X502117Y345702D01*
X501999Y345608D01*
X501984Y345589D01*
X501966Y345573D01*
X501876Y345452D01*
X501783Y345334D01*
X501770Y345308D01*
X501758Y345293D01*
X501740Y345250D01*
X501672Y345117D01*
X500364Y341960D01*
X497980Y339576D01*
X494866Y338286D01*
X491494Y338286D01*
X488380Y339576D01*
X485996Y341960D01*
X484706Y345074D01*
X484706Y348446D01*
X486013Y351603D01*
X486055Y351748D01*
X486101Y351890D01*
X486102Y351914D01*
X486109Y351938D01*
X486116Y352088D01*
X486129Y352238D01*
X486125Y352262D01*
X486126Y352286D01*
X486099Y352434D01*
X486077Y352582D01*
X486068Y352605D01*
X486064Y352629D01*
X486004Y352767D01*
X485948Y352906D01*
X485934Y352926D01*
X485925Y352948D01*
X485835Y353069D01*
X485749Y353192D01*
X485731Y353208D01*
X485717Y353228D01*
X485602Y353325D01*
X485490Y353426D01*
X485469Y353437D01*
X485451Y353453D01*
X485317Y353521D01*
X485185Y353594D01*
X485162Y353601D01*
X485141Y353612D01*
X484995Y353648D01*
X484850Y353689D01*
X484821Y353691D01*
X484802Y353696D01*
X484755Y353697D01*
X484606Y353709D01*
X476354Y353709D01*
X476205Y353692D01*
X476055Y353679D01*
X476032Y353672D01*
X476008Y353669D01*
X475866Y353618D01*
X475723Y353572D01*
X475702Y353559D01*
X475680Y353551D01*
X475553Y353470D01*
X475424Y353392D01*
X475407Y353375D01*
X475387Y353362D01*
X475282Y353254D01*
X475174Y353149D01*
X475161Y353129D01*
X475145Y353112D01*
X475067Y352982D01*
X474986Y352856D01*
X474978Y352833D01*
X474966Y352813D01*
X474920Y352670D01*
X474870Y352528D01*
X474867Y352504D01*
X474859Y352481D01*
X474847Y352331D01*
X474831Y352181D01*
X474833Y352157D01*
X474831Y352133D01*
X474854Y351985D01*
X474871Y351835D01*
X474880Y351807D01*
X474883Y351789D01*
X474901Y351745D01*
X474947Y351603D01*
X476254Y348446D01*
X476254Y345074D01*
X474964Y341960D01*
X472580Y339576D01*
X469466Y338286D01*
X466094Y338286D01*
X462980Y339576D01*
X460596Y341960D01*
X460552Y342066D01*
X460479Y342197D01*
X460410Y342331D01*
X460394Y342350D01*
X460383Y342371D01*
X460282Y342482D01*
X460184Y342597D01*
X460165Y342611D01*
X460148Y342629D01*
X460025Y342715D01*
X459904Y342804D01*
X459882Y342813D01*
X459862Y342827D01*
X459721Y342883D01*
X459584Y342942D01*
X459560Y342946D01*
X459538Y342955D01*
X459389Y342977D01*
X459241Y343004D01*
X459217Y343002D01*
X459193Y343006D01*
X459043Y342993D01*
X458893Y342986D01*
X458870Y342979D01*
X458845Y342977D01*
X458702Y342931D01*
X458558Y342889D01*
X458537Y342877D01*
X458514Y342870D01*
X458385Y342792D01*
X458254Y342719D01*
X458232Y342700D01*
X458215Y342690D01*
X458181Y342657D01*
X458067Y342560D01*
X448205Y332698D01*
X429799Y332698D01*
X429673Y332683D01*
X429547Y332677D01*
X429501Y332663D01*
X429453Y332658D01*
X429334Y332615D01*
X429212Y332580D01*
X429170Y332557D01*
X429124Y332540D01*
X429018Y332472D01*
X428908Y332410D01*
X428862Y332371D01*
X428832Y332351D01*
X428820Y332339D01*
X428819Y332338D01*
X428796Y332315D01*
X428722Y332252D01*
X413931Y317461D01*
X413852Y317362D01*
X413768Y317268D01*
X413744Y317226D01*
X413714Y317188D01*
X413660Y317074D01*
X413599Y316963D01*
X413586Y316916D01*
X413565Y316873D01*
X413539Y316749D01*
X413504Y316628D01*
X413499Y316567D01*
X413492Y316532D01*
X413493Y316484D01*
X413485Y316384D01*
X413485Y315617D01*
X410823Y312955D01*
X407057Y312955D01*
G37*
%LPD*%
G36*
X308862Y200321D02*
X308862Y200321D01*
X308962Y200326D01*
X309033Y200347D01*
X309107Y200358D01*
X309200Y200395D01*
X309297Y200423D01*
X309362Y200459D01*
X309431Y200487D01*
X309513Y200544D01*
X309601Y200593D01*
X309677Y200658D01*
X309717Y200685D01*
X309741Y200712D01*
X309787Y200751D01*
X310580Y201544D01*
X313694Y202834D01*
X317066Y202834D01*
X320223Y201527D01*
X320368Y201485D01*
X320510Y201439D01*
X320534Y201438D01*
X320558Y201431D01*
X320708Y201424D01*
X320858Y201411D01*
X320882Y201415D01*
X320906Y201414D01*
X321054Y201441D01*
X321202Y201463D01*
X321225Y201472D01*
X321249Y201476D01*
X321387Y201536D01*
X321526Y201592D01*
X321546Y201606D01*
X321568Y201615D01*
X321689Y201705D01*
X321812Y201791D01*
X321828Y201809D01*
X321848Y201823D01*
X321945Y201938D01*
X322046Y202050D01*
X322057Y202071D01*
X322073Y202089D01*
X322141Y202223D01*
X322214Y202355D01*
X322221Y202378D01*
X322232Y202399D01*
X322268Y202545D01*
X322309Y202690D01*
X322311Y202719D01*
X322316Y202738D01*
X322317Y202785D01*
X322329Y202934D01*
X322329Y316653D01*
X322314Y316779D01*
X322308Y316905D01*
X322294Y316951D01*
X322289Y316999D01*
X322246Y317118D01*
X322211Y317240D01*
X322188Y317282D01*
X322171Y317327D01*
X322103Y317434D01*
X322041Y317544D01*
X322002Y317590D01*
X321982Y317620D01*
X321948Y317654D01*
X321883Y317730D01*
X309787Y329826D01*
X309709Y329888D01*
X309636Y329958D01*
X309572Y329996D01*
X309514Y330042D01*
X309423Y330085D01*
X309337Y330137D01*
X309266Y330159D01*
X309199Y330191D01*
X309101Y330212D01*
X309005Y330243D01*
X308931Y330249D01*
X308858Y330265D01*
X308758Y330263D01*
X308658Y330271D01*
X308584Y330260D01*
X308510Y330259D01*
X308413Y330234D01*
X308313Y330219D01*
X308244Y330192D01*
X308172Y330174D01*
X308082Y330128D01*
X307989Y330090D01*
X307928Y330048D01*
X307862Y330014D01*
X307785Y329949D01*
X307703Y329892D01*
X307653Y329836D01*
X307597Y329788D01*
X307537Y329707D01*
X307470Y329633D01*
X307434Y329568D01*
X307389Y329508D01*
X307350Y329416D01*
X307301Y329328D01*
X307281Y329256D01*
X307251Y329188D01*
X307234Y329089D01*
X307206Y328992D01*
X307198Y328892D01*
X307190Y328845D01*
X307192Y328809D01*
X307187Y328749D01*
X307187Y201828D01*
X307198Y201729D01*
X307200Y201628D01*
X307218Y201556D01*
X307227Y201482D01*
X307261Y201388D01*
X307285Y201290D01*
X307319Y201224D01*
X307344Y201154D01*
X307399Y201070D01*
X307445Y200980D01*
X307493Y200924D01*
X307533Y200861D01*
X307605Y200792D01*
X307670Y200715D01*
X307730Y200671D01*
X307784Y200619D01*
X307870Y200568D01*
X307951Y200508D01*
X308019Y200478D01*
X308083Y200440D01*
X308179Y200410D01*
X308271Y200370D01*
X308344Y200357D01*
X308415Y200334D01*
X308515Y200326D01*
X308614Y200308D01*
X308688Y200312D01*
X308762Y200306D01*
X308862Y200321D01*
G37*
%LPC*%
G36*
X210716Y359009D02*
X210716Y359009D01*
X204721Y361492D01*
X200132Y366081D01*
X197649Y372076D01*
X197649Y378564D01*
X200132Y384559D01*
X204721Y389148D01*
X210716Y391631D01*
X217204Y391631D01*
X223199Y389148D01*
X227788Y384559D01*
X230271Y378564D01*
X230271Y372076D01*
X227788Y366081D01*
X223199Y361492D01*
X217204Y359009D01*
X210716Y359009D01*
G37*
%LPD*%
%LPC*%
G36*
X210716Y-27991D02*
X210716Y-27991D01*
X204721Y-25508D01*
X200132Y-20919D01*
X197649Y-14924D01*
X197649Y-8436D01*
X200132Y-2441D01*
X204721Y2148D01*
X210716Y4631D01*
X217204Y4631D01*
X223199Y2148D01*
X227788Y-2441D01*
X230271Y-8436D01*
X230271Y-14924D01*
X227788Y-20919D01*
X223199Y-25508D01*
X217204Y-27991D01*
X210716Y-27991D01*
G37*
%LPD*%
%LPC*%
G36*
X602796Y-27991D02*
X602796Y-27991D01*
X596801Y-25508D01*
X592212Y-20919D01*
X589729Y-14924D01*
X589729Y-8436D01*
X592212Y-2441D01*
X596801Y2148D01*
X602796Y4631D01*
X609284Y4631D01*
X615279Y2148D01*
X619868Y-2441D01*
X622351Y-8436D01*
X622351Y-14924D01*
X619868Y-20919D01*
X615279Y-25508D01*
X609284Y-27991D01*
X602796Y-27991D01*
G37*
%LPD*%
%LPC*%
G36*
X468216Y117177D02*
X468216Y117177D01*
X465554Y119839D01*
X465554Y123604D01*
X466096Y124146D01*
X466174Y124245D01*
X466259Y124339D01*
X466282Y124381D01*
X466312Y124419D01*
X466366Y124533D01*
X466427Y124644D01*
X466440Y124690D01*
X466461Y124734D01*
X466488Y124857D01*
X466522Y124979D01*
X466527Y125040D01*
X466534Y125075D01*
X466534Y125123D01*
X466542Y125223D01*
X466542Y164342D01*
X466843Y164644D01*
X466922Y164743D01*
X467006Y164837D01*
X467030Y164879D01*
X467060Y164917D01*
X467114Y165031D01*
X467175Y165142D01*
X467188Y165188D01*
X467209Y165232D01*
X467235Y165355D01*
X467270Y165477D01*
X467275Y165538D01*
X467282Y165573D01*
X467281Y165621D01*
X467289Y165721D01*
X467289Y171594D01*
X467286Y171620D01*
X467288Y171646D01*
X467266Y171793D01*
X467249Y171940D01*
X467241Y171965D01*
X467237Y171991D01*
X467204Y172072D01*
X467215Y172110D01*
X467260Y172251D01*
X467262Y172277D01*
X467270Y172302D01*
X467289Y172546D01*
X467289Y180755D01*
X467372Y180742D01*
X468703Y180309D01*
X469424Y179942D01*
X469458Y179929D01*
X469489Y179911D01*
X469621Y179868D01*
X469751Y179820D01*
X469787Y179815D01*
X469821Y179805D01*
X469959Y179793D01*
X470097Y179776D01*
X470132Y179779D01*
X470168Y179777D01*
X470305Y179797D01*
X470443Y179811D01*
X470477Y179823D01*
X470513Y179828D01*
X470642Y179880D01*
X470773Y179925D01*
X470803Y179944D01*
X470837Y179957D01*
X470951Y180036D01*
X471068Y180110D01*
X471094Y180135D01*
X471123Y180156D01*
X471216Y180259D01*
X471313Y180357D01*
X471332Y180388D01*
X471356Y180415D01*
X471423Y180536D01*
X471496Y180654D01*
X471508Y180688D01*
X471525Y180720D01*
X471563Y180853D01*
X471607Y180985D01*
X471610Y181021D01*
X471620Y181055D01*
X471639Y181299D01*
X471639Y184506D01*
X471622Y184655D01*
X471610Y184806D01*
X471602Y184829D01*
X471599Y184853D01*
X471549Y184994D01*
X471503Y185137D01*
X471490Y185158D01*
X471482Y185181D01*
X471400Y185307D01*
X471323Y185436D01*
X471306Y185453D01*
X471293Y185474D01*
X471185Y185578D01*
X471080Y185686D01*
X471060Y185699D01*
X471042Y185716D01*
X470913Y185793D01*
X470787Y185874D01*
X470764Y185882D01*
X470743Y185895D01*
X470600Y185940D01*
X470458Y185991D01*
X470434Y185994D01*
X470411Y186001D01*
X470262Y186013D01*
X470112Y186030D01*
X470088Y186027D01*
X470064Y186029D01*
X469915Y186007D01*
X469766Y185989D01*
X469738Y185980D01*
X469719Y185977D01*
X469675Y185960D01*
X469533Y185914D01*
X469466Y185886D01*
X466094Y185886D01*
X462980Y187176D01*
X460596Y189560D01*
X459306Y192674D01*
X459306Y196046D01*
X460596Y199160D01*
X462980Y201544D01*
X466094Y202834D01*
X469466Y202834D01*
X472580Y201544D01*
X474964Y199160D01*
X476254Y196046D01*
X476254Y192674D01*
X476129Y192371D01*
X476108Y192298D01*
X476077Y192228D01*
X476060Y192131D01*
X476033Y192036D01*
X476029Y191960D01*
X476016Y191885D01*
X476021Y191786D01*
X476016Y191688D01*
X476030Y191613D01*
X476034Y191536D01*
X476061Y191442D01*
X476079Y191345D01*
X476109Y191275D01*
X476130Y191202D01*
X476178Y191116D01*
X476217Y191026D01*
X476263Y190964D01*
X476300Y190897D01*
X476397Y190784D01*
X476425Y190746D01*
X476440Y190733D01*
X476459Y190711D01*
X478753Y188417D01*
X478753Y166493D01*
X474101Y161842D01*
X474023Y161743D01*
X473938Y161649D01*
X473915Y161607D01*
X473885Y161569D01*
X473831Y161455D01*
X473770Y161344D01*
X473756Y161298D01*
X473736Y161254D01*
X473709Y161131D01*
X473675Y161009D01*
X473670Y160948D01*
X473662Y160913D01*
X473663Y160865D01*
X473655Y160765D01*
X473655Y125223D01*
X473670Y125097D01*
X473676Y124971D01*
X473689Y124925D01*
X473695Y124877D01*
X473738Y124758D01*
X473773Y124636D01*
X473796Y124594D01*
X473813Y124549D01*
X473881Y124442D01*
X473943Y124332D01*
X473982Y124286D01*
X474002Y124256D01*
X474036Y124222D01*
X474101Y124146D01*
X474643Y123604D01*
X474643Y119839D01*
X471981Y117177D01*
X468216Y117177D01*
G37*
%LPD*%
%LPC*%
G36*
X342498Y-35475D02*
X342498Y-35475D01*
X341605Y-34582D01*
X341605Y-3318D01*
X342498Y-2425D01*
X364762Y-2425D01*
X365655Y-3318D01*
X365655Y-34582D01*
X364762Y-35475D01*
X342498Y-35475D01*
G37*
%LPD*%
%LPC*%
G36*
X254998Y-35475D02*
X254998Y-35475D01*
X254105Y-34582D01*
X254105Y-3318D01*
X254998Y-2425D01*
X277262Y-2425D01*
X278155Y-3318D01*
X278155Y-34582D01*
X277262Y-35475D01*
X254998Y-35475D01*
G37*
%LPD*%
%LPC*%
G36*
X465477Y272315D02*
X465477Y272315D01*
X464936Y272857D01*
X464837Y272936D01*
X464743Y273020D01*
X464700Y273044D01*
X464663Y273074D01*
X464548Y273128D01*
X464438Y273189D01*
X464391Y273202D01*
X464348Y273223D01*
X464224Y273249D01*
X464102Y273284D01*
X464042Y273289D01*
X464007Y273296D01*
X463959Y273295D01*
X463859Y273303D01*
X394767Y273303D01*
X378421Y289649D01*
X378322Y289728D01*
X378228Y289812D01*
X378186Y289836D01*
X378148Y289866D01*
X378034Y289920D01*
X377923Y289981D01*
X377876Y289994D01*
X377833Y290015D01*
X377709Y290041D01*
X377588Y290076D01*
X377527Y290081D01*
X377492Y290088D01*
X377444Y290087D01*
X377344Y290095D01*
X376577Y290095D01*
X373915Y292757D01*
X373915Y296523D01*
X376577Y299185D01*
X380343Y299185D01*
X383005Y296523D01*
X383005Y295756D01*
X383019Y295631D01*
X383026Y295504D01*
X383039Y295458D01*
X383045Y295410D01*
X383087Y295291D01*
X383122Y295170D01*
X383146Y295127D01*
X383162Y295082D01*
X383231Y294976D01*
X383292Y294865D01*
X383332Y294819D01*
X383351Y294789D01*
X383386Y294756D01*
X383451Y294679D01*
X397267Y280863D01*
X397366Y280784D01*
X397460Y280700D01*
X397502Y280676D01*
X397540Y280646D01*
X397654Y280592D01*
X397765Y280531D01*
X397812Y280518D01*
X397855Y280497D01*
X397979Y280471D01*
X398100Y280436D01*
X398161Y280431D01*
X398196Y280424D01*
X398244Y280425D01*
X398344Y280417D01*
X463859Y280417D01*
X463984Y280431D01*
X464110Y280438D01*
X464157Y280451D01*
X464205Y280457D01*
X464324Y280499D01*
X464445Y280534D01*
X464487Y280558D01*
X464533Y280574D01*
X464639Y280643D01*
X464749Y280704D01*
X464796Y280744D01*
X464826Y280763D01*
X464859Y280798D01*
X464936Y280863D01*
X465477Y281405D01*
X469243Y281405D01*
X471905Y278743D01*
X471905Y274977D01*
X469243Y272315D01*
X465477Y272315D01*
G37*
%LPD*%
%LPC*%
G36*
X542294Y338286D02*
X542294Y338286D01*
X539180Y339576D01*
X536796Y341960D01*
X535506Y345074D01*
X535506Y348446D01*
X536796Y351560D01*
X539180Y353944D01*
X542294Y355234D01*
X545666Y355234D01*
X548780Y353944D01*
X551164Y351560D01*
X552454Y348446D01*
X552454Y345074D01*
X551164Y341960D01*
X548780Y339576D01*
X545666Y338286D01*
X542294Y338286D01*
G37*
%LPD*%
%LPC*%
G36*
X567694Y338286D02*
X567694Y338286D01*
X564580Y339576D01*
X562196Y341960D01*
X560906Y345074D01*
X560906Y348446D01*
X562196Y351560D01*
X564580Y353944D01*
X567694Y355234D01*
X571066Y355234D01*
X574180Y353944D01*
X576564Y351560D01*
X577854Y348446D01*
X577854Y345074D01*
X576564Y341960D01*
X574180Y339576D01*
X571066Y338286D01*
X567694Y338286D01*
G37*
%LPD*%
%LPC*%
G36*
X237494Y338286D02*
X237494Y338286D01*
X234380Y339576D01*
X231996Y341960D01*
X230706Y345074D01*
X230706Y348446D01*
X231996Y351560D01*
X234380Y353944D01*
X237494Y355234D01*
X240866Y355234D01*
X243980Y353944D01*
X246364Y351560D01*
X247654Y348446D01*
X247654Y345074D01*
X246364Y341960D01*
X243980Y339576D01*
X240866Y338286D01*
X237494Y338286D01*
G37*
%LPD*%
%LPC*%
G36*
X364494Y338286D02*
X364494Y338286D01*
X361380Y339576D01*
X358996Y341960D01*
X357706Y345074D01*
X357706Y348446D01*
X358996Y351560D01*
X361380Y353944D01*
X364494Y355234D01*
X367866Y355234D01*
X370980Y353944D01*
X373364Y351560D01*
X374654Y348446D01*
X374654Y345074D01*
X373364Y341960D01*
X370980Y339576D01*
X367866Y338286D01*
X364494Y338286D01*
G37*
%LPD*%
%LPC*%
G36*
X389894Y338286D02*
X389894Y338286D01*
X386780Y339576D01*
X384396Y341960D01*
X383106Y345074D01*
X383106Y348446D01*
X384396Y351560D01*
X386780Y353944D01*
X389894Y355234D01*
X393266Y355234D01*
X396380Y353944D01*
X398764Y351560D01*
X400054Y348446D01*
X400054Y345074D01*
X398764Y341960D01*
X396380Y339576D01*
X393266Y338286D01*
X389894Y338286D01*
G37*
%LPD*%
%LPC*%
G36*
X339094Y338286D02*
X339094Y338286D01*
X335980Y339576D01*
X333596Y341960D01*
X332306Y345074D01*
X332306Y348446D01*
X333596Y351560D01*
X335980Y353944D01*
X339094Y355234D01*
X342466Y355234D01*
X345580Y353944D01*
X347964Y351560D01*
X349254Y348446D01*
X349254Y345074D01*
X347964Y341960D01*
X345580Y339576D01*
X342466Y338286D01*
X339094Y338286D01*
G37*
%LPD*%
%LPC*%
G36*
X237494Y312886D02*
X237494Y312886D01*
X234380Y314176D01*
X231996Y316560D01*
X230706Y319674D01*
X230706Y323046D01*
X231996Y326160D01*
X234380Y328544D01*
X237494Y329834D01*
X240866Y329834D01*
X243980Y328544D01*
X246364Y326160D01*
X247654Y323046D01*
X247654Y319674D01*
X246364Y316560D01*
X243980Y314176D01*
X240866Y312886D01*
X237494Y312886D01*
G37*
%LPD*%
%LPC*%
G36*
X237494Y287486D02*
X237494Y287486D01*
X234380Y288776D01*
X231996Y291160D01*
X230706Y294274D01*
X230706Y297646D01*
X231996Y300760D01*
X234380Y303144D01*
X237494Y304434D01*
X240866Y304434D01*
X243980Y303144D01*
X246364Y300760D01*
X247654Y297646D01*
X247654Y294274D01*
X246364Y291160D01*
X243980Y288776D01*
X240866Y287486D01*
X237494Y287486D01*
G37*
%LPD*%
%LPC*%
G36*
X237494Y236686D02*
X237494Y236686D01*
X234380Y237976D01*
X231996Y240360D01*
X230706Y243474D01*
X230706Y246846D01*
X231996Y249960D01*
X234380Y252344D01*
X237494Y253634D01*
X240866Y253634D01*
X243980Y252344D01*
X246364Y249960D01*
X247654Y246846D01*
X247654Y243474D01*
X246364Y240360D01*
X243980Y237976D01*
X240866Y236686D01*
X237494Y236686D01*
G37*
%LPD*%
%LPC*%
G36*
X237494Y211286D02*
X237494Y211286D01*
X234380Y212576D01*
X231996Y214960D01*
X230706Y218074D01*
X230706Y221446D01*
X231996Y224560D01*
X234380Y226944D01*
X237494Y228234D01*
X240866Y228234D01*
X243980Y226944D01*
X246364Y224560D01*
X247654Y221446D01*
X247654Y218074D01*
X246364Y214960D01*
X243980Y212576D01*
X240866Y211286D01*
X237494Y211286D01*
G37*
%LPD*%
%LPC*%
G36*
X415294Y185886D02*
X415294Y185886D01*
X412180Y187176D01*
X409796Y189560D01*
X408506Y192674D01*
X408506Y196046D01*
X409796Y199160D01*
X412180Y201544D01*
X415294Y202834D01*
X418666Y202834D01*
X421780Y201544D01*
X424164Y199160D01*
X425454Y196046D01*
X425454Y192674D01*
X424164Y189560D01*
X421780Y187176D01*
X418666Y185886D01*
X415294Y185886D01*
G37*
%LPD*%
%LPC*%
G36*
X440694Y185886D02*
X440694Y185886D01*
X437580Y187176D01*
X435196Y189560D01*
X433906Y192674D01*
X433906Y196046D01*
X435196Y199160D01*
X437580Y201544D01*
X440694Y202834D01*
X444066Y202834D01*
X447180Y201544D01*
X449564Y199160D01*
X450854Y196046D01*
X450854Y192674D01*
X449564Y189560D01*
X447180Y187176D01*
X444066Y185886D01*
X440694Y185886D01*
G37*
%LPD*%
%LPC*%
G36*
X237494Y185886D02*
X237494Y185886D01*
X234380Y187176D01*
X231996Y189560D01*
X230706Y192674D01*
X230706Y196046D01*
X231996Y199160D01*
X234380Y201544D01*
X237494Y202834D01*
X240866Y202834D01*
X243980Y201544D01*
X246364Y199160D01*
X247654Y196046D01*
X247654Y192674D01*
X246364Y189560D01*
X243980Y187176D01*
X240866Y185886D01*
X237494Y185886D01*
G37*
%LPD*%
%LPC*%
G36*
X542294Y185886D02*
X542294Y185886D01*
X539180Y187176D01*
X536796Y189560D01*
X535506Y192674D01*
X535506Y196046D01*
X536796Y199160D01*
X539180Y201544D01*
X542294Y202834D01*
X545666Y202834D01*
X548780Y201544D01*
X551164Y199160D01*
X552454Y196046D01*
X552454Y192674D01*
X551164Y189560D01*
X548780Y187176D01*
X545666Y185886D01*
X542294Y185886D01*
G37*
%LPD*%
%LPC*%
G36*
X516894Y185886D02*
X516894Y185886D01*
X513780Y187176D01*
X511396Y189560D01*
X510106Y192674D01*
X510106Y196046D01*
X511396Y199160D01*
X513780Y201544D01*
X516894Y202834D01*
X520266Y202834D01*
X523380Y201544D01*
X525764Y199160D01*
X527054Y196046D01*
X527054Y192674D01*
X525764Y189560D01*
X523380Y187176D01*
X520266Y185886D01*
X516894Y185886D01*
G37*
%LPD*%
%LPC*%
G36*
X491494Y185886D02*
X491494Y185886D01*
X488380Y187176D01*
X485996Y189560D01*
X484706Y192674D01*
X484706Y196046D01*
X485996Y199160D01*
X488380Y201544D01*
X491494Y202834D01*
X494866Y202834D01*
X497980Y201544D01*
X500364Y199160D01*
X501654Y196046D01*
X501654Y192674D01*
X500364Y189560D01*
X497980Y187176D01*
X494866Y185886D01*
X491494Y185886D01*
G37*
%LPD*%
%LPC*%
G36*
X364494Y185886D02*
X364494Y185886D01*
X361380Y187176D01*
X358996Y189560D01*
X357706Y192674D01*
X357706Y196046D01*
X358996Y199160D01*
X361380Y201544D01*
X364494Y202834D01*
X367866Y202834D01*
X370980Y201544D01*
X373364Y199160D01*
X374654Y196046D01*
X374654Y192674D01*
X373364Y189560D01*
X370980Y187176D01*
X367866Y185886D01*
X364494Y185886D01*
G37*
%LPD*%
%LPC*%
G36*
X262894Y185886D02*
X262894Y185886D01*
X259780Y187176D01*
X257396Y189560D01*
X256106Y192674D01*
X256106Y196046D01*
X257396Y199160D01*
X259780Y201544D01*
X262894Y202834D01*
X266266Y202834D01*
X269380Y201544D01*
X271764Y199160D01*
X273054Y196046D01*
X273054Y192674D01*
X271764Y189560D01*
X269380Y187176D01*
X266266Y185886D01*
X262894Y185886D01*
G37*
%LPD*%
%LPC*%
G36*
X423724Y164195D02*
X423724Y164195D01*
X420829Y165394D01*
X418614Y167609D01*
X417415Y170504D01*
X417415Y173636D01*
X418614Y176531D01*
X420829Y178746D01*
X423724Y179945D01*
X426856Y179945D01*
X429751Y178746D01*
X431966Y176531D01*
X433165Y173636D01*
X433165Y170504D01*
X431966Y167609D01*
X429751Y165394D01*
X426856Y164195D01*
X423724Y164195D01*
G37*
%LPD*%
%LPC*%
G36*
X343724Y164195D02*
X343724Y164195D01*
X340829Y165394D01*
X338614Y167609D01*
X337415Y170504D01*
X337415Y173636D01*
X338614Y176531D01*
X340829Y178746D01*
X343724Y179945D01*
X346856Y179945D01*
X349751Y178746D01*
X351966Y176531D01*
X353165Y173636D01*
X353165Y170504D01*
X351966Y167609D01*
X349751Y165394D01*
X346856Y164195D01*
X343724Y164195D01*
G37*
%LPD*%
%LPC*%
G36*
X443724Y164195D02*
X443724Y164195D01*
X440829Y165394D01*
X438614Y167609D01*
X437415Y170504D01*
X437415Y173636D01*
X438614Y176531D01*
X440829Y178746D01*
X443724Y179945D01*
X446856Y179945D01*
X449751Y178746D01*
X451966Y176531D01*
X453165Y173636D01*
X453165Y170504D01*
X451966Y167609D01*
X449751Y165394D01*
X446856Y164195D01*
X443724Y164195D01*
G37*
%LPD*%
%LPC*%
G36*
X403724Y164195D02*
X403724Y164195D01*
X400829Y165394D01*
X398614Y167609D01*
X397415Y170504D01*
X397415Y173636D01*
X398614Y176531D01*
X400829Y178746D01*
X403724Y179945D01*
X406856Y179945D01*
X409751Y178746D01*
X411966Y176531D01*
X413165Y173636D01*
X413165Y170504D01*
X411966Y167609D01*
X409751Y165394D01*
X406856Y164195D01*
X403724Y164195D01*
G37*
%LPD*%
%LPC*%
G36*
X601801Y58915D02*
X601801Y58915D01*
X599123Y60024D01*
X597074Y62073D01*
X595965Y64751D01*
X595965Y67649D01*
X597074Y70327D01*
X599123Y72376D01*
X601801Y73485D01*
X604699Y73485D01*
X607377Y72376D01*
X609426Y70327D01*
X610535Y67649D01*
X610535Y64751D01*
X609426Y62073D01*
X607377Y60024D01*
X604699Y58915D01*
X601801Y58915D01*
G37*
%LPD*%
%LPC*%
G36*
X601801Y38915D02*
X601801Y38915D01*
X599123Y40024D01*
X597074Y42073D01*
X595965Y44751D01*
X595965Y47649D01*
X597074Y50327D01*
X599123Y52376D01*
X601801Y53485D01*
X604699Y53485D01*
X607377Y52376D01*
X609426Y50327D01*
X610535Y47649D01*
X610535Y44751D01*
X609426Y42073D01*
X607377Y40024D01*
X604699Y38915D01*
X601801Y38915D01*
G37*
%LPD*%
%LPC*%
G36*
X284589Y14299D02*
X284589Y14299D01*
X284589Y22635D01*
X284762Y23281D01*
X285097Y23860D01*
X285570Y24333D01*
X286149Y24668D01*
X286795Y24841D01*
X289131Y24841D01*
X289131Y14299D01*
X284589Y14299D01*
G37*
%LPD*%
%LPC*%
G36*
X286149Y-68D02*
X286149Y-68D01*
X285570Y267D01*
X285097Y740D01*
X284762Y1319D01*
X284589Y1965D01*
X284589Y10301D01*
X289131Y10301D01*
X289131Y-241D01*
X286795Y-241D01*
X286149Y-68D01*
G37*
%LPD*%
%LPC*%
G36*
X241592Y272972D02*
X241592Y272972D01*
X241592Y279755D01*
X242823Y279355D01*
X244154Y278677D01*
X245363Y277799D01*
X246419Y276743D01*
X247297Y275534D01*
X247975Y274203D01*
X248375Y272972D01*
X241592Y272972D01*
G37*
%LPD*%
%LPC*%
G36*
X571792Y196772D02*
X571792Y196772D01*
X571792Y203555D01*
X573023Y203155D01*
X574354Y202477D01*
X575563Y201599D01*
X576619Y200543D01*
X577497Y199334D01*
X578175Y198003D01*
X578575Y196772D01*
X571792Y196772D01*
G37*
%LPD*%
%LPC*%
G36*
X241592Y268148D02*
X241592Y268148D01*
X248375Y268148D01*
X247975Y266917D01*
X247297Y265586D01*
X246419Y264377D01*
X245363Y263321D01*
X244154Y262443D01*
X242823Y261765D01*
X241592Y261365D01*
X241592Y268148D01*
G37*
%LPD*%
%LPC*%
G36*
X560185Y196772D02*
X560185Y196772D01*
X560585Y198003D01*
X561263Y199334D01*
X562141Y200543D01*
X563197Y201599D01*
X564406Y202477D01*
X565737Y203155D01*
X566968Y203555D01*
X566968Y196772D01*
X560185Y196772D01*
G37*
%LPD*%
%LPC*%
G36*
X571792Y191948D02*
X571792Y191948D01*
X578575Y191948D01*
X578175Y190717D01*
X577497Y189386D01*
X576619Y188177D01*
X575563Y187121D01*
X574354Y186243D01*
X573023Y185565D01*
X571792Y185165D01*
X571792Y191948D01*
G37*
%LPD*%
%LPC*%
G36*
X229985Y272972D02*
X229985Y272972D01*
X230385Y274203D01*
X231063Y275534D01*
X231941Y276743D01*
X232997Y277799D01*
X234206Y278677D01*
X235537Y279355D01*
X236768Y279755D01*
X236768Y272972D01*
X229985Y272972D01*
G37*
%LPD*%
%LPC*%
G36*
X235537Y261765D02*
X235537Y261765D01*
X234206Y262443D01*
X232997Y263321D01*
X231941Y264377D01*
X231063Y265586D01*
X230385Y266917D01*
X229985Y268148D01*
X236768Y268148D01*
X236768Y261365D01*
X235537Y261765D01*
G37*
%LPD*%
%LPC*%
G36*
X565737Y185565D02*
X565737Y185565D01*
X564406Y186243D01*
X563197Y187121D01*
X562141Y188177D01*
X561263Y189386D01*
X560585Y190717D01*
X560185Y191948D01*
X566968Y191948D01*
X566968Y185165D01*
X565737Y185565D01*
G37*
%LPD*%
%LPC*%
G36*
X456605Y174069D02*
X456605Y174069D01*
X456618Y174152D01*
X457051Y175483D01*
X457686Y176730D01*
X458509Y177862D01*
X459498Y178851D01*
X460630Y179674D01*
X461877Y180309D01*
X463208Y180742D01*
X463291Y180755D01*
X463291Y174069D01*
X456605Y174069D01*
G37*
%LPD*%
%LPC*%
G36*
X463208Y163398D02*
X463208Y163398D01*
X461877Y163831D01*
X460630Y164466D01*
X459498Y165289D01*
X458509Y166278D01*
X457686Y167410D01*
X457051Y168657D01*
X456618Y169988D01*
X456605Y170071D01*
X463291Y170071D01*
X463291Y163385D01*
X463208Y163398D01*
G37*
%LPD*%
%LPC*%
G36*
X605249Y108199D02*
X605249Y108199D01*
X605249Y114266D01*
X605671Y114182D01*
X607182Y113556D01*
X608541Y112648D01*
X609698Y111491D01*
X610606Y110132D01*
X611232Y108621D01*
X611316Y108199D01*
X605249Y108199D01*
G37*
%LPD*%
%LPC*%
G36*
X605249Y88199D02*
X605249Y88199D01*
X605249Y94266D01*
X605671Y94182D01*
X607182Y93556D01*
X608541Y92648D01*
X609698Y91491D01*
X610606Y90132D01*
X611232Y88621D01*
X611316Y88199D01*
X605249Y88199D01*
G37*
%LPD*%
%LPC*%
G36*
X595184Y108199D02*
X595184Y108199D01*
X595268Y108621D01*
X595894Y110132D01*
X596802Y111491D01*
X597959Y112648D01*
X599318Y113556D01*
X600829Y114182D01*
X601251Y114266D01*
X601251Y108199D01*
X595184Y108199D01*
G37*
%LPD*%
%LPC*%
G36*
X605249Y104201D02*
X605249Y104201D01*
X611316Y104201D01*
X611232Y103779D01*
X610606Y102268D01*
X609698Y100909D01*
X608541Y99752D01*
X607182Y98844D01*
X605671Y98218D01*
X605249Y98134D01*
X605249Y104201D01*
G37*
%LPD*%
%LPC*%
G36*
X595184Y88199D02*
X595184Y88199D01*
X595268Y88621D01*
X595894Y90132D01*
X596802Y91491D01*
X597959Y92648D01*
X599318Y93556D01*
X600829Y94182D01*
X601251Y94266D01*
X601251Y88199D01*
X595184Y88199D01*
G37*
%LPD*%
%LPC*%
G36*
X605249Y84201D02*
X605249Y84201D01*
X611316Y84201D01*
X611232Y83779D01*
X610606Y82268D01*
X609698Y80909D01*
X608541Y79752D01*
X607182Y78844D01*
X605671Y78218D01*
X605249Y78134D01*
X605249Y84201D01*
G37*
%LPD*%
%LPC*%
G36*
X600829Y78218D02*
X600829Y78218D01*
X599318Y78844D01*
X597959Y79752D01*
X596802Y80909D01*
X595894Y82268D01*
X595268Y83779D01*
X595184Y84201D01*
X601251Y84201D01*
X601251Y78134D01*
X600829Y78218D01*
G37*
%LPD*%
%LPC*%
G36*
X600829Y98218D02*
X600829Y98218D01*
X599318Y98844D01*
X597959Y99752D01*
X596802Y100909D01*
X595894Y102268D01*
X595268Y103779D01*
X595184Y104201D01*
X601251Y104201D01*
X601251Y98134D01*
X600829Y98218D01*
G37*
%LPD*%
D10*
X569380Y194360D03*
X543980Y194360D03*
X518580Y194360D03*
X493180Y194360D03*
X467780Y194360D03*
X442380Y194360D03*
X416980Y194360D03*
X391580Y194360D03*
X366180Y194360D03*
X340780Y194360D03*
X315380Y194360D03*
X289980Y194360D03*
X264580Y194360D03*
X239180Y194360D03*
X239180Y219760D03*
X239180Y245160D03*
X239180Y270560D03*
X239180Y295960D03*
X239180Y321360D03*
X239180Y346760D03*
X264580Y346760D03*
X289980Y346760D03*
X315380Y346760D03*
X340780Y346760D03*
X366180Y346760D03*
X391580Y346760D03*
X416980Y346760D03*
X442380Y346760D03*
X467780Y346760D03*
X493180Y346760D03*
X518580Y346760D03*
X543980Y346760D03*
X569380Y346760D03*
D11*
X285290Y172070D03*
X305290Y172070D03*
X325290Y172070D03*
X345290Y172070D03*
X365290Y172070D03*
X385290Y172070D03*
X405290Y172070D03*
X425290Y172070D03*
X445290Y172070D03*
X465290Y172070D03*
X465290Y392070D03*
X445290Y392070D03*
X425290Y392070D03*
X405290Y392070D03*
X385290Y392070D03*
X365290Y392070D03*
X345290Y392070D03*
X325290Y392070D03*
X305290Y392070D03*
X285290Y392070D03*
D12*
X603250Y66200D03*
X603250Y46200D03*
X603250Y86200D03*
X603250Y106200D03*
D13*
X328630Y12300D03*
X316130Y12300D03*
X303630Y12300D03*
X291130Y12300D03*
D14*
X353630Y-18950D03*
X266130Y-18950D03*
D15*
X279908Y31496D03*
X296164Y127762D03*
X285242Y233680D03*
X203200Y195072D03*
X254508Y329946D03*
X357632Y367030D03*
X367030Y325628D03*
X412242Y308610D03*
X342138Y253238D03*
X402590Y212344D03*
X461264Y230124D03*
X401066Y249428D03*
X566928Y220980D03*
X508000Y323596D03*
X513842Y222250D03*
X483870Y177292D03*
X451866Y150876D03*
X419862Y122428D03*
X489712Y125222D03*
X535686Y167386D03*
X575818Y-22606D03*
X627126Y94996D03*
X584708Y173482D03*
X442722Y370332D03*
X486330Y42975D03*
X486330Y53135D03*
X496490Y32815D03*
X496490Y42975D03*
X496490Y53135D03*
X395732Y125984D03*
X578104Y109474D03*
D16*
X233680Y111760D03*
X454660Y259080D03*
D15*
X486330Y32815D03*
X568706Y382016D03*
X411226Y-26924D03*
X314452Y252730D03*
X327152Y92710D03*
D17*
X285290Y112570D02*
X261620Y88900D01*
X236220Y88900D01*
D16*
X236220Y88900D03*
X408940Y317500D03*
D17*
X457275Y351112D02*
X463429Y357265D01*
X427695Y336255D02*
X408940Y317500D01*
X457275Y346798D02*
X457275Y351112D01*
X508037Y346760D02*
X518580Y346760D01*
X446732Y336255D02*
X427695Y336255D01*
X446732Y336255D02*
X457275Y346798D01*
X497532Y357265D02*
X508037Y346760D01*
X497532Y357265D02*
X463429Y357265D01*
X337420Y12300D02*
X328630Y12300D01*
X337420Y12300D02*
X375920Y50800D01*
D16*
X375920Y50800D03*
D17*
X285290Y112570D02*
X285290Y172070D01*
X375196Y177976D02*
X391580Y194360D01*
X375196Y177976D02*
X375196Y167967D01*
X325120Y117891D01*
D16*
X325120Y116840D03*
D17*
X325120Y117891D01*
D16*
X470098Y121722D03*
D17*
X470098Y162869D01*
X475196Y167967D01*
X475196Y186944D01*
X467780Y194360D01*
D16*
X378460Y294640D03*
D17*
X396240Y276860D01*
X467360Y276860D01*
D16*
X467360Y276860D03*
D17*
X315384Y179507D02*
X315384Y13046D01*
X316130Y12300D01*
X300485Y344157D02*
X300485Y351112D01*
X294332Y357265D01*
X285629Y357265D01*
X275123Y346760D02*
X264580Y346760D01*
X275123Y346760D02*
X285629Y357265D01*
X300485Y344157D02*
X325885Y318757D01*
X325885Y190009D01*
X315384Y179507D01*
X303630Y333110D02*
X289980Y346760D01*
X295384Y176173D02*
X295384Y167967D01*
X306424Y156927D02*
X306424Y19412D01*
X303630Y16618D01*
X303630Y12300D01*
X303630Y184419D02*
X303630Y333110D01*
X295384Y167967D02*
X306424Y156927D01*
X295384Y176173D02*
X303630Y184419D01*
M02*
