G04 EAGLE Gerber RS-274X export*
G75*
%MOMM*%
%FSLAX34Y34*%
%LPD*%
%IN*%
%IPPOS*%
%AMOC8*
5,1,8,0,0,1.08239X$1,22.5*%
G01*
%ADD10C,0.254000*%


D10*
X185420Y-12700D02*
X185536Y-15357D01*
X185883Y-17993D01*
X186459Y-20589D01*
X187258Y-23125D01*
X188276Y-25581D01*
X189504Y-27940D01*
X190932Y-30183D01*
X192551Y-32292D01*
X194347Y-34253D01*
X196308Y-36049D01*
X198417Y-37668D01*
X200660Y-39096D01*
X203019Y-40324D01*
X205475Y-41342D01*
X208011Y-42141D01*
X210607Y-42717D01*
X213244Y-43064D01*
X215900Y-43180D01*
X607060Y-43180D01*
X609717Y-43064D01*
X612353Y-42717D01*
X614949Y-42141D01*
X617485Y-41342D01*
X619941Y-40324D01*
X622300Y-39096D01*
X624543Y-37668D01*
X626652Y-36049D01*
X628613Y-34253D01*
X630409Y-32292D01*
X632028Y-30183D01*
X633456Y-27940D01*
X634684Y-25581D01*
X635702Y-23125D01*
X636501Y-20589D01*
X637077Y-17993D01*
X637424Y-15357D01*
X637540Y-12700D01*
X637540Y142240D01*
X629920Y142240D01*
X629256Y142269D01*
X628597Y142356D01*
X627948Y142500D01*
X627314Y142700D01*
X626700Y142954D01*
X626110Y143261D01*
X625549Y143618D01*
X625022Y144023D01*
X624532Y144472D01*
X624083Y144962D01*
X623678Y145489D01*
X623321Y146050D01*
X623014Y146640D01*
X622760Y147254D01*
X622560Y147888D01*
X622416Y148537D01*
X622329Y149196D01*
X622300Y149860D01*
X622300Y177800D01*
X622252Y178907D01*
X622107Y180005D01*
X621867Y181087D01*
X621534Y182144D01*
X621110Y183167D01*
X620599Y184150D01*
X620003Y185084D01*
X619329Y185963D01*
X618580Y186780D01*
X617763Y187529D01*
X616884Y188203D01*
X615950Y188799D01*
X614967Y189310D01*
X613944Y189734D01*
X612887Y190067D01*
X611805Y190307D01*
X610707Y190452D01*
X609600Y190500D01*
X607060Y190500D01*
X605953Y190548D01*
X604855Y190693D01*
X603773Y190933D01*
X602716Y191266D01*
X601693Y191690D01*
X600710Y192201D01*
X599776Y192797D01*
X598897Y193471D01*
X598080Y194220D01*
X597331Y195037D01*
X596657Y195916D01*
X596061Y196850D01*
X595550Y197833D01*
X595126Y198856D01*
X594793Y199913D01*
X594553Y200995D01*
X594408Y202093D01*
X594360Y203200D01*
X594360Y226060D01*
X594399Y226946D01*
X594514Y227824D01*
X594706Y228690D01*
X594973Y229535D01*
X595312Y230354D01*
X595721Y231140D01*
X596197Y231888D01*
X596737Y232591D01*
X597336Y233244D01*
X597989Y233843D01*
X598692Y234383D01*
X599440Y234859D01*
X600226Y235268D01*
X601045Y235607D01*
X601890Y235874D01*
X602756Y236066D01*
X603635Y236181D01*
X604520Y236220D01*
X678180Y236220D01*
X678844Y236249D01*
X679503Y236336D01*
X680152Y236480D01*
X680786Y236680D01*
X681400Y236934D01*
X681990Y237241D01*
X682551Y237598D01*
X683078Y238003D01*
X683568Y238452D01*
X684017Y238942D01*
X684422Y239469D01*
X684779Y240030D01*
X685086Y240620D01*
X685340Y241234D01*
X685540Y241868D01*
X685684Y242517D01*
X685771Y243176D01*
X685800Y243840D01*
X685800Y264160D01*
X685771Y264824D01*
X685684Y265483D01*
X685540Y266132D01*
X685340Y266766D01*
X685086Y267380D01*
X684779Y267970D01*
X684422Y268531D01*
X684017Y269058D01*
X683568Y269548D01*
X683078Y269997D01*
X682551Y270402D01*
X681990Y270759D01*
X681400Y271066D01*
X680786Y271320D01*
X680152Y271520D01*
X679503Y271664D01*
X678844Y271751D01*
X678180Y271780D01*
X599440Y271780D01*
X599219Y271790D01*
X598999Y271819D01*
X598783Y271867D01*
X598571Y271933D01*
X598367Y272018D01*
X598170Y272120D01*
X597983Y272239D01*
X597807Y272374D01*
X597644Y272524D01*
X597494Y272687D01*
X597359Y272863D01*
X597240Y273050D01*
X597138Y273247D01*
X597053Y273451D01*
X596987Y273663D01*
X596939Y273879D01*
X596910Y274099D01*
X596900Y274320D01*
X596900Y337820D01*
X596939Y338706D01*
X597054Y339584D01*
X597246Y340450D01*
X597513Y341295D01*
X597852Y342114D01*
X598261Y342900D01*
X598737Y343648D01*
X599277Y344351D01*
X599876Y345004D01*
X600529Y345603D01*
X601232Y346143D01*
X601980Y346619D01*
X602766Y347028D01*
X603585Y347367D01*
X604430Y347634D01*
X605296Y347826D01*
X606175Y347941D01*
X607060Y347980D01*
X609600Y347980D01*
X611814Y348077D01*
X614011Y348366D01*
X616174Y348845D01*
X618287Y349512D01*
X620335Y350360D01*
X622300Y351383D01*
X624169Y352574D01*
X625927Y353922D01*
X627561Y355420D01*
X629058Y357053D01*
X630406Y358811D01*
X631597Y360680D01*
X632620Y362646D01*
X633468Y364693D01*
X634135Y366806D01*
X634614Y368969D01*
X634903Y371166D01*
X635000Y373380D01*
X634884Y376037D01*
X634537Y378673D01*
X633961Y381269D01*
X633162Y383805D01*
X632144Y386261D01*
X630916Y388620D01*
X629488Y390863D01*
X627869Y392972D01*
X626073Y394933D01*
X624112Y396729D01*
X622003Y398348D01*
X619760Y399776D01*
X617401Y401004D01*
X614945Y402022D01*
X612409Y402821D01*
X609813Y403397D01*
X607177Y403744D01*
X604520Y403860D01*
X213360Y403860D01*
X210925Y403754D01*
X208508Y403436D01*
X206129Y402908D01*
X203804Y402175D01*
X201552Y401242D01*
X199390Y400117D01*
X197334Y398807D01*
X195401Y397323D01*
X193603Y395677D01*
X191957Y393880D01*
X190473Y391946D01*
X189163Y389890D01*
X188038Y387728D01*
X187105Y385476D01*
X186372Y383151D01*
X185844Y380772D01*
X185526Y378355D01*
X185420Y375920D01*
X185420Y-12700D01*
X618540Y-12171D02*
X618463Y-13150D01*
X618309Y-14121D01*
X618080Y-15076D01*
X617776Y-16010D01*
X617401Y-16917D01*
X616955Y-17792D01*
X616441Y-18630D01*
X615864Y-19425D01*
X615226Y-20172D01*
X614532Y-20866D01*
X613785Y-21504D01*
X612990Y-22081D01*
X612152Y-22595D01*
X611277Y-23041D01*
X610370Y-23416D01*
X609436Y-23720D01*
X608481Y-23949D01*
X607510Y-24103D01*
X606531Y-24180D01*
X605549Y-24180D01*
X604570Y-24103D01*
X603600Y-23949D01*
X602644Y-23720D01*
X601710Y-23416D01*
X600803Y-23041D01*
X599928Y-22595D01*
X599090Y-22081D01*
X598295Y-21504D01*
X597548Y-20866D01*
X596854Y-20172D01*
X596216Y-19425D01*
X595639Y-18630D01*
X595125Y-17792D01*
X594679Y-16917D01*
X594304Y-16010D01*
X594000Y-15076D01*
X593771Y-14121D01*
X593617Y-13150D01*
X593540Y-12171D01*
X593540Y-11189D01*
X593617Y-10210D01*
X593771Y-9240D01*
X594000Y-8284D01*
X594304Y-7350D01*
X594679Y-6443D01*
X595125Y-5568D01*
X595639Y-4730D01*
X596216Y-3935D01*
X596854Y-3188D01*
X597548Y-2494D01*
X598295Y-1856D01*
X599090Y-1279D01*
X599928Y-765D01*
X600803Y-319D01*
X601710Y56D01*
X602644Y360D01*
X603600Y589D01*
X604570Y743D01*
X605549Y820D01*
X606531Y820D01*
X607510Y743D01*
X608481Y589D01*
X609436Y360D01*
X610370Y56D01*
X611277Y-319D01*
X612152Y-765D01*
X612990Y-1279D01*
X613785Y-1856D01*
X614532Y-2494D01*
X615226Y-3188D01*
X615864Y-3935D01*
X616441Y-4730D01*
X616955Y-5568D01*
X617401Y-6443D01*
X617776Y-7350D01*
X618080Y-8284D01*
X618309Y-9240D01*
X618463Y-10210D01*
X618540Y-11189D01*
X618540Y-12171D01*
X226460Y-12171D02*
X226383Y-13150D01*
X226229Y-14121D01*
X226000Y-15076D01*
X225696Y-16010D01*
X225321Y-16917D01*
X224875Y-17792D01*
X224361Y-18630D01*
X223784Y-19425D01*
X223146Y-20172D01*
X222452Y-20866D01*
X221705Y-21504D01*
X220910Y-22081D01*
X220072Y-22595D01*
X219197Y-23041D01*
X218290Y-23416D01*
X217356Y-23720D01*
X216401Y-23949D01*
X215430Y-24103D01*
X214451Y-24180D01*
X213469Y-24180D01*
X212490Y-24103D01*
X211520Y-23949D01*
X210564Y-23720D01*
X209630Y-23416D01*
X208723Y-23041D01*
X207848Y-22595D01*
X207010Y-22081D01*
X206215Y-21504D01*
X205468Y-20866D01*
X204774Y-20172D01*
X204136Y-19425D01*
X203559Y-18630D01*
X203045Y-17792D01*
X202599Y-16917D01*
X202224Y-16010D01*
X201920Y-15076D01*
X201691Y-14121D01*
X201537Y-13150D01*
X201460Y-12171D01*
X201460Y-11189D01*
X201537Y-10210D01*
X201691Y-9240D01*
X201920Y-8284D01*
X202224Y-7350D01*
X202599Y-6443D01*
X203045Y-5568D01*
X203559Y-4730D01*
X204136Y-3935D01*
X204774Y-3188D01*
X205468Y-2494D01*
X206215Y-1856D01*
X207010Y-1279D01*
X207848Y-765D01*
X208723Y-319D01*
X209630Y56D01*
X210564Y360D01*
X211520Y589D01*
X212490Y743D01*
X213469Y820D01*
X214451Y820D01*
X215430Y743D01*
X216401Y589D01*
X217356Y360D01*
X218290Y56D01*
X219197Y-319D01*
X220072Y-765D01*
X220910Y-1279D01*
X221705Y-1856D01*
X222452Y-2494D01*
X223146Y-3188D01*
X223784Y-3935D01*
X224361Y-4730D01*
X224875Y-5568D01*
X225321Y-6443D01*
X225696Y-7350D01*
X226000Y-8284D01*
X226229Y-9240D01*
X226383Y-10210D01*
X226460Y-11189D01*
X226460Y-12171D01*
X618540Y374829D02*
X618463Y373850D01*
X618309Y372880D01*
X618080Y371924D01*
X617776Y370990D01*
X617401Y370083D01*
X616955Y369208D01*
X616441Y368370D01*
X615864Y367575D01*
X615226Y366828D01*
X614532Y366134D01*
X613785Y365496D01*
X612990Y364919D01*
X612152Y364405D01*
X611277Y363959D01*
X610370Y363584D01*
X609436Y363280D01*
X608481Y363051D01*
X607510Y362897D01*
X606531Y362820D01*
X605549Y362820D01*
X604570Y362897D01*
X603600Y363051D01*
X602644Y363280D01*
X601710Y363584D01*
X600803Y363959D01*
X599928Y364405D01*
X599090Y364919D01*
X598295Y365496D01*
X597548Y366134D01*
X596854Y366828D01*
X596216Y367575D01*
X595639Y368370D01*
X595125Y369208D01*
X594679Y370083D01*
X594304Y370990D01*
X594000Y371924D01*
X593771Y372880D01*
X593617Y373850D01*
X593540Y374829D01*
X593540Y375811D01*
X593617Y376790D01*
X593771Y377761D01*
X594000Y378716D01*
X594304Y379650D01*
X594679Y380557D01*
X595125Y381432D01*
X595639Y382270D01*
X596216Y383065D01*
X596854Y383812D01*
X597548Y384506D01*
X598295Y385144D01*
X599090Y385721D01*
X599928Y386235D01*
X600803Y386681D01*
X601710Y387056D01*
X602644Y387360D01*
X603600Y387589D01*
X604570Y387743D01*
X605549Y387820D01*
X606531Y387820D01*
X607510Y387743D01*
X608481Y387589D01*
X609436Y387360D01*
X610370Y387056D01*
X611277Y386681D01*
X612152Y386235D01*
X612990Y385721D01*
X613785Y385144D01*
X614532Y384506D01*
X615226Y383812D01*
X615864Y383065D01*
X616441Y382270D01*
X616955Y381432D01*
X617401Y380557D01*
X617776Y379650D01*
X618080Y378716D01*
X618309Y377761D01*
X618463Y376790D01*
X618540Y375811D01*
X618540Y374829D01*
X226460Y374829D02*
X226383Y373850D01*
X226229Y372880D01*
X226000Y371924D01*
X225696Y370990D01*
X225321Y370083D01*
X224875Y369208D01*
X224361Y368370D01*
X223784Y367575D01*
X223146Y366828D01*
X222452Y366134D01*
X221705Y365496D01*
X220910Y364919D01*
X220072Y364405D01*
X219197Y363959D01*
X218290Y363584D01*
X217356Y363280D01*
X216401Y363051D01*
X215430Y362897D01*
X214451Y362820D01*
X213469Y362820D01*
X212490Y362897D01*
X211520Y363051D01*
X210564Y363280D01*
X209630Y363584D01*
X208723Y363959D01*
X207848Y364405D01*
X207010Y364919D01*
X206215Y365496D01*
X205468Y366134D01*
X204774Y366828D01*
X204136Y367575D01*
X203559Y368370D01*
X203045Y369208D01*
X202599Y370083D01*
X202224Y370990D01*
X201920Y371924D01*
X201691Y372880D01*
X201537Y373850D01*
X201460Y374829D01*
X201460Y375811D01*
X201537Y376790D01*
X201691Y377761D01*
X201920Y378716D01*
X202224Y379650D01*
X202599Y380557D01*
X203045Y381432D01*
X203559Y382270D01*
X204136Y383065D01*
X204774Y383812D01*
X205468Y384506D01*
X206215Y385144D01*
X207010Y385721D01*
X207848Y386235D01*
X208723Y386681D01*
X209630Y387056D01*
X210564Y387360D01*
X211520Y387589D01*
X212490Y387743D01*
X213469Y387820D01*
X214451Y387820D01*
X215430Y387743D01*
X216401Y387589D01*
X217356Y387360D01*
X218290Y387056D01*
X219197Y386681D01*
X220072Y386235D01*
X220910Y385721D01*
X221705Y385144D01*
X222452Y384506D01*
X223146Y383812D01*
X223784Y383065D01*
X224361Y382270D01*
X224875Y381432D01*
X225321Y380557D01*
X225696Y379650D01*
X226000Y378716D01*
X226229Y377761D01*
X226383Y376790D01*
X226460Y375811D01*
X226460Y374829D01*
M02*
