G04 EAGLE Gerber RS-274X export*
G75*
%MOMM*%
%FSLAX34Y34*%
%LPD*%
%INSilkscreen Top*%
%IPPOS*%
%AMOC8*
5,1,8,0,0,1.08239X$1,22.5*%
G01*
%ADD10C,0.025400*%
%ADD11C,0.203200*%
%ADD12C,0.076200*%
%ADD13C,0.050800*%
%ADD14R,0.500000X0.625000*%
%ADD15R,0.300000X0.150000*%
%ADD16R,0.300000X0.300000*%
%ADD17C,0.100000*%
%ADD18C,0.127000*%
%ADD19C,1.200000*%
%ADD20C,0.128056*%
%ADD21C,0.101600*%


D10*
X188960Y-11680D02*
X188968Y-11066D01*
X188990Y-10453D01*
X189028Y-9841D01*
X189080Y-9230D01*
X189148Y-8620D01*
X189231Y-8012D01*
X189328Y-7406D01*
X189440Y-6803D01*
X189567Y-6202D01*
X189709Y-5605D01*
X189866Y-5012D01*
X190036Y-4423D01*
X190222Y-3838D01*
X190421Y-3258D01*
X190635Y-2683D01*
X190863Y-2113D01*
X191105Y-1549D01*
X191360Y-991D01*
X191629Y-440D01*
X191912Y105D01*
X192208Y642D01*
X192517Y1173D01*
X192839Y1695D01*
X193173Y2209D01*
X193520Y2715D01*
X193880Y3212D01*
X194251Y3701D01*
X194635Y4180D01*
X195030Y4649D01*
X195436Y5109D01*
X195854Y5559D01*
X196282Y5998D01*
X196721Y6426D01*
X197171Y6844D01*
X197631Y7250D01*
X198100Y7645D01*
X198579Y8029D01*
X199068Y8400D01*
X199565Y8760D01*
X200071Y9107D01*
X200585Y9441D01*
X201107Y9763D01*
X201638Y10072D01*
X202175Y10368D01*
X202720Y10651D01*
X203271Y10920D01*
X203829Y11175D01*
X204393Y11417D01*
X204963Y11645D01*
X205538Y11859D01*
X206118Y12058D01*
X206703Y12244D01*
X207292Y12414D01*
X207885Y12571D01*
X208482Y12713D01*
X209083Y12840D01*
X209686Y12952D01*
X210292Y13049D01*
X210900Y13132D01*
X211510Y13200D01*
X212121Y13252D01*
X212733Y13290D01*
X213346Y13312D01*
X213960Y13320D01*
X214574Y13312D01*
X215187Y13290D01*
X215799Y13252D01*
X216410Y13200D01*
X217020Y13132D01*
X217628Y13049D01*
X218234Y12952D01*
X218837Y12840D01*
X219438Y12713D01*
X220035Y12571D01*
X220628Y12414D01*
X221217Y12244D01*
X221802Y12058D01*
X222382Y11859D01*
X222957Y11645D01*
X223527Y11417D01*
X224091Y11175D01*
X224649Y10920D01*
X225200Y10651D01*
X225745Y10368D01*
X226282Y10072D01*
X226813Y9763D01*
X227335Y9441D01*
X227849Y9107D01*
X228355Y8760D01*
X228852Y8400D01*
X229341Y8029D01*
X229820Y7645D01*
X230289Y7250D01*
X230749Y6844D01*
X231199Y6426D01*
X231638Y5998D01*
X232066Y5559D01*
X232484Y5109D01*
X232890Y4649D01*
X233285Y4180D01*
X233669Y3701D01*
X234040Y3212D01*
X234400Y2715D01*
X234747Y2209D01*
X235081Y1695D01*
X235403Y1173D01*
X235712Y642D01*
X236008Y105D01*
X236291Y-440D01*
X236560Y-991D01*
X236815Y-1549D01*
X237057Y-2113D01*
X237285Y-2683D01*
X237499Y-3258D01*
X237698Y-3838D01*
X237884Y-4423D01*
X238054Y-5012D01*
X238211Y-5605D01*
X238353Y-6202D01*
X238480Y-6803D01*
X238592Y-7406D01*
X238689Y-8012D01*
X238772Y-8620D01*
X238840Y-9230D01*
X238892Y-9841D01*
X238930Y-10453D01*
X238952Y-11066D01*
X238960Y-11680D01*
X238952Y-12294D01*
X238930Y-12907D01*
X238892Y-13519D01*
X238840Y-14130D01*
X238772Y-14740D01*
X238689Y-15348D01*
X238592Y-15954D01*
X238480Y-16557D01*
X238353Y-17158D01*
X238211Y-17755D01*
X238054Y-18348D01*
X237884Y-18937D01*
X237698Y-19522D01*
X237499Y-20102D01*
X237285Y-20677D01*
X237057Y-21247D01*
X236815Y-21811D01*
X236560Y-22369D01*
X236291Y-22920D01*
X236008Y-23465D01*
X235712Y-24002D01*
X235403Y-24533D01*
X235081Y-25055D01*
X234747Y-25569D01*
X234400Y-26075D01*
X234040Y-26572D01*
X233669Y-27061D01*
X233285Y-27540D01*
X232890Y-28009D01*
X232484Y-28469D01*
X232066Y-28919D01*
X231638Y-29358D01*
X231199Y-29786D01*
X230749Y-30204D01*
X230289Y-30610D01*
X229820Y-31005D01*
X229341Y-31389D01*
X228852Y-31760D01*
X228355Y-32120D01*
X227849Y-32467D01*
X227335Y-32801D01*
X226813Y-33123D01*
X226282Y-33432D01*
X225745Y-33728D01*
X225200Y-34011D01*
X224649Y-34280D01*
X224091Y-34535D01*
X223527Y-34777D01*
X222957Y-35005D01*
X222382Y-35219D01*
X221802Y-35418D01*
X221217Y-35604D01*
X220628Y-35774D01*
X220035Y-35931D01*
X219438Y-36073D01*
X218837Y-36200D01*
X218234Y-36312D01*
X217628Y-36409D01*
X217020Y-36492D01*
X216410Y-36560D01*
X215799Y-36612D01*
X215187Y-36650D01*
X214574Y-36672D01*
X213960Y-36680D01*
X213346Y-36672D01*
X212733Y-36650D01*
X212121Y-36612D01*
X211510Y-36560D01*
X210900Y-36492D01*
X210292Y-36409D01*
X209686Y-36312D01*
X209083Y-36200D01*
X208482Y-36073D01*
X207885Y-35931D01*
X207292Y-35774D01*
X206703Y-35604D01*
X206118Y-35418D01*
X205538Y-35219D01*
X204963Y-35005D01*
X204393Y-34777D01*
X203829Y-34535D01*
X203271Y-34280D01*
X202720Y-34011D01*
X202175Y-33728D01*
X201638Y-33432D01*
X201107Y-33123D01*
X200585Y-32801D01*
X200071Y-32467D01*
X199565Y-32120D01*
X199068Y-31760D01*
X198579Y-31389D01*
X198100Y-31005D01*
X197631Y-30610D01*
X197171Y-30204D01*
X196721Y-29786D01*
X196282Y-29358D01*
X195854Y-28919D01*
X195436Y-28469D01*
X195030Y-28009D01*
X194635Y-27540D01*
X194251Y-27061D01*
X193880Y-26572D01*
X193520Y-26075D01*
X193173Y-25569D01*
X192839Y-25055D01*
X192517Y-24533D01*
X192208Y-24002D01*
X191912Y-23465D01*
X191629Y-22920D01*
X191360Y-22369D01*
X191105Y-21811D01*
X190863Y-21247D01*
X190635Y-20677D01*
X190421Y-20102D01*
X190222Y-19522D01*
X190036Y-18937D01*
X189866Y-18348D01*
X189709Y-17755D01*
X189567Y-17158D01*
X189440Y-16557D01*
X189328Y-15954D01*
X189231Y-15348D01*
X189148Y-14740D01*
X189080Y-14130D01*
X189028Y-13519D01*
X188990Y-12907D01*
X188968Y-12294D01*
X188960Y-11680D01*
X581040Y-11680D02*
X581048Y-11066D01*
X581070Y-10453D01*
X581108Y-9841D01*
X581160Y-9230D01*
X581228Y-8620D01*
X581311Y-8012D01*
X581408Y-7406D01*
X581520Y-6803D01*
X581647Y-6202D01*
X581789Y-5605D01*
X581946Y-5012D01*
X582116Y-4423D01*
X582302Y-3838D01*
X582501Y-3258D01*
X582715Y-2683D01*
X582943Y-2113D01*
X583185Y-1549D01*
X583440Y-991D01*
X583709Y-440D01*
X583992Y105D01*
X584288Y642D01*
X584597Y1173D01*
X584919Y1695D01*
X585253Y2209D01*
X585600Y2715D01*
X585960Y3212D01*
X586331Y3701D01*
X586715Y4180D01*
X587110Y4649D01*
X587516Y5109D01*
X587934Y5559D01*
X588362Y5998D01*
X588801Y6426D01*
X589251Y6844D01*
X589711Y7250D01*
X590180Y7645D01*
X590659Y8029D01*
X591148Y8400D01*
X591645Y8760D01*
X592151Y9107D01*
X592665Y9441D01*
X593187Y9763D01*
X593718Y10072D01*
X594255Y10368D01*
X594800Y10651D01*
X595351Y10920D01*
X595909Y11175D01*
X596473Y11417D01*
X597043Y11645D01*
X597618Y11859D01*
X598198Y12058D01*
X598783Y12244D01*
X599372Y12414D01*
X599965Y12571D01*
X600562Y12713D01*
X601163Y12840D01*
X601766Y12952D01*
X602372Y13049D01*
X602980Y13132D01*
X603590Y13200D01*
X604201Y13252D01*
X604813Y13290D01*
X605426Y13312D01*
X606040Y13320D01*
X606654Y13312D01*
X607267Y13290D01*
X607879Y13252D01*
X608490Y13200D01*
X609100Y13132D01*
X609708Y13049D01*
X610314Y12952D01*
X610917Y12840D01*
X611518Y12713D01*
X612115Y12571D01*
X612708Y12414D01*
X613297Y12244D01*
X613882Y12058D01*
X614462Y11859D01*
X615037Y11645D01*
X615607Y11417D01*
X616171Y11175D01*
X616729Y10920D01*
X617280Y10651D01*
X617825Y10368D01*
X618362Y10072D01*
X618893Y9763D01*
X619415Y9441D01*
X619929Y9107D01*
X620435Y8760D01*
X620932Y8400D01*
X621421Y8029D01*
X621900Y7645D01*
X622369Y7250D01*
X622829Y6844D01*
X623279Y6426D01*
X623718Y5998D01*
X624146Y5559D01*
X624564Y5109D01*
X624970Y4649D01*
X625365Y4180D01*
X625749Y3701D01*
X626120Y3212D01*
X626480Y2715D01*
X626827Y2209D01*
X627161Y1695D01*
X627483Y1173D01*
X627792Y642D01*
X628088Y105D01*
X628371Y-440D01*
X628640Y-991D01*
X628895Y-1549D01*
X629137Y-2113D01*
X629365Y-2683D01*
X629579Y-3258D01*
X629778Y-3838D01*
X629964Y-4423D01*
X630134Y-5012D01*
X630291Y-5605D01*
X630433Y-6202D01*
X630560Y-6803D01*
X630672Y-7406D01*
X630769Y-8012D01*
X630852Y-8620D01*
X630920Y-9230D01*
X630972Y-9841D01*
X631010Y-10453D01*
X631032Y-11066D01*
X631040Y-11680D01*
X631032Y-12294D01*
X631010Y-12907D01*
X630972Y-13519D01*
X630920Y-14130D01*
X630852Y-14740D01*
X630769Y-15348D01*
X630672Y-15954D01*
X630560Y-16557D01*
X630433Y-17158D01*
X630291Y-17755D01*
X630134Y-18348D01*
X629964Y-18937D01*
X629778Y-19522D01*
X629579Y-20102D01*
X629365Y-20677D01*
X629137Y-21247D01*
X628895Y-21811D01*
X628640Y-22369D01*
X628371Y-22920D01*
X628088Y-23465D01*
X627792Y-24002D01*
X627483Y-24533D01*
X627161Y-25055D01*
X626827Y-25569D01*
X626480Y-26075D01*
X626120Y-26572D01*
X625749Y-27061D01*
X625365Y-27540D01*
X624970Y-28009D01*
X624564Y-28469D01*
X624146Y-28919D01*
X623718Y-29358D01*
X623279Y-29786D01*
X622829Y-30204D01*
X622369Y-30610D01*
X621900Y-31005D01*
X621421Y-31389D01*
X620932Y-31760D01*
X620435Y-32120D01*
X619929Y-32467D01*
X619415Y-32801D01*
X618893Y-33123D01*
X618362Y-33432D01*
X617825Y-33728D01*
X617280Y-34011D01*
X616729Y-34280D01*
X616171Y-34535D01*
X615607Y-34777D01*
X615037Y-35005D01*
X614462Y-35219D01*
X613882Y-35418D01*
X613297Y-35604D01*
X612708Y-35774D01*
X612115Y-35931D01*
X611518Y-36073D01*
X610917Y-36200D01*
X610314Y-36312D01*
X609708Y-36409D01*
X609100Y-36492D01*
X608490Y-36560D01*
X607879Y-36612D01*
X607267Y-36650D01*
X606654Y-36672D01*
X606040Y-36680D01*
X605426Y-36672D01*
X604813Y-36650D01*
X604201Y-36612D01*
X603590Y-36560D01*
X602980Y-36492D01*
X602372Y-36409D01*
X601766Y-36312D01*
X601163Y-36200D01*
X600562Y-36073D01*
X599965Y-35931D01*
X599372Y-35774D01*
X598783Y-35604D01*
X598198Y-35418D01*
X597618Y-35219D01*
X597043Y-35005D01*
X596473Y-34777D01*
X595909Y-34535D01*
X595351Y-34280D01*
X594800Y-34011D01*
X594255Y-33728D01*
X593718Y-33432D01*
X593187Y-33123D01*
X592665Y-32801D01*
X592151Y-32467D01*
X591645Y-32120D01*
X591148Y-31760D01*
X590659Y-31389D01*
X590180Y-31005D01*
X589711Y-30610D01*
X589251Y-30204D01*
X588801Y-29786D01*
X588362Y-29358D01*
X587934Y-28919D01*
X587516Y-28469D01*
X587110Y-28009D01*
X586715Y-27540D01*
X586331Y-27061D01*
X585960Y-26572D01*
X585600Y-26075D01*
X585253Y-25569D01*
X584919Y-25055D01*
X584597Y-24533D01*
X584288Y-24002D01*
X583992Y-23465D01*
X583709Y-22920D01*
X583440Y-22369D01*
X583185Y-21811D01*
X582943Y-21247D01*
X582715Y-20677D01*
X582501Y-20102D01*
X582302Y-19522D01*
X582116Y-18937D01*
X581946Y-18348D01*
X581789Y-17755D01*
X581647Y-17158D01*
X581520Y-16557D01*
X581408Y-15954D01*
X581311Y-15348D01*
X581228Y-14740D01*
X581160Y-14130D01*
X581108Y-13519D01*
X581070Y-12907D01*
X581048Y-12294D01*
X581040Y-11680D01*
X581040Y375320D02*
X581048Y375934D01*
X581070Y376547D01*
X581108Y377159D01*
X581160Y377770D01*
X581228Y378380D01*
X581311Y378988D01*
X581408Y379594D01*
X581520Y380197D01*
X581647Y380798D01*
X581789Y381395D01*
X581946Y381988D01*
X582116Y382577D01*
X582302Y383162D01*
X582501Y383742D01*
X582715Y384317D01*
X582943Y384887D01*
X583185Y385451D01*
X583440Y386009D01*
X583709Y386560D01*
X583992Y387105D01*
X584288Y387642D01*
X584597Y388173D01*
X584919Y388695D01*
X585253Y389209D01*
X585600Y389715D01*
X585960Y390212D01*
X586331Y390701D01*
X586715Y391180D01*
X587110Y391649D01*
X587516Y392109D01*
X587934Y392559D01*
X588362Y392998D01*
X588801Y393426D01*
X589251Y393844D01*
X589711Y394250D01*
X590180Y394645D01*
X590659Y395029D01*
X591148Y395400D01*
X591645Y395760D01*
X592151Y396107D01*
X592665Y396441D01*
X593187Y396763D01*
X593718Y397072D01*
X594255Y397368D01*
X594800Y397651D01*
X595351Y397920D01*
X595909Y398175D01*
X596473Y398417D01*
X597043Y398645D01*
X597618Y398859D01*
X598198Y399058D01*
X598783Y399244D01*
X599372Y399414D01*
X599965Y399571D01*
X600562Y399713D01*
X601163Y399840D01*
X601766Y399952D01*
X602372Y400049D01*
X602980Y400132D01*
X603590Y400200D01*
X604201Y400252D01*
X604813Y400290D01*
X605426Y400312D01*
X606040Y400320D01*
X606654Y400312D01*
X607267Y400290D01*
X607879Y400252D01*
X608490Y400200D01*
X609100Y400132D01*
X609708Y400049D01*
X610314Y399952D01*
X610917Y399840D01*
X611518Y399713D01*
X612115Y399571D01*
X612708Y399414D01*
X613297Y399244D01*
X613882Y399058D01*
X614462Y398859D01*
X615037Y398645D01*
X615607Y398417D01*
X616171Y398175D01*
X616729Y397920D01*
X617280Y397651D01*
X617825Y397368D01*
X618362Y397072D01*
X618893Y396763D01*
X619415Y396441D01*
X619929Y396107D01*
X620435Y395760D01*
X620932Y395400D01*
X621421Y395029D01*
X621900Y394645D01*
X622369Y394250D01*
X622829Y393844D01*
X623279Y393426D01*
X623718Y392998D01*
X624146Y392559D01*
X624564Y392109D01*
X624970Y391649D01*
X625365Y391180D01*
X625749Y390701D01*
X626120Y390212D01*
X626480Y389715D01*
X626827Y389209D01*
X627161Y388695D01*
X627483Y388173D01*
X627792Y387642D01*
X628088Y387105D01*
X628371Y386560D01*
X628640Y386009D01*
X628895Y385451D01*
X629137Y384887D01*
X629365Y384317D01*
X629579Y383742D01*
X629778Y383162D01*
X629964Y382577D01*
X630134Y381988D01*
X630291Y381395D01*
X630433Y380798D01*
X630560Y380197D01*
X630672Y379594D01*
X630769Y378988D01*
X630852Y378380D01*
X630920Y377770D01*
X630972Y377159D01*
X631010Y376547D01*
X631032Y375934D01*
X631040Y375320D01*
X631032Y374706D01*
X631010Y374093D01*
X630972Y373481D01*
X630920Y372870D01*
X630852Y372260D01*
X630769Y371652D01*
X630672Y371046D01*
X630560Y370443D01*
X630433Y369842D01*
X630291Y369245D01*
X630134Y368652D01*
X629964Y368063D01*
X629778Y367478D01*
X629579Y366898D01*
X629365Y366323D01*
X629137Y365753D01*
X628895Y365189D01*
X628640Y364631D01*
X628371Y364080D01*
X628088Y363535D01*
X627792Y362998D01*
X627483Y362467D01*
X627161Y361945D01*
X626827Y361431D01*
X626480Y360925D01*
X626120Y360428D01*
X625749Y359939D01*
X625365Y359460D01*
X624970Y358991D01*
X624564Y358531D01*
X624146Y358081D01*
X623718Y357642D01*
X623279Y357214D01*
X622829Y356796D01*
X622369Y356390D01*
X621900Y355995D01*
X621421Y355611D01*
X620932Y355240D01*
X620435Y354880D01*
X619929Y354533D01*
X619415Y354199D01*
X618893Y353877D01*
X618362Y353568D01*
X617825Y353272D01*
X617280Y352989D01*
X616729Y352720D01*
X616171Y352465D01*
X615607Y352223D01*
X615037Y351995D01*
X614462Y351781D01*
X613882Y351582D01*
X613297Y351396D01*
X612708Y351226D01*
X612115Y351069D01*
X611518Y350927D01*
X610917Y350800D01*
X610314Y350688D01*
X609708Y350591D01*
X609100Y350508D01*
X608490Y350440D01*
X607879Y350388D01*
X607267Y350350D01*
X606654Y350328D01*
X606040Y350320D01*
X605426Y350328D01*
X604813Y350350D01*
X604201Y350388D01*
X603590Y350440D01*
X602980Y350508D01*
X602372Y350591D01*
X601766Y350688D01*
X601163Y350800D01*
X600562Y350927D01*
X599965Y351069D01*
X599372Y351226D01*
X598783Y351396D01*
X598198Y351582D01*
X597618Y351781D01*
X597043Y351995D01*
X596473Y352223D01*
X595909Y352465D01*
X595351Y352720D01*
X594800Y352989D01*
X594255Y353272D01*
X593718Y353568D01*
X593187Y353877D01*
X592665Y354199D01*
X592151Y354533D01*
X591645Y354880D01*
X591148Y355240D01*
X590659Y355611D01*
X590180Y355995D01*
X589711Y356390D01*
X589251Y356796D01*
X588801Y357214D01*
X588362Y357642D01*
X587934Y358081D01*
X587516Y358531D01*
X587110Y358991D01*
X586715Y359460D01*
X586331Y359939D01*
X585960Y360428D01*
X585600Y360925D01*
X585253Y361431D01*
X584919Y361945D01*
X584597Y362467D01*
X584288Y362998D01*
X583992Y363535D01*
X583709Y364080D01*
X583440Y364631D01*
X583185Y365189D01*
X582943Y365753D01*
X582715Y366323D01*
X582501Y366898D01*
X582302Y367478D01*
X582116Y368063D01*
X581946Y368652D01*
X581789Y369245D01*
X581647Y369842D01*
X581520Y370443D01*
X581408Y371046D01*
X581311Y371652D01*
X581228Y372260D01*
X581160Y372870D01*
X581108Y373481D01*
X581070Y374093D01*
X581048Y374706D01*
X581040Y375320D01*
X188960Y375320D02*
X188968Y375934D01*
X188990Y376547D01*
X189028Y377159D01*
X189080Y377770D01*
X189148Y378380D01*
X189231Y378988D01*
X189328Y379594D01*
X189440Y380197D01*
X189567Y380798D01*
X189709Y381395D01*
X189866Y381988D01*
X190036Y382577D01*
X190222Y383162D01*
X190421Y383742D01*
X190635Y384317D01*
X190863Y384887D01*
X191105Y385451D01*
X191360Y386009D01*
X191629Y386560D01*
X191912Y387105D01*
X192208Y387642D01*
X192517Y388173D01*
X192839Y388695D01*
X193173Y389209D01*
X193520Y389715D01*
X193880Y390212D01*
X194251Y390701D01*
X194635Y391180D01*
X195030Y391649D01*
X195436Y392109D01*
X195854Y392559D01*
X196282Y392998D01*
X196721Y393426D01*
X197171Y393844D01*
X197631Y394250D01*
X198100Y394645D01*
X198579Y395029D01*
X199068Y395400D01*
X199565Y395760D01*
X200071Y396107D01*
X200585Y396441D01*
X201107Y396763D01*
X201638Y397072D01*
X202175Y397368D01*
X202720Y397651D01*
X203271Y397920D01*
X203829Y398175D01*
X204393Y398417D01*
X204963Y398645D01*
X205538Y398859D01*
X206118Y399058D01*
X206703Y399244D01*
X207292Y399414D01*
X207885Y399571D01*
X208482Y399713D01*
X209083Y399840D01*
X209686Y399952D01*
X210292Y400049D01*
X210900Y400132D01*
X211510Y400200D01*
X212121Y400252D01*
X212733Y400290D01*
X213346Y400312D01*
X213960Y400320D01*
X214574Y400312D01*
X215187Y400290D01*
X215799Y400252D01*
X216410Y400200D01*
X217020Y400132D01*
X217628Y400049D01*
X218234Y399952D01*
X218837Y399840D01*
X219438Y399713D01*
X220035Y399571D01*
X220628Y399414D01*
X221217Y399244D01*
X221802Y399058D01*
X222382Y398859D01*
X222957Y398645D01*
X223527Y398417D01*
X224091Y398175D01*
X224649Y397920D01*
X225200Y397651D01*
X225745Y397368D01*
X226282Y397072D01*
X226813Y396763D01*
X227335Y396441D01*
X227849Y396107D01*
X228355Y395760D01*
X228852Y395400D01*
X229341Y395029D01*
X229820Y394645D01*
X230289Y394250D01*
X230749Y393844D01*
X231199Y393426D01*
X231638Y392998D01*
X232066Y392559D01*
X232484Y392109D01*
X232890Y391649D01*
X233285Y391180D01*
X233669Y390701D01*
X234040Y390212D01*
X234400Y389715D01*
X234747Y389209D01*
X235081Y388695D01*
X235403Y388173D01*
X235712Y387642D01*
X236008Y387105D01*
X236291Y386560D01*
X236560Y386009D01*
X236815Y385451D01*
X237057Y384887D01*
X237285Y384317D01*
X237499Y383742D01*
X237698Y383162D01*
X237884Y382577D01*
X238054Y381988D01*
X238211Y381395D01*
X238353Y380798D01*
X238480Y380197D01*
X238592Y379594D01*
X238689Y378988D01*
X238772Y378380D01*
X238840Y377770D01*
X238892Y377159D01*
X238930Y376547D01*
X238952Y375934D01*
X238960Y375320D01*
X238952Y374706D01*
X238930Y374093D01*
X238892Y373481D01*
X238840Y372870D01*
X238772Y372260D01*
X238689Y371652D01*
X238592Y371046D01*
X238480Y370443D01*
X238353Y369842D01*
X238211Y369245D01*
X238054Y368652D01*
X237884Y368063D01*
X237698Y367478D01*
X237499Y366898D01*
X237285Y366323D01*
X237057Y365753D01*
X236815Y365189D01*
X236560Y364631D01*
X236291Y364080D01*
X236008Y363535D01*
X235712Y362998D01*
X235403Y362467D01*
X235081Y361945D01*
X234747Y361431D01*
X234400Y360925D01*
X234040Y360428D01*
X233669Y359939D01*
X233285Y359460D01*
X232890Y358991D01*
X232484Y358531D01*
X232066Y358081D01*
X231638Y357642D01*
X231199Y357214D01*
X230749Y356796D01*
X230289Y356390D01*
X229820Y355995D01*
X229341Y355611D01*
X228852Y355240D01*
X228355Y354880D01*
X227849Y354533D01*
X227335Y354199D01*
X226813Y353877D01*
X226282Y353568D01*
X225745Y353272D01*
X225200Y352989D01*
X224649Y352720D01*
X224091Y352465D01*
X223527Y352223D01*
X222957Y351995D01*
X222382Y351781D01*
X221802Y351582D01*
X221217Y351396D01*
X220628Y351226D01*
X220035Y351069D01*
X219438Y350927D01*
X218837Y350800D01*
X218234Y350688D01*
X217628Y350591D01*
X217020Y350508D01*
X216410Y350440D01*
X215799Y350388D01*
X215187Y350350D01*
X214574Y350328D01*
X213960Y350320D01*
X213346Y350328D01*
X212733Y350350D01*
X212121Y350388D01*
X211510Y350440D01*
X210900Y350508D01*
X210292Y350591D01*
X209686Y350688D01*
X209083Y350800D01*
X208482Y350927D01*
X207885Y351069D01*
X207292Y351226D01*
X206703Y351396D01*
X206118Y351582D01*
X205538Y351781D01*
X204963Y351995D01*
X204393Y352223D01*
X203829Y352465D01*
X203271Y352720D01*
X202720Y352989D01*
X202175Y353272D01*
X201638Y353568D01*
X201107Y353877D01*
X200585Y354199D01*
X200071Y354533D01*
X199565Y354880D01*
X199068Y355240D01*
X198579Y355611D01*
X198100Y355995D01*
X197631Y356390D01*
X197171Y356796D01*
X196721Y357214D01*
X196282Y357642D01*
X195854Y358081D01*
X195436Y358531D01*
X195030Y358991D01*
X194635Y359460D01*
X194251Y359939D01*
X193880Y360428D01*
X193520Y360925D01*
X193173Y361431D01*
X192839Y361945D01*
X192517Y362467D01*
X192208Y362998D01*
X191912Y363535D01*
X191629Y364080D01*
X191360Y364631D01*
X191105Y365189D01*
X190863Y365753D01*
X190635Y366323D01*
X190421Y366898D01*
X190222Y367478D01*
X190036Y368063D01*
X189866Y368652D01*
X189709Y369245D01*
X189567Y369842D01*
X189440Y370443D01*
X189328Y371046D01*
X189231Y371652D01*
X189148Y372260D01*
X189080Y372870D01*
X189028Y373481D01*
X188990Y374093D01*
X188968Y374706D01*
X188960Y375320D01*
D11*
X250617Y652D02*
X250617Y-22736D01*
X250617Y652D02*
X262311Y652D01*
X266209Y-3246D01*
X266209Y-7144D01*
X262311Y-11042D01*
X266209Y-14940D01*
X266209Y-18838D01*
X262311Y-22736D01*
X250617Y-22736D01*
X250617Y-11042D02*
X262311Y-11042D01*
X274005Y-22736D02*
X281801Y-22736D01*
X277903Y-22736D02*
X277903Y652D01*
X274005Y652D02*
X281801Y652D01*
X297393Y652D02*
X297393Y-22736D01*
X289597Y652D02*
X305189Y652D01*
X324679Y652D02*
X328577Y-3246D01*
X324679Y652D02*
X316883Y652D01*
X312985Y-3246D01*
X312985Y-7144D01*
X316883Y-11042D01*
X324679Y-11042D01*
X328577Y-14940D01*
X328577Y-18838D01*
X324679Y-22736D01*
X316883Y-22736D01*
X312985Y-18838D01*
X359761Y-7144D02*
X367557Y-22736D01*
X375353Y-7144D01*
X383149Y-3246D02*
X387047Y652D01*
X394843Y652D01*
X398741Y-3246D01*
X398741Y-7144D01*
X394843Y-11042D01*
X390945Y-11042D01*
X394843Y-11042D02*
X398741Y-14940D01*
X398741Y-18838D01*
X394843Y-22736D01*
X387047Y-22736D01*
X383149Y-18838D01*
X406537Y-18838D02*
X406537Y-22736D01*
X406537Y-18838D02*
X410435Y-18838D01*
X410435Y-22736D01*
X406537Y-22736D01*
X418231Y-22736D02*
X433823Y-22736D01*
X418231Y-22736D02*
X433823Y-7144D01*
X433823Y-3246D01*
X429925Y652D01*
X422129Y652D01*
X418231Y-3246D01*
D12*
X600063Y183817D02*
X598835Y185045D01*
X596377Y185045D01*
X595149Y183817D01*
X595149Y178902D01*
X596377Y177673D01*
X598835Y177673D01*
X600063Y178902D01*
X600063Y181359D01*
X597606Y181359D01*
X602633Y177673D02*
X602633Y185045D01*
X607548Y177673D01*
X607548Y185045D01*
X610117Y185045D02*
X610117Y177673D01*
X613803Y177673D01*
X615032Y178902D01*
X615032Y183817D01*
X613803Y185045D01*
X610117Y185045D01*
X598835Y172853D02*
X600063Y171625D01*
X598835Y172853D02*
X596377Y172853D01*
X595149Y171625D01*
X595149Y166710D01*
X596377Y165481D01*
X598835Y165481D01*
X600063Y166710D01*
X600063Y169167D01*
X597606Y169167D01*
X602633Y165481D02*
X602633Y172853D01*
X607548Y165481D01*
X607548Y172853D01*
X610117Y172853D02*
X610117Y165481D01*
X613803Y165481D01*
X615032Y166710D01*
X615032Y171625D01*
X613803Y172853D01*
X610117Y172853D01*
X595149Y160661D02*
X595149Y153289D01*
X600063Y153289D01*
X602633Y160661D02*
X607548Y160661D01*
X602633Y160661D02*
X602633Y153289D01*
X607548Y153289D01*
X605090Y156975D02*
X602633Y156975D01*
X610117Y160661D02*
X610117Y153289D01*
X613803Y153289D01*
X615032Y154518D01*
X615032Y159433D01*
X613803Y160661D01*
X610117Y160661D01*
X595149Y148469D02*
X595149Y143554D01*
X597606Y141097D01*
X600063Y143554D01*
X600063Y148469D01*
X602633Y141097D02*
X605090Y141097D01*
X603861Y141097D02*
X603861Y148469D01*
X602633Y148469D02*
X605090Y148469D01*
X607622Y148469D02*
X607622Y141097D01*
X612537Y141097D02*
X607622Y148469D01*
X612537Y148469D02*
X612537Y141097D01*
D11*
X388236Y117858D02*
X380486Y117858D01*
D13*
X388236Y117858D02*
X513236Y117858D01*
D11*
X520986Y117858D01*
X520986Y152858D01*
X519486Y152858D01*
X381986Y152858D01*
X380486Y152858D01*
X380486Y117858D01*
D13*
X380736Y141608D02*
X385736Y141608D01*
X515736Y141608D02*
X520736Y141608D01*
X385736Y129108D02*
X380736Y129108D01*
X385736Y129108D02*
X385736Y121608D01*
X515736Y129108D02*
X520736Y129108D01*
X515736Y129108D02*
X515736Y121608D01*
X385736Y141608D02*
X385736Y149108D01*
X515736Y149108D01*
X515736Y141608D01*
X385736Y149108D02*
X381986Y152858D01*
X515736Y149108D02*
X519486Y152858D01*
X385736Y121608D02*
X380736Y121608D01*
X385736Y121608D02*
X388236Y121608D01*
X388236Y117858D01*
X515736Y121608D02*
X520736Y121608D01*
X515736Y121608D02*
X513236Y121608D01*
X513236Y117858D01*
D14*
X394486Y138483D03*
X406986Y138483D03*
X419486Y138483D03*
X431986Y138483D03*
X444486Y138483D03*
X456986Y138483D03*
X469486Y138483D03*
X481986Y138483D03*
X494486Y138483D03*
X506986Y138483D03*
D15*
X433878Y235198D03*
X433878Y227698D03*
D16*
X433878Y231448D03*
D17*
X581286Y335481D02*
X581286Y337981D01*
X484286Y337981D01*
X484286Y335481D01*
X484286Y236981D02*
X581286Y236981D01*
X484286Y236981D02*
X484286Y238481D01*
X581286Y238481D02*
X581286Y236981D01*
D18*
X507548Y245832D02*
X504116Y245832D01*
X507548Y245832D02*
X508692Y246976D01*
X508692Y250408D01*
X504116Y250408D01*
X505260Y253316D02*
X505260Y257892D01*
X501828Y260800D02*
X508692Y260800D01*
X508692Y264232D01*
X507548Y265376D01*
X505260Y265376D01*
X504116Y264232D01*
X504116Y260800D01*
X501828Y268284D02*
X501828Y269428D01*
X508692Y269428D01*
X508692Y268284D02*
X508692Y270572D01*
X508692Y274418D02*
X508692Y276706D01*
X507548Y277850D01*
X505260Y277850D01*
X504116Y276706D01*
X504116Y274418D01*
X505260Y273274D01*
X507548Y273274D01*
X508692Y274418D01*
X504116Y280758D02*
X508692Y285334D01*
X508692Y280758D02*
X504116Y285334D01*
X501828Y295726D02*
X508692Y295726D01*
X504116Y298014D02*
X501828Y295726D01*
X504116Y298014D02*
X501828Y300302D01*
X508692Y300302D01*
X508692Y303210D02*
X504116Y303210D01*
X501828Y305498D01*
X504116Y307786D01*
X508692Y307786D01*
X505260Y307786D02*
X505260Y303210D01*
X501828Y310695D02*
X508692Y315271D01*
X508692Y310695D02*
X501828Y315271D01*
D19*
X506286Y325981D03*
D11*
X615795Y265868D02*
X669795Y265868D01*
X669795Y243868D02*
X615795Y243868D01*
X616795Y251868D02*
X616795Y257868D01*
X616795Y251868D02*
X626795Y251868D01*
X626795Y257868D01*
X616795Y257868D01*
X601795Y264868D02*
X601795Y244868D01*
D18*
X251682Y300412D02*
X251693Y301271D01*
X251724Y302129D01*
X251777Y302987D01*
X251851Y303843D01*
X251945Y304696D01*
X252061Y305548D01*
X252197Y306396D01*
X252355Y307240D01*
X252532Y308081D01*
X252731Y308916D01*
X252950Y309747D01*
X253189Y310572D01*
X253449Y311391D01*
X253728Y312203D01*
X254027Y313008D01*
X254346Y313806D01*
X254685Y314595D01*
X255042Y315376D01*
X255419Y316148D01*
X255815Y316911D01*
X256229Y317663D01*
X256661Y318406D01*
X257112Y319137D01*
X257581Y319857D01*
X258067Y320565D01*
X258570Y321261D01*
X259090Y321945D01*
X259627Y322616D01*
X260180Y323273D01*
X260749Y323917D01*
X261333Y324546D01*
X261933Y325161D01*
X262548Y325761D01*
X263177Y326345D01*
X263821Y326914D01*
X264478Y327467D01*
X265149Y328004D01*
X265833Y328524D01*
X266529Y329027D01*
X267237Y329513D01*
X267957Y329982D01*
X268688Y330433D01*
X269431Y330865D01*
X270183Y331279D01*
X270946Y331675D01*
X271718Y332052D01*
X272499Y332409D01*
X273288Y332748D01*
X274086Y333067D01*
X274891Y333366D01*
X275703Y333645D01*
X276522Y333905D01*
X277347Y334144D01*
X278178Y334363D01*
X279013Y334562D01*
X279854Y334739D01*
X280698Y334897D01*
X281546Y335033D01*
X282398Y335149D01*
X283251Y335243D01*
X284107Y335317D01*
X284965Y335370D01*
X285823Y335401D01*
X286682Y335412D01*
X287541Y335401D01*
X288399Y335370D01*
X289257Y335317D01*
X290113Y335243D01*
X290966Y335149D01*
X291818Y335033D01*
X292666Y334897D01*
X293510Y334739D01*
X294351Y334562D01*
X295186Y334363D01*
X296017Y334144D01*
X296842Y333905D01*
X297661Y333645D01*
X298473Y333366D01*
X299278Y333067D01*
X300076Y332748D01*
X300865Y332409D01*
X301646Y332052D01*
X302418Y331675D01*
X303181Y331279D01*
X303933Y330865D01*
X304676Y330433D01*
X305407Y329982D01*
X306127Y329513D01*
X306835Y329027D01*
X307531Y328524D01*
X308215Y328004D01*
X308886Y327467D01*
X309543Y326914D01*
X310187Y326345D01*
X310816Y325761D01*
X311431Y325161D01*
X312031Y324546D01*
X312615Y323917D01*
X313184Y323273D01*
X313737Y322616D01*
X314274Y321945D01*
X314794Y321261D01*
X315297Y320565D01*
X315783Y319857D01*
X316252Y319137D01*
X316703Y318406D01*
X317135Y317663D01*
X317549Y316911D01*
X317945Y316148D01*
X318322Y315376D01*
X318679Y314595D01*
X319018Y313806D01*
X319337Y313008D01*
X319636Y312203D01*
X319915Y311391D01*
X320175Y310572D01*
X320414Y309747D01*
X320633Y308916D01*
X320832Y308081D01*
X321009Y307240D01*
X321167Y306396D01*
X321303Y305548D01*
X321419Y304696D01*
X321513Y303843D01*
X321587Y302987D01*
X321640Y302129D01*
X321671Y301271D01*
X321682Y300412D01*
X321671Y299553D01*
X321640Y298695D01*
X321587Y297837D01*
X321513Y296981D01*
X321419Y296128D01*
X321303Y295276D01*
X321167Y294428D01*
X321009Y293584D01*
X320832Y292743D01*
X320633Y291908D01*
X320414Y291077D01*
X320175Y290252D01*
X319915Y289433D01*
X319636Y288621D01*
X319337Y287816D01*
X319018Y287018D01*
X318679Y286229D01*
X318322Y285448D01*
X317945Y284676D01*
X317549Y283913D01*
X317135Y283161D01*
X316703Y282418D01*
X316252Y281687D01*
X315783Y280967D01*
X315297Y280259D01*
X314794Y279563D01*
X314274Y278879D01*
X313737Y278208D01*
X313184Y277551D01*
X312615Y276907D01*
X312031Y276278D01*
X311431Y275663D01*
X310816Y275063D01*
X310187Y274479D01*
X309543Y273910D01*
X308886Y273357D01*
X308215Y272820D01*
X307531Y272300D01*
X306835Y271797D01*
X306127Y271311D01*
X305407Y270842D01*
X304676Y270391D01*
X303933Y269959D01*
X303181Y269545D01*
X302418Y269149D01*
X301646Y268772D01*
X300865Y268415D01*
X300076Y268076D01*
X299278Y267757D01*
X298473Y267458D01*
X297661Y267179D01*
X296842Y266919D01*
X296017Y266680D01*
X295186Y266461D01*
X294351Y266262D01*
X293510Y266085D01*
X292666Y265927D01*
X291818Y265791D01*
X290966Y265675D01*
X290113Y265581D01*
X289257Y265507D01*
X288399Y265454D01*
X287541Y265423D01*
X286682Y265412D01*
X285823Y265423D01*
X284965Y265454D01*
X284107Y265507D01*
X283251Y265581D01*
X282398Y265675D01*
X281546Y265791D01*
X280698Y265927D01*
X279854Y266085D01*
X279013Y266262D01*
X278178Y266461D01*
X277347Y266680D01*
X276522Y266919D01*
X275703Y267179D01*
X274891Y267458D01*
X274086Y267757D01*
X273288Y268076D01*
X272499Y268415D01*
X271718Y268772D01*
X270946Y269149D01*
X270183Y269545D01*
X269431Y269959D01*
X268688Y270391D01*
X267957Y270842D01*
X267237Y271311D01*
X266529Y271797D01*
X265833Y272300D01*
X265149Y272820D01*
X264478Y273357D01*
X263821Y273910D01*
X263177Y274479D01*
X262548Y275063D01*
X261933Y275663D01*
X261333Y276278D01*
X260749Y276907D01*
X260180Y277551D01*
X259627Y278208D01*
X259090Y278879D01*
X258570Y279563D01*
X258067Y280259D01*
X257581Y280967D01*
X257112Y281687D01*
X256661Y282418D01*
X256229Y283161D01*
X255815Y283913D01*
X255419Y284676D01*
X255042Y285448D01*
X254685Y286229D01*
X254346Y287018D01*
X254027Y287816D01*
X253728Y288621D01*
X253449Y289433D01*
X253189Y290252D01*
X252950Y291077D01*
X252731Y291908D01*
X252532Y292743D01*
X252355Y293584D01*
X252197Y294428D01*
X252061Y295276D01*
X251945Y296128D01*
X251851Y296981D01*
X251777Y297837D01*
X251724Y298695D01*
X251693Y299553D01*
X251682Y300412D01*
X326682Y290412D02*
X326682Y310412D01*
X276682Y310412D01*
X276682Y290412D01*
X326682Y290412D01*
D20*
X344782Y291812D03*
D18*
X346791Y158039D02*
X202791Y158039D01*
X202791Y16539D01*
X346791Y16539D01*
X346791Y158039D01*
X192291Y143039D02*
X192291Y33039D01*
X192486Y33178D02*
X192481Y32921D01*
X192483Y32664D01*
X192491Y32407D01*
X192505Y32150D01*
X192526Y31894D01*
X192553Y31638D01*
X192586Y31383D01*
X192625Y31128D01*
X192671Y30875D01*
X192723Y30623D01*
X192781Y30373D01*
X192845Y30123D01*
X192915Y29876D01*
X192991Y29630D01*
X193074Y29387D01*
X193162Y29145D01*
X193256Y28905D01*
X193356Y28668D01*
X193462Y28434D01*
X193573Y28202D01*
X193690Y27973D01*
X193813Y27747D01*
X193941Y27524D01*
X194075Y27304D01*
X194214Y27088D01*
X194359Y26875D01*
X194508Y26665D01*
X194663Y26460D01*
X194822Y26258D01*
X194987Y26060D01*
X195156Y25866D01*
X195330Y25677D01*
X195509Y25492D01*
X195692Y25311D01*
X195879Y25135D01*
X196071Y24963D01*
X196267Y24797D01*
X196467Y24635D01*
X196671Y24478D01*
X196878Y24326D01*
X197089Y24179D01*
X197304Y24038D01*
X197523Y23901D01*
X197744Y23771D01*
X197969Y23645D01*
X198196Y23525D01*
X198427Y23411D01*
X198660Y23303D01*
X198896Y23200D01*
X199134Y23103D01*
X199375Y23012D01*
X199618Y22927D01*
X199863Y22848D01*
X200109Y22775D01*
X200358Y22708D01*
X200608Y22647D01*
X200859Y22592D01*
X201112Y22544D01*
X201365Y22501D01*
X201620Y22465D01*
X201876Y22436D01*
X202132Y22412D01*
X202388Y22395D01*
X202646Y22384D01*
X192486Y142399D02*
X192489Y142645D01*
X192498Y142890D01*
X192513Y143135D01*
X192533Y143380D01*
X192560Y143624D01*
X192593Y143867D01*
X192631Y144110D01*
X192675Y144351D01*
X192725Y144591D01*
X192781Y144830D01*
X192843Y145068D01*
X192910Y145304D01*
X192983Y145539D01*
X193062Y145771D01*
X193146Y146002D01*
X193236Y146230D01*
X193331Y146457D01*
X193432Y146680D01*
X193538Y146902D01*
X193650Y147121D01*
X193766Y147337D01*
X193888Y147550D01*
X194015Y147760D01*
X194147Y147967D01*
X194284Y148171D01*
X194426Y148371D01*
X194573Y148568D01*
X194725Y148761D01*
X194881Y148951D01*
X195041Y149136D01*
X195206Y149318D01*
X195376Y149496D01*
X195549Y149669D01*
X195727Y149839D01*
X195909Y150004D01*
X196094Y150164D01*
X196284Y150320D01*
X196477Y150472D01*
X196674Y150619D01*
X196874Y150761D01*
X197078Y150898D01*
X197285Y151030D01*
X197495Y151157D01*
X197708Y151279D01*
X197924Y151395D01*
X198143Y151507D01*
X198365Y151613D01*
X198588Y151714D01*
X198815Y151809D01*
X199043Y151899D01*
X199274Y151983D01*
X199506Y152062D01*
X199741Y152135D01*
X199977Y152202D01*
X200215Y152264D01*
X200454Y152320D01*
X200694Y152370D01*
X200935Y152414D01*
X201178Y152452D01*
X201421Y152485D01*
X201665Y152512D01*
X201910Y152532D01*
X202155Y152547D01*
X202400Y152556D01*
X202646Y152559D01*
X447979Y92379D02*
X447979Y32379D01*
X387979Y32379D01*
X387979Y92379D01*
X447979Y92379D01*
X471410Y67975D02*
X471410Y17975D01*
X471410Y67975D02*
X511410Y67975D01*
X511410Y17975D01*
X471410Y17975D01*
X472360Y17575D02*
X510460Y17575D01*
X510460Y68375D02*
X472360Y68375D01*
X502110Y22975D02*
X502112Y23064D01*
X502118Y23153D01*
X502128Y23242D01*
X502142Y23330D01*
X502159Y23417D01*
X502181Y23503D01*
X502207Y23589D01*
X502236Y23673D01*
X502269Y23756D01*
X502305Y23837D01*
X502346Y23917D01*
X502389Y23994D01*
X502436Y24070D01*
X502487Y24143D01*
X502540Y24214D01*
X502597Y24283D01*
X502657Y24349D01*
X502720Y24413D01*
X502785Y24473D01*
X502853Y24531D01*
X502924Y24585D01*
X502997Y24636D01*
X503072Y24684D01*
X503149Y24729D01*
X503228Y24770D01*
X503309Y24807D01*
X503391Y24841D01*
X503475Y24872D01*
X503560Y24898D01*
X503646Y24921D01*
X503733Y24939D01*
X503821Y24954D01*
X503910Y24965D01*
X503999Y24972D01*
X504088Y24975D01*
X504177Y24974D01*
X504266Y24969D01*
X504354Y24960D01*
X504443Y24947D01*
X504530Y24930D01*
X504617Y24910D01*
X504703Y24885D01*
X504787Y24857D01*
X504870Y24825D01*
X504952Y24789D01*
X505032Y24750D01*
X505110Y24707D01*
X505186Y24661D01*
X505260Y24611D01*
X505332Y24558D01*
X505401Y24502D01*
X505468Y24443D01*
X505532Y24381D01*
X505593Y24317D01*
X505652Y24249D01*
X505707Y24179D01*
X505759Y24107D01*
X505808Y24032D01*
X505853Y23956D01*
X505895Y23877D01*
X505933Y23797D01*
X505968Y23715D01*
X505999Y23631D01*
X506027Y23546D01*
X506050Y23460D01*
X506070Y23373D01*
X506086Y23286D01*
X506098Y23197D01*
X506106Y23109D01*
X506110Y23020D01*
X506110Y22930D01*
X506106Y22841D01*
X506098Y22753D01*
X506086Y22664D01*
X506070Y22577D01*
X506050Y22490D01*
X506027Y22404D01*
X505999Y22319D01*
X505968Y22235D01*
X505933Y22153D01*
X505895Y22073D01*
X505853Y21994D01*
X505808Y21918D01*
X505759Y21843D01*
X505707Y21771D01*
X505652Y21701D01*
X505593Y21633D01*
X505532Y21569D01*
X505468Y21507D01*
X505401Y21448D01*
X505332Y21392D01*
X505260Y21339D01*
X505186Y21289D01*
X505110Y21243D01*
X505032Y21200D01*
X504952Y21161D01*
X504870Y21125D01*
X504787Y21093D01*
X504703Y21065D01*
X504617Y21040D01*
X504530Y21020D01*
X504443Y21003D01*
X504354Y20990D01*
X504266Y20981D01*
X504177Y20976D01*
X504088Y20975D01*
X503999Y20978D01*
X503910Y20985D01*
X503821Y20996D01*
X503733Y21011D01*
X503646Y21029D01*
X503560Y21052D01*
X503475Y21078D01*
X503391Y21109D01*
X503309Y21143D01*
X503228Y21180D01*
X503149Y21221D01*
X503072Y21266D01*
X502997Y21314D01*
X502924Y21365D01*
X502853Y21419D01*
X502785Y21477D01*
X502720Y21537D01*
X502657Y21601D01*
X502597Y21667D01*
X502540Y21736D01*
X502487Y21807D01*
X502436Y21880D01*
X502389Y21956D01*
X502346Y22033D01*
X502305Y22113D01*
X502269Y22194D01*
X502236Y22277D01*
X502207Y22361D01*
X502181Y22447D01*
X502159Y22533D01*
X502142Y22620D01*
X502128Y22708D01*
X502118Y22797D01*
X502112Y22886D01*
X502110Y22975D01*
X446250Y3543D02*
X446250Y-21857D01*
X471650Y-21857D01*
X471650Y3543D01*
X446250Y3543D01*
D21*
X458310Y18021D02*
X458310Y25817D01*
X454412Y21919D02*
X462208Y21919D01*
D11*
X548340Y161070D02*
X284290Y161070D01*
X221040Y224320D01*
X221040Y339820D01*
X284290Y403070D01*
X548340Y403070D01*
X548340Y161070D01*
D18*
X636750Y136200D02*
X636750Y16200D01*
X636750Y136200D02*
X569750Y136200D01*
X569750Y16200D01*
X636750Y16200D01*
M02*
