G04 EAGLE Gerber RS-274X export*
G75*
%MOMM*%
%FSLAX34Y34*%
%LPD*%
%INSolderpaste Top*%
%IPPOS*%
%AMOC8*
5,1,8,0,0,1.08239X$1,22.5*%
G01*
%ADD10R,0.800000X1.800000*%
%ADD11R,2.100000X3.000000*%
%ADD12R,1.100000X1.000000*%
%ADD13R,1.000000X1.100000*%
%ADD14R,0.800000X0.800000*%
%ADD15R,1.800000X0.800000*%
%ADD16R,1.800000X0.700000*%
%ADD17R,0.750000X2.000000*%
%ADD18R,2.000000X0.600000*%
%ADD19R,0.700000X0.500000*%
%ADD20R,2.600000X1.000000*%
%ADD21R,2.000000X0.700000*%
%ADD22R,2.600000X1.500000*%
%ADD23R,1.400000X2.700000*%
%ADD24R,1.200000X1.200000*%
%ADD25R,5.700000X1.700000*%
%ADD26R,2.700000X1.600000*%
%ADD27R,2.200000X0.500000*%
%ADD28R,2.400000X3.100000*%
%ADD29R,1.676400X1.524000*%


D10*
X506986Y106608D03*
X494486Y106608D03*
X481986Y106608D03*
X469486Y106608D03*
X456986Y106608D03*
X444486Y106608D03*
X431986Y106608D03*
X419486Y106608D03*
X406986Y106608D03*
X394486Y106608D03*
D11*
X531986Y137858D03*
X369486Y137858D03*
D12*
X551334Y85622D03*
X551334Y102622D03*
X555904Y137428D03*
X555904Y120428D03*
D13*
X438980Y215742D03*
X421980Y215742D03*
D14*
X439878Y231448D03*
X424878Y231448D03*
D15*
X580286Y253981D03*
X580286Y264981D03*
X580286Y275981D03*
X580286Y286981D03*
X580286Y297981D03*
X580286Y308981D03*
X580286Y319981D03*
D16*
X580286Y330481D03*
X580286Y243481D03*
D15*
X485286Y253981D03*
X485286Y264981D03*
X485286Y275981D03*
X485286Y286981D03*
X485286Y297981D03*
X485286Y308981D03*
X485286Y319981D03*
D16*
X485286Y330481D03*
X485286Y243481D03*
D13*
X465942Y323318D03*
X448942Y323318D03*
D12*
X460096Y305922D03*
X460096Y288922D03*
D17*
X608795Y254868D03*
X676795Y254868D03*
D18*
X336682Y293412D03*
X336682Y307412D03*
D12*
X363444Y311542D03*
X363444Y294542D03*
D19*
X400132Y317078D03*
X387132Y317078D03*
D20*
X217791Y154039D03*
D21*
X212791Y56039D03*
X212791Y67039D03*
X212791Y78039D03*
X212791Y89039D03*
X212791Y100039D03*
X212791Y111039D03*
X212791Y122039D03*
X212791Y133039D03*
D22*
X217791Y20539D03*
D23*
X339791Y119039D03*
X339791Y70039D03*
D24*
X340791Y39539D03*
D12*
X528910Y103196D03*
X528910Y86196D03*
D25*
X417979Y48379D03*
X417979Y76379D03*
D13*
X474787Y83847D03*
X457787Y83847D03*
X507352Y83478D03*
X490352Y83478D03*
X488255Y-11710D03*
X488255Y5290D03*
D26*
X519280Y1681D03*
X519280Y-26319D03*
D12*
X376305Y92005D03*
X359305Y92005D03*
D26*
X552824Y1632D03*
X552824Y-26369D03*
D12*
X376625Y70128D03*
X359625Y70128D03*
D27*
X520160Y23775D03*
X520160Y36475D03*
X520160Y49475D03*
X520160Y62175D03*
X462660Y62175D03*
X462660Y49475D03*
X462660Y36475D03*
X462660Y23775D03*
D28*
X491410Y42975D03*
D29*
X458950Y-26175D03*
X458950Y7861D03*
D12*
X552504Y70906D03*
X552504Y53906D03*
X552632Y38553D03*
X552632Y21553D03*
D13*
X565032Y157480D03*
X582032Y157480D03*
M02*
