G04 EAGLE Gerber RS-274X export*
G75*
%MOMM*%
%FSLAX34Y34*%
%LPD*%
%INSoldermask Top*%
%IPPOS*%
%AMOC8*
5,1,8,0,0,1.08239X$1,22.5*%
G01*
%ADD10C,2.627000*%
%ADD11C,1.516888*%
%ADD12R,0.927000X1.927000*%
%ADD13R,2.227000X3.127000*%
%ADD14R,1.227000X1.127000*%
%ADD15R,1.127000X1.227000*%
%ADD16R,0.927000X0.927000*%
%ADD17R,1.927000X0.927000*%
%ADD18R,1.927000X0.827000*%
%ADD19R,0.877000X2.127000*%
%ADD20R,2.127000X0.727000*%
%ADD21R,0.827000X0.627000*%
%ADD22R,2.727000X1.127000*%
%ADD23R,2.127000X0.827000*%
%ADD24R,2.727000X1.627000*%
%ADD25R,1.527000X2.827000*%
%ADD26R,1.327000X1.327000*%
%ADD27R,5.827000X1.827000*%
%ADD28R,2.827000X1.727000*%
%ADD29R,2.327000X0.627000*%
%ADD30R,2.527000X3.227000*%
%ADD31R,1.803400X1.651000*%
%ADD32C,1.397000*%
%ADD33C,1.279000*%
%ADD34C,0.881000*%
%ADD35C,0.731000*%


D10*
X606040Y-11680D03*
X213960Y-11680D03*
X606040Y375320D03*
X213960Y375320D03*
D11*
X569380Y194360D03*
X543980Y194360D03*
X518580Y194360D03*
X493180Y194360D03*
X467780Y194360D03*
X442380Y194360D03*
X416980Y194360D03*
X391580Y194360D03*
X366180Y194360D03*
X340780Y194360D03*
X315380Y194360D03*
X289980Y194360D03*
X264580Y194360D03*
X239180Y194360D03*
X239180Y219760D03*
X239180Y245160D03*
X239180Y270560D03*
X239180Y295960D03*
X239180Y321360D03*
X239180Y346760D03*
X264580Y346760D03*
X289980Y346760D03*
X315380Y346760D03*
X340780Y346760D03*
X366180Y346760D03*
X391580Y346760D03*
X416980Y346760D03*
X442380Y346760D03*
X467780Y346760D03*
X493180Y346760D03*
X518580Y346760D03*
X543980Y346760D03*
X569380Y346760D03*
D12*
X506986Y106608D03*
X494486Y106608D03*
X481986Y106608D03*
X469486Y106608D03*
X456986Y106608D03*
X444486Y106608D03*
X431986Y106608D03*
X419486Y106608D03*
X406986Y106608D03*
X394486Y106608D03*
D13*
X531986Y137858D03*
X369486Y137858D03*
D14*
X551334Y85622D03*
X551334Y102622D03*
X555904Y137428D03*
X555904Y120428D03*
D15*
X438980Y215742D03*
X421980Y215742D03*
D16*
X439878Y231448D03*
X424878Y231448D03*
D17*
X580286Y253981D03*
X580286Y264981D03*
X580286Y275981D03*
X580286Y286981D03*
X580286Y297981D03*
X580286Y308981D03*
X580286Y319981D03*
D18*
X580286Y330481D03*
X580286Y243481D03*
D17*
X485286Y253981D03*
X485286Y264981D03*
X485286Y275981D03*
X485286Y286981D03*
X485286Y297981D03*
X485286Y308981D03*
X485286Y319981D03*
D18*
X485286Y330481D03*
X485286Y243481D03*
D15*
X465942Y323318D03*
X448942Y323318D03*
D14*
X460096Y305922D03*
X460096Y288922D03*
D19*
X608795Y254868D03*
X676795Y254868D03*
D20*
X336682Y293412D03*
X336682Y307412D03*
D14*
X363444Y311542D03*
X363444Y294542D03*
D21*
X400132Y317078D03*
X387132Y317078D03*
D22*
X217791Y154039D03*
D23*
X212791Y56039D03*
X212791Y67039D03*
X212791Y78039D03*
X212791Y89039D03*
X212791Y100039D03*
X212791Y111039D03*
X212791Y122039D03*
X212791Y133039D03*
D24*
X217791Y20539D03*
D25*
X339791Y119039D03*
X339791Y70039D03*
D26*
X340791Y39539D03*
D14*
X528910Y103196D03*
X528910Y86196D03*
D27*
X417979Y48379D03*
X417979Y76379D03*
D15*
X474787Y83847D03*
X457787Y83847D03*
X507352Y83478D03*
X490352Y83478D03*
X488255Y-11710D03*
X488255Y5290D03*
D28*
X519280Y1681D03*
X519280Y-26319D03*
D14*
X376305Y92005D03*
X359305Y92005D03*
D28*
X552824Y1632D03*
X552824Y-26369D03*
D14*
X376625Y70128D03*
X359625Y70128D03*
D29*
X520160Y23775D03*
X520160Y36475D03*
X520160Y49475D03*
X520160Y62175D03*
X462660Y62175D03*
X462660Y49475D03*
X462660Y36475D03*
X462660Y23775D03*
D30*
X491410Y42975D03*
D31*
X458950Y-26175D03*
X458950Y7861D03*
D14*
X552504Y70906D03*
X552504Y53906D03*
X552632Y38553D03*
X552632Y21553D03*
D32*
X285290Y172070D03*
X305290Y172070D03*
X325290Y172070D03*
X345290Y172070D03*
X365290Y172070D03*
X385290Y172070D03*
X405290Y172070D03*
X425290Y172070D03*
X445290Y172070D03*
X465290Y172070D03*
X465290Y392070D03*
X445290Y392070D03*
X425290Y392070D03*
X405290Y392070D03*
X385290Y392070D03*
X365290Y392070D03*
X345290Y392070D03*
X325290Y392070D03*
X305290Y392070D03*
X285290Y392070D03*
D33*
X603250Y66200D03*
X603250Y46200D03*
X603250Y86200D03*
X603250Y106200D03*
D15*
X565032Y157480D03*
X582032Y157480D03*
D34*
X279908Y31496D03*
X296164Y127762D03*
X285242Y233680D03*
X203200Y195072D03*
X254508Y329946D03*
X357632Y367030D03*
X367030Y325628D03*
X412242Y308610D03*
X342138Y253238D03*
X402590Y212344D03*
X461264Y230124D03*
X401066Y249428D03*
X566928Y220980D03*
X508000Y323596D03*
X513842Y222250D03*
X483870Y177292D03*
X451866Y150876D03*
X419862Y122428D03*
X489712Y125222D03*
X535686Y167386D03*
X575818Y-22606D03*
X627126Y94996D03*
X584708Y173482D03*
X442722Y370332D03*
X486330Y42975D03*
X486330Y53135D03*
X496490Y32815D03*
X496490Y42975D03*
X496490Y53135D03*
X395732Y125984D03*
X578104Y109474D03*
D35*
X233680Y111760D03*
X454660Y259080D03*
D34*
X486330Y32815D03*
X568706Y382016D03*
X411226Y-26924D03*
X314452Y252730D03*
X327152Y92710D03*
D35*
X236220Y88900D03*
X408940Y317500D03*
X375920Y50800D03*
X325120Y116840D03*
X470098Y121722D03*
X378460Y294640D03*
X467360Y276860D03*
M02*
