M48
;GenerationSoftware,Autodesk,EAGLE,9.2.2*%
;CreationDate,2020-07-09T15:05:43Z*%
FMAT,2
ICI,OFF
METRIC,TZ,000.000
T5C0.350
T4C0.500
T3C0.800
T2C0.965
T1C2.500
%
G90
M71
T1
X60604Y-1168
X21396Y-1168
X60604Y37532
X21396Y37532
T2
X28998Y19436
X31538Y19436
X34078Y19436
X46778Y19436
X36618Y19436
X39158Y19436
X41698Y19436
X44238Y19436
X56938Y19436
X23918Y29596
X54398Y19436
X51858Y19436
X49318Y19436
X56938Y34676
X54398Y34676
X51858Y34676
X49318Y34676
X46778Y34676
X44238Y34676
X41698Y34676
X39158Y34676
X36618Y34676
X34078Y34676
X31538Y34676
X28998Y34676
X26458Y34676
X23918Y34676
X23918Y32136
X23918Y27056
X23918Y24516
X23918Y21976
X23918Y19436
X26458Y19436
T3
X42529Y17207
X44529Y17207
X46529Y17207
X44529Y39207
X42529Y39207
X40529Y39207
X38529Y39207
X36529Y39207
X34529Y39207
X32529Y39207
X30529Y39207
X28529Y39207
X60325Y6620
X60325Y4620
X60325Y8620
X60325Y10620
X46529Y39207
X28529Y17207
X30529Y17207
X32529Y17207
X34529Y17207
X36529Y17207
X38529Y17207
X40529Y17207
T4
X27991Y3150
X29616Y12776
X28524Y23368
X20320Y19507
X25451Y32995
X35763Y36703
X36703Y32563
X41224Y30861
X34214Y25324
X40259Y21234
X46126Y23012
X40107Y24943
X56693Y22098
X51384Y22225
X48387Y17729
X45187Y15088
X62713Y9500
X57582Y-2261
X53569Y16739
X48971Y12522
X41986Y12243
X44272Y37033
X32715Y9271
X31445Y25273
X41123Y-2692
X56871Y38202
X50800Y32360
X48633Y3282
X49649Y4298
X57810Y10947
X39573Y12598
X49649Y5314
X58471Y17348
X49649Y3282
X48633Y5314
X48633Y4298
T5
X46736Y27686
X40894Y31750
X23622Y8890
X37846Y29464
X45466Y25908
X47010Y12172
X23368Y11176
X32512Y11684
X37592Y5080
M30